/* XPM */
static char * image_name[] = {
"48 48 20 1",
" 	c None",
".	c #A6A6A5A5AFAF",
"X	c #BFBFBEBEC4C4",
"o	c #F5F5F6F6F5F5",
"O	c #D1D1D1D1D8D8",
"+	c #626262626262",
"@	c #3D3D47471919",
"#	c #D1D1C4C40E0E",
"$	c #C2C255552323",
"%	c #0B0B0A0A0A0A",
"&	c #23231F1F1616",
"*	c #2B2B2A2A2A2A",
"=	c #AFAF4444ACAC",
"-	c #A2A22E2E1B1B",
";	c #CACA39392121",
":	c #5C5C12125F5F",
">	c #6C6C02028484",
",	c #9A9A1717A0A0",
"<	c #BCBC1A1AC4C4",
"1	c #2626A5A52A2A",
"                ..                              ",
"               Xoo      o.                      ",
"               OO       o.                      ",
"               Xo       o.                      ",
"               OO       oX      ..      ...X    ",
"    OooO      oooo     ooo.    XooX     XooO    ",
"    oOOo      .Oo.     .oX     oXXo     Xo      ",
"    oXXo.      Xo       o.     o..o     XO      ",
"    X..oX      OO       o.     o..o     XO      ",
"     Xoo.      Xo       o. +@  oOOo     Xo      ",
"    XoXoX      Xo       o++##+ ooOo     XO      ",
"    oX.o.      OO      ++###$%+o.       OO      ",
"   Xo..oX      Oo    ++$###&%%*o..O     XO      ",
"   .o..o.      OO   +#####&%%%%+..o     Xo      ",
"   .o..o.      Xo +%@##@@##%%%%*..o     XO      ",
"    OoooX      .=@&%@@&%%##@%%%%+o.     OO      ",
"     X...     +$-;;;&%%%%&##%%%%%.      ..      ",
"            +@;-@%--%%%%%%##@%%%%+              ",
"           *&;-%%%%%%%%%%%&##%%%%%+             ",
"          +%-;%%%%&--&%%%%%##@%%:%@             ",
"          *&@;---;;;;;-%%%%%@->,<,:             ",
"          **&-;--&%%%;-%%%%&>,,*&,>*            ",
"          **&%%%%%%%%;-%%%:,,*%%%,,%            ",
"          ***%&%%%%&--%%%,<:%%%%,,&%*           ",
"         +***&-;-&-;-%%%%*<*%%:<,&%%%           ",
"         +&***&;;;;&&1@1&%,<:,,:%%%%%*          ",
"         ***&*%%%&%@11@111&<<:%%%%%%%%+         ",
"         *&&&*&%%%11%%%%@1@,,%%%%%%%%%*         ",
"         *&&&&&&%%1@%%%111%%<:%%%%%%%%++        ",
"        +%&&&%&&%&1%%111&%&%:<%%%%%%%%+         ",
"         *%%&%&&%@1@11&%%%11%<:%%%%%%*          ",
"         +%*%&%%%&111%%%%@1%%::%%%%%%+          ",
"          *%%%%%&&11%%%%%11%%%%%%%%%%+          ",
"          +%%%%%%%&111&@11&%%&%%%%%%*           ",
"           *%%%%%%%&11111&%&&%%%%%%%+           ",
"           +%%%%%%%%%%&&%&&%&%&%%%%&+           ",
"            *%%%%%&%%%%&*&&&&%&%%%%*            ",
"            +%%%%%%&&***%**%&&&%%%*             ",
"             *%%%%%&*****&%*&%%%&+              ",
"              %%%%%****&****%%*                 ",
"              *%%%%******&%**+                  ",
"               %%%%*****&*&+                    ",
"              ++%%&****&*+                      ",
"                %%*****+                        ",
"                *%***+                          ",
"                 &*+                            ",
"                 +                              ",
"                                                "};
