/* XPM */
static char * image_name[] = {
"51 52 20 1",
" 	c None",
".	c #E4E4A9A9E0E0",
"X	c #9C9C9D9D9C9C",
"o	c #C0C050505050",
"O	c #A3A309090808",
"+	c #DDDD00000000",
"@	c #35353C3C2E2E",
"#	c #2C2C2B2B2929",
"$	c #404038384040",
"%	c #4C4C4E4E4C4C",
"&	c #C6C6CACAC6C6",
"*	c #686868686868",
"=	c #DDDDE1E10404",
"-	c #99999C9C0505",
";	c #60605B5B6060",
":	c #888871718888",
">	c #010196960101",
",	c #0202ECEC0202",
"<	c #02020202EDED",
"1	c #121213139A9A",
"                                                   ",
"                                                   ",
"                          .XX                      ",
"                        oOO+@#X                    ",
"                       oOOOO#$$%&                  ",
"                      *OOO##O$%$$*                 ",
"                    X#@OOOO++@$$$$@X               ",
"                  X#$###OO+OO@$@$%$$$&             ",
"                X%$$%###++OO+O#$%@$$%%*            ",
"              X$$%$$$$@OOOOOO+OO###%$$$X           ",
"            =-=-@#@$$$$$$$@OOO+OOO+O%%$&           ",
"          &%#=--==--@@$%$%$$$OO++++@$%@            ",
"        &*$##------==--@@#$$###++o$;%%%            ",
"      &*$$$##--@@-@-=====--%--O+$%%%%%X            ",
"     *$$$%$##@=@##-==---=====-O%%%%%%$X            ",
"   :@%%%$@$###=@@====%@-@====*%%;;%%$%&            ",
"  $%%$$$%$$$##-====-%@@@-==-;;%;%%$%%%%X           ",
"  %@$$%$%$%@##@===;%%%%#-=;*%%%%%$%%%$::*          ",
"  X##$%%$$%%###=-%@;$%%%*%%%%%%%%%%%#*..%$X        ",
"  X##@$%$%%%###--##-%%%%%;%;%%%%%%%$.:::%%;;       ",
"   ###@%@%%$@##-===-%%;%;%%%%%%%%%#X..X;;;%%%X     ",
"   $###$%%$%$##-===-;%%*;%%%%%%;%#$XX..:%;%;;%;&   ",
"   X#####%$%@##===-;;;%%%*%%%;%>>>%*:....;%%%%;;X  ",
"   &#####@%%###==*;;;%;%%%%%;#>>,,,,*::...:$$;%%*;&",
"    #######%%$%-%;;%%;%;%;%;#>>>>>,,%:::X....*;%%%&",
"    %######$%%%%;%%;*%%%;%;##,>#>,,,%;>:.X..:;;*%@ ",
"    X########;%%;%%;%%%;;%%##,@>,>>*%@>>::.:;;;$#X ",
"    &########%*;%;;@<$*%$%@##,,,,>;;*@,>$;:;;;%##  ",
"     ########%;%%%%$1<1#<1*@>>,,>;*;%>,>*:;*;@##:  ",
"     %#######%%;;%@#1<<<<;*$#>>,,,,>,,,*;***####   ",
"      #######$%%%;##1<<<<;**%@>>,,,,,,,%;:*$###*   ",
"      X######%;%;;##<11<<1*;;%@>@>>>>@>*;;####:    ",
"       &######%%;$@#1111<<1**;*>>>>>>@***####:     ",
"        X####$;;;;%#<##11<<1;;*1;%%%%*:;####X      ",
"         X#####;;%;*%%#1#1<<<$@<%*;***@@###X       ",
"          *####@***;%*%##11<<<<<**:**;####X        ",
"           *#####;;**;*;#1#1<<<1*:;*%@###X         ",
"            ######;**;;*%#1#11#;***%####&          ",
"             ######;%*****$#1#1;**@@###&           ",
"             &#####*;;***;*;;%*;*@###@&            ",
"              &#####;****;******#####&             ",
"               X#####%*****:***#####               ",
"                &#####%*;;*;**#$###                ",
"                 X#####****:;@###$                 ",
"                  *#####;**%####%                  ",
"                   ######*%###$%                   ",
"                    $#########$                    ",
"                     ########%                     ",
"                      ######*                      ",
"                      &####*                       ",
"                       &##*                        ",
"                        XX                         "};
