/* XPM */
static char * image_name[] = {
"56 56 20 1",
" 	c #16160C0C9F9F",
".	c #3F3F2D2DC6C6",
"X	c #303030305858",
"o	c #46463232DDDD",
"O	c #61615C5CA8A8",
"+	c #78786B6BE7E7",
"@	c #64645454DDDD",
"#	c #9D9D9494EDED",
"$	c #A8A89A9AC0C0",
"%	c #88887777DFDF",
"&	c #F0F0EDEDFEFE",
"*	c #89896666A0A0",
"=	c #BDBD4B4B4646",
"-	c #20201E1E1C1C",
";	c #131311111212",
":	c #020202020202",
">	c #F4F4E8E81010",
",	c #282827272727",
"<	c #3535A4A44949",
"1	c #A8A82323B7B7",
"                . . . . . . . . . . ..XoO.OOOOOOOO+OOOO+",
" ooooooooooo@@@+@+++##$%++#%+++++++%+%%#%#######&####&#O",
" oooooooooo@o@@@@@+@#&#%++&#+@+@@+++++#+%#%#######&####$",
" ooooooooo@o@@@+@++@&&+++%&#++@++@+++++##%######&###&#&O",
" oooooooooo@o@@@+@@@#&@@@+&#++@@++++++#%%##%######&####O",
" ooooooooooo+&&#@+@#&&#++#&&+@%#&#++%&&&###*======*$&#&*",
" ooooooooo@o&##&@@+#&&#+@#&&+@#&#&+%#&&##+*==*$$*===$##+",
" ooooooooo@o&#+&+@@@#&+@+%&#@+#&%&#@#&#+%#==*$#$##==*#&O",
" .ooooooooo@#%+&+@@@#&@@@+&#@+#&@&#+#&####*==######$#&#*",
" ooooooooo@oo#&&+@@+#&@@@+&#@%#&#&#+#&#+%%*=====*$#&##&O",
" oooooooooo@#&#&+@@o#&o@@+&#@@#&&&++%&##%###*======*###%",
" ooooooooo@o&#+&+o@+#&@o@+&#@+#&@@+@#&#+#%%#####$===$#&O",
" oooooooooo@&#@&+@@o#&o@@@&#@@&#%&++#&##+O==%#####$==$#$",
" oooooooo@o@&+@&+oo@#&@oo+&#@@#&+&#@#&#+#*==%%####===#&O",
" oooooooooo@&##&+o@o#&o@o+&#@o#&#&++%&##+%*===*%*===$##*",
" ooooooooooo+&#&+@o@##o@o@&#@@@#&#@++&#+%%%*=======$##&O",
" oooooooooooooooooo@@@@o@@.@@@@O@O@O%OOO%%#%%%**%######+",
" ooooooooo@oX--;--;;;;;;;;;;:::;;;;::;;;O%**$*$*$*$$$##O",
" ooooooooooX-:::::::::::::::::::::::::::OO>>>>>>>>>>>##*",
" oooooooo@X,;:::::::::::::::;::::::;::::O$****=>>****##O",
" ooooooooO,X-::::::::::::::::::;::;:::::O+%$$%*>O#$####O",
" ooooooo@,,,-:::::::::::::::::::::::::::O++@#%*>*#%####O",
" ooooooo,,X,-:::::::::::::::::::::;:::::O++%+%*>*%%####O",
" oo oooX,,,,-::::::::::::::::::;::::::::O+%++%*>*%#+##%O",
" ooooo ,,,,,-:::::::::::::::::::::;:::::O++%+%*>*$+#%##O",
" ooo..,,,,,,-:::::::::::::::::::::;:::::O++++%*>*#%#+#%O",
" ooo X-,,,,,-:::::::::::::::::::::;:::::O++++%*>*%%%#+#.",
" oo.X---,,,,;:::::::::::::::::::::;:::::O++++%*><%+#+##O",
" oo ;-----,,;:::::::::::::::::::::;:::::O@++++*>O##+#%#.",
" ooX--;-----;:::::::::::::::::::::::::::O@+@++++%++#++#O",
" oo -;-;;--,;:::::::::::::::::::;:::::::O@++O<<<<<+#%#+O",
" ooX-;;--;--;:::::::::::::::::::::::::::O+@<<<OO<<<O+#+O",
" ooX:;;;;;;,;:::::::::::::::::;::;:;::::O@O<<@++%O<<#%#.",
" ooX;;;;;;;-;:::::::::::::;::;::;:;:::::O@<<+++++%O<O#%O",
" ooX:;;;;;;;;:::::::::::::::::::::::::::OO<<OO<O<O<<<%#.",
" ooX:;::;:;-;:::::::::::::::::::::::::::O<<<<<<<<<<<<+#O",
" ooX::;;:;;;;::::::::::::::::;::::::::::OO<<@@++#+##%##O",
" ooX:;::;::-;:::::::::::::::::::;::;::::OO<<+++++%+O+#%O",
" ooX::;:;:;;;:::::::::::::::::::::::::::O@<<O+%%#+<<O##O",
" ooX;:;::;:;;:::::::::::::::::::::::::::O++<<<O+O<<<###O",
" oo-:;:;::;;;:::::::::::::::::::::::::::X%++<<<<<<<###%O",
" ooX:;:;:;:-;:::::::::::::::::::::::::::O+++#%<<<%##%##O",
" ooX::;::;:;;:::::::::::::::::::::::::::X%O1O*1%1O1+##%@",
" ooX:;:;:;:;;:::::::::::::::::::::::::::O+1111111111O##O",
" ooX::::;:;;;:::::::::::::::;::::;:;:;::OO11+%+#%#+11##O",
" ooX::;;:::-,,,-,,-,-----;-;;;;;:;:;:;:X%%1*%#%#%##*1#%O",
" ooX::::;;,,,,,,--,;-;-;;;;:::::::::::O+%%11O+O+OO111##O",
" ooX:;:;:,,,,,---,--;-;-;;;;;:::::::;O+%%%111111111O##%O",
" oo,:;::,,,,,,,,--,--;-;;;;:::::::::O%%%%%11%*%%%%#%###.",
" ooX:;:-,,,,,,,,-,--;-;-;;;;;:::::;O%+#%%%11#%#%%###%##O",
" oo-:;;,,,,,,,,,,--,-;-;;;;::;:::,@+%%+#%%11###%##%###%O",
" ooX:-X,X,X,,,,,,--,;-;-;;;;;:::,++%++#%#%11#%%#%###%##O",
" ooX:,,,,,,,,,,,-,-;--;-;;;;:;:-+%+++#+#+#11%#########%@",
" ooX,X,X,X,,,,,,---,;-;;;;:;::X+++%++##+#+11#%#+%#%#%##O",
" oo@OOOOOOOOOOOXOOOO@O+OOOOOOO%+++++++%#%#++%%#######%#O",
"                    . O..O.....X...O.O..O.OOO.O.O..O.O.O"};
