/* XPM */
static char * image_name[] = {
"56 56 20 1",
" 	c #2A2A3636B3B3",
".	c #686867679A9A",
"X	c #5A5A6363D9D9",
"o	c #69697171DBDB",
"O	c #58586262DDDD",
"+	c #8C8C9393E8E8",
"@	c #A1A1A8A8EBEB",
"#	c #7B7B8484E0E0",
"$	c #E2E2E2E2F9F9",
"%	c #6B6BADAD8F8F",
"&	c #676768687575",
"*	c #4C4C4C4C6A6A",
"=	c #BABAB1B16C6C",
"-	c #A5A5A4A4B1B1",
";	c #AFAF66667676",
":	c #383838386262",
">	c #3D3D41416C6C",
",	c #606094947878",
"<	c #A7A75E5EC1C1",
"1	c #6767C6C68484",
"                   .X.o.o.X.X          .                ",
"        X  O  X XXoo++@++++###ooXXXXo#oo+o+@XXoXXX XX O#",
"  OOOOOOOOOOOOOoo++++@@@@@@@+ooXooo####++@$$oooXXXXXXOOo",
"  O O O OOO OOooo+++@@@@@@+++oooXooo+#++$$$+oXXXOXOOO O+",
" OO O OO OOOOOOo+++@+@@@@+@+#ooXXoo+#+#+@$$ooXXXXXOOOOOO",
" OOO OO OO OXooo++@++@+@+++++ooXooo+++++@$$+ooXXXOO O  o",
" XXOOO OO OOOOo++++@++++++#++o#ooo#+++++@@$$+#ooXO O O O",
" XoOOOOO OOOOo#o++++@++++o+++##+$$#o#++@+@$$++#ooOOO  OO",
" oooOOO OOOOoo++++++@@+++#+o+o+$$$$##++++%@$$+#ooOOO O O",
".ooOOOOOOOOOooo+#oo+$$+++##+++@$@+$@o++.&*+$$++oOOOO  Oo",
" oooOOOOOOOOoooo+#+o+$$++++++++$$+$$@.&===*+$$#ooOO O OO",
" XOOOOOOOOOOooo#o+++#$$@+++++oo$$+@$-;===&:o$$+ooOOO OO#",
" XOOOOOOOOOO+@ooo#+#++$$$++#o+++$$$$====*::*+$$#oOOOOOOo",
" XXOOOOOOOO@$@ooooo#+@$$@+#++o+#-$$===*:::::.$$#ooOO OO+",
"  OOOOoOOoo@$@ooo##++@@$$++o++.&=$===$=::*:::o@oOOoOoOOo",
"  OOOoo#o+o+$$oooooo+++$$@++.::===$&&$=&*::::.ooooooOOO+",
"  OOOOo++ooo@$@@ooo+o+++$$#***:*&&$-*-$=:*:::>o#oOoOoOO#",
" OOOoooooo#o+$$$oooo#o++-$;;;;&::*,$--$=&:*::>.oooOooOO+",
"  OOOooo+ooo$$$@OOOooo#.;$$;;;;:::*.$$===:*:::>##ooooOO#",
" OOOoOoooooo#+$$OOOOo**;&;$*:*::***&**&==&*:**:.#+#+ooo+",
" XoooOoooooooo@$+Oo :*;;::$-*:*::*:****===*:*:::#++#o#o+",
" Xooooooooo#ooo$$O.::;;:::,$&;;;;***:*:&==&**..:.#+++o#@",
" X+$$o#ooooooOO+$+o*:&;;*;;$$;;;;;***:*:==&.<<<<>++++o+@",
" X$$$$+ooooOOOOO$$.*>*;;;;;;-**&;;***:*::.<<<*<<<.++++o@",
" o$++$@oooOOOOO +$..*>*;***::***;;;****&<<<&:*:<<:.@++#@",
" o$$O$$+OOoOOOOOO$$*.*::::*:**:;;;***&<<<.*****<.:.@@o+@",
"  @$O@$$OOOoOOOOO+$-:*>:*****:&;;&***<<<****&.<<*>:o++#@",
" XoO+$$$#oOoOOOOo.$$*.>;;;&*;;;;*****<<<**:<<<<.*>>*++o@",
" XOO@$+$$OOooooooo&&>>**;;;;;;;*&&,&*&<<&&<<<.*****:.o#@",
" O O$$O$$ooOooooX.:.*.***&;;&*&,1111,&;<<<<;*******:*+o@",
"  OO$$XX$$Ooooooo ::***.::*:*,1,***,11*<<<********:*:.o@",
"   O+$+o@$+oooooo**>*.***:***1,:****,1%.<<****&****:>.#+",
"  OOO$$+$$$oooooo*>****.****,1:****1,1&*<<<**&******:oo@",
"  O O+$$$+#oOooO.>>*>.***&**1,*:,,11,**&.<<&*********+#@",
"  OOOOo@#ooOOOoOo>>>****.*&&1&*,1,,***,,*<<;&*&&&**:.++@",
" OOOOOoooOOOOOOOo.>*>**&*&&*1,11,*****1,&&<<&&&***::+++@",
" XOXOooOoXOO OOOoX>>>***&&&&,1,******&1,&*<;&*******@++@",
" XoooooOOOOOOOOOoO.:>****&**,1,*****&11&*&&&&&****:.+++$",
" XoooOOoOXOOOOOOOOo>******&&*,1,,**,11,&&&&&**&**:*-+@@$",
" Xo#ooOOOOOOOOXOOoo.>>>>>***&*,11111=,&;&&&*&***::.@+@@$",
" o#oooOO OOOXOOOoo#+**>*****&***,,,,&&&,&&&&*****:.@@@@$",
" o##ooOOOOXOoOXoooo+.:******&&****&&&&,;&&&&&*****+@+@@$",
".o#o#oOOOOOOoOOooo+#+>>******&***&&&;,;.,&&&*&**:&@+@@@$",
" o++oOOOOOOOXOooo#oo+.>***&**&&&&&;,&.,&&&&&&**:*++@@@@$",
".++ooOXOOO OOOoo#o#+++*****&&*&&&.&.;,;.,&&&**&%+++++@@$",
".+++#oOOOOoooooo#o#+++.****&*&&.&&&,.&,&&&&&&.+@+@+@@@@$",
"o+++#oooXooooo#o#+++@@+******&.&&,;.&;.&&&.-@$@@@+++@@@$",
".+++#ooo#o#+o+o###+@++@o:*&**&&.&.&,&,&&&-@$@@@@++@@@@@$",
"o+++#ooo#####o+#++++++@+*****&.&&.;%;.&-@$@@@@@@@@+@@@@$",
".+++o##o+oo+o#++++++++++.:***.&.&%&.&&-@$@@$@@@@++@@@@@$",
".++#o#####oo##++++#++++##***&&,;.&&&-$$$@$@@@@@@@@@+@@@$",
".o+###+++o+oo++#+#+####o#.>*&..&&--$$@$@$@@@@@@@@@+@@@@$",
"Xo+oo+o+++oo##+##+o+oo###+.:&&&--@$@$@$@@@@@@@+@@@@@@@@$",
".ooo#oo##++o#o#+o+ooooooo+#>&.-@@$@$@@@$@@@+++@@+@@+@@@$",
" o#o#o+#++++#++#+o+oooo#+++.-@$@$@$@@$@@@@+++#+++++@+@@$",
"X+@@@@@@@@@@@@@@@@@@@@@@@@@$$$$$$$$$$@$$@$$@@@@@@@$@$$$$"};
