/* XPM */
static char * image_name[] = {
"64 64 29 1",
" 	c #9898A6A6ABAB",
".	c #595963636A6A",
"X	c #585861616868",
"o	c #53535C5C6363",
"O	c #505058585F5F",
"+	c #4C4C54545B5B",
"@	c #494950505757",
"#	c #48484F4F5656",
"$	c #45454C4C5252",
"%	c #414148484E4E",
"&	c #404047474D4D",
"*	c #3E3E44444A4A",
"=	c #3A3A40404646",
"-	c #39393E3E4444",
";	c #36363B3B4141",
":	c #343438383E3E",
">	c #0E0E0F0F1010",
",	c #313136363B3B",
"<	c #2F2F34343939",
"1	c #2D2D31313636",
"2	c #2A2A2D2D3232",
"3	c #26262A2A2E2E",
"4	c #232326262A2A",
"5	c #202022222626",
"6	c #1E1E20202424",
"7	c #1B1B1E1E2121",
"8	c #19191B1B1E1E",
"9	c #141416161818",
"0	c #0E0E0F0F1111",
"                                                                ",
" .......XXXXoooooooooO++++++@@@@##$$$$$$%%%&*****====----;;;;::>",
" ......XXXXoooooooooO++++++@@@@##$$$$$$%%%&*****====----;;;;::>>",
" .....XXXXoooooooooO++++++@@@@##$$$$$$%%%&*****====----;;;;:::>>",
" ....XXXXoooooooooO++++++@@@@##$$$$$$%%%&*****====----;;;;:::,>>",
" ...XXXXoooooooooO++++++@@@@##$$$$$$%%%&*****====----;;;;:::,,>>",
" ..XXXXoooooooooO++++++@@@@##$$$$$$%%%&*****====----;;;;:::,,,>>",
" .XXXXoooooooooO++++++@@@@##$$$$$$%%%&*****====----;;;;:::,,,,>>",
" XXXXoooooooooO++++++@@@@##$$$$$$%%%&*****====----;;;::::,,,,<>>",
" XXXoooooooooO++++++@@@@##$$$$$$%%%&*****====----;;;::::,,,,<<>>",
" XXoooooooooO++++++@@@@##$$$$$$%%%&*****====----;;;::::,,,,<<<>>",
" XoooooooooO++++++@@@@##$$$$$$%%%&*****====----;;;::::,,,,<<<1>>",
" oooooooooO++++++@@@@##$$$$$$%%%&*****====----;;;::::,,,,<<<11>>",
" ooooooooO++++++@@@@##$$$$$$%%%&*****====----;;;::::,,,,<<<111>>",
" oooooooO++++++@@@@##$$$$$$%%%&*****====----;;;::::,,,,<<<1112>>",
" ooooooO++++++@@@@##$$$$$$%%%&*****====----;;;::::,,,,<<<11122>>",
" ooooOO++++++@@@###$$$$$$%%%&*****====----;;;::::,,,,<<1111222>>",
" oooOO++++++@@@###$$$$$$%%%&*****====----;;;::::,,,,<<11112222>>",
" ooOO++++++@@@###$$$$$$%%%&*****====----;;;::::,,,,<<111122222>>",
" oOO++++++@@@###$$$$$$%%%&*****====----;;;::::,,,,<<1111222222>>",
" OO++++++@@@###$$$$$$%%%&*****====----;;;::::,,,,<<11112222222>>",
" O++++++@@@###$$$$$$%%%&*****====----;;;::::,,,,<<111122222223>>",
" ++++++@@@###$$$$$$%%%&*****====----;;;::::,,,,<<1111222222233>>",
" +++++@@@###$$$$$$%%%&*****====----;;;::::,,,,<<11112222222333>>",
" ++++@@@###$$$$$$%%&&*****====---;;;;::::,,,,<<111122222223334>>",
" +++@@@###$$$$$$%%&&*****====---;;;;::::,,,,<<1111222222233344>>",
" ++@@@###$$$$$$%%&&*****====---;;;;::::,,,,<<11112222222333444>>",
" +@@@###$$$$$$%%&&*****====---;;;;::::,,,,<<111122222223334444>>",
" @@@###$$$$$$%%&&*****====---;;;;::::,,,,<<1111222222233344444>>",
" @@###$$$$$$%%&&*****====---;;;;::::,,,,<<11112222222333444445>>",
" @###$$$$$$%%&&*****====---;;;;::::,,,,<<111122222223334444455>>",
" ###$$$$$$%%&&*****====---;;;;::::,,,,<<1111222222233344444555>>",
" ##$$$$$$%%&&*****===----;;;;::::,,,,<<11112222223333444445555>>",
" #$$$$$$%%&&*****===----;;;;::::,,,,<<111122222233334444455556>>",
" $$$$$$%%&&*****===----;;;;::::,,,,<<1111222222333344444555566>>",
" $$$$$%%&&*****===----;;;;::::,,,,<<11112222223333444445555666>>",
" $$$$%%&&*****===----;;;;::::,,,,<<111122222233334444455556667>>",
" $$$%%&&*****===----;;;;::::,,,,<<1111222222333344444555566677>>",
" $$%%&&*****===----;;;;::::,,,,<<11112222223333444445555666777>>",
" $%%&&*****===----;;;;::::,,,,<<111122222233334444455556667777>>",
" %%&******===----;;;;::::,,,,<<1111222222333344444555566677778>>",
" %&******===----;;;;::::,,,,<<11112222223333444445555666777788>>",
" &******===----;;;;::::,,,,<<111122222233334444455556667777888>>",
" ******===----;;;;::::,,,,<<1111222222333344444555566677778888>>",
" *****===----;;;;::::,,,,<<11112222223333444445555666777788888>>",
" ****===----;;;;::::,,,,<<111122222233334444455556667777888889>>",
" ***===----;;;;::::,,,,<<1111222222333344444555566677778888899>>",
" **===----;;;;::::,,,,<<11112222223333444445555666777788888999>>",
" ====----;;;;::::,,,<<<111122222233334444455556667777888889999>>",
" ===----;;;;::::,,,<<<1111222222333344444555566677778888899999>>",
" ==----;;;;::::,,,<<<11112222223333444445555666777788888999999>>",
" =----;;;;::::,,,<<<111122222233334444455556667777888889999999>>",
" ----;;;;::::,,,<<<1111222222333344444555566677778888899999999>>",
" ---;;;;::::,,,<<<11112222223333444445555666777788888999999990>>",
" --;;;;::::,,,<<<111122222233334444455556667777888889999999900>>",
" -;;;;::::,,,<<<1111222222333344444555566677778888899999999000>>",
" ;;;;::::,,,<<<11112222223333444445556666777788888999999990000>>",
" ;;;::::,,,<<<111122222233334444455566667777888889999999900000>>",
" ;;::::,,,<<<111122222233334444455566667777888889999999900000>>>",
" ;::::,,,<<<111122222233334444455566667777888889999999900000>>>>",
" ::::,,,<<<111122222233334444455566667777888889999999900000>>>>>",
" :::,,,<<<111122222233334444455566667777888889999999900000>>>>>>",
" >>>>>>>>>>>>>>>>>>>>>>>>>>>>>>>>>>>>>>>>>>>>>>>>>>>>>>>>>>>>>>>",
" >>>>>>>>>>>>>>>>>>>>>>>>>>>>>>>>>>>>>>>>>>>>>>>>>>>>>>>>>>>>>>>"};
