/* XPM */
static char * image_name[] = {
"64 64 10 1",
" 	c #8F8F8F8FECEC",
".	c #7E7E8282DBDB",
"X	c #62625F5FC5C5",
"o	c #383837375E5E",
"O	c #55555151AEAE",
"+	c #4A4A48489090",
"@	c #0E0E0D0D1B1B",
"#	c #454542426969",
"$	c #3E3E41416969",
"%	c #40403E3E8181",
" ..     .X X         .  ... .          X ..... .  .    .      Xo",
"..OOXXXX.XXXOX  ..XXXXXXXXXXXX. .    .XXX+OXOXXXXXXXXXXXXXXXXX+@",
" .####OO#o##oo+X#######oooo##++XOOOXXO#ooooo#ooo#####o####+#+#o@",
" .X#+#+#$#+###OO###+#ooo#####+#OXXXXX#oo@o###+##oo#o#oo#######@@",
" .##.XOOOOO++XX###+O##########+OXXOO+########.X#$####$##+##$$#@@",
"..+XOXXX+OO+$OX$o#+#+##+#$$####+OXXOO#ooo####+Oooo$$$$+#+$+#$#@@",
" .++OOOOXOOOOXX+#+#OO#++O##++OOXXXXO+###o####O+++#+$%#O++$+#$$o@",
" .O#+OOXX++XO++X#++##+$$#+$+++OOO+#$#####$$$+$#OO+$oo%++++#++$@@",
" X##+#XO+XXO+OO+OOOO%+++O+++O++XO+$O++$++$$+$+OX++++$OO#O#++$%o@",
" .+####+OOXXOO+OOOO++++++O+++OOX+oo+%+$$+$$O+%+XXXO+O#+%+++%$$@@",
".X##+$O+O+OXX+%OOOO+++O%OOO+OXOOX%oo+%$$++$+O+OOOOOO+%$++$+$%$@@",
" X##+#+OOOOXO+++OX++O+OO+XOO++O+X%%oO++$+%OO+OOOOOOXO+$+#%%+%$o@",
" .###+O++XX+OO+++OOO++OXOOXXX+OXOo$$+++O++$OO+OOXOOXX+$$$$+$+$o@",
" X$$$$++OXX++OO%OOOO++XX+OOXO+OX+%+%O#+++++++OOOXO+OXO+o+%+%$o@@",
".X#$#++OOOOOO+O++OOO+OOX%%O+OO+OOO+OO++#++OOOOOO++OOOO+#+##$$$o@",
" .##O#O#O+OOX+%++OO+OXOOO+++OXO+OOOOOX#O$OOOOO+OOOXOOO+$+#+%++@@",
" X+#+X+O+OXO+O+O+$%%%%%++O+O++OOOO#OO+O++++++%O++XXOOXOO+++$+%o@",
"  #+#OO++OOOOOO+%%%+%%+OOOOO+O+OXOOOOO+O+$%%$$%+OXXOOOXOXXO%+O@@",
" .#+O++OO++OOO+%++%%$$%O+O+OOO%+OXO++OOX++$$$$%OOXOO+XXOXX+%+Oo@",
" .+#O#O+OO+++O+$O+O+%$%%OO+OO++++XX++#OOO++%$$$+#OXOOOXXOX+$+Oo@",
" .$#+#X+O+%++O++O#+++%$%O++OOOXO%OO+%++OO++%%$o$%++OOOOOOXX%%+o@",
" .$#O++O+%$$$+++++$%++%$O+O+OXOO%O+O$O+O+++#+$$++O+%$++O+XO++%@@",
" Xo#O$O#O%%$$%O++%$%++%++++O+OOOO+OOOO+XO+#++#+#O$+$$%++++OO+%@@",
"..$+X#+++O+O%$+O+%%%%$$+$O+OOOO+XO+OOXOXO++$$%$+%$%%+$++OOOOO#@@",
" X#O##O+%$%$ooo+O++$%++%%%++XXO+OOO+OXOXO+$$+%$o+$++$$+%++$$+O@@",
" X###$+O%+%oo$%+O+%$+%%$$$++OOO++OOOXXOXX+%+$+$o++$+%++#+$++++@@",
".+oooo##+#+%o$$#O+O++++$$%+++++%+XX+OXXOO++$++$$++%+$+++$+%$++@@",
".X@ooo#$+%%$$$$$XO++++++%+#+OO++OXO+OXXXO+++#+%$+$+$++#++#%+#+@@",
".##oooo$++$$o$$%O++$++%%+++++OO$+O+OXOOX+++#+#++$#%+#++$$+%$+$o@",
"..@oo@+#+#+%$$$+O+++%O+++O++OOO++%%OXO+O+++++++++++#O$$$$%$$$o@@",
".#oooo##+++++o#%+OOO++O+++++++OO+OO+OOOO+OO++O++O#+%++$o+%$$#+@@",
" Ooo###$$#OO+%$$+OOX++#O$OOO++XXOXO%+OOX+OXX+OOOXO+#$%%$%%$o++@@",
" X@o#o#+O++$O++$+OOO++O++O+X+OOXO++XXOOX+O++O+O#+OO+%+%%+#%+++@@",
" .###$+O+O+O+OO%+OOO+O++OO+X+O+XOO+OOOOXXOO++++$+++O++++%++++oo@",
" Ooo##$+++O++++%OOOO++O++OOXOO++OOO++XXOXX++OO+o+++OOOOX%+O+%$@@",
"..@o#$+$O+OO+O+OOOX+%++O+OOOO+%O+O+OOOO+XO+O+O+O+%%OOOOXOO++O+@@",
" .o##$$$+OO+O+OOXXO+%OO+++OOOO+OO+OOXO++OOO+O+O+O+%+OOOXOOOOO+o@",
" .@ooo$$%%+OOOOXXXO%%+O+OOOOO+OOX++OXOOOOOOO++OO+++OOOOO+OXO+%@@",
" Xooo#+O%o%+OOXXXXX+%+OOOOOOX+OOXOO++XXO++OOOOO+O+O+OXX+%+OOO+o@",
"..@oo$+$++O+OOXXXXO++OO%O+O+X+O+XXO%OXXO+++OOOOO+O++OXX+++%OOO@@",
" X#ooo#$O++OOXXOOOXOOOOOO++O+OO+O++OO+O+O%%+OXO+%O+OXOOOOO++OOo@",
" Xooo$%oOOOOXXOOXXXXOXOO+O++O+OOOOOOOO+O++++OO+O%+OOOXXX+OOO+O@@",
"..ooo#+$%%+OXXX+OXXXXXOOOOO+%+OOOOOOOO++OOOO++OO+O+OOXXXOOO+++o@",
".X####OOOOOOXO%oXXXXOXXO+O++O+OO+OO+OOO+OOXXOO+++OOOOOOXOOOO++@@",
" .###$O+XXOOXO%OOXXXOXXX+OO++O+OO+++OOOOOXXXO+O+O+OOOOOOOOO++%o@",
" Xoo$$+%OOO+XXOOXXOXOXXXO++OOO++++OOXXXOOOXXXOOO++OOXOO+OOO+%$o@",
" .###$++OX+%XO%OXXXOOOOXOO++O++O+OO+OXX+OOXXXOOOOOOOXXOOOXO%OOo@",
" X##X+OOOO%+XX+XOXOO%+O+X+%O+OO+O+O+OXO%OOXOOOXXXOXOOO+%+XO++Oo@",
" .#+O+XOOOO+%+OOOOO++OO+XO+++OOOXXOO+%++%XXO+%%XOO+OXX+%O%%OXXo@",
"  #+XOXO+OOO%%+OOOO+OOOOXOOO+++XOXXXOOOO%OOOO%OXXXOOOO+O+OOOXO$@",
" .#XXOX+OO++OOO%OOOOOXXOOOOOOOOX%+O+++%%%OOOO++OXXXOO+%+%+OOO+o@",
" .++O+X+O+$$OXOOOXXXOOOO+OOXOOOXOOOXXO+%O+OXOO+OOXXOXO%%%$%%+O$@",
" .##O+OO%++$%+OXOXOXO++O++OXOOOXXXXXXXXOOOOXXO+%OOO+O+%%%$%O+Oo@",
" .#+++O+++++%+O+OOXXOO%%O++OXOOOXOOXXXXXX+OXXOO%++%%+O%%o%O++%$@",
" .#XO%OOO+#$OO+%OOXXX++O+O+OOOOOOXXXOXXXXOOX+OO%%%$$+O%%$+OOO%o@",
"..OO+%O++#+$$%O%+OOXOO++OO++OO++OOXOOOXXXOOO++++%%%+++$oOOXOOOo@",
".X#X++#$++##$%%%%%+O++OO+O+OOO+%$OXXOO%$OXXX+$%%%+%+%+OXX+%OXX@@",
"...O#%+$#+++$o%%O+OOOOOO%+O+OXXOOOOXOO+%+$O++%$$$++++OOXXOO%OOo@",
" X#O#$+%+#+#$$$+%+++OOOOOO++OXXXXOOXO+%+$$$%++%o%%OOOOOXOX+%%+o@",
".O###+$$$+++$$%O%%$$%+OXOOOOOXXXXX+OO+$%+%$$+O$o%%+OOOOOXOO%++o@",
" +##+#$$$##++$%+O+%%%+OO+OXXXXXXXXXO#+$$+$%+#++$O+%+OXXXXO+OO%@@",
" .##$$$o$$#O#%%+%%++O+++O+XXOOXXXX.++$$oo$$$$+#%OO%%OOOOXX+OO%o@",
"Oo@o@o@@o@o@oo@o@oooooooooo$oooo$$$o@o@@o@@o@@oooo@ooooo$o$ooo@@",
"@@@@@@@@@@@@@@@@@@@@@@@@@@@@@@@@@@@@@@@@@@@@@@@@@@@@@@@@@@@@@@@@"};
