/* XPM */
static char * image_name[] = {
"64 64 30 1",
" 	c #53538C8C5353",
".	c #F8F8FCFCF8F8",
"X	c #C8C8CCCCC8C8",
"o	c #505064647070",
"O	c #282828282828",
"+	c #A8A8A8A8A8A8",
"@	c #A8A89898B0B0",
"#	c #98989898A8A8",
"$	c #989898989898",
"%	c #98988888A0A0",
"&	c #888898989898",
"*	c #888888889898",
"=	c #808088888080",
"-	c #808074749898",
";	c #9090ACACC8C8",
":	c #88889898B8B8",
">	c #90908484A8A8",
",	c #808084849898",
"<	c #707088888888",
"1	c #808074747878",
"2	c #686874749898",
"3	c #707074748888",
"4	c #707074747070",
"5	c #686864649090",
"6	c #606064648888",
"7	c #606064647070",
"8	c #606060606868",
"9	c #606054547070",
"0	c #484858587878",
"q	c #585854545858",
" ...............................................................",
"..XXXXXXXXXXXXXXXXXXXXXXXXXXXXXXXXXXXXXXXXXXXXXXXXXXXXXXXXXXXXXo",
".XO+++++@+@+@+@@@+@#@#@###@###$$%$%$%%%&%&%&%&%*%*%******===-=OO",
".X++++-++++++@+@+;+#+#+#+#+#:###&#&#&%&%&:&%&>&*&*&*****>*,*,*OO",
".X++@+++@+@+@+@+@#@+@#@$@##$#$#$%$%&%$%&%&%&%*%*%**=*=*=-=-=-=OO",
".X;++++@+@+@+@+:+@+:+#########&#:#&%&%&%&%&>&***&*****,***<-<-OO",
".X@+@+@+@+@#@+@#@#@##$###$%$%$%$%&%&%&%*%&%***%**=***=-=-<-=-<OO",
".X+++++++@+@+:+#+#+###+#:#:#&#&#&%&%&>&%&>&*&*&*****<*,*<-<*<-OO",
".X@+@+@+@+@+@#@#@#@$@$#$%$#$%$%&%&%&%&%&%*%*%**=*=*=-=-=-=-<<<OO",
".X+@+@+@+@+:+@+#+#########&#&#&%&%&%&%&>&***&*****,***<-<-<-<-OO",
".X@+@+@#@+@#@#@##$###$%$%$%$%&%&%&%*%*%***%**=-=*=-=-<-<-<1<-<OO",
".X+++:+@+:+#+#+#####:#:#&#&#&%&%&>&%&>&*&*&*****<*<*<-<-<-<-<1OO",
".X@+@+@+@#@#@##$@$#$%$#$%$%&%&%&%&%&%*%*%**=*=*=-=-=-=-<1<1<12OO",
".X+@+@+:+###+#####:###&%&#&%&%&%&%&>&*********,*,*<-<-<-<-<2<3OO",
".X@#@+@#@#@##$###$%$%$%$%&%*%&%*%*%***%**=-=-=-=-<-<-<1<-<1313OO",
".X+@+:+#+#+#####&#:#&#&#&%&%&>&*&>&*&*&*,***<*<*<-<-<-<-<2<3<3OO",
".X@+@#@#@##$#$#$%$#$%$%&%&%&%*%&%*%=%**=*=*=-=-<1=-<1<1<131313OO",
".X+:+###+#####:###&%&%&%&%&%&%&>&*********<*,*<-<-<-<-<2<332<3OO",
".X@#@#@##$#$#$%$%$%$%&%*%&%*%*%******=-=-=-=-<-<-<131<13331333OO",
".X+#+#+#####&#:#&#&#&%&%&>&*&*&***&*,*,*<*<*<-<-<-<-<2<3<3<333OO",
".X@#@##$#$#$%$%$%$%&%&%&%*%*%*%=%**=-=*=-=-<1<-<1<1<1313133334OO",
".X##+#####&###&%&%&%&%&>&%&>&*********<*,*<-<-<-<-<2<333<33333OO",
".X@##$#$#$%$%&%$%&%*%&%*%*%******=-=-=-=-<-<-<1313133313344334OO",
".X+#####&#:#&%&#&>&%&>&*&*&*****,*,*<*<*<-<-<2<-<2<3<3<3333353OO",
".X#$#$#$%$%$%$%&%&%&%*%*%**=%**=-=*=-=-<1<-<1<1<13131334343454OO",
".X####&#:#&%&%&%&%&>&**>&*****,***<-,*<-<-<-<-<2<3333333336363OO",
".X%$#$%$%&%&%&%*%&%*%*%**=***=-=-=-=-<-<-<13131333133453545454OO",
".X##&#&#&%&%&>&%&>&*&*&*****,*,*<*<*<-<-<2<3<2<3<3<36333436345OO",
".X#$%$%&%$%&%&%&%*%*%**=*=*=-=*=-=-<1<-<131<131313343434545454OO",
".X&#:#&%&%&%&%&>&***&*****,***<-<-<-<-<-<-<2<33333333363634545OO",
".X%$%&%&%&%*%&%*%*%**=***=-=-=-=-<-<-<131313333334535454545454OO",
".X&#&%&%&>&%&>&*&*&*****,*,*<*<*<-<-<2<3<3<333<363634343454345OO",
".X%&%&%&%&%&%*%*%**=*=*=-=-=-=-<1<-<13131313133454345454545444OO",
".X&%&%&%&%&>&***&*****,***<-<-<-<-<2<-<2<333333333636345454545OO",
".X%&%&%*%&%***%**=***=-=-<-=-<1<-<1313133333345454545454544657OO",
".X&%&>&%&>&*&*&*****<*,*<-<*<-<-<2<3<3<33333636343434543464546OO",
".X%&%&%&%*%*%**=*=*=-=-=-=-<1<1<131313331334543454545454444447OO",
".X&%&%&>&***&*****,*,*<-<-<-<-<2<332<3333363334563454545454647OO",
".X%*%*%***%**=-=*=-=-<-<-<1<-<13131333333454545454545447574777OO",
".X&%&>&*&*&*****<*<*<-<-<-<-<2<3<3<333336363434345434646464747OO",
".X%&%*%*%**=*=*=-=-<-=-<1<1<1313133434345434545454544744474747OO",
".X&>&*********<*,*<-<-<-<-<2<332<33333633345454545454546477777OO",
".X%***%**=-=-=-=-<-<-<1<-<131313333334545454545454474747777777OO",
".X&***&*,***<*<*<-<-<-<-<2<3<3<33333636343434545464646477747o7OO",
".X%=%**=-=*=-=-<1<-<1<1<13131334343454545454545447474747477888OO",
".X********<*,*<-<-<-<-<2<332<333336333454545454645464777777777OO",
".X***=-=-=-=-<-<-<131<1333133433345454545454544747477777789898OO",
".X**,*,*<*<*<-<-<-<-<2<3<3<33333636345434545464646477777o7o7o7OO",
".X*=-=*=-=-<1<-<1<1<131313343434545454544444474747774778987898OO",
".X****<*,*<-<-<-<-<2<333<33333636345454545464676477777o777o9o7OO",
".X-=-=-=-<-<-<13131333133453345454545454544747477777789898989oOO",
".X,*<*<*<-<-<2<-<2<3<3<33333636345434545464747477777o7o7o7o7o9OO",
".X*=-=-<1<-<131<1313133434345454545444444747477777789878989o98OO",
".X<-<*<-<-<-<-<2<333333333636345454545464676477777o777o9o7o9o9OO",
".X-=-<-<-<13131333133453545454545444544747477777789898989o9o9oOO",
".X<*<-<-<2<3<2<333<36333436345434545464747477777o7o7o7o7o9o9o9OO",
".X-<1<-<13131313133454345454545444444747477777789898989o989o80OO",
".X<-<-<-<-<2<333333333636345454545464776477777o777o9o7o9o9o0o9OO",
".X-<-<1313133333345454545454544754477747777778989o989o9o9o8q8qOO",
".X<-<2<3<3<333336363434345434545464747477777o7o7o9o7o9o9o0o0o0OO",
".X-<13131313133454345454545444444747477877789898989o9o9o8q8q8qOO",
".X<2<-<2<333333333436345454545464777477777o7o7o9o9o9o9o0o0q0oqOO",
".OOOOOOOOOOOOOOOOOOOOOOOOOOOOOOOOOOOOOOOOOOOOOOOOOOOOOOOOOOOOOOO",
".OOOOOOOOOOOOOOOOOOOOOOOOOOOOOOOOOOOOOOOOOOOOOOOOOOOOOOOOOOOOOOO"};
