/* XPM */
static char * image_name[] = {
"65 65 10 1",
" 	c #C8C87A7AA8A8",
".	c #CFCF8484ACAC",
"X	c #474704041C1C",
"o	c #A7A757578888",
"O	c #383802020E0E",
"+	c #898939396868",
"@	c #979747477777",
"#	c #A4A452527C7C",
"$	c #767627275252",
"%	c #848434345C5C",
" .                        .              .  .  .         .  .    ",
"X  .      .                           .           .         . .oO",
"O . o ooooooooooooooooooooooooooooooooooooooo oooo oo oo oooo++XX",
"X  ooo@++@+@@+@#+@@@@@@@@+@@@@oooooooooooooo#oooooooooooooooo++XO",
"X  oo+$+$$$%%%%$+%%%+++++++++++++%++++++@@@@@@@@@+@@@@@@@+o++$%OX",
"X. oo$X$$$$$$$$$$$$$$$$$$$$$$%%%$$$$+%%+%++$++$+++++$@$+@o@++$$XO",
"X  @$@$$X$$X$$$X$$$$$$$$$$$$%$$$%$%$$$$$$$$+$$+$+$++++@+$$+$+$$OO",
"X  o@$X$$X$$$X$$$$X$$X$$$$$$$$$$$$$$$+$+$+$$+$++$++$++$++@%%@$XXO",
"X  #@$$$X$$X$$$$$$$$$$$X%$$$$$$$$$$+$$$+$+++++%+%++++++++++%+%$OX",
"X  #@$$$$X$$$$X$$X$$%X$$$$$$$$$$$$$$+$+$+$$$$$++%+$@$++$++@%%$$XO",
"X. @@$$X$$$X$$$$$$$$X%$$$$$%$$%$$$$$$$$$+++$@%++%+@$@++@++@%+$$OO",
"O  #@$$$$X$$$%X$$%X$$$$$$%$$$$$%$$+$+$@$+$++$%$@$@$@$@$@$@@%%$$XO",
"X. @@$$$X$$X$$$$$$%$$$$$$$$$%$%$$%$$$$$@$++++%@$@$@$@+@+@+@%%$$OO",
"O. #@$$X$$$$$$$$%X$$$$$$$$$%$$%$%$$+$@$+$$+$@$+%$@%@$@$@+@@+%$$XO",
"X  ##$$$$$$$$X$$$$$$$$$$$$$$$%$$%$+$+%%%@%@%%%%@%+$@+@@@@@%+%$$OX",
"X. #@$$$$$X$$$$$$$$$$$$$$$%$%$$%$%$$$$$$%$+$@%+%+@$@$@$@$@@+%$$OO",
"X  o@$$$$$$$$$$X$$$$$$$$$$$$$%$$$%+$@@%@%@%%%@%@$@@+@+o@@@@%+$$OO",
"X. @@%$$X$$$$X$$$$$$$$$$%$$%$%$+$+$+$%$$@$@%@$%%@++@+@++@@@%@$$OX",
"O  #@$$$$$$$X%$$$$$$$$$$$%$%$$%$+$+$++@$@$@$@@+@%+@++o+o+@@++$$XO",
"X  @@%$$$$X$$$$$$$$$$$$$$$$$+$+$+$%+%+$@$+%%@$%%+++o++@+@@@@@$$XO",
"X. #@%$$$$$$$$$$$$$$$$$$$%$%%$+$+++$++$@$@@$@@$@++@+@@o@@o@$@$$OO",
"O. @@$$$$$$$$$$$$$$$$$$$$%$+$+$+$%+$@$@$@$%+@$@++@@+o++@@@@@%$$XO",
"X. o@%$$X%$$$$$$$$$$%$$%$++$++++++++$@$@%@+@$@++@+@+@@@+o@@@+$$OO",
"O. @@%$$$$$%X$$$$$$$$$%$+$$+$+$$%+$+@$@$@$@$@++@++o@@@+o@o@+@$$XO",
"X  #@+$$$$$$$$$$$$$$%$+$$+$+$+++++++$@@$@%@+@%@@@++o+o@@o$o++$$XO",
"O  o@%$$$$$$$$$$$$$%$+$$+$+$+%++$+$+@$$@$@$@+@+@+@@@@@o+oo@@@$$XO",
"X  #@+$$$$$$%$$$$$$$%$$++$+$++$++++@$@@%@+@@+@@@+o++o@@@o+o++$$XO",
"O  o@%$$$$$%$$$$$+$%$+$+$+$++++++%@$@$@$@$@%@%@@++o@@@o+oo@@@%$XO",
"X  ##+$$$$$%$$$%$$$$+$+$+++%$+++++%++++@%@@@@+@@@#+@@@@o@@@@+$$XO",
"O  o@+$$$$%$$%$$$$+$$+$+$$%+++$+++@%++@$@@$@%@@+#+#@@o@@oo@@@+$XO",
"X. ##+%$$$$$%$$%$+$+$+$++++$+++++$++++@@@%@@@+@@+#@@#@@o@oo+@$$XO",
"O  ##%$$%$%$$$%$+$$$$+$+$$++++++++++%@+@+@@@@@@+o+@@@o@oo@o@@%$XO",
"X. ##+$%$$%$%%$$%$++++++@+++++++++++++@@@@@@@@@@#o@@o@@@oo@@@$$XO",
"O  o@+$$$%$%$%$%++$%+$++++++++++++++@+@+@+o+o+o+o+o@@@ooooo@@%$XO",
"X. o#+$%$$%%$%%$%$+$+++$++++++++++@@@@@@@@@+o@#@o@o@oo@o@o@@@%$OX",
"O  oo+%%$%$%%%$+$+++%+++++++++++++@@@@@@#@@#@@@@@o+o@o+oo@o@@$$XO",
"X. o@++$$%$%%$+$+%$++$+++++++++@+@@+@@@@@@@@@o@#@oo@oooooo#@#%$XO",
"O  oo+%$%$%%%%+$%++%++++++++++++@@@@@@@@@@@o@@@@o+o@ooo@o@o@@$$XO",
"X. o#++$+%$%%%$+%%+$++++++++++o+@@+@+@@@@@@@@@o@oo@ooooooo#@@%$XO",
"O  oo+++$%%+%$+$%%+++++++++++@++@+@@@@@@@@@@o@@@@@oooo@o@o#@#%$XO",
"X. oo++++%%$%%%%+++++%+++++@+@@@@@@+@+@@@@o@@@ooo@#@o@o@o@o#@%$XO",
"O  oo++%%+%+%%%%+%++++++++@+@+@+@+@@@@@@@o@@o@oo@#oo@oooo#o##+$XO",
"X. oo@++%%$+%%+%++++++++++@@@@@@@@@@@@o@@@@o@o#oo@o@ooo@o@o#@%$XO",
"O  oo+++$+%%%+%%++++++++@+@@+@+@+@@@@@@@@o@o@@@o@#o@oo@oooo@#+$XO",
"X. oo@%+%+%+%+%++++++++@+@+@@@@@@@@@@@@o@@o@o#oo@#oo@oooo@o##+$XO",
"X  oo++%+%%++%%%+++++++@++@@@+@@+@@@@@o@o@oo@o@o#o@oo@ooo#o##+$XO",
"O. oo+++%++%++%+++++++@@+@@+@@@@@@@@@@@#@#o@o@oo#@ooooooo#o##%%XO",
"X. oo@+%+%%++%%++++++@+@++@@+@@+#@@#@o@o@@ooooo@oo#o@o#oooo##+$XO",
"X  oo+++$+++++++++@++@+@@@@@@@+#@@o@@@o@oo@o@oooo@oooooooooo@%%XO",
"X  ooo$+++++++++++++@+@@@@@+@@@@o@@@o@o@o@ooooo@oo@@oooooooo#%+OO",
"X  oo@$+++$+++$+++++@@+@@@@@#@@@@@o@o@o@oo@o@o@o#o#oooooo oo#%%OO",
"X  o#@++++++++++++@+@@@@@@@@@@@o+oo+o@o@oo@#@@o###oooooooooo#%%XO",
"X  o#@$+++++%++++@@+@+@+@@@@@@#@o+@o#@##@@oo###o##o#ooooo o##%%OO",
"X  ##@+%++%%+%++@+@@@@@@@@@#@@@o@oo###o#o###o#o###oooo ooooo#%%XO",
"X  ##@%++%++++++@@@+@@+@@@@@#@@o@#o#oooo#oo#oooooo#oooooo o##+%XO",
"X .o#@+%++++++++@@@@@@@#@@@#@@#@#o@ooo#oo#@oo#o#ooooo o oo o#+%XO",
"X.  ##%+%%+++@@@@+@@@@@@o@o@ooo@o@oo@ooo@oooooooooooooooo #oo+%OO",
"X. o#@@+++++@+@@@@@@@@@@@oooo@ooooooooooooooooooooo o o ooooo+@XO",
"X   o@+%++++++++++++@@@@@+@@@@@@@@@+@@@oo@o@o@ooooooooooo oo@%%OX",
"X  #@%+%+%+%+++++++++++++@+++@@@@++@@@@+@@@@@+o@+oo@o@ooooo@@+$XO",
"X  #@%$$$$$$$$$$$%$%$$$%%%%++%%%$+%$$$$$+$%$+%%%@%%+++$$$@%%%$$OO",
"X.##@%$$$$$$$$$$$$$$$$$$$$$$$$$$$$$$$%$%$$$$$$$$$$$$$$++%%%$$$XOO",
"O.XOOOOOOOOOOOOOOOOOOOOOOOOXOOOOXOOOXOOOOOOOOOXXXOXXXOXOOOOOOOOOO",
"O.OOOOOOOOOOOOOOOOOOOXOOOOOOOOOOOOOOOOOOOOOOOOOOOOOOOOOOOOOOOOOXO",
"OOOOOOOOOOOOOOOOOOOOOOOOOOOOOOOOOOOOOOOOOOOOOOOOOOOOOOOOOOOOOOOOO"};
