/* XPM */
static char * image_name[] = {
"64 64 10 1",
" 	c #54547171D1D1",
".	c #68688484E4E4",
"X	c #39395454AAAA",
"o	c #242442427C7C",
"O	c #48486262B4B4",
"+	c #26263D3D8A8A",
"@	c #16162D2D7070",
"#	c #3A3A6060BBBB",
"$	c #44445C5CB3B3",
"%	c #303048489696",
"                                                             .Xo",
" .            .                                              O+@",
"  #$OOOOOOOOOOOOOOOOOOOOOOOOOOOOOOOOO$XOXOOOOOOOOO$XOXO$$%X%XX@@",
"  $OOOO OOOOOOOOOOOOOOOOOOO$OX$X$X$XXX$X$XXXXXXXXXXX$XXXOOO$%$@@",
"  OO  O O OOOOOOOOO$$$$$O$O$O$$O$OOOOOO$$$$$$$$X$X$$X$$$%%X%$X@@",
"  OOO$##O#OO #O#$#$$#$$$#$#$#$#$$$$O$X$$$$XX$X$$XX$%$$%XXX$%$$@@",
"  O  #  ##O#O### $##$###$##$#$#$##X#$#XX#XX$XXXXX$X$XX$$%X%$$%@@",
"  $$ # ### ##O#$#O#O##$ #$##$####$#$$#$#O$X##$#XXXXX$XX%$%$%X%@@",
"  OO$## ##O#O# $## ##$$##$#$#$$$#$###X#XX##$XXXXXXXXX%X%$%%XXX@@",
"  OO# $# #O#O$##$#$#$##$$$$$$#$##XXX$X$#XXXXX#XXXXXXXX%$X%X%X%@@",
"  OOO###$#O##$$$#$#O$$XO#X#$#X$X$$$#XX$X$XXX$XXXXXXX%XX%%%X%XX@@",
"  OO$$ O###OOOO#OOOX$#OX$$$#XOX$X$XXOX$XXXXXXXXXX%XXXXX%XX%%X%@@",
"  OOOO##OOO$OO$$O$O$$XOO#$X$$XOXOXOXXOXOXXXXXXXXXX%X%X%X%%X%XX@@",
"  OO#O#O#$#OO##O$#$#O$#$X$#$XOX$$X#XOXXXXOXXXXXX%XXXXX$%XX%%X%@@",
"  OOO $# $O#$O$#$$$$$#$$$$$#$##X$$$XOX$$XXXX$XXXXX%XX$%$%X%XX%@@",
". OO$#$#$#O$$#O$#O$$#$$#$$X$$$X$#XOXX#XXXXX$XXXXX%XXXX$%X%X%XX@@",
"  OOO $ #O#$$$$$$$$#$$$X#X$X#X$XXXX$XXXXXXXXXX%XXXXXX%X%%X%X%X@@",
"  O$O$$#$#$#O$O#$$#$$$#O$$#$$XXXXXXX$XXXXXXX%XXXX%X%XXX$%X%%XX@@",
"  OOO $ #O$$$O$$#$$$XX$X$X$XX$$$X$XXXXXXXXXXXX%XX%XXX%X%%X%$%X@@",
"  OO$$#$#O#$$$#$$$#$$$#OXX$$X#XXXXXXXXXXX$X%XXX%%X%X%XXX%%%%%X@@",
"  OOO#$#$#$#O$#$$$X$#$$X#$XXX$X$$XXXXXXX%XXX%XXXXXX%XX%X%$%X%X@@",
"  O$$ #O#OXOX$$#$#OX$#X$X$X$#XXXXXXXXXXXX$%X$%X%%%XX%X%X%%%%XX@@",
"  O$$$###$O$$#$$$$#$$$X$XX#XX$X$XXXXXX%XX%$%XX%X%X%XX%X%%$%X%X@@",
"  O$$$$#$#$#$X$#$X$X#XX$$X$$XX$X%XXXXXXXXXX%XX%$%%X%XX%X%%%%%X@@",
"  OO$ #$##O$$O$$X$$$X$$#XX$XXXX$XX#XX%X%X%XXX%X%X%%X%XX%%%X%%X@@",
"  O$$$$#$OX#$X#$#OXX$X#XX$XXXXXXXXO%XXXXXXX%X%XX%X%XX%X%X%%%%%@@",
"  OO$$#$##XOX$$XX#X$XX$XXXX$X$XXXXXX%XX%X%XXXX%%X%X%X%%%%%%%%X@@",
"  O$$#$##OX$#X$$X$$X$XX$X$XXXX#XXXX%XXXX%XX%X%XX%%%X%%X%X%%%%%@@",
"  O$$$#$#$XO$XO#$X#X$X$#XXXXXXXXXX%XX%XXX%X%X%%X%X%X%X%%%%X%X%+@",
"  $$$$$##$$$$#$$X$$X$X#XXXX#XXXXXX%XXX%XX%X%XXX%%%X%%%%%%%%%%%@@",
"  O$$$#$$##X$$X$#XX$XX$X$XXXXXXXXXXX%XX%XX%X%X%X%%%%X%X%%%%%%%@@",
"  $$X#$##X$$XXX$X$#XX$XXXXXXXXXX%%XXX%XX%%X%X%X%%%X%%%%%%%%%%%@@",
"  $$$$$#$X#XOO$$XXX$XXXXXXXXXXXXXX%X%X%XXX%XX%X%%%%%%X%%%%%%%X@@",
"  X$$X#X##XOXX#X$X$X#XXX$X$XX%X%XXXXX%XX%XX%X%X%%%%%%%X%%%%%%+@@",
"  OX$$X#$$X$X$XXXXXX$XXXXXXXXXXX%X%X%XXX%XX%%%%%%%%%%%%%%%%+%%@@",
"  X$$X#$#XOX$X$X$X$XXXXXXXX%XXXX%XX%XX%X%X%XX%%X%%%%%%+%%%%+X%@@",
"  OX$$X#XX$XOX$#XXXXXXXX$%XXXXX%XX%X%X%%X%%X%X%%%%%%X%%%%%%++%+@",
"  X$$X$$##XOXOX$X$XXXXXXXX%X%X%XX%X%XX%X%X%%%X%%%%%X%%%%%%%+X+@@",
"  OX$$#X#X$XX$XX$%X$X%XXXXXXXXX%XX%X%%X%X%%X%%%%%%%+%X%%%%%+%%@@",
"  XX$X$#XOXX$XXXXXXXX$XX%XXX%X%XX%X%%%%X%%X%X%%%%%%%%+%%%%%+X+@@",
"  OXOX#XXXXOXX$XXXXXX%X%XXX%XX%X%X%XX%X%X%%%%%%%%%%+%%%%%o+%+%+@",
"  X$$$##X#XXX$XXXXX$%XXXX%X%X%XX%X%%%XX%%X%%X%%%%%%%%%%+%+%%++@@",
"  O%OX$X#XXXXX$XXX%XX%X%XX%X%%X%X%%X%%%%%X%%%%%%%%%+%%+%++%%+++@",
"  X$$$#X$XXXXXXXXXXX%XXXXXX%X%X%%X%%X%X%%%%%%%%%%%+%%%%+%o%+++@@",
"  OX$XX#X$XXXXX$%X%XXX%%X%%X%%X%X%%X%%%X%%%%%%%%+%%+%+%+%+%%+%@@",
"  XXX$#XXXXXXXXXXXXXXXX%XXXX%XX%X%%%%X%%%%%%%%%%%%+%+%+%%o%++%@@",
"  OX$$XX#XXXXXXX%X%X%X%XX%%%%X%X%%%%%%%%%%%%%%%+%o%+%+%+%o%++++@",
"  XX$XX#XXXXXXXXXXX%X%XX%X%X%X%%X%X%%X%%%%%%%+%%+o%+%+%+%o%+++@@",
"  $XOX#XXX#XXX%X%X%X%X%%X%X%%%%%%%%%%%%%%%%+%+%%+%%%+%++o%o%++@@",
"  X$$XXX#XX%XXX%XX%X%X%X%%%X%%X%%%%%%%%%%%%+%%%%%o%+%+%+o%o+%+@@",
"  OX$X#XXXXXX%XXXX%X%XXX%XXX%X%%X%%%%%%%%%%%+%+%o%%o%++%oo++++@@",
"  XXXXX#XXXXXXX%X%$%XX%X%X%%X%X%%%%%%%%%+%%%%+%+%%%++%+%o%++%+@@",
"  X%$XXXX%XXXX%XXX%X%X%XX%XX%%X%%X%%%%%%%%+%%%++%+%+%+%+++%+++@@",
"  $%$$XXXXXX%XX%XX%XX%X%X%X%XX%%X%%%%%%%%%%%+%%%%%++%+++o%++%+@@",
" .%XO$XXXX%XXXX$%X%%X%XX%%X%%%%%%%%%%%%%+%%%%o%oo%++%+%++oo+++@@",
"  O%$%XXXX%X%%%%$%$%$%X%%X%%X%%%%%%%%%%%%%+ooo%%+o+%++o+o+o+++@@",
"  X%O$$%XX$%XX$%%%%X%%$%$%X%%X%X%%%%%+%%%o%o+%ooo%oo%+++o%oo%++@",
"  O%$%%XXX%%X%%$%$%%%%%%%%%%%+%%%%+%%%%o%o%o%oo%+o%+%o%oooo@+++@",
"  O$$$$$XX$XX%$%$%%XX%%%%%%%%%%%%%%%%o%%%%%%%%%oo+oo+o+ooo%o%+@@",
"  %%%%X%XX%%X%%$%%%%%%%%%%%%%%+%%+%%+%o%o%o%o+oo+o+o+++ooo%@+++@",
"  $$$$XXXXXX%XX%XXXX%$XX%$%%%%%%%%%%%%%%+%+%+%+%%%+%+%+++o++++@@",
"  %%XXXXX%X%X%XXX%%%X%%%%%X%%X%%%X%%X%%%%+++++++++++%++%++++++@@",
" O++@+@+@+@++@@@@@@@@@@@@@@@+@@@@+@@@@+@@@@@@@@+@@@+@@@@@+@+@@@@",
" %@@@@@@@@@@@@@@@@@@@@@@@@@@@@@@@@@@@@@@@@@@@@@@@@@@@@@@@@@@@@@@"};
