/* XPM */
static char * image_name[] = {
"64 64 10 1",
" 	c #EAEAEAEAEAEA",
".	c #D7D7D7D7D7D7",
"X	c #B5B5B5B5B5B5",
"o	c #C2C2C2C2C2C2",
"O	c #909090909090",
"+	c #7A7A7A7A7A7A",
"@	c #000000000000",
"#	c #5C5C5C5C5C5C",
"$	c #4C4C4C4C4C4C",
"%	c #3F3F3F3F3F3F",
" .XoXooXXXoooXXooooXXooooXXXXXoooooXooooooXoooooXXXXoXXoooooXXXO",
".XOOOOOOOOOOOOOXOOOOOOOOO+OOOOXOOOOOOOOOOOOOOOOOOO+OOOOOOOOOOOO@",
"XO##+#$$$#++$$+####$#$$%$$#$######$$$$####$####$$$$$##$$$#+#%#$@",
"XO##$$##$#+#++####%$$$$##$###$$$##$$+#$$$$##$######$##$######$#@",
"oO$$$%###++$$%$#$$$####+###$$+$$%%$##$$##+%$####%%$$##$##$+$$$#@",
"oX#$$###$+$$$###$$$#$+########%#$$$##$##$$$%###$$$$$####$##$#$#@",
"oO$##$#$$+$$$$%#$$$####$#+##$#######$#++$$+#+#%$$$#####$##$#%$$@",
"oO$#$##$##$$$#$$$$#$##$#+###%$#$######+$$$$$#$$$######$#+##%#+#@",
"XO$$###$###$#$$#$$$$$$+#$$$###$#$$$$$$###$+#$#$#$$$#$%##$$$+$##@",
"oO$#$######$$%####$##$##$#$$$$#$%%$$#$%$#$$#%$#$%%$##%++$$#$%##@",
"oO#$$$##+#$#$$##%%#$$$#+#$#%$%$$##$#$%#$####$$##$$$##$#$$$#%$$$@",
"oO$$$$##$$%$$$#$$$$$###$$$$%$$#$$$##$##$###+$$$$$$$$$#$######$$@",
"oO#%$###%$$$%#$$$$$#+$$#%$$%#%#$$$$$$#$###$$$$$###$$$+#$$$#$$##@",
"XO%$###$$#$#$###%%####$#$$$$$$$$%%$$$$#%###$$#######$#$##$%#%#$@",
"oO%$$#$####$#$$$$$+##$%#$$$$$$$#$$$##$$##$$$$$##$$#$###$$#$#$$$@",
"XO##+$$$#$#%$#######%#$#$$$$$$$#$$#$$##$$######$$$$#$######$$$#@",
"XO####$$#%#$###$$$#####$#$$$$%##%%#$##$$$+$$$$#$$$#######$#%$+#@",
"XO####$$#%#$###$$$#####$#$$$$%##%%#$##$$$+$$$$#$$$#######$#%$+#@",
"oO###+$#$$##$#$$####$####$#%$#$$$$##$##$##$$##$########$#$#$#$#@",
"oO##$$$$#$###$$$##$$$$$$$#%$$$%$$$$$$###+$$$##$#$$#####$$$$##$$@",
"XO$$$#$$$$##$$#####$$#$#$#$$$$$$#####$#####$##$$$$##$#####$###+@",
"XO+###$###$$$$$#$$$%##$$#$$$$$#$$$$##$$#$#%$$$$$##$$$#####$$$#$@",
"oO#$$$#$$#$$$$#$##$%$#%$$+%$#$$$$$#$$####$$#$$#+##$$##$$%###$#$@",
"XO$$$$#$###%##$#$$$$##%$$$###$$$#########$$#$#$$##+#+$#%%%###$$@",
"oO+#$$$$$#$$$########$%$$$$$#$$####$##$#$$#$$###$$####$%%$+$$$$@",
"XO#$##$##$%$$##$##$#$%$$##$$#$$$##$#$#%#$#$#$#$$####$#$#$$##%#$@",
"oO#$$##$$$$$#$#$$$$$$$$$+#$$$$$#####$#$#$$#$#$%###$%$$#+$$$$$$$@",
"oO$$$#$$#$#$$$##$$$#%$$###$##$####$$$$+$#%$#$$$$$$$$$$$###$#$$$@",
"oO####$$$$$$#$$$###$#$#$$$##$$##$$#$##$+#$##$#$$$$$$$$##$##$$+$@",
"oO$###$##$#$#$$####$#$$$%$$$$##+$$#$$$$$%$##$$$$##$##$$###$#$$#@",
"oO+$$#$#$$$$#$####$+$$#$#$$$$#$$$$$$$#$%$#%%$$$$$$$$$$##$$#####@",
"XO#$$$$$$#$#$##$%%$$$$$$#$$++#$$$$#$$$$$$$#$#$$$$$##$$##$#$#$##@",
"oO#$$$##$$$$$#$#$$#$$$$$$%###$%%$$$$##$#####$#$#$$$%$$$$$##$##$@",
"oO#$$$##$$$$$#$#$$#$$$$$$%###$%%$$$$##$#####$#$#$$$%$$$$$##$##$@",
"oO#$#%$%##%$#$$%$$$$$#$#$$#$$%%####$#$$$$$$%$#####$$$%#$$$##$$#@",
"oO#$%$%$%$%#$$$$##$#$$#$%##$%%#$$$#$##$##$$#$##%###$$$###$##$+#@",
"oO$%$$%#$###$+##%%#$$##$$$$$$$#$###+##%$$##$#$$$$$##$####$$$$##@",
"XO$$#$$##$$$####$$#$$$$#$$%$%$####$#$$%##$#$##$#$$$$$##$$#+##$$@",
"XO$$#$$%$$##$#$$$$$#$$%$%$#$#$##$$##%$##$$#$$#$#$$#####$##$%$##@",
"oO$$####%$##$$#$$$##%$%$$###$###$$$$%$#+##$$##$#$$#%$##$#$$$$+%@",
"XO$$$$$%$$$++#$%$$#$##$$#####+####$$$$##$+%+$##$$$$$+####$####$@",
"oO+#$$$#$$#$##$$$$$##$$###$$$%$$$$##$%#######+##$$$$$$#+##$$##$@",
"oO$#$$#$$$###$$#$$##$#$##+$#$$#$++%#$##$#+$$#$$%$$$#######$#+$#@",
"oX##$#$$#$$$$$#$$$#$$#++##$$$$$###$$#######$$#$$####+######+###@",
"XO$$$$$##$$$$#$###$#$####+$$#$####$+######$#$%$$###+$#$##$#$###@",
"oO++###%#$$$#$$$$$$%+$#$$###+##$####+#$$$##$$%####$##+#$+##$##$@",
"oO#$$##$$$$#####$$#$$$#$$$#$####$$##$##$+#$#$###$$#+##++####+#+@",
"oO$##$$$$$$#$##$##$%#####$#$###$###$#$#$####$$#+###+####%$##$#+@",
"oO##$$$$$###$$$#$$#$#####$#########$#$###+##$######+####$######@",
"oO##$$$$$###$$$#$$#$#####$#########$#$###+##$######+####$######@",
"oX#$$##$##+#$$#$##$$$##$#%#####$++###$##+##$$%+###$$$$#+$####$#@",
"oO$$$#$##++$##$%##$$#$$$$##$##$###$$###+###$$#####$####+###$###@",
"XO$##$$#$#$#+##$##$#$#$#$#$####$$$##$#$#$$$#$$$+$$$$$+#$$$$#$##@",
"XO##$$##$$$##$%$########$$+##$##$$#$##$#%#$$$##$###$$+#####$$$#@",
"XO$#$$+#$$#$$#%$$$+#$##$$##%+#$######+#+$##$#$+###$$+#####$%+$#@",
"XO####+$$#$$#$##$$###+##$#$$###$###$#$$######$##$$##+###$#%#$$$@",
"oO####$$#$##$$$$++#####$%$#$$+##$$$$#$$#$###%#####$##$#$$#####+@",
"oO$#+#$$##$$$$$###$###$%%#######$$$$##$$$$#$#$$$##$$####$$$$$#+@",
"oO$+$$##$#####$$#####+$$#$###$%$$$$$#$###$##$#######$#+$$$+#$##@",
"oO+$%$$#$$%#$$$$####$$$$####$#$$###+$#$#+##+#$########$$#$####+@",
"oO$$$$#$##$+$$##$$$##$##$##$$#$#$$#$##$$$$##$$$###+###$#$######@",
"XO$$##+#$$$#$##$$$#+##$$#####$$$$$####$#$$$#+$+###$$##%#######+@",
"oO###$######$##$#######$##$$$$$$%%#$$#%$$$##$$##$$#$#$$#$$#+$$#@",
"O@@@@@@@@@@@@@@@@@@@@@@@@@@@@@@@@@@@@@@@@@@@@@@@@@@@@@@@@@@@@@@@"};
