/* XPM */
static char * image_name[] = {
"48 48 20 1",
" 	c None",
".	c #8F8F4F4F2A2A",
"X	c #FEFE8B8B4444",
"o	c #97979D9D9A9A",
"O	c #1F1F4B4BDADA",
"+	c #36365656B3B3",
"@	c #66668F8FDCDC",
"#	c #565658585656",
"$	c #9393ABABE8E8",
"%	c #FEFEFFFFFFFF",
"&	c #ADADC9C9ECEC",
"*	c #D9D9D8D8E8E8",
"=	c #707087877070",
"-	c #222228284C4C",
";	c #030302020404",
":	c #2A2A27272525",
">	c #43431F1F2020",
",	c #9E9E62625F5F",
"<	c #F5F5A2A29292",
"1	c #D1D177778080",
"                                                ",
"                                              .X",
"          oO+@                               .XX",
"  ########O$@++#############################.XXX",
"  #%&&&*&O&&&@+@*&$%%%%%%%%%%%%%%%%%%%%%%%%.XXX.",
"  #*@O@O@&&@OO=OOOO@%%%%%%%%%%%%%%%%%%%%%%.XXX..",
"  #@@&$$&$@OOOO@&&&Oo%%%%%%%%%%%%%%%%%%%%.XXX...",
"  #@$&OOO--;---OOOO-+*%%%%%%%%%%%%%%%%%%.XXX....",
"  #@$$OO;;-O+O--OOO-;o%%%%%%%%%%%%%%%%%.XXX.....",
"  +O*O-;:O$$ $&O-OO--#####%#;###%####%.XXX......",
" +O&@O;-@*%#-+$$+@OO+O %%%%%%%%%%%%%%.XXX......>",
"+@*&O-;O%*-;-;+@-O@OO@+#;##%%%%%%%%%.XXX......>:",
"+&$OO;+$*$;+OOO-;O@@OO#+%%%%%%%%%%%.XXX......>>>",
"O@OOO;O**@;OOOOOOOO$OO;:###;####o%.XXX......>:>:",
" O$O-;O*$o-OOOOOOOO&O-;#o*%%%%%%%.XXX......>>>:>",
" +O@O-O*$@-OOOOOOOO*O;-#####;%o%.XXX......>:>>>;",
" oO$O;O@&$-OOOO%OO@&+;-o*%%%%%%.XXX......>>>:>; ",
" +$&O-OO$$$+O@*$;O$@O:#=####o%.XXX......>:>;>:  ",
" O&@OO-OO+o@&*$=-@&OO;+ %%%%%.XXX......>>>>>:#  ",
" @$OOOO+OO---;--@&@OO;##*#o%.XXX......>:>:>::#  ",
"  +--OOO@OOOOOO$$$O+;;#o%%%.XXX......>>>:>;;:#  ",
"  #@--+OO@$@$$*$O-;;-:=#o%.XXX......>:>>>;.;##  ",
"  #* +@OOOOO$@OO+;:-#=o*%.XXX......>>>:>;.%;:#  ",
"  #%%*O$OO+;-+OO-;## #o%,<<X......>:>:>;.%%;:=  ",
"  #%%%$O--;;----;-=&*%%,<<<......>>>:>;.%%%;:#  ",
"  #%%%##-:-==#+-:#=#:#%,<*<<X<..>:>>>;.o#%%;:=  ",
"  #%%%%%*ooo** o=o*%%%,<<<<<<,,>>>:>;.%%%%%;:#  ",
"  #%%%###;######%*##%%,*<<<1,.>:>:>;.%%%%%%;##  ",
"  #%%%%%%%%%%%%%%%%%%,<<<<X1#>:>>>;.%%%%%%%;:#  ",
"  #%%%%%%%%%##%##;#o%1<<X<,>>:>>>;.%%%%%%%%;:#  ",
"  #%%%%%%%%%%%%%%%%%,<<<<,#>:>>#,,%%%%%%%%%;:=  ",
"  #%%%##;####;##%#o%,<<<,>>>#>,.1%%###%%%%%;:#  ",
"  #%%%%%%%%%%%%%%%%,<<,#>->>#,1%%%%%%%%%%%%;:#  ",
"  #%%%;;##%######%o,1,,>>>,.1%%%%%%%%%%%%%%;##  ",
"  #%%%%%%%%%%%%%%%;1#>>>#,1%%%%%%%%%%%%%%%%;:#  ",
"  #%%%###%#;###o%#;;>>>.1%%%%%%%%%%%%%%%%%%;:#  ",
"  #%%%%%%%%%%%%%%;;;;#,%%%%%%%%%%%%%%%%%%%%;:=  ",
"  #%%%%%%%%%###%#;;;#oo%#;####%#;#####%%%%%;-#  ",
"  #%%%%%%%%%%%%%;;#%%%%%%%%%%%%%%%%%%%%%%%%;:#  ",
"  #%%%;%##;###%#;###;####%##%###%###;###%%%;##  ",
"  #%%%%%%%%%%%%%ooooo%%%%%%%%%%%%%%%%%%%%%%;:#  ",
"  #%%%%%%%%%%%%%%ooooooo%%%%%%%%%%%%%%%%%%%;:=  ",
"  #%%%%%%%%%%%%%%%o ooooooo%%%%%%%%%%%%%%%%;:#  ",
"  #%%%%%%%%%%%%%%%%oo oo ooooo%%%%%%%%%%%%%;:=  ",
"  #;;;;;;;;;;;;;;;;;;;;;;;;;;;;;;;;;;;;;;;;;:#  ",
"   :::::::::::::::::::::::::::::::::::::::::##  ",
"    ###=####=###=##=#=#=#=##=###=####=########  ",
"                                                "};
