/* XPM */
static char * image_name[] = {
"48 48 20 1",
" 	c None",
".	c #2E2E2A2A4949",
"X	c #595954544A4A",
"o	c #FCFCF8F8FCFC",
"O	c #000000000000",
"+	c #99999C9CA8A8",
"@	c #CDCDCBCBBEBE",
"#	c #E2E29D9D9E9E",
"$	c #E2E2DCDCDEDE",
"%	c #45452E2E2525",
"&	c #CFCFA7A7CFCF",
"*	c #4A4AA1A16161",
"=	c #5E5E8F8FCFCF",
"-	c #D7D7ACAC6161",
";	c #A0A08C8C5C5C",
":	c #4D4D49492929",
">	c #252529292525",
",	c #414130304141",
"<	c #97974E4E4141",
"1	c #8E8E71719696",
"                                                ",
"                                                ",
"           .XooooO                              ",
"          .X+oooOO                     @#OoooO  ",
"         .X+oooOOO                      @O ooOX ",
"        .X+oooOOOO      @$#%oooXO       @&Ooo O ",
"       ..oooo&.OOO       o%ooooXO        @O ooOX",
"       .***==&.OOO      o-%ooo OO        @#oooXO",
"       .*&$&=&.OOOoOXooOo%oooo+OO         @&XXXO",
"       ;%:%:%:.OOOOX o+Oo$o$o-%OO        @X>O>OO",
"      oo&&===&,OOOO+oo,O$#----%OO         X>>>>O",
"  oOooo-:<%%%%.OOOOoo+>Oo--:--%OO      & &X>O>OO",
" oOXooo;:%O,%%.OO,,+++>O-%:<%%OOO%OooooOoo&&XXXO",
"oOX+oo:;%:%<%%.OO.X+++,O$--%#-%OO,OooooO#o<%%%%O",
"$$$o$ >o@#$==&,OOO.,<.OOo#---#%OO,OooooOXo@#:XXO",
"$-X*X:O;<:%:%:.OO.:+++>O#%:%:%OOO%Ooooo:Oo#@<X<O",
"$+XX*:Oo***1=+,OO,.::XOOo--#--%OO,ooooo,Oo@&XXXO",
"@*O>OOOo**&&=+.OO:.+++,O$;#%#-%OO%%,%,%,Oo#@<XXO",
"$;*XXXOo*&&&=&.OOO.,..OOo--%-#%OO,X%>,X%Oo@#@XXO",
"$XOOOOOo*,&,=1.OO.:+++,O$--%#-%OO%1X1;1,Oo#@<XXO",
"@X>>>>Oo*>$&=&.OOX.+X+>Oo-;#--%OO,%,:%%,Oo$&%X<O",
"@*O>OOOo*,&1==.OO>:+<+>O$--%#-%OO%1+++1%Oo# <XXO",
"$+X*XXOo*&&.=&.OO>.+:+:Oo--%-#%OO,+>>>1,Oo@#%XXO",
"@XOOOOOo*.&.=1.OO>X+:+.O$-#%#-%OO,111+1,Oo#@<XXO",
"$-*XX:Oo*&$&==,OO>.+++>Oo-->--%OO%,,,%,,Oo$&@XXO",
"o;XXX:Oo*,&.=&.OO>:+<+>Oo-#%#-%OO%>;1<>%Oo#@%X<O",
"$+*X*,Oo*>&.=1.OO.X+* >Oo#---#%OO,,%.,,:Oo@#XXXO",
"o;XXX:Oo*&&X=&.OOX.+++,O$-#>--%OO%,>%>%,Oo#$#XXO",
"$+*X*:Oo*.$.==.OO>.+=+>Oo--%--%OO%>,>%,,Oo@&@X<O",
"$;XXX:Oo*,&.=+.OO.:+<+>Oo-#%--%OO,%>%,%%Oo#@<XXO",
"$+*X*,Oo*&&&=&.OOX.+<+:Oo#---#%OO,>%>,,,Oo@#XXXO",
"@<O>OOOo*&&&=1.OO>:+++>O$-#:--%OO,%>,%,%Oo#$X<XO",
"$+*XX:Oo*&$&=&.OO.. :+>Oo--:--:OO%,,,%,,Oo@&XXXO",
"@XOOOOOo*&&&==.OO>:+:+:Oo-----%OO,X=1*1%Oo#@<X<O",
"@X>>>OO&<%%<%%,OO.X+:+>Oo----#%OO,X%>.,%Oo<%%%>O",
"@;>OOOOo&&&&=&.OO>>+<+,O$;<%:-%OO%1X1;+,Oo#&::<O",
"$+*X*:O&:<%%:,.OOX.+:+>Oo-%#,-:OO%1+*=1%OoX%OOOO",
"@XO>>OO&%::%%:.OO>.*++.O$-%-<-%OO%1X1X<,OoX>>>OO",
"$+*XX,O&,,:<%,,OOOO,X.OOo#.-:#%OO,,:,,X,OoX>OOOO",
"o;X*X:Oo*&&==&.OO.:+++:Oo-%:%-%OO%1=;=1%Oo# <XXO",
"XOOOOOX&:<:%%:%OO>.+* OOo--#--%OO%,>,%%,O@&$XXXO",
"        **&#=$.OXOOO>OOX#-----%OO,%,%,%,OXOOOOOX",
"       X*====&.O @@     XOOOOOOOXOOOOOOOX       ",
"       XOOOOOOOX                                ",
"                                                ",
"                                                ",
"                                                ",
"                                                "};
