/* XPM */
static char * image_name[] = {
"48 48 20 1",
" 	c None",
".	c #89898F8F8282",
"X	c #5F5F56565656",
"o	c #868677778080",
"O	c #39393F3F3535",
"+	c #808087877070",
"@	c #4B4B4C4C8E8E",
"#	c #707087877070",
"$	c #A0A09E9E8E8E",
"%	c #DADAD0D0D7D7",
"&	c #D0D0B4B4A5A5",
"*	c #828277777070",
"=	c #F7F7F3F3F5F5",
"-	c #D1D1C3C3BABA",
";	c #EFEFD9D9E4E4",
":	c #23232B2B5252",
">	c #19191C1C2B2B",
",	c #1D1D23231E1E",
"<	c #5C5C1C1C1515",
"1	c #606006060A0A",
"                                                ",
"                                                ",
"                                                ",
"                                                ",
"                                                ",
"   .X                                     XX    ",
"   oOOX                                XXXO.    ",
"   +X++XX.                         @#XX.$%.X    ",
"   .X.$&$$+$....@+*X.      X#X...#.$  ====.X    ",
"  .XX+$&--;;=====% ..X   X#$ %;===========.X@.  ",
"  .XX$$&--;=;====;=-&.X#XX$%==============.XXX  ",
"@X.XX+++--;%===;===-&.#OO+&;=========== $=.XXXXO",
"@:%XX$+++$&==;====;%&$XX>X %=;======% +$;=.#XX>:",
"@:%#X$$&&$$++##.+ ;-&$oOOX&;=%-....$$ %===.XXO>:",
"@:;XX++#--;====;$#.=$++OOX=$.#$========$$=#@XX>:",
"@:;XX$$+X+$;========+$+O,.==========%...=;$+XO>:",
"@:;#X+$$-$$$$+$ $%<=&+*XOX=X;% %. .$ %=;%=+XXX>:",
"@:%XX$++& %;$1.%%<1=.$+OO*=XX%%%X.;==%%$$=.*XO>:",
"@:=XX+$+++;+11$&<1<=$++OO.=XXX&%XXo; $$ ==.*XX>:",
"@:%XX$+$-%+11**X11<=;%- $%=&&$&;&oX.%==% ;$XXO>:",
"@:=XX+$+;X11X$<1111XXXXXXXXXX*XX$&XXo=$#%;.*XX>:",
"@:;XX$$%X11X&<111111111111111111*&<XX#%===.XXO>:",
"@:;XX+;X11<;11111111111111111111*$X*<*X=$=.XXX>>",
"@:=XX$$=<11*-111<111<111<1111111*&<XXX=.=;$@XO>:",
"@:%XX+$&=X11X$11111<<X<<X<<X<<X<*&XXX;==;=#+XX>:",
"@:=XX$**&;<11*$<11<=;=;;;;=;;;;=;$<*;=%$$=.XXO>:",
"@:;XX$$+.+;X11&$<<1=.++OO+=XXX$%XX*%-$$ =;.*XX>:",
"@:=XX$.$& &;*1*=$<1=&$+OO+;*X$;;<*;%%;= %;.XXO>:",
"@:;XX$.*+$-;;X$==$<=.++XO*=X&=-%o;==%%$$%=.oXX>:",
"@:=XX$$$$$$$$$;- %&=$$+OO+=%=%;; $$$$  %==$XXO>:",
"@:%XX$ &;%%%;;=%.o$=$$+OO+= $o$==%;======;oXXX>:",
"@:=XX$&&-%;;===;=%;$+++XO*+.;;==========;=.oXO>:",
"@:;XX$&&;%;=;=;==;=%&$+OO.$===;==========;.XXX>:",
"@:;#X+&&;-;;====;;=-&++OO+&=;=========% .XX.XO>:",
"@:;$ #++$&&  $  %%%-&$+OO*$=;%%%%   ..#XXX$ OX>:",
"@:;$=; $XXO,,,>OOOX*..+OO*$ +XOO,,,,>X#$$-&&XO>:",
"@:;$=% .oXXOO,,,>>>,OXXOOXXO,,,,,,,OOOX#.+$&XX>:",
"@:%.XXOO,>,,,,,,,,,,,,XO,O,,,>,,O,,>,,>,OXXX>O>:",
"@:X:>>,,,O>,O>,,,,O,,,O>,,,,,>,,>,O>O,O,,,,,,O,:",
"@:>>>>>>>>>>>,>,>>,,,>>>>,O,>,>>>>>>>>>>>>>>>>>:",
"@>>>>>>>>>>>>>>>>>>>>>>>>>>>>>>>>>>>>>>>>>>>>>>:",
">:>>>>>>:::::      @:::::::      @:@::::>:>>>>>:",
"                                                ",
"                                                ",
"                                                ",
"                                                ",
"                                                ",
"                                                "};
