/* XPM */
static char * image_name[] = {
"47 47 20 1",
" 	c None",
".	c #949447470505",
"X	c #5A5A4A4A2121",
"o	c #AAAA56561111",
"O	c #9E9E8A8A6161",
"+	c #AEAE14148686",
"@	c #383830308E8E",
"#	c #2020B2B2BEBE",
"$	c #4F4F99990303",
"%	c #D2D2A3A31313",
"&	c #D5D56F6F0404",
"*	c #5D5D28280B0B",
"=	c #D5D561610303",
"-	c #1818B6B65959",
";	c #AEAE28280000",
":	c #080806060000",
">	c #282812120A0A",
",	c #43433F3F5151",
"<	c #8E8E8686AEAE",
"1	c #D6D6CDCDE7E7",
"                                               ",
" ...XXoOoOoOoOoOoOoOoOo++++@@@@####$O% %&*.X.X ",
" $o=o=oooo&&&o&&o&%=&o=++++@@@###--$$%%%=;;=;. ",
" $oo=o&&&&=%&&&=%&&&&&=++++@@@###--$$%%%=;;.$X ",
" =;==o&=&&&&%&%&&&%&%&&++++@@@@##--$$%%%=;;o$X ",
" ;==o=o=&&&%&&&%&%&%&%&++++@@@@##--$$%%==;;$oo ",
" =o====&&&oO:%%%&&&&&%=++++@@@@##-$$-%%&o;=;oX ",
" o=o&==%&%>>>%&%&%%%&&&>+++@@@@##-$$$%%&;;=;oo ",
" =o&=&&%%:>::%.%%%%&%%&*,++@@@@##--$$$$&o*.$=, ",
" ==&=&&%>>:::*.%%%&%&%&>,++@@@@##--$$$$o;>.=;. ",
" &&&&oo>::<:::*%%%%%*>>:>>:,::::>:>:>::>:>:$oo ",
" o=&%%>>>>,::::&%%%%%Oo>>,,>@@,#--$$-oOo*:O*oX ",
" &&&&&>:>>>::::>O%&%%%;>*>,,:,>,,:::>>>>*:***. ",
" &&&=O>X,:X:::::*%%%O%&:X*,>,,,,-X$$$-$.*>,*., ",
" &==&O:XX,:>:::>>.%%%%&>.,*@>@,--$XX$$-o*>o*oo ",
" &&&&o>:,::>::::>o%%%%&>,*X,>,,O,X$$$$$..>X*., ",
" &&%&o>:XX:>X:::>o%%&&%>**,,,,X,-X$X$$$.*>o*.X ",
" &&&%o::X$>:::::X.%&%&&>*,;,>X,XOXX$$$..*>,*oX ",
" &&&=&%>:>::::::*.%&%&&>X>,*@>,X,,XX$$..*>o*oX ",
" &&&&%&::>::>::XXo%%%%&>X**,*>X,XXXX$XX.*>X*.X ",
" &&&&&%:::::>::*X;O%&&&>X*,+*XX>,$XXX...*>o*OX ",
" =&%&&=::::::::**&%%&&&>****,X>XXXXXX.X.*>X*.X ",
" &o=&%&@<<<<<@,XX&%%&&&>**X**XXXXXXXXXo*.:O*oX ",
" =&&&&%11  <<@,>*&&&%%&>**,*,*XXXXXXXX.**>.*oX ",
" o&&&&&111<<<@,*X&&%&&&>X*..,*XXXXXXX.*.*>.*.X ",
" o=o&&&11<1<<@@>.%&&&&&:**.*oX*.XXXX.X*..>X*o. ",
" =o=&&&1<<1<<@,*>&&&&&&>X>***.XX.XXXX.X.*:X*., ",
" ==o&=&1<<1<<,@*.%&%&=&:X**.X*.X.XXX.*.**>X*.o ",
" o==o&&1< <<<<,*>=&&%&>::>:::>::::::::>>>::>:O ",
" =o=o&o1<  <,,:**&&&&&=:X>XXXXXXX,XXXXX**>,*,. ",
" o===o&,,O>,,,:**&=&&&&.*>*>*>>*>>>>>*>**:**** ",
" =oo=oo,, O,,:::*&&&&&=..>.***.**.X*.****>,*., ",
" o=o=oXX,%%Xo>>:>&o&&o&.................**=*.X ",
" oo=&X.,XOOX,>>:**O==&=.$...*........*.*.*.*oo ",
" =o=oX>*,OOX::>:>*&=o==..o..o........;*o.;o.o. ",
" ooo=>X>>X*>:::::.oo&o&...o.;........;.*;;o=.. ",
" =o=oXXXOOOX>>>::*X&=o=.oo;.o..........;.;$;o. ",
" $o;=XX*OOOX>>:::**&o==.o;XoXo......;....;.$$X ",
" $=;oX,XOOXO>>:::*>==ooo.$.$.$o.$.o..o;.;;$$$. ",
" ;=o=XX*OOo,>>:::>*oo==o$.o.=..o.$.;o*.o*.o;$X ",
" $;.;oX>OOX,X::::*>==oo$$$.$..o;$.;o.;o;.;;$o. ",
" .$$oX>>OOoX>>:::>*;=o=o$o;o.$$$.$.$o$..;;.$o. ",
" ;;.;XX,OO,+>>:::>*=;=o$$$$$$$$..o;..;;;;o.;.. ",
" o;o;*>*O>XX:::::>*=o=;=o=ooo$$=$oo$$$o$;;o;.X ",
" ;;.;*>OOXX,>::::>*X=o=$;$=$$;o;.$$;$;o.o.;;o. ",
" ;;.;X,oOXX::::::>*o;=;=;=$;=$=$=;$o$o;.;;.o.. ",
"                                               "};
