/* XPM */
static char * image_name[] = {
"47 47 21 1",
" 	c None",
".	c #B2B2C7C7AEAE",
"X	c #BABAA2A27171",
"o	c #A2A292925D5D",
"O	c #DBDB9E9E9696",
"+	c #868675752828",
"@	c #41415D5D3434",
"#	c #69699E9E5959",
"$	c #969696969E9E",
"%	c #7171CFCF6D6D",
"&	c #41419A9A5959",
"*	c #CBCB75758686",
"=	c #A6A65D5D6969",
"-	c #61618A8AAEAE",
";	c #9A9A6D6D9E9E",
":	c #9E9E45457171",
">	c #595961616161",
",	c #616128286969",
"<	c #6D6D65659292",
"1	c #55556969A6A6",
"2	c #69698E8ECBCB",
"                  ....                         ",
"             .....XooXo..                      ",
"           ...O.oo+@+@@++#$.                   ",
"           .OOo+++@++@++..X...$                ",
"         ...Xo+o+++o%X..oX%XXX.#o              ",
"        ..OXO+o+++..Xo++++@#@&##.#o            ",
"       ..*o+++=+O.XX+++++@@++.X....o#          ",
"     ..OXooo+X.ooX+oo++X.X+++@++@+@#o.         ",
"     O**OoX+O.X+o+o++X..X++++++@+@+@+#+o       ",
"    ..*O=oXXOX+XoX+X.XXo++++++@+@+++####oo     ",
"    .OO**XoOXXXOo+O.XXoo++++++@+@+&#+%+%###    ",
"   .OOOXOXOOoX*X+OOoXo++o++++++@+@++####o#oo   ",
"  ..OOOOXXOXX*ooOOXXXXoooo++++@+@++&+%+%+%o%-  ",
"  ..O*O*OOOOX*oOOOXX+X+X++o+++++@+&+%+%#%#%.%% ",
"  .*O*OX.OOO*X*OOXoo*Xo++oo++@+@+&+#+%##%%%%%%$",
"  O***O.OOOOXOOXOoX*X+XXoo++++@+@++#%##%+%%%%%.",
" .O*=*=OOO*OOOOXOX*o*X*+X+oo+++@+&###%#%%%%%%%.",
" .;***O.O***O.OXX*X*XoooXX++o+@+@++##%+%%%%%.%%",
" O;*:*OO*=**O.OOOX*X*X*o+oX++++@+&#%#%%%%%%%%.%",
" O:==*OO=***.OO**OO*X*oXXoXoo+++&+#+%%%%%%%X%%.",
" O;:::.*=***OOO**O*X*X*X+X++o++@++%#%%%o%%X%.%.",
" ;*:::O*===:O==********X**XOO+@+&#+%o%%%X%%%%.%",
" O:::**::*:==*=**=******X*XX+@@@>+&o%%X%%.%%%%.",
" $::::O::::==*=*=********OO+@>>&o#>#%%.%%%%%%%%",
"  ;,:,O:::=O====*==*=*=**=O>@@@<.$>o&%%%%%%%%-%",
"  ::,;*:*::O:==::=::===*=O=@>>#>@>@&@%%%%%%%&%-",
"  :,,,*::::*:=:::*::::=:=*=>@>>o#$o$@&%%-&&&&&&",
"  ;,,,O:::,O:=:::::::::::=$=>.>o$-$.@&-&&&&-&&-",
"   :,,O:,:,;:::::::::::,,,;>>=@%$X.-@&&&&&&%&&&",
"   <,,:;,:,,:::::::::,:,,,,=$--$$.$>&@&&&&&&-&&",
"   ;,,,;,,,::,:,,:,:,,,,,,,>;>.$.$-@@1@1&&&&&&-",
"    >,,;,,,,,:,:,:,,,,,,,,,,>>>1>@@1>@&@&1&&&&&",
"     ,,<;,,,<,,,,,,,,,:,,,,<<<<>111>1&>>@&1&&1&",
"     >,,;,,,*,,,,,,,,,,,,,,<<22122211@111@@&@&>",
"      >,,<,,<:,,,,,,,,,,<1;;1;222212111&>1@1@1@",
"       @,<<,,:,,,,,,,,,,,;11;2;2222111@>11@>@@>",
"        >@,>,<:,,,,,,,,,;1;1;1;2222211111>1&@1@",
"         ,>>,,;,,,,,,,1,;11;1;222212-&1&1>11@1>",
"           ,,@<,,,,,,,;11;;1;1;22222111111@>1@@",
"             ,<><,,,,11;1;1;1;222222--11@1@1@>@",
"              ,,<,,11;11;1;;;1;222221--12111>,@",
"                ,@,,:1;1;11;1;2;22222--1&1@@@@ ",
"                 <,,1,1;1;1;1;222222112-11@@,  ",
"                   ,,,,11;1;1;2;222222-1@@,,   ",
"                     ,,,11;1;2;22222211@,,     ",
"                       ,,,,;2;22;222,@@,       ",
"                        ,,,,,,,,,,@@@,,        "};
