/* XPM */
static char * image_name[] = {
"48 48 20 1",
" 	c None",
".	c #B5B5B2B2B8B8",
"X	c #BEBEBABAC7C7",
"o	c #CBCBC8C8CBCB",
"O	c #DBDBD7D7DCDC",
"+	c #E9E9E6E6EAEA",
"@	c #EFEFEFEFF7F7",
"#	c #DFDFDFDFE7E7",
"$	c #BEBEC3C3C7C7",
"%	c #A9A9A5A5AAAA",
"&	c #C7C7C3C3BEBE",
"*	c #C7C7BEBECFCF",
"=	c #A6A69A9AA6A6",
"-	c #464648484B4B",
";	c #92928E8E9696",
":	c #696967676B6B",
">	c #202020202020",
",	c #9C9C9898A7A7",
"<	c #737376768888",
"1	c #A6A6A2A29E9E",
"               .XoO+@@+++++###Oo$XX             ",
"              X++@+@+@+@+++++O#OOOXX            ",
"            XO@@@@@+@++#+#++#+#O#oooXX          ",
"          XO+@@+@++++#+++++#+OO#O#OoooXX        ",
"        .X+@@@@@+++++++#+#O+O#OOOOOOoX.o        ",
"       .o+@@@++@+++++#+++#+#O#OOOOOOoO...       ",
"      XO@@@@+@+++++++++++OOO#OOOOOoOooo.%.      ",
"     Xo@@@@@+++++o+OoO#&&O+O&OooO.oooOo*.=%     ",
"    .X+@@+@+++@O-;:;::%>;-o-;:;-.>Ooooooo%,%    ",
"   .X+@@+@+++++.;O+<o&:-<:%1O-<-;-oOooo&oo,;%   ",
"   .O@@@++@++++o-o:;%;;-&:.:.-;:-:ooo*o&XX.,;,  ",
"  .X+@++@+++++++.;O%;;O%O1O1;o%.1;oo*o*&o&.&<;  ",
"  %O@@@+++@++++++#+O+OOOOOOOoOoooooooo&X.X&%.:  ",
" .X@@+++++++++++#+OOO#OOOooOooOoooo&o.oX&....;: ",
" .+@@@+++@+++#+#+O+O+O#OOOOoOoooooo&*&.&.....%:<",
".X+@++@+++++#+++OO+OOOOOoOOooOooo&oX&.X.X%.%.%::",
".*@@++++++#++O#+O+OOOo.==%=%&Xoo&*.o.X..X..%.%;-",
"%O@+++++++++++OOO#Oo%,;;,;;;;,.&oo&.&....%.%%.,:",
".++++++++#+O+O+#O#.=,;,;,;;,;;;=oX.o.X.%...%.%1-",
".@++++++#+++OO+O#o=;;;,;;;;;;;;;%XX....%.%%.%%%;",
".+@++++++O+O+OOOO%;,;,;;;,;;;;;;;XX&.%..%%.%%%%;",
".++++++#++#OO+OO&%;;,;;;,,,,;;;;;;o%...%%.%%.%1<",
".#@+#o&1%1;.%.&O.;,,;;,%%,,%,;;;;;X.,;:;::;;<;%<",
".+++OOO+OOOOOOOO$,;;,;,%,,,,,,;;;<.%,%..%1%1%1%:",
"%++#O%o%..%%.%OO*;;;;;,,,,,,,,<,;;..=;;;;;;:;;1<",
"%++++&.%%%.1.%oO$;;,;,,,,,,,,,,<;<..;<<<<;:;<1%:",
".##+##OO#ooo&&oO.;;;;;;%,,,,%;;;;;X.1111;;%11%1:",
"=+#+O+OO#%.%.%ooo.;;;;;,,X,,,;;<;<o%;;;:;;%%11%:",
"%#+O+O##OOOOoooooX;;;,<,;<;;<;;<;*..%1%11111%1=:",
"%#OO#OOOOOoOOoOooXX,<;;;,<,;,<;;..%%%%%%%%%1,,.>",
"%XOO#OOOOOOOooooOoX.;;;;;;<;;;<X*.%%%1%%1%1,11;>",
"%*OO#OOoOoOooOoo&oXoX,;;<;;;<,*.%%%%%%%1%,,1,1:>",
" %OoOOOOOOooooooo&oXX*X.X.%.**.%.%%%%1%%,11;=1>:",
" %ooOOOOooOOoooo&X.&.XX.X,X.%.%%%%%%%%11,1,1,;>:",
"  ,ooOoOOooooo&*.o&X.X%%%X%%.%.%%1%1%%%,1,1;=--;",
"  %.ooOooooooo&o&X...%X%X%%.%%%%%%%%%,,11;=1;>: ",
"   %o&oOoOoo&&*.X.X.X,%,%=%%=;%%%1%1%,%,,1,;>:  ",
"    X.&oo*o&oo.*.&..;%;:--;::;%%1%1,,1;11,1->   ",
"     o..ooo&&X&.o%.;:1;;%1;;;;1%11%,11,;1,->    ",
"      .%.&o.oX.X..%;;;;<%::1;;1%%,11;,=1;:-     ",
"       .=%o&.&.....;<;<;;1:1,;%,1,%,11,1:>      ",
"        %,=.X.X...%;;;;;1;:%%;11,11,1,1--       ",
"         =;,...%%.%1<;11;<1<;;1=1,1;=1->        ",
"           <;.%..%%.1%%1%1%11=11;,1=;>>         ",
"            ;:;=.%.%%.%%%%1%11,,1,;->           ",
"             ,:::;1.%1%%1%%,1,1<;>>-            ",
"               <:-:-;;<:<::<::->>:              ",
"                  <:------>->--                 "};
