/* XPM */
static char * image_name[] = {
"48 48 21 1",
" 	c None",
".	c #DFDFECECEBEB",
"X	c #FFFFFFFFFFFF",
"o	c #C8C8BBBBC9C9",
"O	c #ACACAEAEB0B0",
"+	c #BBBB22223333",
"@	c #242417172222",
"#	c #D5D5D7D7D7D7",
"$	c #EEEEEEEEF1F1",
"%	c #D2D29F9F6C6C",
"&	c #000000000000",
"*	c #666666666666",
"=	c #555550506666",
"-	c #888800001111",
";	c #0F0F09091111",
":	c #47472B2B2D2D",
">	c #444433334B4B",
",	c #484849494949",
"<	c #FFFFFFFF0000",
"1	c #BBBBCCCCBBBB",
"2	c #CACA55552929",
"                                                ",
"  .XXXXXXXXXXXXXXXXXXXXXXXXXXXXXXXXXXXXoO+@##O  ",
" .$$$.$$$.$$$.$$$.$$$.$$$.$$$.$.##.#XX%++@&*#O= ",
" X.$.$.$.$.$.$.$.$.$.$.$.$.$.....#.$X%++-;*OO:: ",
" X$.$$$.$$$.$$$.$$$.$$$.$$$.$.#.#.$Xo++-&:****> ",
" X.$.$.$.$.$.$.$.$.$.$.$.$.....#.#X#++-;:*,##@@ ",
" X$$$.&&&&&&&&&&&&&&&&&&&&&&&&&&:$$+++;;@=*OOO@ ",
" X.$.$;*********OO**OOOO**OO**<<OX+++:;::OOOo@@ ",
" X$.$$&$=*=OOOOO==OOO===OO==O=<<<<++-&::>OOOOO; ",
" X.$.$&==OO====OOOOOO<<<:OOOOO<<<<++;@>>,#OO#@@ ",
" X$$$.&****OOOO=OOOO=<<<<O====<<<++;;:>,*.1Ooo; ",
" X.$.$;=OOO<<*OOO*O*OO<<<=OOOO<<<+-&::,=*XOOO=; ",
" X$.$$&&OO==<<<<OoOOOO<<<O*OO#<<<<<<<<<**X1OOO; ",
" X.$.$;OO=OOO<<<<#<<<<<<<<<<<<<<-&@>,,*=OXOO#;; ",
" X$$$.&&OO=OOO<<<$<<<<<<<O=O$o<<;@:,,=**=$oOOO@ ",
" X.$.$;OO=OOOOo$o+++:=O<<OO$#+<-&,,,*>>>XXOOo;; ",
" X$.$$;;OO=OOOo#+++++:=<<O<<<<<&:>,,,OO*>.OOOO@ ",
" X.$.$;OO=OOOO.++++++-><<<<<<<<@>,>OO=*>$$OOO=; ",
" X$$$.;;OO=O=OO=%++++-@=Oo<<<-;:,,===***=.O..>; ",
" X.$.$;O<<<<<OOo#+++++->O$<<+;<<<<<<==OO>.OOO;; ",
" X$.$$;$><<<<<=oo%++++->#<<<<<<<<<<<<****XOOOO; ",
" X.$.$&===<<<<OOo#+<<<<<<+<<&:,,*<<<OO>>XXO===; ",
" X$$$.&$=*O<<=O=Oo2+<<++++<<&,>=<<<*****=.OOOO& ",
" X.$.$&=*=O=O=O=OO$+<<++++<<:,=<<<<=====O$OO==; ",
" X$.$$&&O*=O=O=O=Oo++<<<<<<<<<<<<<<*OOO*=XOOO=; ",
" X.$.$;O=O==O=O=O=##+<<<<<<<,,*=OOO===*>..OOO;; ",
" X$$$.&;O==O==O=O=*o+++++;<<>=**==******=..===> ",
" X.$..;OO=O==O<=*=OOO+++:;<<<<<<<<OOO==$*$*O#;; ",
" X$.$.&*===O=<<=O===*<<<<<<<<<<O**==*==*=XO*O*@ ",
" X...#&=OO==O<<*******=,,:<<***=====OO>>..OO==& ",
" X$.#.&&&O==<<=O=O*****==,<<**<<<<<<<<<O>$$,O,; ",
" X.#.#;Oo=O<<<==*=OO***<<<<<<<<<<<<<<<<<*.*O==& ",
" X#.#.O$$$$<<$$<<<<<<<<<<<<<XXXX$XXXXXXXXXO*O>& ",
" X#.######<<<o#oooOooOOOO<<OOOOOOOOOOO===**O*=& ",
" X#######<<<<1oOoOoOOOOO<<OOOOOO&oo***=, o**O>& ",
" X#.#####<<<<o1oOoO1OOO<<<OOOO<<<<*OOOOOOOOO*,& ",
" XOO==***<<<****>*****<<<====>>=<<<<>,>,=>>>>,& ",
" *&&&;;;;<<<&;;;@;;;;<<<&&&&&&&&&<<<<<&&&&&&&&& ",
"          <X*,=,=@oO<<<==,>>@@@@>:<<<<          ",
"          XO*****=<<=====,>>@@@>=**<<<          ",
"         X#*OOO**<<==*=>>>>>>====OO<<<@         ",
"        XXOO*OOOOOOOOOOOOOOOOOO1OOOOOo@@        ",
"       XXXXXX..$$$.XXX$$$$.$$$XX$X.XXXXX&       ",
"       XOOOOOOOOOOOOOOOOOOOOOOOOOOOOOO=X&       ",
"       XOOOOOOOOOOOOOOOOOOOOOOOOOOOOOOO*&       ",
"       ;&&&&&&&&&&&&&&&&&&&&&&&&&&&&&&&;@       ",
"                                                ",
"                                                "};
