/* XPM */
static char * image_name[] = {
"48 48 20 1",
" 	c None",
".	c #E7E7EBEBE7E7",
"X	c #D1D1D0D0D1D1",
"o	c #BEBEBABABEBE",
"O	c #92928E8E9292",
"+	c #AEAEB2B2AEAE",
"@	c #616161616161",
"#	c #9E9E9A9AA6A6",
"$	c #000000000000",
"%	c #202020203030",
"&	c #2F2F2B2B4E4E",
"*	c #414130305151",
"=	c #414134346E6E",
"-	c #303041416161",
";	c #414141414141",
":	c #4A4A44446464",
">	c #515161616161",
",	c #616151518E8E",
"<	c #3838FBFB3030",
"1	c #616179799696",
"         ............XXXXXXXXXXXXooooooOO       ",
"         .........XXXXXXXXoooooo+++++++@@OO     ",
"         .........XXXXXXXXooooo+++++++#@@@@OO   ",
"         ..XOOOOOOOOOOOOOOOOOOOOOOOO++#@@@@@@@  ",
"         ..X$$$$$$$$$$$$$$$$$$$$$$$$#+#@@@@@@@  ",
"         ..X$$$$$$$$$$$$$$$$$$$$$$$$#+#@@@@@@@  ",
"         ..X$$$$$$$$$$$$$$$$$$$$$$$$#+#@@@@@@@  ",
"         ..X$$%&%&%&&&&&&*&&&&&&$$$$++#@@@@@@@  ",
"         ..X$$&&&&&&&&=-=-=&=&&&$$$$++#@@@@@@@  ",
"         ..X$$%&&&&=;=:=:=:=:=*=$$$$#+#@@@@@@@  ",
"         ..o$$&&&&=:==:=:>::=:=-$$$$#+#@@@@@@@  ",
"         ..o$$&&&=:=:=:=:=::==:=$$$$#+#@@@@@@@  ",
"         .Xo$$&&=-=>=:,,,:=>::=:$$$$#+#@@@@@@@  ",
"         .Xo$$&**::::,,,:,:::::=$$$$#+#@@@@@@@  ",
"         .Xo$$&&=::>=:,:=:=>:=::$$$$#+#@@@@@@@  ",
"         .Xo$$&**=:::=:=:=::=::=$$$$#+#@@@@@@@  ",
"         .Xo$$&&=-==:>=>:>:>::=:$$$$###@@@@@@   ",
"         .Xo$$&*&=:=:::::::::=:=$$$$###@@@@@@   ",
"         .Xo$$&&--=:=:::==::=:=-$$$$##O@@@@@    ",
"         .Xo$$&&&*&===:=:=:===;=$$$$##O@@@@@    ",
"         .Xo$$&&&&-&=&=-=-=-=&=&$$$$##O@@@@     ",
"         .Xo$$$$$$$$$$$$$$$$$$$$$$$$##O@@@@     ",
"         .XX$$$$$$$$$$$$$$$$$$$$$$$$##O@@@@     ",
"         .XX$$$$$$$$$$$$$$$$$$$$$$$$##O@@@@     ",
"         .XXXXXooooooooooooooo+++#####O@@@      ",
"         .XXXXooooooooo+++++++++#<<###O@@@      ",
"         +++++++++++++++++++++++######O@@@      ",
"                ...oo+#OOOOOOOOOOO####O@@       ",
"             .. .oO#@1@@@@@@@@@@@@@@@@@@@@@1111@",
"          .....o#OO11111@@@@@@@@@@$@@@@@@@1111@@",
"        . ....+#OO11111111@@@@@@@@@@@@@11111@@@@",
"         o++++oXXXXoooOOO@@11@@@@@@@@11111@@@@@@",
"         o++++++++++++oXXXXXooo+++OOOOOO@@@@@@@@",
"         o+$$$+++++++++++++++++oXXXXXoo@@@@@@@@@",
"         o+$<<+++++++++++++++++++++++++@@@@@@@@@",
"         o+++++++++++++++++OOOOOOOO++++@@@@@@@@@",
"        .o+++++++++++++++++OOO@@@@#OOO+@@@@@@@@@",
"        oooOo++++++++++++++++XXXXXXOOO+@@@@@@@@@",
"      ##oX#OX#oX#oo++++++++++++++++++++@@@@@@@@@",
"    ##XXoOOoOOoOOoX#oX#oX#+++++++++++++@@@@@@@  ",
"  ##XX.oO#oO#oO#+oOOoOOoOO@oX#oo#o+++++@@@@@    ",
"@#XXX+oOOXOOXOO.oO#oO#oO#o.oOOoOOoO@o#@%@@      ",
"@###XX......OOooOOoOOoO+o.oO#oOOoO@oo@@%        ",
" 111@####XXXX.......o+OoX+O++O#+OOX+@@%         ",
"      11111@####XXXX.....Xoo+#+O#X+@@%          ",
"             11111@####XXXX......+@@%           ",
"                    11111@###XXX#@@%            ",
"                           111111@@             "};
