/* XPM */
static char * image_name[] = {
"48 48 20 1",
" 	c None",
".	c #BEBECBCBBEBE",
"X	c #DFDFEBEBEFEF",
"o	c #F9F9F5F5FAFA",
"O	c #D7D7D6D6D9D9",
"+	c #A4A4A4A4A9A9",
"@	c #4B4B45456464",
"#	c #C7C7BABACFCF",
"$	c #555553538E8E",
"%	c #2D2D27274747",
"&	c #222220203030",
"*	c #868671718E8E",
"=	c #000000000000",
"-	c #080808081010",
";	c #56565B5B5E5E",
":	c #303030306161",
">	c #414130306161",
",	c #303041416161",
"<	c #131311112121",
"1	c #3838FBFB3030",
"   .XoooooooooooooooooooooooooooooooooooooO.    ",
"   OXoXoXoXoXoXoXoXoXoXoXoXXXXXOXXOXOO.O.OO+@   ",
"   ooXXoXXXoXXXoXXXoXXXoXXXXXXOXOOOOOOOOO.#$%   ",
"   oXoXoXoXoXoXoXoXoXoXoXoXXXOoOOOOOO.O..#.$&   ",
"   ooXXXXoXXXoXXXoXXXoXXXXXXOOOOOOO.OOO.#..*&   ",
"   oXoXo===================--=-========o.#.;&   ",
"   ooXXo=&%&%&%%%%%:>%%:%>&%%&%&%&%&%&%o##.$&   ",
"   oXoXo=%%&%%:%%>@>,>:>%:%>&%%&%&%&%&%o+#.;<   ",
"   ooXXX=&%%:%>@>@>@>@>@>>>%:%%:%&%&%&%oO++;&   ",
"   oOoXo=%&:%>@>>@>@;@@>@>,@%>>%%%%%&%%o+#.$<   ",
"   ooXXo=%:%@@>@$@$$$>@>>@>>>%%:%:%&%&%o.+.;&   ",
"   oXoXo=:%>,:@$$$$$@$;@@>@>%>:%%%%&%&%o.+.$<   ",
"   ooXXX=%>>@@@@$$$@$$@@@@>@>>>%%:&&%&%o+.+;&   ",
"   oXoXo=:%>@@$$@$$$@$@@>@@>@@%%:%%%%%%o.+.$<   ",
"   ooXXo=%@%>@@@$@$@$$@>@>>@>%>:%:&&%&%o+.+;&   ",
"   oXoXo=%%>,>>@,$$@@,$@>$,>:@%%:%%%%&%o++.$-   ",
"   ooXXX=:>%>@>@@@>,@@@,>>>>:>>%%:&&%&%o+.+;<   ",
"   oXoXo=%::,>@>@@@>>@@>@>,>%@%%>&%%%&%o++.$-   ",
"   ooXXo=%%:>:>>>@>@>@>>>,>%>%%:%:&&%&%o+++;-   ",
"   oXoOo=%%%%::>:>,>,>,>%>%@%:%:%&%%%&%o+++@-   ",
"   ooXoX=&%:&:%:%:%:>>>%>%@%%:&>&&%&%&%o+++;-   ",
"   oXXXo=&%&%&%%%:%:%>%:%:&%>&%&%%%%&%&o+++@-   ",
"   ooXoX=&%&%&%%%%%%%:%:&,&%%&%&%&&&%&%o+*+@-   ",
"   oXXXX=%%%&%%&%&%%%%%&%&%%%&%%&%%%%%&o+**;-   ",
"   ooXXO=&&&%&%&%&%&&&%&%&%&&&%&%&&&%&%o+*+,-   ",
"   oXXoO=%%%%%%&%%&%%%%&%%&%%%%&%%%%&%&o*+*;-   ",
"   oOXOO-&%&&&%&%&%&%&%&%&%&%&%&%&%&%&%o+**%-   ",
"   oXOoOoooooooooooooooooooooooooooooooo*+*;=   ",
"   oOOOOOOOOOOO.#O..#.+..+..+++++++++%;%+**%-   ",
"   ooOXOOOOOOO.#.#+#+#.++.+++++++++*+@11***;=   ",
"   oOOOOOO.O..#.#.#.+.+.+.+++++++*+*+*+;***&-   ",
"   oo+$$$*$;$$$$;$;$;$;$;$;@;;@;%@%;,@%;;;&;=   ",
"   $-==--==-=----=--=======-==============-==   ",
"            .O.OOOOO.++*;@&&<<-&*$++            ",
"      XOXOXOo.;;;;@++++$;;&&<-&&;;@%<%@%>;      ",
"     XO*;;++.+*+*+*;;;%@;&@&;%;+*;;+;-;;*%%     ",
"    OO**;*ooooooooooooooooooooooooooo;<;;*<;    ",
"   Xo+*++.+++++++++.++.+++.++.++++.++.<;;++<%   ",
"  Oo++++++;;&&%&%&&&&&&&%&&&&&&&%&&&&&%;++++-;  ",
" Xo++++++++++++++++++++++++++++++++++++++++++<% ",
" ooooooooooooooooooooooooooo#ooooooooooooooooo< ",
" ooOXXXOXXOXXOXOXXOXOOOO.O.O$o.#..+.+.++++++++- ",
" oO@$;O+++++++++*++*++$+*$*$+o+&=-<<<--<---<+$- ",
" oo$11oooooooooooooooooooooo+o+Ooooo=&&Oooo.*+- ",
" oXOXOOOXOOOOOOOXOOOOOO.#.#.;o.+.+.++++*+++++*- ",
" oXOoOXOXOXOoOXOOOOO.O.#.#+O$o+.+.+++++++;+*;+= ",
" oOOOOOOXOOOOOOOOO.O..#.#.+.*o.+.++++*+*++*+*;= ",
" *==----===-=-==============&>===============-& "};
