/* XPM */
static char * image_name[] = {
"48 48 20 1",
" 	c None",
".	c #4F4F43432525",
"X	c #1E1E17170C0C",
"o	c #32322B2B1717",
"O	c #A4A47A7A5151",
"+	c #676750502D2D",
"@	c #D7D7A8A86565",
"#	c #383830302020",
"$	c #494938382020",
"%	c #B3B38F8F5858",
"&	c #EAEACCCC7575",
"*	c #92925F5F3636",
"=	c #000079797979",
"-	c #96966F6F4242",
";	c #79792C2C1818",
":	c #B2B29F9F8A8A",
">	c #D0D0B5B59B9B",
",	c #ECECE4E4E0E0",
"<	c #717169694141",
"1	c #E7E7D5D5A4A4",
"                                                ",
"                                                ",
"                   .XX                          ",
"                  .XoXXOO+                      ",
"               .@.X#ooo$%@+                     ",
"               %&*#oooooo+$$++                  ",
"               ..##oooooooX*@%+                 ",
"            .%.o###ooooooooo+*=++               ",
"            %&%#####oooooooooXX-%+              ",
"            $*;#####o.##ooooooo+%OO**           ",
"         .Ooo;#####o$:%.##oooooooX*+*+          ",
"         %&@;#####o;%%>%O;#oooooooX%@*          ",
"         .@+;#####o*,%>:>O.##ooooooo+XX++       ",
"      .+oo.;#####o>>>::::>>+;ooooooooXX%%.      ",
"      <&&;;#####X-%,%%*%%%%>>.#oooooooo.%o      ",
"      -&-;;####X-,@1%--**>O,%%:;ooooooooooX**   ",
"      o.;;;###oO%:,%-;*--*O:%,>*+#ooooooooo%@*  ",
"   .1-X;;;;;#o+>,>%O*;**--**::%,<<;ooooooooo+X  ",
"   @1%;;;;;;o.1@@1%OO-;;;--***>%%>++#ooooooooXX ",
"   oO;;;;;;#$@1,1%%%OO-*-;*--**O>:%%%.ooooooooX ",
".Ooo;;;;;;#o>11:%%%%%OOO-*;;*-**-*>>:.oooooooXX ",
"@1@;;;;;;;o%@>>@%%%%%%OOO--*----+>>>+oooooooXX  ",
"-1+;;;;;;X%,%%%%%%%%%%%OOO----*+@%%-oooooooXXo  ",
"...;;;;;;*,111:+%%%%%%%%%OOO-*+1%%%ooooooooX@@o ",
"+..;;;;;;;O11@1>+-%%%%%%O%OO-+>>%O;oooooooXX+@%X",
"#...;;;;;;;.:,1@1:+%%%%*;*%O+:%1,.oooooooXX=X+oX",
"Xo...;;;;;;;;->,1&>+-%%*;*%+O,%%+oooooooXo.X=XX$",
"=o+;..;;;;;;;;+%@,>>%+%%%%+O,%1:oooooooXo%&%X=$ ",
"=+1%;;;;;;;;;;;;:>&,&&+O%+%:1,OoooooooXX=$&&OX  ",
".11%Xo;;;;;;;;;##+>1>,>%+O:,%,OooooooXo.X=$%XX  ",
"+1@@XX%#;;;;;;;###.O111>:1>11.ooooooXX%&%X=oo   ",
"X*.XX&1@o;;;;;;#####O:1>,>1>OooooooXXX$&&OX     ",
"    %11+oX#;;;;;#####;:>1@,O#ooooooXX==$%XX     ",
"    .1<<oo%;;;;;#######<1>@;ooooooXo&.==oo      ",
"    X*. X11&o#;;;#######.%;ooooooXX@&&%$        ",
"        %11ooXo;;#########ooooooXXX$@&@$        ",
"        .&....&.#;########oooooXXX==$-$         ",
"        X*. o11@Xo#;######oooooX$&.==$$         ",
"            @11XoXo######oooooXX@&&%$           ",
"            $@....1+#####ooooXXX$@&@$           ",
"            X*..o11&Xoo##oooXXX==$-$            ",
"                %11XoXoo###oX$&.==$$            ",
"                o%..oo1<oo#XX@&&%$              ",
"                X*..o111#oXXX$@&@$              ",
"                    <11.XXXX  $-$               ",
"                    X%-        $$               ",
"                    X*.                         ",
"                                                "};
