/* XPM */
static char * image_name[] = {
"48 48 20 1",
" 	c None",
".	c #B2B29999AAAA",
"X	c #55555252A5A5",
"o	c #616162626262",
"O	c #2E2E4A4A5252",
"+	c #B6B6C4C4A6A6",
"@	c #747482827676",
"#	c #31314141A6A6",
"$	c #69696666FBFB",
"%	c #89897C7C9D9D",
"&	c #71719292BBBB",
"*	c #FFFFFBFBFFFF",
"=	c #ECECCACAECEC",
"-	c #B6B69292FFFF",
";	c #020202020101",
":	c #B6B6C3C3FFFF",
">	c #707043435151",
",	c #24241F1F1919",
"<	c #20201C1C4343",
"1	c #9F9F14142828",
"      ..XoXOXXXOXX.+.              .o@OooOo@    ",
"    .XO######X#$X$#%%..          .O%&*+**=oOO   ",
"  .XX#####$#$#$X$&$&$X-.        %o@=**=+.&-.OO  ",
" .O#O########&X$#&#$X$X.@      +O%+*+.&.&.%o;;  ",
".XX#####$#$#$#$X$X&&:&-&..     @o**+:..%:O;;o   ",
".#O########$X$&$&$&$X-&$&.    .O.*=:@.&O;;O     ",
".#####$#$#$X$#$&$&$&:%-&-X    .o***..&>;O       ",
"#########&X$#&#$X$@-&$@-&%    o.*.*.%.;O        ",
"$###$#$#$#$&$&&&:&-&-&:&:#    o+*.*+:.;O        ",
"#######$&$#$&$X$X-&$@-&-X#    O=+..*&.,,.       ",
"$X$#$#$#$#&&$&&&:&-&:&-@#<    >*.O;*=%X;@       ",
"#&#$#&X$#&#$#$&-&$@-&-##<<   .O*O;OO*.o<,.  .   ",
"$%-&-X$&$&$&:&-&-&:&.##<#<   o.*o;***+.O;@:   .,",
"X$&&&:&$X&&$X-%$@&<#<<<#<#   o+=&O*OO*&&,,  +.O;",
"$&-&-@:&$&$#$####<#<#<#<#<  oo*..%;***=.o;=..&<;",
"#%X-&-&:#&######<<<<<<<#<<  O++.&.O*OO*.O,,.%O;O",
"$%-&:--&-@$#$####<#<#<#<#< %>*.%:..&:.*+:.;O<;> ",
"X$&$@:&$%$#$##<#<#<#<<##<#@O*.&.%.<OOOOO,,;;;O  ",
"$&-&:&-&&X$#$####<#<#<#<##>*.O=..O;;;;;;;,<O    ",
"XX@-&-@:#&&#####OoXOo#o#,O*.<.+.O;;O,>O;OO;     ",
"$%-&:--&-%$#$###o.=+*+=@o*.O::.O;;.&o&..;;,o    ",
"X$X&&:&$&$#$##<#o=+=+=oO*.<.+.O;;.@+O@@.&.;%    ",
"$&-&-&-&&&$#$###O+=+=>>*.O-:.O;;.@..>.+.:.,o    ",
"XX%-@-&-#&######o=+=oo*.O.+.O;;.@.@.O.+:++,@    ",
"$%-&:--&-%$#$###o+=@o*.O::.O;;1,1111111111,@    ",
".$&&&:&&%$#$##<#o=oO*.<.+.O;;.O+.:+=%*:***;@    ",
"+X-&-&-&$&$#$###Oo>*.O-:.O;;.+%++==:+*****,@    ",
" .#-&-&:XX&#####,o*.O.+.O;;OoO,>OoOoOoooo>,@    ",
"  .&:--@:X$#$##<o*.O::.O;;.+=+.==***.*****,@    ",
"  +.@-&$&$#$##OO*.<.+.<;;+.+.:.+=*=*+*****;@    ",
"    +@.&$%$#$<>*.O-:.O;;1O>>>Ooo&ooooooooo,@    ",
"      +.+X@X<O*.O.+.O;;.;..++=@*:***.*****,@    ",
"           @o*.O::.O;;.%1+===*.*****+*****,@    ",
"          @O*.<.+.O;;>OO1>OoOoooooooooooo>,@    ",
"         @>*.O-:.O;;.@.@1+=***-*****.*****,@    ",
"        @O*.O.+.O;;.@...,=+*:*.*****+*****;@    ",
"       @o*.O::.O;;>Oo>>O1o%ooooooooooooooo,@    ",
"      @O*.O.+.O;;.@.@..+1*=***+*****.*****;%    ",
"     @>*.O-:.O;;>@.@.+=+1*****.*****+*****,@    ",
"    oo*.%O+.<;; OOO>>oOo1oooooooooooooooo>,@    ",
"   .o*.&:..O;;  o..+=+=+1*****.*****.*****,@    ",
"  oO*O;O%.O;;   ,..++++=1*****+*****.*****,@    ",
"  .O.;;;.O;;    >>oo%ooo1ooooooooooooooooo,@    ",
"  o;O**OO;;     O++++:+=1*****.*****.*****,@    ",
"  .;;O>O;;      o+=+*+=+1*****+*****+*****,@    ",
"   O;;;;;       o,;,,,,,<,,,,,,,,,,,,,,,,,;@    ",
"    OO>O         @@o.o%o.o@@@@@@@@@@@@@@@@%@    ",
"                                                "};
