/* XPM */
static char * image_name[] = {
"48 48 20 1",
" 	c None",
".	c #4A4A61613838",
"X	c #696992926969",
"o	c #2A2A72722F2F",
"O	c #2C2C82823030",
"+	c #646464645E5E",
"@	c #1E1E4C4C1E1E",
"#	c #A2A299999E9E",
"$	c #070705050202",
"%	c #AAAA67675E5E",
"&	c #515110100303",
"*	c #1B1B29290F0F",
"=	c #DFDFCBCBCFCF",
"-	c #747421211313",
";	c #939324241313",
":	c #2E2E08080000",
">	c #9E9E30302020",
",	c #9E9E41413030",
"<	c #71711D1D1010",
"1	c #9D9D1D1D0808",
"                                            ....",
"                                           XoOO.",
"                                          +oOOOo",
"                                         +@OOOOo",
"                                       #+oOOOOOo",
"                                 +$   X@oOOOOOOo",
"                                 ++  X@OOOOOOOOo",
"                         $$$$$++ ++ X@OOOOOOOOOo",
"                    ++++.$$$$@@.$$@+.oOOOOOOOOOo",
"               #%+&&*$+=#+$$$$$**$$$.oOOOOOOOOOo",
"            %+&&--;-:$$==+$$$*..@$$$$@oOOOOXOOOo",
"           .->>>>;;-$$$$+$$$$$$*@$$$$@.@@oOOOXOo",
"         +&>>>>>>>;:$$$$+$+$$$$$$$$$$$@$@oOOOOOo",
"        .>>,>>>>>>&:$$$$%=+.$$$$$$$$$@@@ooOOOOOo",
"       .-,,,,,,;&<--<&&&+%+$$$$$#==+$@@@@ooOOOOo",
"      .$:%%%%>&;>>>>>>;;;<:$$$$$$#==$@@@@ooOOOOo",
"     .$$$%%%-&%,>>>111111;;:$$$$$===*@@@@@@oooo@",
"    +&$:.%%*%%%%,>>>111111;;:$$$$$+$@@@@@@@@@*$*",
"   %--$.%*%==%%%,>>>>111111;;:$$$$$$*@@*$$$$$$$*",
"   .>>,%&#===%%%,>>>>1111111;;:$$$*$$$$$$*o.@***",
"  +.>>,-%%==#+%%%>>>>11111;;;;-$$@@@@**@@oo@@**+",
"  :->>;-%%*$$$$&-,>>;;;1;;&&<--$*@@@@@@@oo@@**+ ",
" +&;>>&,%%$$$$$$&>>>>1>;;;::&;-$*@@@@@@oo@@**+  ",
" :-;>&>>,%$$$$$$<>>>;;;;;1<&<-&$$**@@@oo@***+   ",
"+:-;&->>>,&$$$$$&>>;;;;;;;1;;-$$$$$@@o@@@**+    ",
"*&-;<-;>>>>-:$$$-;;;---;111;-:$$@$$*@@@***+     ",
"&--&&-;;;>>>-------<::&-111-*$$@@*$*@****+      ",
"&--&-;;;;;;;>;;--&:$$$$&;1;&$$@@@*$$*$**+       ",
"&<<&<---;;;;-;;;&$$$$$$&--&:$@@@@*$$***+        ",
":<&<-<11----;;;-&$$$$$:&--:$@@@@@*$$**+         ",
".*:&<<<<<<-1--;-&$$$$:&<-:$*@@@@@$$$$+          ",
"+:&&<<<<<<<1-11-&&:::&<*:$*@@@@@$$$$+           ",
"+$&&&&<&&&-<<----<&&&<*$$*@@@@*$*$$$@           ",
" $&&&&&&&&::$$&<<11--*$$@@@@@*$*$@+@$           ",
" .:&&&&:$$$$$$$-<11-<$$@@@@@*$$$@ #+*           ",
" +:&&&&$$$$$$$$<<11-:$@@@@@*$$$+ # ++           ",
"  :&&&&$$$$$$$$&<<<&$*@@@*$$$$                  ",
"  +:&&&$$$$$$$&<<<&$$*@@*$$$@                   ",
"   +&&&:$$$$:&&&<&$$$*@$$$$@                    ",
"   #*&&&&&&&&&&&*:*$$@$*$$+                     ",
"     :&&&&&&&&***@*$$$$$$+                      ",
"     .$********@@@$$$$$@                        ",
"   X@..@@*@***@@@@$$$$@                         ",
"  X...ooo..@@@@@@*$*$+                          ",
"  ....OXOOOooo@**$$$+                           ",
" .....OOOOOO@o***$$+                            ",
".......OOOO.@****@                              ",
"+++........@****+                               "};
