/* XPM */
static char * image_name[] = {
"48 48 20 1",
" 	c None",
".	c #737342421F1F",
"X	c #39392B2B2222",
"o	c #A2A258582020",
"O	c #5D5D67675656",
"+	c #3A3A59596262",
"@	c #323243434343",
"#	c #5A5A54543333",
"$	c #C3C3C2C2B3B3",
"%	c #E5E5F0F0F7F7",
"&	c #A5A5D0D0EFEF",
"*	c #9090B5B5D2D2",
"=	c #9696A1A19E9E",
"-	c #50506F6F8585",
";	c #6C6CABABD8D8",
":	c #75758A8A5E5E",
">	c #565669693E3E",
",	c #59593A3A2222",
"<	c #C4C470702828",
"1	c #626239392020",
"                       .X                       ",
"                       .X                       ",
"                      .ooX                      ",
"                    OO+O@@#O                    ",
"                   $$$%&%&*=-=                  ",
"                 $%%%&;&=*$*$==O                ",
"               $%%%%%&;&$%$***==:               ",
"              $%%%%&;&;**&$*=====-              ",
"             $%%$%&&;&;&&$**=*==O=O             ",
"            $%%%%%;&;;&**========OO>            ",
"           =%%%%%&&;;&;*=::O===-OO#O#           ",
"           $%%%%%&;&&&&==:O>OOOO#O>>>O          ",
"          =%%%$=%%;;&&$::::>>O>O##>>#>          ",
"         ;&%%%&%%&&&%$:>:::>>>>>#@>>>>#         ",
"         ;&&&&&%&&$&*:::=:>>O>>@>@>@>@@         ",
"        ;;&&&&%%&$$%=>:O:=:>>>@#>>#>>>>#        ",
"        ;&&&&&%&&=$$$=::=:O>>@>@#>@>>>>#        ",
"       +;&&&&;&*=:=&$:::=:@>>@>>>>>>>>>>@       ",
"     o.O&;&;;;&*$::=:O>>>>>>X>>>>>>>#>>>,,,     ",
"   oo<<+;;;&;;;*==:Oo>>>>>>>>>>@#>>>>>O>X#,11   ",
"  ,o<oo@;;;&;;;;;::::>>>o>O>>>>#>>O>>>O:X....,  ",
"  1<oo.+;;;;;;;--::>OOOO>>>>O+>+>>OO>>OOX...1.  ",
"  .o<oo.;;;;;;--:>:O=+OO-O+O++OOO#OO##.,#o.o1,  ",
"  .oooooo#-;-;--->-O---O++@+#O+O##OO#OX.o....X  ",
"   1ooooo<oo:+-+O++O+++++++>O+####ooo.o....1,X  ",
"    11oo<oooooo<<<<<o<<<<<<ooo<oooooo.....1XX   ",
"      ,1.ooooooooooooooo.ooooooo.....o#..,XX    ",
"        #11.......#.1.11.1111111.o..#1.1XX      ",
"         +O.#..#1...............,,.+@-@X        ",
"          ---O#O@,@,@X@,@XX@,@##@++-+@          ",
"           +-++>>>>>>>>>>>O>>##OO+-+@           ",
"            -+-++++O>>>>:O>>>#+++-+-            ",
"             ++-+++++OO#>OOO#++++++             ",
"              +-+-+--OO>#OO##+++++              ",
"               +++-+--OO:##O++++@               ",
"                 +++++O#OO+++@@@                ",
"                  ,1ooo.1...XXX                 ",
"                ooooo<..1..1X@XX,               ",
"               o<<<.oo..111.XXXXX,              ",
"              o<<ooo1oo.1111XXXXXX,             ",
"             .o<<o<ooX...11XXXXXXXX,            ",
"             .<<o<ooo.X,,X,,XXXXXXX,            ",
"             .oo<oo<o..1X1X,XXXXXX,,            ",
"             1.ooo<oo<..111XXXXXXX,,            ",
"              1.ooo<ooo..111X1X1X11             ",
"               11ooo<o<oo1111X1111              ",
"                 ,1..o..o1.11111                ",
"                   11111111111                  "};
