/* XPM */
static char * image_name[] = {
"48 48 20 1",
" 	c None",
".	c #989897979D9D",
"X	c #E4E4E7E7E4E4",
"o	c #5D5D5A5A5E5E",
"O	c #444438384242",
"+	c #2C2C29292929",
"@	c #010101010101",
"#	c #636361613232",
"$	c #000014149F9F",
"%	c #36365151A4A4",
"&	c #00006464CACA",
"*	c #ADAD9898CFCF",
"=	c #00009D9DE4E4",
"-	c #2727CDCDF1F1",
";	c #909078784141",
":	c #9F9F6F6FBDBD",
">	c #78788C8C5252",
",	c #C8C8BABA5656",
"<	c #C7C7C0C05959",
"1	c #CCCCA4A4F0F0",
"                                           .X o ",
"                                  XXX o.XX X O+ ",
"                                XX.+++@ooXX o+o ",
"                              XX.+@O .oo@@XO+o  ",
"                              Xo@@   X o+@@o.   ",
"                              .+@    .++++@@o   ",
"                             X.@ XX.++Oo.@@@+   ",
"                             X.oX.O+Oo.  o@o@O  ",
"                      @        .OOO    X.@o @O  ",
"                       O@    .O+#     XXO+  Oo  ",
"                       @@   o+o       Xo@   @   ",
"                        X o+O         XOO Xo@   ",
"                       X.O++          o@   ++   ",
"      o@@@@@@@o     XXoO++ @          +O  O@    ",
"    o@@$$$$$$$$@   X.OO+    @@@@     O+ oo@     ",
"   o@$$$$$$$$$$$oX.o++    @@@@@@@@   ++++@      ",
"  o@$$$$$$$$$$%  oO+     @@@@@@@@@@ O+@@+       ",
" o@$$$$$$$$$% XO+O@     @@@@@@@@@@@@@o          ",
" @$&$$&$$$$*Xo+%$$$@    @@@@@@@@@@@@+           ",
"o@&$&&$&&*Xo+%&$&&&@   @@@@@@@@@@@@@@           ",
"@&$&&$&& o+&&$&&$&$&@  @@@@@@@@@@@@@@           ",
"@&&&&&&*+&&&&&&&&&&&@  @@@@@@@@@@@@@@           ",
"@&&&&&&&&&&&&&&&&&&&@  @@@@@@@@@@@@@@           ",
"@&=&=&=&=&=&=&=&=&=&@   @@@@@@@@@@@@@           ",
"@==&===&===&=@@@@@@@@@@@@@@@@@@@@@@@@           ",
"@========@@==@####O##++++@@@@@@@@@@+@           ",
"@========@O@=@##O#++++O+#+@@@@@@@@##@           ",
"o@--=-=-@%OO@@#++++#####+###@@@@#O#O+           ",
" @=-----@oOoo@##############.X+###++@           ",
" o@----@oo%o%o@##;#########;Xo+####+@           ",
"  o@---@%:o:oo:@##;#;#;#;#;> +;#;#++@           ",
"   o@-@:o:o:%:o:@>;#;;#;;>;X#O;#+O+O@           ",
"     @@::o:%:::%:@;>;#;>;#, +;##O#+#@           ",
"     @::::::::::::@;;;>;;;Xo+;##OO#;@           ",
"    o@:::::::::::::@,;,;;< +;>#O#;;;@           ",
"    @:*:::::::::*:**@;>;>XO#;+##;;>,@           ",
"   O@1*11:11:11:1*1:1@,,;<++###;,;,;@           ",
"   @111:11111:11111111@, O+O#;;>,,>,@           ",
"  O@111111:11111:111111@,,+>,,,,;,,;@           ",
"  @111111111111111111111@><<;,>,,>,<@           ",
" O@1111111111111111111111@,,<,,,,,,,@           ",
" @@@@@@@@@@@@@@@@@@@@@@@@@<,<,<,,,<<@           ",
"             @,,,<<,,<<<<<<<,<<,,<<<@           ",
"             +<<<<<<<<<<<<<<<<<<<<<<@           ",
"             @<<<<<<<<<<<<<<<<<<<<<<@           ",
"             +<<<<X<<X<<X<<<<<<<<<<<@           ",
"             @<X<<<<<<<<<<<X<<<X<<<<+           ",
"             @@+@++@++@++@+@+@+@++@+@           "};
