/* XPM */
static char * image_name[] = {
"48 48 5 1",
" 	c #636360605E5E",
".	c #B2B2C0C0DCDC",
"X	c #9F9F98989191",
"o	c #EAEAE7E7E3E3",
"O	c None",
"                                               .",
"                                              Xo",
"  OOOOOOOOOOOOOOOOOOOOOOOOOOOOOOOOOOOOOOOOOOOOoo",
"  OOOOOOOOOOOOOOOOOOOOOOOOOOOOOOOOOOOOOOOOOOOOoo",
"  OOOOOOOOOOOOOOOOOOOOOOOOOOOOOOOOOOOOOOOOOOOOoo",
"  OOOOOOOOOOOOOOOOOOOOOOOOOOOOOOOOOOOOOOOOOOOOoo",
"  OOOOOOOOOOOOOOOOOOOOOOOOOOOOOOOOOOOOOOOOOOOOoo",
"  OOOOOOOOOOOOOOOOOOOOOOOOOOOOOOOOOOOOOOOOOOOOoo",
"  OOOOOOOOOOOOOOOOO   XXXX   OOOOOOOOOOOOOOOOOoo",
"  OOOOOOOOOOOOO X.oooooooooooooXXOOOOOOOOOOOOOoo",
"  OOOOOOOOOOO .ooooooooooooooooooo OOOOOOOOOOOoo",
"  OOOOOOOOOOXooooooooooooooooooooooXOOOOOOOOOOoo",
"  OOOOOOOOOXooooooooooooooooooooooooXOOOOOOOOOoo",
"  OOOOOOOO oooooooooooooooooooooooooo OOOOOOOOoo",
"  OOOOOOOOXooooooooooooooooooooooooooXOOOOOOOOoo",
"  OOOOOOOO.oooooooooooo..ooooooooooooo OOOOOOOoo",
"  OOOOOOO .ooooooooo. OOOO Xoooooooooo OOOOOOOoo",
"  OOOOOOO ..ooooooo.OOOOOOOO oooooooooXOOOOOOOoo",
"  OOOOOOOX...oooooo OOOOOOOOO.ooooooooXOOOOOOOoo",
"  OOOOOOOX...oooooo OOOOOOOOO.oooooooo.OOOOOOOoo",
"  OOOOOOOXX....oooo.XXXXXXXXXooooooooo.OOOOOOOoo",
"  OOOOOOOX.X....oooooooooooooooooooo...OOOOOOOoo",
"  OOOOOOOXXX......oooooooooooooooo.o...OOOOOOOoo",
"  OOOOOOOXXXXX......o.ooooooooo.o......OOOOOOOoo",
"  OOOOOOOXXXXXX.........o.o..........XXOOOOOOOoo",
"  OOOOOOO XXXXXX.X................XXXXXOOOOOOOoo",
"  OOOOOOO XXXXXXX.X OOOOOOOOOOOOOOOOOOOOOOOOOOoo",
"  OOOOOOO XXXXXXXXX OOOOOOOOOOOOOOOOOOOOOOOOOOoo",
"  OOOOOOO XXXXXXXXX OOOOOOOOOOOOOOOOOOOOOOOOOOoo",
"  OOOOOOO XXXXXXXXX OOOOOOOOOXXXXXX X  OOOOOOOoo",
"  OOOOOOO XXXXXXXXXXOOOOOOOO XXXXXXXXX OOOOOOOoo",
"  OOOOOOO   XXXXXXXX OOOOOO  XXXXXXXXX OOOOOOOoo",
"  OOOOOOOO   XXXXXXXX       XXXXXXXXX  OOOOOOOoo",
"  OOOOOOOO      XXXXXXXXXXXXXXXXX      OOOOOOOoo",
"  OOOOOOOO          X X X XX X   X    OOOOOOOOoo",
"  OOOOOOOOO       X   X  X            OOOOOOOOoo",
"  OOOOOOOOOO                          OOOOOOOOoo",
"  OOOOOOOOOOO                        OOOOOOOOOoo",
"  OOOOOOOOOOOO                     OOOOOOOOOOOoo",
"  OOOOOOOOOOOOOO                 OOOOOOOOOOOOOoo",
"  OOOOOOOOOOOOOOOOOOOOOOOOOOOOOOOOOOOOOOOOOOOOoo",
"  OOOOOOOOOOOOOOOOOOOOOOOOOOOOOOOOOOOOOOOOOOOOoo",
"  OOOOOOOOOOOOOOOOOOOOOOOOOOOOOOOOOOOOOOOOOOOOoo",
"  OOOOOOOOOOOOOOOOOOOOOOOOOOOOOOOOOOOOOOOOOOOOoo",
"  OOOOOOOOOOOOOOOOOOOOOOOOOOOOOOOOOOOOOOOOOOOOoo",
"  OOOOOOOOOOOOOOOOOOOOOOOOOOOOOOOOOOOOOOOOOOOOoo",
" Xoooooooooooooooooooooooooooooooooooooooooooooo",
".ooooooooooooooooooooooooooooooooooooooooooooooo"};
