/* XPM */
static char * image_name[] = {
"48 48 8 1",
" 	c #565654545252",
".	c #B2B2C0C0DCDC",
"X	c #A8A89F9F9595",
"o	c #DEDEDDDDDBDB",
"O	c None",
"+	c #44443F3F3D3D",
"@	c #83837C7C7777",
"#	c #C3C3BABAB1B1",
"                                               .",
"                                              Xo",
"  OOOOOOOOOOOOOOOOOOOOOOOOOOOOOOOOOOOOOOOOOOOOoo",
"  OOOOOOOOOOOOOOOOOOOOOOOOOOOOOOOOOOOOOOOOOOOOoo",
"  OOOOOOOOOOOOOOOOOOOOOOOOOOOOOOOOOOOOOOOOOOOOoo",
"  OOOOOOOOOOOOOOOOOOOOOOOOOOOOOOOOOOOOOOOOOOOOoo",
"  OOOOOOOOOOOOOOOOOOOOOOOOOOOOOOOOOOOOOOOOOOOOoo",
"  OOOOOOOOOOOOOOOOOOOOOOOOOOOOOOOOOOOOOOOOOOOOoo",
"  OOOOOOOOOOOOOOOOOOOO++    +++OOOOOOOOOOOOOOOoo",
"  OOOOOOOOOOOOOOOOOOO+++ @      +OOOOOOOOOOOOOoo",
"  OOOOOOOOOOOOOOOOOO+++++##X@@@  +OOOOOOOOOOOOoo",
"  OOOOOOOOOOOOOOOOO++++++#o###X@@ OOOOOOOOOOOOoo",
"  OOOOOOOOOOOOOOOOO++++++#ooo###X@OOOOOOOOOOOOoo",
"  OOOOOOOOOOOOOOOO+++++++#oooo###X+OOOOOOOOOOOoo",
"  OOOOOOOOOOOOOOOO+++++++Xoooo###X OOOOOOOOOOOoo",
"  OOOOOOOOOOOOOOOO+++++++Xooo#o##X OOOOOOOOOOOoo",
"  OOOOOOOOOOOOOOOO+++++++@oo####XX OOOOOOOOOOOoo",
"  OOOOOOOOOOOOOOOO+++++++ ####XXXX OOOOOOOOOOOoo",
"  OOOOOOOOOOOOOOOO+++++++ ###XXXX@ OOOOOOOOOOOoo",
"  OOOOOOOOOOOOOOOO+ X@+++ #XXXX@@@ OOOOOOOOOOOoo",
"  OOOOOOOOOOOOOOOO+##@+++ XXX@@@@@ OOOOOOOOOOOoo",
"  OOOOOOOOOOOOOOOO++++++++@X@@@@@  OOOOOOOOOOOoo",
"  OOOOOOOOOOOOOOOO++++++++@@@@ @   OOOOOOOOOOOoo",
"  OOOOOOOOOOOOOOOO++++++++@ @      OOOOOOOOOOOoo",
"  OOOOOOOOOOOOOOOO++++++++ @       OOOOOOOOOOOoo",
"  OOOOOOOOOOOOOOOO++++++++         OOOOOOOOOOOoo",
"  OOOOOOOOOOOOOOOO+Xo###X@++OOOOOOOOOOOOOOOOOOoo",
"  OOOOOOOOOOOOOOOO+#oo###XOOOOOOOOOOOOOOOOOOOOoo",
"  OOOOOOOOOOOOOOOO+#oooo##OOOOOOOOOOOOOOOOOOOOoo",
"  OOOOOOOOOOOOOOOO+#oo#XXX++ ++++OOOOOOOOOOOOOoo",
"  OOOOOOOOOOOOOOOO+Xoo+++         +OOOOOOOOOOOoo",
"  OOOOOOOOOOOOOOOO+ XX++++      + +OOOOOOOOOOOoo",
"  OOOOOOOOOOOOOOOO++++++++       ++OOOOOOOOOOOoo",
"  OOOOOOOOOOOOOOOO++++++++   + +  +OOOOOOOOOOOoo",
"  OOOOOOOOOOOOOOOO++++++++      + +OOOOOOOOOOOoo",
"  OOOOOOOOOOOOOOOOO+++++++ + + ++ +OOOOOOOOOOOoo",
"  OOOOOOOOOOOOOOOOO+++++++++++++++OOOOOOOOOOOOoo",
"  OOOOOOOOOOOOOOOOO+++++++++++++++OOOOOOOOOOOOoo",
"  OOOOOOOOOOOOOOOOOO++++++++++++++OOOOOOOOOOOOoo",
"  OOOOOOOOOOOOOOOOOOO++++++++++++OOOOOOOOOOOOOoo",
"  OOOOOOOOOOOOOOOOOOOO++++++OOOOOOOOOOOOOOOOOOoo",
"  OOOOOOOOOOOOOOOOOOOOOOOOOOOOOOOOOOOOOOOOOOOOoo",
"  OOOOOOOOOOOOOOOOOOOOOOOOOOOOOOOOOOOOOOOOOOOOoo",
"  OOOOOOOOOOOOOOOOOOOOOOOOOOOOOOOOOOOOOOOOOOOOoo",
"  OOOOOOOOOOOOOOOOOOOOOOOOOOOOOOOOOOOOOOOOOOOOoo",
"  OOOOOOOOOOOOOOOOOOOOOOOOOOOOOOOOOOOOOOOOOOOOoo",
" Xoooooooooooooooooooooooooooooooooooooooooooooo",
".ooooooooooooooooooooooooooooooooooooooooooooooo"};
