/* XPM */
static char * image_name[] = {
"48 48 6 1",
" 	c #5D5D58585454",
".	c #B2B2C0C0DCDC",
"X	c #C4C4B9B9AEAE",
"o	c #DBDBDBDBDBDB",
"O	c None",
"+	c #98988D8D8686",
"                                               .",
"                                              Xo",
"  OOOOOOOOOOOOOOOOOOOOOOOOOOOOOOOOOOOOOOOOOOOOoo",
"  OOOOOOOOOOOOOOOOOOOOOOOOOOOOOOOOOOOOOOOOOOOOoo",
"  OOOOOOOOOOOOOOOOOOOOOOOOOOOOOOOOOOOOOOOOOOOOoo",
"  OOOOOOOOOOOOOOOOOOOOOOOOOOOOOOOOOOOOOOOOOOOOoo",
"  OOOOOOOOOOOOOOOOOOOOOOOOOOOOOOOOOOOOOOOOOOOOoo",
"  OOOOOOOOOOOOOOOOOOOOOOOOOOOOOOOOOOOOOOOOOOOOoo",
"  OOOOOOOOOOOOOOO  ++     OOOOOOOOOOOOOOOOOOOOoo",
"  OOOOOOOOOOOOO XXXX++++     OOOOOOOOOOOOOOOOOoo",
"  OOOOOOOOOOOO+XXXXX++++        OOOOOOOOOOOOOOoo",
"  OOOOOOOOOOO XXXXX+X++          OOOOOOOOOOOOOoo",
"  OOOOOOOOOO XXXXXX++++           OOOOOOOOOOOOoo",
"  OOOOOOOOO  XXXXXX++++            OOOOOOOOOOOoo",
"  OOOOOOOOO XXXXXX+X++             OOOOOOOOOOOoo",
"  OOOOOOOO  XXXXXX++++              OOOOOOOOOOoo",
"  OOOOOOOO  XXXXX+++++  OOO         OOOOOOOOOOoo",
"  OOOOOOOO  XXXX+X+++ OOOOOOO       OOOOOOOOOOoo",
"  OOOOOOOOO XXX+X++++ OOOOOOOO       OOOOOOOOOoo",
"  OOOOOOOO  XXX+++++  OOOO           OOOOOOOOOoo",
"  OOOOOOOOO X+X++++ +                OOOOOOOOOoo",
"  OOOOOOOOO X++++++                  OOOOOOOOOoo",
"  OOOOOOOOO +X+++                    OOOOOOOOOoo",
"  OOOOOOOOO +++++ +                  OOOOOOOOOoo",
"  OOOOOOOOO +++  +                   OOOOOOOOOoo",
"  OOOOOOOOO +++                      OOOOOOOOOoo",
"  OOOOOOOOO +  +      OOOOOOOOOOOOOOOOOOOOOOOOoo",
"  OOOOOOOOO  +        OOOOOOOOOOOOOOOOOOOOOOOOoo",
"  OOOOOOOOO           OOOOOOO     OOOOOOOOOOOOoo",
"  OOOOOOOOO           OOOO           OOOOOOOOOoo",
"  OOOOOOOOO           OOOO           OOOOOOOOOoo",
"  OOOOOOOOO            OO           OOOOOOOOOOoo",
"  OOOOOOOOOO                        OOOOOOOOOOoo",
"  OOOOOOOOOO                        OOOOOOOOOOoo",
"  OOOOOOOOOO                        OOOOOOOOOOoo",
"  OOOOOOOOOOO                      OOOOOOOOOOOoo",
"  OOOOOOOOOOO                      OOOOOOOOOOOoo",
"  OOOOOOOOOOOO                    OOOOOOOOOOOOoo",
"  OOOOOOOOOOOOO                 OOOOOOOOOOOOOOoo",
"  OOOOOOOOOOOOOOO           OOOOOOOOOOOOOOOOOOoo",
"  OOOOOOOOOOOOOOOOOOOOOOOOOOOOOOOOOOOOOOOOOOOOoo",
"  OOOOOOOOOOOOOOOOOOOOOOOOOOOOOOOOOOOOOOOOOOOOoo",
"  OOOOOOOOOOOOOOOOOOOOOOOOOOOOOOOOOOOOOOOOOOOOoo",
"  OOOOOOOOOOOOOOOOOOOOOOOOOOOOOOOOOOOOOOOOOOOOoo",
"  OOOOOOOOOOOOOOOOOOOOOOOOOOOOOOOOOOOOOOOOOOOOoo",
"  OOOOOOOOOOOOOOOOOOOOOOOOOOOOOOOOOOOOOOOOOOOOoo",
" Xoooooooooooooooooooooooooooooooooooooooooooooo",
".ooooooooooooooooooooooooooooooooooooooooooooooo"};
