/* XPM */
static char * image_name[] = {
"48 48 7 1",
" 	c #545451514D4D",
".	c #B2B2C0C0DCDC",
"X	c #A7A7A7A7A7A7",
"o	c #DBDBDBDBDBDB",
"O	c None",
"+	c #424239393939",
"@	c #464642423D3D",
"                                               .",
"                                              Xo",
"  OOOOOOOOOOOOOOOOOOOOOOOOOOOOOOOOOOOOOOOOOOOOoo",
"  OOOOOOOOOOOOOOOOOOOOOOOOOOOOOOOOOOOOOOOOOOOOoo",
"  OOOOOOOOOOOOOOOOOOOOOOOOOOOOOOOOOOOOOOOOOOOOoo",
"  OOOOOOOOOOOOOOOOOOOOOOOOOOOOOOOOOOOOOOOOOOOOoo",
"  OOOOOOOOOOOOOOOOOOOOOOOOOOOOOOOOOOOOOOOOOOOOoo",
"  OOOOOOOOOOOOOOOOOOOOOOOOOOOOOOOOOOOOOOOOOOOOoo",
"  OOOOOOOOOOOOOOOO+++@@@@+OOOOOOOOOOOOOOOOOOOOoo",
"  OOOOOOOOOOOOO+@     @@@@@+OOOOOOOOOOOOOOOOOOoo",
"  OOOOOOOOOOOO        @@@@@@+OOOOOOOOOOOOOOOOOoo",
"  OOOOOOOOOOO@        @@@@@+@+OOOOOOOOOOOOOOOOoo",
"  OOOOOOOOOOO        @@ @@@@@@+OOOOOOOOOOOOOOOoo",
"  OOOOOOOOOO+        @@@@@@@@++OOOOOOOOOOOOOOOoo",
"  OOOOOOOOOO+        @@@@@@+@+++OOOOOOOOOOOOOOoo",
"  OOOOOOOOOO@        @@@@@@@@+++OOOOOOOOOOOOOOoo",
"  OOOOOOOOOO          @@@+++++++OOOOOOOOOOOOOOoo",
"  OOOOOOOOOO         @@@@++++@++OOOOOOOOOOOOOOoo",
"  OOOOOOOOOO        @@@@@+++++++OOOOOOOOOOOOOOoo",
"  OOOOOOOOOO        @@@@@@@@@@++OOOOOOOOOOOOOOoo",
"  OOOOOOOOOO  @     @@@@@@    ++OOOOOOOOOOOOOOoo",
"  OOOOOOOOO+@ @    @ @@@@@@@++++OOOOOOOOOOOOOOoo",
"  OOOOOOOOO+@ @ @@ @@@@@@@+@++++OOOOOOOOOOOOOOoo",
"  OOOOOOOOO+@@@@@ @ @@@@@@@+++++OOOOOOOOOOOOOOoo",
"  OOOOOOOOOO @ @@@@@@@@@@+@+++++OOOOOOOOOOOOOOoo",
"  OOOOOOOOO+@@@@@@@@@@@@+@++++++OOOOOOOOOOOOOOoo",
"  OOOOOOOOO+@@@@@ @@@@@+@+OOOOOOOOOOOOOOOOOOOOoo",
"  OOOOOOOOO+@@@@   @@+@@@+OOOOOOOOOOOOOOOOOOOOoo",
"  OOOOOOOOOO     @@ @@@+@@@@@+++OOOOOOOOOOOOOOoo",
"  OOOOOOOOO+@      @@@+++     ++OOOOOOOOOOOOOOoo",
"  OOOOOOOOOO@ @   @@+++++     ++OOOOOOOOOOOOOOoo",
"  OOOOOOOOOO@@ @@@ @+++++     ++OOOOOOOOOOOOOOoo",
"  OOOOOOOOOO@@@@@@@@@++++@   +++OOOOOOOOOOOOOOoo",
"  OOOOOOOOOO++@@@@@@++++++++++++OOOOOOOOOOOOOOoo",
"  OOOOOOOOOO++++++++++++++++++++OOOOOOOOOOOOOOoo",
"  OOOOOOOOOOO+++++++++++++++++++OOOOOOOOOOOOOOoo",
"  OOOOOOOOOOO++++++++++@+++++++OOOOOOOOOOOOOOOoo",
"  OOOOOOOOOOOO++++++++++++++++OOOOOOOOOOOOOOOOoo",
"  OOOOOOOOOOOOO++++++++++++++OOOOOOOOOOOOOOOOOoo",
"  OOOOOOOOOOOOOOOO++++++++++OOOOOOOOOOOOOOOOOOoo",
"  OOOOOOOOOOOOOOOOOOOO++++OOOOOOOOOOOOOOOOOOOOoo",
"  OOOOOOOOOOOOOOOOOOOOOOOOOOOOOOOOOOOOOOOOOOOOoo",
"  OOOOOOOOOOOOOOOOOOOOOOOOOOOOOOOOOOOOOOOOOOOOoo",
"  OOOOOOOOOOOOOOOOOOOOOOOOOOOOOOOOOOOOOOOOOOOOoo",
"  OOOOOOOOOOOOOOOOOOOOOOOOOOOOOOOOOOOOOOOOOOOOoo",
"  OOOOOOOOOOOOOOOOOOOOOOOOOOOOOOOOOOOOOOOOOOOOoo",
" Xoooooooooooooooooooooooooooooooooooooooooooooo",
".ooooooooooooooooooooooooooooooooooooooooooooooo"};
