/* XPM */
static char * image_name[] = {
"48 48 6 1",
" 	c #575755555353",
".	c #B2B2C0C0DCDC",
"X	c #A4A49B9B9292",
"o	c #E6E6E5E5E3E3",
"O	c None",
"+	c #424242423939",
"                                               .",
"                                              Xo",
"  OOOOOOOOOOOOOOOOOOOOOOOOOOOOOOOOOOOOOOOOOOOOoo",
"  OOOOOOOOOOOOOOOOOOOOOOOOOOOOOOOOOOOOOOOOOOOOoo",
"  OOOOOOOOOOOOOOOOOOOOOOOOOOOOOOOOOOOOOOOOOOOOoo",
"  OOOOOOOOOOOOOOOOOOOOOOOOOOOOOOOOOOOOOOOOOOOOoo",
"  OOOOOOOOOOOOOOOOOOOOOOOOOOOOOOOOOOOOOOOOOOOOoo",
"  OOOOOOOOOOOOOOOOOOOOOOOOOOOOOOOOOOOOOOOOOOOOoo",
"  OOOOOOOOOOOOOOOOOO+    + ++OOOOOOOOOOOOOOOOOoo",
"  OOOOOOOOOOOOOOOOOOX X      +OOOOOOOOOOOOOOOOoo",
"  OOOOOOOOOOOOOOOOO+oooooooo.XOOOOOOOOOOOOOOOOoo",
"  OOOOOOOOOOOOOOOOO+ooooooooo.OOOOOOOOOOOOOOOOoo",
"  OOOOOOOOOOOOOOOOO ooooooooo.OOOOOOOOOOOOOOOOoo",
"  OOOOOOOOOOOOOOOOO ooooooooo.OOOOOOOOOOOOOOOOoo",
"  OOOOOOOOOOOOOOOOO ooooooooooOOOOOOOOOOOOOOOOoo",
"  OOOOOOOOOOOOOOOOO ooooooooooOOOOOOOOOOOOOOOOoo",
"  OOOOOOOOOOOOOOOOO ooooooooooOOOOOOOOOOOOOOOOoo",
"  OOOOOOOOOOOOOOOOO ooooooooooOOOOOOOOOOOOOOOOoo",
"  OOOOOOOOOOOOOOOOO ooooooooooOOOOOOOOOOOOOOOOoo",
"  OOOOOOOOOOOOOOOOO ooooooooooOOOOOOOOOOOOOOOOoo",
"  OOOOOOOOOOOOOOOOO ooooooooooOOOOOOOOOOOOOOOOoo",
"  OOOOOOOOOOOOOOOOO ooooooooooOOOOOOOOOOOOOOOOoo",
"  OOOOOOOOOOOOOOOOO ....o.o...OOOOOOOOOOOOOOOOoo",
"  OOOOOOOOOOOOOOOOO+..........OOOOOOOOOOOOOOOOoo",
"  OOOOOOOOOOOOOOOOO+X.X.X.X.XXOOOOOOOOOOOOOOOOoo",
"  OOOOOOOOOOOOOOOOO+XXXXXXXX.XOOOOOOOOOOOOOOOOoo",
"  OOOOOOOOOOOOOOOOO+XXXXXXXXXXOOOOOOOOOOOOOOOOoo",
"  OOOOOOOOOOOOOOOOO+ X X XX X OOOOOOOOOOOOOOOOoo",
"  OOOOOOOOOOOOOOOOO+          OOOOOOOOOOOOOOOOoo",
"  OOOOOOOOOOOOOOOOO+          OOOOOOOOOOOOOOOOoo",
"  OOOOOOOOOOOOOOOOO+          OOOOOOOOOOOOOOOOoo",
"  OOOOOOOOOOOOOOOOO+         +OOOOOOOOOOOOOOOOoo",
"  OOOOOOOOOOOOOOOOOO + +   + +OOOOOOOOOOOOOOOOoo",
"  OOOOOOOOOOOOOOOOOO+ ++++ + +OOOOOOOOOOOOOOOOoo",
"  OOOOOOOOOOOOOOOOOO++++++++++OOOOOOOOOOOOOOOOoo",
"  OOOOOOOOOOOOOOOOOO++++++++++OOOOOOOOOOOOOOOOoo",
"  OOOOOOOOOOOOOOOOOO++++++++++OOOOOOOOOOOOOOOOoo",
"  OOOOOOOOOOOOOOOOOO++++++++++OOOOOOOOOOOOOOOOoo",
"  OOOOOOOOOOOOOOOOOO+++++++++OOOOOOOOOOOOOOOOOoo",
"  OOOOOOOOOOOOOOOOOO+++++++++OOOOOOOOOOOOOOOOOoo",
"  OOOOOOOOOOOOOOOOOOOOOOOOOOOOOOOOOOOOOOOOOOOOoo",
"  OOOOOOOOOOOOOOOOOOOOOOOOOOOOOOOOOOOOOOOOOOOOoo",
"  OOOOOOOOOOOOOOOOOOOOOOOOOOOOOOOOOOOOOOOOOOOOoo",
"  OOOOOOOOOOOOOOOOOOOOOOOOOOOOOOOOOOOOOOOOOOOOoo",
"  OOOOOOOOOOOOOOOOOOOOOOOOOOOOOOOOOOOOOOOOOOOOoo",
"  OOOOOOOOOOOOOOOOOOOOOOOOOOOOOOOOOOOOOOOOOOOOoo",
" Xoooooooooooooooooooooooooooooooooooooooooooooo",
".ooooooooooooooooooooooooooooooooooooooooooooooo"};
