/* XPM */
static char * image_name[] = {
"48 48 7 1",
" 	c #52524F4F4D4D",
".	c #B2B2C0C0DCDC",
"X	c #A7A7A7A7A7A7",
"o	c #DBDBDBDBDBDB",
"O	c None",
"+	c #424239393939",
"@	c #424242423939",
"                                               .",
"                                              Xo",
"  OOOOOOOOOOOOOOOOOOOOOOOOOOOOOOOOOOOOOOOOOOOOoo",
"  OOOOOOOOOOOOOOOOOOOOOOOOOOOOOOOOOOOOOOOOOOOOoo",
"  OOOOOOOOOOOOOOOOOOOOOOOOOOOOOOOOOOOOOOOOOOOOoo",
"  OOOOOOOOOOOOOOOOOOOOOOOOOOOOOOOOOOOOOOOOOOOOoo",
"  OOOOOOOOOOOOOOOOOOOOOOOOOOOOOOOOOOOOOOOOOOOOoo",
"  OOOOOOOOOOOOOOOOOOOOOOOOOOOOOOOOOOOOOOOOOOOOoo",
"  OOOOOOOOOOOOOOOOOOOO++@@++++OOOOOOOOOOOOOOOOoo",
"  OOOOOOOOOOOOOOOOOO+@@@+@@@    +OOOOOOOOOOOOOoo",
"  OOOOOOOOOOOOOOOOO+@+@+@+@@      +OOOOOOOOOOOoo",
"  OOOOOOOOOOOOOOOO+@@@@@@@@@@      +OOOOOOOOOOoo",
"  OOOOOOOOOOOOOOO+@@+@+@+@@@@       OOOOOOOOOOoo",
"  OOOOOOOOOOOOOOO+@@+@@@@@+@@       +OOOOOOOOOoo",
"  OOOOOOOOOOOOOO+@+@@@@+@@@@@       @OOOOOOOOOoo",
"  OOOOOOOOOOOOOO+@+@@+@@+@@@+@       OOOOOOOOOoo",
"  OOOOOOOOOOOOOO+@@++++@@@@@@@       OOOOOOOOOoo",
"  OOOOOOOOOOOOOO@@+++O++@@@@@@       OOOOOOOOOoo",
"  OOOOOOOOOOOOO+@+@+++++@@@@@@       OOOOOOOOOoo",
"  OOOOOOOOOOOOO+@+     @@@@@@@       OOOOOOOOOoo",
"  OOOOOOOOOOOOO+++     @@@@@@@       OOOOOOOOOoo",
"  OOOOOOOOOOOOO++@@@@@+@@@@@@@       OOOOOOOOOoo",
"  OOOOOOOOOOOOO++@+@+@@+@@@@@@       +OOOOOOOOoo",
"  OOOOOOOOOOOOO++++@+@+@@@+@@@       +OOOOOOOOoo",
"  OOOOOOOOOOOOO+++@+@@@+@@@+@@       +OOOOOOOOoo",
"  OOOOOOOOOOOOO+++++++@+@@@@@+@      OOOOOOOOOoo",
"  OOOOOOOOOOOOOOOOOOOOO++@@@+@ @  @ @OOOOOOOOOoo",
"  OOOOOOOOOOOOOOOOOOOOO+@@+@@+@ @@ @@OOOOOOOOOoo",
"  OOOOOOOOOOOOOO+++++++++@@+@@@@@@@@@OOOOOOOOOoo",
"  OOOOOOOOOOOOO+++     @@+@@+@@@@@@@@OOOOOOOOOoo",
"  OOOOOOOOOOOOO+++      +@@+@@@@@@@@@OOOOOOOOOoo",
"  OOOOOOOOOOOOO+++@    ++@+@@+@@@@@@+OOOOOOOOOoo",
"  OOOOOOOOOOOOOO+++    +@+@@@@@+@@@@+OOOOOOOOOoo",
"  OOOOOOOOOOOOOO++++@+@+@@@+@+@@@+@++OOOOOOOOOoo",
"  OOOOOOOOOOOOOO+++++++@+@+@@@++@+++OOOOOOOOOOoo",
"  OOOOOOOOOOOOOO++++++@++@@@+@++++++OOOOOOOOOOoo",
"  OOOOOOOOOOOOOOO++++@++@@@+@++++++OOOOOOOOOOOoo",
"  OOOOOOOOOOOOOOOO+++++@+@+@+++++++OOOOOOOOOOOoo",
"  OOOOOOOOOOOOOOOOO+++@+@@@@++O++OOOOOOOOOOOOOoo",
"  OOOOOOOOOOOOOOOOOO++++@@@++OOOOOOOOOOOOOOOOOoo",
"  OOOOOOOOOOOOOOOOOOOOO++++OOOOOOOOOOOOOOOOOOOoo",
"  OOOOOOOOOOOOOOOOOOOOOOOOOOOOOOOOOOOOOOOOOOOOoo",
"  OOOOOOOOOOOOOOOOOOOOOOOOOOOOOOOOOOOOOOOOOOOOoo",
"  OOOOOOOOOOOOOOOOOOOOOOOOOOOOOOOOOOOOOOOOOOOOoo",
"  OOOOOOOOOOOOOOOOOOOOOOOOOOOOOOOOOOOOOOOOOOOOoo",
"  OOOOOOOOOOOOOOOOOOOOOOOOOOOOOOOOOOOOOOOOOOOOoo",
" Xoooooooooooooooooooooooooooooooooooooooooooooo",
".ooooooooooooooooooooooooooooooooooooooooooooooo"};
