/* XPM */
static char * image_name[] = {
"48 48 6 1",
" 	c #5D5D58585555",
".	c #B2B2C0C0DCDC",
"X	c #A9A99E9E9595",
"o	c #DBDBDBDBDBDB",
"O	c None",
"+	c #4A4A46463F3F",
"                                               .",
"                                              Xo",
"  OOOOOOOOOOOOOOOOOOOOOOOOOOOOOOOOOOOOOOOOOOOOoo",
"  OOOOOOOOOOOOOOOOOOOOOOOOOOOOOOOOOOOOOOOOOOOOoo",
"  OOOOOOOOOOOOOOOOOOOOOOOOOOOOOOOOOOOOOOOOOOOOoo",
"  OOOOOOOOOOOOOOOOOOOOOOOOOOOOOOOOOOOOOOOOOOOOoo",
"  OOOOOOOOOOOOOOOOOOOOOOOOOOOOOOOOOOOOOOOOOOOOoo",
"  OOOOOOOOOOOOOOOOOOOOOOOOOOOOOOOOOOOOOOOOOOOOoo",
"  OOOOOOOOOOOOOOOOOOOO++       OOOOOOOOOOOOOOOoo",
"  OOOOOOOOOOOOOOOO++        XXXX +OOOOOOOOOOOOoo",
"  OOOOOOOOOOOOOO+           X XXXX+OOOOOOOOOOOoo",
"  OOOOOOOOOOOOO+             XXXXXX+OOOOOOOOOOoo",
"  OOOOOOOOOOO++             X XXXXXXOOOOOOOOOOoo",
"  OOOOOOOOOOO+ +              XXXXXX OOOOOOOOOoo",
"  OOOOOOOOOO++  +             X XXXX +OOOOOOOOoo",
"  OOOOOOOOOO+ +       +        XXXXXX+OOOOOOOOoo",
"  OOOOOOOOOO+  + + +++++++    X XXXXX+OOOOOOOOoo",
"  OOOOOOOOO+++++  +++++OOO+     X XXX++OOOOOOOoo",
"  OOOOOOOOO+ ++  +++++OOOO+      XXXX++OOOOOOOoo",
"  OOOOOOOOO+++++++++++OOOOO      X XX++OOOOOOOoo",
"  OOOOOOOOO++++++ ++++++++        X X++OOOOOOOoo",
"  OOOOOOOOO+++++++ +               X  +OOOOOOOoo",
"  OOOOOOOOO++++++++ +               X++OOOOOOOoo",
"  OOOOOOOOO+++++++++  +               +OOOOOOOoo",
"  OOOOOOOOO++++++++ ++                +OOOOOOOoo",
"  OOOOOOOOO++++++++++++ +            ++OOOOOOOoo",
"  OOOOOOOOOOOOOOOOOOOOOOOO+          ++OOOOOOOoo",
"  OOOOOOOOOOOOOOOOOOOOOOOO+          ++OOOOOOOoo",
"  OOOOOOOOOOO++++++++OOOOO+          ++OOOOOOOoo",
"  OOOOOOOOO+++++ +++++OOOO+          ++OOOOOOOoo",
"  OOOOOOOOO++++++++++++OOO++         ++OOOOOOOoo",
"  OOOOOOOOO+++++++     +OO+          +OOOOOOOOoo",
"  OOOOOOOOO+ +++++     + +           +OOOOOOOOoo",
"  OOOOOOOOO++ ++ +  +      +        ++OOOOOOOOoo",
"  OOOOOOOOOO+++ +         +         +OOOOOOOOOoo",
"  OOOOOOOOOO+  +                    +OOOOOOOOOoo",
"  OOOOOOOOOOO++                    +OOOOOOOOOOoo",
"  OOOOOOOOOOOO+                   +OOOOOOOOOOOoo",
"  OOOOOOOOOOOOO++ +              +OOOOOOOOOOOOoo",
"  OOOOOOOOOOOOOOOO++++         +OOOOOOOOOOOOOOoo",
"  OOOOOOOOOOOOOOOOOOOOOO+++++OOOOOOOOOOOOOOOOOoo",
"  OOOOOOOOOOOOOOOOOOOOOOOOOOOOOOOOOOOOOOOOOOOOoo",
"  OOOOOOOOOOOOOOOOOOOOOOOOOOOOOOOOOOOOOOOOOOOOoo",
"  OOOOOOOOOOOOOOOOOOOOOOOOOOOOOOOOOOOOOOOOOOOOoo",
"  OOOOOOOOOOOOOOOOOOOOOOOOOOOOOOOOOOOOOOOOOOOOoo",
"  OOOOOOOOOOOOOOOOOOOOOOOOOOOOOOOOOOOOOOOOOOOOoo",
" Xoooooooooooooooooooooooooooooooooooooooooooooo",
".ooooooooooooooooooooooooooooooooooooooooooooooo"};
