/* XPM */
static char * image_name[] = {
"48 48 5 1",
" 	c #636360605E5E",
".	c #B2B2C0C0DCDC",
"X	c #A1A19A9A9494",
"o	c #EBEBE8E8E4E4",
"O	c None",
"                                               .",
"                                              Xo",
"  OOOOOOOOOOOOOOOOOOOOOOOOOOOOOOOOOOOOOOOOOOOOoo",
"  OOOOOOOOOOOOOOOOOOOOOOOOOOOOOOOOOOOOOOOOOOOOoo",
"  OOOOOOOOOOOOOOOOOOOOOOOOOOOOOOOOOOOOOOOOOOOOoo",
"  OOOOOOOOOOOOOOOOOOOOOOOOOOOOOOOOOOOOOOOOOOOOoo",
"  OOOOOOOOOOOOOOOOOOOOOOOOOOOOOOOOOOOOOOOOOOOOoo",
"  OOOOOOOOOOOOOOOOOOOOOOOOOOOOOOOOOOOOOOOOOOOOoo",
"  OOOOOOOOOOOOOOOOO  XXXXXX  OOOOOOOOOOOOOOOOOoo",
"  OOOOOOOOOOOOO X.oooooooooooo.X OOOOOOOOOOOOOoo",
"  OOOOOOOOOOO .oooooooooooooooooo. OOOOOOOOOOOoo",
"  OOOOOOOOOOXooooooooooooooooooooooXOOOOOOOOOOoo",
"  OOOOOOOOO ooooooooooooooooooooooooXOOOOOOOOOoo",
"  OOOOOOOOO.oooooooooooooooooooooooooXOOOOOOOOoo",
"  OOOOOOOO oooooooooooooooooooooooooo.OOOOOOOOoo",
"  OOOOOOOOXoooooooooooo..ooooooooooooo OOOOOOOoo",
"  OOOOOOOO.oooooooooX OOOO XooooooooooXOOOOOOOoo",
"  OOOOOOO .ooooooooXOOOOOOOOXoooooooooXOOOOOOOoo",
"  OOOOOOO ...oooooo OOOOOOOO ooooooooo.OOOOOOOoo",
"  OOOOOOOX...ooooooOOOOOOOOOOooooooooo.OOOOOOOoo",
"  OOOOOOOXX....ooooXXXXXXXXXXoooooooo..OOOOOOOoo",
"  OOOOOOOXXX.....ooooooooooooooooooo.o.OOOOOOOoo",
"  OOOOOOOXXXX....o.ooooooooooooooo.o..XOOOOOOOoo",
"  OOOOOOOXXXXX.....o.oooooooooo.o......OOOOOOOoo",
"  OOOOOOOXXXXXX........o.o.o.o.......XXOOOOOOOoo",
"  OOOOOOO XXXXXXXXX...............X.XXXOOOOOOOoo",
"  OOOOOOOOOOOOOOOOOOOOOOOOOO X..XX.XXXXOOOOOOOoo",
"  OOOOOOOOOOOOOOOOOOOOOOOOOOOXXXXXXXXXXOOOOOOOoo",
"  OOOOOOOOOOOOOOOOOOOOOOOOOO XXXXXXXXXXOOOOOOOoo",
"  OOOOOOO      X XX OOOOOOOO XXXXXXXXX OOOOOOOoo",
"  OOOOOOO XXXXXXXXX OOOOOOOO XXXXXXXXX OOOOOOOoo",
"  OOOOOOO   XXXXXXX  OOOOOO XXXXXXXXXX OOOOOOOoo",
"  OOOOOOO    XXXXXXX        XXXXXXXX   OOOOOOOoo",
"  OOOOOOOO      XXXXXXXX XXXXXXXX   X OOOOOOOOoo",
"  OOOOOOOO       X  X X XX XXX   X    OOOOOOOOoo",
"  OOOOOOOO            X   X          OOOOOOOOOoo",
"  OOOOOOOOO                          OOOOOOOOOoo",
"  OOOOOOOOOO                        OOOOOOOOOOoo",
"  OOOOOOOOOOO                     OOOOOOOOOOOOoo",
"  OOOOOOOOOOOOO                 OOOOOOOOOOOOOOoo",
"  OOOOOOOOOOOOOOOOOOOOOOOOOOOOOOOOOOOOOOOOOOOOoo",
"  OOOOOOOOOOOOOOOOOOOOOOOOOOOOOOOOOOOOOOOOOOOOoo",
"  OOOOOOOOOOOOOOOOOOOOOOOOOOOOOOOOOOOOOOOOOOOOoo",
"  OOOOOOOOOOOOOOOOOOOOOOOOOOOOOOOOOOOOOOOOOOOOoo",
"  OOOOOOOOOOOOOOOOOOOOOOOOOOOOOOOOOOOOOOOOOOOOoo",
"  OOOOOOOOOOOOOOOOOOOOOOOOOOOOOOOOOOOOOOOOOOOOoo",
" Xoooooooooooooooooooooooooooooooooooooooooooooo",
".ooooooooooooooooooooooooooooooooooooooooooooooo"};
