/* XPM */
static char * image_name[] = {
"48 48 6 1",
" 	c #585855555050",
".	c #B2B2C0C0DCDC",
"X	c #A7A7A7A7A7A7",
"o	c #DBDBDBDBDBDB",
"O	c None",
"+	c #44443F3F3D3D",
"                                               .",
"                                              Xo",
"  OOOOOOOOOOOOOOOOOOOOOOOOOOOOOOOOOOOOOOOOOOOOoo",
"  OOOOOOOOOOOOOOOOOOOOOOOOOOOOOOOOOOOOOOOOOOOOoo",
"  OOOOOOOOOOOOOOOOOOOOOOOOOOOOOOOOOOOOOOOOOOOOoo",
"  OOOOOOOOOOOOOOOOOOOOOOOOOOOOOOOOOOOOOOOOOOOOoo",
"  OOOOOOOOOOOOOOOOOOOOOOOOOOOOOOOOOOOOOOOOOOOOoo",
"  OOOOOOOOOOOOOOOOOOOOOOOOOOOOOOOOOOOOOOOOOOOOoo",
"  OOOOOOOOOOOOOOO++     ++OOOOOOOOOOOOOOOOOOOOoo",
"  OOOOOOOOOOOOOO           ++OOOOOOOOOOOOOOOOOoo",
"  OOOOOOOOOOOO+               +OOOOOOOOOOOOOOOoo",
"  OOOOOOOOOO++                  +OOOOOOOOOOOOOoo",
"  OOOOOOOOO+++                   +OOOOOOOOOOOOoo",
"  OOOOOOOOO+++                    OOOOOOOOOOOOoo",
"  OOOOOOOO+++                     +OOOOOOOOOOOoo",
"  OOOOOOOO+++                      OOOOOOOOOOOoo",
"  OOOOOOOO+++          +++++       +OOOOOOOOOOoo",
"  OOOOOOOO+++          O+++++      +OOOOOOOOOOoo",
"  OOOOOOO++++         +OO+++++     +OOOOOOOOOOoo",
"  OOOOOOO++++         +OO+++++     +OOOOOOOOOOoo",
"  OOOOOOO++++          +++         +OOOOOOOOOOoo",
"  OOOOOOO++++                      +OOOOOOOOOOoo",
"  OOOOOOO++++                       OOOOOOOOOOoo",
"  OOOOOOO++++                       OOOOOOOOOOoo",
"  OOOOOOO++++                      +OOOOOOOOOOoo",
"  OOOOOOO++++                      +OOOOOOOOOOoo",
"  OOOOOOOOOOO+OOOOOOOOOOO+++++     +OOOOOOOOOOoo",
"  OOOOOOOOOOOOOOOOOOOOOOO++ ++    ++OOOOOOOOOOoo",
"  OOOOOOOOOOOOOOOOOOOOOOO++++ + +  +OOOOOOOOOOoo",
"  OOOOOOOO+++++++++++++OO+++ + + +++OOOOOOOOOOoo",
"  OOOOOOO++++     +   +O+     ++++++OOOOOOOOOOoo",
"  OOOOOOOO+++    +  + ++     +++++++OOOOOOOOOOoo",
"  OOOOOOOO++++  + + +++     ++++++++OOOOOOOOOOoo",
"  OOOOOOOO+++++   + +++++++++++++++OOOOOOOOOOOoo",
"  OOOOOOOO+++++ + +++++++++++++++++OOOOOOOOOOOoo",
"  OOOOOOOOO++++ + ++++++++++++++++OOOOOOOOOOOOoo",
"  OOOOOOOOO+++++++++++++++++++++++OOOOOOOOOOOOoo",
"  OOOOOOOOOO+++++++++++++++++++++OOOOOOOOOOOOOoo",
"  OOOOOOOOOOOO+++++++++++++++++OOOOOOOOOOOOOOOoo",
"  OOOOOOOOOOOOO++++++++++++++OOOOOOOOOOOOOOOOOoo",
"  OOOOOOOOOOOOOOO++++++++OOOOOOOOOOOOOOOOOOOOOoo",
"  OOOOOOOOOOOOOOOOOOOOOOOOOOOOOOOOOOOOOOOOOOOOoo",
"  OOOOOOOOOOOOOOOOOOOOOOOOOOOOOOOOOOOOOOOOOOOOoo",
"  OOOOOOOOOOOOOOOOOOOOOOOOOOOOOOOOOOOOOOOOOOOOoo",
"  OOOOOOOOOOOOOOOOOOOOOOOOOOOOOOOOOOOOOOOOOOOOoo",
"  OOOOOOOOOOOOOOOOOOOOOOOOOOOOOOOOOOOOOOOOOOOOoo",
" Xoooooooooooooooooooooooooooooooooooooooooooooo",
".ooooooooooooooooooooooooooooooooooooooooooooooo"};
