/* XPM */
static char * image_name[] = {
"48 48 7 1",
" 	c #585856565454",
".	c #B2B2C0C0DCDC",
"X	c #B6B6AEAEA5A5",
"o	c #DDDDDCDCD9D9",
"O	c None",
"+	c #44443F3F3D3D",
"@	c #8E8E85857F7F",
"                                               .",
"                                              Xo",
"  OOOOOOOOOOOOOOOOOOOOOOOOOOOOOOOOOOOOOOOOOOOOoo",
"  OOOOOOOOOOOOOOOOOOOOOOOOOOOOOOOOOOOOOOOOOOOOoo",
"  OOOOOOOOOOOOOOOOOOOOOOOOOOOOOOOOOOOOOOOOOOOOoo",
"  OOOOOOOOOOOOOOOOOOOOOOOOOOOOOOOOOOOOOOOOOOOOoo",
"  OOOOOOOOOOOOOOOOOOOOOOOOOOOOOOOOOOOOOOOOOOOOoo",
"  OOOOOOOOOOOOOOOOOOOOOOOOOOOOOOOOOOOOOOOOOOOOoo",
"  OOOOOOOOOOOOOOO++++    ++OOOOOOOOOOOOOOOOOOOoo",
"  OOOOOOOOOOOOOO+        +++OOOOOOOOOOOOOOOOOOoo",
"  OOOOOOOOOOOOO+ @ @@@XX@+++OOOOOOOOOOOOOOOOOOoo",
"  OOOOOOOOOOOOO @XXXXXoo@++++OOOOOOOOOOOOOOOOOoo",
"  OOOOOOOOOOOOO@XXXooooo@++++OOOOOOOOOOOOOOOOOoo",
"  OOOOOOOOOOOOO@XXXooooo@++++OOOOOOOOOOOOOOOOOoo",
"  OOOOOOOOOOOOO@XXoooooo@++++OOOOOOOOOOOOOOOOOoo",
"  OOOOOOOOOOOO+XXXXXoooo +++++OOOOOOOOOOOOOOOOoo",
"  OOOOOOOOOOOO+@@XXXoooo +++++OOOOOOOOOOOOOOOOoo",
"  OOOOOOOOOOOO+@@@XXXXoo +++++OOOOOOOOOOOOOOOOoo",
"  OOOOOOOOOOOO+@@@@XXXXo++++++OOOOOOOOOOOOOOOOoo",
"  OOOOOOOOOOOO+ @@@@@XXX++   +OOOOOOOOOOOOOOOOoo",
"  OOOOOOOOOOOO+  @ @@@X@++ X@+OOOOOOOOOOOOOOOOoo",
"  OOOOOOOOOOOO+   @ @@@@++++ +OOOOOOOOOOOOOOOOoo",
"  OOOOOOOOOOOO+     @ @@++++++OOOOOOOOOOOOOOOOoo",
"  OOOOOOOOOOOO+       @ ++++++OOOOOOOOOOOOOOOOoo",
"  OOOOOOOOOOOO+         ++++++OOOOOOOOOOOOOOOOoo",
"  OOOOOOOOOOOO+         +++  +OOOOOOOOOOOOOOOOoo",
"  OOOOOOOOOOOOOOOOOOO+@XXXXo@+OOOOOOOOOOOOOOOOoo",
"  OOOOOOOOOOOOOOOOOOOOXXXoXoX+OOOOOOOOOOOOOOOOoo",
"  OOOOOOOOOOOOOOOOOOO+XoooooX+OOOOOOOOOOOOOOOOoo",
"  OOOOOOOOOOOOOOO++++ XXXXooX+OOOOOOOOOOOOOOOOoo",
"  OOOOOOOOOOOO++         +@oX+OOOOOOOOOOOOOOOOoo",
"  OOOOOOOOOOOO+  +  +  +++ X@+OOOOOOOOOOOOOOOOoo",
"  OOOOOOOOOOOO++ + ++ + +++ ++OOOOOOOOOOOOOOOOoo",
"  OOOOOOOOOOOOO++++ ++++++++++OOOOOOOOOOOOOOOOoo",
"  OOOOOOOOOOOOO+ +++++++++++++OOOOOOOOOOOOOOOOoo",
"  OOOOOOOOOOOOO+++++++ ++++++OOOOOOOOOOOOOOOOOoo",
"  OOOOOOOOOOOOO++++++++++++++OOOOOOOOOOOOOOOOOoo",
"  OOOOOOOOOOOOO++++++++++++++OOOOOOOOOOOOOOOOOoo",
"  OOOOOOOOOOOOOO++++++++++++OOOOOOOOOOOOOOOOOOoo",
"  OOOOOOOOOOOOOOO+++++++++++OOOOOOOOOOOOOOOOOOoo",
"  OOOOOOOOOOOOOOOOOOOOO++++OOOOOOOOOOOOOOOOOOOoo",
"  OOOOOOOOOOOOOOOOOOOOOOOOOOOOOOOOOOOOOOOOOOOOoo",
"  OOOOOOOOOOOOOOOOOOOOOOOOOOOOOOOOOOOOOOOOOOOOoo",
"  OOOOOOOOOOOOOOOOOOOOOOOOOOOOOOOOOOOOOOOOOOOOoo",
"  OOOOOOOOOOOOOOOOOOOOOOOOOOOOOOOOOOOOOOOOOOOOoo",
"  OOOOOOOOOOOOOOOOOOOOOOOOOOOOOOOOOOOOOOOOOOOOoo",
" Xoooooooooooooooooooooooooooooooooooooooooooooo",
".ooooooooooooooooooooooooooooooooooooooooooooooo"};
