/* XPM */
static char * image_name[] = {
"48 48 10 1",
" 	c #040404040505",
".	c #AAAA9F9FAAAA",
"X	c #54543F3F4343",
"o	c #A3A35A5A4242",
"O	c #A1A16A6A5959",
"+	c #6060BCBC9D9D",
"@	c #DDDDA7A79898",
"#	c #CACA8A8A7474",
"$	c #FFFFFFFFFFFF",
"%	c #56564848CCCC",
"                                               .",
" XXXXXXXXX         X   X  XXXXXXXXXXXXXXXXXXXXo.",
" XXXXXXXXOXXXXXXXXXXXXXXXXX X XXXXXX XXXX XXXXO+",
" XXXOO.O.O.OOOOOOoOXoOXoXoXOoOoXoXoXOooXoOooXOO.",
" XXO..@.....#.#.#OO#O#OO#O#OOOO#O#O#OOO#O#O.##..",
" XX..@$@@@@@@@#@@.O@##@O####O########@##.#@##@#.",
" XX#.@@$@$@@@@@@##O####o####O#@#####@@#@#@@@@@@.",
" XX.@@$@@@@@@##@##o####oO##O##########@#@##@@@@.",
" XOO.$@@$@@@######o#O#oo##Oo########@@#@@@@@@@@.",
" XXO@@$@@@@######oo#o#oooo#o####O#####@####@@@O.",
" XX..@@@@@########ooooooooooooo#o###@##@#@@#@@..",
" X+O@@$@@#####o##oXXoooooooXoooooO#########@@@@.",
" XXO.@@@@@#o##ooooooXo#OoOoXoooXooo#O#@##.#@#@O.",
" XXO@@@@@##ooooooooooOOOoooXoooXooooo#O###@#@@O.",
" XO..O@@@###oooo#@#OoooOOXooXoXXoXoooO#O#@@@#@..",
" XXO@@o#####ooo@###oXoo#ooooooooXooooooO##@#@@O.",
" XX..@@o##oooo#O@OooooXOoXooXoo#oooXoooo##@#@#O.",
" XXO@@@#oooo@@@OO.ooXXXXX    oooooooooooo@##@@@.",
" XX.#@##o#o###OoooOXXX %%X%X%%XXXoooooooXo@@@@..",
" XXO@@###oo##oooXXX%%%%%%%%%%%% XoXoooooooO#@@o.",
" XX.O@@oo###OoXXXXX%%%%%%%%%%%%%XXooooooooo@@@@.",
" XXO@######ooXoXX %%%%%%%%%%%%%%XXXoXooooooO@@O.",
" XXO###@@@#oXoXXX%%%%.%%X%%%%%%%XXoooooo#o#o@@..",
" XXO##@@@@OOooo%%%%...%%X  %%%%%%%OOOXoo#o##@@#.",
" XXO#@@@@#ooooX%%%....%%  X%%%%%%%XOOOOooo##@@@.",
" XXO##@#oooooX%%%%..$.%X  %%%%%%%XoXOOoXoo##@@..",
" XXOOO#OoooXXoX%%%....%%  %%%%%%XXXoOXOoooo#@@@.",
" XXOO#oooooXoO%%%%.$...%%%%%%%%%%OOXOOoXoooo@@#.",
" XXOO#oooXoXo.X%%%.%..%%%%%%%%%% OOOOOXooooo#@#.",
" XXOO##oooooooX X%..%.%%%%%%%%%%XOOOXOoooo##@@#.",
" XXO##########OO.%.%%%%%%%%%%%.oOOOO#OO#@@###@#.",
" XXO#@@@@@@@@@@@@@.@.##@#oooOOO.................",
" XXO.@@@@@@@@@@@@@@##@#@OO#Oo#o.$$$$$$$$$$$$$$ .",
" XXO@@@@@@@@@@@$@@@@@@@@#######.$$$$$$$$$$$$$$ .",
" XX..@$@@@@@@@@@@@@@@#@@@##@###.$$$$$$$$$$$$$$ .",
" XOO@@@@$@$@@@@@@@@@@@@@@@####o.$$$$$X  O$$$$$ .",
" XX..@$@@@@@$@@@@@@@@@@@@#####o.$$$. .$$X $$$$ .",
" XXO@@@@@$@$@@@$@@@@@@@#######O.$$$. $$$$.$$$$ .",
" XX..$@$@@@@@$@@@@@@@@#@@####o##$$$XX$$$$$$$$$ .",
" XOO@@$@@$@$@@@@@@@@@@@@#######.$$$XX$$XX .$$$ .",
" XX+@@@@$@@@@$@@@$@@@@#########.$$$XX$$$$X.$$$ .",
" XXO@@$@@@$@@@@@@@@@@#@@#@#####.$$$$ .$$X .$$$ .",
" XO..@@$@@@@@@@@@@@@@@#@#@#@#@#.$$$$. XXXX.$$$ .",
" XXO@$@@@@$@@$@@@@@@@@@@##@#@##.$$$$$$$$$$$$$$ .",
" XX..@@$@@@@@@@@@@@@###@@#@#@#@#$$$$$$$$$$$$$$ .",
" XXO@$@@@@@@#@#@########O##O##O.$$$$$$$$$$$$$$ .",
" O..@@@$@@#oXooo###X+++X++++%%%+               .",
"..........O.#O.O...#....O...O.O................."};
