/* XPM */
static char * image_name[] = {
"48 48 20 1",
" 	c None",
".	c #FFFFFFFFFFFF",
"X	c #AAAAAAAAAAAA",
"o	c #000000000000",
"O	c #D3D3A5A57777",
"+	c #919186867676",
"@	c #929266664E4E",
"#	c #94945F5F5656",
"$	c #E3E3A4A48D8D",
"%	c #545453535353",
"&	c #BABAC6C6BABA",
"*	c #777766664747",
"=	c #70704F4F4646",
"-	c #333326262323",
";	c #5B5B49493333",
":	c #4D4D2F2F2D2D",
">	c #555533334444",
",	c #7F7F7F7F7F7F",
"<	c #E3E3D7D7D4D4",
"1	c #7F7F87877F7F",
"                           ....Xo               ",
"                       ....XXO++o               ",
"         ....o     ....XX+O@O#OOo .             ",
"     ....XXO+o ....XXO+O@O+$#O$..#+% .o         ",
"     .+O@O#O@oXX+O@O#O@OO#O$...O$....Xo         ",
"    ..@O+O#O+O+O@O+O#O+$....O....XXO++o         ",
" ....XO#O#O#O@O....o....$....XX+O#O#OOo .       ",
"..&#+#+#O#+....XXO+oO....XXO@O+O#O+O$..@+% .o   ",
".@#+O@O@#+O.#O#O#O@oXX+O#O@O+O@OO$...O$....Xo   ",
".++#@#@+@$..+O#O#O+O+O@O+O#O#$....O....XXO++o   ",
".@@@#+@....X#O#O+O#O#....o....$....XX+O#O#OOo . ",
".@@@@@..X@+#O#O#@....XXO+oO....XXO+O@O+O#O$..#+%",
".@#*#@.@+@O@#+#+O.@O@O#O#oXX+O#O@O@OO#O$...O$O#%",
".%*=*=.#@+@#O@+$..#O+O#O+O+O@O#O#O+$....O$+#*#*o",
".=====.#@+@#@....XO#O#O#O@O#O+O$....$@@+@@#@#*%o",
".%===+.@@@@@..X@+##O@O+#O#+$....O$+#@@+#@@*@*=-%",
".==;=O.*#@#*.@+@O@O##@O@$...$O#@@@@+@@@@#*#*@=oX",
".%:>:$.%*=*=.@+#@+@@+$...$O#@#+@+#@#+#@@*#*=*=o,",
".;:;=..=====.@@#@@@...$O#@++O@#O@@@@@@#*#*@==;o ",
".:;:-..%===+.@@@#@.$@#@#+#O@@+@@@@+@@@*#*=*==:oX",
".-:-;..=;;=O.@#*#@.@+O#O+O#@O@@@@@@@*@=*@==*=-o ",
".---:..%;>:$.%***=.#+#O@+@+#@#+@+@@#*#*=**===o% ",
".;:--..:>;=..=====.+O@+@O@@O@@@@@*#*#*#======oX ",
".>--=..:;:-..%===+.#@O@O@@@@@@@@@#*#*=*==*=%:o, ",
".;--=..-:->..==;=O.+O@#@#O@@@@@@*@**#==*===;:o  ",
".>o-+..--::..%:>:$.@+@++@#@@+@@,*#*=*=======-o  ",
".%o-O..;---..;:;=.$@O@@@@+@@@*#*#=#=*====;=;o%  ",
".=o-#..;--=..:;:-.O#@@O@@@+#*#*#*=*==*====;=o%  ",
".;oo$..;--=..-:-;.$@#+@@@@@@#*#*#==*===;=;=;o+  ",
" =oo.+.>o-+..---:.+@O#@@@@#**#*=**=====;==::oX  ",
"<;o%.+.%o-O..;:--.#+@@@@#*#@=*#======;=;=:;-o,  ",
" #o%.#.=o-+..>--=.@@@@+@*@*#*=**====;==>;%::o,XX",
"&+o%.@.;oo$..;--=.@+@@@@*@**#====;=;=;;;>;:oo,,X",
"&#oX.@<=oo.#.>o-+.@@@#*#*#*=*==*====;=;;;;-o%%,,",
" +oX.*<;o%.+.%o-O.@@@*#@**#=*====;=;=:>;-oo%%X,,",
" +oX.*<#o%.+.=o-#.@#*#*#*=*=====;=;>;;-oo%%%%,,X",
" +o.==$+o%.*.;oo$.@@*@**#==*=;=;=;=;:oo%%%%+,,,X",
" +o.=@&+oX.#<=oo.+*#*#*=**======;=;oo%%%>X,,,XXX",
"  o.=oo@oX.=<;o%.+#@**#======;=;=oo%%%%X,,,XXXX ",
"  ooo%%+oX.#<#o%.#*#*=*=====;=;oo%%%%,,,,,XXXXX ",
"  +,%X,+o.==&Oo%.@#*#==*=;=;=oo%%%%,,,,,,XXXXX  ",
"   XXXX#o.;#&#oX.@*=*=====*oo%%%%,,,,,,XXXXXX   ",
"       Xo.=oo+oX.*@======oo%%1,,,,,,,XXXX       ",
"        ooo%%#oX.=*==*=oo%%%,,,,,X,XXXXXX       ",
"        X,,+1Xo.=*=*=oo%%%%,,,,XXXXXXXX         ",
"         XXXX#o.===oo%%%%,,,,XXXXXXXXX          ",
"             Xo.*oo%%X,,,,XXXX                  ",
"              ooo%#,,XXXXX                      "};
