/* XPM */
static char * image_name[] = {
"40 47 20 1",
" 	c None",
".	c #D0D0BABAAFAF",
"X	c #EDEDD5D5ABAB",
"o	c #BDBD9A9A8F8F",
"O	c #ACAC9F9F9797",
"+	c #E4E4DFDFD4D4",
"@	c #AEAE8A8A6666",
"#	c #717165655151",
"$	c #8F8F61615D5D",
"%	c #717145454141",
"&	c #4B4B2C2C2A2A",
"*	c #303020202020",
"=	c #4F4F45453030",
"-	c #97976C6C5151",
";	c #262626262626",
":	c #4C4C49494141",
">	c #616145453030",
",	c #626265656262",
"<	c #020202020101",
"1	c #212115151414",
"                               .XXoO    ",
"                             .+X.o@#o   ",
"                           .XXoo@@o$%   ",
"                         .XX.o@@@@o@&   ",
"                       .XXo.@@@@@oo.*   ",
"                     .+X.o@@$@@@oO.o*   ",
"                ++o#=$Oo@@-$@@oooooO*   ",
"               +$OX+.;:@$#$@o@oooooo*   ",
"               +XXo.+->--@@@o@ooo@@o*   ",
"             .+X.o@@-o;#--@@@o@@@@@o*   ",
"           .XXo@@@--$.;-@@@o@@@@@@@@=,  ",
"         .XX.o@@$#$--.*@@@@@@@@@@@@@:,  ",
"       .XXo.@@---$-$@.*@@@-@-@@@@@@o-:  ",
"     .+X.o@@$#-,-#@$-+*--@--@@@@@@ooO;O ",
"   .XX.o@@-$>%%-$#-$-.*----@-@@@@@ooo%# ",
" .XX.o@@$##:#:$#-##@-.*---@-@@@@@ooo.@:$",
"..++o@@-#%%%%-#-#---#X*----@-@@@@o.o@@$:",
"+O<*+-#:#:#:######$#-+&---@@@@@@@@oo@#::",
"+:<<:.:>#>#>%#%>%-#-$+*--@-@@@@@@@@:&,, ",
"+=<<&+::%:%:%:#%##-#-+*@---@@@@@@#;;,   ",
"+>1:;+>:>%>%#>%%%$$-=+<+@@-@@@->&*>*    ",
"+=<#1+:>::::%:#%###-*<@X--@@->=;=#-;    ",
"+#<-1+=:>:>%:#%-#---&+1-@-->&&>>--@*    ",
"+=1#1+:>:=:#>:##$#---+*-->&;=:-#@@@*    ",
"+>1-1+&&>>>:>%%-#-$--X*=**=>$%-@@@@*    ",
"+=1$1+&:&=:>::%>$#-##X**&:>#-@@-@-@*    ",
"+:;$1+=&&&>>>:>%>%>:*.;>%%@-----@@@&    ",
"+=1O1.%>&:&=:>::#;*;;.*:----@---@@@*    ",
"+>*O1o-&=&&&>>=&&1&>>.;--------@@@>&=,  ",
"+=1O*@@>&:&:&;*;;>:>-.*------@@--><1:,, ",
"+:*o*-@&:&&&*;&&>:#-$.*------@-><<;::,OO",
"+>*O&;o>&;***=::-#$#-o*------><<;:::,,, ",
"+>&O*&$:1*&&=>%$%%>-$o*---$><<;:::,,,OO ",
"+=*.*;1;&;&>%%>%#$-#-o*-$*<<;:;:,,,O,   ",
"+:*.&&*&&&>%%%%%>-#$-@*><<;:::,,,,O     ",
"+=*.:=&=:#:#%:%%##-##@<<;:::,,,OO       ",
"+>;.>:>:>%>%>%%%%%>**-<:::,,,O,         ",
"+=1+:>:=::::%%%::*<<;<;:,,,O,           ",
"+:1.>>=:>%>%%%>&<<;:::,,,,O             ",
"+=1+&>:>::%>:*<<1:::,,,OO               ",
"+>1+=>>%>:>&<<;:::,,,O,                 ",
"+=<+:::>:*<<;:::,,,O,                   ",
"O:<+>%=&<<;:;:,,,,O                     ",
"&;<O&*<<1:::,,,,O                       ",
" &&<<<;:::,,,OO                         ",
" ,:::,:,,,,,O                           ",
"   ,,,O,O,O                             "};
