/* XPM */
static char * image_name[] = {
"48 48 20 1",
" 	c None",
".	c #A8A8AAAAACAC",
"X	c #666666666666",
"o	c #676755555555",
"O	c #58585D5D6464",
"+	c #515150505151",
"@	c #111111111111",
"#	c #181819191D1D",
"$	c #292929292F2F",
"%	c #2F2F2B2B4848",
"&	c #464633336868",
"*	c #444444443333",
"=	c #444431314848",
"-	c #000000000000",
";	c #FFFFFFFFFFFF",
":	c #444433333333",
">	c #333333336666",
",	c #333344444949",
"<	c #333344443333",
"1	c #CFCFFFFFF5F5",
"    ......XXXXXXXXXXXXXXoOo++++++               ",
"   .@@@#@$%%+&*=*=*%*$$$$$#$$###-               ",
"   .@##...OO+*=*=*=*=*oXXX....@#-               ",
"   .#&#--------------O--O.;;;-$#-               ",
"   .#$-$$$%$%%%%%%%%%$%$%--+.;;$-               ",
"   $$+-%%%%%%%%%%%%%%%%%%%$--O.;;;              ",
"   .O:-$%%%......OOOOXXXXXXXX-O..;+++++         ",
"   .%+-%%.$$#####%++*>*%,%<$$$-O..;+.;;         ",
"    &o-%%.#$$...OO+*=*=*=*=*oXX-OO.;.;;O        ",
"   .oo-&###=#--------------------...;..O        ",
"    &o@%&1=$-$%$%$%%%%%%%%%%%$%$%,OO.;;O        ",
"  O.&X-&$$$+-%%%%%%%%%%%%%%%%%%%,1.XXO.;O       ",
"   OoX@%&.o:-$%%......XXXXXXXXXO1;;,@-O.;++++   ",
"   .oX-&>.%+-&@@@@@@@$%=,&*=*=+;;,,-+O-O.;OOXO  ",
"    &X-%%X+o-%&1$##...OO+*=*=+;1..-XXXO-OO.;;.O ",
"   .oX-%&+++->%.#=$---------O.1.O-%-@---OO.;;;.+",
"    &o@$%.+O-%%.$$-$$$%$%%++....-$%$%$%-OO...;;-",
"  <.oo-%%X+X-&$$$+-%%%%%%+o;.o+-%%%%%%$+-OO...- ",
"   <&+-$%.=X-%&.&*-$%%%%+o...+->%%%%%$%$--OOO#  ",
"   $$+OO..+X->>.++-%%%%+o..+o-%>%>%%%%%%$-@O@   ",
"    &==+%XOX-%%X=+-%%%+o..*o--=>=%>%%%%$%---@   ",
"   &::$=,.+X-%$.++-%%+o..+o--&%&%>%%>%%%%-$$-   ",
"   o@----X+O-$%%XO-%Oo..*o--&&&&&>=%%%%%%-*$-   ",
"         +++-%%.+X-+o..oo--&O&>&%>%>%%%%%-*$-   ",
"         .$o-$$.=X+o..*o--&O&&&+&>=%%%%%%-=$@   ",
"         X$+OO..++o..oo--&&&&&,&>=>>&%%$%-<%-   ",
"         O$$++%X+o..*o--&>&&&>&,=>=$%%%%%-:$-   ",
"   XXo---O$$$%+oo..oo--%>>,&,&,&%>%>%%%%$-*$-   ",
"  ....---+--@;+o..*o--%%%%>%&%>$>$%%%%%$$-$*-   ",
" ..OO......o+o;..oo--%%%%%%%>%%%%%%%%%#%$-$$-   ",
" $=>&$%$=,=.X+o;.*--%$%%%%%%$%%%%%%$%$%#%-$$-   ",
" ##$$$$$$%;+.o+o---.XXXo,+$+,+$+,*+X+.....$$-   ",
" =++OOOXXOo;..o---=%OOXXXXXXoXXOo+++%$$$%@##-   ",
" ##$$$$%.o+o;.+---$=+&+OOoXoOO+++++*,=$$#$##-   ",
" ##$#$$;+.o+o--o-----------------------------   ",
"      +o;..o---....XXXX--------------+O+O       ",
"      o+o;Xo---<%$+OOO&O#@###@###@##+$$$$       ",
"     +.ooo@-+%$%,%,%%%$*,=<:<=<:<=<+$###@+      ",
"   Oo;..*---XXXX.XXXXXX++o+O+o+O++++o+=$%       ",
"   o+o;.o---$%%X&O@@@@X-------------------++$   ",
"  o.ooo--o$$$$...X------------------------oO++$ ",
" o:..o---    .........O.O.OOOOOXOo+O++Oo++O++++ ",
"Xo..:o---    $$#%$%%=,O,++&XXO&++++=++$+=$%$$$$ ",
"XoXoo-+      ##%#$%$$%,%,%%%%%-%$$$$#$####$#### ",
"X@oo--       =&+OOOOOOO..OOOO@--OOO+&O++++$,=$% ",
" X--o        ##$$$$%>+>$$%%++%-%$$$$$$########@ ",
"             ###$$$$=$=%%*%$%$-$$$$$$#$#$@###@@ ",
"                                                "};
