/* XPM */
static char * image_name[] = {
"48 48 18 1",
" 	c None",
".	c #696975757979",
"X	c #505054546B6B",
"o	c #696971719696",
"O	c #111117172A2A",
"+	c #181820204141",
"@	c #25252C2C5151",
"#	c #2D2D35356B6B",
"$	c #383845458E8E",
"%	c #303041417979",
"&	c #595961619E9E",
"*	c #D3D3D1D1D6D6",
"=	c #F1F1EDEDF1F1",
"-	c #454550509292",
";	c #90908F8FA9A9",
":	c #181820203838",
">	c #79797D7DA6A6",
",	c #868686869696",
"                                                ",
"                                                ",
"                                                ",
"                                                ",
"                                                ",
"                   .XXXXXXXoo                   ",
"                 OOOOO+@@@@++@XX                ",
"               OO@@#$$$$$$$$$$$$#X              ",
"             #OOO@@#$$$$$$$$$$$$#XX             ",
"           @@O@@%$$$&&*=**&$$$---$$X            ",
"          +OO#$$$$$$**=***;%%-------XX          ",
"          +OO#$$$$$$**=***;%%-------XX          ",
"        @@O##$$$$$$$==*****::--------->         ",
"       XOO#$$$$$$$$$******,OO----------         ",
"       XOO#$$$$$$$$$******,OO----------         ",
"       O++$$$$$$$$$$&&;*,,:::----------oo       ",
"      XO##$$$$$$$$$$$$%:OO:%%------------       ",
"      XO##$$$$$$$$$$$$%:OO:%%------------       ",
"     @@+$$$$$$$$&==========--------------;      ",
"     OO#$$$$$$$$&$$O*******OO------------&      ",
"     OO#$$$$$$$$&$$O*******OO------------&      ",
"     OO%$$$$$$$$$$$-==*****OO-------------      ",
"     OO$$$$$$$$$$---==*****OO-------------      ",
"     ++$$$$$$$$$----==*****OO-------------      ",
"     ++$$$$$$$$$----==*****OO-------------      ",
"     ++$$$$$$$------==****=OO-------------      ",
"     OO$$$$$$-------==**===OO-------------      ",
"     OO$$$$$$-------==**===OO-------------      ",
"     ++$$$$---------==*====OO------------>      ",
"     XX%$$----------=======OO------------       ",
"     XX%$$----------=======OO------------       ",
"       @------------=======OO------------       ",
"       X------------=======OO----------         ",
"       X------------=======OO----------         ",
"        ##----------=======OO---------&         ",
"        ,,-------=============------&&          ",
"         ,-------=============------&&          ",
"          o--------OOOOOOOOOOOOO---&            ",
"             &-------------------oo             ",
"              -------------------oo             ",
"                &-------------&&                ",
"                    >>>->>;                     ",
"                                                ",
"                                                ",
"                                                ",
"                                                ",
"                                                ",
"                                                "};
