/* XPM */
static char * image_name[] = {
"48 46 20 1",
" 	c None",
".	c #050506060303",
"X	c #28281E1E1313",
"o	c #46462C2C2222",
"O	c #86865F5F2E2E",
"+	c #95956A6A4646",
"@	c #96965E5E4848",
"#	c #BEBEA4A48686",
"$	c #D3D3ACAC8989",
"%	c #68684B4B2E2E",
"&	c #5C5C4F4F2626",
"*	c #6D6D50504141",
"=	c #9D9D83834B4B",
"-	c #B4B48C8C5E5E",
";	c #D9D9ABAB5E5E",
":	c #D5D525251717",
">	c #A6A697970C0C",
",	c #D9D9B9B91212",
"<	c #9E9E1A1A1111",
"1	c #595918181111",
"                                                ",
"                      ..                        ",
"                  ...Xo.                        ",
"             ...XXoO+++o      X..               ",
"         ...XooO+@+O@O+o.    .#$%..             ",
"     ...Xo&@+@+@+@O+@O+%.   .*$$$#o..           ",
" ...o&@@@O@O+O@OOO@%@%@=%   .$$$$$$-o..         ",
"  X@O@O@+*++O+*@%@%@%+=;;% .=$$$$$#$#-o..       ",
"  XO@O+*@OO%@%@%O%@&O=;::;&o$$$$$$##-#-=o..     ",
"  .%O+%@%O*@%+%***%*>;::::;$$$$$$$-#;#-#-+o..   ",
"   X@%+%@*O%@%O%%*%=;::::::,$$$$##;#--#----+o.. ",
"   .%**%%**%%%%*%*>,::::::::,;$#;##-#--#----=+oX",
"   .o%*%O%%%%*%&O>,::<:<<:<::,;#-#------+=#*+-+.",
"    X*%*%*%%%O%&=,:<<<<:<<:<@:,;;#-#-#-=#-+-=+X.",
".   .&%%%&O%%&%>,<<<:<<<<<<<<<<,;-----==+=+++&. ",
".X. .o%%%%%oXXO,<<<<<<<<<<<<<<<<,;--#+#+#-=-*.  ",
".X%X..%&oXXo%O,<<<<<<<<<<<<<<<<<<,;-==#*++++X   ",
" .X+*X.Xo&o&&,1<1<1<1<<<1<<<<<<<<<,=#-+-+#+X.   ",
"  .X+++oXooo>,>,,,<<1<1<<1<1<<,,,,,,*=++++o.    ",
"   .X+-+%XooXooX&>11<11<1<1<1<>=*=+=&*=++@.     ",
"    .X+=++XXoXoX&>1<11<11<1<11>O+O+*+*%o*X      ",
"     .X+-+=XXXXXX>11111111111<>O*O*O****Xo.     ",
"      .X++++oXXXo>111111<11111>&%%%%oX&*-=o.    ",
"      XoX+-+=%.XX&111111111111O%&oX&+=---++o.   ",
"      Xo%X+=++@.XO1X111X111111&Xo+----+=+-++o.  ",
"      .%o%X%++=+X&X1.1XX1X1XX&O----+-+-+-+-++o. ",
"      Xo%%%%oX%++X1XXX1X1.o%-----=---+-+-+++++o.",
"      .&o%%%%O&Xo%oXXXXo%-------=---+-=+=+=+=+@.",
"      Xo%%%%O%@%@&XXX%+-;--;-=-=-=:=-+-+++-+%o. ",
"      .%o%%*%@%++++@o;;-----------=-=++-++%X.   ",
"      Xo%%%%%*OO++++@%---;@-:--:-+-+-+=+1X.     ",
"      .o&o%O%@+*++++-X@;---;-=--+-=++OoX..      ",
"       .o%%%O%@O++++#XX+---+--+>-++OX.X.X.      ",
"        .o%*%O*O++++-XX1----=-+-+1X.XX.X.X      ",
"         .%%O%@O++++$X1X%+--:=@1XXXXXXXXX.      ",
"          .%%*+O++++-oX1XO-=*XXXXXXXX.X.X.      ",
"           .%%@*++++$ooooX1XXXoXXXXX1XX...      ",
"            .%*O+++=-XooooooooXoXoXXXX..        ",
"             .%O++++;ooooXooXooooXoX..          ",
"              .%++++-o&o&o&oooooXX..            ",
"               .%=++#&o&oooooooX..              ",
"                .@+=-%oo&o&o&X..                ",
"                 .@+#&o&o&oX..                  ",
"                  .+-%&%&X..                    ",
"                   .+%%o..                      ",
"                    Xo..                        "};
