/* XPM */
static char * image_name[] = {
"48 48 60 1",
" 	c #0000FFFF0000",
".	c #9696A2A2A6A6",
"X	c #515151517171",
"o	c #515151516161",
"O	c #616161618686",
"+	c #616171718686",
"@	c #717171719696",
"#	c #696969699696",
"$	c #868682829696",
"%	c #797979799696",
"&	c #9696A2A2B6B6",
"*	c #E7E7E7E7E7E7",
"=	c #000000002020",
"-	c #000000001010",
";	c #303034344141",
":	c #202020203030",
">	c #303028284141",
",	c #414141415151",
"<	c #202030303030",
"1	c #202020202020",
"2	c #515161616161",
"3	c #D7D7D7D7D7D7",
"4	c #CFCFD7D7CFCF",
"5	c #717171718686",
"6	c #616151516161",
"7	c #616151517171",
"8	c #C7C7C7C7CFCF",
"9	c #303020203030",
"0	c #E7E7D7D7E7E7",
"q	c #D7D7E7E7DFDF",
"w	c #969682829696",
"e	c #515161617171",
"r	c #616161617171",
"t	c #868686869E9E",
"y	c #717161618686",
"u	c #616171717171",
"i	c #717161617171",
"p	c #E7E7D7D7D7D7",
"a	c #868671719696",
"s	c #717182828686",
"d	c #D7D7D7D7E7E7",
"f	c #717182829696",
"g	c #9E9EAAAAC7C7",
"h	c #868692929696",
"j	c #96969292A6A6",
"k	c #969692929696",
"l	c #96969A9A9696",
"z	c #202020204141",
"x	c #86869292A6A6",
"c	c #B6B6B6B6B6B6",
"v	c #96969696B6B6",
"b	c #080808081010",
"n	c #B6B6AEAEE7E7",
"m	c #9696AAAAA6A6",
"M	c #101020202828",
"N	c #202010103030",
"B	c #101010103030",
"V	c #101010102020",
"C	c #080808082020",
"Z	c #202010102020",
"                                                ",
"        .XoXoXoO+@+@#$%$$$%@#@+OoXoXoXoX.       ",
"       .XoooXoooXoooXoooXoooXoooXoooXo%oX       ",
"      .&oXoX****oXoXoXoXoXoXoXoXoXoXoXo$o&      ",
"     .*.oooo*ooo*oo**oo*ooo*oo**oo*o*oo$oo      ",
"oXoXo&*&oXoX*XoX*X*Xo*o*o*o*o*oX*X**oXo$oX.X.XoX",
"=---=**.Xooo****Xo*oX*o*X*o*X****o*oXoo$Xo;-=---",
"-=-=o**&oXoX*XoXoX*Xo*oX*X*Xo*oXoX*XoXo$oXo:-=-=",
"----.**.oooo*oooooo**ooo*o*ooo***o*oooo$o>o,----",
"-=-=*&*&oXoXoXoXoXoXoXoXoXoXoXoXoXoXoXo$o>o;<=-=",
"=--o*%*.XoooXoooXoooXoooXoooXoooXoooXoo$o1;o;---",
"-=-&*@*&oXoXoXoXoXoXoX234X2XoX2XoXoXoXo$,=;X;=-=",
"---*.5*.oooooooooooo6o748272727272726oo$o-9>o1--",
"-=o0.5q&oXoXoXoXoXow43e34r43treOrOeOe7o$o=-;o>-=",
"=-.3$r0.XoooXooo728383r38r8333yryuyryro$X--:;o--",
"-=*&+Oq&oXoXoX2X2343tO+345+w4335+@5@+@o$o=-:;X-=",
"--*.i5p.oooooo72833ry55335@5a333asasa5o$o---;o--",
"-=q$u@q&oXoXoXew43uy+@5d3afa%$3dg$f$fao$o=-=<X-=",
"=-05r%0.XoooX2738hy555a33%w%whg33hw%$5y$X---:<--",
"-=.5u$*&oXoX27e34y+55@f33$tjkjld3jkjh$+$o=-=-z-=",
"--jr5.*.oooo7rr38555a%$3pkjlj.j3pkjkk5y$#----<--",
"-=sOt&*&eXoXeOr3355@f$tdqj.j.&.dq..jkk+t#=-=->-=",
"=-yrw.*.7ooo7ry335af$hkkj.j....30.j.j5y$t---=<--",
"-=u5h&*&eXoreO+34wf$tj...&.&.&8dq..jtt+tx=-=-z-=",
"--r5w.*.yo7ry55h33$hkkj.......03c.jll$y$v----<--",
"b=+@t&*&+7eO+55@3d3j...&.&.&.dqd...jkt+tg=-=->-=",
"=-y%j.*.y2yry5af$3p3c......8030...j.j$y$n---=<--",
"-=tj.&*&urr5+@f$tjqdqdqdqdqdqd.&.&..kt+.g=-=-z-=",
"--$lj.*.y2au55ahkl.cp303p303c...j..lj$t.*----<--",
"-=.&.&.*ure@5%%j...&.&.&.&.&.&.&.&.jt$$*.=-=->-=",
"=-.....*.r7+%%ll..................j%j%j*.---=<--",
"-=.&.&t&**o.l.mgm&.&.&.&.&.&.&.&.&t.h0*&o=-=-z-=",
"--...kwoo.**cccc*******************q0..o9----<--",
"-=.&.wfX,:-=-=-=-=-=-=-=-=-=-=-=-=-=-=-=-=-=->-=",
"=-..jhyo,M--=---=---=---=---=---=---=---z---=<--",
"-=.jtwo,;N-=-=-=-=-=-=-=-=-=-=-=-=-=-=-B<B-=-z-=",
"--.kw%o;,1-----------------------------VNV---<--",
"-=.&tO,,<:-=-=-=-=-=-=-=-=-=-=-=-=-=-=-BMN-=->-=",
"=-.tar,>>M--=---=---=---=---=---=---=--VNMN-=<--",
"-=.kfOo,<N-=-=-=-=-=-=-=-=-=-=-=-=-=-=-BMNMV-z-=",
"--.hioo;91=-b-=-----------------------NVNMBb-<--",
"-=tauXo,<:-=CzC=-=-=-=-=-=-=-=-=-=-=-=VBMNV=->-=",
"=-wfOo,>>M--CMNVC---=---=---=---=---CbNVBMN-=<--",
"-=fOoX,><:-=bBM:VBC=-=-=-=-=-=-=-=-=bBMBMz<B-z-=",
"--ar,o,>>:--CVNMN:NVZ-C---=---------bVNVN:zV----",
"-=-Oo,;zM:-=-NM:::MNMBMBMB-=-=-=-=-=-=VBMz:B-=-=",
"=---oo,:NM--=-NV::N:NMN:N:N:NMNV=---=-N-B:>VX---",
"-=-=-=M:M:M=-BMNMBMNMB-=-=-=-=-=-=-=-=-BMX<X-=-="};
