/* XPM */
static char * image_name[] = {
"48 48 20 1",
" 	c None",
".	c #DFDFECECEBEB",
"X	c #FFFFFFFFFFFF",
"o	c #C8C8BBBBC9C9",
"O	c #ACACAEAEB0B0",
"+	c #BBBB22223333",
"@	c #242417172222",
"#	c #D5D5D7D7D7D7",
"$	c #EEEEEEEEF1F1",
"%	c #D2D29F9F6C6C",
"&	c #000000000000",
"*	c #666666666666",
"=	c #555550506666",
"-	c #888800001111",
";	c #0F0F09091111",
":	c #47472B2B2D2D",
">	c #444433334B4B",
",	c #484849494949",
"<	c #CACA55552929",
"1	c #BBBBCCCCBBBB",
"                                                ",
"  .XXXXXXXXXXXXXXXXXXXXXXXXXXXXXXXXXXXXoO+@##O  ",
" .$$$.$$$.$$$.$$$.$$$.$$$.$$$.$.##.#XX%++@&*#O= ",
" X.$.$.$.$.$.$.$.$.$.$.$.$.$.....#.$X%++-;*OO:: ",
" X$.$$$.$$$.$$$.$$$.$$$.$$$.$.#.#.$Xo++-&:****> ",
" X.$.$.$.$.$.$.$.$.$.$.$.$.....#.#X#++-;:*,##@@ ",
" X$$$.&&&&&&&&&&&&&&&&&&&&&&&&&&:$$+++;;@=*OOO@ ",
" X.$.$;*********OO**OOOO**OO****OX+++:;::OOOo@@ ",
" X$.$$&$=*=OOOOO==OOO===OO==O==OXO++-&::>OOOOO; ",
" X.$.$&==OO====OOOOOOOOO:OOOOOO$#+++;@>>,#OO#@@ ",
" X$$$.&****OOOO=OOOO=OOOOO====oX<++;;:>,*.1Ooo; ",
" X.$.$;=OOOOO*OOO*O*OOO=O=OOOOXO++-&::,=*XOOO=; ",
" X$.$$&&OO==OOOOOoOOOOOOOO*OO#$++-&:>,=**X1OOO; ",
" X.$.$;OO=OOOOOOo#$oO=OOOOOOO$<+-&@>,,*=OXOO#;; ",
" X$$$.&&OO=OOOOo$$O+>OOO=O=O$o++;@:,,=**=$oOOO@ ",
" X.$.$;OO=OOOOo$o+++:=OOOOO$#++-&,,,*>>>XXOOo;; ",
" X$.$$;;OO=OOOo#+++++:=OOOo$+++&:>,,,OO*>.OOOO@ ",
" X.$.$;OO=OOOO.++++++->O=O$o++;@>,>OO=*>$$OOO=; ",
" X$$$.;;OO=O=OO=%++++-@=Oo#++-;:,,===***=.O..>; ",
" X.$.$;OO=OOOOOo#+++++->O$<++;@,,**===OO>.OOO;; ",
" X$.$$;$>O=O=O=oo%++++->#$++-&>,,**O*****XOOOO; ",
" X.$.$&===O=OOOOo#++++++$++-&:,,*===OO>>XXO===; ",
" X$$$.&$=*O=O=O=Oo<++++++++@&,>==O******=.OOOO& ",
" X.$.$&=*=O=O=O=OO$+++++++-&:,=***O=====O$OO==; ",
" X$.$$&&O*=O=O=O=Oo+++++++;@>,=*****OOO*=XOOO=; ",
" X.$.$;O=O==O=O=O=##+++++-&:,,*=OOO===*>..OOO;; ",
" X$$$.&;O==O==O=O=*o+++++;@,>=**==******=..===> ",
" X.$..;OO=O==O==*=OOO+++:;,>*=====OOO==$*$*O#;; ",
" X$.$.&*===O==O=O===*;&&;::,==OO**==*==*=XO*O*@ ",
" X...#&=OO==O=********=,,:,=***=====OO>>..OO==& ",
" X$.#.&&&O==*O=O=O*****==,=****OOO*****O>$$,O,; ",
" X.#.#;Oo=O*O===*=OO*********************.*O==& ",
" X#.#.O$$$$$$$$$$$$$$XXXXXXXXXXX$XXXXXXXXXO*O>& ",
" X#.######oooo#oooOooOOOOOOOOOOOOOOOOO===**O*=& ",
" X#######o#1o1oOoOoOOOOOOOOOOOOO&oo***=, o**O>& ",
" X#.######1#1o1oOoO1OOOOOOOOOOOOOO*OOOOOOOOO*,& ",
" XOO==**********>******======>>====,>,>,=>>>>,& ",
" *&&&;;;;;&;&;;;@;;;;;;;&&&&&&&&&&&&&&&&&&&&&&& ",
"           X*,=,=@oOOOO==,>>@@@@>:>>>           ",
"          XO*****========,>>@@@>=**O@@          ",
"         X#*OOO**OO==*=>>>>>>====OO*OO@         ",
"        XXOO*OOOOOOOOOOOOOOOOOO1OOOOOo@@        ",
"       XXXXXX..$$$.XXX$$$$.$$$XX$X.XXXXX&       ",
"       XOOOOOOOOOOOOOOOOOOOOOOOOOOOOOO=X&       ",
"       XOOOOOOOOOOOOOOOOOOOOOOOOOOOOOOO*&       ",
"       ;&&&&&&&&&&&&&&&&&&&&&&&&&&&&&&&;@       ",
"                                                ",
"                                                "};
