/* XPM */
static char * image_name[] = {
"48 48 10 1",
" 	c #000010101313",
".	c #F4F4F5F5F6F6",
"X	c #00003E3E4949",
"o	c #5D5D90909D9D",
"O	c #030356566262",
"+	c #9494B0B0B9B9",
"@	c #B0B0CBCBD0D0",
"#	c #272783839797",
"$	c #7F7F83837F7F",
"%	c #67677F7F7F7F",
"                                                ",
"                                                ",
"                                                ",
"                                                ",
"                                                ",
"                                                ",
"                                                ",
"                                                ",
"        .......   XXXXXXXXXXo.........          ",
"         XO..... XXXXXXXXXXXX X+...+X           ",
"    XXXXXXX ....+XXXXXXXXXXXXXXXo.. XXXXXXX     ",
" XXXXXXXXXXX@....oXXXXXXXXXXXXXXX.@XXXXXXXXXXXX ",
"XXXXXXXXXXXXO.....@XXXXXXXXXXXXXX.+XXXXXXXXXXXX ",
"XXXXXXXXXXXXX.@....OXXXXXXXXXXXXX.+XXXXXXXXXXXX ",
"XXXXXXXXXXXXX.Oo....OXXXXXXXXXXXX.+XXXXXXXXXXXXX",
"XXXXXXXXXXXXX.OXo....OXXXXXXXXXXX.+XXXXXXXXXXXXX",
"XXXXXXXXXXXXX.OXX+....OXXXXXXXXXX.+XXXXXXXXXXXXX",
"XXXXXXXXXXXXX.OXXX@....XXXXXXXXXX.+XXXXXXXXXXXXX",
"XXXXXXXXXXXXX.OXXXX.....XXXXXXXXX.+XXXXXXXXXXXXX",
"XXXXXXXXXXXXX.OXXXXX.....XXXXXXXX.+XXXXXXXXXXXXX",
"XXXXXXXXXXXXX.OXXXXXX.....XXXXXXX.+XXXXXXXXXXXXX",
"XXXXXXXXXXXXO.OOOOOOOO.....XOOOOX.+XXXXXXXXXXXXX",
"XXXXXXXXOOOOO.OOOOOOOOO....@OOOOX.@OOOOXXXXXXXXX",
"XXXOOOOOOOOOO.OOOOOOOOOO....+OOOO.@OOOOOOOOOXXXX",
"OOOOOOOOOOOOO.OOOOOOOOOO#....+OOO.@OOOOOOOOOOOOX",
"OOOOOOOOOOOOO.OOOOOOOOOOOo....oOO.@OOOOOOOOOOOOX",
"OOOOOOOOOOOOO.OOOOOOOOOOOO+....#O.@OOOOOOOOOOOOO",
"OOOOOOOOOOOOO.OOOOOOOOOOOOO@....O.@OOOOOOOOOOOOO",
"OOOOOOOOOOOOO.OOOOOOOOOOOOOO......@OOOOOOOOOOOOO",
"OOOOOOOOOOO#+.+ooOXX      X X$@....#OOOOOOOOOOOO",
"OOOOOO#ooXX X.O                      X@oo#OOOOOO",
"OO#oO       +..                           X%o#OO",
"O          X...+                              Xo",
"         .........+                             ",
"                                                ",
"                                                ",
"                                                ",
"                                                ",
"                                                ",
"                                                ",
"                                                ",
"                                                ",
"                                                ",
"                                                ",
"                                                ",
"                                                ",
"                                                ",
"                                                "};
