/* XPM */
static char * image_name[] = {
"48 48 20 1",
" 	c None",
".	c #E9E9E9E9E9E9",
"X	c #D5D5D2D2D5D5",
"o	c #B4B4B5B5B4B4",
"O	c #676767676767",
"+	c #000000000000",
"@	c #515161616161",
"#	c #212126262929",
"$	c #2F2F2B2B4E4E",
"%	c #414130305151",
"&	c #414134346E6E",
"*	c #303041416161",
"=	c #9E9E9A9AA6A6",
"-	c #414141414141",
";	c #4B4B46466666",
":	c #616151518E8E",
">	c #8C8C88888C8C",
",	c #3838A2A24141",
"<	c #E7E7CFCF5959",
"1	c #B0B06E6E2323",
" ...........XXXXXXooooooOO                      ",
" .X.X.X.XXXoXoXooooXooooOOO                     ",
" ..XXoXooooXooooooooooooOOOOO                   ",
" .Xo++++++++++++++++++oo@OO@O                   ",
" ..o#$#$#$$$$$%%$$$$$$oo@O@@@                   ",
" ..o$#$$$$$$&*&*&$&$$$o=OOOO@                   ",
" ..o#$$$$&-%&&;&;&;%%&oo@O@-O                   ",
" ..o$$$$%&&&;&;@;*&;&*o=OOOO@                   ",
" ..o$$$&&;;&;&;&;&&&;%oo@O-O-                   ",
" ..o$$&*&@&::::;&O;;&;o=OOOOO                   ",
" .Xo%%%;;;;:::::@&;;;&ooO@O-O                   ",
" .XX$$%&;@&@:@&;&O;&;*oo@OOO@                   ",
" ..o$%%&;;;&:&:&:;&;;@o=OO-O-                   ",
" ..o$$&*&&;@&@;@;@;:O;ooOOO@O                   ",
" ..o&%$&;&;;;;;;;;.......X..XXXXXXXoooooooOO    ",
" ..o$$$*&;&;&;&;@:.XX.XX.XXoXXoXooooXoooo=OOO   ",
" ..o%$$%$&&%;&;;:@.XXXXoooXooooooooo======OOOOO ",
" .Xo$$$*$$&$&*;@;:.Xo+++++++++++++++++++==OOO@O ",
" ..XXXXXXXXooXoXoo.Xo#$#$#$$%%$%%%$$$$$+==@O@@@ ",
" ..XXXXXXoXXoooooo.Xo$$#$$%$$&*&*&$&$$$+==O@OO@ ",
" ooXoooXooooXoXooo.Xo#$$$$%-%&&;&;&;%%&+==OO@-O ",
"         XoooO;   .Xo#$$$&&&&;&;@;*&;&*+==@OOO@ ",
"     ====X==OO@@@@.Xo$$$&%;;&;&;&;&&&;&+==OO;-O ",
"   ==ooXXooO>OOOOO.Xo$$&*&@&::::;&O;;&;+==@OOO@ ",
" ==oooooooooo==>>>.Xo$%%;;;;:::::@&;;;&+==OOO-O ",
"o...X.XXXXXXXXoooX.Xo$$%&;@&::@&;&O;&&;+==O-OO@ ",
"XoooooXooooooooooo.Xo$%%&;;;&@&:&:;&;;&+==OOO-O ",
"XoX,,,ooooooooo=>=.Xo$$&*&&;@&@;@;@;;&;+==OOOO@ ",
"Xoo,,,o=oo=oooOOO@.Xo$%$&;&;;;;;;;;%&;&+==@O@-  ",
"XoXooooooooo=oooXX.Xo$*$*&;&;&;&&;;&*&*+==OOO   ",
"Xooooo=oo=oooooooo.Xo$$$%$&&&;&&&;&&%-&+==@OO   ",
".oooooooooooo=o=oo.Xo$$$$*$%$%*&*%*&$&$+==O@O   ",
"=======>==========.Xo=oooo================OO    ",
" OOO@O@OO@@O@O@OOO.XoXXooooooooo==========@O    ",
"         oO@#     oooooooooXoooo==>=>=>=>=O     ",
"         oO@#              XXoooO@              ",
"         X>O#          ====Xo==OO@@@@OOOOOOOOOOO",
"         X>O#        ==ooXXo==O>OOOOO>O>O>>>>=OO",
"         X>O#      ==oo=o=oooooo=>O>>>>>>>>>O@O@",
"         X>>#     o.X.X.....oXoo====>>>OOOO@O;@@",
"        <<<<<<1   XoXoooooooooooooooo=ooo==@-O-O",
" XXXXXX<<<<<1o.XXXXoo,,,ooooo=ooo=>>>=>====@OOO@",
"=>>>>>>11111>>>>>>XoX,,,ooo=ooo=OOO@O@@OO==O-@-O",
" ######111111#####.oooooo=ooooooooXXXXXoo=>O-OO@",
"        111111#   Xoooooooo=ooooooooooooo==@O-O-",
"                  Xoooo=o=ooo=o=o=oo=oooo=>O-OO@",
"                  ========================>OO-  ",
"                   @@@@@@@@@@@@@@@@@O-O-@@O@    "};
