/* XPM */
static char * image_name[] = {
"48 48 11 1",
" 	c None",
".	c #FFFF6F6F6C6C",
"X	c #C1C1C1C1C1C1",
"o	c #878787878787",
"O	c #B7B728282828",
"+	c #5C5C5C5C5C5C",
"@	c #D3D3D3D3D3D3",
"#	c #FFFFE7E77979",
"$	c #000000000000",
"%	c #4A4ABDBD4040",
"&	c #FFFFAEAE0000",
"                                                ",
"                                                ",
"                                                ",
"                                                ",
"     .X.X..X..X........o..o..o.O.o.OOOoO.o      ",
"   .X.....X..X...X.o.o..oO.OoO.oO.+OoO.o.O.oO.  ",
" .X.X.X.X..o.X.XX.X.X....X....o.OOOoOoO.Oo.O.+. ",
".X..X.X.O+OOO.o.O.Oo..o.o..X.X.OoOoO.O.o.OoO+OOO",
".X@@#X.X.OO+O$$+$++$O$+O++OOo..X..Oo.oOOoOOOO+O+",
".X.@.X@.O+OOo$$O++O$+++$O$+++$...o..oO.oOO+O+OOO",
".XXXXX.X.O+OO$$+O++O%O++%O+O++OX...oO.oOO+OOO$O$",
".X.@.XX.OOOoO$$++$++$$+O$+++O%..o.o..oOO+OO$O$OO",
".X.@XX.X.+OOO$++O++O+O%+O+O$+Oo...o.O.+OOO$OOO$O",
"X.@.@.X.OOOoO$$+$O+$+$O$+++%O+.#.o..oOoO+OO$O$OO",
".X.@@X.XOoOOO$+++++O+++O+O$O+$..o.oO.O.O+O$O$O$O",
"..@@.X#.oOO.+$$$O$+$+$++$++++&o......oO+OO$OO$OO",
".XX.@X...+O+O$+O%O+O++O++O++$O.X.oOoO.OO+OO$OO$$",
".X.@@.X.oO+OO$++$++$+O$++++O%Oo..o..oOoOO$O$O$OO",
".XXX.@.X.OOoO$+O%O+O%O++O$O+O$#.o..o.OoOOO$OOOO$",
".X.X@XX..O+OO$++O++O+$+O+%O%O%...oO.O.O+OOO$O$$O",
".XX.@.X.oOOoO$&+O%O%O+O%$O+$OO#...o.oOoOO$O$OOO$",
".X.@XXX..OoOO+O++O+$O%$OO%O%O%.o.o..+.OOOO$O$O$O",
".XX#.X.X.OOOo.#.O#O.oO&%O+O++O...o.O.OoO+OO$OO$O",
".X.X+$...oOo.X..X..#..o...o...#o..o.oO+OOO$OO$OO",
".X.+$$+X.OOO..o..X..X...#...o.X..o.O.oOO+O$$O$O$",
"X.@$$$+..oO+$+++++OoOOo.oOo#.X..o.Oo.OoOOO$O$O$O",
".X.$$$$..O+O$O%O++++$+$$++O+O..XOOoO.+OO+O$OO$O$",
"X.@@O$OX.+OO$%OO%O+OO%O+O+++$o..o$++OO.+OOO$O$OO",
".X.#X.X..O+O$$$$+$+$+$O++O+O+.#o$$$+OoOO+O$O$O$O",
"..@@.#.o#OO+$&O%O++O$+$$$$$+$o..+$$$OOoOOO$$O$O$",
".XX.@.X..oOO$%OO%O%O%O%O%O++$...++$+OOO+O+O$O$OO",
"X.XX+$.X.O+O$&O%OO+OO%OOO%O%O..o.OOO+OoOO$O$O$O$",
".XXO$$+..oOO+O%O%O%O%O%O%OO++.X..o.o.O.+OO$O$O$O",
"..X+$$$o.o.X.#....O%OOO%O++O%...o.O.o.oOOO$$O$O$",
".XX.+O$...X.XX.X#X.#.X..o&.O.o#..+O+OO.OoO$O$$O$",
"o....Oo..X.X#.X.X.X.X#X.X.X@.X.o.$+$O+.+OO$O$O$O",
"OoO+.o..o...X.#.X.#.X..#.@.#X...o$$+$OoOOO$O$O$$",
" OOOOOO+O.o..o....X....X..X...o..++$+OO.+OO$O$$O",
"      oO.+OO+OO+O.O.o.o..o..o..o.O++O+.+OO$$O$O ",
"      X     O.+OO++OO+OOOO+OOoO.o.oOOOoOOOO$O$  ",
"                  .+OOoO+OO+OO+OOOO+OoOO+O$$O X ",
"                        @o..O+OO+O+OOOOOO$O$    ",
"                                .O+O+O$$O$O     ",
"                                  X X @X        ",
"                                                ",
"                                                ",
"                                                ",
"                                                "};
