/* XPM */
static char * image_name[] = {
"48 48 20 1",
" 	c #6C6C68686666",
".	c #050504040505",
"X	c #1B1B1D1D1F1F",
"o	c #FAFAFBFBFAFA",
"O	c #B8B8B8B8B8B8",
"+	c #7575DADAFCFC",
"@	c #B7B7CDCDB9B9",
"#	c #0E0E56560F0F",
"$	c #11119E9E5A5A",
"%	c #4C4C2A2A4A4A",
"&	c #4444B2B2F4F4",
"*	c #C8C8C6C6C1C1",
"=	c #D4D4DBDBD5D5",
"-	c #9E9E2A2AC8C8",
";	c #3C3C3E3EB0B0",
":	c #676728280202",
">	c #ECECD5D5AAAA",
",	c #BEBE62625151",
"<	c #FCFC9B9B4F4F",
"1	c #F5F55F5F0000",
"                                                ",
" ..X..X..X..X..X..X..X..X..X..X..X..X..X..X..X.o",
" X  O O+X @OO O O O  XXXX#.#X#X#X#X############o",
" . O$@ +XO@ OO@@ O O  #X..#.##.#####.##X#X#####o",
" XO$O @+X @@O @@@O @ O%%#X##.##.#.####X########o",
" .++++++++++++++&++&+&&$%X..#X#####X###########o",
" .XX#XX+#XXX#XX#.#.#..X.X.X.###.##Oo  @o #$@*##o",
" . @ O@+XO@O@O@@@O@OOOOO  %X.######oO#$o###O###o",
" X@@O @+.@O@O@@@O@O@OOO @O #%.##### @##oO## ###o",
" .@ @@O+XO@O@@@@@*@@@@@@OO  %X.#####o $@o#@####o",
" .O@@OO+X@O@@@**=*=@*@OOOOOO #%.####* @#o$ #$##o",
" . @ O@+X@@@@=@=@*=*=@@@@O@ O X%.###@o #@@@####o",
" X@@@@@+X@@@*=------=------@-%%%X.###o ##o#$#$#o",
" .O@@@@+X@=*=====o======@@OOOOO %XX##@###=##$#.o",
" .@OO@@+X@==@=-------=-----;--;-%%X.####$##$##.o",
" .@O@@@+X*======o===o=o===*=OOOOO %X##$###$#..Xo",
" .O@O@@+X=====---o : % :  : :=-%;-%%X.#$#$##.#Xo",
" .@@@=@+X=====o=o=%;;;;;;;;; =*OOOO %X#$###.XX%o",
" .O@@@=+X===o=---o &;&&;&&;&%=--O%%;%XX.##.XX# o",
" .@@@==+X==o=oooo=%&&&&&&&&& ==*=*OOO %%.XXXX  o",
" .*@=*=+X=o=o=-;-o%&&&&&&&&&%=---%*%;%%%#XX%   o",
" .@*===+Xo==o=oo=o +++++++++ o=====OOOO %%#   Oo",
" .=*=@=+X=oooo---> =oo==o=o= =-;--;-%%; O   O Oo",
" .@====+Xoo=oo=ooo $$$$$$$$$%oo==*==*OOOO   @ Oo",
" .=====+Xo=ooo---o% %    %  :o---o-----OOOOO @Oo",
" .@*===+X=ooooooooooooooooooooooo=o==*OOOOOO@OOo",
" X====o+Xooooo---------o--------o------@OOOOOOOo",
" X=====+Xoooooooooooooooooooooo=oo=o===@@@@@@O@o",
" X*===o+Xooooo----o------o-------------=@@@@@@Oo",
" X=====+Xooooooooooooooooooooooo=o=o===*=*@O@O@o",
" .===oo+Xooooo--,*>>>O>>O<*O>O>O>>OOO>O>>>>>>@<o",
" .=====+Xooo>*<>>>>>>>>>>>>>>><>>>>>>>>>>>>>>>>o",
" .*==o=+%>*>>>=>>><<<<<<<<<<<<<<<1<<<1<<<<<<<<<o",
" .======>=>*<*<O<111111111111111111111111111111o",
" .=O    ,,,<-<,,,<11111111111111111111111111111o",
" .@OO%XX:,,,,,,,1111111111111111111111111111111o",
" .=@*== X%:::::11111111111111111111111111111111o",
" .@====+XO %X%:X:::::::::::::::::::::::::::::::o",
" .=*===&.  %XXX.XX:::::::::::::::::::::::::::::o",
" .@*==*+.O  %%XX.XXXX.X.X.X.X.X.X.XX.XX.X.XX.XXo",
" .*@*=*&XO   %%XXXX.X.X..X.X...X..X....XX.X.X.Xo",
" .@@=*=+.OO@ O    %%%%X%X%XXX%XXXXXXXXXXXXXXXXXo",
" .*@=@=+X=**=@-%-%%% %%X%X%X%%X%X%%X%X%X%#%X%#%o",
" .@@@@@+X=====**OOOO O                         o",
" .O@O@=+X=====o===***OOOOOOOOOOOOO OO O O   O  o",
" .OO@@@+X======o=====*OO@OOOOO OOOOO OOOO@@ @ Oo",
" .OOO@O+X@========o===o======@o@O@@*=@@@O@@@@@Oo",
"oooooooooooooooooooooooooooooooooooooooo=ooooooo"};
