/* XPM */
static char * image_name[] = {
"48 48 10 1",
" 	c None",
".	c #171769691F1F",
"X	c #090927270606",
"o	c #9E9EE7E7AEAE",
"O	c #3030C7C74141",
"+	c #2121A6A62727",
"@	c #7979E7E7A6A6",
"#	c #5858D7D76666",
"$	c #3D3DBBBB4545",
"%	c #515161617979",
"                         ....XXXXX              ",
"                ooooooooOO+XXXXX..XX            ",
"              @ooooooo##++XXXX......X           ",
"             #ooooo@####+XX.X........X          ",
"             ooo@oo#o#OOXXXX........+X          ",
"            ooo@####OOO+XXX..........+X   .X.   ",
"           .oo##o##O#O++.X..........++X .XXX.   ",
"           o####$##++++. XX........+.+.XX+..    ",
"           #o##OOO++%++X  X.....+.++++++++X     ",
"         .#oO$O++%++++.X  X......+.+++++.X      ",
"         .#$OO++++++++X.   X..+.++++++++..      ",
"        .+##O++++++++.X    X...+.++++OO+X       ",
"         .X.+++++++++X%     X.+++++OOOOX        ",
"           .X.+++.+..X     XX++++++OOO..        ",
"             .X.++++X.  .XX.++++++OOO.X         ",
"               .X.++X   XXXXXXXXXXXXXX   ..X    ",
"                 .XX%                  ...+X    ",
"X$oooooooo@##X.    .                 ....+..X   ",
" XXOoooooo###OX                    ...++++++X   ",
"  .XXo@@@o####..                 ....+.+.+++.X  ",
"    .o#@#####$OX                ..+++++++++++X  ",
"    ######$#$OO%X               .+.+.+.+++++++X ",
"   .##o##$$$OO++..               .++++++++O+O+XX",
"   #oOOOOOOO+++++.X               .+++++OOOOO$OX",
"   o$$##O++++++X++..              ..+++OO#$#$O+X",
"   $$OOO++++++X.XX.X               .++OOO$$OO%+X",
"   .#+O++++++.X   XX          X    ..##O##OO%+.X",
"   .+O+++++++X.               X     .+OOOOO++.X ",
"    .+++++++.X               oX     ..++++++..X ",
"    .+++++++X.               oX      .+%++++.X  ",
"     .+++++.X               #oX      ......XXX  ",
"      +++++XXXXXXXX.....    ooXXX.X.....XXX.X   ",
"      .+++.XXX......+.+X   @ooooo##$+++.....X   ",
"       +++XXX......++++X  .ooooo@#$#+++....X    ",
"       $+.XX........+++X .#ooo@#o$O+++.....X    ",
"       .+XXX.......+++OX  @o@o#o##O+++....X     ",
"       ..XXX......++++OX.@ooo@####+++....XX     ",
"        .XX......++++OOX @@o@#O#$O+++...XX      ",
"        .XX.......++O$$X  ooo##O++++....XX      ",
"         XX......+++OO#X  @##o$$+++....XX       ",
"          X.....+.+#$#@X  ..##$+++....XX        ",
"           XX..++++O#@#X  .#o#+++....XX         ",
"             XXXXXXXXXXX   ##+XXXXXXX           ",
"                           .o+X                 ",
"                             +X                 ",
"                             $X                 ",
"                              X                 ",
"                              X                 "};
