/* XPM */
static char * image_name[] = {
"47 47 10 1",
" 	c None",
".	c #323209090F0F",
"X	c #64640F0F0C0C",
"o	c #060605050606",
"O	c #B4B450503A3A",
"+	c #E0E071717676",
"@	c #38384D4D2B2B",
"#	c #757575758E8E",
"$	c #B1B196965F5F",
"%	c #BBBBC5C5AEAE",
"          ........X.X....X..X......o..oo.      ",
"          .......X.X.XXXXXXX..X.X.......       ",
"         ..o...XXXXXXXXXXXXXXXXXX..X....o.     ",
"         ......OO+O+XOOOOOOO+OXOXX.X.o...      ",
"        .....X.O+++OOXXXXXXOOOOOXXXX.X...o.    ",
"        .....XX+++OXXOXOXXXX+++OXXXX.X.o..     ",
"      ....o...X+OO.OXOOOXO..X+OOOXXXX..X...    ",
"     ..@XXXXXXX+OXOXOOXOXX..oXOXXX.XXXXXXX..   ",
"     @#@@.XOXXX+OXOOXOOOOOXX..OOXXXOXX@X@X@    ",
"       X#O@XOXX+XXOXOOXOXXX.oXXOXXOO@+X#X..    ",
"       .X#O+OO.+XXXOOXOOOXX...OOXXX+XOOX...    ",
"       ..@O+#OX+XXOXOOOX.O..o.XOXOOO+OO...     ",
"        ..X$+OXOO.XOOXOOXX..o.OOXX+OOXX....    ",
"       o..X.#+X+XX.XXXXX..o..XXOXXX+XX....     ",
"       o...XXOX+O+X..X......o+OOOXOOXX..o..    ",
"       ......X.+++O...o.oo..O+++XXXX.X....     ",
"         ....XX$+O++X...o.XOO++OXXXXXX....     ",
"        ..o..X.+++++O+OOO+OO++++XXX....o.      ",
"          ....X+++OOOXOXOXO+O+O+OXXX......     ",
"          .....%+++XOOOOOOXX+++OXoX..o..       ",
"            ...+%+OOO+$OOOXOXO++X.X.......     ",
"    @.@.@.X..XX%XXX$$OOOOOOXXXO+...X.XX.@@.    ",
"     o@@@@@XXX.+XXO$$$$OOOOOXXO+..XXXOo@@@@    ",
"       @#@@##X.%XO$$O+$$OOXXX.X%..X#@#@%.      ",
"       .@##O#$.+.X$O$$$OOOOOXX.#X.O@OO@@.      ",
"        .@$#@%o%XXO$O$$$XOXXX.X+..+$##@.       ",
"          #%$%o+@.X$$OOX$O@....%..#%$@         ",
"           @+%o%#$XXX$X$XX.X.@O%oo%#@@         ",
"           o@#o%$# X@O@XX@X.o+#%oo$@.          ",
"              .%%%@ooXo@oo.o@%%%oo             ",
"              o%%%%%$.oooo$%%%%%oo             ",
"              .%%%%%%@$@@#$%%%%%oo             ",
"              o%%%%%%@@@@@$%%%%%.o             ",
"              @%%%@@@#$@#@o@@%%%oo             ",
"              o%%%@#%%%$#@@@ %%%oo             ",
"              .%@@@%%%#%@$@@ @@%oo             ",
"     @.@o@.@.oo%@@#%%%%@$@#@@o.%oo..@.@.@.@    ",
"     o#@@@@@@@o%o@$%$%$%#@@@oo.%oo@@@@#@@@.    ",
"       o#@#@#@o%@@@#%@%#@@$@@o@%oo#@@@##.      ",
"       @@#####o%@@#@$#@$@#@@oo.%oo####@@.      ",
"        .@##$%o%oo@$@@#@@@@ooo@%oo%#%#@.       ",
"          @%#%o%#%#@@$@$@@@@@@#%oo##%@         ",
"           @#%o%%%o@@@@@@@@oo%%%.o%#@          ",
"           @@#.%%%$o@@@@oooo%%%%oo#@@          ",
"              o%%%%%$o@ooo#%%%%%@o             ",
"              ooo.@oooooooo@..@ooo             ",
"                                               "};
