/* XPM */
static char * image_name[] = {
"48 48 5 1",
" 	c #000000000000",
".	c #757577777575",
"X	c #A2A2A0A0A2A2",
"o	c #F0F0F0F0F1F1",
"O	c #86867D7D7979",
"                                                ",
" ......................XXXXXXXXXXXXXXXXXXXXXXXXo",
" .....................XXXXXXXXXXXXXXXXXXXXXXXXXo",
" ...   ..............XXXXXXXXXXXXXXXXXXXX  OoXXo",
" ..     ............XXXXXXXXXXXXXXXXXXXX  OXoXXo",
" ..      ..........XXXXXXXXXXXXXXXXXXXX  OXooXXo",
" ..       ........XXXXXXXXXXXXXXXXXXXX  OXoooXXo",
" ...       ......XXXXXXXXXXXXXXXXXXXX  OXoooXXXo",
" ....       ....XXXXXXXXXXXXXXXXXXXX  OXoooXXXXo",
" .....       ..XXXXXXXXXXXXXXXXXXXX  OXoooXXXXXo",
" ......       XXXXXXXXXXXXXXXXXXXX  OXoooXXXXXXo",
" .......       XXXXXXXXXXXXXXXXXX  OXoooXXXXXXXo",
" ........       XXXXXXXXXXXXXXXX  OXoooXXXXXXXXo",
" .........       XXXXXXXXXXXXXX  OXoooXXXXXXXXXo",
" .........X       XXXXXXXXXXXX  OXoooXXXXXXXXXXo",
" ........XXX       XXXXXXXXXX  OXoooXXXXXXXXXXXo",
" .......XXXXX       XXXXXXXX  OXoooXXXXXXXXXXXXo",
" ......XXXXXXX       XXXXXX  OXoooXXXXXXXXXXXXXo",
" .....XXXXXXXXX       XXXX  OXoooXXXXXXXXXXXXXXo",
" ....XXXXXXXXXXX       XX  OXoooXXXXXXXXXXXXXXXo",
" ...XXXXXXXXXXXXX         OXoooXXXXXXXXXXXXXXXXo",
" ..XXXXXXXXXXXXXXX       OXoooXXXXXXXXXXXXXXXXXo",
" .XXXXXXXXXXXXXXXXX     OXoooXXXXXXXXXXXXXXXXXXo",
" XXXXXXXXXXXXXXXXXXX   XXoooXXXXXXXXXXXXXXXXXXXo",
" XXXXXXXXXXXXXXXXXXX  OXXoooXXXXXXXXXXXXXXXXXXXo",
" XXXXXXXXXXXXXXXXXX  OXooooooXXXXXXXXXXXXXXXXXXo",
" XXXXXXXXXXXXXXXXX  OXooooooooXXXXXXXXXXXXXXXXXo",
" XXXXXXXXXXXXXXXX  OXooooooooooXXXXXXXXXXXXXXXXo",
" XXXXXXXXXXXXXXX  OXoooXXoooooooXXXXXXXXXXXXXXXo",
" XXXXXXXXXXXXXX  OXoooXXXXoooooooXXXXXXXXXXXXXXo",
" XXXXXXXXXXXXX  OXoooXXXXXXoooooooXXXXXXXXXXXXXo",
" XXXXXXXXXXXX  OXoooXXXXXXXXoooooooXXXXXXXXXXXXo",
" XXXXXXXXXXX  OXoooXXXXXXXXXXoooooooXXXXXXXXXXXo",
" XXXXXXXXXX  OXoooXXXXXXXXXXXXoooooooXXXXXXXXXXo",
" XXXXXXXXX  OXoooXXXXXXXXXXXXXXoooooooXXXXXXXXXo",
" XXXXXXXX  OXoooXXXXXXXXXXXXXXXXoooooooXXXXXXXXo",
" XXXXXXX  OXoooXXXXXXXXXXXXXXXXXXoooooooXXXXXXXo",
" XXXXXX  OXoooXXXXXXXXXXXXXXXXXXXXoooooooXXXXXoo",
" XXXXX  OXoooXXXXXXXXXXXXXXXXXXXXXXoooooooXXXooo",
" XXXX  OXoooXXXXXXXXXXXXXXXXXXXXXXXXoooooooXoooo",
" XXX  OXoooXXXXXXXXXXXXXXXXXXXXXXXXXXooooooooooo",
" XX  OXoooXXXXXXXXXXXXXXXXXXXXXXXXXXXXoooooooooo",
" XX OXoooXXXXXXXXXXXXXXXXXXXXXXXXXXXXXXooooooooo",
" XXOXoooXXXXXXXXXXXXXXXXXXXXXXXXXXXXXXXXoooooooo",
" XXooooXXXXXXXXXXXXXXXXXXXXXXXXXXXXXXXXooooooooo",
" XXXXXXXXXXXXXXXXXXXXXXXXXXXXXXXXXXXXXoooooooooo",
" XXXXXXXXXXXXXXXXXXXXXXXXXXXXXXXXXXXXooooooooooo",
"oooooooooooooooooooooooooooooooooooooooooooooooo"};
