/* XPM */
static char * image_name[] = {
"48 48 20 1",
" 	c #565653535A5A",
".	c #030301010303",
"X	c #FDFDFDFDFDFD",
"o	c #2D2D16164C4C",
"O	c #2B2B26264D4D",
"+	c #9F9F9E9EEDED",
"@	c #D1D1D1D1F3F3",
"#	c #75756868D5D5",
"$	c #87877272E8E8",
"%	c #4D4D25254141",
"&	c #68685656A4A4",
"*	c #BFBFA3A3B7B7",
"=	c #76768787EAEA",
"-	c #B8B876768F8F",
";	c #1E1E12122626",
":	c #B7B732323636",
">	c #555532329696",
",	c #E0E088887373",
"<	c #FAFA5C5C5757",
"1	c #FAFA15151414",
"                                                ",
" ..............................................X",
" .oO +@@@@@@@@@@@@@+@+++#+##$.XXXXXXXXXXXXXXXXXX",
" .OOOO #@@@@@@@@@+@++++#+$#+#.XXXXXXXXXXXXXXXXXX",
" .OoOoO%%&*XX@@@&@+++++=+#+##.XXXXXXXX@-*XXXXXXX",
" .OOOOOOO O+@@@@;@@+++++=+=$#.XXXXXX@%;*-;-XXXXX",
" .ooOOOOOOO*@@@@O@++++++$=$$#.XXXXX*;;XXX ;@XXXX",
" .OOOOOOOO +@@@@;@@++++++#OO .XXXXX%;*XXX*;-XXXX",
" .;;OOOOO O+@@@@O@++++#O;&**+.XXXX*;%XXXX-;%XXXX",
" .  ;oOOOOO+@@@@O+@& O-+*++=#.XXXX-.-XXXX-.-XXXX",
" .oO  O;O O+@@@+;-O***+++==$+.XXXX%;*XXXX;;*XXXX",
" .OO;& &OoO*@&O  @+@=++++=+$#.XXXX-;*XXX-;%XXXXX",
" .OO; O    ; *@@ @++++==+=$#$.XXXXX;:XX*;%XXXXXX",
" .oOO OO O @@@@@O@@+++=+=+#+#.XXXXX@ %%% XXXXXXX",
" .oO; OOOOO+@++@O*+++++=$=$>O.XXXXXX*;*XXXX@XXXX",
" .OO;>OOO>O=@@@+O@++=+=+#OO#*.XXXXX ;%%- -;*XXXX",
" .oO; OOOOO++@++O++++=>O +**#.XXXX--* ;;;%*XXXXX",
" .OO;>OOO O+@++@;++&O &@++=#=.XXXXXXXXX@*XXXXXXX",
" .oO; OOOOO=++++O O=*@++#####.XXXXXXXXXXXXXXXXXX",
" .OO; OOOOO=@+++;@@++==######.XXXXXXXXXXXXXXXXXX",
" .oO;OOOO O+++++;++==+#=$#$#>..................X",
" .;OO OOOOO#++=+;+=#+$#$## ;&*&>OOOo;;;..;;....X",
" .oO;OOOOOO=+++=O*=+##$#>;&+*&&>OOo;;;..;......X",
" .OO;>OOOOO#=++=;+=$##OO&*+&#>#&>>O;.O;;.;;.;..X",
" .o;; OOOOO=+#=+;+#&O +*+#&#>#>>>;;O ;;.;....;;X",
" .OO;OOOOOO##++#O&;&*+####>#&#>>;&&>Oo;.;;..;;.X",
" .o;oOoOOOO#+##+;&@*###&#&#>>>;>-& OoO;.;.O;;..X",
" .Oo;OOOOOO##+=#;**,,,-,--->O>*&>>O>ooo.O%;.;;.X",
" .;;;%oOOOO###$#O=<,,,,<<<<<1<:::::%o;;;%.;.;..X",
" .;oOOOOoOO##$=#;&.% :::<1<1<11111111: .;;;.;.OX",
" .;;;OoOOoO&$#$#;*&O%;;.;..%%::111111;o.O.;.O%;X",
" .;o;OO;OOo&####;=#>o *#>>O%;........;;.O..;;;.X",
" .;;;OoO ,,,,,,,:-% +#&&>>>>>oo;-%o;o;o.;% .;.;X",
" .o;;O;-,*,*,,,,,<,<<<<:-:>%O;&&Ooooo;..% ;;;..X",
" .;;;OO-,,,,,,<<<<<<<<<1<1<111:::%%;;.%;;.;....X",
" .;;;O.;:<,<,<<<<<<1<1<1<1111111111111:;;;.....X",
" .;;.O;;..;;%%: ::<<111<111111111111111:.;.....X",
" .;;;;;o;;;oo;;;.;..;%%::11111111111111;.......X",
" .;;;;;;o;o>>&>>; %o;.;.....;%:::11111;........X",
" .%;.;;;;o;>&>>>;&;o--o%oo;;;..................X",
" .,,,-< :%%>>>>>. &-OO>oooo;.  ;;.;............X",
" .,,,,<,<,<<<<-::-&O>ooooo.% %;;;;.............X",
" .,<,,<,<<<<<<<<<<<<<:::%%- o;;.;..............X",
" .<,,<,<<<<<<<<<<<1<1<<1<11111:::%;............X",
" .<<<<<<<<<<<<11<1<1<1111<11<1111111111:%%.....X",
" .<,<<<<<<<<<1<<1<1<1<1<11111111111111111111;..X",
" .:<<<<<<<1<1<1<11<11111111111111111111111111..X",
"XXXXXXXXXXXXXXXXXXXXXXXXXXXXXXXXXXXXXXXXXXXXXXXX"};
