/* XPM */
static char * image_name[] = {
"48 48 20 1",
" 	c #545454545454",
".	c #03030A0A0202",
"X	c #FEFEFEFEFEFE",
"o	c #303012124444",
"O	c #24241F1F1818",
"+	c #595916166666",
"@	c #D4D4D4D4D4D4",
"#	c #AEAEAEAEAEAE",
"$	c #7C7C7C7C7C7C",
"%	c #454553531212",
"&	c #9696DADA6D6D",
"*	c #6666A0A04848",
"=	c #60609C9CB5B5",
"-	c #A8A81D1DC3C3",
";	c #ABAB72720E0E",
":	c #D9D9B3B33434",
">	c #D5D52525F6F6",
",	c #E7E75C5CFEFE",
"<	c #373753538989",
"1	c #A5A5C3C3E2E2",
"                                                ",
" ..............................................X",
" .oOooOoooooooooooooooooooo+oo+o.XXXXXXXXXXXXXXX",
" .oOoOoOoOoOoooooooooo+o+o+o++o+.XXXXXXXXXXXXXXX",
" .oOooooooooooooo+o+o+o+o+o+o+o+.XXX@#@##@XXXXXX",
" .ooo@@@@@@@@@@@@@@@@@@@@@@@@@@@.XXX# .Oo .O#XXX",
" .oOo@XXXXXXXXX$XXXXXXXXX$XXXXXX.XXXX#.$XXXO.@XX",
" .ooo@XXXXXXXXX$XXXXXXXXX$XXXXXX.XXXX#.$XXX$.#XX",
" .ooo@$$$$$$$$$$$$$$$$$$$$$$$$$$.XXXX@.$XXX$.@XX",
" .ooo@XXXXXXXXX$XXXXXXXXX$XXXXXX.XXXX#.$XX@.$XXX",
" .+o+@XXXXXXXXX#XXXXXXXXX$XXXXXX.XXXX#.$  o#XXXX",
" .ooo@XXXO....%%%%%%%XXXX#XXXXXX.XXXX@.#XXXXXXXX",
" .++o@$$#.....&&&&&& $$$$$$$$$$$.XXXX#.$XXXXXXXX",
" .oo+@XXX.....@&&@&&%XXXX$XXXXXX.XXXX#.$XXXXXXXX",
" .++o@XXX.....&&&&&&*XXXX$XXXXXX.XXXX@. XXXXXXXX",
" .o++@XXX....O&&&&&&%$$$X$XXXXXX.XXX#o..$@XXXXXX",
" .+++@$$$.....&&&&&&% o $$#$$$$$.XXX@#@#@XXXXXXX",
" .+o+@XXX....O&&&&&&%$$$X$XXXXXX.XXXXXXXXXXXXXXX",
" .+++@XXX.....&&&&&&%=$$X$XXXXXX.XXXXXXXXXXXXXXX",
" .+++@XXX.....&&&&&&%$$$X$XXXXXX...............X",
" .+++@$$#.....&&&&*&%  %$$$$$#$$$  OOoOOOOOOOOOX",
" .+++@XXX..O..&&*&*&%$$$X$XXXXXXX@#O$ $$O$ $ o X",
" .++-@XXX.....&*&*&*%=$$X#XXXXXXX@# ###$ #$## #X",
" .-++@XXX.OO..&*&*%...O%;%%;%%XXXX@ #### #### #X",
" .+-+@$$$...O.*&**O.O.O::::::;$$$$$$  $ $ $  $ X",
" .-++@XXX.OO..&***O.OO%::::::%XXXXX$XXXX$XXXX$XX",
" .+--@XXX.OOO.**&*OO.OO::@:::;XXXXX$XXXX$XXXX#XX",
" .+-+@XXX.O.O.****.OOO%::::::%$$$XX#XXXX#XXXX$XX",
" .-+-@$$#...O.****OOOOO::::::; o $$$$$$$$$$$$$$X",
" .+--@XXX.OOO.****OOOO%::::::%$$$XX$XXXX$XXXX$XX",
" .--+@XXX..OO.****OOOOO::::::;$$$XX$XXXX$XXXX$XX",
" .---@XXX.OO..***%OOOO%::::::%#$$XX$XXXX$XXXX#XX",
" .-+-.....OOO.*%**OOOOO::::::;.................X",
" .----+++OOO..***%OO%O%::::::%ooo++++++++++++++X",
" .----+-+.OOO.*%%*O%OOO::::::;+++>>>>>>>>>>>>>>X",
" .-------OOOO.*%*%OOO%O:::::;%+++>>>>>>>>,>,>,,X",
" .---->->.OOO.*%%*O%O%O:;:;O....<<<<<<<,>,,>,,>X",
" .---->--OOOO.%*%%O%%%O;:::....O111111<,>,>,,,,X",
" .->>->->.O%O.%%*%OO%%O:;;:..o.O111111<,,,,>,,,X",
" .>->->>-OOOO.*%%%OO;%O:;:;.oOOO11111=<,,>,,,,,X",
" .->->>->.OO%.%%%%O%O%O;:;;oOOoO1=1===< ++,,,,,X",
" .>>>>>>>.%O.O%%%%O;O;O;;:;OOoOO=1====<+-$,,,,,X",
" .>->>>>>..%O.%%%%.%O%O;;;;oOoOO===1==<<++,,,,,X",
" .>>>>>>>.OOOO%%%%O;O;O:;;;O<O<O======< -$,,,,,X",
" .>>>>>>>.%O%.%%%OO%%OO;;;;OOoOO====<=< +$,,,@,X",
" .>>>>>>>OOOO.%O%OO%%;O;;;;O<O<O=<<=<<<$-+,@,,,X",
" .>>>>>>,.O%O.%%%OO;O;O;;;;Oo<OO<=<<*<< +$,,,X,X",
"XXXXXXXXXXXXXXXXXXXXX@XXXXXXXXXXXX@XXXXXXXXXXXXX"};
