/* XPM */
static char * image_name[] = {
"48 48 20 1",
" 	c None",
".	c #9C9C9C9C9C9C",
"X	c #848484848484",
"o	c #5F5F60606060",
"O	c #565656565656",
"+	c #303030302F2F",
"@	c #6E6E6E6E6E6E",
"#	c #363636363636",
"$	c #282828282828",
"%	c #000000000000",
"&	c #464646464646",
"*	c #0B0B0C0C0B0B",
"=	c #B5B5B5B5B5B5",
"-	c #FFFFFFFFFFFF",
";	c #EDEDEDEDEDED",
":	c #151515151515",
">	c #D5D5D5D5D5D5",
",	c #40403F3F3F3F",
"<	c #80807F7F7F7F",
"1	c #404040404040",
"                                                ",
"                                    .XoO+X      ",
"                              X@O#$%$#o& +.     ",
"                       XXO&$*%#&&X=-;;X@XO$@    ",
"                .XoO$$%$$@.=; XXX@.@O#$:*:%&    ",
"          X@O&$%:&@@XXXX@=..@@o#+$X=>&%%%+%+    ",
"    XO&+:%&&&O@@X.=X.O,&#@;>;$%%%$;->%%%%>#$    ",
"   X%*@=.=.Xo&O&+o>>=%%%%;--X%%%%.--@%%%X-O%    ",
"   .#%o@ =>=$%%*%.--+%%%o--;:%%%&--;:%%$--<%.   ",
"   >=$o----&%%:%&--X%%%:;--o%%%%=--.%%%@>=o%X   ",
"   >o%,---=%%%%:>->%%%%X-->%%%%O>=@:%%%%$+&@    ",
"   =<*:--;$%%:%.;-+%%%$.>.#%%%%%$#OOXX          ",
"   ==$%--X%%:%$=>O%%%%%$$#O@X.                  ",
"    =%%..%%$:%*$$OOXX.                          ",
"    .$:%%%%%*&O@X.                              ",
"    =$$::%#O&&#+++:&$OO<X                       ",
"   .>$##X$$$#&Ooo@@@X@@oO,#&#OoXX               ",
"   X>:#X-@%%%%@=.O+#&o@@XX.==..@&%:$&O@X.       ",
"   =O$+=-;:%%%O--=%%%%@=.@#&O@X..==..@@#+%$&    ",
"    &#$>--X%%%%;--&%%%$---$%%%$=.X@ooX.=>>=$@   ",
"    O%%$&@X*%%%.--=%%%%=--.%%%%>---+%%%..XX:#   ",
"    &**$$::**%%*XX>#%%%#--;:%%%o---.%%%X---&%   ",
"    &@$&&&##+$$:::%%%%%%.>-@%%%%>--;:%%:---*$   ",
"    #@$O&OO&O&&&O&++$$$::%*%%%%%X---X%%%.->%#   ",
"   Xo&#OOooo&@&&@@&&&###++$$$::**%$#o%%%$-=%O   ",
"   Xo&&O&oO@@XO&X&&&O&&&1&,&##++$$$$::*%%+$%@   ",
"   O<$&&O&&O@O&o@&&OX@o,&&&#O#&#,##+++$+$$*&.   ",
"   &@$&O<X@oO&&@o&&@OO@@&o@&Xo###,######++%     ",
"   O@:O&&Oo@@XXX@oO&&&&&&&&,&@O@@o####+#+$$     ",
"   +o$&O&&&&&&&XO@@@X@@OO&#&#&##O######++$&     ",
"  .#&#&&&oOO&&&.&1&&&&Oo@@X@@O&######+#++:@     ",
"  <O#,&O&OoXo&&<&1&#&#&#&#&#Oo@<X@oO&++++*X     ",
"  OO$&&&&@oXO&o@&,O.&&O@##########Oo@@O++%      ",
"  &o+&&&&&&&&&@o&&X@@XXooO&#####+#+++#++$$      ",
"  #o$&&@X<@@OO@O,,,&&&o&O@X#X@##+#++++++:O      ",
"  +O+&&&&&OO@@Xo@@OO#####&&#&@oO###++++$:@      ",
" .#&+&&&&111&&@&&Oo@@X<@O&####&#+++#+#+$*.      ",
" X+##&&&O&&#&#@&,###1##&o@@X@@o&#+++++$$*       ",
" o+$&&,&@@XO#Oo##,#######+###&Oo@X@@o+$$+       ",
" @:*&1&&&&O#&o&,1########+#+++++++##&+$:O       ",
"  %:&1#&#&11#O####,####+#+++++++++$+$$$*X       ",
"  &:$##,&#&#,##,########+++++++$+$$$$$$%.       ",
"  .O#$*%*:$:++#######+++++++++++$+$$$$$$        ",
"        .@OO$+%%:*$:$$#+++++++$$$$$$$$:#        ",
"                X@OO$$%%**::$$$+$$$$$$*o        ",
"                       .X@o&$$%%**:::$*X        ",
"                               .X@O&$:*         ",
"                                                "};
