/* XPM */
static char * image_name[] = {
"48 48 20 1",
" 	c None",
".	c #ABABAEAEAEAE",
"X	c #CBCBCDCDCFCF",
"o	c #5F5F60606262",
"O	c #9E9E77774F4F",
"+	c #8E8E90908F8F",
"@	c #9E9E9E9E9D9D",
"#	c #747445452121",
"$	c #545429291010",
"%	c #8A8A55552E2E",
"&	c #909030302020",
"*	c #2B2B12120202",
"=	c #D8D8DDDDE0E0",
"-	c #B8B8BCBCC0C0",
";	c #383838384040",
":	c #1C1C1B1B1C1C",
">	c #D7D7BEBE6363",
",	c #B8B8C0C0C0C0",
"<	c #DADAC3C3A5A5",
"1	c #EBEBEDEDEDED",
"                      .Xo            O+         ",
"                    .X@#$o           %&*@       ",
"          X=@@     =-#$$$$o          &&*        ",
"         X=.Xo+  XX#$$$$O*$+        oo;o        ",
"         =@:Xoo;oo***$OX=@$$+       oo:o        ",
"         ..oooooo;;;:;X===o$:@     @;o;         ",
"          Xoooo;;;;:::o==X=o$$@    .>#o         ",
"         ,X+oo;;;::::oXX-X=X#*;    >>:@         ",
"       X<.+;;;:::;:;X1.@.=XX,#*o   >O:          ",
"     ,XO&+;;;::;:;.1=@.X=X=XX $*o >>$o          ",
"   X.O&#%o;::;::+111=1====X=X,.$*o>>*.          ",
" ,XO&###Oo:;::+1111=1======X=X O*#>%;           ",
"1>&#%##O<.;:o=11111=1=X.====XXX-+%>$+           ",
"=1%&#%<111;=11111111=...@=XXXX,,,>O:+           ",
".1<#%O1111111X11111,+.,XXXXXXX,,,>O::@          ",
" ,1>#$X1111.=@,11==.=X.==+.XXXXX<>**$;          ",
"  X1%##=11@++X111+,,.==,..@XX,XX>>:@$*;         ",
"   1<%##111@11=.X=+.==X.@@.@XX,<>#o.+$*;        ",
"   .1>##o111,@=,=..XX@@+@.X@.X,>>*@..o$*o       ",
"    X1%##.111+.=@@=.+X,,,++@+X >O:,...o**o      ",
"     =<&#$X11= @XX,++,..o++XX.<>#o,....#**+     ",
"     .1>##;111.@XX@.X+..+X,X+.>>*@,...@.#**+    ",
"      X1O#$O111++X@=@.+@@XX@,.>O;,,....@+;**+   ",
"       =<&#:.11=+@=.+@o==+,o+<>$+.,,....@+$*:   ",
"       .1<$&$=11,.@@.=1,..o @>>:.,.,.-.@@@+**;+ ",
"        ,1O##;111@o=.1.@+X@@=>%;,,,.,..@@++$**o ",
"         X1%$$+111=11@...@@X<>$+,X.,...@@+;**:o ",
"          1>&#*,111@.++,+@.=>>:,X,X..@@@+:**:+  ",
"          .1>$$$=11@@@,+-@XX>%o,,XX...@+::*:o   ",
"           -1%$$;111o....X=>>:@X,X,@.@+:***+    ",
"            =<#$$@1=,++===X<%$, ,X,-.o:**:o     ",
"            .1>$$*,1=X===X=>*. ,,.@o:****+      ",
"             .1%#$:=1====XXOoX.+o;:::***o       ",
"              =<#$$o1=====<ooo:;;+:***:+        ",
"               1<$$*+====o+;;o@,,;***:o         ",
"               .1O$$*,====,XXX .;****+          ",
"                X1&$$;X==X=XX,.::**:o           ",
"                 =<$$$o===XXX@:****+            ",
"                 .1>$$*.=XXX.:***:o             ",
"                  -1%$$:.==o:***:+              ",
"                   X<#$*;=+:*$*:o               ",
"                   .1>$$*:*****o                ",
"                    .1O$$**$*:o                 ",
"                     =<#$$$*:o                  ",
"                      1<$***o                   ",
"                      .1O*:o                    ",
"                       ,1;o                     ",
"                        X+                      "};
