/* XPM */
static char * image_name[] = {
"64 64 10 1",
" 	c #06060D0D6767",
".	c #060616167878",
"X	c #030323239090",
"o	c #06061E1E8787",
"O	c #050507074949",
"+	c #030304042A2A",
"@	c #010102021818",
"#	c #000000000606",
"$	c #030305053939",
"%	c #06060B0B5959",
" ...XXXXX...ooXX.O+@###@$OO$###+$$++@##@@@########@++$$$OO% ....",
"...XXXXXo...oXXX.$@@###+O  +##@+$++@###@@@########@+$$$OO  .....",
"..oXXXXX....XXXo +@###@+O  +##@+++@@##@@@@#######@++$$OOO% .....",
"..XXXXoo...oXXX.O+@###@$% O@##@+++@###@+@@######@@++$OOO%% .....",
".oXXXo.....XXX. $@###@+O  O@##@@@@####@@@@######@+$$$OOO%% ..   ",
".oXXX......XXX. $@###@$ .%$####@@@###@@@@@@####@@++$$OOOO   %%  ",
".XXX..% ..oXXX O+@##@@O .O+####@@####@@@@@@@@#@@@++$$OOO %% O% .",
"oXXo.%O ..oXX.%$@###@+O  O+##########@+@+@@@@@@@++++$OOOOOOOOO%.",
"oXo. OO ..XXX.O$@##@+$ . O+##########@@@@+@@@@@++++$$OOOOOOOO  .",
"oo.. OO .oXX. O+@@@@+O .%$@##########@@@@@@@@@+++++$$OOO$$OOO ..",
"oo.%OO .oXXX. $+@@@+$ .. $@##########@@@@@@@@@+++++$$$$+++$OO ..",
"o.%OOO .oXXo O++@@@+O%. O+@##########@@@@@@@@@+++++++++++++OO%..",
". OOOO%.XXX.%O++@@@+O .%O+@###########@@@@@@@@@++++++++@@++$O ..",
".%OOOO%.XXX.O$++@@+$  .%O+@@############@@@@@@@@+@@+@@@@@@+$O ..",
" OOOOO%.XXo.O$+++@+O    O+@@#############@@@@@@@@@@@@@@@@@+$O ..",
"OO$$OO oXX. O++++++O%  OO++@#############@@@@@@@@@@@#####@+$  ..",
"O$+$OO oXo. $+++++$O% OOO$+@@#############@@@@@@@########@+OO  %",
"O$+$O .oo..O$++$O$OO  OOO$++@###############@@@##########@+OO %O",
"$++$O%..o. O$$+$OOOO %OOOO++@############################@+OOOOO",
"$++$O ....%O$$$OOOOOOOOOOO$+@############################@+OOOOO",
"$++$O ....%O$OOOOOOOOOOOO$$+@######@@####################@+OOOO$",
"+++O .... %OOOOOOOOOOOOOO$++#####@@@@@###################@$OOO$+",
"++$O%...   OOOOOOOOOOOOOO$+@####@@@@@@###################@+OOO++",
"++$O ...   OOOOOOO$$$++$$++@###@@@++@@###################@+$$$++",
"+$$O% ..   OOOOOO++++++++++@###@@+++@@###################@+$$$++",
"$$$OO%      OOOOO+@@@@@+++@@##@@++++@@###################@+++$++",
"$$OOO%%    %OOOO$+@@@@@@++@###@++$+++@###################@+++$$+",
"$OOOOO%%%   OOO$+@@###@@+@@##@@$$$$+@@###################@+++$+$",
"O$OOOOOO    OO$$+@#####@+@@##@+$OO++@@###################@@+++$$",
"OOOOOOOO%O%OOO$+@######@+@###@+OOO++@@###################@@+++$$",
"$OOOOOOOOOOOOO+@@######@@@##@+$$O$++@####################@@@++$$",
"OOOO$$OOOOOOO$+@#######@@@##@+$OO$+@@#####################@@+++$",
"$$$++$$OOOOOO+@#######@@@###@+$OO++@######################@@++++",
"$++++++OOOOO$+########@@@##@++$O$+@@#######################@++++",
"++@+@++OOOOO+@########@@@##@+++$++@########################@++++",
"++@@@@+$OOOO+@########@@###@+++++@@########################@@+++",
"+@@@@@@$OOO$@########@+@###@+++@@@#################@@@#####@@+++",
"@@@##@@$OOO+@########@+@###@@@@@@##################@@@@####@@+++",
"@@####@$OOO+########@@@####@@@@@##################@@@@@@###@@+++",
"@####@@OOOO@########@+@####@@#####################@@@@@@###@@++@",
"#####@+OOO+########@++@################@@@#######@@@++@@###@@++@",
"#####@+OOO+########@++@###############@@@@@######@@+++@@###@++@@",
"#####@$OO$@#######@+$+@##############@@+++@######@++$++@###@++@@",
"#####+OOO+@#######@$$+@#############@@++++@@#####@++$$+@###@+@@#",
"####@+OO$+@#####@@+$++@#############@++$$++@####@++$$$+@###@+@##",
"####@$OO$@######@+OO++@###@@@#######@+$OO$+@####@+$$O$+@##@++@##",
"###@+OOO+@#####@+OO$++@@@@@@@######@+$OOO$+#####@+$OO$+@##@+@###",
"###@$O O+@####@+OO$++@@@@+@@#######@+OOOO$@#####+$OOO$@###++@###",
"##@+O %$+@@##@+OOO$++++++++@#######+$OOOO$@####@+$OOO+@##@++@###",
"##@$   $@@@@@+$ %OO$$++$$++@@#####@+OOOOO+@####@+$OO$+@##+++@###",
"#@+O   +@@@@@$O  OO$$$$O$++@@#####@$OOOOO+#####@+OOO$@##@++@####",
"@@$ . O+@@+++O%  OO$$OOO$+@@######+$O OO$@#####+$OO$+@##@++@####",
"@+O..%O+@++$O . OOOOOOO$+@@@@@###@+O  %O+@####@+$OO$@###+++@####",
"+O ..%O+++OO ..  OOOOOO$+@#@@@@##@$O% OO+#####@+$O$+@##@$++@####",
"$ ... O++OO ...% OOOOO$+@@@@@@@##+$O %O$@#####@+$O$@@##+$$+@##@@",
"O ..%OO$$O ...%OOO %%O+@@@@@@+@#@+OO% O+@#####@++$+@##@+$+@@@#@+",
" ..  OOOO..o.. %   . $@@@#@@++##@$OO O$@######@+++@###@$$+@@@@+$",
".... OOO .XXo..   ..O+@@##@+++##@$OOOO+@######@+++@###+$$+@@@+$O",
"...  %% .XXXo..  .. $+@##@+$$@##+OOOOO+###@##@@@+@###@$$$+@@++O%",
"... % ..oXXXo......O+@##@@+$$@#@+OOOO$@##@@##@@@@@###+$$$++++O%.",
"...  ..oXXXoo..... O+@##@+$O$##@$OOOO+@##@@###@@@###@+$$$$++O ..",
"... ..oXXXoo...oo.O$@###@+OO+##@$OOO$@##@@####@@####@$$OO$$$O ..",
".....oXXXXo...ooo.O+@###@$OO@##+$OO$+@##@@#########@+$$$OOOO ...",
".....XXXXo...ooXo $@@##@+$OO@##+OOO$+###@@#########@+$$OOOOO ..."};
