/* XPM */
static char * image_name[] = {
"48 48 20 1",
" 	c None",
".	c #FAFAF7F7E0E0",
"X	c #FCFCF3F3C7C7",
"o	c #FDFDEAEA9F9F",
"O	c #F6F6D4D45757",
"+	c #060602020404",
"@	c #FFFFFFFFFFFF",
"#	c #C2C275752929",
"$	c #CCCC93932E2E",
"%	c #D0D09B9B2121",
"&	c #E1E19A9A3737",
"*	c #97973E3E1F1F",
"=	c #E5E5AFAF3838",
"-	c #787848480000",
";	c #A0A08C8C4848",
":	c #2D2D0C0C0606",
">	c #5F5F2A2A0000",
",	c #EFEFB3B34848",
"<	c #A0A05E5E1E1E",
"1	c #CACA71710909",
".....XXXoooooooOoOoOoOOOOOOOOO+                 ",
"@###$$%&$&$&&&$&&&%$$&$#$####*+                 ",
".$#$$$&$&=&=&=&&&&&$&$$$#$###-+--;:;;:;>;:;;:;; ",
".#$+++++++;==@@@@@@@@@@@@@+##-+@@@@@@@@@@@@@@.. ",
".$$+$;;;;;@&&@oo;.o;.o;.o:+$#-+o;.;.;.;.;.;;;.; ",
".$;+;;;;;;@,$@;;.;;.;;.;;;+#;*+;.;.;;;.;;.;.+.. ",
".$&+;;;;;;@$,@.;;;.;;;;.;:+;#-+;+;+.;.;;;;.;;.; ",
".$&+;;;;;;@,=@;;.;;;;.;;.;+#;;+:;+;;;;;;.;;.+.. ",
"X$,+;;;;;;.=,@.;;.;.;;;;;++;#*+;;;+.;.;.;;;;;.; ",
".&;+;;;;;;@O;.;.;;;;;;.;.;+&*;+;+;+.;;;;;.;.+.. ",
".$&+@....+@=O@;;.;.;.;;;;;++,*+;:;;;;.;.;;;.+@; ",
"X&,+@;;;.+@O=..;;;;;;.;.;;:,;;+;;+;;.;;;;.;;;.. ",
"X&&+@.;;;+@O,@+;;;;;:;+;+;+;#*+;+;+.;;.;;;.;;.; ",
"X&=+.;.;.+@OO++++++++++++++&*;+;+;;;;;;;.;;.+.. ",
"X&&+@;;.;+@O,Ooooo,X,o;o;,;##*+;;+;;.;.;;;.;;.; ",
"o&=+..;;.+@OO,,&&&&&&&;&&&##;;+;+;;;;;;;.;;.+.. ",
"X=&+:+++++@O=>>>>>>:*:*:*:@#**+;:;+.;.;.;;;;;.; ",
"o&=+.;;;;O@OO>>>:;:*:*:*:X@#;;+;;;X..;.;XXX.o;o+",
"o=&+;;;;;;.,OO+@@@@@@@@@@o.<#*+:;++O ;;;;-;-<;*+",
"o&,+;;;;;;@,,:>@@@@@@@@@@;@#;*:::OO&&&=$;$$;##-+",
"o=,+;;;;;;.;O>>@@@@@@@@@@;@<#*+;*:&&&&&<->*1#<*+",
"o&,+;;;+;;@OO>>@@@@@@@@@..@#;*++;*,&&&11%1%-#$-+",
"o=&+;;;;;;.;O>>@@@@@@@@@@;@<#>:*:-,&&<1===<*>#*+",
"o&,+;;;;;;@,o>>@@@@@@@@@.X@#;*::;-,,&-%=.=%<:#-+",
"o&&+;;;;;;.;,>>@@@@@@@@@@;@<<>:>;*,&&-1==%**:$*+",
"o$o+;;;;;;@=o:;.;.;.;.;.;X@*;*+*--;,=*-#11*->#-+",
"X$#;.......;=@@@@.........@<<>+:;-O,&=-*>>:>##*:",
"o&&&;;;;;;$==&=$;$;$;;<;-<*#;++:;-,,&,,->>>#$#-+",
"X%&&&=&=====&&&&&$&&$$###<#<<*:-;*,,,&&&&&$$##*:",
"o#######<#<<<<<*<*-*-*-*-*-*-*+*--,,===&&$$$$;-+",
"*****>>>>>>>>::>:::::+:++++++++>;-o$,=$&&$$$##*:",
"  >.o.:;;:;;:;;:;->>>>>>------:;--,,&,=&$&$$$#-+",
"  ;.;.:;+;;+;;+;;;;;*--o*---o-----o&==$$&$$$##*:",
"  :@;;;:;;+;;+;;:;>:>;;---o**;;;;;=,===&$$$$##-+",
"  ;@.;;+;+;:;;+;;.o;o;,o,o,o,O,,,,,&,=$$&$####*:",
"  :.;;;.;.;.;;.;;o$,=,,&OO,,O,O,O,,,=&=&$$$###-+",
"  ;@.;.;;;;;;.;;.X;&&$<>>-&O,O,O,,,=&&&<->*###-:",
"  :.;;;;;.;.;;;;;o&,$1111#-$O,O,,,&,=&<1%11-#;-+",
"  ;@.;.;.;;;.;.;.o#=<1=,=<<>,O,,,,==&<%===#*>#-:",
"  +.;;;;;;.;;;;;;o&,-%=.,1<:O=OO=,==&-1=.&%<:;-:",
"  ;@.;.;;.;;.;.;.o;=*1==&<*>,=,===&=&-1==%*-><>:",
"  :.;;;.;;;.;;;;;o$&<*%#1*>>O,=,=&=&$*-#11*>><*:",
"  ;@.;;;;.;;;.;.;@;=%-->>>><,===&=&&&%*-->>:#<>+",
"  :.;;.;.;;;.;;;.X$&&&->>><======&=&$$$->>>#<;>:",
"  ;@:;;:;;;;:;;;+@$$=&&,,=====&=&&&$&$$$#<<<<*>:",
"  :@@..........@@.$&=&,&=,=&=&=&=&&$&$######<;>+",
"  .;.;.;;.;;.;;.;.####<#<<<<<<*<*<-**-*-*-*-*->+",
"                 >**>**>->->>>:>:::::::+++++++++"};
