/* XPM */
static char * image_name[] = {
"48 48 20 1",
" 	c None",
".	c #D8D8D7D7DBDB",
"X	c #FEFEFAFAFEFE",
"o	c #020201010000",
"O	c #242425251919",
"+	c #484850505252",
"@	c #616179798686",
"#	c #9E9EA4A4A6A6",
"$	c #D5D5D5D5B5B5",
"%	c #868671718686",
"&	c #B3B373732525",
"*	c #ABAB19191E1E",
"=	c #F7F738384141",
"-	c #757547470909",
";	c #E1E1A8A84141",
":	c #F3F3CCCC4E4E",
">	c #58582A2A0202",
",	c #A7A75E5E0C0C",
"<	c #B6B682820808",
"1	c #DCDC9B9B2222",
"                     .XXXXXXXXXXX               ",
"                     oooOO+@##$XXXX             ",
"                         +oooO+##..XX           ",
"                            +Ooo@###XXX         ",
"                              +oo+###$XX        ",
"+@+@+@+@+@+@+@+@+@+@+@+@+@+     o+#####XX       ",
"@XXXXXXXXXXXXXXXXXXXXXX...O%    +@###@##.X      ",
"+XXXXXXXXXXXXXXXXXXXXXXXXXO+    +#@#####@O      ",
"+XXXXXXXXXXXXXXXXXXXXXXXXXO@   +@###@###+o      ",
"@XXX+@%#+$&%&$+%##&#XXXXXXO+  +O########+o@     ",
"+XXXXXXXXXXXXXXXXXXXXXXXXXO% +@O+@##@@+@X#+@    ",
"@XXX@+.$##+X#####&@#####XXO@+#X.o@+OOoO+@X#+++  ",
"+XXXXXXXXXXXXXXXXXXXXXXXXXO+#X.@OoooO oO+@XXX#+ ",
"@XXXXX#+.$@##@#.#@X.XXXXXX+#X.@OOoO    oO+#.XX#o",
"+XXXXXXXXXXXXXXXXXXXXXXXX+#X.@OOo       oO#@.+oo",
"@XXX%#%$+%&##%#XXXXXXXXX+#X.@OOo        oO+#+oo ",
"+XXXXXXXXXXXXXXXXXXXXXX+#X.@OOo         Oo@+oo  ",
"@XXX@#@##.$@+##@.@.#.$+#X.@OOo           Oooo   ",
"+XXXXXXXXXXXXXXXXXXXX*#X.@OOo             OO    ",
"@XXX%O%%&++%.%+%%&%#***#@OOo                    ",
"+XXXXXXXXXXXXXXXXX#***=*OOo@                    ",
"@XXXXX++@#@$$@@..#***=**ooo-%;:::::::::::o      ",
"+XXXXXXXXXXXXXXX#***=*>oo@o-;;;;;;;;;;;;-o      ",
"@XXXX.+@++$%.##,***=**oo&$o-<&;;;1&1<,&&-o      ",
"+XXXXXXXXXXXXX****=**oo&##O-;&11;,>>-&,,-o      ",
"@XXX%%%..%++$***==**oo+##$O-1;11,,<<>-,&-o      ",
"+XXXXXXXXXXX*>**=*>>>+#$..>,111,,1;>:--,-o      ",
"@XXX@+X.$#+***=X**>oo++#.XO,1;1*1;O:&,o,,o      ",
"+XXXXXXXXX****=*#=>>##$.X.>,1:1-,>$1,>>,-o      ",
"@XXXXXXXX*>*==*o**o##$..XXO&1;1->:<,->>,-o      ",
"+XXXXXXX*>*=.=*ooo##$..XXX><;1:1-->>>O,<,o      ",
"@OOOOOO******#*oooOOOo>>O-O-1:1:1>>>><1,-o      ",
" @@@+@****=*o**o----,,&&&,&<:11111;&<<=<*o      ",
"     *>*=X=*ooo%1%&;;;::::::1:1;11;&1<<,-o      ",
"    ****=*#*oo &;,11;;:::::;:11;1<;<&,<,,o      ",
"   *>*==*o**o  &;;1;:;::::::;:11;1&11,&,-o      ",
"  ****X**ooo   ;;;11;:;::::::1:1111&<1=<*o      ",
" *>*==*#=oo    $;;11,->-1:::;;;;;*>-*,<,-o      ",
"*>*==*o**o     ::;;-<<<>-<:;:1:1,<<<>-,,,o      ",
"o*==>*ooo      $;;,<1;O:--:;;;1,,;1>:,-,>o      ",
"oo***ooo       ::1-<1>:&,o:1:1;*<1>:,*O,-o      ",
" oo*ooo        $;1*,>$<,->;:111-,>$<,-O,-o      ",
"  oooo         $:1->:<,*>>;1:11,>:,*,>>,>o      ",
"   >>          :;1<-->O>O,1;11;<>-->Oo,,>o      ",
"               $:111->>>,1:11111,*>>>,,,>o      ",
"               $;1;;111;1;1;111<1,,,,,*,>o      ",
"               $<,,&,,,,,,,,,*-*-------->o      ",
"               *,-*-*>>>>>>>>OoOoooooooooo      "};
