/* XPM */
static char * image_name[] = {
"48 48 10 1",
" 	c #B8B8BABAB9B9",
".	c #E1E1EFEFE3E3",
"X	c #DFDFCDCDB9B9",
"o	c #919157572A2A",
"O	c #BFBFE0E0C0C0",
"+	c #545459595252",
"@	c #DDDD95954444",
"#	c #151518180D0D",
"$	c #4C4C40403E3E",
"%	c #59597F7F6161",
"                                                ",
"..........................................  X o ",
".................................X.O.X.O..+  o@ ",
"..++X+X++..........O.O.O.OOOOO . .XO.  .O.# o@@ ",
"........X..X.....O...O.O.O..X.XX.OO$ooo#..#o@@@X",
"..++$X$X+$....O..O.OOO..O. .XO.O . @X+oo .oo@@o ",
"...X..X...X.....O..O.. . .OX.X O. O@$+ $ o@@@oo ",
"..++$X+Xo++$O..O.O. ..O.O. . O. OX.%##$@o@@@ooo ",
"...X..X.X.X... .. ..OX. .X.X.X.X. O$##$o@@@oooo ",
"...X.X...X......... .O.O.O. . . OO .O o@@@ooooo ",
"....X.X...X.X . .O.O. .OX. X.X O. O .o@@@oooooo ",
"...X..X.X.  .. O   O.. .O. . .O.O O o@@@oooooo# ",
"....X.....#++O %$+# +$%. .XX. O .O.o@@@oooooo##X",
"..X...X.. .......O.... . . .O . O o@@@oooooo### ",
"....X.....++.O$ %$OO#. X.X$O .OO.o@@@oooooo##$#X",
"....... ..% %# #.#++#O$ #.# OOO o@@@oooooo##### ",
"...X..... .... O...O.O+$$++#. .o@@@oooooo##$### ",
"...... ...% # O$  O+ ........Xo@@@oooooo##$###X ",
"... .... .++.+ ++$+O#++++++ .o@@@oooooo######$  ",
".......O.....OO.O. . ..O....o@@@oooooo####$##$  ",
".... . .. .OO.OO.X.X.X.O.O.o@@@oooooo###$##o#$  ",
".........O..O.O.O. .O .O..o@@@oooooo###$##o##$  ",
"...O. . .O. . .O . OX.X..o@@@oooooo##$###.###$  ",
"......... .O.. ..O..O..Oo@@@oooooo#######.###$  ",
"......O.O..............@@@@oooooo##$####o.###$  ",
" #####################o@@@oooooo####$#oo#####$  ",
" ++###################XXooooooo##$#$#o#######$  ",
"  %%$$$$$$$$$$$$$$$$$$XX@@@oo##$####$#$$#$#+#$  ",
" X+..................oX@ @@o##$####o.......##$  ",
"  +.........++.++#+ .@ @Xo$o#####oo........##$  ",
"  +.................%X@ o+$##o##o..........##$  ",
"O +...++#++++#++.+ .@X@oo$##$$#o...+++.....##$  ",
"  +................@ @ $###o$$o............##$  ",
" X+...##++.++++++. +@o$##$$oo@..++.........##$  ",
"  +...............#@+$#$o$o@...............##$  ",
"  +...+++.+#+++ .+##$#$o+@.................##$  ",
" X+..............####$o@...................##$  ",
"  +.........+++.+###$ ............++++.....##$  ",
"  +.............##$........................##$  ",
" O+...#.++#+++.+#+++#++++.++.+++.+++#+++...##$  ",
"  +.............    %......................##$  ",
" X+.............. %     ...................##$  ",
"  +...............  %      ................##$  ",
"  +................  % % %    .............##$  ",
" X+##########################################$  ",
"   ##########################################$  ",
"                                                ",
"  O                                             "};
