/* XPM */
static char * image_name[] = {
"48 48 20 1",
" 	c None",
".	c #929291919999",
"X	c #79798A8A6161",
"o	c #2B2B69690B0B",
"O	c #616152522E2E",
"+	c #202029291818",
"@	c #7979B2B2C7C7",
"#	c #A0A0D3D3E8E8",
"$	c #23234A4A5555",
"%	c #EFEFEFEFDFDF",
"&	c #97976E6E5151",
"*	c #60609D9DACAC",
"=	c #35356E6E9F9F",
"-	c #0C0C0E0E0A0A",
";	c #A4A450501A1A",
":	c #45450D0D0202",
">	c #61611C1C0808",
",	c #BEBE61611818",
"<	c #DFDFAEAE7979",
"1	c #EFEFD1D1A5A5",
"                                                ",
"                 .XoOoXXo+OOO..                 ",
"               .OXXXX@#@  .O+ooO.               ",
"             .X$@#####%%@&X#oo+o+O.             ",
"            XXooo@#@X@XXoo&@##$oo++o            ",
"          @Xoooooo@o@@XoX*oX.@**$oo+O.          ",
"         .XoXooooooX##@X@*OoX$o==$o++$.         ",
"         @*@@oooooXo*@XoX***oo=*=@=o++$.        ",
"        ###XoooooooooX*@#@oXXO***=*=$o+*        ",
"       ######@oooooooo*#@oX@*@*=**===$+=X       ",
"       #%#%###Xooooooo@*oooo****===*==+*$.      ",
"      ##%##%##oooooooo***oo+o===@=======$O      ",
"      #@#####Xoooooo++oo*+oo*==*=======$--.     ",
"     @######Xoooooo+o+o+o+oo=@====*===$$+-&     ",
"     ##@####ooXooooo+o-o++o=*=========$$---     ",
"     @######oooXoooo+++--$=*==========$$++-.    ",
"    @##@####oooooooo-++o+o*=====*====$$----O    ",
"    #.@@####ooooooo+o+-+o$*=*========$$$+--$    ",
"    @*@#####ooooooo+-+-o-+*===*=====$$-----+    ",
"    @@@@@#@#@Xoooo++-++-$=*=======$=$-$$+-+-    ",
"    .@.@.@@@@*oooooo++++-$=*=====$$$$$------    ",
"    @.@@*@***@@oo+o*$===$o=====$$$$$-$-$---+    ",
"    ***@*@*@@**oooo======-====$$$-$-$-------    ",
"    @=@=****=*=*o+++o$$ooo$$$$$-$$-$-$-----$    ",
"   @O=*=@=====*=oo++-$==+$+o$+--$-$--------$.   ",
"   O;O+========$=$+-+++$$$++-$---$--------:>:.  ",
"  &;;,>==:>+$====$o+o+o+$------+----+$>$--;,,>  ",
" .>,,;:$>,,;+=:++$$+$$+-------::>O---;,;--:;,;O ",
".>,,;:::;,;::+;,;O>O:$+>>>--->;;;,>-::;,>::>,,>.",
"&&,,:::;,,>:-O,,>O,;:$+O,;---;,>;,,-::>,,:::;,,>",
"O%%&>:>,,;:::,,;-O,,:++>,;--:>,>>,,;:::;,;:::<,O",
"&<1<+:<1<:::;,,:-O,,:$+>,;--:;,>:>,,>::O<1>::<<>",
".&11::111::O1<>--O,,:-:O,;--:;,;-:<1%::X11O:>,,O",
" O%1::111::;<<---.11O-:<11--:11&-:.%1::<<1;:;<;.",
" O%1O;11<>:&,<---O%1X-:111--><<>::X%1O:<1<&:,,> ",
" &11&;1<<;:,<>----%%&->111>:><,--:>%1;:1<<,:,<> ",
" ..1&&<&<;:<,>----11<-O1<<;-;<,---:%1&>1&<<>,;O ",
"  O1<&<><&><,-----.11:&1<<&:,,;--::11<;<><,O,;. ",
"  O%<<<-,,O,,-----O%1><<O<&:<,O--::.1<&<:&<,,>  ",
"  &1<<,-&<,&;-+.O--%1><<O,<>,,:O&.:O1<<<-,,<,>  ",
"  ..<<&-;,,,O-O  @O11&<<:<,;<;O  .::%<<;->,,;O  ",
"   &1,>-;<,,--    .&1<<&:,,;,>.   O:%<<;-O,,>.  ",
"   O1<>.>,,;-.     O1<,,O;<,,>    .:<<,O.:,,>   ",
"   &X;O >,;;O      >1<<>.;,,;O     >&<<> &;;>   ",
"    .&& >;;O       O1<,>.O,&;&     .O<;O .>O.   ",
"        .O>&       &<<,O >,;>.      &>..        ",
"                   .:>>X >>>:                   ",
"                                                "};
