/* XPM */
static char * image_name[] = {
"56 56 249 2",
"  	c #08081010A5A5",
". 	c #10101818A5A5",
"X 	c #10102121A5A5",
"o 	c #21212929A5A5",
"O 	c #29293939ADAD",
"+ 	c #39394242ADAD",
"@ 	c #52525A5AB5B5",
"# 	c #63636B6BB5B5",
"$ 	c #6B6B7373B5B5",
"% 	c #6B6B7373BDBD",
"& 	c #4A4A5252B5B5",
"* 	c #4A4A5252CECE",
"= 	c #31313939BDBD",
"- 	c #39394242CECE",
"; 	c #42424A4ACECE",
": 	c #5A5A6363CECE",
"> 	c #6B6B7373D6D6",
", 	c #73737B7BD6D6",
"< 	c #84848C8CDEDE",
"1 	c #94949494DEDE",
"2 	c #9C9C9C9CDEDE",
"3 	c #8C8C9494DEDE",
"4 	c #84848C8CCECE",
"5 	c #7B7B8484D6D6",
"6 	c #63636B6BD6D6",
"7 	c #63636B6BC6C6",
"8 	c #52525A5ACECE",
"9 	c #7B7B8484FFFF",
"0 	c #4A4A5A5AD6D6",
"q 	c #4A4A5252D6D6",
"w 	c #52526363DEDE",
"e 	c #52525A5ADEDE",
"r 	c #5A5A6363DEDE",
"t 	c #63636B6BDEDE",
"y 	c #73737B7BDEDE",
"u 	c #7B7B8484E7E7",
"i 	c #84848C8CE7E7",
"p 	c #8C8C8C8CE7E7",
"a 	c #94949C9CE7E7",
"s 	c #A5A5ADADEFEF",
"d 	c #ADADB5B5EFEF",
"f 	c #9C9CA5A5EFEF",
"g 	c #94949C9CEFEF",
"h 	c #73737373E7E7",
"j 	c #8C8C9494E7E7",
"k 	c #E7E7E7E7FFFF",
"l 	c #73737B7BE7E7",
"z 	c #4A4A5A5ADEDE",
"x 	c #42424A4AD6D6",
"c 	c #A5A5ADADE7E7",
"v 	c #84848484E7E7",
"b 	c #CECECECEF7F7",
"n 	c #FFFFFFFFFFFF",
"m 	c #DEDEDEDEF7F7",
"M 	c #84848C8CFFFF",
"N 	c #39394242D6D6",
"B 	c #C6C6C6C6F7F7",
"V 	c #4A4A5252DEDE",
"C 	c #73737B7BFFFF",
"Z 	c #D6D6D6D6F7F7",
"A 	c #F7F7FFFFFFFF",
"S 	c #6B6B7373FFFF",
"D 	c #6B6B7373E7E7",
"F 	c #5A5A6B6BFFFF",
"G 	c #31313939C6C6",
"H 	c #EFEFEFEFEFEF",
"J 	c #8C8C9494D6D6",
"K 	c #7B7B8484ADAD",
"L 	c #7B7B7B7BE7E7",
"P 	c #BDBDBDBDEFEF",
"I 	c #B5B5BDBDF7F7",
"U 	c #73737373ADAD",
"Y 	c #6B6B6B6B7B7B",
"T 	c #5A5A52526363",
"R 	c #F7F7F7F7FFFF",
"E 	c #9C9C94946363",
"W 	c #CECEC6C66B6B",
"Q 	c #BDBDADAD6363",
"! 	c #4A4A4A4A7B7B",
"~ 	c #9C9C9C9CADAD",
"^ 	c #84847B7B6B6B",
"/ 	c #C6C6BDBD6363",
"( 	c #BDBDB5B56B6B",
") 	c #7B7B7B7B6B6B",
"_ 	c #313131315A5A",
"` 	c #73737B7BC6C6",
"' 	c #D6D6D6D6DEDE",
"] 	c #C6C6C6C6DEDE",
"[ 	c #FFFFFFFFEFEF",
"{ 	c #E7E7D6D6A5A5",
"} 	c #4A4A4A4A6363",
"| 	c #393939396363",
" .	c #42424A4A7B7B",
"..	c #B5B5B5B5EFEF",
"X.	c #94949494ADAD",
"o.	c #F7F7F7F7C6C6",
"O.	c #D6D6CECE7B7B",
"+.	c #CECEBDBD6B6B",
"@.	c #52524A4A6363",
"#.	c #636363639C9C",
"$.	c #73736B6B6363",
"%.	c #B5B5ADAD6B6B",
"&.	c #EFEFE7E7B5B5",
"*.	c #B5B5ADAD7B7B",
"=.	c #F7F7EFEFCECE",
"-.	c #848484847373",
";.	c #424242426363",
":.	c #393942426B6B",
">.	c #B5B5BDBDEFEF",
",.	c #5A5A6363A5A5",
"<.	c #424242426B6B",
"1.	c #A5A594946B6B",
"2.	c #C6C6BDBD9C9C",
"3.	c #4A4A52527373",
"4.	c #525252527373",
"5.	c #636363637373",
"6.	c #39394A4ACECE",
"7.	c #DEDEE7E7EFEF",
"8.	c #7B7B8484BDBD",
"9.	c #5A5A4A4A6B6B",
"0.	c #525242425A5A",
"q.	c #B5B5B5B5C6C6",
"w.	c #4A4A4A4A6B6B",
"e.	c #ADADADADB5B5",
"r.	c #F7F7F7F7D6D6",
"t.	c #9C9C94946B6B",
"y.	c #9C9C9C9CBDBD",
"u.	c #B5B56B6B7B7B",
"i.	c #BDBD5A5A7B7B",
"p.	c #C6C66B6B7B7B",
"a.	c #7B7B5A5A6B6B",
"s.	c #737373738484",
"d.	c #848484849C9C",
"f.	c #5A5A5A5A7373",
"g.	c #737352528C8C",
"h.	c #ADAD5A5A7373",
"j.	c #FFFFEFEFE7E7",
"k.	c #DEDECECECECE",
"l.	c #737352526B6B",
"z.	c #84845A5A6B6B",
"x.	c #94945A5A7373",
"c.	c #4A4A4A4A8484",
"v.	c #737342426363",
"b.	c #8C8C52527373",
"n.	c #5A5A63637B7B",
"m.	c #525252526B6B",
"M.	c #636373736B6B",
"N.	c #42424A4A9494",
"B.	c #292929295A5A",
"V.	c #7B7B4A4A6B6B",
"C.	c #C6C6CECED6D6",
"Z.	c #94948C8C6B6B",
"A.	c #ADAD9C9C6B6B",
"S.	c #8C8C9494EFEF",
"D.	c #94949C9CFFFF",
"F.	c #848452526B6B",
"G.	c #6B6B6B6B8484",
"H.	c #848473738484",
"J.	c #A5A563637373",
"K.	c #4A4A52526363",
"L.	c #D6D6CECE6B6B",
"P.	c #6B6B4A4A8C8C",
"I.	c #5A5A63638C8C",
"U.	c #A5A5ADADFFFF",
"Y.	c #636352526B6B",
"T.	c #73734A4A6B6B",
"R.	c #F7F7DEDEDEDE",
"E.	c #CECE73737B7B",
"W.	c #84845252A5A5",
"Q.	c #ADAD5A5AC6C6",
"!.	c #BDBD6363D6D6",
"~.	c #BDBD5A5ADEDE",
"^.	c #9C9C4A4AC6C6",
"/.	c #525239397373",
"(.	c #C6C663637B7B",
").	c #A5A57B7B8C8C",
"_.	c #ADAD5252D6D6",
"`.	c #525252527B7B",
"'.	c #737352529494",
"].	c #8C8C4242B5B5",
"[.	c #52525A5A8484",
"{.	c #7B7B7B7BA5A5",
"}.	c #6B6B4A4A6B6B",
"|.	c #73735A5A9494",
" X	c #94946363ADAD",
".X	c #636352527B7B",
"XX	c #94945252BDBD",
"oX	c #8C8C8C8CB5B5",
"OX	c #A5A55A5AC6C6",
"+X	c #94945A5AB5B5",
"@X	c #8C8C5252ADAD",
"#X	c #848463639494",
"$X	c #7B7B5A5A9C9C",
"%X	c #CECE6363E7E7",
"&X	c #B5B56363CECE",
"*X	c #94945A5AADAD",
"=X	c #636363638484",
"-X	c #6B6B6B6B8C8C",
";X	c #52526B6B6B6B",
":X	c #52527B7B7373",
">X	c #5A5A7B7B7373",
",X	c #5A5A6B6B6B6B",
"<X	c #ADAD6363BDBD",
"1X	c #6B6B5A5A8484",
"2X	c #A5A56363C6C6",
"3X	c #6B6B6B6BADAD",
"4X	c #9C9CA5A5FFFF",
"5X	c #D6D6DEDEFFFF",
"6X	c #52525A5A9C9C",
"7X	c #5A5AA5A57B7B",
"8X	c #6363C6C68484",
"9X	c #6363BDBD8484",
"0X	c #63639C9C7B7B",
"qX	c #73735A5A8484",
"wX	c #BDBD6B6BCECE",
"eX	c #4A4A52528C8C",
"rX	c #5A5A8C8C7373",
"tX	c #5A5A94947B7B",
"yX	c #636384847373",
"uX	c #6B6BB5B58484",
"iX	c #9C9C5A5AB5B5",
"pX	c #5A5A84847373",
"aX	c #636394947B7B",
"sX	c #6363B5B58484",
"dX	c #6363A5A57B7B",
"fX	c #525263636B6B",
"gX	c #73737373BDBD",
"hX	c #5A5A6363B5B5",
"jX	c #525273737373",
"kX	c #D6D66B6BE7E7",
"lX	c #ADADB5B5FFFF",
"zX	c #7373C6C68484",
"xX	c #C6C6C6C6FFFF",
"cX	c #7373B5B58484",
"vX	c #8C8C8C8CCECE",
"bX	c #737394947B7B",
"nX	c #737373737B7B",
"mX	c #7B7B7B7BB5B5",
"MX	c #D6D6D6D6FFFF",
"NX	c #6B6B6B6BB5B5",
"BX	c #8C8C8C8CDEDE",
"VX	c #B5B5BDBDE7E7",
"CX	c #6B6B73738484",
"ZX	c #8C8C9494ADAD",
"AX	c #63636B6B8484",
"SX	c #9C9CA5A5BDBD",
"DX	c #4A4A52527B7B",
"FX	c #A5A5A5A5C6C6",
"GX	c #BDBDC6C6F7F7",
"  . X . X X o O O o o o O o o o O O + @ # $ % $ # # # # @ & + + O O O O O + + & & + + O O O + + + O o O O o X * ",
"X = - - - - ; ; * ; ; ; ; ; ; * : : > , < 1 2 1 3 3 3 4 5 > 6 : : : : : 7 > > , , > 5 1 : : : 8 8 * * 8 8 ; ; 9 ",
"o ; 0 q q q q q 0 w e 0 0 0 r t y u i p a s d s s f f g p y t r t t h u u u u j a d k k l t t r e e 0 r r q z 9 ",
"o ; q x x x q q q 0 0 0 0 e t > y i a j a f s c f a a a u y t t r t > y v 5 < i b n m < t r r : e : 0 r 0 q q M ",
"O * 0 x N x 0 x x q q e r r t l u p a a a a c f a a a v i y t r : t > u i i i j s n B > t r : r r r e 0 q x V C ",
"+ : r x x x q q q x q q : t > y i j a a a a a a a p p j i y t t t > l i j j a j a Z A p y l t r : e q x x N N S ",
"+ : > e 0 0 x q q x x e r t l 5 i a a g a a p i p i i j i l y D > l y v p p j a a c n B i u y t t 0 q x N - N F ",
"+ : D > r e 0 q q 0 0 r t y y u i p p a a a j i < v < i < u 5 a b B u y < i j a a f Z n a i y l > r 0 q N G N F ",
"+ 6 y D t w 0 q q 0 r t > D 5 i i i i a f s p p i 5 i v v u i k H k m 5 u i p j J K c n b < u y D r 0 q N N N F ",
"& > > t : r r e e 0 0 r > l l i 5 L 5 p P n a j i v u < j i a n s j n I 5 p 4 U Y T 4 b n a v y t : e x N N N S ",
"+ 6 D t r e : r : r r r D > y L u 5 u u a R Z j j i i j p < i R b i B R 3 $ Y E W Q ! 5 A b 5 l t r 0 q x x q C ",
"+ : r t r 0 e w r r : r t t t l 5 i i < u P n d a j j < i L 5 P n a 3 R ~ ^ / W ( ) _ ` P n j l > r e 0 x x z 9 ",
"O 8 r r : r 0 : r r t t j s > t l u v i i j R R Z j i i 5 L u i R ' ] [ { / Q ^ } | _  .< R b y > t : r e q 0 M ",
"O * : e r t r r r t t j n ..> > > y 5 u i d n n P j < v u 5 i 5 X.n o.O./ +.@.| | | | _ # d n u t t t r 0 0 e M ",
"o ; e 0 r t > t t y > f n j D D D > l < i a d R Z p i u v 4 #.$.%.[ &.^ *.=.-.;.;.;.| | :.5 a > r t t t t 0 w M ",
"o ; V 0 r t l y L y l y k Z > > > > l 5 v j p >.n f j J ,.<.| 1.W 2.n 3.4.n { 5.;.;.| | _ ,.D > t t t t t : r M ",
"o 6.0 0 t t y u 5 l y t c n f g D D > l u < i p k 7.8.9.0.} | T 5.;.7.q.w.e.r.t.;.} ;.| | :.` l > t t t t r r M ",
"X ; r 0 t t > l l y y > u R n b t t t > l 5 i < y.n u.i.p.i.a.| | ;.s.n d.q.r.W f.;.;.| | | #.l > > t t > r 0 M ",
"o ; r : r t t > y l y h Z k n j r 0 r t > l ` g.h.j.k.l.z.u.x.;.| | w.s.H ' *.W 1.;.;.;.| | | 5 l D y D > t r M ",
"O * t t t t t > D > > > u 5 k m 0 0 t r 7 c.v.i.b.s.n n.<.@.;.| ;.;.;.w.w.;.m.W W M.;.;.;.;.| #.u 5 u 5 D t > M ",
"+ : > D t t t > D > D D > D f n p r 6 N.B.@.i.V.| <.' C.;.| ;.;.;.;.<.} w.w.} Z.W A.w.;.;.;.| | 8.S.i i L y D D.",
"O : t > > t > D > t > l > t : k m 0 7 | B.F.i.@.| :.G.n H.b.J.J.b.@.K.} ;.;.;.m.W L.M.} 4.P.P.;.I.i i < 5 L y U.",
"o * j k Z u l > D > D > t r V i n j 7  .| b.p.b.Y.T.x.R.j.u.u.p.E.J.w.K.w.;.;.;.^ t.5.W.Q.!.~.^./.4 i p i 5 u U.",
"o 6 R b R m u > t t t r r 0 0 q k m ,.w. .@.h.p.(.u.h.).X.9.K.Y.p.E.Y.} K.;.} ;.w.W._.!.W.`.'._.].[.a g j v l U.",
"X 5 n 5 i n >.t t t t : e 0 e q i n {.! n.:.} }.}.Y.} | ;.;.w.K.u.E.f.K.w.K.w.|.Q.~. X.XK.w.;.XX^.| oXf j i 5 U.",
". 8 n B r B n u r t t r : r 0 q 0 m ' [.`.3.| | | ;.;.;.<.} } }.E.J.K.w.m.g.OX~.+X.XK.m.m.K..X_.@X;.[.a a v u U.",
"X * >.P w B n P t r r t r r 0 r t 1 n d.! `.<.| Y.@.<.} K.<.l.p.u.m.K.@.m.Q.~.#XK.K.K.K.f.$X!.Q.f.;.| 8.j < u U.",
"O * t r < n k R 5 t : t t t t t t % ' R.`.3. .V.p.u.l.}.a.J.E.J.@.} } m.m.g.%X X@.m.w.#X&X~.*Xf.K.;.;.3.< u y U.",
"O * e 0 B H y R B r r t > > > > t # =X-X .! 3.9.J.E.E.E.E.u.}.w.;X:X>X,Xm.,X<X~.Y 1X2X~.<X1X@.m.@.w.;.| 3Xy l 4X",
"o ; 0 0 5XZ w d n y t t t D D > t 6X:. .3.4.`.3.<.Y.z.a.Y.w.:X7X8X9X9X8X0X,XqX~.wX!.OX1Xw.@.m.m.m.K.} | w.< y 4X",
"X - V q b k : t R B t t t > y D t eX<.<.3.3.4.`.<.;.w.w.w.rX9XtX;Xw.;XyXuXuX,XiX%X$Xw.@.@.w.@.m.@.w.;.;._ 3Xl D.",
"  G q q j n j r d n j > > D > t > c.<.<.3.3.4.`.4.;.} K.;X9XpX;.w.K.w.@.aX8XsX.X~.iX@.@.w.@.m.K.K.K.;.;.| #.y D.",
"  G q 0 r m k i B n Z > D > D t 7 <. .3.3.3.4.4.`.m.w.K.dXsX;.} } } ;XdXuXuX>X@. X%Xg.fXm.fXm.K.w.;.w.w.;.gXl D.",
"X 6.e 0 0 5 k n H j l t r t t t hX:.<.<.3.3.4.4.4.f.w.m.9XpX} } jX0X9XuXpX@.m.fXf.!.Q.,X@.f.@.m.m.4.m.;.3.< 5 4X",
"o ; e 0 e e > a l > t r 0 r t t 6 /.:.<.w.3.4.4.f.f.f.;X9X:Xm.rXsXsXrXm.m.m.dXdX@. XkX#X,XT ,Xf.f.w.} | -Xj i 4X",
"O 8 r r : r t t t r r 0 0 0 w t > 6X:.<.<.w.w.4.f.n.5.,XuXdXsX9XrXm.m.@.@.@.uXdXm.5.!.wX5.5.5.m.} K.;.;.4 j i lX",
"+ 8 t : t t > t t : e q q 0 0 t > : :.:.<.<.w.m.f.5.5.f.dX8XaXfX} m.@.m.w.,XzX0Xf.T #X#X5.f.T m.K.;.;.`.a a j lX",
"+ : t D > t D t r e 0 e 0 r 0 r t t 6X| <.w.w.m.m.f.f.f.pX8XaXK.} K.w.@.,XuXzXM.T 5.M.5.,Xf.@.m.} } | U a a a xX",
"O : D > D t r : r : r 0 t 0 t 0 w t >  .<.w.w.w.w.m.f.f.f.tX9XdXjXm.m.yXcXzXyX5.Y Y 5.5.f.m.m.w.} ;.;.vXa f s xX",
"+ : y y y t 0 z e r r t r r : r t t y #.;.<.<.<.<.w.m.m.f.m.rXsX8XuX8X8XcXbXnXnXnXY 5.f.f.m.w.w.;.| =Xf a a d 5X",
"+ 6 l y > t r q 0 0 r r 6 r r r t > L 4 3.;.<.K.w.w.m.m.5.f.K.fX>XaXaXyXnXnXnXnXnXY 5.5.m.m.w.K.<.;.mXf f c d 5X",
"+ > u l l > r 0 0 r : t t r : t t y l i U | <.w.w.w.m.m.f.5.m.w.@.@.5.nXnXnXnXnXnXY 5.f.f.m.w.w.;.w.J f a a d k ",
"& > u y y t t r 0 e e r t t r t > D 5 u < <.;.w.w.w.w.m.m.f.f.w.f.Y G.nXnXnXnXnXnXM.Y 5.f.4.m.w.| -Xa a s a d 5X",
"& ` v u > t r 0 r 0 0 e : r t > l y y u < 3X;.w.w.m.m.m.m.f.5.n.Y Y nXnXnXH.nXnXnXY Y 5.f.m.m.;.w.vXa a a c s MX",
"hX5 p 5 D r : r 0 r 0 : r r t l y y y v i J 3.} w.m.m.,Xf.m.n.Y n.Y Y s.nX-.s.nXnXY 5.5.f.K.f.K 1 j j g a s s b ",
"NXBXS.i y > r r 6 t t t t t > y l y u j a a U ;.w.w.m.f.f.f.Y G.Y s.nXs.s.nXnXnXY Y 5.f.5.K 2 f a a j a s a s MX",
"gXJ a i u D > t t > h > y > l y l 5 i a a f 3 4.;.w.m.m.m.f.G.Y Y s.s.nXnXs.nXY Y f.Y X.VX..s s a j a a c c s 5X",
"$ J g p 5 y > t l l 5 u l u y u 5 i p a a a a mX| w.m.m.m.5.G.Y G.CXnXs.s.nXnXY Y ZXVXP >.d s a a a a f s s s MX",
"% BXj i u l > l y u u u 5 L u 5 S.j j j j a a j `.;.w.w.w.Y G.G.Y s.nXs.nXY 5.d.VXB VX>...s c f a f a c s c s b ",
"$ BXj v y y l y u y y L l 5 i p j p i p j a p i 3X;.w.w.m.AXCXG.G.s.s.Y Y s.SX] B P >.d s s c a a a f a a s d 5X",
"# 4 j u y l 5 u 5 u y y y u i j i i < i i i j u 5 DX;.w.f.s.s.s.s.nXY s.FXB b B B P ..s c c s s c s a a a s ..5X",
"hX5 v 5 u 5 i i i L y > l < i i < i i v u 5 u y u $ ;.w.n.G.s.Y Y {.e.B B b b B P d c s a f a c s s a c s c s MX",
"@ , u l l u v i j u y l y u i < u v 5 u y l y y u < `.;.G.Y Y {.SX] b B B B P P >.s a a f a a s a c f a f a s MX",
"& > y y y y y 5 i i 5 l y 5 v i 5 u l y > > D y y p 8.;.n.s.y.] B B B P VX>.>.>.s s a a a p a a a a a a a d d 5X",
"+ 6 l y l > l u p j p i u u i v u l 5 l D D > y v i a {.oXd GXP P B P >.d d s d d a a p i u v p j p a a a s ..k ",
"8 g D.4XU.4X4XU.lXI I lXI lXU.U.4X4X4XU.U.4X4XU.U.lXxXxXMX5Xk k k k k 5XMXb b xXxXxXxXlXU.4X4XU.lXI xXxXb MX5X5X"};
