/* XPM */
static char * image_name[] = {
"48 48 227 2",
"  	c None",
". 	c #ACACA0A0B7B7",
"X 	c #ACACAAAAACAC",
"o 	c #BCBCBABAC4C4",
"O 	c #FCFCFEFEFCFC",
"+ 	c #E4E4E1E1E4E4",
"@ 	c #CCCCCACACCCC",
"# 	c #A4A4B3B3B4B4",
"$ 	c #CCCCCECED0D0",
"% 	c #A4A49696AFAF",
"& 	c #B4B4B2B2B9B9",
"* 	c #D4D4D2D2DADA",
"= 	c #E4E4E6E6E5E5",
"- 	c #C4C4C2C2CCCC",
"; 	c #C4C4C6C6CCCC",
": 	c #F4F4F2F2F4F4",
"> 	c #ECECF2F2F4F4",
", 	c #CCCCCACADCDC",
"< 	c #ECECEAEAECEC",
"1 	c #FCFCFAFAFCFC",
"2 	c #B4B4B6B6B7B7",
"3 	c #C4C4BABACCCC",
"4 	c #E4E4EAEAECEC",
"5 	c #A4A4AAAAACAC",
"6 	c #A4A4A1A1B1B1",
"7 	c #A4A4A6A6A4A4",
"8 	c #BCBCC6C6C4C4",
"9 	c #DCDCDEDEE3E3",
"0 	c #9C9C9E9E9C9C",
"q 	c #B4B4A6A6BCBC",
"w 	c #C4C4CECECCCC",
"e 	c #A4A4A6A6B4B4",
"r 	c #C4C4BABABCBC",
"t 	c #BCBCBEBECACA",
"y 	c #CCCCC2C2D4D4",
"u 	c #646466666C6C",
"i 	c #444442423434",
"p 	c #7C7C7A7A7C7C",
"a 	c #5C5C56564444",
"s 	c #A4A49E9E0C0C",
"d 	c #BCBCAAAA0404",
"f 	c #F4F4F6F6FCFC",
"g 	c #8C8C9A9ABCBC",
"h 	c #CCCCC6C6D4D4",
"j 	c #6C6C69697979",
"k 	c #6C6C66665454",
"l 	c #94948A8A0C0C",
"z 	c #F4F4DEDE0C0C",
"x 	c #F4F4E6E61414",
"c 	c #14140E0E0808",
"v 	c #747472727C7C",
"b 	c #9494A6A6A4A4",
"n 	c #9C9C8A8AA4A4",
"m 	c #9C9C8E8E0F0F",
"M 	c #E4E4D2D20808",
"N 	c #9C9C96960C0C",
"B 	c #34342E2E0404",
"V 	c #040402020404",
"C 	c #24242A2A2C2C",
"Z 	c #9C9C9A9AACAC",
"A 	c #8C8C92929494",
"S 	c #5C5C5E5E5858",
"D 	c #84847E7E1414",
"F 	c #ECECDADA1414",
"G 	c #ECECDEDE0C0C",
"H 	c #34342A2A0808",
"J 	c #848482828484",
"K 	c #4C4C4E4E4C4C",
"L 	c #0C0C0E0E1414",
"P 	c #7C7C6E6E0404",
"I 	c #FCFCF9F90F0F",
"U 	c #C4C4B6B60C0C",
"Y 	c #444439390C0C",
"T 	c #3C3C2E2E0404",
"R 	c #1C1C1C1C1C1C",
"E 	c #9C9CAAAAACAC",
"W 	c #D4D4DADADCDC",
"Q 	c #ACACBABABCBC",
"! 	c #8C8C7E7E8080",
"~ 	c #5C5C2E2E2C2C",
"^ 	c #3C3C0E0E0C0C",
"/ 	c #141402020404",
"( 	c #54544A4A0C0C",
") 	c #0C0C0B0B0C0C",
"_ 	c #FCFCECEC1010",
"` 	c #6C6C6F6F7171",
"' 	c #747466666C6C",
"] 	c #A4A446463434",
"[ 	c #C4C434341C1C",
"{ 	c #DCDC3E3E2424",
"} 	c #BCBC39392121",
"| 	c #242409090404",
" .	c #BCBCAEAE0C0C",
"..	c #040406060404",
"X.	c #949486868C8C",
"o.	c #8C8C8E8E9C9C",
"O.	c #64643E3E3C3C",
"+.	c #A4A42A2A1414",
"@.	c #545417170C0C",
"#.	c #2C2C0E0E0A0A",
"$.	c #64641E1E1414",
"%.	c #7C7C24241414",
"&.	c #141406060707",
"*.	c #5C5C52520C0C",
"=.	c #4C4C4A4A5151",
"-.	c #343433333333",
";.	c #6C6C22221414",
":.	c #0C0C02020606",
">.	c #2C2C26260404",
",.	c #141412120A0A",
"<.	c #04040A0A0606",
"1.	c #54545A5A6464",
"2.	c #848424241414",
"3.	c #1C1C0C0C0808",
"4.	c #8C8C26261414",
"5.	c #9C9C2C2C1C1C",
"6.	c #8C8C7E7E0C0C",
"7.	c #545452520404",
"8.	c #2C2C0B0B2C2C",
"9.	c #44440A0A4444",
"0.	c #141402021414",
"q.	c #0C0C12121111",
"w.	c #ECEC46462C2C",
"e.	c #8C8C2A2A1C1C",
"r.	c #A4A432321C1C",
"t.	c #C4C43A3A2424",
"y.	c #CCCC3C3C2424",
"u.	c #B4B436361F1F",
"i.	c #14141A1A0404",
"p.	c #646466660404",
"a.	c #54542A2A3434",
"s.	c #84840E0E8C8C",
"d.	c #A4A41E1EA8A8",
"f.	c #ACAC1E1EB0B0",
"g.	c #A4A41616B0B0",
"h.	c #34340A0A3434",
"j.	c #2C2C2B2B2B2B",
"k.	c #242402022828",
"l.	c #6C6C02028484",
"z.	c #7C7C22227C7C",
"x.	c #1C1C05051C1C",
"c.	c #9C9C1616A4A4",
"v.	c #84840A0A8888",
"b.	c #34342E2E3030",
"n.	c #0C0C06060505",
"m.	c #64640E0E6C6C",
"M.	c #A4A41A1AACAC",
"N.	c #949417179999",
"B.	c #3C3C12123C3C",
"V.	c #848412128888",
"C.	c #242422221C1C",
"Z.	c #ACAC32321C1C",
"A.	c #1C1C06060404",
"S.	c #C4C42222CCCC",
"D.	c #44441A1A4C4C",
"F.	c #848416168484",
"G.	c #747472727070",
"H.	c #242424242424",
"J.	c #A4A42E2E1C1C",
"K.	c #E4E442422424",
"L.	c #5C5C1E1E1414",
"P.	c #A4A426261C1C",
"I.	c #C4C41E1EC4C4",
"U.	c #14140D0D1414",
"Y.	c #747422227474",
"T.	c #24240A0A2C2C",
"R.	c #5C5C5A5A5C5C",
"E.	c #44441A1A1414",
"W.	c #DCDC42422424",
"Q.	c #14143C3C1010",
"!.	c #14147A7A1C1C",
"~.	c #1C1C86862424",
"^.	c #1C1C7A7A2020",
"/.	c #0C0C3E3E0C0C",
"(.	c #949412129C9C",
").	c #5C5C1A1A6464",
"_.	c #2C2C26262424",
"`.	c #0C0C72721818",
"'.	c #2424A9A92C2C",
"].	c #141466661C1C",
"[.	c #24248A8A2424",
"{.	c #2C2CB1B12C2C",
"}.	c #343412123434",
"|.	c #CCCC1A1ACCCC",
" X	c #4C4C0A0A5454",
".X	c #24241D1D1F1F",
"XX	c #0C0C30300C0C",
"oX	c #1C1C65651C1C",
"OX	c #2C2CD6D63434",
"+X	c #14146A6A1414",
"@X	c #14141A1A1C1C",
"#X	c #04041E1E0404",
"$X	c #2C2CA9A92C2C",
"%X	c #141451511414",
"&X	c #1C1C6D6D1C1C",
"*X	c #24248E8E2424",
"=X	c #040432320404",
"-X	c #BCBC1A1AC4C4",
";X	c #5C5C12126464",
":X	c #1C1C15151616",
">X	c #141414141414",
",X	c #141446461414",
"<X	c #24249E9E2929",
"1X	c #04040E0E0404",
"2X	c #040415150404",
"3X	c #14144A4A1414",
"4X	c #74740E0E7474",
"5X	c #B4B41E1EB7B7",
"6X	c #7C7C12127C7C",
"7X	c #747476767474",
"8X	c #1C1C0E0E1C1C",
"9X	c #2424B2B22C2C",
"0X	c #54540E0E5454",
"qX	c #2C2CB8B82E2E",
"wX	c #0C0C28280C0C",
"eX	c #242494942424",
"rX	c #14142A2A1414",
"tX	c #2424A2A22C2C",
"yX	c #141432321010",
"uX	c #0C0C1D1D0A0A",
"iX	c #1C1C36361818",
"pX	c #1C1C26261C1C",
"aX	c #3C3C3C3C4040",
"sX	c #74747E7E7C7C",
"dX	c #545454545656",
"fX	c #2C2C2E2E3434",
"gX	c #444443434444",
"                                . X                                                             ",
"                              o O +             + .                                             ",
"                              @ +               O #                                             ",
"                              $ +               O .                                             ",
"                              @ +               O #             . %             % & . &         ",
"        @ O O *             = O O O           O O O #         o O O -           ; : > ,         ",
"        : * ; O             . * < #           X O o           1 & 2 :           3 4             ",
"        O o & O 5             $ =               O .           O 6 7 O           8 9             ",
"        & 0 6 O q             w +               O X           O e 7 O           r 9             ",
"          t 1 O &             y +               O e   u i     O * * O           8 9             ",
"        r 1 q O q             - +               < p a s d a   O < 9 +           3 9             ",
"        f t g O #             h =             j k l z x l c v O b               8 9             ",
"      & O 0 n O q             w +         j a m M x N B V V C = % 0 9           r 9             ",
"      & O Z A O #             y +       S D M z F G H V V V V J 6 e O           8 9             ",
"      X O # % O q             - +   K L P I U Y T x N V V V V R 6 E 1           r 9             ",
"        W O 1 O Q             5 ! ~ ^ / H ( ) V V m _ Y V V V V ` 1 #           8 9             ",
"          & % E %           ' ] [ [ { } | V V V V H x  ...V V V ) A             X.o.            ",
"                        ` O.[ +.@.#.$.%.&.V V V V V l I *.V V V V =.                            ",
"                      -.| [ ;.:.V V V V V V V V V V >.F U ,.V V V <.p                           ",
"                    1.V 2.{ &.V V 3.@.4.5.$.V V V V V 6.I 7.V 8.9.0.i                           ",
"                    i q.;.w.e.%.r.t.y.u.} w.;.V V V V i.p.a.s.d.f.g.h.                          ",
"                    -.j.3.4.y.} e.@.| :.:.u.u.V V V V k.l.g.z.8.x.c.v.-.                        ",
"                    b.-.R V &.:.V V V V n.t.2.V V x.m.M.N.B.V V V N.V.V                         ",
"                    C.-.j.<.| | V V V | Z.} A.V V V.S.D.<.V ..8.F.M.8.V b.                      ",
"                  G.H.j.j.R J.K.%.L.4.y.P.A.V V V 9.I.B.V U.Y.f.N.T.V V V                       ",
"                  R.R j.H.H.E.J.W.t.P.@.Q.!.~.^./.V (.d.).d.N.9.V V V V V j.                    ",
"                  -.C.H.C._.q.V | 3...`.'.^.].[.{.`.}.|.f. X:.V V V V V V V R.                  ",
"                  j.R .XR H.H.<.V V ].{.XXV V V oXOX+Xv.M...V V V V V V V V j.                  ",
"                  C.R R R R .X@XV #X$X%XV V #X&X'.*X=Xx.-X;XV V V V V ..) V =.G.                ",
"                ` :XR R :X>XR R :.,X<X1X2X&X{.<X3X1XXX#X4X5X0.V V ..) L ..<.G.                  ",
"                  j.c >X>X>X>XR U.3X<XoX'.$X%X1XV 2X'.%X0.-X6XV <.L :.V V -.                    ",
"                  7X..>X>X,.L ,.8XQ.9X9XoX#XV V V XX{./.V 0X;XL ..V V V V R.                    ",
"                    j...U.L L ) c >X[.qXwXV V V 1X*XeX1X..L q.) V V V V q.7X                    ",
"                    u V ) ) ) <.) U.rXtXqX&X/.%X<X9XyX&.>X,.) ) <.V V V -.                      ",
"                      H.V n.<.) n.U.U.uX&X'.$X'.[.iX:X>X@X,.,.L n...V V R.                      ",
"                      j V ..n.) <.) >Xn.V 2XwXpXR 8XR :X>X>X>X,.) <.V R 7X                      ",
"                        H.V <.) n.<.U.>X..) :X.X.XR R R :X>X>XU.L ) V aX                        ",
"                        sXV n...) <.) >XH._._.H.R H.R :XR @X>X,.) ..R                           ",
"                          -.V ) <.n...R j._.H.H.H.H.R R R :X>X..>XR.                            ",
"                            V ..) <.n.H.j.j.j.H.H.H..XH.>X,.R                                   ",
"                            b.V ..n.L j.j.j._.H.j.H.R R C.dX                                    ",
"                              V ..<.>XfXj.j.j.j.H.R H.=.                                        ",
"                            ! aXV ) R -.fXj._.R j.K                                             ",
"                                V .._.-.b.H.j.dX                                                ",
"                                gX..-.j._.dX                                                    ",
"                                  :XfXdX                                                        ",
"                                  S                                                             ",
"                                                                                                "};
