/* XPM */
static char * image_name[] = {
"48 48 212 2",
"  	c None",
". 	c #6C6C6A6A6C6C",
"X 	c #3C3C3D3D3C3C",
"o 	c #545452525454",
"O 	c #44442E2E2C2C",
"+ 	c #747436363C3C",
"@ 	c #7C7C3A3A3C3C",
"# 	c #3C3C2E2E2C2C",
"$ 	c #4C4C2E2E2C2C",
"% 	c #84843B3B3C3C",
"& 	c #A4A442424444",
"* 	c #8C8C3C3C3C3C",
"= 	c #5C5C36363434",
"- 	c #34342E2E2E2E",
"; 	c #8C8C8E8E8C8C",
": 	c #ACAC43434444",
"> 	c #B4B43E3E3C3C",
", 	c #6C6C36363434",
"< 	c #2C2C2A2A2C2C",
"1 	c #343432323333",
"2 	c #747476767474",
"3 	c #2C2C2E2E3434",
"4 	c #2C2C2E2E2C2C",
"5 	c #C4C442424444",
"6 	c #BCBC46464444",
"7 	c #4C4C32322F2F",
"8 	c #343436363434",
"9 	c #545456565454",
"0 	c #CCCC4A4A4848",
"q 	c #B4B44A4A4949",
"w 	c #34342A2A2C2C",
"e 	c #949442424444",
"r 	c #DCDC4E4E4C4C",
"t 	c #E4E44A4A4C4C",
"y 	c #545432323030",
"u 	c #949492929494",
"i 	c #E4E452525454",
"p 	c #ECEC52525252",
"a 	c #ECEC4E4E4C4C",
"s 	c #848482828484",
"d 	c #5C5C3A3A3C3C",
"f 	c #9C9C44444444",
"g 	c #F4F452525454",
"h 	c #D4D44D4D4C4C",
"j 	c #7C7C7A7A7C7C",
"k 	c #646466663131",
"l 	c #B4B4B6B64141",
"z 	c #BCBCC2C24444",
"x 	c #949492924040",
"c 	c #5C5C5C5C3434",
"v 	c #3C3C36363C3C",
"b 	c #5C5C5C5C5C5C",
"n 	c #444442422C2C",
"m 	c #C4C4C3C34444",
"M 	c #DCDCE2E25454",
"N 	c #ECECEAEA4C4C",
"B 	c #F4F4F6F64A4A",
"V 	c #E4E4E6E64C4C",
"C 	c #7C7C7A7A3C3C",
"Z 	c #C4C446464444",
"A 	c #9C9C9A9A9C9C",
"S 	c #444446464444",
"D 	c #4C4C4A4A3030",
"F 	c #E4E4E2E24848",
"G 	c #ECECEEEE4848",
"H 	c #949496963838",
"J 	c #FCFCF6F64C4C",
"K 	c #F4F4FAFA4A4A",
"L 	c #CCCCD2D24848",
"P 	c #343432322424",
"I 	c #8C8C42423C3C",
"U 	c #3C3C32323C3C",
"Y 	c #84845E5E9C9C",
"T 	c #94946A6AB4B4",
"R 	c #44443A3A4C4C",
"E 	c #444446462C2C",
"W 	c #545452523030",
"Q 	c #343436362020",
"! 	c #CCCCD6D64C4C",
"~ 	c #ACACAAAA3C3C",
"^ 	c #848462629C9C",
"/ 	c #ACAC7676CFCF",
"( 	c #444436364C4C",
") 	c #3C3C3E3E3434",
"_ 	c #4C4C3E3E5858",
"` 	c #8C8C6666A4A4",
"' 	c #B4B47A7AD8D8",
"] 	c #6C6C4E4E7C7C",
"[ 	c #3C3C3A3A2C2C",
"{ 	c #9C9C9E9E4040",
"} 	c #A4A4AAAA3C3C",
"| 	c #64645E5E3C3C",
" .	c #54545A5A3434",
"..	c #545442426161",
"X.	c #ACAC7A7ACECE",
"o.	c #BCBC7A7ADDDD",
"O.	c #444442424444",
"+.	c #F4F4F2F25050",
"@.	c #D4D4D6D63C3C",
"#.	c #2C2C32322F2F",
"$.	c #2C2C3E3E2C2C",
"%.	c #2C2C36362C2C",
"&.	c #B4B47E7ED9D9",
"*.	c #ECECEEEE5454",
"=.	c #ECECF2F25050",
"-.	c #8C8C86863C3C",
";.	c #343456563434",
":.	c #3C3C9E9E4C4C",
">.	c #4C4CCECE5858",
",.	c #4C4CD6D65C5C",
"<.	c #44449A9A4C4C",
"1.	c #2C2C3A3A3434",
"2.	c #4C4C3A3A5C5C",
"3.	c #343452523434",
"4.	c #4444AEAE5454",
"5.	c #5454D6D65A5A",
"6.	c #4C4CCACA5454",
"7.	c #5454CECE5C5C",
"8.	c #4C4CDADA5858",
"9.	c #4C4CC6C65454",
"0.	c #D4D4DADA4C4C",
"q.	c #CCCCCECE4C4C",
"w.	c #2C2C32323C3C",
"e.	c #34346A6A3C3C",
"r.	c #4C4CD2D25C5C",
"t.	c #2C2C66663434",
"y.	c #3C3C7E7E4444",
"u.	c #4444DADA5454",
"i.	c #A4A47272CCCC",
"p.	c #34343A3A3C3C",
"a.	c #B4B4BABA4444",
"s.	c #646462624444",
"d.	c #444446466464",
"f.	c #4C4C5656D4D4",
"g.	c #54545A5AD8D8",
"h.	c #343436364C4C",
"j.	c #4C4CC1C15454",
"k.	c #2C2C42422C2C",
"l.	c #4444B2B24C4C",
"z.	c #444496964848",
"x.	c #34344E4E3434",
"c.	c #2C2C46462C2C",
"v.	c #9C9C6E6EBCBC",
"b.	c #64644E4E7C7C",
"n.	c #3C3C42422C2C",
"m.	c #34343E3E6C6C",
"M.	c #54545E5EF0F0",
"N.	c #54546262F2F2",
"B.	c #44444A4AA4A4",
"V.	c #3C3C3E3E7474",
"C.	c #4C4CBABA5454",
"Z.	c #3C3C8E8E4C4C",
"A.	c #34343E3E3434",
"S.	c #44447E7E4444",
"D.	c #3C3C42427C7C",
"F.	c #44444E4EACAC",
"G.	c #3C3C77773C3C",
"H.	c #343462623C3C",
"J.	c #34343A3A4C4C",
"K.	c #54545656C4C4",
"L.	c #5C5C6262E8E8",
"P.	c #5C5C6565F4F4",
"I.	c #54545E5EDCDC",
"U.	c #3C3C40405C5C",
"Y.	c #44448A8A4444",
"T.	c #4444BEBE5454",
"R.	c #3C3C6E6E3C3C",
"E.	c #3C3C82823C3C",
"W.	c #34343A3A3030",
"Q.	c #44444A4A8484",
"!.	c #3C3C46466464",
"~.	c #5C5C6A6AF4F4",
"^.	c #64646666F4F4",
"/.	c #4444A6A65454",
"(.	c #545456568080",
").	c #64646E6EF8F8",
"_.	c #64647272F4F4",
"`.	c #64646666DCDC",
"'.	c #3C3C4E4E3434",
"].	c #444492924C4C",
"[.	c #34344A4A3434",
"{.	c #4C4C4E4E4C4C",
"}.	c #54545E5E8484",
"|.	c #74747676ECEC",
" X	c #6C6C7A7AF4F4",
".X	c #6C6C7676FCFC",
"XX	c #6C6C7272ECEC",
"oX	c #4C4C52526C6C",
"OX	c #343432323C3C",
"+X	c #646466666666",
"@X	c #64646A6A8C8C",
"#X	c #7C7C8282ECEC",
"$X	c #7C7C8282FCFC",
"%X	c #74748282FCFC",
"&X	c #4C4C4A4A4C4C",
"*X	c #6C6C72726C6C",
"=X	c #7C7C76767474",
"-X	c #6C6C72729494",
";X	c #84848A8AF4F4",
":X	c #7C7C8686F4F4",
">X	c #64646E6EB4B4",
",X	c #5C5C5A5A6C6C",
"<X	c #3C3C36364444",
"1X	c #8C8C8A8A8C8C",
"2X	c #848486868282",
"3X	c #7C7C7E7E9494",
"4X	c #6C6C72728484",
"5X	c #64646A6A6464",
"6X	c #949496969494",
"7X	c #74746E6E7474",
"8X	c #747472727171",
"9X	c #74747A7A7474",
"                                                                                                ",
"                                                        . X                                     ",
"                                                    o O + @ #                                   ",
"                                                o $ % & * = - X                                 ",
"                                          ; X # % : > , < < < < 1                               ",
"                                      2 3 4 4 * 5 6 5 : O 4 7 % + 8                             ",
"                                  9 < < 4 4 3 @ 0 0 0 0 q & q @ - < 1                           ",
"                              o < 4 < 4 4 4 w - e r t r t 0 y 4 < 4 4 8                         ",
"                        u X < 4 4 4 4 4 - 4 4 # * i p a p a 0 y 3 4 < 3 1                       ",
"                    s - 4 < - 4 4 4 - 4 4 4 4 d q = f g g p g h O 3 - 4 4 1                     ",
"                j 1 < 4 k l z x c 1 4 < 4 - 3 4 w w 4 & g g g g h $ 4 4 4 4 v                   ",
"            b < < 4 n m M N B B B V l C n 4 - 3 4 3 4 - e a g p Z d 4 3 - 4 < X                 ",
"      A S 4 4 4 4 < D F G N H M B J K J B L H c P 4 - 4 4 I : y 3 4 4 - 4 U Y T R               ",
"  ; v 4 < < < < 4 4 E G K B W Q C ! K K J B K K V ~ k 1 w 4 3 w 4 4 3 R R ^ / Y ( 4             ",
"  X 4 4 < 4 4 < 4 4 n B K K C 4 4 - k F K B K J B M x ) 4 3 4 4 4 _ ` ' / ' ] 3 4 4 1           ",
"  ) v 4 < 4 < 4 4 4 [ B B J { 4 W } V l |  .{ m C 8 4 4 4 - 3 - 4 ..X.o.' o...4 - 4 < 4         ",
"  O.X X 4 < 4 4 w 4 P +.K J @.m M H D 4 4 4 4 - 4 - 4 - #.$.%.< 4 3 ..X.o.&.X...4 4 4 3 4       ",
"  X X X X 4 < 4 3 4 4 *.K B =.-.[ < 4 4 4 - 3 4 4 4 ;.:.>.,.>.<.1.4 4 ..X.o.o.' 2.4 < 4 < <     ",
"  O.X X v v 4 4 - 4 - V K J =.Q 4 4 3 - 4 4 4 - 3.4.5.6.7.8.8.8.9.;.4 4 ..X.' ' / ..4 4 < 4 -   ",
"  X X X X X X - 4 4 4 0.B K q.8 w.< 3 4 3 4 w e.,.r.t.%.%.y.r.u.8.<.3 < 3 ..X.o.' i...4 4 < < < ",
"  O.X X X X v p.- 4 - L a.s.d.f.g.h.4 3 - 3 4 j.u.>.k.#.e.l.>.z.x.3.z.c.- 4 2./ v.b.U < 4 < 4 1 ",
"  X X X v X X X X 4 4 n.- m.M.N.M.f.B.g.V.#.#.C.,.,.l.j.7.Z.A.4 z.,.u.S.< 4 4 v - 4 < 4 4 1 1 8 ",
"  O.X X X X X X X X - 1 4 1 D.M.N.N.M.F.h.1 4 G.8.,.,.j.c.4 4 - y.,.8.H.- 4 3 4 4 4 4 1 8 1 8 8 ",
"  X X X X X X X X X X 8 1 J.K.N.L.N.P.I.U.1 8 8 Y.5.8.5.T.R.;.E.>.>.G.4 3 - 4 4 1 1 8 8 8 8 8 8 ",
"  O.X X v X X v X X X v W.X Q.!.Q.~.~.^.L.U.p.v 1.S.r.8.5.8.,.r./.c.3 4 4 4 1 1 8 8 8 U 8 1 8 1 ",
"  X X X X X X X X X X X X O.S S S (.)._.).`.d.X X p.'.S.z.].R.[.#.1 4 - 1 1 8 8 8 1 8 8 8 8 8 8 ",
"  O.X X X v X X v X X X v X {.o 9 o }.|. X.XXXoXO.O.X v 8 8 1 1 1 #.1 8 8 8 8 OXv 8 8 1 8 U 8 1 ",
"  O.X X X X X X X X X X X X O.b . +X+X@X#X$X%XXX(.&XS X X X 8 1 8 8 1 8 8 OX8 8 8 1 8 v 8 8 8 8 ",
"  X X X v X X v X X v X X X X O.*X=X2 =X-X;X:X>X,Xo {.&XO.8 8 8 8 8 8 8 v 8 8 U 8 8 8 1 8 1 8 U ",
"  S X X X X X X X X X X X X X <XS s 1X2Xs 3X4X*X5Xb 9 X 8 8 v 1 8 1 v 1 8 1 8 8 8 1 8 8 8 8 8 8 ",
"    &XX X v X X v X X v X X X X X S 1X6Xu ; 1Xj +XS 8 8 v 8 8 8 8 8 8 8 8 8 v 1 8 8 v 1 8 U 8 1 ",
"      S X X X X X X X X X v X X X X O.; 2 6X7XS 1 1 v 8 8 8 v 1 8 U 8 1 8 1 8 8 8 1 8 8 8 8 8 8 ",
"        &X8 X X X X X X X X X X X X X O.2 O.8 8 8 8 8 1 8 1 8 8 8 8 8 v 8 8 8 1 v 8 8 OX8 1 8 OX",
"          S X v X X v X X X v X X v X X 8 8 1 8 8 1 v 8 8 8 8 OX8 1 8 1 8 1 v 8 8 1 8 v 8 8 v 8 ",
"            &XX X X X X X X X X X X X X 8 8 8 v 8 8 8 1 v 1 8 v 8 8 8 8 8 8 8 1 8 8 8 1 8 1 8 1 ",
"              O.X X X X v X X X v X X X 8 U 8 1 8 1 8 8 8 8 8 1 8 1 v OX8 U 8 8 8 1 v 8 8 8 1 8 ",
"                &XX v X X X X X X X X X 1 8 8 8 v 8 8 1 8 U 8 8 8 8 8 8 8 8 8 U 8 8 8 1 v 1 S 6X",
"                  &XX X X X v X X v X X 8 v 8 1 8 1 8 v 8 8 8 1 v 1 8 U 8 1 8 8 8 OX8 8 9       ",
"                    {.X X X X X X X X X 1 8 8 8 8 8 8 1 8 1 8 8 8 8 8 8 8 8 8 1 v 8 8X          ",
"                      &XX X X X v X X X v 8 8 U 8 1 v 8 8 8 8 v 1 8 1 8 U 8 1 X s               ",
"                        &XX v X X X X X 1 8 8 8 8 8 8 1 v 1 8 8 8 v 8 1 8 S u                   ",
"                          &XX X X X X X v 8 8 1 v OX8 8 8 8 OX8 1 8 1 b                         ",
"                            o X X v X X 1 8 8 8 8 8 8 1 8 v 8 8 v 8X                            ",
"                              &XX X X X 8 8 v 1 8 1 v 8 8 1 v 9X                                ",
"                                o X X X OX8 8 8 8 8 1 1 X 1X                                    ",
"                                  o X X v 8 1 8 U 8 {.                                          ",
"                                    o X 1 8 8 1 o                                               ",
"                                      b 8 1 .                                                   "};
