/* XPM */
static char * image_name[] = {
"56 56 235 2",
"  	c #080800009C9C",
". 	c #000000009C9C",
"X 	c #101000009C9C",
"o 	c #10100000A5A5",
"O 	c #21211010A5A5",
"+ 	c #29291818A5A5",
"@ 	c #31312121A5A5",
"# 	c #39392929A5A5",
"$ 	c #42423131ADAD",
"% 	c #424231319C9C",
"& 	c #4A4A3939ADAD",
"* 	c #52524A4AADAD",
"= 	c #5A5A5252ADAD",
"- 	c #63635252ADAD",
"; 	c #63635A5AADAD",
": 	c #6B6B6363B5B5",
"> 	c #6B6B6363ADAD",
", 	c #73736B6BB5B5",
"< 	c #4A4A3939DEDE",
"1 	c #4A4A3131DEDE",
"2 	c #42423131DEDE",
"3 	c #42422929DEDE",
"4 	c #52524242DEDE",
"5 	c #5A5A4A4AD6D6",
"6 	c #63635252E7E7",
"7 	c #6B6B5A5AD6D6",
"8 	c #6B6B5A5AE7E7",
"9 	c #73736363E7E7",
"0 	c #7B7B6B6BE7E7",
"q 	c #B5B5ADADF7F7",
"w 	c #B5B5ADADEFEF",
"e 	c #8C8C8484EFEF",
"r 	c #7B7B7373E7E7",
"t 	c #84847373EFEF",
"y 	c #8C8C8484DEDE",
"u 	c #94948C8CE7E7",
"i 	c #94948C8CEFEF",
"p 	c #9C9C8C8CEFEF",
"a 	c #A5A59C9CEFEF",
"s 	c #ADADA5A5EFEF",
"d 	c #63634A4AE7E7",
"f 	c #6B6B6363E7E7",
"g 	c #F7F7F7F7FFFF",
"h 	c #FFFFFFFFFFFF",
"j 	c #5A5A4A4AE7E7",
"k 	c #73736363DEDE",
"l 	c #C6C6BDBDF7F7",
"z 	c #D6D6D6D6F7F7",
"x 	c #BDBDB5B5F7F7",
"c 	c #D6D6CECEF7F7",
"v 	c #8C8C7B7BDEDE",
"b 	c #9C9C8C8CDEDE",
"n 	c #ADADA5A5E7E7",
"m 	c #A5A59C9CDEDE",
"M 	c #4A4A3939D6D6",
"N 	c #E7E7E7E7FFFF",
"B 	c #EFEFE7E7FFFF",
"V 	c #E7E7DEDEFFFF",
"C 	c #84846B6BADAD",
"Z 	c #A5A54A4A5252",
"A 	c #D6D642423131",
"S 	c #C6C642423939",
"D 	c #9C9C52527373",
"F 	c #A5A59494D6D6",
"G 	c #7B7B7373B5B5",
"H 	c #B5B5B5B5F7F7",
"J 	c #848463638C8C",
"K 	c #94947B7BBDBD",
"L 	c #94948484BDBD",
"P 	c #94947373B5B5",
"I 	c #ADAD52526363",
"U 	c #DEDE42422121",
"Y 	c #BDBD4A4A4242",
"T 	c #94944A4A5A5A",
"R 	c #E7E742422929",
"E 	c #8C8C6B6B9C9C",
"W 	c #9C9C5A5A6B6B",
"Q 	c #949473739C9C",
"! 	c #39392929DEDE",
"~ 	c #949452527373",
"^ 	c #8C8C7B7BCECE",
"/ 	c #CECE42423131",
"( 	c #ADAD52525A5A",
") 	c #9C9C63637B7B",
"_ 	c #94948484C6C6",
"` 	c #8C8C6B6BA5A5",
"' 	c #CECE39392929",
"] 	c #D6D642422929",
"[ 	c #949473739494",
"{ 	c #7B7B6363ADAD",
"} 	c #ADAD42423939",
"| 	c #8C8C4A4A5A5A",
" .	c #7B7B6B6BC6C6",
"..	c #8C8C7373A5A5",
"X.	c #9C9C52526363",
"o.	c #DEDED6D6FFFF",
"O.	c #7B7B6B6B9C9C",
"+.	c #84846B6BC6C6",
"@.	c #CECE39392121",
"#.	c #4A4A3939CECE",
"$.	c #5A5A4A4AC6C6",
"%.	c #63635252CECE",
"&.	c #63635A5ACECE",
"*.	c #6B6B5A5AC6C6",
"=.	c #6B6B6363BDBD",
"-.	c #6B6B6363C6C6",
";.	c #7B7B6B6BBDBD",
":.	c #6B6B6B6BBDBD",
">.	c #84846B6BCECE",
",.	c #313131314242",
"<.	c #212118182929",
"1.	c #181810102929",
"2.	c #101010101818",
"3.	c #181818181818",
"4.	c #101010101010",
"5.	c #101008080808",
"6.	c #080808080808",
"7.	c #080810100808",
"8.	c #000008080000",
"9.	c #84847373DEDE",
"0.	c #8C8C7B7B9C9C",
"q.	c #949484849494",
"w.	c #949484849C9C",
"e.	c #9C9C8C8C9C9C",
"r.	c #A5A58C8C9C9C",
"t.	c #ADAD9C9C9C9C",
"y.	c #9C9C8C8CADAD",
"u.	c #424242426B6B",
"i.	c #000000000000",
"p.	c #63635A5AA5A5",
"a.	c #FFFFEFEF0808",
"s.	c #FFFFF7F70808",
"d.	c #D6D6C6C62121",
"f.	c #313129292929",
"g.	c #5A5A52529494",
"h.	c #73736B6BCECE",
"j.	c #848473738484",
"k.	c #8C8C7B7B7B7B",
"l.	c #7B7B6B6B9494",
"z.	c #ADAD94944A4A",
"x.	c #A5A594944A4A",
"c.	c #848473738C8C",
"v.	c #8C8C7B7B8C8C",
"b.	c #8C8C7B7B8484",
"n.	c #52524A4A8484",
"m.	c #292929292929",
"M.	c #393939393131",
"N.	c #181810101010",
"B.	c #52524242BDBD",
"V.	c #313131313131",
"C.	c #5A5A52529C9C",
"Z.	c #39392121DEDE",
"A.	c #52524A4A9494",
"S.	c #7B7B73738484",
"D.	c #42422929C6C6",
"F.	c #393931319494",
"G.	c #292921212121",
"H.	c #42423939ADAD",
"J.	c #292929292121",
"K.	c #181818181010",
"L.	c #292929293939",
"P.	c #212121212121",
"I.	c #292929295A5A",
"U.	c #212121211818",
"Y.	c #4A4A42428C8C",
"T.	c #FFFFFFFF0808",
"R.	c #CECEBDBD2929",
"E.	c #424239396B6B",
"W.	c #7B7B6B6BDEDE",
"Q.	c #393931317373",
"!.	c #5A5A5A5AADAD",
"~.	c #39398C8C5A5A",
"^.	c #2929A5A53939",
"/.	c #31319C9C4A4A",
"(.	c #525284847B7B",
").	c #73737373CECE",
"_.	c #292921215A5A",
"`.	c #4A4A6B6B8484",
"'.	c #2929BDBD3131",
"].	c #393994945252",
"[.	c #525273738C8C",
"{.	c #63637373A5A5",
"}.	c #4A4A84846B6B",
"|.	c #3131A5A54242",
" X	c #73737373B5B5",
".X	c #525242429C9C",
"XX	c #424273736B6B",
"oX	c #63636B6BADAD",
"OX	c #313194945252",
"+X	c #5A5A73739494",
"@X	c #313129295A5A",
"#X	c #6B6B6363A5A5",
"$X	c #525263639C9C",
"%X	c #4A4A73738484",
"&X	c #4A4A7B7B7B7B",
"*X	c #52527B7B8484",
"=X	c #080808081010",
"-X	c #4A4A6B6B8C8C",
";X	c #3131A5A53131",
":X	c #393931316363",
">X	c #7B7B7B7BCECE",
",X	c #5A5A5A5A9494",
"<X	c #212118184A4A",
"1X	c #5A5A52528C8C",
"2X	c #2929CECE3131",
"3X	c #2121C6C63131",
"4X	c #4A4A42428484",
"5X	c #6B6B7373ADAD",
"6X	c #73734242ADAD",
"7X	c #84844242B5B5",
"8X	c #8C8C4242B5B5",
"9X	c #292929295252",
"0X	c #73736363CECE",
"qX	c #B5B51818BDBD",
"wX	c #BDBD2121C6C6",
"eX	c #94943131ADAD",
"rX	c #9C9C3131ADAD",
"tX	c #94943131A5A5",
"yX	c #ADAD1818B5B5",
"uX	c #BDBD1818C6C6",
"iX	c #84846363BDBD",
"pX	c #8C8C3939ADAD",
"aX	c #84847373D6D6",
"sX	c #A5A52929B5B5",
"dX	c #9C9C3131B5B5",
"fX	c #292921212929",
"gX	c #84844242A5A5",
"hX	c #7B7B6363BDBD",
"jX	c #84844A4AADAD",
"kX	c #A5A52121B5B5",
"lX	c #C6C61818CECE",
"zX	c #212118184242",
"xX	c #A5A51818B5B5",
"cX	c #9C9C2121ADAD",
"vX	c #18180808A5A5",
"        . . .       X o X O O + + @ @ @ @ @ @ @ @ @ @ @ @ @ @ @ @ @ @ # # $ % & & * * = - ; : > : , , , : > , , ",
"X < 1 2 2 3 2 2 1 < < 4 5 6 7 8 8 9 9 9 0 q w 0 9 0 e r 9 9 9 9 9 9 9 0 r r t y e u i p p a s s s s s s w s w , ",
"  1 2 2 2 2 2 2 1 < 4 4 4 d 6 8 7 8 9 f w g s 9 9 r h s 9 f f f 8 9 9 9 0 r e r e u i p p a a s s s s s s s w , ",
"  < 2 2 2 2 3 2 < < 4 4 j 5 6 7 8 f k 9 l z 9 9 9 r h s 9 8 k 8 k 9 9 0 0 r r e u e u p p a a a s s s s q w q , ",
"  2 2 3 2 3 2 2 1 < 4 4 5 6 8 6 8 8 8 8 x c 8 7 8 0 h a 8 9 f 8 f 9 9 0 r r v i v i i p a b n m n n q w w q w , ",
". 1 2 3 2 2 M 2 1 1 < 4 9 z N u 7 8 7 p N B w f 8 w h z 0 7 9 x z p 0 0 v B V B a u i C Z A A A A S D F w w w G ",
". 3 2 2 3 3 2 1 2 1 4 4 l c s V 8 8 8 u N B H 8 7 w h z 0 8 a B x N r 0 e h z s i e C A S J K L P I U Y m w q G ",
". 2 3 3 3 2 2 2 < < 4 4 N s 8 B f 7 6 7 w z 8 7 6 9 h p 6 7 x z k g u 0 y h a t v i T R E a a a a a W A Q H w G ",
". 3 ! 2 2 2 3 M 1 < < 4 a 0 k g 9 6 6 6 x c 6 6 6 0 h a 7 8 x z 9 g u 0 e h a v e i ~ R ~ u a a a s s F n w x G ",
". 3 3 2 3 2 2 2 1 < 4 4 4 i N g 9 6 6 6 w z 6 6 6 k h p 6 7 x V a h e 0 y h s t v e ^ Z R / ( ) Q _ s s q w x G ",
". 2 3 2 2 2 2 2 < < < 4 u g l g 9 5 6 5 x z 5 6 5 9 h a 6 6 w g z c r 0 e g s r e i i u ` W Y ' ] U Y [ w q w G ",
". 2 3 2 2 2 2 1 1 < 4 4 V s 7 g 9 5 6 j w c d j 5 9 h u 6 6 x z 8 9 9 9 v h s r e v v u i p p b K ) S R [ w x G ",
"  1 2 2 2 M 2 M < < < 5 g r 8 g 8 5 j 5 q c 4 5 j f h a 5 6 x c 0 c r 0 e g a r v { } | i p u a p a L U Z w w G ",
"  1 2 M 1 1 2 1 < 4 < d g 9 6 g 8 4 4 4 w c 4 4 4 8 h p 5 5 w c r h y 9 v h a t e  .] R C p p p a p ..R X.q w G ",
"  < 2 1 1 < < < 1 1 < 4 N x s h 8 4 4 4 w o.4 4 4 7 h a j j y N x B 0 9 e h s r t v { A U W O.P ` X.R / L w q , ",
"  1 2 1 < < 1 1 1 < < < 0 l l l 9 4 4 4 i w 4 4 4 6 c e 5 d 6 s c u 8 9 r c p r r t e +.| / ] @.@.S D _ s s w , ",
"  2 1 < < 2 < 2 < < < < M #.#.M 5 M #.4 $.4 $.5 %.$.$.%.%.&.*.=.*.-.=.=.;.:., >  .v e v e e >.+.^ i a a a s s , ",
"  2 1 1 < 2 1 < 1 1 < #.,.<.1.2.1.3.2.4.2.3.1.5.4.2.4.5.5.6.6.5.7.5.6.8.5.5.6.5.: 9.0.0.q.w.w.w.e.e.r.t.y.a a > ",
"  < 2 2 2 1 2 2 < 1 M u.4.i.i.i.i.i.i.i.i.i.i.i.i.i.i.i.i.i.i.i.i.i.i.i.i.i.i.i.p., a.s.a.s.s.a.a.s.a.s.d.b s : ",
"  2 2 2 2 2 1 2 1 M u.f.3.i.i.i.i.i.i.i.i.i.i.i.i.i.i.8.5.8.8.8.i.i.8.5.8.8.8.i.g.h.j.k.k.l.z.a.x.c.v.b.0.p p > ",
". 2 2 2 3 2 2 2 2 n.m.M.3.i.i.i.i.i.i.i.i.i.i.i.i.i.i.i.i.i.i.5.i.i.N.i.i.i.i.i.: r r r v v c.s.c.i i i i p a ; ",
". 1 3 ! 3 3 2 2 B.V.V.M.3.i.i.i.i.i.i.i.i.i.i.i.i.i.i.i.i.i.i.i.i.i.5.i.i.i.i.i.> 0 r r e t b.s.j.e y i u i p ; ",
". 3 ! ! ! ! 3 #.,.V.V.M.3.i.i.i.i.i.i.i.i.i.i.i.i.i.i.i.i.i.i.8.i.8.5.i.i.i.i.i.C.0 r r r t b.s.j.v e u i u p = ",
". ! Z.Z.Z.Z.! u.m.f.f.V.3.i.i.i.i.i.i.i.i.i.i.i.i.i.i.i.i.i.i.5.i.8.5.i.i.i.i.i.A.0 r r r r b.s.S.e e v i u p = ",
". ! ! Z.D.! F.G.m.m.m.V.N.i.i.i.i.i.i.i.i.i.i.i.i.i.i.i.i.i.i.i.i.i.5.8.i.i.i.i.> 0 r r r r c.s.c.v e i e u i = ",
". 3 Z.Z.Z.H.m.J.m.m.m.m.K.i.i.i.i.i.i.i.i.i.i.i.i.i.i.i.i.i.i.i.i.i.N.i.i.i.i.i.p.0 0 0 r r l.s.j.e v e v i u * ",
". 3 3 ! $ L.P.P.G.P.J.m.N.i.i.i.i.i.i.i.i.i.i.i.i.i.i.i.i.i.i.i.i.8.5.i.i.i.i.i.g.9 0 0 0 r J s.j.t v e e v i * ",
"  2 2 D.I.U.P.P.P.P.P.m.N.i.i.i.i.i.i.i.i.i.i.i.i.i.i.i.i.i.i.8.i.i.N.i.i.i.i.i.Y.9 9 9 0 0 k.T.k.y t e v i i * ",
". 2 3 F.3.P.U.U.P.P.P.G.4.i.i.i.i.i.i.i.i.i.i.i.i.i.i.i.i.i.i.i.i.8.5.i.i.i.i.i.A.9 9 9 0 0 O.R.O.t v t e e y * ",
"  1 2 E.3.3.3.3.3.U.P.P.4.i.i.i.i.i.i.i.i.i.i.i.i.i.i.i.i.i.i.i.i.8.5.i.i.i.i.i.C.f k 9 9 0 W.h.9.r e v t y i * ",
"  2 2 Q.N.3.3.3.3.3.U.P.N.i.i.i.i.i.i.i.i.i.i.i.i.i.i.i.i.i.i.i.5.5.8.i.i.i.i.i.C.f 9 9 !.~.^.^./.(.).e v e e * ",
"  1 2 _.3.2.N.3.3.3.3.P.4.i.i.i.i.8.8.i.i.i.i.i.i.i.i.6.6.i.6.i.i.i.i.i.6.6.i.i.Y.9 9 `.'.].[.{.}.'.|. Xt e v * ",
"  2 2 _.4.4.4.N.4.3.N.P.4.i.i.i.i.i.i.i.i.i.i.8.i.i.6.i.i.6.6.6.6.6.6.6.i.i.6.i..X9 !.'.XX9 0 r t oX'.].y v i & ",
"  2 1 _.4.4.4.4.4.4.2.P.4.i.i.i.i.i.i.i.i.i.i.i.i.i.6.i.6.6.6.6.6.6.6.6.6.i.i.i.> 7 /.OX9 0 0 0 r r :.'.+Xe e * ",
"  1 2 @X6.4.4.4.4.4.4.3.4.i.i.i.i.i.i.i.i.i.i.i.i.i.6.i.6.i.i.i.i.i.i.i.i.6.i.i.#X$X'.~.%X%X&X(.*X*X(.'.].v u * ",
"  2 2 @X6.5.6.5.=X5.4.U.4.i.i.i.i.i.i.i.i.i.i.8.i.i.6.i.i.6.i.6.6.i.6.6.i.i.i.i.g.-X'.^.|.;X|.|.^.|./.|.&Xv i * ",
"  1 2 I.6.6.6.=X7.7.4.3.4.i.i.8.i.i.i.8.i.i.8.i.i.i.6.i.i.6.i.i.i.i.i.i.i.i.6.i.A.-X'.[.k k W.0 9.r v e v i i = ",
". 2 1 :Xi.6.6.6.6.6.6.3.4.i.i.i.i.i.i.i.i.i.i.i.i.i.6.i.i.i.6.6.6.6.i.6.6.6.i.i.p.!.'.~.9 0 0 r r e 9.*X>Xu i = ",
"  2 2 I.6.6.6.6.6.6.6.3.5.i.i.i.i.i.i.i.i.i.i.i.i.i.6.i.i.6.i.i.i.i.i.i.i.i.i.i.,X9 XX'.+X0 r t v 9.}.'. Xi i = ",
". 2 2 <X6.6.6.6.6.6.6.3.4.i.i.i.i.i.i.i.i.i.8.i.i.i.i.i.i.i.i.i.i.i.i.i.i.i.i.i.1X0 W.].'.(. X).oX].2X(.i u p = ",
"  2 2 <X6.6.6.6.6.6.6.K.4.i.i.i.i.i.i.i.i.i.i.i.i.i.6.i.6.i.i.i.i.i.i.i.i.i.i.i.n.r r W.].3X'.'.'.3X}.i i p p = ",
". 2 2 <X6.6.6.6.6.6.6.3.4.i.i.i.i.i.i.i.i.i.i.i.i.i.i.i.i.i.i.i.i.i.i.i.i.i.i.i.4X0 r r v 5X*X}.[.>Xi u i u p = ",
". 2 1 <X6.6.6.6.6.6.6.4.4.i.i.i.i.i.i.i.8.i.i.i.i.i.6.i.i.i.i.i.i.i.i.i.i.i.i.i.n.W.6X7X7X7X8X8X8X8X7X+.u p p = ",
"  2 2 9X6.6.6.6.6.6.6.3.4.i.i.i.i.i.i.i.i.i.i.i.i.i.i.i.6.i.i.i.i.i.i.i.i.i.i.i.n.0XqXwXeXeXeXrXtXeXyXuXiXu p = ",
". 1 1 <X6.6.6.6.6.6.6.4.4.i.i.8.6.8.i.6.8.6.6.6.6.i.6.6.4.6.6.6.6.4.6.4.6.5.=X8.#X0XqXpXr y e e i e aXsXdXu p = ",
"  2 < @Xi.6.6.6.6.6.6.P.m.J.fXP.G.P.P.P.U.3.3.3.3.3.N.2.4.5.6.6.6.6.6.6.6.6.i.u.r 0XqXeXy e y e u u i gXqXy p = ",
". 1 < @X8.6.6.6.6.5.P.m.m.J.m.G.P.P.P.3.3.3.3.3.4.4.=X5.6.6.i.i.i.i.i.i.i.i.1Xr r aXqXrXhX;.hXhX{ iX8XuXjXu p = ",
"  2 < <X6.6.6.6.6.P.V.m.J.m.P.P.P.P.U.U.3.3.N.3.4.4.4.4.6.i.i.i.i.i.i.i.4.> r t v 9.kXlXqXqXqXqXqXqXyXjXu p p = ",
". 1 M <X6.6.6.6.P.V.m.m.m.G.m.P.P.P.P.3.P.3.3.3.4.4.4.6.6.6.i.i.i.i.i.i., t r v t 9.yXeX;.+. .+.>.>Xu p p u p * ",
"  2 2 zX6.6.6.3.f.f.m.f.m.m.J.J.P.P.P.U.3.3.3.3.K.4.4.4.6.6.i.i.i.i.=X#Xr r e t y v yX8Xu e i y i i u i p p p = ",
". 2 1 zX6.6.3.V.V.f.m.m.m.m.m.G.P.P.P.P.U.3.3.3.3.4.4.5.6.6.6.i.i.L.=.r t v r y e 9.yXrXe u i e u u i u i u i = ",
". 2 1 <Xi.U.V.V.f.V.V.f.m.m.G.m.G.P.U.P.3.3.3.3.N.4.4.4.6.6.i.i.L.W.0 r r r e e i y kXdXi v e u e i u i u p i = ",
". 2 M <X4.M.V.V.V.m.m.m.m.m.m.P.P.P.P.3.U.3.3.3.4.4.4.4.6.6.i.<.W.0 0 r r v e v e v xXdXy i i u u i i u i u i = ",
". 3 2 9Xf.V.V.V.V.V.m.m.m.G.P.m.P.U.3.P.3.3.3.4.4.4.5.=X6.8.,.W.W.0 r r r e v e v v cXdXe u e e u i u i i i u = ",
". 2 2 %.* = * .X.X.X.X.X.XC..XY.A.n.; =.=.:.;.:., > > > #X, W.r 0 r r r r r e e e i aX>.i v i v u i i u p u p = ",
". .       X X X o o vXvXvXO O O O + + @ @ # # # # # # # # # # % # $ % & % & & & .X& * * * * * * * * * * * = * = "};
