/* XPM */
static char * image_name[] = {
"65 65 181 2",
"  	c #C4C47676ACAC",
". 	c #D4D48A8ABCBC",
"X 	c #B4B46A6A9C9C",
"o 	c #CCCC7E7EB4B4",
"O 	c #CCCC7A7AACAC",
"+ 	c #CCCC7A7AB4B4",
"@ 	c #C4C47272A4A4",
"# 	c #C4C47A7AACAC",
"$ 	c #CCCC7676ACAC",
"% 	c #D4D48282B4B4",
"& 	c #C4C47A7AA4A4",
"* 	c #CCCC7E7EACAC",
"= 	c #D4D48282BCBC",
"- 	c #C4C47676A4A4",
"; 	c #BCBC7272A4A4",
": 	c #C4C47A7A9C9C",
"> 	c #C4C47E7E9C9C",
", 	c #444402022C2C",
"< 	c #CCCC8282B4B4",
"1 	c #BCBC6E6EA4A4",
"2 	c #D4D48686B4B4",
"3 	c #CCCC7A7AA4A4",
"4 	c #CCCC8282ACAC",
"5 	c #B4B466668C8C",
"6 	c #3C3C02021414",
"7 	c #343402021414",
"8 	c #DCDC8A8AB4B4",
"9 	c #ACAC62628C8C",
"0 	c #B4B462629494",
"q 	c #A4A45A5A8C8C",
"w 	c #9C9C4A4A7C7C",
"e 	c #9C9C4E4E8484",
"r 	c #A4A452527C7C",
"t 	c #A4A44E4E7C7C",
"y 	c #A4A44E4E8484",
"u 	c #ACAC56568484",
"i 	c #A4A456568484",
"p 	c #A4A456568C8C",
"a 	c #ACAC56568C8C",
"s 	c #A4A452528484",
"d 	c #A4A452528C8C",
"f 	c #ACAC5A5A8484",
"g 	c #ACAC5A5A8C8C",
"h 	c #ACAC62629494",
"j 	c #ACAC5E5E8C8C",
"k 	c #ACAC5E5E9494",
"l 	c #B4B45E5E9494",
"z 	c #8C8C3E3E6C6C",
"x 	c #848436366464",
"c 	c #4C4C02022424",
"v 	c #A4A45A5A8484",
"b 	c #949442427474",
"n 	c #949446467474",
"m 	c #949446467C7C",
"M 	c #9C9C46467474",
"N 	c #9C9C4A4A7474",
"B 	c #9C9C42427C7C",
"V 	c #9C9C52527C7C",
"C 	c #9C9C52528484",
"Z 	c #8C8C3E3E6464",
"A 	c #3C3C02021C1C",
"S 	c #6C6C22224C4C",
"D 	c #848432325C5C",
"F 	c #74742A2A5454",
"G 	c #7C7C2A2A5454",
"H 	c #747426265454",
"J 	c #7C7C26265C5C",
"K 	c #7C7C2E2E5C5C",
"L 	c #84842E2E5C5C",
"P 	c #848432326464",
"I 	c #848436365C5C",
"U 	c #8C8C36366464",
"Y 	c #8C8C36366C6C",
"T 	c #8C8C3A3A6464",
"R 	c #8C8C3A3A6C6C",
"E 	c #84843A3A6464",
"W 	c #94944A4A7C7C",
"Q 	c #9C9C46467C7C",
"! 	c #94943E3E7474",
"~ 	c #7C7C32325454",
"^ 	c #444402021414",
"/ 	c #444402022424",
"( 	c #C4C47E7EA4A4",
") 	c #A4A456567C7C",
"_ 	c #949442426C6C",
"` 	c #646416164444",
"' 	c #6C6C1E1E4C4C",
"] 	c #74741E1E4C4C",
"[ 	c #747422224C4C",
"{ 	c #747422225454",
"} 	c #747426264C4C",
"| 	c #7C7C26265454",
" .	c #7C7C32325C5C",
"..	c #84843A3A6C6C",
"X.	c #CCCC7E7EA4A4",
"o.	c #84843E3E6464",
"O.	c #6C6C1E1E4444",
"+.	c #64641A1A4444",
"@.	c #6C6C16164444",
"#.	c #6C6C1A1A4444",
"$.	c #7C7C2A2A5C5C",
"%.	c #84843A3A5C5C",
"&.	c #747422224444",
"*.	c #444402021C1C",
"=.	c #3C3C02020C0C",
"-.	c #ACAC62628484",
";.	c #8C8C42426C6C",
":.	c #646416163C3C",
">.	c #74741E1E4444",
",.	c #6C6C22224444",
"<.	c #7C7C2E2E5454",
"1.	c #74742A2A4C4C",
"2.	c #6C6C26264444",
"3.	c #444402020C0C",
"4.	c #CCCC8282A4A4",
"5.	c #94944A4A6C6C",
"6.	c #94944A4A7474",
"7.	c #8C8C3A3A5C5C",
"8.	c #7C7C32326464",
"9.	c #949446466C6C",
"0.	c #747426264444",
"q.	c #6C6C1A1A4C4C",
"w.	c #8C8C3E3E7474",
"e.	c #9C9C4E4E7C7C",
"r.	c #8C8C42427474",
"t.	c #94943A3A7474",
"y.	c #3C3C02022424",
"u.	c #94943E3E6C6C",
"i.	c #84843E3E6C6C",
"p.	c #7C7C36365C5C",
"a.	c #949442427C7C",
"s.	c #6C6C26264C4C",
"d.	c #74742E2E5454",
"f.	c #9C9C4A4A8484",
"g.	c #BCBC76769C9C",
"h.	c #ACAC5E5E8484",
"j.	c #84842E2E6464",
"k.	c #8C8C3A3A7474",
"l.	c #94943E3E7C7C",
"z.	c #C4C476769C9C",
"x.	c #94944E4E7474",
"c.	c #9C9C4E4E7474",
"v.	c #C4C482829494",
"b.	c #94944E4E7C7C",
"n.	c #7C7C3A3A5C5C",
"m.	c #CCCC7676A4A4",
"M.	c #ACAC52528484",
"N.	c #B4B462628C8C",
"B.	c #84843A3A5454",
"V.	c #CCCC7A7A9C9C",
"C.	c #A4A44A4A8484",
"Z.	c #B4B45A5A9494",
"A.	c #BCBC6E6E9C9C",
"S.	c #ACAC5A5A9494",
"D.	c #B4B462629C9C",
"F.	c #B4B466669494",
"G.	c #C4C472729C9C",
"H.	c #B4B45E5E9C9C",
"J.	c #4C4C02022C2C",
"K.	c #6C6C2A2A4C4C",
"L.	c #7C7C36365454",
"P.	c #84843E3E5C5C",
"I.	c #747432325454",
"U.	c #646422223C3C",
"Y.	c #DCDC9696B4B4",
"T.	c #ACAC6A6A8484",
"R.	c #94944E4E6C6C",
"E.	c #6C6C2A2A4444",
"W.	c #74742E2E4444",
"Q.	c #74742E2E4C4C",
"!.	c #6C6C2E2E4444",
"~.	c #747432324C4C",
"^.	c #7C7C32324C4C",
"/.	c #545416162C2C",
"(.	c #343402020C0C",
").	c #343402020404",
"_.	c #CCCC9696A4A4",
"`.	c #3C3C06061414",
"'.	c #3C3C02020404",
"].	c #44440A0A1414",
"[.	c #2C2C02020404",
"  . X o o O + @ O # $ $ $ $ $ $ + O + O O $ $ $ o + % + O + O O O # O & O O # O * * * * * * * * O O + O # $ +   + = o - % ; * : > ",
", X % < 1   O ; + O + O + O $ O   $ $ $   $   @ $ @ @ $ @ $ $   O O O O * * * * - - - - - - - - O # + # $ # $ + 1   O - 2 3 4 5 6 ",
"7 # 8 1 9 0 q w e r e t e y y y u i p i a i a a s i d i a i a u q f q g q g g g 0 h 0 0 0 0 0 h j j k k k k k k l k l i s z x c 6 ",
", O ; j 0 v b b n m M m M N m M b b b b b B n n b b b M m M w w s V s i r i i i y V t C V s V s s s s s s s d s q s j i w Z x 6 6 ",
"A & @ 9 v z S D F G H G J G J G K L D D P I P U x U Y T R R z R P P x x x x x E b n n n n n n n n n n n m W Q W ! z W z E ~ D 6 ^ ",
"/ 2 ( ) _ K ` ` ' ' ] [ ' [ [ [ ' ] ' ' ] [ { [ { } { [ H G | G  .K K  .P P P x x x P x x U ..U x x x Y x T x ..N W N Z U } H ^ 6 ",
"/ X.; N o.E [ O.` +.` @.#.#.@.#.] S ] [ [ [ [ [ [ [ } } | } H G | $.G K K K K  .$.G K K K K D K x I E x T ..R T P x I K %.&.O.*.=.",
"A : X.-.;.F :.:.#.+.#.#.#.#.#.' O.>.O.>.' >.S ] ,.] [ [ [ } [ } H H H H F $.<.$.K K K K P  .P I  .D D I P x x x E z I D ;.} :.^ =.",
"*.* : V N 1.[ :.+.:.#.#.O.O.>.>.' ] S [ [ O.O.O.| } H | } | } | F G $.G K K K K K L D x D P I x I %.E E E T x x T T Z I Z G 2.3.6 ",
"*.4.& r 5.1.S :.#.+.#.#.#.O.] ' >.O.[ O.[ O.] ] } G } G } G } G H H H F G $.<.K L  . . .K  .x T x I I U %.x T x E T ;.I Z 1.,.^ =.",
"*.* : V 6.G } :.+.#.#.#.O.O.>.' ] [ O.] O.[ O.[ } | } | } G | 1.G G <.K <.K K  .D D D  .D D x E %.U E E U E R E U z ;.7.T } &.^ =.",
"A 4.& r 6.1.[ +.#.O.#.#.O.] ' >.[ [ ' &.' [ [ [ H G } G | 1.| G F <.K <.K  .D  .I 8.I D  .D %.T I E I T x T ..R E z 9.T %.} ,.^ 6 ",
"/ * & V N F H #.#.+.' O.] ' ] ' [ [ ] ' ] [ [ } | H | F | G | G F G F <.<.<.K ~ K D x E x I x x T E U E R E R z R z 9.E E 0.,.*.=.",
"A * & s 6.G H +.' ' q.] q.] ' ] ] S ] [ [ [ { { H | H | J F G $.G K <.K K D  .D  .I %.E T x x I E T E U E R z w.z ;.b T T } ' ^ 6 ",
"/ * & V e.F H #.' ' ] ' ] ' ] ] ' { [ { { { } { | H G H G $.$.G K <. .~ D D D I D I x 7.%.I I x T E x ..R R z b b b ;.E T } &.6 ^ ",
"A * & r 6.$.H #.' ] ' ] ' ] ' ] ' ] [ { [ H { } | H | | G G G $.<.G <.<.K ~  . .x I E x x I E E T T ..U ..z z r.r.b z x Z H S 6 6 ",
"*.( & i ;.I [ ' ] O.] O.] ' [ S ' [ S H H H | H H G F $.F $.$.F  . .P  .D x D I T E U I x T T R x Y R z R t.w.b b n n T o.1.[ *.=.",
"y.4 & ) ;.x ] >.' ] >.' [ O.[ S [ { { H | H H H $.F $.K K K K L K L  .D P D P x x E x x T x x T T R u.b ! b b b b n n z R F S 6 6 ",
"A * & V _ I [ ' ] ' ] ] O.] S [ H H H F F G F G G $.K K K K K  .P  .P  .P x x x x U E T ..T ..T Y R z u.w.! r.b b n n i.Z H } *.=.",
"y.( & ) ;.x [ ] ] ] O.] ' [ [ } H H H G H | H H F F G <.K K K K P  .D P D x I x x x x T R E T x U R u.w.u.w.! r.m m n z z F S *.6 ",
"A 4 ( ) ;.U [ [ ] ' ] ] [ [ H } H H H H G H F H $.$.K K L K L K D P D p.x x x x x T R E R T ..T w.u.b n b b n m M W N z z 1.} A =.",
"A 4 & V _ E { [ >.[ ] [ [ [ } H H } | F H G H G K K  .D 8.D  .D 8.I P x x x U x T x E R T E R T u.b b b a.b a.n m N W z z F [ *.6 ",
"A 4 & i 9.E | ] ' ] [ ' [ H H } H H H G $.F $.G K D D 8.D x P I P x x x x x E U E T E T E R T ..u.u.b b ! b b b Q W w ;.;.G s.^ 6 ",
"A 4 ( V _ x } [ [ ] ] [ [ } } F H H G F G K K K K K K L  .D  . .D x D x U x U E R E R x T E z z ! b n n B a.n m W e.w z z F S *.6 ",
"y.( & v 6.T | ] [ [ } { [ H | G F | F $.K K K K K K  .D  .P x x x x x x E T E x x U R z z R z _ b ! b M n Q Q W w n w ;.z <.<.*.=.",
"A * : v 6.T } [ [ { [ | { } F G H $.F G $.G K K L  .L K P D x x I x x x T x x T x ..Z z z u.;._ _ b b B n Q W Q e n W 9.z <.F *.6 ",
"y.( & v M E | [ [ | | } | } H F G F $.$.<.K K K D  .D 8.D P x x U x T E x T E U R Z z z _ ;.b b b B 9.n Q Q m w w N w r.;.<.F *.=.",
"A X.& v 6.Z | { [ [ | | G | H G F $.F G K K  .L  .D 8.D x x x x E T E x T x T ..T z z _ w._ ;.9.b b M m M m w w e W e.n ;.<.F *.6 ",
"/ ( & v N Z H | [ [ G G F | F G G $.K K K K L  .P D P D x x x T R E U ..x R T ..T z ;._ ;.u.b b b M n Q Q w w w e.w e.n ;.K d.^ 6 ",
"A ( & f 6.z | } [ H | | G G F <.F K G K K D  .D K 8.I x x U x x E Y E U E T z z z z z b _ r.;._ M b Q 6.Q w w w e w e.6._  .F *.6 ",
"y.X.& v N Z G | | | G H | } <.K $.<.K K K D K P D D x x E E T x T E x T ..R z _ z _ b n ;._ b n n M Q M w w f.e.e e.e 6.n K <.6 =.",
"A ( & v N z | H | H | G H G G K <.$.K K K D 8.D  .P x x U E U E U Y x Y T z u.b u.b b n b b n b Q n N m w f.w e.e e.s 6.9.~ F *.6 ",
"A 4 g.h.e.E $.| H | $.G L K ~  .L K L K P P P x R U x P x U R R U x Y Y R ! b m b B n Q Q Q Q M w w W w w e.e.e r C r n N K } ^ =.",
"A 4.g.j e.Y $.{ | J G $.K L K D K j.K L j.D P U x Y x Y U Y E Y Y Y Y k.t.! b B B B B B Q Q Q Q e.N w N W e.e t C s s 6.6.D H ^ 6 ",
"A 4 ; -.e.R $.J J J $.L <.L ~  .L K j. .P P P x U x R T R R U x Y k.t.t.! b l.b b a.B n B Q Q Q w e.e.e.e.e.e.C r C r 6.M ~ } *.3.",
"A ( z.j V ..L | $.| $.L K L  .D K D L j.D P U x Y x U R R R R R R R ! ! a.b B a.Q B m B Q Q Q w e.e.w e.e.y e.s C r s N 6.D } *.=.",
"A 4 z.9 e.R j.$.$.$.$.L L  .D K D j.8.D P P x U R T x Y E R z ! R ! ! b B b B b M b Q M m Q w Q w e.e.V e s V s s C s 6.N ~ 1.*.=.",
"A 4.g.9 s z L $.$.$.L L K D D  .P D P P P U x U R R Y x U R z _ ! ! b b b b n B m M m Q w Q w w e.e.C r s C s r C r i N 6.D } c 6 ",
"A 4 z.9 V z P $.L L $.L D D ~ D D j.P D P x Y R T x R T R R u.! b ! b ! b b B n B m M Q m Q w w e.t V s s s s C s i s 6.N I 1.^ =.",
"A ( - 9 s z j.j.$.$.L P L  .D  .D P P P x U x Y x R R R z u.z z b b b ! b b b b m M m Q Q Q w w e.V s s i i C s s i s x.N ~ | *.=.",
"A 4 : 9 i ;.U P j.P L K L D  .I P U T Y U x Y T x Y R u.z ! u.b u.b b b b n Q w M w w w w e.t s r e.V V y V s V v e.g c.N Z F ^ ^ ",
"/ v.- 9 i w.Y P L j.j.L K D D x x x U ..U R x R Y T u.w.u.z b b b b n n b n M w Q w w e.w e.s s e.r y C r C s s i e.g V N %.G *.=.",
"A 4 & 9 s _ x j.j.L K D P D I I U Y R T x Y R R R z b _ b b b n b b n n n n w W N W e.e.e.e.s s V V s V s s C s v w g V N o.G ^ 6 ",
"y.( z.9 s r.U P K j.L P D x I x x x R R U R T R z z ! b _ b b n n n m M n m 6.e.N e.e.e.e.e.V s V r e r s C ) s q e.g e.c.T 1.*.=.",
"A 4 & 9 i _ U j.L j.L P D U I E U R T R x R R u.z u.b _ b b b b n n 6.m N w w e.w e.e.t s e.s s V r s C r s s s v e.j V N Z G *.=.",
"/ v.z.9 i w.x P j.j.P x U x I x T T Y R T R z b R z _ b b _ _ B n n w N m 6.e.e.w e.s C V s V s r s V s C s C i g e.g V c.o.G *.=.",
"A < & 9 s _ Y P L P P U x U I x U R T R U R u.b z ! b b u.b b 9.n w N W w w e.e.e.e.s r s e.s C r V s s s i s i i e.j r N Z G *.=.",
"y.4.- 9 C b x P P P P U x x I x E R Y ..R R u.b z _ b b b b b n w 6.W w 6.w e.C e.V s C s V s r C s r C r C i s g e j V b.Z <.*.=.",
"/ # & j i n x x x E R E R E R E k.R R R R w.w.b b a.n n m n m m W w w W e.e.e.e.e V e V C s C C s r C s i i p q g 9 g i c.I p.*.6 ",
"/ # & j C n x ..x ..E ..R ..E ..x R ..R w.w.b r.a.b a.b m m Q n w W 6.b.w b.e.e.V C r C s C C r i C r C s p i q j h q i V p.I 6 6 ",
"/ 3 - j V 6.x E E T E T E E x T x R R z ! b b b b n m M Q M Q W e.N e.e.e.e.e.e V s V C ) C ) C r s r i i i q a j 9 j v V I %.6 =.",
"*.& & -.) 9.I %.U E E E E 7.E x R R w.u.b b b b Q n M n M m N w N e.e.e.e.e.V V s V V r V r s ) r r i s u v g f g 9 h.v V n.I ^ 6 ",
"*.3 m.h.r 9.I T 7.%.U 7.7.x 7.U z u.! _ b _ b _ b M n M Q N w N e.e.c.V r r r r r V r s r ) r s r ) M.i f a f j v N.j v V B.I 6 =.",
"*.V.: h.) M I %.T T %.7.E 7.Z T _ b b _ B b ! b M B Q w M w Q w e.r t r r r s r s r r r s r s ) r r i f g g j g g 9 h.f ) I I ^ 6 ",
"*.3 m.h.r 9.I T U %.U E T T Z u.b B _ b b B 9.M Q n M Q w w w C.t e.s t s s i s r s s r s s i s s M.u a g g l j g 0 j f V %.I *.=.",
"/ 3 m.j r 9.U x T T U T T Z z u.b b ! B b n Q Q Q Q Q w Q Q w w r y s s s s i s s r s s s s s s s M.a g g Z.j Z.g l j j s x I *.6 ",
"A 8 A.A.f w T x D x U T R u._ b ! ! ! b l.B a.a.f.w f.f.C.C.y f.y e y s y s y s s y s s i a u a a i a a S.g S.S.k D.p F.e.P  .A =.",
"c % G.F.M.n z T R R z z b b b n b m a.B m Q Q Q C.y y y d s d d s s s s s s d s a p a p a p a g S.l k l l H.H.D.p l p 0 e ;.r.c 6 ",
"/ & O F.q n R 8.P x x x E R T R R R k.z k.w.! w.b r.l.n a.Q Q W Q W m W w W w b.e e.e e.w e.e e.s s y d d d p d k D.p i n p.K 7 6 ",
"J.& & v 9.E T E x %.x E x E E E ..R E R R Z ..z R z z z _ r._ n r.9.n 9.n 6.n 6.w x.N 6.6.6.W N W e.e.e.e.e.e C W v V b.;.i.~ *.6 ",
"A : : -.6.n.1.K.1.1.F 1.1.1.1.F 1.1.F 1.1.F 1.1.<.~ <. . .p.I p.~ L.~ p.~ L.L.L.I p.I n.I %.%.P.o.Z E Z E z Z i.I ;.o.%.L.I.U.6 =.",
"^ Y.T.-.R.B.,.,.2.E.2.E.2.E.2.E.2.E.2.2.0.2.0.2.1.E.1.W.Q.W.Q.W.1.!.W.W.Q.W.Q.Q.W.W.W.W.~.~.~.^.~.^.^.^.~ ~ I.~ I.P.%.~.!.2./.=.=.",
"(.v.*.=.).(.=.^ 6 6 ^ 6 ^ 6 ^ ^ =.^ 3.6 3.6 3.6 3.6 3.6 3.6 3.=.^ =.^ =.^ =.^ =.^ =.6 =.^ 3.^ ^ ^ 6 ^ 6 ^ 6 ^ 6 6 =.6 =.^ 3.=.=.=.",
"=._.(.6 6 `.).(.=.=.=.=.=.=.=.6 3.=.=.=.=.=.=.=.=.=.=.=.=.=.=.=.(.'.(.).=.).=.=.(.=.=.'.(.).(.'.=.=.=.=.=.=.6 =.=.6 =.).=.).).].=.",
"[.[.[.[.[.[.[.[.[.[.[.[.[.[.[.[.[.[.[.[.[.[.[.[.[.[.[.[.[.[.[.[.[.[.[.[.[.[.[.[.[.[.[.[.[.[.[.[.[.[.[.[.[.[.[.[.[.[.[.[.[.[.[.[.[."};
