/* XPM */
static char * image_name[] = {
"65 65 37 1",
" 	c #B8B8B8B8B8B8",
".	c #282828282828",
"X	c #B0B0B0B0B0B0",
"o	c #B0B0A8A8B0B0",
"O	c #A0A0A0A0A0A0",
"+	c #989898989898",
"@	c #909098989898",
"#	c #9898A0A09898",
"$	c #A0A0A8A8A0A0",
"%	c #909088889090",
"&	c #808080808080",
"*	c #989898989090",
"=	c #909090909090",
"-	c #888888888888",
";	c #888888889090",
":	c #909088888888",
">	c #989890909898",
",	c #909098989090",
"<	c #787880808080",
"1	c #787878787878",
"2	c #707070707070",
"3	c #787878788080",
"4	c #808078787878",
"5	c #808080807878",
"6	c #686868686868",
"7	c #606068686868",
"8	c #787880807878",
"9	c #808078788080",
"0	c #585860605858",
"q	c #686860606060",
"w	c #686860606868",
"e	c #686870706868",
"r	c #606060606868",
"t	c #909090909898",
"y	c #989890909090",
"u	c #A8A8A8A8B0B0",
"i	c #000000000000",
"                                                                 ",
".                                                               .",
".  XoO++++@++@++++++++++++++++O+O#O+OOOOOOOOOOOOOOOOOOO$O$$O+%&..",
".  oO*=%-;::;:%;%%%=%=%=%====>=+=>,@*@>++@++++++++++++++++++=&<..",
".  O+&1222221211111134353&<&5&&&&&&&&&&&:;:;%;:;%%%%%%%%===%&12..",
".  +%1667676666666622622222222212111143&8&8&8&9&&&&&&&&;&%-&526..",
".  >;260000q06w6w666666666666e2e222221112121211418&&&&&&&&&&166..",
".  *%e6000q7w07r67666666662662262e22222111111419194<9&&&&&&&1e6..",
".  t%2600w0wq7q66766666622e222e22222111121419198&&3&&&&&&&&&526..",
".  @:26w060606667666666662e2e222222222214119135&1&9&<&&&&&:&526..",
".  +%1600wr6q6w7666666662ee2222222212112191149&&&&<&&&&&&&:&826..",
".  +-2606w7q7676666666662222222222212119141935353&&&&&&&&:;&4e6..",
".  >%26w06q766666666662e2e2e2222221211211935<5&&&&<&&&&;&;:&826..",
".  +-266r676676666666e26262222221211213134<599&3&&&&&&;&%-:&&e6..",
".  +%16q76r67666666e22e2e222222121111191&1&&<&&&&&&&&&:&%&:&526..",
".  @%167q766666666e626262222222121243431195959<&&&&&&&;:;:;&526..",
".  +%1667666766666262e22222212121111191&&&8&<&&&&&&&:&%-%:;:<26..",
".  +%166766666666e62626222121212113434&159&9&&&&&&;:;%-%-%%&&26..",
".  +%12666666666622222222211111111119895&&5&&&&&&&:-%-%-%:%-&16..",
".  +%866766666666222222221212121919598&<43&&&&&&&&;&;:;:%;%-&26..",
".  +%1e6666666e2e222222221211111191&1&&5&&&&&&&&&%:%-%:%;%=%&26..",
".  +%82666666262e2222222211111393535&5&3&&&&&&&&%-;:;%%%%==;&16..",
".  +%52666666e2226222212111111914<4&3&&&&&&&&&&%&%-%:%%%=%=%&26..",
".  +%8e66666262e2222212112111911<4&&5<&&&&&&&&%&%-%%%;%=%==;&12..",
".  +=&266266e2e222222211111434359<&9&&&&&&&:&:&;:%;%%%====%%&12..",
".  +=<2662626222222221111313191&895<&&&&&&&:&;%:;%:%%=%===t%&12..",
".  +=526222222e22221111113191&8&4&<&&&&&&&:;:;:;:%%======t==&12..",
".  +=&26662e2e222212212134134<4&<&&5&&&&&&%&:;:%%%%%%%====t=;12..",
".  +t&2e2e22222222121134134<98&<&&&&&&&&&%-:%;%;%%=====t=@,=&12..",
".  +=&2262222221212112134435<&&&&&&&&&&%&%&%-%:%%%=%===y,>@=;12..",
".  Ot&122e222222121123411<&59&&&&&&&&&;:;:;%%%%%;======,t,+=;12..",
".  +=&2e2222222121231919434<&<&&&&&&&:&%-%:%-%=%==%===t*=+@=-12..",
".  O=&122222211111143198&&<59&&&&&&&&;-%-%%%%%=======y@=@*@=%32..",
".  ++&2e222111211121494&35<&&&&&&&&%&%-%:%%%%========@y@*@+=%12..",
".  O+&1221112111434338&8&9&&&&&&&&&%&%:;%;:===%====yt,t@*@+=;52..",
".  Ot&12212111131131949&95<&5&&&&;:;:;;%:%=%%====y=,=@*@+,+=%12..",
".  O+&322211211419443<&5&&&&&&&:&:;:%:%%%%%==%===t,+@*t+*++=%82..",
".  O@:122111191134335&9&&&&&&&&;:;:;:;%;%=%=%====+=@*@++@++=:32..",
".  O+;42111111191989&<&&&&&&&:;:;%-%%;%%%%=====y=t,+@*+,+*+>%52..",
".  O+:31121131914<989&&&&&&:&&%&%&%%-%%%%=%=%t=y@*+,+*+++++,%<2..",
".  O@&&11131434<&8&&&&&&&&&&;:;:;%%%%%=======yt+=+,++@+*++++%&2..",
".  O+:&1914131&14&9&&&&&&:;:&%&%-%%;====%====+=@*@++*++++++*%&2..",
".  O+%<1113434<5<&&&&&&&&&:;%:;:%%%%%%=====y,+,+,+,++++++++@=&1..",
".  O+:&114314<4&99&&&&&&&:;:-;:%;%;%======y@=>,+,+@*++++++++=&2..",
".  O+;&1319&35&&&&&&&&&:;&%-%%%:%%==%====@,*@*@*++*+++++++O+=&1..",
".  O+%39191<4&&9<&&&&&&%&%&%-%;%;======+=,+,+,++*@++++++++#+=&2..",
".  O+;&135&&&<9&&&&&&:;:;:;%&%:%====t=t*=+,@*@+@+++++++++O++=&1..",
".  O+:&91&353&5&&&&&&&&%&%-%%%%%%====,=+=,+,+@++*++++++++O++=&2..",
".  O+%&895<&&&&&&&&&&%&;:%%%-%=%====>=*=*@*@+++++++++++O+OO+=&1..",
".  O+;&5&&5&&&&&&&&;&:;:;%;%%=%===y==*t+@y@*@*++++++++O+OOO+y&1..",
".  O+%&&<&<&&&&&&&:&%-%-%:%=%=%====>=*t*,+@++++++++++OO+OOO+t&4..",
".  O+%&&5&&5&&&&&&&:;:;:;%;=;====t=,>,@*ty@*++++++++O++O#OOO=&1..",
".  O+%&5&&&&&&&&:;:;:;%%:=%======,+,@*>,++++++++++OO+OOOOOOO,&3..",
".  O+%&&<&&&&&&&-:;:;%:%%=%=%====@y@*@*++++@*+++++O+O+OOOOO++&4..",
".  O+%&&&&&&&&;:;:;:%%%=======>,+,+,@+,+,++++++++O+OOOOOOOOO>&1..",
".  $+%&5&&&&&:&;:;:;%;==%%==y=@=@=+@*+++++++++++++O+OOOOOOOO@&3..",
".  $O=&&&&&&&;-%-%%%%%=====y@,*@*@*@++@+++++++OO+O#OOOOOO$OO>&9..",
".  u+=&&&&&:;:;:;:%%%=%==ty=,+,@*@++*+++++++++++OOOO#OO$OOO+>;1..",
".  O+=&&&&&&&&&&&%&;:;:%%%===========t*,>,+@++++++++O+#O+OO+t&2..",
".  #+&&111<9<9&&&&&&&&&&&&&&&&;:;%-%:%;%;%%%%%%===t=y@>*@+tt%12..",
".  +=&22222e2222222222212111138113131848&8<&<&&&&&&&&&&&&;&&326..",
".  =;1666666666666666666662222222222222222221211134131343431260..",
". ...............................................................",
". ...............................................................",
"iiiiiiiiiiiiiiiiiiiiiiiiiiiiiiiiiiiiiiiiiiiiiiiiiiiiiiiiiiiiiiiii"};
