/* XPM */
static char * image_name[] = {
"64 64 100 2",
"  	c #9898A6A6ABAB",
". 	c #5E5E68686F6F",
"X 	c #5D5D67676E6E",
"o 	c #5C5C66666D6D",
"O 	c #5B5B65656C6C",
"+ 	c #5A5A64646B6B",
"@ 	c #595963636A6A",
"# 	c #585862626969",
"$ 	c #585861616868",
"% 	c #575760606767",
"& 	c #56565F5F6666",
"* 	c #55555E5E6565",
"= 	c #54545D5D6464",
"- 	c #53535C5C6363",
"; 	c #52525B5B6262",
": 	c #51515A5A6161",
"> 	c #515159596060",
", 	c #505058585F5F",
"< 	c #4F4F57575E5E",
"1 	c #4E4E56565D5D",
"2 	c #4D4D55555C5C",
"3 	c #4C4C54545B5B",
"4 	c #4B4B53535A5A",
"5 	c #4A4A52525959",
"6 	c #4A4A51515858",
"7 	c #494950505757",
"8 	c #48484F4F5656",
"9 	c #47474E4E5555",
"0 	c #46464D4D5454",
"q 	c #45454C4C5353",
"w 	c #44444B4B5252",
"e 	c #44444B4B5151",
"r 	c #43434A4A5050",
"t 	c #424249494F4F",
"y 	c #414148484E4E",
"u 	c #404047474D4D",
"i 	c #3F3F46464C4C",
"p 	c #3F3F45454B4B",
"a 	c #3E3E44444A4A",
"s 	c #3D3D43434949",
"d 	c #3C3C42424848",
"f 	c #3B3B41414747",
"g 	c #3A3A40404646",
"h 	c #39393F3F4545",
"j 	c #39393E3E4444",
"k 	c #38383D3D4343",
"l 	c #37373C3C4242",
"z 	c #36363B3B4141",
"x 	c #35353A3A4040",
"c 	c #343439393F3F",
"v 	c #343438383E3E",
"b 	c #070708080909",
"n 	c #333338383D3D",
"m 	c #323237373C3C",
"M 	c #313136363B3B",
"N 	c #303035353A3A",
"B 	c #2F2F34343939",
"V 	c #2F2F33333838",
"C 	c #2E2E32323737",
"Z 	c #2D2D31313636",
"A 	c #2C2C30303535",
"S 	c #2B2B2F2F3434",
"D 	c #2A2A2E2E3333",
"F 	c #2A2A2D2D3232",
"G 	c #29292C2C3131",
"H 	c #28282B2B3030",
"J 	c #27272B2B2F2F",
"K 	c #26262A2A2E2E",
"L 	c #252529292D2D",
"P 	c #242428282C2C",
"I 	c #242427272B2B",
"U 	c #232326262A2A",
"Y 	c #222225252929",
"T 	c #212124242828",
"R 	c #202023232727",
"E 	c #202022222626",
"W 	c #1F1F21212525",
"Q 	c #1E1E20202424",
"! 	c #1D1D20202323",
"~ 	c #1C1C1F1F2222",
"^ 	c #1B1B1E1E2121",
"/ 	c #1B1B1D1D2020",
"( 	c #1A1A1C1C1F1F",
") 	c #19191B1B1E1E",
"_ 	c #18181A1A1D1D",
"` 	c #171719191C1C",
"' 	c #161618181B1B",
"] 	c #161617171A1A",
"[ 	c #151516161919",
"{ 	c #141416161818",
"} 	c #131315151717",
"| 	c #121214141616",
" .	c #111113131515",
"..	c #111112121414",
"X.	c #101011111313",
"o.	c #0F0F10101212",
"O.	c #0E0E0F0F1111",
"+.	c #0D0D0E0E1010",
"@.	c #0C0C0D0D0F0F",
"#.	c #0C0C0D0D0E0E",
"                                                                                                                                ",
"  . X o o O + @ # # $ % & * * = - ; : > > , < 1 2 2 3 4 5 6 6 7 8 9 0 q q w e r t t y u i p p a s d f f g h j j k l z x x c v b ",
"  X o o O + @ # # $ % & * * = - ; : > > , < 1 2 2 3 4 5 6 6 7 8 9 0 q q w e r t t y u i p p a s d f f g h j j k l z x x c v b b ",
"  o o O + @ # # $ % & * * = - ; : > > , < 1 2 2 3 4 5 6 6 7 8 9 0 q q w e r t t y u i p p a s d f f g h j j k l z x x c v n b b ",
"  o O + @ # # $ % & * * = - ; : > > , < 1 2 2 3 4 5 6 6 7 8 9 0 q q w e r t t y u i p p a s d f f g h j j k l z x x c v n m b b ",
"  O + @ # # $ % & * * = - ; : > > , < 1 2 2 3 4 5 6 6 7 8 9 0 q q w e r t t y u i p p a s d f f g h j j k l z x x c v n m m b b ",
"  + @ # # $ % & * * = - ; : > > , < 1 2 2 3 4 5 6 6 7 8 9 0 q q w e r t t y u i p p a s d f f g h j j k l z x x c v n m m M b b ",
"  @ # # $ % & * * = - ; : > > , < 1 2 2 3 4 5 6 6 7 8 9 0 q q w e r t t y u i p p a s d f f g h j j k l z x x c v n m m M N b b ",
"  # $ $ % & * = = - ; : > > , < 1 2 3 3 4 5 6 7 7 8 9 0 q q w e r t y y u i p p a s d f f g h j k k l z x c c v n m m M N B b b ",
"  $ $ % & * = = - ; : > > , < 1 2 3 3 4 5 6 7 7 8 9 0 q q w e r t y y u i p p a s d f f g h j k k l z x c c v n m m M N B V b b ",
"  $ % & * = = - ; : > > , < 1 2 3 3 4 5 6 7 7 8 9 0 q q w e r t y y u i p p a s d f f g h j k k l z x c c v n m m M N B V V b b ",
"  % & * = = - ; : > > , < 1 2 3 3 4 5 6 7 7 8 9 0 q q w e r t y y u i p p a s d f f g h j k k l z x c c v n m m M N B V V C b b ",
"  & * = = - ; : > > , < 1 2 3 3 4 5 6 7 7 8 9 0 q q w e r t y y u i p p a s d f f g h j k k l z x c c v n m m M N B V V C Z b b ",
"  * = = - ; : > > , < 1 2 3 3 4 5 6 7 7 8 9 0 q q w e r t y y u i p p a s d f f g h j k k l z x c c v n m m M N B V V C Z A b b ",
"  = = - ; : > > , < 1 2 3 3 4 5 6 7 7 8 9 0 q q w e r t y y u i p p a s d f f g h j k k l z x c c v n m m M N B V V C Z A S b b ",
"  = - ; : > > , < 1 2 3 3 4 5 6 7 7 8 9 0 q q w e r t y y u i p p a s d f f g h j k k l z x c c v n m m M N B V V C Z A S S b b ",
"  - ; : > , , < 1 2 3 3 4 5 6 7 8 8 9 0 q w w e r t y y u i p a a s d f g g h j k k l z x c c v n m M M N B V C C Z A S S D b b ",
"  ; : > , , < 1 2 3 3 4 5 6 7 8 8 9 0 q w w e r t y y u i p a a s d f g g h j k k l z x c c v n m M M N B V C C Z A S S D F b b ",
"  : > , , < 1 2 3 3 4 5 6 7 8 8 9 0 q w w e r t y y u i p a a s d f g g h j k k l z x c c v n m M M N B V C C Z A S S D F G b b ",
"  > , , < 1 2 3 3 4 5 6 7 8 8 9 0 q w w e r t y y u i p a a s d f g g h j k k l z x c c v n m M M N B V C C Z A S S D F G H b b ",
"  , , < 1 2 3 3 4 5 6 7 8 8 9 0 q w w e r t y y u i p a a s d f g g h j k k l z x c c v n m M M N B V C C Z A S S D F G H H b b ",
"  , < 1 2 3 3 4 5 6 7 8 8 9 0 q w w e r t y y u i p a a s d f g g h j k k l z x c c v n m M M N B V C C Z A S S D F G H H J b b ",
"  < 1 2 3 3 4 5 6 7 8 8 9 0 q w w e r t y y u i p a a s d f g g h j k k l z x c c v n m M M N B V C C Z A S S D F G H H J K b b ",
"  1 2 3 3 4 5 6 7 8 8 9 0 q w w e r t y y u i p a a s d f g g h j k k l z x c c v n m M M N B V C C Z A S S D F G H H J K L b b ",
"  2 3 4 4 5 6 7 8 8 9 0 q w w e r t y u u i p a a s d f g g h j k l l z x c v v n m M M N B V C C Z A S D D F G H H J K L P b b ",
"  3 4 4 5 6 7 8 8 9 0 q w w e r t y u u i p a a s d f g g h j k l l z x c v v n m M M N B V C C Z A S D D F G H H J K L P P b b ",
"  4 4 5 6 7 8 8 9 0 q w w e r t y u u i p a a s d f g g h j k l l z x c v v n m M M N B V C C Z A S D D F G H H J K L P P I b b ",
"  4 5 6 7 8 8 9 0 q w w e r t y u u i p a a s d f g g h j k l l z x c v v n m M M N B V C C Z A S D D F G H H J K L P P I U b b ",
"  5 6 7 8 8 9 0 q w w e r t y u u i p a a s d f g g h j k l l z x c v v n m M M N B V C C Z A S D D F G H H J K L P P I U Y b b ",
"  6 7 8 8 9 0 q w w e r t y u u i p a a s d f g g h j k l l z x c v v n m M M N B V C C Z A S D D F G H H J K L P P I U Y T b b ",
"  7 8 8 9 0 q w w e r t y u u i p a a s d f g g h j k l l z x c v v n m M M N B V C C Z A S D D F G H H J K L P P I U Y T R b b ",
"  8 8 9 0 q w w e r t y u u i p a a s d f g g h j k l l z x c v v n m M M N B V C C Z A S D D F G H H J K L P P I U Y T R R b b ",
"  9 9 0 q w e e r t y u u i p a s s d f g h h j k l l z x c v v n m M N N B V C C Z A S D D F G H J J K L P I I U Y T R R E b b ",
"  9 0 q w e e r t y u u i p a s s d f g h h j k l l z x c v v n m M N N B V C C Z A S D D F G H J J K L P I I U Y T R R E W b b ",
"  0 q w e e r t y u u i p a s s d f g h h j k l l z x c v v n m M N N B V C C Z A S D D F G H J J K L P I I U Y T R R E W Q b b ",
"  q w e e r t y u u i p a s s d f g h h j k l l z x c v v n m M N N B V C C Z A S D D F G H J J K L P I I U Y T R R E W Q ! b b ",
"  w e e r t y u u i p a s s d f g h h j k l l z x c v v n m M N N B V C C Z A S D D F G H J J K L P I I U Y T R R E W Q ! ~ b b ",
"  e e r t y u u i p a s s d f g h h j k l l z x c v v n m M N N B V C C Z A S D D F G H J J K L P I I U Y T R R E W Q ! ~ ~ b b ",
"  e r t y u u i p a s s d f g h h j k l l z x c v v n m M N N B V C C Z A S D D F G H J J K L P I I U Y T R R E W Q ! ~ ~ ^ b b ",
"  r t y u u i p a s s d f g h h j k l l z x c v v n m M N N B V C C Z A S D D F G H J J K L P I I U Y T R R E W Q ! ~ ~ ^ / b b ",
"  t y u i i p a s s d f g h h j k l z z x c v v n m M N N B V C Z Z A S D F F G H J J K L P I U U Y T R E E W Q ! ~ ~ ^ / ( b b ",
"  y u i i p a s s d f g h h j k l z z x c v v n m M N N B V C Z Z A S D F F G H J J K L P I U U Y T R E E W Q ! ~ ~ ^ / ( ) b b ",
"  u i i p a s s d f g h h j k l z z x c v v n m M N N B V C Z Z A S D F F G H J J K L P I U U Y T R E E W Q ! ~ ~ ^ / ( ) _ b b ",
"  i i p a s s d f g h h j k l z z x c v v n m M N N B V C Z Z A S D F F G H J J K L P I U U Y T R E E W Q ! ~ ~ ^ / ( ) _ _ b b ",
"  i p a s s d f g h h j k l z z x c v v n m M N N B V C Z Z A S D F F G H J J K L P I U U Y T R E E W Q ! ~ ~ ^ / ( ) _ _ ` b b ",
"  p a s s d f g h h j k l z z x c v v n m M N N B V C Z Z A S D F F G H J J K L P I U U Y T R E E W Q ! ~ ~ ^ / ( ) _ _ ` ' b b ",
"  a s s d f g h h j k l z z x c v v n m M N N B V C Z Z A S D F F G H J J K L P I U U Y T R E E W Q ! ~ ~ ^ / ( ) _ _ ` ' ] b b ",
"  s s d f g h h j k l z z x c v v n m M N N B V C Z Z A S D F F G H J J K L P I U U Y T R E E W Q ! ~ ~ ^ / ( ) _ _ ` ' ] [ b b ",
"  d d f g h h j k l z z x c v n n m M N B B V C Z Z A S D F F G H J K K L P I U U Y T R E E W Q ! ~ ^ ^ / ( ) _ _ ` ' ] [ [ b b ",
"  d f g h h j k l z z x c v n n m M N B B V C Z Z A S D F F G H J K K L P I U U Y T R E E W Q ! ~ ^ ^ / ( ) _ _ ` ' ] [ [ { b b ",
"  f g h h j k l z z x c v n n m M N B B V C Z Z A S D F F G H J K K L P I U U Y T R E E W Q ! ~ ^ ^ / ( ) _ _ ` ' ] [ [ { } b b ",
"  g h h j k l z z x c v n n m M N B B V C Z Z A S D F F G H J K K L P I U U Y T R E E W Q ! ~ ^ ^ / ( ) _ _ ` ' ] [ [ { } | b b ",
"  h h j k l z z x c v n n m M N B B V C Z Z A S D F F G H J K K L P I U U Y T R E E W Q ! ~ ^ ^ / ( ) _ _ ` ' ] [ [ { } |  .b b ",
"  h j k l z z x c v n n m M N B B V C Z Z A S D F F G H J K K L P I U U Y T R E E W Q ! ~ ^ ^ / ( ) _ _ ` ' ] [ [ { } |  ...b b ",
"  j k l z z x c v n n m M N B B V C Z Z A S D F F G H J K K L P I U U Y T R E E W Q ! ~ ^ ^ / ( ) _ _ ` ' ] [ [ { } |  .....b b ",
"  k l z z x c v n n m M N B B V C Z Z A S D F F G H J K K L P I U U Y T R E E W Q ! ~ ^ ^ / ( ) _ _ ` ' ] [ [ { } |  .....X.b b ",
"  l z x x c v n n m M N B B V C Z A A S D F G G H J K K L P I U Y Y T R E W W Q ! ~ ^ ^ / ( ) _ ` ` ' ] [ { { } |  .....X.o.b b ",
"  z x x c v n n m M N B B V C Z A A S D F G G H J K K L P I U Y Y T R E W W Q ! ~ ^ ^ / ( ) _ ` ` ' ] [ { { } |  .....X.o.O.b b ",
"  x x c v n n m M N B B V C Z A A S D F G G H J K K L P I U Y Y T R E W W Q ! ~ ^ ^ / ( ) _ ` ` ' ] [ { { } |  .....X.o.O.+.b b ",
"  x c v n n m M N B B V C Z A A S D F G G H J K K L P I U Y Y T R E W W Q ! ~ ^ ^ / ( ) _ ` ` ' ] [ { { } |  .....X.o.O.+.@.b b ",
"  c v n n m M N B B V C Z A A S D F G G H J K K L P I U Y Y T R E W W Q ! ~ ^ ^ / ( ) _ ` ` ' ] [ { { } |  .....X.o.O.+.@.#.b b ",
"  v n n m M N B B V C Z A A S D F G G H J K K L P I U Y Y T R E W W Q ! ~ ^ ^ / ( ) _ ` ` ' ] [ { { } |  .....X.o.O.+.@.#.#.b b ",
"  b b b b b b b b b b b b b b b b b b b b b b b b b b b b b b b b b b b b b b b b b b b b b b b b b b b b b b b b b b b b b b b ",
"  b b b b b b b b b b b b b b b b b b b b b b b b b b b b b b b b b b b b b b b b b b b b b b b b b b b b b b b b b b b b b b b "};
