/* XPM */
static char * image_name[] = {
"65 65 130 2",
"  	c #9C9C9696CCCC",
". 	c #B4B4AEAEE4E4",
"X 	c #94949292CCCC",
"o 	c #ACACA6A6DCDC",
"O 	c #A4A4A6A6DCDC",
"+ 	c #A4A49E9ED4D4",
"@ 	c #A4A4A2A2D4D4",
"# 	c #9C9C9A9AD4D4",
"$ 	c #A4A4A6A6D4D4",
"% 	c #A4A4A2A2CCCC",
"& 	c #A4A4A2A2DCDC",
"* 	c #ACACAAAAE4E4",
"= 	c #94949292C4C4",
"- 	c #ACACAAAADCDC",
"; 	c #141416164444",
": 	c #94948E8EC4C4",
"> 	c #9C9C9A9ACCCC",
", 	c #9C9C9E9ECCCC",
"< 	c #A4A49E9ECCCC",
"1 	c #ACACAAAAD4D4",
"2 	c #8C8C8E8EB4B4",
"3 	c #141416163C3C",
"4 	c #0C0C06063C3C",
"5 	c #B4B4B2B2E4E4",
"6 	c #8C8C8686BCBC",
"7 	c #8C8C8A8ABCBC",
"8 	c #84848282B4B4",
"9 	c #74747676A4A4",
"0 	c #7C7C7676ACAC",
"q 	c #74747A7AA4A4",
"w 	c #84847E7EB4B4",
"e 	c #7C7C7E7EACAC",
"r 	c #7C7C7A7AACAC",
"t 	c #84847E7EACAC",
"y 	c #84848282ACAC",
"u 	c #84848686BCBC",
"i 	c #6C6C66669494",
"p 	c #5C5C5E5E8C8C",
"a 	c #1C1C1A1A4444",
"s 	c #141412123C3C",
"d 	c #6C6C66669C9C",
"f 	c #6C6C6A6A9C9C",
"g 	c #6C6C6E6EA4A4",
"h 	c #74746E6EA4A4",
"j 	c #6C6C72729C9C",
"k 	c #6C6C6E6E9C9C",
"l 	c #6C6C6A6A9494",
"z 	c #74746E6E9C9C",
"x 	c #747472729C9C",
"c 	c #74747272A4A4",
"v 	c #7C7C7A7AA4A4",
"b 	c #7C7C7676A4A4",
"n 	c #84848686B4B4",
"m 	c #646466669494",
"M 	c #5C5C5E5E8484",
"N 	c #0C0C0A0A3434",
"B 	c #141412123434",
"V 	c #14140E0E4444",
"C 	c #8C8C8A8AB4B4",
"Z 	c #646462629494",
"A 	c #4C4C4A4A7C7C",
"S 	c #5C5C5A5A8C8C",
"D 	c #54544E4E7C7C",
"F 	c #4C4C4E4E7C7C",
"G 	c #54544E4E8484",
"H 	c #545452527C7C",
"J 	c #545452528484",
"K 	c #5C5C56568484",
"L 	c #5C5C5A5A8484",
"P 	c #64645E5E8484",
"I 	c #64645E5E8C8C",
"U 	c #646462628C8C",
"Y 	c #646466668C8C",
"T 	c #5C5C5A5A7C7C",
"R 	c #545456568484",
"E 	c #3C3C3A3A5C5C",
"W 	c #3C3C3E3E6C6C",
"Q 	c #4C4C46467474",
"! 	c #444446467474",
"~ 	c #4C4C4A4A7474",
"^ 	c #444446466C6C",
"/ 	c #4C4C46466C6C",
"( 	c #4C4C4E4E7474",
") 	c #64645E5E9494",
"_ 	c #54544E4E7474",
"` 	c #0C0C0E0E3434",
"' 	c #141416163434",
"] 	c #9C9C9A9AC4C4",
"[ 	c #44443E3E6C6C",
"{ 	c #444442426C6C",
"} 	c #444442427474",
"| 	c #4C4C4A4A6C6C",
" .	c #84848686ACAC",
"..	c #444442426464",
"X.	c #646462628484",
"o.	c #9C9C9E9EC4C4",
"O.	c #74746E6E9494",
"+.	c #44443E3E6464",
"@.	c #545452527474",
"#.	c #5C5C56567C7C",
"$.	c #545456567C7C",
"%.	c #141412122C2C",
"&.	c #4C4C4E4E6C6C",
"*.	c #0C0C12122C2C",
"=.	c #6C6C6E6E9494",
"-.	c #141412124444",
";.	c #7C7C7E7EA4A4",
":.	c #14140E0E3C3C",
">.	c #6C6C6A6AA4A4",
",.	c #74746A6A9C9C",
"<.	c #74747272ACAC",
"1.	c #5C5C56568C8C",
"2.	c #6C6C62629494",
"3.	c #74746A6AA4A4",
"4.	c #8C8C8686B4B4",
"5.	c #6C6C62629C9C",
"6.	c #747476769C9C",
"7.	c #84848282BCBC",
"8.	c #0C0C0E0E3C3C",
"9.	c #B4B4AEAEDCDC",
"0.	c #8C8C8E8EBCBC",
"q.	c #0C0C0A0A2C2C",
"w.	c #84847E7EA4A4",
"e.	c #0C0C0E0E2C2C",
"r.	c #B4B4B2B2DCDC",
"t.	c #1C1C1A1A3C3C",
"y.	c #242422224444",
"u.	c #1C1C1E1E3C3C",
"i.	c #ACACAEAECCCC",
"p.	c #040402021414",
"  . X o O + @ # @ + + + + + + + @ @ @ @ @ @ + + $ $ o $ @ $ @ @ @ + % + @ @ @ @ $ o $ @ $ @ $ @ @ @ & @ + & + & & o * @ $ = - $ % ",
"; : - -   > + > @ @ @ @ @ @ @ @ , @ + , + , + , , + > , + , < + @ @ @ @ @ $ @ $ > > , > < > < , @ + @ + & + & + # # @ @ - < 1 2 3 ",
"4 , 5 > 6 7 8 9 0 0 q 0 9 0 q 0 w e e w e w e w r r t e w e w e 8 y 8 8 8 8 8 8 7 7 7 7 7 7 7 7 6 u u 6 u u 6 u 6 8 6 w 9 i p a s ",
"a @ > u 7 e d f g h g h j h h k f f f l f k k z k f f z k h x c r r r r r r t e 0 v 0 b r r r 0 v r v r 0 r 0 r 8 0 n r x m M N B ",
"V > > C w Z A S D F G H G J J J K L L L p P S p P I p U Z Y m m L S L p p I p I f f k f k k k z k f z k h h g c f Z x i p L T N B ",
"; 1 @ e i R E W Q ! Q ! ~ ! ~ ~ ^ ^ ! / ! ~ ~ ~ ~ ~ ( F ( H D H R K R K S L S S p p S p I I I I p p p I p p I ) c k c Y M H _ ` ' ",
"; < ] x U M A ! [ W { [ { { } { ! ~ | ~ ~ | ~ ~ ~ ( ~ _ ( _ ( H H J J J R K R K H K H J R R K R P p P U ) U Z U S p U H L ( ^ ' B ",
"B ] $  .m _ W ..W ..W { { { ^ ^ ^ / ! ^ ^ | ! | ! / ~ ~ ~ ( ~ ( ~ F F D D J R J R J K L K S S S L L L L M S p p I Y U T X.( ..' ' ",
"s % o.v O.( ~ +.W ..{ { ^ ^ ^ Q ^ / | ~ ~ ^ | ^ @.( ( @.( @.( D H H H J R #.K K R K L S L L M p M M I p U I p I U p m U U $.| %.B ",
"B < % v z ( | W ..W ..{ { { / ^ ~ ^ ! | ^ ~ ^ ^ @.F @.F @.F @.( F D F H H H R H L L R L R L p U p P p U U p U p U I l U M @.&.*.' ",
"s , % v =.F ~ { { { { { ^ ! ! / ^ ~ | ! / ~ / ~ ( @.F _ ( H _ H H H H R R R R K R M L L R L I U M P p X.p U Z U p U l Y X.( | ' B ",
"s % o.v x _ ~ W { { { ! / ! / ! ~ ~ ^ | ! ^ ~ ( ( D ( @.H ( H F H H R #.R L L L S L S L S L p U U p U p I ) U Z ) Y k U M ( ~ ' ' ",
"s , % v j F ~ { ! { ! { ! Q ! ~ ~ ~ ! Q | ~ ~ ~ D F H F D H H H H H H H H $.R $.L L M p P p M M I p U I p Z Z m Z m z Y P ( | ' B ",
"s % % r x D F { ^ ! ^ Q ! ~ ! Q ! ~ ~ ! ~ ~ F ( H ( H ( H H F H H H $.R $.K L L R L I U p P p L U U U p Z Z Z i m i f U p ( ~ B ' ",
"-., < r x F D } Q } Q ! Q ! Q ! ~ ~ ~ ~ F ~ F ~ F D H D F $.$.H R $.K L L L L M L M p X.p P M p U p ) U Z Z m d f m f U I ( ~ B B ",
"-.% , ;.h H A } ! Q ! Q ! Q ! ~ ~ ! ~ ~ F F ( A H F F H H H J $.R H $.$.R R L L p P p I M p p U U Z I p Z Z m f f d f U p H ~ *.B ",
"s % @ v m L ~ ^ Q ! ! ^ Q ! ~ ! / ! ( ~ _ F _ D ( H H H H H H J L K S L L L S L U I p p I I U Z p I m Z m d d d f f k Z U F ~ :.' ",
"s % % v Y L ~ ^ ~ ^ Q ^ Q ^ ~ ~ ~ ~ ( F D ( D F H H $.$.R R K $.R K R L S S p S Z p I p I p Z I Z m m f d f f >.f f h m U _ ~ *.B ",
"s % $ v m M ~ { ! ~ ^ ~ ! ~ ~ ~ ( F D H H F H @.H H R K #.R T R S L S S L S S p I p U Z U ) U p Z Z i m d m f f f f k i I F ~ s B ",
"s % % v i M ~ ! ~ ^ Q ! | ! ~ ~ _ F _ F _ H ( F H H H $.R #.R $.S K S L S S I p I p ) U Z p Z I I Z Z f m d d f f f c m U H ~ *.' ",
"s % $ v Y I ~ Q | ! ~ | ~ ~ ( F ( D F @.F D F _ H H R $.K $.K K L S S S p I S p I p U Z Z Z U p d l f f f k >.g z f c i Z F ~ s B ",
"s % % ;.i M ( ~ ! Q ~ ! ~ ~ ~ _ F ( ( H H ( H H $.R K L L L L L S L S L I p p I p ) I Z U Z U Z m f f k f f >.f h g c m Y H ~ B ' ",
"s % $ v l p ( ~ ^ ~ ! ~ ~ ( F D ( D F H H H H H R L L R M L M L S p S p S I I I Z U p Z p Z U Z m i f f f f f >.z k c f Y H ~ *.s ",
"s % % ;.Y I ( ~ ! | ~ ~ ~ F ( D ( F @.H H R $.R #.$.$.L L L R L S L I p I p Z p U Z U I ) U Z Z l f k z g k ,.g c h 9 l Z H ~ s ' ",
"s % % y k U D ~ ~ ( ~ ( ~ ( D H H D F H $.$.K $.K L R L R M M I p S p I I p I p p I Z m m Z i l f f f f h h h h c f c f U H H B B ",
"3 , % t =.U F ( ~ ~ D ( A _ F H ( H H $.J $.R $.L R K T L L p P S p I p Z p U ) I Z Z m i m i f l f f z k h j h c k c k Z $.( s ' ",
"s % % y =.U H ~ ~ F ( D ( F _ F H H H H $.K #.R L L L R M L P p I I p I I ) p I p Z i i m f l f f f k k h h h <.c z c z U $.H s B ",
"s , % y z Y D F ~ ( F H D @.F H H H H H #.$.R L $.L L L M M p M Z p I ) p U U Z Z m m d l d l f k f z k h j c c c g 9 z m R H *.' ",
"s % % e x Y H ( ~ ( D H F H D ( H H $.R R K T L L L L M I p P U U Z p U p ) Z U Z m i l m i f l f z k h c h <.c 0 z 0 k i $.D s B ",
"3 o.$ y z Y H _ A ( H H H F H $.H R H #.$.L R L R L L M I M I p U Z p I Z U Z i Z m l f f m l f k z k h c c c <.9 g v c i $.H *.' ",
"s % % y j Y H H F H H ( H @.H R $.H R R K L L L L L p M U U p U I p ) U p m i m i l f f l f f f z k h x c c c <.b c 0 c l R H :.B ",
"s % % y x m H D H ( H H F F H K J $.K $.L R L L L L p I p U U p I ) p ) ) m d f d f f f f f ,.k z k x g c c 0 9 9 z r 9 m #.H *.' ",
"s @ ,  .c U R F D H G $.R K R L R K R K 1.L S p Z I p p S I U Z Z ) ) Z 2.d f f ,.k 3.z h h h z c c x c c c c 0 r 0 e x =.L ( s ' ",
"-.% > 4.9 I J D F F H J K R K K 1.R 1.R S S S p ) p ) I I Z p Z ) ) Z 2.d d ,.3.,.>.z 3.h h h h 9 x c x c 9 0 9 r b r x k T D ' B ",
"s @ , 4.c U R D D J J J R K R S R 1.K R S S S I p I Z Z Z Z ) p 2.Z 5.d d f 3.f 3.3.,.g h h h h x 9 c c c b 9 0 r q e x =.L ( 3 B ",
"-.@ , 4.9 ) R J F J H K R 1.L R K S R S S S p ) p ) p U Z Z Z Z 5.5.d >.,.3.,.>.z >.h ,.h h h h b x b 9 0 9 0 r r b t x =.L @.' ' ",
"s $ < n b Z K J H J R R K R K 1.R S 1.S S S I p Z Z p ) p Z m i d d ,.,.>.3.f 3.,.3.h h h h h c c 9 b 9 b r 0 q r 0 e x k L ( 3 B ",
":.o , 7 b Z L J J J R K K S R L S S L S S p p ) Z Z ) p Z Z m d f d d ,.>.,.3.f 3.h ,.h h h h c 9 b 9 b r r r r r v t x =.L @.3 ' ",
"-.% < 4.q m S J R K K R S L S 1.S S S S p I ) p Z Z I Z Z Z i m f f 3.f f f f h k h h z h c b h b 9 v r r r r 0 r r e x z L @.3 B ",
"-.$ , 7 0 i L J K R R L 1.R L R L S S S S ) p Z ) p Z Z i m d m ,.f f f d f ,.k 3.z g h z h h c 9 v v r r r r r r r t 6.k L @.3 ' ",
"s @ < 4.r m I S L K 1.R K S S S p p ) U ) p Z I p Z Z m m d m f f f f f f k h c z c c c c 9 v r b 9 b r b r r r e c t v x M H B B ",
"V @ , n r l p S K S R K R L L S p ) U Z p ) p Z ) Z m d m i f f f f k z f ,.k c j c c c c 9 r r 9 v 0 q 0 q r 0 e b e v z M $.*.' ",
"s @ < 7 v m I S R K L R S S S S I p Z ) U p Z Z Z m d f f f f k f f f k k g c c h c 9 b c b 0 r v v 9 r r r 0 r e b e v x M #.s B ",
":.@ , 4.v d p S K R K S S S p I p ) Z Z ) Z Z Z m i f f f f f z f k z h f z c c c c c 9 0 9 v r q v b r b r r r w 9 8 v x p $.B ' ",
"-.@ , C r m I S R S K S L I p I ) U Z p Z Z m i m m f f f f f k f k c k x j c 9 x 9 b q 9 0 q r v v r v r r r r e b y v x M $.B B ",
":.@ , 4.0 l p S K L S S p I p p Z p Z Z U Z Z f Z i f f i f f f k z j c j c c 9 9 9 q v r q q r v v r 9 r r r r e 0 e v x P $.s ' ",
"s @ < n r i I S L S S p I S S I ) Z Z ) p Z d f m d f f f f f f j c j c j c 9 q c 9 r r q 0 v q r v 0 v r r r e w v 8 ;.x p T B B ",
"-.% , C r m p L S M p I p I p S p I Z Z Z Z i f m d f f l f f z k c j x c x 9 9 9 b q r q r q r v v v r r e r r t 9 8 v x P R B ' ",
"s , % 4.v k U p p P U U U U U U Z Z U Z Z m i f f l k k k z k z c z x c x 9 9 b v 9 v v v v r v r q r v r r w y 8 n 8 ;.x M M B B ",
"s < %  .v k P U M U p U U U I p U Z U Z m i f l f k f z k z g z j x x 6.c 6.9 6.b q v 0 q v v v v v b r r e e 8 8 8 y t 9 M p *.' ",
"s , % C v k p U I p U U p U p U p ) Z m d f f f k ,.k z g z c z c c c c 9 b c b 9 r b v r 0 r r r r r r e w w w 8 n 8 e x P M B B ",
"s % % n v k I p U U p U p I p I Z Z m l f f f f k k h k h x g c 9 c c 9 b 9 b 0 v b r 9 v v r v r v r e w e 8 8 8 4.n t b p M :.' ",
"-., @ n b k I I p U ) p U I p U m d f f f f f f k h k h h c c x c b 9 b 0 r r q 0 q r r r r r r r r e w w w 8 8 7.8 8 8 6.I M B B ",
"-.< % n r z p I Z p I Z p Z Z Z f f f f k f f f z g z g c c c c 9 0 0 9 v r r r r 0 r 0 r r r r r r e w 8 7.8 7.8 6 n 8 b p I *.B ",
"-., + 4.0 k p ) Z p ) p Z Z Z i f >.f >.f >.z g h h h c h c c <.0 r q r r r r r r r r r r r r r r e w 8 8 8 6 u w 7.n 8 b p I 8.' ",
"-., @ n r k ) p Z p ) U Z Z m f f f d f f g h h g h g h c c <.c q 0 r r r r r e r 0 r r r r e r r r e 8 8 u 7.6 8 8 6 8 9 U M B B ",
"8.9.  = 8 x Z S I U Z m i f f f f f f h f h z j 0 c 9 9 0 9 0 r 0 r 0 r r r r r r v r r e t w y w 8 8 8 7.4.7.8 : 7 w 0.c U p N ' ",
"; 1 ] C r k i U p p I U Z m i l f f f f g z g h c 0 9 0 0 r r r 9 9 b 9 r b r b t e e e r e e e 8 8 8 n 8 6 u 6 w e r 4.x m U 3 B ",
"s ] @ 0.y x U R U U U U U Y m m i d l f i f f f f k k h k c c c x c c x c 6.c 9 r v r b v v 0 v e t e t w e w e 0.7 8 y k X.$.q.B ",
"a o.% w.=.U U U L M L M p P M I S p p p p I p U p I I Z Z i m i m l l m l l l l x k z =.z k j z x x z c x c c c b r 9 6.l U $.` ' ",
"` o.o. .z M @.~ ( ( _ ( ( _ F ( D H G D G F J H J R R K R L S L L $.L T L R L L L L M L M P p X.U U Y Z Y Z m m I Z Y U $.$...e.B ",
"3 r.2 y =.M ^ W _ ( ( _ ( ( _ ( ~ ( A ( ( ( F ~ D ( H F H H H H ( H @.F H H @.H H @.H H H $.$.T R L $.L R L K K U M I T @.| E t.' ",
"q.o.y.B q.B B u.B s B 8.' B s ' 8.` :.` :.` :.` N ` N ` N ` 8.` :.` ` B ` B 8.B *.8.B ` s B s s *.s *.:.s 8.8.s 8.` s 3 B ' e.*.B ",
"%.i.B ' *.t.e.*.' B ' ' B ' ' ' ' ' ' ' B B ' B 3 B 3 B B B B B B B *.B B B ' B 3 ' B ' B ' B ' s ' s ' B ' B B t.` B B *.e.%.u.' ",
"p.p.p.p.p.p.p.p.p.p.p.p.p.p.p.p.p.p.p.p.p.p.p.p.p.p.p.p.p.p.p.p.p.p.p.p.p.p.p.p.p.p.p.p.p.p.p.p.p.p.p.p.p.p.p.p.p.p.p.p.p.p.p.p.p."};
