/* XPM */
static char * image_name[] = {
"65 65 138 2",
"  	c #6C6CBABA8484",
". 	c #7474C2C29494",
"X 	c #5454A2A26C6C",
"o 	c #7474BEBE8C8C",
"O 	c #6C6CBEBE8C8C",
"+ 	c #6C6CBABA8C8C",
"@ 	c #6464B2B27C7C",
"# 	c #6C6CBEBE8484",
"$ 	c #6C6CB6B68484",
"% 	c #7474BEBE8484",
"& 	c #6C6CBABA7C7C",
"* 	c #7474C6C68C8C",
"= 	c #7474C2C28C8C",
"- 	c #7474BABA7C7C",
"; 	c #040446461414",
": 	c #5C5CAAAA7474",
"> 	c #6464AEAE7C7C",
", 	c #6464B6B67C7C",
"< 	c #6464AEAE7474",
"1 	c #6C6CB6B67C7C",
"2 	c #6464BABA7C7C",
"3 	c #6464B6B68484",
"4 	c #6C6CBEBE7C7C",
"5 	c #7C7CC2C28C8C",
"6 	c #040442420404",
"7 	c #04043A3A0404",
"8 	c #7C7CCECE9C9C",
"9 	c #5454A2A27474",
"0 	c #5454A6A66C6C",
"q 	c #54549E9E6464",
"w 	c #3C3C8E8E5C5C",
"e 	c #444492925C5C",
"r 	c #444492925454",
"t 	c #4C4C9A9A6464",
"y 	c #44449A9A5C5C",
"u 	c #4C4C96965C5C",
"i 	c #44449A9A6464",
"p 	c #4C4C9A9A5C5C",
"a 	c #444496965C5C",
"s 	c #4C4C9E9E6464",
"d 	c #5454A2A26464",
"f 	c #4C4CA2A26464",
"g 	c #4C4CA2A26C6C",
"h 	c #2C2C7E7E4444",
"j 	c #2C2C76763C3C",
"k 	c #040446460C0C",
"l 	c #040446460404",
"z 	c #04044A4A1414",
"x 	c #3C3C86865454",
"c 	c #343486864C4C",
"v 	c #3C3C8A8A4C4C",
"b 	c #3C3C8A8A5454",
"n 	c #3C3C8E8E4C4C",
"m 	c #3C3C8E8E5454",
"M 	c #343482824444",
"N 	c #343486864444",
"B 	c #34348A8A4C4C",
"V 	c #3C3C86864C4C",
"C 	c #44448E8E5454",
"Z 	c #2C2C7A7A4444",
"A 	c #04043E3E0404",
"S 	c #5C5CAEAE7C7C",
"D 	c #1C1C6E6E2C2C",
"F 	c #242476763C3C",
"G 	c #1C1C6A6A3434",
"H 	c #1C1C6A6A2C2C",
"J 	c #242472723434",
"K 	c #242476763434",
"L 	c #24247A7A3C3C",
"P 	c #2C2C7A7A3C3C",
"I 	c #2C2C7E7E3C3C",
"U 	c #34347E7E4444",
"Y 	c #24246E6E3434",
"T 	c #040442420C0C",
"R 	c #343482824C4C",
"E 	c #1C1C6E6E3434",
"W 	c #0C0C5A5A1C1C",
"Q 	c #141462622424",
"! 	c #0C0C62621C1C",
"~ 	c #141466662424",
"^ 	c #141466662C2C",
"/ 	c #0C0C5E5E2424",
"( 	c #1C1C6A6A2424",
") 	c #14146A6A2424",
"_ 	c #6464B6B67474",
"` 	c #3C3C92925454",
"' 	c #040456561414",
"] 	c #0C0C5E5E1C1C",
"[ 	c #14145E5E1414",
"{ 	c #242472722C2C",
"} 	c #1C1C72722C2C",
"| 	c #1C1C62622C2C",
" .	c #141462621C1C",
"..	c #1C1C66662C2C",
"X.	c #444496965454",
"o.	c #2C2C7A7A3434",
"O.	c #1C1C62622424",
"+.	c #24247A7A3434",
"@.	c #04044A4A0C0C",
"#.	c #34347E7E3C3C",
"$.	c #14145E5E2424",
"%.	c #242472723C3C",
"&.	c #2C2C82824444",
"*.	c #24246E6E2C2C",
"=.	c #2C2C76763434",
"-.	c #343486865454",
";.	c #24246A6A2C2C",
":.	c #1C1C66662424",
">.	c #44448E8E5C5C",
",.	c #34348A8A5454",
"<.	c #4C4C9E9E5C5C",
"1.	c #2C2C72723434",
"2.	c #34347E7E4C4C",
"3.	c #3C3C82824C4C",
"4.	c #3C3C92925C5C",
"5.	c #3C3C86864444",
"6.	c #2C2C7E7E4C4C",
"7.	c #5454A6A66464",
"8.	c #7474C2C28484",
"9.	c #6464B2B27474",
"0.	c #44449E9E6464",
"q.	c #44448E8E4C4C",
"w.	c #44449E9E5C5C",
"e.	c #34347A7A4444",
"r.	c #7474BEBE7C7C",
"t.	c #4C4C9E9E6C6C",
"y.	c #7C7CCACA8C8C",
"u.	c #5C5CAAAA6C6C",
"i.	c #04044E4E0C0C",
"p.	c #6C6CB6B67474",
"a.	c #54549E9E5C5C",
"s.	c #24246A6A3434",
"d.	c #7C7CCACA8484",
"f.	c #5C5CA2A26464",
"g.	c #14145A5A1C1C",
"h.	c #04044A4A0404",
"j.	c #040436360404",
"k.	c #7C7CC2C27C7C",
"  . X o O + o @ #               # # #           # o # o # # # #   $   $         O o O % O O % O # # # #   #     & * = @ % @ = % - ",
"; : . * > , O < O # # # # # # # & $   &   1   ,   2   &           # + # + # O # $ , $ , 3 1 3 , #     4   # &   @   % $ * 1 5 < 6 ",
"7 O 8 $ 9 0 q w e e e r e r e r t y u i p i p t u p a t t p t t t p t t s t t q X X X X X 0 X X d f d g d f X d 0 s d p a h j k l ",
"z   > X d t x c v v b v n v m v c M c N c c v c B V B v b n m m a a a u a p t y r e r a r e a r a e a a a a a a f r s t C Z j A 6 ",
"7 , S d a h D F G H D D G D D D J J J J j K j L j L P P h I M U K F j L P P P P c c c V B v V B v B v v b v m v v h v V h Y F T 6 ",
"k *   p R E W W Q ! Q Q Q ~ ^ ~ / ! Q ! Q ~ Q ~ Q ~ ^ ( ) H H H J J J J F K F F j K P K P P P P L j L Z L Z I Z m V b M Z Q H k l ",
"k # _ ` h P ^ W ' W ] ] ] ] ] [ Q Q Q ~ ~ Q ~ ~ ~ ~ ~ ~ H ) D D ( D D D E { J { D D E { E } J J P L h P I h h I J L j Y F Q | k 6 ",
"A &   d M H W ' ] W ] ] ] ] ] Q ! !  .!  .! ~  .~ ~ ~ ( ~ ~ ( ) ~ ~ ) ( H D D D J } { J K K K K F F F L L L P P F U L Y h ..W A l ",
"l 2 4 X.V H ! W W ' ] ] ]  . .!  .Q ! Q ~  .! ] ( ( ( ) H ( ) H D D D D } J { } J J K K K K o.L P L I P I P P P h P M j I E O.6 6 ",
"k & & X.B D  .W W ] ] ] ! ]  .! Q ! ~  .Q ! Q  .H ) ( H ) ( H ) ( H H D D D } D K { K K K K o.I +.P L P I L h P h P c P P G Q 6 6 ",
"k 2 4 u N D Q ' ] W ] ] [ ]  .! Q  .Q !  .Q  .! H ( ) H ( H ) H D D D { } J J J K K K J { K P I P P I I P I P I I P V P P H O.l 6 ",
"@.& & a v H ~ W ] ] ] ] ] Q !  .~ ~ ! Q ! ~ ~ ~ H ) H H ) D H D } D J } J J K K K K K K K K L I P L L I L I h I h I v P j H Q l 6 ",
"k & # a v E ~ W ] ] [ ! Q ! Q Q ~ Q Q  .Q Q ~ ~ H ) H ( H D H H D H E E Y } J J J F j P P F P j L I P I I I h #.M I v I P ~ Q l 6 ",
"k &   a b E Q / ! $./ Q /  .Q ! Q Q ! Q ~ ~ ~ ^ ) H H ) H D H D E Y E Y } J %.J J F L I P P P K I I L P I I &.M M M v P P ..Q l 6 ",
"k 2   u v E ^ $./ Q / Q Q ! Q Q Q ~ ^ ~ ^ ~ ..~ H H ) G H D D D J } %.J F F F F F j P Z L P F P I I I P I h M M B #.v j P H Q 6 6 ",
"k   # a n Y ^ / $.! Q Q ! $.! Q ! Q Q ^ ~ ..~ ^ ..) H D H D G D E E Y } J %.K %.P L Z L P F Z P h Z I L I &.M N v M c P P H Q 6 6 ",
"k & # a M F ] Q ! Q / ! $.Q Q Q ! Q Q ~ ..) H H H H G D D E D *.%.J F %.F F j F I P P P F Z I h L I h R &.U R R c &.b P P H Q 6 6 ",
"@.  4 p h P Q / Q $.Q ! Q !  .~ Q ^ ~ H ) ..H ^ D D } E J J J } J J J F =.F +.F P Z L P P I Z I h &.R R R c -.x c R b #.h H  .l 6 ",
"k   4 a M L [ Q ! Q ! Q  .~ ~ ~ ~ ..H H H H ) H D E Y { J } J J F K F K F j j P P P P h P h P I Z h &.R c &.R -.V R b h P ;.Q 6 6 ",
"@.  4 a M Z ! Q Q !  .Q ! Q ~ ~ ^ H ) H ) H H H H D E } E J } Y K %.K F K L F P L P P h I h I Z I h R &.R R R R b M b U h D Q l 6 ",
"k & # p M P Q Q / Q Q ! ~ ~ ~ ( ~ ..H ^ H H ) ..D Y *.J J J J J F F j F P P P L P P h I h U P I R M c B -.c x b b c C U I ;.~ 6 l ",
"k   4 y M L Q ^ Q Q Q ~ ~ ~ ~ ) :.^ ) H H ) H H J } K J K K F K K F =.F P F P P P P P h I h I h &.c V c v c x -.b c m U U D Q l 6 ",
"k 4   p M Z ~ Q Q ! ~ Q ~ ~ ( H ^ ( H H D G D H J J %.K F K K F j F P L P P P P h h P I Z I h U &.R c c c c R x m V >.M h *.Q l 6 ",
"k & # y M I Q ~ Q Q Q ~ ~ ^ ( ) ..) H D E D Y E } } J J J K J J F o.F P P L Z P h I h P P h I U c c v ,.b -.x b b ,.C M U D Q l 6 ",
"k 2 # p c U ^ ~ ~ ^ ~ ~ :.~ ( D H H H D E { } J J %.J K J F P P F P L P P P I P F P h M M U M N c c c V ,.b b b e R m M h Y H l 6 ",
"k & # p N M ^ Q ~ ~ ) ( ~ ) ) D H D D E *.E J J J K J J K =.L o.F P P L I Z P Z P I U &.M &.R N c V c B b m b b ` R C R I Y ( l 6 ",
"k & # p c M ~ ..~ ^ :.) H :.H ) D G D D E J } J J K J K F K P P P P P P Z L I P h h M M M N c c c B v ,.b b b b e R e N U J H 6 l ",
"k & # <.V &...~ Q ~ H D H ) ( H H D D Y D J J J K J F K =.F P L P I Z P P h P h I h N R N R N v c V B v ,.b w b e c r V h J ( l 6 ",
"k 2 # p B M ) H ~ ^ H D H D ) D D E Y } J J } F J K K F P o.P P h P P I P P h I U M M N R M N c B v b b m m b >.e c e V M J H 6 6 ",
"k & # p v M ..H ^ :.D ) D ( D D E D Y } J J K J K K F =.L P L P I h L Z I h M M h &.M c N R N V B b B b m m w w e V e v M J ( l 6 ",
"k 2 # p B M H ) ^ H D ( H ) D { D Y } J J J F K J F P P P P P P P P I P Z h M M M c c c N c c V B v b m m w C w e b a v R J H 6 6 ",
"k 1 4 s v M H H H H H ) H H D } Y } Y } %.K J F K K j L P I P P h Z Z Z I M R c M c V v V V c v v ,.v b m w m e e B u v M 1.H 6 6 ",
"k 4 , q m &.E H ) G D } J J J J J %.J %.J F j F h P P L j L h h j Z j Z 2.R R b V x V b x b b b m C m m m m ` e a r i v V J :.6 6 ",
"k 4 , d m M E H H H E E %.} J %.} %.E J F F F P P h P Z I Z h Z Z Z Z 2.2.2.x 3.x x x x b x C x C m n m m ` X.4.a ` u v v J :.6 6 ",
"k 4 1 f r M E H H E D Y J %.J F %.F J F F F j L Z P h h h h P Z Z 2.2.2.R c x -.x -.x b b b b b C m C m C 4.4.X.a ` t B 5.=.:.6 6 ",
"k # 2 d ` R } H H E Y } %.} J J J %.J %.K F P Z P P Z I h h U h Z 6.R R x x -.V x b x b x b b b C m r ` r ` a 4.y ` p v v J :.6 6 ",
"k 4 & d r M %.E E E J J %.J F J F F K F F j L P h Z P Z I h M M 2.U R -.V c x V -.V b b b b >.b C r r e e 4.a a a ` t v v 1.:.6 l ",
"k # 2 d r c J D J D %.} K %.K %.K F %.F F Z P Z h h h P Z h M R R R R 3.-.V x c x b x b b b b m C r ` a a a X.a i ` p n V K :.l 6 ",
"k 4 & X r c K E Y J J %.J K %.K F %.F j P L Z I h P h h h U M R c R c c c -.V ,.b v b b b b >.m C e e a a a y 4.y r s v v =.:.6 6 ",
"k # & 7.r N %.J } J } %.K %.K J F =.F F F P P Z P h h h M M &.M c -.R R 3.c -.V x ,.b b m b m m r r X.a a y a y y 4.p v v =.:.l 6 ",
"l # , d a N h J F %.%.J J K F F P L h I Z P h h L Z U &.M &.R c M R V c c V b b n b m m m C e a e r e a e a a a y m s r v P *.6 6 ",
"k 8.9.0 X.R I J %.K K J J F K F P Z h Z I Z P h P h M M R R c V R c c V c c v m b m m C m r e u e r X.e X.a 4.a 0.m s r q.P ;.6 6 ",
"k # , 7.a M h J K J %.} F F j F P P h P Z P h h U &.c c c N V B c c V ,.c b b m m m C m w r a a r e e X.a a a a y ` <.r v P *.6 6 ",
"l 8._ d X.c I %.} J J F F j L P P Z h h h h h U &.M R c V c c v c V B b v B m m m m e ` e ` a a e X.r a a 4.y a s m s r q.P *.6 6 ",
"k 8.@ 7.e M h J %.F K F =.L P P Z I h P h P M R h R N c c c V B x B b v ,.m m r m C ` e r e r a r e a a a a a a w.m s X.q.P *.6 l ",
"l 8.@ 7.a M h K J K F j L j P L P h h h Z h &.R M M c V M c c V ,.v m m n m m r m ` X.e a r a a u r a X.a a y a s ` s r q.P *.6 6 ",
"k # _ 0 X.M h J F F j L P P F P Z h I U P h M c &.R c c c c c c n m m m m m r e m e a a X.e a X.e X.a a a a y a 0.` q X.m e.*.6 l ",
"k 8.9.d u R I J j K j P P L j F P h Z h h U M c R M V c V c V v v m m m C m r a ` r X.a a e X.a X.u e a a y a a s C s r q.I *.l 6 ",
"l , r.d r v j I j P P I e.I e.I U U e.h U U R R V c V V V v v b v v m n m C m r r e r r r a r a a X.X.a a u p t s s d u v =.=.6 6 ",
"l & & q r q.j #.P P e.P #.P P P e.P Z U U R M 3.V V V V b V b v b m v C q.` C C r r r e r u a r p X.a X.u y a t q t d a q.P K l 6 ",
"k , r.q r v F I P P I P Z P P P Z Z U U R R V c V c x v x v b b C m C m m r r 4.e a a X.a e X.a X.a y a a t t p s s d u C o.=.l 6 ",
"l 1   f r n j Z P P Z P P P j P Z h U R c V R c V x c x v b b m m m m r e ` e X.e X.e e X.a a a y a a y y t i s q t X p n P K 6 l ",
"k 2 # d e m j h h P Z P Z Z P Z M R R c V c R c x b b b b m b C r ` e ` e a a a r 4.a a a a a a a y y i t i s s t.s X p ` P +.l 6 ",
"k 1 # s r m P h P h P h P h h h c c x c -.c x c b B b b m b m m ` 4.X.4.a a y 4.a a a a a a a y ` a y i t t.i t.s s 0 p e P L 6 l ",
"k 2 # d r b F h h P Z L h h h R c -.c -.x -.x ,.b b b b w m >.w a a a a y a y y a 4.y a a a y a y y i 0.s s t.s t.s 0 i r h +.l 6 ",
"k ,   X ` m F I h L P h h h M c c -.R -.c ,.b b b b b w b m w m a ` y 4.a y a y y X.a y a y a y 4.y y 0.g 0.t.t.t.s 0 <.e I F l l ",
"k y.S u.s r h j Z Z h h M c c V c V x V x b b b w w e m e e e a a 4.a a y 4.y a a y a y y i s s y 0.t 0.t s t.s 0 0 a 0 r L I 6 6 ",
"i.* 4 u.a m M M h I h M R N c c R R R c c c -.V m m m C w e e r e X.a X.a a a a t y i y a y t w.s f f d f g g X i t 4.q m I M l l ",
"7 u.8.u.r V F J j P P P P e.I U R N R V c V V v b b b m C m C 4.n m v m m n m m X.r r r r ` r r a a a y u t y t d u.s d v P =.A 6 ",
"i.& 8.<.5.M P M j o.j o.P P P P 1.F j F j F j P j j e.P U h U U V N V B c v v v m n b n b n b n r ` r ` e r e r c e C v #.=.*.A 6 ",
"6 _ p.a.5.P :.~ :.:.:.:.:.:.:.:.H ;.s.H s.*.Y H J J J 1.j =.j P Y } Y *.J { Y { J J J J 1.K =.=.P P P h P I Z e.P 3.M #.J *. .6 l ",
"k d.f.a.5.#.[ g.:.:.:.:.:.:.:.:.$.$.$. .$.$.$.$.| O.:.| :.....:.H H ;.D ;.D ;.D ;.*.;.*.*.*.J J J J J J J %.J J 1.P =.;.O.[ i.A 6 ",
"l 8.h.6 j.l 6 i.6 6 A 6 6 6 6 6 l l 6 l l l l l 6 l 6 l 6 l l l 6 6 6 l 6 l 6 l 6 6 6 l l l l l l 6 l 6 6 6 6 6 6 6 l 6 h.h.6 l 6 ",
"A k.A l 6 i.7 6 6 l 6 l 6 l l l 6 l 6 l 6 6 6 6 k l k l T l 6 6 6 6 6 l 6 l 6 l l l 6 6 6 6 6 l 6 l l l 6 l 6 l 6 6 6 6 6 6 7 h.6 ",
"6 l 6 6 6 6 6 6 6 6 6 l 6 6 6 6 6 6 6 6 6 6 6 6 6 6 6 6 6 6 6 l 6 6 l 6 6 6 6 6 6 6 l 6 6 6 6 6 6 6 6 6 6 6 6 6 6 6 6 6 l 6 6 l 6 "};
