/* XPM */
static char * image_name[] = {
"64 64 37 1",
" 	c #EAEAEAEAEAEA",
".	c #D7D7D7D7D7D7",
"X	c #B7B7B7B7B7B7",
"o	c #C1C1C1C1C1C1",
"O	c #C2C2C2C2C2C2",
"+	c #B6B6B6B6B6B6",
"@	c #CACACACACACA",
"#	c #ADADADADADAD",
"$	c #C0C0C0C0C0C0",
"%	c #AEAEAEAEAEAE",
"&	c #878787878787",
"*	c #959595959595",
"=	c #A3A3A3A3A3A3",
"-	c #7A7A7A7A7A7A",
";	c #868686868686",
":	c #949494949494",
">	c #969696969696",
",	c #888888888888",
"<	c #000000000000",
"1	c #5C5C5C5C5C5C",
"2	c #6D6D6D6D6D6D",
"3	c #4C4C4C4C4C4C",
"4	c #4B4B4B4B4B4B",
"5	c #5B5B5B5B5B5B",
"6	c #3F3F3F3F3F3F",
"7	c #5D5D5D5D5D5D",
"8	c #3E3E3E3E3E3E",
"9	c #4D4D4D4D4D4D",
"0	c #6C6C6C6C6C6C",
"q	c #6E6E6E6E6E6E",
"w	c #858585858585",
"e	c #6F6F6F6F6F6F",
"r	c #010101010101",
"t	c #404040404040",
"y	c #4A4A4A4A4A4A",
"u	c #5E5E5E5E5E5E",
"i	c #5A5A5A5A5A5A",
" .XoXoOXXXoooX+@OooXXoooo#XXXX@oooo+oooo$oXoooooXX%+o+XoooooXXX&",
".X&*&**&&&***&&=***&&****-&&;&=***:&>*****;*>***&&-&*&,*****&&&<",
"X&1121334522332111131336331351171733341111311514333351334127613<",
"X&1133113521221115833331131713337733213333113151111371317115131<",
"o>3396171023364133911112711332436635133112831111663311311903337<",
"@=1431713233311133313215551511613337731133361119333311113513131<",
"o*311313323334613337111312173111111131q234q12163437111141131633<",
"o*3741137134314333137135211163131111152333331333511157312116121<",
"X,435513111313919333332193317131343333111421313133313811343q911<",
"o*37311171533611113113513193341466331363133163136631162q3313611<",
"o*1334112131431166133312131648931131961311113311433113133916433<",
"O*3394113363331333331113333633133311311311123333333931311711733<",
"o*1631116333613333412331833616133933313111333397113332133313311<",
"X&6311133131311566111531333333336833931617133115111131311381613<",
"O*6391311113133443211961333343413331133713333311331311133131333<",
"X&51q3331318311111116731334333313313411331771114333131511113331<",
"X&1111331613111433111113133346116614153332933313337151511456321<",
"X&1115331614111393151113133336116813113332333313331111111316321<",
"o*1152413311353917113111137691339311311311331141171111131314131<",
"o*1134331311134417333333316333633333311123391131331111133991743<",
"X&3331393311431111533135313333341151131111131134331131111137112<",
"Xw2111311134333133361133133433533331139537833333153335111133313<",
"o*1333133733331411364183326353343453311113313312114311338111314<",
"X&333313711611313333116333117333111111157331313371e129166671143<",
"o*2734343133311111111363333413311719113139133111331111366329333<",
"X&1311311363311971313833113313331131316141314133111131314351613<",
"o*1335133333131493393333213433311111313133131961113633123349333<",
"o*3335331313337134316331113113111139332316373333333933957137333<",
"o*11173333331333111313134371331133131532731131333333331191193q3<",
"O*3511317313543111131393633331123373434363173433113173311131335<",
"o*q331313443131111323314133931333343313631863333333333113311111<",
"X&13333331313113663333347332q5333313333333137333331193119131315<",
"o*1434113433313143133933361154683333113111119131333633333113119<",
"o*1333113333313133133433361113663333113171113131334633433113113<",
"o>1376961169133833339131335396611114133339363551713336133311331<",
"o*1363846381343311373313611366133313119113313116111333111315321<",
"o*3633673111421166149113333333131112116331531333341137111333351<",
"X&33133113331111337393373969837111313461131311373333311331q7133r",
"X,3313363411373333313363631353113311631543134131331111131136415<",
"o*33111163114913331164699111371133346912173311313318311313333q6<",
"X,3393363342q13634131134171112111133941132623113433321111311753<",
"o*0133319313173333311331153436433317381117111q51333333121733114<",
"o*3743533311139133113131123133192267311412341338333111111137231<",
"@=114133133393143319312211334331113311111113353911112111111q111<",
"X&3333311333313111313117123313111132111711313633111231317313111<",
"o*221116133313333336231331712114111121333514961111311213q513113<",
"o*5331134331711133133313331411113317415327313111335211221111212<",
"o*315333349141131136111513791113111313131111331277121111631145q<",
"o>1133333111333133137111137111111113131110113111111211113111111<",
"o*1733333111333134131111731117111114191152113111111211113171115<",
"@=73311311213313114331735651111322111411211336q1113333123151131<",
"o*3441311223119611331333311311311134111211134151113111121153111<",
"X&37143131312113153131313131151333114131t431333233333q143331311<",
"X&1134513331136311111111332113113313113161333173711332511713331<",
"X&37332133533163332141133116253111511q1231131321113421111136291<",
"X&1111233793131733111q11413311131514133117111311335721179161393r",
"o*11113313113339qq111113691332153333133131516111113513133117112<",
"$*412134113334311731113661111171343317933313133371331111344331q<",
"o*32431731111133115112331317136y3333137513113111u71531233321411<",
"o*23633133653433111133331111313411123131211q13111111113313111i0<",
"o>9333131732337143311311311331314353113334113441172117313117551<",
"X;3311213341311t3312513971111434337111419331q327113311611111112<",
"o*1114111111311311111174113333336613316333153311331314353312337<",
",<<<<<<<<<<<<<<r<<<<<<<<<<<<<<<<<<<<<<<<<<<<<<<<<<<<<<<<<<<<<r<<"};
