/* XPM */
static char * image_name[] = {
"64 64 41 1",
" 	c #CCCCCCCCCCCC",
".	c #333333333333",
"X	c #555565657272",
"o	c #AAAAAAAAAAAA",
"O	c #A9A99898B1B1",
"+	c #98989898A9A9",
"@	c #9E9E99999999",
"#	c #9B9B8888A7A7",
"$	c #888899999999",
"%	c #888888889999",
"&	c #828288888383",
"*	c #878774749F9F",
"=	c #676763636F6F",
"-	c #9393AEAECCCC",
";	c #8C8C9898B8B8",
":	c #94948585AEAE",
">	c #828286869C9C",
",	c #747488888A8A",
"<	c #595957575959",
"1	c #555555555555",
"2	c #868677777A7A",
"3	c #393958585454",
"4	c #545444445858",
"5	c #6B6B76769A9A",
"6	c #777777778888",
"7	c #777777777777",
"8	c #3F3F44445E5E",
"9	c #6D6D66669090",
"0	c #666666668888",
"q	c #444457573B3B",
"w	c #444444444444",
"e	c #434331314646",
"r	c #393944443535",
"t	c #666666667171",
"y	c #333333334444",
"u	c #666655557777",
"i	c #212132323131",
"p	c #32321E1E2E2E",
"a	c #4E4E5A5A7979",
"s	c #222222223333",
"d	c #222222222222",
"                                                               .",
"                                                              X.",
"  ooooOoOoOoOoO+OoO+O+O+++O++@#@#@#@#$#$#$#%#$#%#%#%%&%%%&*&*&=.",
"  oooo-ooooooOoOo;o+o+o+o+o+;+++$+$+$#$#$:$#$:$%$%$%%%%%>%>%,%X.",
"  ooOoooOoOoOoOoO+OoO+O@O++@+@+@#@#$#@#$#$#$#%#%#%%&%&%&*&*&*&<.",
"  -ooooOoOoOoOo;oOo;o+++++++++$+;+$#$#$#$#$:$%%%$%%%%%>%%%,*,*1.",
"  OoOoOoOoO+OoO+O+O++@+++@#@#@#@#$#$#$#%#$#%%%#%%&%%%&*&*,*&*,<.",
"  oooooooOoOo;o+o+o+++o+;+;+$+$+$#$#$:$#$:$%$%$%%%%%,%>%,*,%,*1.",
"  OoOoOoOoOoO+O+O+O@O@+@#@+@#@#$#$#$#$#$#%#%#%%&%&%&*&*&*&*,2,<.",
"  oOoOoOoOo;oOo+o+++++++++$+$+$#$#$#$#$:$%%%$%%%%%>%%%,*,*,*,*3.",
"  OoOoO+OoO+O+O++@+++@#@#@#@#$#$#$#%#%#%%%#%%&*&%&*&*,*,*,2,*,4.",
"  ooo;oOo;o+o+o+++++;+;+$+$+$#$#$:$#$:$%$%$%%%%%,%,%,*,*,*,*,53.",
"  OoOoOoO+O+O++@O@+@#@+@#@#$#$#$#$#$#%#%#%%&%&%&*&*&*&*,2,2,264.",
"  oOoOo;o+++o+++++;+++$#$+$#$#$#$#$:$%%%%%%%%%>%>%,*,*,*,*,5,63.",
"  O+OoO+O+O++@+++@#@#@#@#$#%#$#%#%#%%%#%%&*&*&*&*,*,*,2,*,26264.",
"  oOo;o+o+o+++++$+;+$+$+$#$#$:$%$:$%$%$%>%%%,%,%,*,*,*,*,5,6,63.",
"  OoO+O+O++@+@+@#@+@#@#$#$#$#%#$#%#&#%%&%&%&*&*,2&*,2,2,2626264.",
"  o;o+++o+++++;+++$#$#$#$#$#$#$:$%%%%%%%%%,%>%,*,*,*,*,5,665,63.",
"  O+O+O++@+@+@#@#@#@#$#%#$#%#%#%%%%%%&*&*&*&*,*,*,262,266626664.",
"  o+o+o+++++$+;+$+$+$#$#$:$%$%$%%%$%>%>%,%,%,*,*,*,*,5,6,6,6663.",
"  O+O++@+@+@#@#@#@#$#$#$#%#%#%#&#%%&*&%&*&*,2,*,2,2,26262667674.",
"  ++o+++++$+++$#$#$#$#$:$#$:$%%%%%%%%%,%>%,*,*,*,*,5,666,666668.",
"  O++@+@+@#@#$#@#$#%#$#%#%#%%%%%%&*&*&*&*,*,*,26262666266796674.",
"  o+++++$+;+$#$+$:$#$:$%$%$%%%%%>%>%,%,%,*,*,5,*,5,6,6,6666606q.",
"  +@+@+@#@#@#@#$#$#$#%#%#%%&#%%&*&%&*&*,2,*,2,2,262626676767978.",
"  ++++$+;+$#$#$#$#$:$%%:$%%%%%>%%%,*>%,*,*,*,*,5,6666666660606w.",
"  #@+@#@#$#$#$#%#$#%#%#%%&%%%&*&*&*&*,*,*,26262666266796979797e.",
"  ++$+$+$#$#$:$#$:$%$%$%%%%%>%>%,%,%,*,*,5,6,5,6,6,60666760679w.",
"  +@#@#$#@#$#$#$#%#%#%%&%&%&*&%&*&*,2,*,262,262626676767979797w.",
"  $+;+$#$#$#$#$:$%%%$%%%%%>%%%,*,*,*,*,*,*,5,66666666606067979r.",
"  #@#$#$#$#%#$#%#%#%%&%%%&*&*&*&*,*,*,262626666667969797979797e.",
"  $+$#$#$:$#$:$%$%$%%%%%>%>%,%,%,*,*,5,6,6,666,606067676797679r.",
"  #$#$#$#$#$#%#%#%%&%&%&*&*&*&*,2,*,26262626266797679797979777e.",
"  $#$#$#$#$:$%%%$%%%%%>%%%,*,*,*,*,5,*,5,666666666060679797979r.",
"  #$#$#%#$#%%%#%%&%%%&*&*,*&*,2,*,2626266666679797979797977t9te.",
"  $#$:$#$:$%$%$%%%%%,%>%,*,%,*,*,5,6,6,66666060676767976707970r.",
"  #$#$#$#%#%#%%&%&%&*&*&*&*,2,2,26262666266797679797979777777te.",
"  $#$#$:$%%%$%%%%%>%>%,*,*,*,*,5,665,666660666790679797979707tr.",
"  #%#%#%%%#%%&*&%&*&*,*,*,2,*,2626266666679797979797977t9t7ttte.",
"  $#$:$%$%$%%%%%,%,%,*,*,*,*,5,6,6,666660606767679767070707t7tr.",
"  #$#%#%#%%&%&%&*&*,*&*,2,2,2626266767679767979797977t777t7t7te.",
"  $:$%%%%%%%%%,%>%,*,*,*,*,5,665,666660666797979797979707ttttt..",
"  #%%%#%%&*&*&*&*,*,*,2,*,2626266666679797979797977t7t7tttttt=y.",
"  $%%%$%>%%%,%,%,*,*,*,*,5,6,6,666660606767679797070707ttt7tXtr.",
"  #&#%%&*&%&*&*,2,*,2,2,2626266767679797979797977t7t7t7t7tt=u=y.",
"  %%%%%%%%,%>%,*,*,*,*,5,665,666660666797979797079707ttttttttti.",
"  %%%&*&*&*&*,*,*,262,2666266766679797979797977t7t7tttttt=u=u=p.",
"  %%>%>%,%,%,*,*,*,*,5,6,6,666660606797679797070707tttttXtXtXti.",
"  %&*&%&*&*,2,*,2,2,2626266767679797979777777t7t7ttt7tt=u=t=u=..",
"  %%%%,%>%,*,*,*,*,5,666,666660606797979797070t07tttttXtttXuXti.",
"  *&*&*&*,*,*,26262666266796679797979797977t7t7tttttt=u=u=u=uXp.",
"  >%,%,%,*,*,5,*,5,6,6,66666060679767979707t7t7tttttXtXtXtXtXui.",
"  %&*&*,2,*,262,2626266767679797979777777t7t7tttttt=u=t=u=uXu=p.",
"  ,*,%,*,*,*,*,5,6666666660606797979797070t07tttttXtttXuXtXuXui.",
"  *&*,*,*,26262666266796979797979777977t7t7tttttt=u=u=u=uXuXuXp.",
"  ,%,*,*,5,6,5,666,60666760679767979707t7t7tttttXtXtXtXtXuXuXai.",
"  *,2,*,26262626266797679797979777777t7t7tttttt=u=u=u=uXu=uX=<p.",
"  ,*,*,*,*,5,666666666060679797979707tt07tttttXtttXuXtXuXuXaXui.",
"  *,*,2626266666679797979797977t977ttt7tttttt=u=uXu=uXuXuX=<=<p.",
"  ,*,5,6,6,666660606767679767979707t7t7tttttXtXtXuXtXuXuXaXaXai.",
"  *,26262626266797679797979777777t7t7tt=ttt=u=u=u=uXuXuX=<=<=<s.",
"  ,5,*,5,666666666760679797979707ttt7tttttXtXtXuXuXuXuXaXa<aX<d.",
"  =1<1<1<14143434q484w4w8wew8wewererere.y.y.y.p.p.p.pipspdpdsds.",
" ..............................................................."};
