/* XPM */
static char * image_name[] = {
"64 64 153 2",
"  	c #8E8E8D8DE5E5",
". 	c #86868484DCDC",
"X 	c #7E7E8686DCDC",
"o 	c #8E8E9191ECEC",
"O 	c #96969595ECEC",
"+ 	c #86868A8AECEC",
"@ 	c #7E7E8282E5E5",
"# 	c #7E7E7C7CDCDC",
"$ 	c #7E7E7C7CE5E5",
"% 	c #76767979DCDC",
"& 	c #8D8D8C8CF2F2",
"* 	c #A4A4A3A3FDFD",
"= 	c #A5A5A8A8FDFD",
"- 	c #9D9D9B9BF8F8",
"; 	c #8E8E8C8CECEC",
": 	c #86868989E5E5",
"> 	c #7E7E8181DCDC",
", 	c #86868484E5E5",
"< 	c #95959494F2F2",
"1 	c #9D9DA0A0F8F8",
"2 	c #9C9C9B9BFDFD",
"3 	c #9D9DA0A0FDFD",
"4 	c #7D7D7C7CD1D1",
"5 	c #8D8D8888ECEC",
"6 	c #8E8E9191F2F2",
"7 	c #75757474D1D1",
"8 	c #313134344343",
"9 	c #75757777C2C2",
"0 	c #61615F5F9A9A",
"q 	c #616164649A9A",
"w 	c #65656868C2C2",
"e 	c #6C6C6B6BC2C2",
"r 	c #74747070D1D1",
"t 	c #62626161AFAF",
"y 	c #5B5B5959AFAF",
"u 	c #64646363C2C2",
"i 	c #76767979D1D1",
"p 	c #6D6D6F6FC2C2",
"a 	c #63636666AFAF",
"s 	c #76767474DCDC",
"d 	c #595961619A9A",
"f 	c #6E6E7171D1D1",
"g 	c #6A6A6969AFAF",
"h 	c #48484B4B8181",
"j 	c #171716161D1D",
"k 	c #9E9EA1A1F2F2",
"l 	c #4F4F56568181",
"z 	c #454543436969",
"x 	c #454548486969",
"c 	c #515150509A9A",
"v 	c #525255559A9A",
"b 	c #3D3D3C3C6969",
"n 	c #3A3A36365353",
"m 	c #343432325353",
"M 	c #3A3A39395353",
"N 	c #5B5B5E5EAFAF",
"B 	c #3B3B3D3D5353",
"V 	c #4F4F4D4D8181",
"C 	c #62625D5DAFAF",
"Z 	c #5A5A5555AFAF",
"A 	c #6B6B6767C2C2",
"S 	c #59595C5C9A9A",
"D 	c #3E3E41416969",
"F 	c #313130304343",
"G 	c #444440406969",
"H 	c #474746468181",
"J 	c #4E4E49498181",
"K 	c #282827273333",
"L 	c #020203030B0B",
"P 	c #7E7E8181D1D1",
"I 	c #595958589A9A",
"U 	c #40403E3E8181",
"Y 	c #474742428181",
"T 	c #343437375353",
"R 	c #5C5C6060C2C2",
"E 	c #5C5C5A5AC2C2",
"W 	c #222220203333",
"Q 	c #010101010808",
"! 	c #4F4F52528181",
"~ 	c #53535151AFAF",
"^ 	c #53535757AFAF",
"/ 	c #64645E5EC2C2",
"( 	c #37373A3A6969",
") 	c #585854549A9A",
"_ 	c #53534D4DAFAF",
"` 	c #404043438181",
"' 	c #3D3D38386969",
"] 	c #4A4A48489A9A",
"[ 	c #5C5C5656C2C2",
"{ 	c #4A4A4D4D9A9A",
"} 	c #2B2B2E2E4343",
"| 	c #51514C4C9A9A",
" .	c #050503030B0B",
"..	c #21211D1D3333",
"X.	c #020204040F0F",
"o.	c #494944449A9A",
"O.	c #40403A3A8181",
"+.	c #363635356969",
"@.	c #060603030F0F",
"#.	c #4B4B4949AFAF",
"$.	c #242427274343",
"%.	c #060605050F0F",
"&.	c #2D2D28285353",
"*.	c #54545252C2C2",
"=.	c #020201010F0F",
"-.	c #2D2D30305353",
";.	c #020201010B0B",
":.	c #2A2A26264343",
">.	c #65655F5FD1D1",
",.	c #2B2B29294343",
"<.	c #0B0B08081515",
"1.	c #95959898F8F8",
"2.	c #11110E0E1D1D",
"3.	c #96969999F2F2",
"4.	c #070706061515",
"5.	c #33332F2F5353",
"6.	c #070709091515",
"7.	c #363631316969",
"8.	c #242423234343",
"9.	c #74747373C2C2",
"0.	c #1C1C1A1A3333",
"q.	c #6D6D6868D1D1",
"w.	c #383836364343",
"e.	c #28282A2A3333",
"r.	c #24241F1F4343",
"t.	c #65656363D1D1",
"y.	c #1C1C1E1E3333",
"u.	c #9D9D9C9CF2F2",
"i.	c #0D0D09091D1D",
"p.	c #0D0D0F0F1D1D",
"a.	c #5D5D5B5BD1D1",
"s.	c #141413132727",
"d.	c #A5A5A3A3F8F8",
"f.	c #76767D7DD1D1",
"g.	c #65656969D1D1",
"h.	c #0D0D0C0C1D1D",
"j.	c #141410102727",
"k.	c #2D2D2B2B5353",
"l.	c #6E6E6C6CDCDC",
"z.	c #8F8F9191E5E5",
"x.	c #070703031515",
"c.	c #8E8E8D8DDCDC",
"v.	c #4C4C4B4B6969",
"b.	c #6B6B6D6DAFAF",
"n.	c #38383A3A4343",
"m.	c #252524242727",
"M.	c #1A1A1C1C2727",
"N.	c #070708080808",
"B.	c #010100000303",
"V.	c #010101010505",
"C.	c #060608080F0F",
"Z.	c #0A0A09090F0F",
"A.	c #0C0C0D0D1515",
"  . X o O o + + @ # $ % # & * = - o ; ;   : : : . > . , :   < 1 2 2 2 3 - ; , 4 > . . > > . : : ; + : : 5 + + , + 5 ; ; o 6 7 8 ",
": 9 0 q w e r 7 r w w t y u # , 7 i p 7 p p e r a a w p p 7 # + s # $ + & > p t t d 0 a t a w a f p e e e p p e g w e e f p h j ",
"k 4 l z x x c v b n b b m M c N z z x x x M M B B M B z x V l C y Z y u A S D 8 8 F 8 B z B M n G D D D b M b D h z h z H J K L ",
"- P I V V J H H b U H Y b h N N M G h V H M T M G D M D z H V y A R E N y J B T 8 M D z J v J b T M G B b M M D G D b B b M W Q ",
": p ! l t N Z c ~ ^ ^ H Y R / H b D V v V G D H h G D G H z h v / E y y c H D G m z h z V u N G ( b G H G D H z h G G D D b W L ",
"; p ) ^ C u R E c c _ ` U y y ' m ' ` H H ` G ` Y b ( b b b H ] ^ [ E Z { ' m T } b D m b v ~ b m T ( b b b U D | D ` Y b b W  .",
"< 7 I v ) y y y [ ~ _ ~ ~ E E c ` Y H | { H H ] | H ` Y { | c Z u R E Z | ` b G D G ` G ` ] | | { H Y b ` H | | H ` Y H b ( ..X.",
"+ f c h c ^ ~ [ R ] | E ~ | | ^ H Y U ` Y U ( ' h U b Y ] | ~ ^ ~ o.O.( b b Y H | b ' ` Y ' U Z ~ H ( +.n U H { { Y H H ` ' W @.",
"5 f z Y Y ` Z Z { [ E ~ | ~ ~ | ] ~ ~ | ` Y o.] _ ] Y { | ] { [ _ o.( ~ o.H +.H U ' U Y ` U #.R | | ] Y ` | ~ H ] Y ` Y U U $.%.",
"+ r H D b ( Y ] _ ~ [ [ ~ { ] _ ~ ~ ~ ] Y o.o.Y { | { ] { ~ Z E ] +.&.Y ` Y ( ` Y ( ' o.o.U o.*.[ Z ^ | o.Y Y U ] Y Y U b ' W =.",
"> e D G Y b ] ] ~ { ~ E [ ] Y | ^ Z _ o.] ] ] ` #._ _ o.] [ ^ _ [ U -.+.| ` b ' { H ` ] ] o.#.~ Z ^ y Z { ` b H H ` H ` U ' W ;.",
", e D z h Y v | ~ _ ~ E Z ] H { Z *.{ ] o.{ _ #.| [ ^ _ ] { _ { R Y U +.^ Y ] b c H o._ { _ #._ Z ~ Z E y H ` Y Y ` Y Y Y ` $.X.",
"o 7 h G H ` | ] c y [ c | ~ | ] ] ~ _ ] o.{ ~ [ ~ ^ E E *.| #.[ _ ( ' ( c H c { ] H Y ] #.] #._ R Z v R N | b ' D b Y ` Y D :.@.",
": p D M D b | H ~ E E | | ^ ~ H ] _ ~ _ ] { [ E ] _ ~ >.^ o.| / { Y Y H | H J | H H ] ] ] _ _ _ E v c y R y H ' H Y ` Y D b W L ",
", A B D h H c | ^ Z ^ ~ c c | H ] ~ ~ | ] ~ Z [ ` Y ] | _ _ { ~ Z ^ c Z c c H H H c ~ Z ~ _ _ ~ | c ) Z y y c D H z H D b b :. .",
": 7 x J v H c H Z | _ y [ | ` ] | _ | { ~ [ Z ~ o.] ] ] | E ~ Y ~ Z { N ^ N H { H c Z ~ { _ { _ c y N y ) ^ H b H Y ` Y Y H ,.<.",
"1.7 ! G h Z c | { ~ [ ^ | { | c Y ` U Y Y ` ` ] | | c ~ { ] | E Z { Y ~ Z | { | H ] H { ] H ] c ] [ R Z ^ / y _ c { Y ` H U $.2.",
"3.7 V H J ^ { | ] { _ ~ ~ _ | ] Y ` U Y ` U ] c ~ ~ ~ Z c { | ^ E ~ _ | _ _ c ~ Y D U Y b b H | Z E E ~ _ ^ [ ~ R [ | U ] ] :.4.",
"< 7 h h c c | ] _ ] ] | ~ ~ ] ` ] Y H Y b ' Y ~ c | | ~ ~ | H o.Z E Z { ] ] ^ E { H ` b b b ` { ^ E y _ | Z E Z R E ] U | ~ 5.6.",
"1.i J H c h | ] ^ | ] ] c ~ H U | | ] o.U ' U H ~ | { | ~ | ] ` | E E ] U Y ~ Z ^ | H Y b b b Y H ~ [ Z ^ E E [ [ E | ' ] ^ 7.4.",
"3.7 D h J Y ~ { Z ] U U ] | | H ~ H Y H ] U b O.^ c ] | ^ y Z ~ Y ~ ^ ] U Y | c c ] H ` ` ' ( b Y ] | { ~ ~ Z ^ Z R [ ` U o.8.=.",
"< i M x c ` v ] ] U ' +.U H { | ] U U Y ] H U b _ | { | ~ E Z ~ ` _ | ] Y ] { _ | ] Y H H G b Y { ] o.U U Y ] ~ ] E Z ] ` U ..@.",
"o 7 M J I b Z H ] Y U b ' Y { c H U b ` Y o.` Y Y { ] | | Z ^ | ~ { ] _ ~ _ c Z ^ H H H H H H H ] Y U ' ( O.H | Y | ^ | ] U W 4.",
": 9.T c N D c Y { | | ] U U H ~ H U U Y U b U Y ` | c ~ ~ ^ Z ] E _ ] ~ y [ y / ^ H U U b U b Y ` b U ` Y ` Y { _ ^ Z ~ | b 0.@.",
", 7 ! v V b | | U ` U ( 5.m b ] Z { U ' Y ] Y ` U U Y | E / Z ] ~ ~ | | ^ [ ^ q.Z ] b b H ` b b Y Y H Y ` b Y ` Y Y U D ] ] W X.",
", g M B G b { c ` Y Y b T ' ` H ~ H Y U ` ` Y b ' U Y ] ~ ^ c Y ] Z ^ _ [ E y E y { ` ` H Y b b H H ` Y ` Y H H ` Y ` Y { Y W @.",
". d F 8 b T h J Y H ` U b b b H ~ | { H ] H Y U ' U Y H | | ] ` ] / [ { ^ / R Z y | H Y H H ` b ] Y ` Y ` H ] { G ` Y b H ` W X.",
"> 0 F T B n b b Y ` U b ' b b b y ~ | o.| ] ] Y ` H Y ] | ~ ] Y | E Z ] ~ E / / ~ { H H H H Y D Y H ` Y H H H H U H Y ` Y U ..%.",
"i d 8 n T F b b ] ` b ' ( b b ` Z | ` b Y ] Y U { ] Y ] { Z | ` ] _ ] | [ Z ^ >.h ] H Y ` H H H ` G ` H H H Y U b H ` b Y b W %.",
"4 S F F 8 } ` H H H H Y b b D Y ^ | H o.H ] ] Y | ] ] Y | ~ ~ ] Y ` Y ~ E ~ ] ^ Y | { H H ] h | H H Y H ] H D ' D Y b b ` b W @.",
"X 0 F 8 M T G H Y H c { H b G ` | ~ ~ ~ | { | { Y ] | { H | ^ Z o._ { { ~ ~ | ~ { c ~ c { c c c ^ J H ` H Y b b Y ` b ' G ` W L ",
": a w.B h G Y ( b H ^ c ] ` b b U c y E | Y H | U | Z | ] { Z / ^ / Z U ] Z y E | y E Z | ^ Z Z y ~ H G ` Y ` b ` Y b ' ` Y W X.",
"O t e.F D m D { | ] Y U o.| ] ' ] _ ~ c ] ] ] { ] ~ ] E Y ~ ~ R ~ o.] E / ~ ~ E | { | ] | | ] ` Y ~ ~ ] U Y Y U H Y ` Y { Y ..=.",
"1 7 M z J b ] ] | _ ] o.{ _ { Y ] ~ ^ _ ] ] ] ] | ~ | E | ~ | [ ^ | ] | _ ^ Z E [ Z { ] | { Y ' o.{ | { ] ] ] { O.` ] ] o.b r.4.",
"  t } M ` M U Y ] ] | ] ] ] ] Y _ ^ Z | ] ] | o.] ~ ~ E ~ _ ] { ~ ~ _ Y ] [ E ~ t.[ ] ] _ { o.( ] Y ] | _ | ~ E Y ] ] ] Y ( r.4.",
": a F M z b Y ` o.{ _ #.] o.o.o.^ Z [ ] Y ] ] ] ] { _ Z _ ] Y ] ] _ | ~ ^ Z ~ Y / ^ | ] { _ { o.] U ` _ ~ ~ ^ / ~ _ ] ] { Y y.=.",
"u.f B b D ( D ' ] ] _ c _ { ~ ^ / >.^ Y U ] _ | | { _ ~ ~ { ] | _ ] { Z E ^ ] ] ^ ~ _ ] | | _ c _ Y ` | ^ ~ Z E ~ Z ~ _ ~ o.r.4.",
"O p F F M m U ' U U ] { _ ~ Z >.R >.Z U U ] ~ { ^ | ~ c Z ] Z ^ E { o.~ [ Z _ ~ | _ ~ _ | ] { ~ { o.o.] ~ Z ~ ~ Y ~ E Z { b $.2.",
"o e 8 T D Y | { U ' U ] _ ~ [ t.R >.^ o.U | ~ | *.| ^ _ E { ~ _ / Z ] ] | E E Z ] { | ~ ~ ~ _ | | { ] ] Z [ [ { U ] ~ ~ ~ Y 8.i.",
"; a F m M ( Y b { o.o.] ~ ~ y t.y >.y o.Y ~ ~ Y ~ ] Z ] E ] | ] [ E ~ Y { t.t._ o.Y ] ~ Z Z ~ ] { _ ] | ~ R E ] | Y U ] ^ _ r.;.",
"; p B F n b H ( | o.{ _ ~ E >._ ~ Z E ^ ~ ~ Z ~ ] | ] ] | ~ ~ ] ~ c { _ _ ] ] ] { Y O.Y ^ E ~ ] U ] | ^ [ ~ Z ^ o.~ | | ~ ~ :.=.",
"  p M m b ( Y +._ | ~ ~ [ E y ] [ E / E Z [ ~ ~ { _ { o.] | ~ | Z ~ ~ ~ ~ | | { | ] ] ] _ ~ | ] Y ] _ ~ Z E E >.{ ~ _ { | ] 8.=.",
", p B M D D ] b O.U ] ~ E >.E | ^ / R E E [ Z ~ | ~ | o.Y { _ ~ ~ ~ ~ c ~ ~ { ] _ ~ ~ c ] ] { _ ] ] c ~ ~ E / t.~ Z _ { ] Y r.4.",
": p z z H H ~ | ^ Z ~ ~ [ _ U ( [ E >.E y E [ Z { _ { ] ] ] | ~ | _ | | _ ~ ~ ] | Z E [ ~ ] ] | { _ | _ ~ ~ Z [ ^ ~ _ ] | ` 8.p.",
"; 9.z D z b c c >.t.^ _ E ~ Y o.^ E / E E E E E { | _ { | ] { _ ] ] { ] ~ y Z { ~ E / R E c | ] | { _ ~ ~ ^ ~ | ~ Z | ] ] U :.2.",
"o p b M D ' ] Y { ~ o.o.R E ~ / [ / E E Z E / R _ ] ] | _ | ] ] ] { _ | *./ E _ ~ [ R >.E Z _ _ ] { ~ Z E Z ~ | ~ ^ _ o.` Y &.4.",
"< 9.D D H D H ] Z [ ] ` E ~ U ~ E E E ~ _ ~ Z [ ^ | o.] ~ { ] | ] | _ { Z R E ] c Z E / E ~ ^ Z _ ~ ~ Z E [ ~ ] ~ E ~ ` ] _ -.4.",
"3.9.z J Z c Z ~ ~ ^ Y o./ [ ] E Z E Z ] H { _ | E ] ` ] | _ | ] ] c _ | ~ E Z Y _ ^ E Z ~ ~ [ R [ ^ Z ^ Z ~ ] Y | E Z o.| E ' <.",
"1 i x c c { E ~ Z Z ^ H ` o._ *.~ ~ ~ ] ] _ c ] E ~ ] ] ] ] _ Z E E ^ _ o.U ] { U E E ~ | U U u ~ ~ ] _ R E ] U _ U ` ~ / R +.i.",
"1 4 V c [ ~ a._ Y ~ y ^ Y U o.] ~ ~ ~ ] | ~ ~ ~ [ ~ _ | ] { c [ E E E E ~ c _ ~ O.Z ^ ~ ~ Y o.t.E / ~ | Z ~ ] ] { ] ~ Z [ _ ( s.",
"d.f.V v [ ~ E | ~ c h | ^ Z { O.~ Z Z ~ Z E E Z ^ ~ Z ^ ~ ~ ~ E H ] | | { ] U U Y _ _ ~ ~ ] ] y >.g./ ~ ~ ] Y ] Y o.~ ~ { ] 5.s.",
"d.i h | ~ | [ ] Z { b D c >.[ _ ^ [ E [ ^ Z ^ ~ | | Z E Z ~ ~ E ~ ~ ^ E [ ~ ] Y { | ~ E Z | ] ] ~ / R [ [ | U ` U b U Y ] | +.h.",
"1 i x H ] H *.{ H h J U U H ~ [ ~ [ y [ ~ ] o.] o.] ~ [ Z ^ Z E / / >.R / / E ^ _ | ^ / E ~ ] Y ] _ | { ~ { U O.O.' ` o.] _ ( j.",
"k i J V ] o.^ | ] | h H H ] ] ] Z [ R E Z ] ` Y ] o.{ ~ [ ~ ~ Z *.^ Z [ E E E R [ { Z >.E ^ ~ Y ] ] O.O.] | U Y -.U ~ | o.H +.s.",
"O 9 ! ^ | ` ~ | ^ J ` G | ^ ] O.~ ^ / >.E | ] _ c ] ] | ~ ~ ~ | Z E R / E / t.q./ ~ ^ E c | ~ Y ` Y ( ' ] ] U U ' o.^ ~ ] Y k.<.",
": 9.v I | U ~ | H H H D b Y ] Y ] ] ~ E Z ] ] ] ^ | o.{ ~ ~ | ] ^ Z E Z Z ~ Z R l.Z ^ Z Y ] | Y O.` U Y { o.' ( | ~ [ ~ Z ^ k.=.",
"X g 0 y { H Y +.] J h z b U U U U Y { | ] { ~ Z ] _ c _ | ~ ] U ' Z R t.c y ` ' c E u E { b U ` ` Y U o.` ] ~ [ t.| Y ^ t.[ :.@.",
"z.9 a ) Y U U ' h h J H b ' U ` o.] ~ ~ _ | _ { Y ] ] ] ~ E E ~ c Z ^ u ^ Z Y ` Y H { | H ` b b O.Y ] ] ] | ~ E E ^ o.Y ~ _ $.x.",
"c.9.d c ` b Y U Y h V h D b b o.Y o.] ] | ~ ~ [ ~ { | { Z E / E t.Z | / Z c ` H U b ' ` H ] U m O.` _ ~ ~ ~ Z [ y E ] U Y { 5.4.",
"P d v.h G U U ' D H J h D ' U ] ` U ( ' U | ^ E ~ ~ ~ ~ Z E R / q.R v ^ c ] b U H U ( G { | G +.` Y ] | ~ Z ^ Z E E ] U ] ] k.<.",
"c.q z z ` Y b ( D z h V H D Y { | o.U U ` ] | _ ] ~ E E E E t.l.u w u c H ` G ( H G ` Y H h Y b | ] Y ] ~ E E [ t.^ ] | _ ` ..x.",
"3.b.x D ' ' ( 5.b b z c J ` Y ] U ` o.] | ] ] ] ] c [ / E ~ Z / / u g.| H b Y m ( ' b b b ` Y H ~ ] U ` _ Z Z ~ t.Z | ~ ~ U r.h.",
"q n.m.K W y.0.j 8.W W e.F :.8.k.0.8.:.k.&.k.5.7.m 7.+.' +.5.-.+.b ( b :.} ..W M...M.W ..y.W ,.5.-.&.$.:.&.-.7.+.+.' +.7.5.k.0.h.",
"N.B.V.C.%.;.=.@.L Q Q Z.A.6.@.4.<.<.4.X.;.=.4.h.i.%.x.h.2.j.h.2.s.<.C.X.<.Q ;.;.@.%.@.L ;.%.6.2.4.4.<.4.4.4.h.2.=.h.p.@.X.i.<.X."};
