/* XPM */
static char * image_name[] = {
"64 64 251 2",
"  	c #2E2E7171CFCF",
". 	c #18185D5DB2B2",
"X 	c #2A2A6A6AC4C4",
"o 	c #4E4E8F8FDEDE",
"O 	c #6969A0A0DEDE",
"+ 	c #66669A9ADEDE",
"@ 	c #55558989DEDE",
"# 	c #43436A6ADEDE",
"$ 	c #2E2E5151CFCF",
"% 	c #18182B2BABAB",
"& 	c #0E0E1616A9A9",
"* 	c #1E1E1111AAAA",
"= 	c #2B2B1A1ABFBF",
"- 	c #38381717BFBF",
"; 	c #32321010BBBB",
": 	c #2C2C0909BABA",
"> 	c #26260C0CB7B7",
", 	c #5E5E4F4FDEDE",
"< 	c #080805059E9E",
"1 	c #161611119292",
"2 	c #32322424AFAF",
"3 	c #50504444CFCF",
"4 	c #39393535AFAF",
"5 	c #63636F6FDEDE",
"6 	c #74748F8FDEDE",
"7 	c #7878A2A2DEDE",
"8 	c #6666A4A4DEDE",
"9 	c #3C3C6868CFCF",
"0 	c #1F1F4040B7B7",
"q 	c #1F1F2F2FABAB",
"w 	c #16164242B9B9",
"e 	c #2A2A7474C3C3",
"r 	c #3535A3A3DEDE",
"t 	c #5858C1C1DEDE",
"y 	c #7474DCDCDEDE",
"u 	c #6D6DD6D6DEDE",
"i 	c #5151B4B4DEDE",
"p 	c #3C3C9898DEDE",
"a 	c #2E2E7C7CCFCF",
"s 	c #1F1F6060C1C1",
"d 	c #16164A4AB9B9",
"f 	c #27274848CFCF",
"g 	c #26264242BFBF",
"h 	c #1F1F3636ABAB",
"j 	c #2D2D4545BFBF",
"k 	c #4A4A6363DEDE",
"l 	c #15155151B1B1",
"z 	c #030337378B8B",
"x 	c #07073A3A9898",
"c 	c #26265B5BC3C3",
"v 	c #2D2D6262C3C3",
"b 	c #34346D6DC7C7",
"n 	c #34346565C7C7",
"m 	c #24245151B9B9",
"M 	c #14143A3AAAAA",
"N 	c #08082828A9A9",
"B 	c #070712128F8F",
"V 	c #020202029090",
"C 	c #1D1D0808A2A2",
"Z 	c #1D1D0202A6A6",
"A 	c #171702029E9E",
"S 	c #191902029090",
"D 	c #0F0F02029E9E",
"F 	c #24241A1AB7B7",
"G 	c #17170C0C9191",
"H 	c #020202026F6F",
"J 	c #2F2F3D3DA6A6",
"K 	c #42425D5DBFBF",
"L 	c #03031F1F9090",
"P 	c #07071A1A9696",
"I 	c #030325259292",
"U 	c #03035454A0A0",
"Y 	c #11117C7CC3C3",
"T 	c #35359999CFCF",
"R 	c #31319191DADA",
"E 	c #1D1D7A7ABDBD",
"W 	c #09095757B1B1",
"Q 	c #07072D2D9797",
"! 	c #11112A2AA6A6",
"~ 	c #15154242A9A9",
"^ 	c #030315157171",
"/ 	c #03032B2B8888",
"( 	c #030332328888",
") 	c #131339399999",
"_ 	c #0A0A2A2A8C8C",
"` 	c #030317178484",
"' 	c #040402027D7D",
"] 	c #0E0E02028F8F",
"[ 	c #0E0E02028181",
"{ 	c #010101015C5C",
"} 	c #111120209494",
"| 	c #10102D2D8A8A",
" .	c #0A0A31318C8C",
"..	c #070732329898",
"X.	c #040410107F7F",
"o.	c #03034D4D9797",
"O.	c #0A0A6262AAAA",
"+.	c #26268484BFBF",
"@.	c #11116A6AA9A9",
"#.	c #03031D1D7171",
"$.	c #05050C0C8D8D",
"%.	c #18183C3CBBBB",
"&.	c #030309097070",
"*.	c #04041D1D7F7F",
"=.	c #04040A0A7E7E",
"-.	c #0F0F02027272",
";.	c #080802025D5D",
":.	c #101012128989",
">.	c #101016168A8A",
",.	c #09091C1C6E6E",
"<.	c #11116565A9A9",
"1.	c #1F1F7F7FBFBF",
"2.	c #0A0A6A6AAAAA",
"3.	c #2E2E3B3BCFCF",
"4.	c #07071212AAAA",
"5.	c #181832329E9E",
"6.	c #111134349D9D",
"7.	c #181818189292",
"8.	c #080848489B9B",
"9.	c #11115B5BA6A6",
"0.	c #06065C5CA3A3",
"q.	c #030340409696",
"w.	c #171720209898",
"e.	c #1E1E2C2CA6A6",
"r.	c #34342C2CCFCF",
"t.	c #060608089E9E",
"y.	c #0A0A1E1E9090",
"u.	c #11112C2C9999",
"i.	c #0F0F0B0B8989",
"p.	c #030310105A5A",
"a.	c #0A0A41419999",
"s.	c #11115F5FB3B3",
"d.	c #19192525A8A8",
"f.	c #25253030AAAA",
"g.	c #33331E1EBFBF",
"h.	c #111125259696",
"j.	c #14144F4FA6A6",
"k.	c #11116D6DBDBD",
"l.	c #18186D6DC1C1",
"z.	c #07075050AAAA",
"x.	c #181825259B9B",
"c.	c #0A0A18188686",
"v.	c #0F0F08087272",
"b.	c #111117179696",
"n.	c #11116767BDBD",
"m.	c #030324247E7E",
"M.	c #030310107070",
"N.	c #41411313B7B7",
"B.	c #242402029292",
"V.	c #18182E2E9C9C",
"C.	c #07076666B9B9",
"Z.	c #06065E5EB1B1",
"A.	c #47471010B7B7",
"S.	c #2B2B03039C9C",
"D.	c #151502028080",
"F.	c #09094949A8A8",
"G.	c #0A0A5858A5A5",
"H.	c #101020208484",
"J.	c #06064141A6A6",
"K.	c #46460C0CB3B3",
"L.	c #1B1B7575BFBF",
"P.	c #11117272AFAF",
"I.	c #0A0A4E4E9C9C",
"U.	c #11115454A1A1",
"Y.	c #26263636B2B2",
"T.	c #0A0A7070AFAF",
"R.	c #0A0A25259292",
"E.	c #2D2D3B3BB7B7",
"W.	c #03036969A8A8",
"Q.	c #03037070ABAB",
"!.	c #18186666B3B3",
"~.	c #41410C0CC7C7",
"^.	c #26263333BFBF",
"/.	c #03036363A8A8",
"(.	c #03037979AFAF",
").	c #3A3A1313C7C7",
"_.	c #11110505B7B7",
"`.	c #03030303A9A9",
"'.	c #18182F2FA6A6",
"].	c #18183535AAAA",
"[.	c #030315155F5F",
"{.	c #03030C0CB7B7",
"}.	c #11114747A5A5",
"|.	c #18182424C7C7",
" X	c #0A0A3131A6A6",
".X	c #0A0A3C3CA9A9",
"XX	c #27272F2FD6D6",
"oX	c #11111A1ABFBF",
"OX	c #030309095B5B",
"+X	c #1F1F6767AFAF",
"@X	c #18186C6CB5B5",
"#X	c #23234A4AB7B7",
"$X	c #34347676C7C7",
"%X	c #1F1F5E5EB7B7",
"&X	c #1A1A5555ADAD",
"*X	c #22224A4AAFAF",
"=X	c #0A0A37378C8C",
"-X	c #1A1A5757B8B8",
";X	c #26266363BFBF",
":X	c #26266F6FC3C3",
">X	c #43434C4CD6D6",
",X	c #1A1A6565C1C1",
"<X	c #151542429C9C",
"1X	c #11117474BFBF",
"2X	c #11115858B4B4",
"3X	c #0A0A7575BCBC",
"4X	c #08086C6CB8B8",
"5X	c #43435353CFCF",
"6X	c #4A4A5B5BCFCF",
"7X	c #58586767DADA",
"8X	c #03037373B8B8",
"9X	c #020201014545",
"0X	c #5F5F7B7BDEDE",
"qX	c #2D2D4747AFAF",
"wX	c #18184848A9A9",
"eX	c #4E4E7E7EDEDE",
"rX	c #39397777DBDB",
"tX	c #43438686DEDE",
"yX	c #08087B7BB9B9",
"uX	c #11113030ACAC",
"iX	c #20203C3CACAC",
"pX	c #35358585D6D6",
"aX	c #11118080C5C5",
"sX	c #0F0F3535A8A8",
"dX	c #1C1C9595D6D6",
"fX	c #08088282BFBF",
"gX	c #11118A8AC7C7",
"hX	c #43437474DEDE",
"jX	c #1F1F4F4FAFAF",
"kX	c #242444449595",
"lX	c #0A0A25257E7E",
"zX	c #2D2D4A4AC7C7",
"xX	c #20204141ACAC",
"cX	c #1F1F3B3BB9B9",
"vX	c #74745656DEDE",
"bX	c #44441F1FBBBB",
"nX	c #30300C0C9E9E",
"mX	c #25252C2CA6A6",
"MX	c #232323239E9E",
"NX	c #3F3F1616AFAF",
"BX	c #26263B3BBFBF",
"VX	c #020201013636",
"CX	c #4E4E3636D6D6",
"ZX	c #3B3B3333CFCF",
"AX	c #2E2E3838CFCF",
"SX	c #35355E5ECFCF",
"DX	c #66669090DEDE",
"FX	c #10102F2F8484",
"GX	c #2B2B4B4B9595",
"HX	c #9090B2B2DEDE",
"JX	c #393959599E9E",
"  . X o O O + @ # $ % & * = - ; : > : > : > : > : > : > : > : > , < 1 2 3 4 5 6 7 8 O o 9 0 q w e r t y u i p a s d w f g h j k ",
"l z x c v b n m M N B V < C Z Z A A A A A A S D S A S A A A D D F V D G 1 H J K 9 b   s w L P I U Y T i i R E W x Q N ! N P P % ",
"~ L ^ / ( ) x _ L ` V ' ' V ] [ ' ' ' ' ' ' ' ' ' ' ' ' ' ' ' ' V ' ] ' H { } |  .z x ..L X.' X./ o.O.+.+.@.o./ #.X.B B $.' H H ",
"%.` &.` *.Q  .Q ` X.=.' ' [ ' -.' H H H H ;.H ;.;.;.H ;.H H H H ' V ' ' H :.>.,.I / Q / ` =.' &./ o.<.E 1.2.o.( ^ &.=.' B B =.H ",
"3.4.' X.` I 5.6.` X.=.' H ' ;.H H { H { { { { { H { { { H { H H H ' H ' H 7.>.X.I I Q I ` =.H &./ 8.9.e E @.0.q.#.X.' =.w.e.} X.",
"r.t.' =.=.y.u.u.*.X.H H H H H H { { { { { { { { { { { { { { { { H H H i.' :.=.X.` L L L ` &.' H p._ a.9.@.<.s.q.*.X.=.:.d.f.} &.",
"g.] V ' =.X.h.u.y.X.&.H ' H H H H H H { H { { { { { H { H H H H H &.H =.1 :.=.B X.` L L X.&.H &.&./ z j.k.k.l.z./ ` &.B 7.x.c.&.",
"; S ' ' ' X.x.h.y.X.' H H H { H H { H H { H { H { H { H { H { H { &.H v.:.b.=.=.$.P y.P X.' H H &.*.I 8.n.l.k.z.( m.M.M.B ,.` ` ",
"N.B.S ' ' c.x.V.x.X.' H ' H H H H H H H H H H { H { H H H H H H { H &.X.w.:.' $.' B y.P B &.H H &.M.*.z W C.Z.W q...*.M.^ ` *./ ",
"A.S.D.[ H ^ x.V.h.X.' H ' ' ' H H H { H { { H { H { H { H { H H H { &.>.w.B ' V $.B b.:.=.H H H &.&.` ..F.Z.Z.W G.8.( m.m.m.*.I ",
"A.S.D.;.' c.x.V.H.B ' ' ' ' H H H { H { { { { { { { { { { H { { H &.&.x.e.B ' =.' B b.B =.H { H H &.^ Q J.z.W C.<.9.8.z z ( *.*.",
"K.S.D.' H ^ h.| } =.' H ' ' ' H H { { { { { { { { { { { { { { { &.H =.e.f.B ' =.V B :.B H H { H &.&.X.I x J.z.Z.L.P.0.I.U.a./ *.",
"K.S.D.' =.*.u.h.c.=.H ' H H H H { { { { { { { { { { { { { { H { H H X.e.Y.P ' =.' X.:.=.H H H H &.&.X.I ..x F.0.T.P.2.O.. j./ ^ ",
"K.S.S ' =.y.R.*.X.=.H H H H { H H H H H { H { { { { H { H { H H H ' =.e.E.} =.=.' =.:.i.&.H H &.&.&.M.} Q ..q.U W.Q.W.W.!.U./ M.",
"~.S.< ' =.L I ^ X.H H H H H { H H H H H H H H H H H H H H H H H ' ' =.h.^.% X.=.H X.:.X.H H &.{ &.{ &.} h._ q.U /.(.Q./.O.U./ M.",
").Z V ' $.y.L X.=.H H H H { { { H H H H H H H H H H H H H ' ' H ' ' =.} Y.% ` =.' =.:.:.&.H H H &.H H c.h./ q.U W.(.Q.W.0.8./ ^ ",
"_.`.V V =.X.X.=.H H H H H H { { H H H H H H H H H H ' H H H H H H H =.` h.'.h.=.X.$.i.[ ' H ' H H H &.c._ z o./.Q.Q.Q./.U 8./ ` ",
"`.`.V t.$.=.' H H ' ' ' H H H { { { H { H H H H H H H H H H H H H H &.` R.].Q B =.=.=.' ' ' ' ' i.=.&.[./ q.0.T.Q.Q.Q./.0.8.( #.",
"`.`.V t.=.=.H H H ' H H H H { { H { { H H H H H H H H H H H H H H H H X.I M M L ` B ' ' ' ' ' ' &.&.M.#.( o.O./.Q.Q.W.0.G.z.z *.",
"{.`.V V $.=.' H H H ' H H H { { { H { H { H H H H H H H H H H H H H &.=.L ~ w Q I L =.' ' ' H H M.^ #.( }.<.O.0.Q.W.0.0.U j.z #.",
"|.4.V V =.=.' H ' H H H H { H { H { H { H H H H H H H H H H H H H ' ' &.`  Xd .XQ L X.=.&.' H H ^ #./ ( 8.<.@.2.P.T./.0.G.j.( #.",
"XXoXt.V V ' ' H H ' H H H { H { { H { H H H H H H H H H H H H H H ' ' &.X.Q w J...I ` M.=.&.' OXm.( z I.U.+X+X<.e E @X. . j.z m.",
"|.& t.V ' ' ' H H H H H H H { H H H H H { H H H H H H H H H H ' ' ' ' =.&.*..X#Xx ..m.*.` *.m./ I.9.+X$X$X+XU.U.9.%X. &Xj.*X .*.",
"4.t.V V ' ' H ' ' H H H H H { H { H { H H H H H H H H H H H H H ' ' ' =.' X.u.#X~ =X..( z }.-X;X:X:X:XX j.=X( ( z z =X=X) 6.m.^ ",
">Xd.V V ' ' ' H H H H H { H H H H H H H H H H H H H H H ' H ' H ' ' ' ' H &.y.6.) ~ F.I.W ,Xl.l.,X+X%X8.( m.#.[.^ ^ ^ ` *.` ^ &.",
">Xd.V ' ' ' ' ' H H H H H H H H H H H { H H { H H H H H H H H ' ' H ' ' H &.c.R.<Xj.&Xn.k.1X1X1Xs.s l  .*.M.X.=.&.=.&.&.M.X.&.H ",
">Xh.V ' V ' ' H H H H H H H H H H H H H H H H H H H H H H ' ' H ' ' ' ' H &.c.m.<X2X@XL.3X3X4X4XW l ~ Q X.&.H =.' H H ' =.&.H { ",
"5Xx.=.' ' ' ' ' ' H H H H H H ' H H H H H H H H H H H H H ' H ' ' ' ' H H M.H. .}.s.l.3X4X4X4XC.l ~ Q ` &.H ' ' ' ' ' H H H H { ",
"6Xe.=.' ' V ' ' H H H H H H ' ' H H H H H { H H H H H H ' H ' ' ' ' ' H H M.) j.9.<.3X4X/.Z.0.Z.a._ ^ &.H ' H H ' H H H H H { { ",
"7XY.X.' ' ' ' ' H H H H H ' ' ' ' H H H H H H H { H H H H ' ' ' H ' H H H m.}.!.k.3X8X4X/.Z.Z.2X( *.&.&.' H ' H ' ' H H H { { { ",
"5 J c.&.' ' ' ' H H H H H ' ' ' ' H H H H H H H H H H H ' H ' ' ' H ' &.^ x . k.T.Q.8XW.C.s.l <Xm.^ &.&.&.' H ' H H H { { { 9X{ ",
"0XqX` =.' ' ' ' ' H H H ' ' ' ' ' H H H H H { H { H H H H H ' H ' H ' ^ / j.!.1XW.W.4X8Xl.!.wXQ ^ M.&.&.H H H H H H H H { { { 9X",
"eXm *.M.X.' ' ' ' ' ' ' ' ' ' ' H H H H H { H H { H H H H H ' H H ' X.*.x s.,XO.Z./.4X4Xn.2XJ._ =.=.H H H H H ' H H H H { { 9X9X",
"rXl m.` ` =.=.' ' ' H ' ' H ' ' H H H H H H H { H { H H H H H =.H &.^ / 8.s.@Xn././.4X4Xn.2Xx L =.=.' H H H H H H H H H H { { 9X",
"tXs / m.I X.X.=.B ' ' ' ' H ' H ' H H H H { H H H H { H H H ' &.=.M.m.q.Z.O./.O.0.C.4X3Xn.F. X` =.H ' H H H H H ' H H H { { 9X9X",
"o X z Q I ` L P ` X.=.&.' ' H ' ' H H H H H H H ;.H ;.H H H H &.M.m.( U /.4X/.0.0./.4Xk.s.F.I ^ =.=.H H H H H H H H H H { { { 9X",
"tX,X..x ..Q I R.L ` =.=.H H H ' H ' ' H H H H H H H H H H H &.` ( I.Z.W.8XyXT.0.0.0.4Xk.2X.X*.X.H H H H H H H H H H H { { { 9X9X",
"rX-X..x M ..uX XQ ` X.&.H ' H H ' ' ' H ' H H H H ;.;.H H &.} iXX pXR aX(.(.W.U U U O.,XW ( ` X.' H H H H { H H H H H H { { 9X9X",
"rX-X/ ...X .sX X_ L X.=.=.H H H ' ' ' ' H H H H [ H H H &.X.x.~ e R r dXfX8X/.U U U s.. l Q M.&.H H H H { H H { H { H { { { 9X9X",
"@ ;XQ / Q Q  X) uXI ^ X.X.' H H ' ' H ' H ' H H H H H H =.&.^ I o.1XdXdXgXQ./.0.o.j.. -XwXy.=.' H H H H H H { H H H H { { { 9X9X",
"hX~ *.*.L I R.I R.R.L X.=.H ' -.' ' ' =.H =.H &.&.H H &.&.&.X.*.q.0.T.aXaX1X<.&XU.j.jX~ R.M.H H H H H { H { H { H H { H { 9X9X9X",
"f Q ` X.^ ` *.` y.y.c.X.' ' -.' H H ' y.` L ^ ` M.&.&.&.&.H M.^ q.U 2.1XE @X%X-XkX~ ) m.` &.H H H H H H { H { H H H H { { { 9X9X",
"0 L &.=.=.=.=.=.X.X.X.=.' -.' [ H =.X.u.6.~  X .*.` M.&.&.X.L Q j.U.,Xn.s.z.<X) u.lX^ X.&.=.' [ H H H { H H H H H { H { { { 9X9X",
"zXL =.H =.=.&.H H &.=.=.' ' ' H =.M.` M wXm l wXx ( I ` ^ L V.xX*Xl l 8.z / *.^ X.X.&.&.M.X.v.H H H H H H { H H H H H H { { 9X9X",
"cX` ' ' ' H ' H ' H ' ' ' ' ' H =.^ *.<X}.,X2X2X-Xl ~ Q L L h.q u.| / I *.^ &.&.H &.=.X.` X.B i.' ' H H H H H H H H H { { { 9X9X",
"L =.' =.' H ' ' H H ' =.H ' ' ' M.^ m.J.I.2XU W s.-X}.x R.I ` ` X.X.X.M.X.&.=.' =.X.X.` ` ` c.>.=.=.&.H H H H H H H H H { { { 9X",
"%.P $.=.' H ' ' H ' ' ' ' ' ' =.M.m.( j.z.Z.0.Z.W U J...I I ` X.X.X.X.=.=.=.=.' 1 :.P L L L c.B =.' ' H H H H H ' ' H H H { 9X9X",
"7X^.$.' ' ' ' H H ' H ' ' &.' =.*. .a.!.0././.4X/.W q.m.*.L L B B X.X.X.X.B =.i.b.y.L I N L ` X.=.' ' H H H H ' ' ' ' H { { { 9X",
"vX2 ' ' V ' ' ' ' ' ' H H H H &.m.z U.@XY 8XQ.W.0.8.( m.^ ` ` ` ` P =.=.B $.B >.R.u. XQ Q Q N B ' ' =.=.=.=.=.$.' ' ' ' H { { 9X",
"bXS.D.V ' ' ' ' H ' H H H { &.M.) j.!.L.aXaXyXyXZ.8.( *.X.=.X.B ` ` B =.$.X.X.R.I M jXjXm 0 h % w.7.P ` ` B X.$.' V ' ' H { { 9X",
"nXB.D.[ ' ' ' ' H H H H H H ^ *.<Xl . k.yXaXaX1Xl.. w  XL L L L I Q L L ` B X.I _ ~ jX*XM '.q mXMXw.w.c.L I L B B $.' H ;.;.9X9X",
"NXB.[ ' H H ' H H H H H { &.c.R..Xd W W C.k.1Xk.s -Xd ].! N N  X.XM M uXN ` ` I =X<Xx m.^ M.X.=.:.7.c.` R.cXcX! } :.' H ;.{ 9X9X",
"bXS ' [ [ ' H H { H { { H M.*._ Q J.F.z.C.C.n.Z.d d M '.uX! ].%.w d 0 ~ iX6.Q ( =X( / #.^ M.;.H H ' =.X.R.cXg BXd.b.=.H { ;.9XVX",
"CXC ' [ ' H H ;.H { H { &.^ R./ Q ..J.z.z.W z.F.x  Xu.R.R.N uXM  XM M M ~ M M }.}.z m.[.p.M.[ -.H H =.&.` h.V.% h.>.H { { 9X9XVX",
"ZX* ' ' H H H -.H { H &.^ L I  ...( ..q.J.x / / ^ ^ &.M.=.^ ` ` L I I I !  X.Xl l 8./ [.OX{ ;.' H H =.H =.^ y.} d.c.=.{ { 9X9XVX",
"t.V V V ' ' ' { H H H M.L _  X X=X/ ( =Xz m.^ p.^ M.OX{ &.M.X.M.X.` ` ` ` *...wX}.8.q.( *.&.H H H H H &.&.' ` } x.b.X.H { 9XVXVX",
"AX& ' ' ' H H H H &.M.L I I Q ..Q _ m.*.^ OXOX&.{ { H &.{ &.&.&.&.&.' =.B ` Q d -X. }.a.*.{ H H H H H H H ' =.B } P M.&.{ 9X9X9X",
"cXP V ' ' ' ' H H &.` R.Q  XsXM I y.*.X.&.H H { H H { H H { H H H H ' ' =.B I wX-X&X8.q.m.&.H H H H H H H H =.B h.c.=.{ { 9X9XVX",
"g L =.' ' H ' H &.` L I I Q Q N ` B =.H H H H ' H H ' H H H H H H H H ' =.=.` M wXl 8..Xm.M.=.H H H H H H H H =.d.y.X.H { 9X9X9X",
"SXQ =.=.H H =.=.X.R.u. XI I L ` X.' ' H ' ' H -.[ H -.H H H H H H H H H ' &.` 6.wX}.<Xa./ &.H H H { { { { { H &.d.y.^ M.OXOX9XVX",
"eXiX^ M.&.&.X.y.h.].xXM 6.R.` M.&.H H H H -.-.;.;.H ;.H ;.H H { ;.;.-.;.H H M.| ) *X<X<X_ M.&.H { { { { { { H M.V.h.*.M.p.9X9XVX",
"DXkXp.{ OX&.X.} Y.iXxX) V.,.M.OX{ { { { -.;.;.;.{ ;.{ { { { 9X{ { OX;.;.;.{ &.,.FX) <X<X| M.H { { 9X9X;.{ 9X&.p.V.h.*.^ OX9X9XVX",
"7 GXp.OX9X{ M.>.V.| y.,.` p.9X9X9X9X9X9X9X9X9X9X9X9X9XVX9XVX9XVX9X9X{ { { { 9Xp.[./ lXFX,.OXH { 9X9X9X9X9X9X{ OX^ #.#.[.OXVXVXVX",
"HXJXp.OXOX{ &.M.` &.{ OX{ 9X9X9X9X9X9X9XVX9XVX9XVXVXVXVXVXVXVXVX9X9X9X9X9X{ 9XOXVXp.p.[.&.9X{ { 9X9XVX9X9X9X9X{ OXp.#.#.[.9XVXVX"};
