/* XPM */
static char * image_name[] = {
"48 48 234 2",
"  	c None",
". 	c #909050502F2F",
"X 	c #FFFF87874040",
"o 	c #70708787A0A0",
"O 	c #40406767DFDF",
"+ 	c #2F2F6767B0B0",
"@ 	c #50506767CFCF",
"# 	c #FFFF87875050",
"$ 	c #505050505050",
"% 	c #404050506060",
"& 	c #2F2F4040CFCF",
"* 	c #70709797DFDF",
"= 	c #80809797EFEF",
"- 	c #1F1F5050A0A0",
"; 	c #40405050A0A0",
": 	c #FFFFFFFFFFFF",
"> 	c #B0B0D8D8EFEF",
", 	c #A0A0B8B8FFFF",
"< 	c #B0B0C8C8EFEF",
"1 	c #DFDFD8D8EFEF",
"2 	c #2F2F5050EFEF",
"3 	c #A0A0C8C8EFEF",
"4 	c #80809797CFCF",
"5 	c #2F2F6767DFDF",
"6 	c #60608787DFDF",
"7 	c #DFDFEFEFEFEF",
"8 	c #B0B0B8B8EFEF",
"9 	c #9090B8B8FFFF",
"0 	c #FFFF97974040",
"q 	c #CFCFD8D8EFEF",
"w 	c #60607777EFEF",
"e 	c #40407777DFDF",
"r 	c #60607777DFDF",
"t 	c #CFCFC8C8EFEF",
"y 	c #1F1F4040CFCF",
"u 	c #1F1F5050DFDF",
"i 	c #606067678080",
"p 	c #1F1F4040DFDF",
"a 	c #2F2F5050DFDF",
"s 	c #909050501F1F",
"d 	c #70709797FFFF",
"f 	c #50508787DFDF",
"g 	c #A0A0B8B8EFEF",
"h 	c #A0A0A8A8EFEF",
"j 	c #9090A8A8EFEF",
"k 	c #50507777DFDF",
"l 	c #0F0F5050DFDF",
"z 	c #70708787EFEF",
"x 	c #9090B8B8EFEF",
"c 	c #1F1F4040B0B0",
"v 	c #8080A8A8B0B0",
"b 	c #0F0F20206060",
"n 	c #0F0F0F0F4040",
"m 	c #000000000F0F",
"M 	c #0F0F0F0F2F2F",
"N 	c #0F0F20204040",
"B 	c #0F0F20207070",
"V 	c #0F0F4040CFCF",
"C 	c #0F0F20205050",
"Z 	c #CFCFD8D8CFCF",
"A 	c #FFFFEFEFFFFF",
"S 	c #8080A8A8EFEF",
"D 	c #1F1F4040A0A0",
"F 	c #000000000000",
"G 	c #000020205050",
"H 	c #0F0F30309090",
"J 	c #0F0F4040B0B0",
"K 	c #0F0F3030A0A0",
"L 	c #0F0F30306060",
"P 	c #1F1F30306060",
"I 	c #0F0F20202F2F",
"U 	c #90909797B0B0",
"Y 	c #EFEFFFFFEFEF",
"T 	c #404040409090",
"R 	c #2F2F5050CFCF",
"E 	c #DFDFC8C8EFEF",
"W 	c #1F1F30309090",
"Q 	c #2F2F5050B0B0",
"! 	c #0F0F30308080",
"~ 	c #1F1F20205050",
"^ 	c #707067676060",
"/ 	c #B0B0C8C8FFFF",
"( 	c #7070A8A8DFDF",
") 	c #0F0F0F0F5050",
"_ 	c #60609797EFEF",
"` 	c #EFEFEFEFFFFF",
"' 	c #404050507070",
"] 	c #2F2F40406060",
"[ 	c #404050508080",
"{ 	c #9090A8A8DFDF",
"} 	c #A0A0A8A8DFDF",
"| 	c #0F0F40409090",
" .	c #B0B0C8C8B0B0",
"..	c #404020201F1F",
"X.	c #40407777CFCF",
"o.	c #00000F0F2F2F",
"O.	c #0F0F00000F0F",
"+.	c #2F2F6767CFCF",
"@.	c #2F2F30305050",
"#.	c #0F0F0F0F1F1F",
"$.	c #50505050A0A0",
"%.	c #0F0F5050CFCF",
"&.	c #80808787CFCF",
"*.	c #40400F0F1F1F",
"=.	c #2F2F20200F0F",
"-.	c #90909797DFDF",
";.	c #60609797DFDF",
":.	c #404067678080",
">.	c #50506767A0A0",
",.	c #EFEFEFEFEFEF",
"<.	c #40404040CFCF",
"1.	c #50506767DFDF",
"2.	c #CFCFB8B8EFEF",
"3.	c #80809797B0B0",
"4.	c #0F0F00001F1F",
"5.	c #1F1F5050CFCF",
"6.	c #2F2F4040DFDF",
"7.	c #1F1F20201F1F",
"8.	c #808077777070",
"9.	c #A0A09797A0A0",
"0.	c #40400F0F0F0F",
"q.	c #000000001F1F",
"w.	c #EFEFD8D8FFFF",
"e.	c #1F1F6767CFCF",
"r.	c #404040405050",
"t.	c #909097979090",
"y.	c #EFEFFFFFFFFF",
"u.	c #40406767B0B0",
"i.	c #00000F0F1F1F",
"p.	c #9090A8A8CFCF",
"a.	c #1F1F0F0F1F1F",
"s.	c #606077776060",
"d.	c #707067677070",
"f.	c #505067675050",
"g.	c #1F1F0F0F0F0F",
"h.	c #70707777A0A0",
"j.	c #1F1F40405050",
"k.	c #2F2F40404040",
"l.	c #808087878080",
"z.	c #1F1F20200F0F",
"x.	c #A0A0A8A8CFCF",
"c.	c #A0A0B8B8DFDF",
"v.	c #80809797DFDF",
"b.	c #50507777A0A0",
"n.	c #DFDFD8D8FFFF",
"m.	c #8080A8A8DFDF",
"M.	c #707077777070",
"N.	c #606067676060",
"B.	c #404040408080",
"V.	c #70709797B0B0",
"C.	c #9090B8B8DFDF",
"Z.	c #707077779090",
"A.	c #000020202F2F",
"S.	c #CFCFB8B8CFCF",
"D.	c #1F1F3030B0B0",
"F.	c #404050509090",
"G.	c #0F0F00002F2F",
"H.	c #2F2F30302F2F",
"J.	c #1F1F40409090",
"K.	c #1F1F30305050",
"L.	c #000020206060",
"P.	c #70709797CFCF",
"I.	c #1F1F6767DFDF",
"U.	c #404050504040",
"Y.	c #A0A0A8A8A0A0",
"T.	c #60608787CFCF",
"R.	c #2F2F40408080",
"E.	c #00000F0F0F0F",
"W.	c #808040402F2F",
"Q.	c #A0A0B8B8A0A0",
"!.	c #2F2F40409090",
"~.	c #50508787CFCF",
"^.	c #40406767EFEF",
"/.	c #0F0F4040A0A0",
"(.	c #505067676060",
").	c #9090A8A89090",
"_.	c #DFDFC8C8DFDF",
"`.	c #DFDFEFEFDFDF",
"'.	c #606050506060",
"].	c #707077776060",
"[.	c #A0A08787A0A0",
"{.	c #B0B067676060",
"}.	c #FFFFB8B89090",
"|.	c #FFFFA8A8A0A0",
" X	c #1F1F40407070",
".X	c #1F1F30308080",
"XX	c #0F0F30305050",
"oX	c #1F1F20204040",
"OX	c #707087877070",
"+X	c #B0B0B8B8CFCF",
"@X	c #B0B067677070",
"#X	c #EFEFB8B8A0A0",
"$X	c #FFFFB8B8A0A0",
"%X	c #1F1F20202F2F",
"&X	c #404030304040",
"*X	c #606077777070",
"=X	c #2F2F20202F2F",
"-X	c #808077778080",
";X	c #A0A067676060",
":X	c #EFEF97978080",
">X	c #EFEF87878080",
",X	c #A0A0A8A89090",
"<X	c #DFDFD8D8DFDF",
"1X	c #CFCFC8C8CFCF",
"2X	c #808097978080",
"3X	c #A0A077776060",
"4X	c #DFDF97979090",
"5X	c #EFEF87879090",
"6X	c #909067676060",
"7X	c #00000F0F0000",
"8X	c #606067675050",
"9X	c #606050505050",
"0X	c #EFEFD8D8EFEF",
"qX	c #EFEF97979090",
"wX	c #606040402F2F",
"eX	c #606030302F2F",
"rX	c #DFDF97978080",
"tX	c #606040404040",
"yX	c #404020202F2F",
"uX	c #2F2F30301F1F",
"iX	c #404030301F1F",
"pX	c #2F2F20201F1F",
"aX	c #505040402F2F",
"sX	c #505030302F2F",
"dX	c #505030304040",
"fX	c #707050505050",
"gX	c #DFDF77778080",
"hX	c #606030304040",
"jX	c #808040405050",
"kX	c #808050504040",
"lX	c #808050505050",
"zX	c #CFCF87877070",
"xX	c #707050504040",
"cX	c #9090A8A8A0A0",
"                                                                                                ",
"                                                                                            . X ",
"                    o O + @                                                               . X # ",
"    $ $ $ $ $ $ $ % & * = - ; $ $ $ $ $ $ $ $ $ $ $ $ $ $ $ $ $ $ $ $ $ $ $ $ $ $ $ $ $ . X X X ",
"    $ : > , < 1 > 2 3 < 3 4 5 6 7 8 9 : : : : : : : : : : : : : : : : : : : : : : : : . 0 # 0 . ",
"    $ q w e r 5 O < t 6 y u i 5 p 5 a 6 : : : : : : : : : : : : : : : : : : : : : : . X X X . s ",
"    $ d f g g h 3 j k p u u l z 3 < x c v : : : : : : : : : : : : : : : : : : : : . X # 0 . s . ",
"    $ 6 j < y p y b n m M N B p p V p C ; Z A : : : : : : : : : : : : : : : : : . X X X . s . s ",
"    % r x S l D F m G H J K L P J p u C I U Y : : : : : : : : : : : : : : : : . 0 # 0 . s . . . ",
"    T u t k H F M R h < E < g f W Q p ! ~ $ ^ $ $ $ : $ F $ $ $ : $ $ $ $ : . X X X . s . s . s ",
"  @ 5 / ( y m ) _ ` 7 ' ] [ { } | r 5 p ' R  .A : : : : : : : : : : : : : . X # 0 . s . . . s ..",
"@ X.t g O o.O.+.` q @.F b #.$.4 n %.&.y p 4 R $ F $ $ : : : : : : : : : . X X X . s . s . s *.=.",
"+ g x y l F | g 7 -.F D u u l b o.p ;.6 %.p :.>.,.: : : : : : : : : : . 0 # 0 . s . . . s ..=...",
"<.* 1.%.c F p 1 2.3.4.5.p 5.p 5.6.5.a { y u 4.7.8.$ $ F $ $ $ $ 9.: . X X X . s . s . s 0.=...=.",
"  y 4 p | q.l w.x U G u u u 5.p u p e.8 l ! F r.t.,.y.: : : : : : . X # 0 . s . . . s ..=...=...",
"  u.a k y i.p t j p.) u p 5.p y p V O q y F a.s.d.f.$ $ F : 9.: . X X X . s . s . s *.=...=.*.g.",
"  h.5 g l M l z 3 j j.p %.p 5 ` l p ;.g | q.k.l.Z ,.y.: : : : . 0 # 0 . s . . . s ..=...=...z.  ",
"  u.= < p b y %.x.c.v.b.p e n.c.m u g m.c i.d.M.N.f.$ $ 9.: . X X X . s . s . s 0.=...=.0.g.    ",
"  & 3 = %.u ] p l B.V.-.> n.C.Z.A.= 3 a u M ' S.Y : : : : . X # 0 . s . . . s ..=...=...z.N.    ",
"  X.j O p 5.D.F.p 5.W n M F G.N @ < z p a m @.M.,.$ 9.: . X X X . s . s . s *.=...=.*.g.H.s.    ",
"    J.K.L.c l O P.p l p l p I.h 3 = J H A.F U.Y.,.: : . 0 # 0 . s . . . s ..=...=...z.F H.d.    ",
"    $ T.R.N @ %.p * g m.j g t g O n F E.#.H.M.M.9.: . X X X . s . s . s 0.=...=.0.g.W.F H.N.    ",
"    $ ` Q.!.~.^.%.p l ^.* w e.p /.F I r.(.l.)._.Y . X # 0 . s . . . s ..=...=...z.W.: F H.N.    ",
"    $ : A `.& v.p 5.B i.n ! p u M E.'.M.Y.].[.,.{.}.|.X . s . s . s *.=...=.*.g.W.: : F H.s.    ",
"    $ : : : x O L n F #. X.XXXn F oXOX+X`.` Y @X#X$X$X. s . . . s ..=...=...z.W.: : : F H.^     ",
"    $ : : : $ (.@.%X&Xs.M.*XF.I =XN.-XN.g.$ : ;X|.$X$X:X>X>X. s 0.=...=.0.g.W.,X$ : : F H.s.    ",
"    $ : : : : : <XY.t.Y.Z <X1X9.2X9.1X` y.: 3X$X$X$X4X5X>X@X6X..=...=...z.W.: : : : : F H.N.    ",
"    $ : : : $ $ $ 7X'.8X'.f.9X$ 0X`.'.$ : : {.$X|.:XqX>X{.wXeX=...=.*.g.W.: : : : : : F H.N.    ",
"    $ : : : : : : : : : y.: : : y.: y.: : @X$X$X4X>XrX@XtXyXuX..iX..z.W.: : : : : : : F H.N.    ",
"    $ : : : : : : : : : $ $ : $ $ F $ ,X: {.$X:X>X>X{.wX..pX..iXeXg.W.: : : : : : : : F H.N.    ",
"    $ : : : : : : : : : : : : : : : : : 3X$X$X5X>X@XaXyXuXyXsXdXfX;X: : : : : : : : : F H.N.    ",
"    $ : : : $ $ F $ $ $ $ F $ $ : $ 9.: {.}.gX>X{.aX..pXhXsXjXkXgX: : $ $ $ : : : : : F H.N.    ",
"    $ : : : : : : : : : : : : : : : : @X4XgX3XlXaX=XuXeXfXlXzX: : : : : : : : : : : : F H.N.    ",
"    $ : : : F F $ $ : $ $ $ $ $ $ : Y.;XgX{.lXsX..sXjXxXgX: : : : : : : : : : : : : : F H.N.    ",
"    $ : : : : : : : : : : : : : : : F @XfXeXpXyXaXlXzX: : : : : : : : : : : : : : : : F H.N.    ",
"    $ : : : $ $ $ : $ F $ $ $ Y.: $ F F ..pXeXkXgX: : : : : : : : : : : : : : : : : : F H.N.    ",
"    $ : : : : : : : : : : : : : : F F g.F dX6X: : : : : : : : : : : : : : : : : : : : F H.N.    ",
"    $ : : : : : : : : : $ $ $ : $ F F F $ Y.Y.: $ F $ $ $ $ : $ F $ $ $ $ $ : : : : : F H.N.    ",
"    $ : : : : : : : : : : : : : F F $ : : : : : : : : : : : : : : : : : : : : : : : : F H.N.    ",
"    $ : : : F : $ $ F $ $ $ : $ F $ $ $ F $ $ $ $ : $ $ : $ $ $ : $ $ $ F $ $ $ : : : F H.N.    ",
"    $ : : : : : : : : : : : : : cXY.Y.Y.cX: : : : : : : : : : : : : : : : : : : : : : F H.N.    ",
"    $ : : : : : : : : : : : : : : Y.Y.,X9.Y.Y.,X: : : : : : : : : : : : : : : : : : : F H.s.    ",
"    $ : : : : : : : : : : : : : : : cXY.Y.Y.cXY.Y.Y.cX: : : : : : : : : : : : : : : : F H.N.    ",
"    $ : : : : : : : : : : : : : : : : Y.Y.,X9.Y.Y.,X9.Y.Y.,X: : : : : : : : : : : : : F H.s.    ",
"    $ F F F F F F F F F F F F F F F F F F F F F F F F F F F F F F F F F F F F F F F F F H.d.    ",
"      H.H.H.H.H.H.H.H.H.H.H.H.H.H.H.H.H.H.H.H.H.H.H.H.H.H.H.H.H.H.H.H.H.H.H.H.H.H.H.H.H.H.N.    ",
"        N.N.N.N.N.N.N.N.N.N.N.N.N.N.N.N.N.N.N.N.N.N.N.N.N.N.N.N.N.N.N.N.N.N.N.N.N.N.N.N.N.d.    ",
"                                                                                                "};
