/* XPM */
static char * image_name[] = {
"48 48 131 2",
"  	c None",
". 	c #808087878080",
"X 	c #505050505050",
"o 	c #707077777070",
"O 	c #404040402F2F",
"+ 	c #505040404040",
"@ 	c #606067675050",
"# 	c #606050505050",
"$ 	c #404040404040",
"% 	c #808087877070",
"& 	c #808077777070",
"* 	c #808097978080",
"= 	c #707077778080",
"- 	c #606067676060",
"; 	c #606077777070",
": 	c #B0B0A8A8A0A0",
"> 	c #DFDFC8C8CFCF",
", 	c #909097978080",
"< 	c #A0A0A8A89090",
"1 	c #B0B0A8A89090",
"2 	c #A0A097978080",
"3 	c #909097979090",
"4 	c #909087878080",
"5 	c #808077778080",
"6 	c #606077776060",
"7 	c #9090A8A89090",
"8 	c #A0A0A8A8B0B0",
"9 	c #B0B0C8C8B0B0",
"0 	c #EFEFEFEFEFEF",
"q 	c #FFFFFFFFFFFF",
"w 	c #FFFFEFEFEFEF",
"e 	c #707077776060",
"r 	c #CFCFA8A8A0A0",
"t 	c #DFDFC8C8B0B0",
"y 	c #EFEFD8D8DFDF",
"u 	c #EFEFEFEFFFFF",
"i 	c #CFCFC8C8CFCF",
"p 	c #B0B0B8B8B0B0",
"a 	c #DFDFD8D8EFEF",
"s 	c #EFEFFFFFFFFF",
"d 	c #FFFFEFEFFFFF",
"f 	c #CFCFB8B8A0A0",
"g 	c #EFEFEFEFDFDF",
"h 	c #DFDFB8B8B0B0",
"j 	c #505067675050",
"k 	c #707067676060",
"l 	c #A0A097979090",
"z 	c #DFDFD8D8DFDF",
"x 	c #FFFFFFFFEFEF",
"c 	c #505040405050",
"v 	c #606067679090",
"b 	c #505050506060",
"n 	c #DFDFB8B8CFCF",
"m 	c #2F2F30304040",
"M 	c #A0A0B8B8A0A0",
"N 	c #606040405050",
"B 	c #404050509090",
"V 	c #2F2F30306060",
"C 	c #CFCFC8C8B0B0",
"Z 	c #1F1F20201F1F",
"A 	c #CFCFD8D8CFCF",
"S 	c #A0A0A8A8A0A0",
"D 	c #1F1F20202F2F",
"F 	c #1F1F30305050",
"G 	c #505040409090",
"H 	c #2F2F30305050",
"J 	c #EFEFD8D8EFEF",
"K 	c #2F2F20202F2F",
"L 	c #707067677070",
"P 	c #CFCFB8B8CFCF",
"I 	c #EFEFC8C8DFDF",
"U 	c #0F0F0F0F1F1F",
"Y 	c #1F1F20205050",
"T 	c #90909797A0A0",
"R 	c #707087877070",
"E 	c #2F2F30302F2F",
"W 	c #9090A8A8A0A0",
"Q 	c #505050504040",
"! 	c #000030306060",
"~ 	c #2F2F30301F1F",
"^ 	c #A0A087878080",
"/ 	c #B0B0B8B8CFCF",
"( 	c #60600F0F0F0F",
") 	c #CFCFC8C8DFDF",
"_ 	c #808097979090",
"` 	c #50500F0F0000",
"' 	c #CFCFB8B8B0B0",
"] 	c #707030302F2F",
"[ 	c #606000000F0F",
"{ 	c #2F2F40402F2F",
"} 	c #707050506060",
"| 	c #707050504040",
" .	c #707040405050",
"..	c #60600F0F0000",
"X.	c #606000000000",
"o.	c #707050505050",
"O.	c #909077777070",
"+.	c #B0B0B8B8A0A0",
"@.	c #909077778080",
"#.	c #FFFFD8D8EFEF",
"$.	c #B0B097979090",
"%.	c #606050504040",
"&.	c #50500F0F0F0F",
"*.	c #B0B09797A0A0",
"=.	c #606030302F2F",
"-.	c #606050506060",
";.	c #A0A09797A0A0",
":.	c #B0B0A8A8B0B0",
">.	c #DFDFD8D8CFCF",
",.	c #EFEFC8C8CFCF",
"<.	c #DFDFEFEFEFEF",
"1.	c #EFEFFFFFEFEF",
"2.	c #909087879090",
"3.	c #1F1F30301F1F",
"4.	c #1F1F0F0F1F1F",
"5.	c #1F1F20200F0F",
"6.	c #404030304040",
"7.	c #1F1F30302F2F",
"8.	c #0F0F0F0F0F0F",
"9.	c #2F2F20201F1F",
"0.	c #1F1F20204040",
"q.	c #0F0F0F0F2F2F",
"w.	c #0F0F20202F2F",
"e.	c #0F0F20201F1F",
"r.	c #1F1F0F0F2F2F",
"t.	c #0F0F0F0F4040",
"y.	c #2F2F40405050",
"u.	c #404040407070",
"i.	c #505050508080",
"p.	c #2F2F40406060",
"a.	c #505040408080",
"                                                                                                ",
"                                                                                                ",
"                                                                                                ",
"                                                                                                ",
"                                                                                                ",
"      . X                                                                           X o         ",
"      . O + @                                                                 o # # $ o         ",
"      . X % & @ o *                                                   = o - ; . : > . o         ",
"      . # , < 1 < 2 , 3 , , 4 . 5 o & o .             o 6 o . . . . , 7 8 9 0 q w w 4 o         ",
"      e # , < r t t y y 0 0 0 u 0 i p . % o       @ o 3 p i a s d d d q q q q q w 0 . X 5 .     ",
"    3 - # , < f t t y g 0 0 0 0 0 0 0 h f . o o j k l z 0 0 0 u d d d q q q q q x 0 . X c -     ",
"v b . - # , % 4 t n y y 0 0 0 0 w w 0 t f 4 o $ m & r y 0 0 w w d q q q q q d p M w 4 & X N b c ",
"B V C - # , , o . , f 0 0 0 0 0 x 0 0 > f , & $ Z e : y 0 0 u d u s q q A S . 3 z 0 . o X X D F ",
"G H z - # , < r r l l , . % % . 3 9 J t f , & $ K L r J 0 n C 3 . . . 3 S P I 0 w g . & c N U Y ",
"B V z - # , e o P t y 0 0 0 q a T R * q 7 , % $ E o 0 M . R S q s q q d q q s W 7 0 . o X Q U ! ",
"G H z - # , < % e . < y g 0 d 0 0 w 0 q % , & $ ~ & 0 w 0 0 0 q w 0 0 w i * . , w g 4 & X N U Y ",
"B V z - # , , 1 f < < 7 S ^ ^ / W i ( q r , & $ E o 0 k z ) i > 4 p _ W p z 0 J z 0 . o X X U F ",
"G H z - # , . & 1 p > y ^ ` ^ z ' ] [ q 4 , % $ { & J } | i i >  .4 J q 0 z i 3 M 0 . & c N U F ",
"B V z - # , < , , , > ^ ..( ^ h ] X.` q , , % $ $ . 0 k | o.' >  . .4 J 9 S S ' x w 4 & X X U F ",
"B V z - # , . , ' > O.` ( o.^ ] [ [ ` q y > C S S i d ' +.: ' 0 : @. .4 ) 0 0 i p #.4 & X X U F ",
"G H z - # , , & y } ` (  .$.] X.[ ` [ o.} o.} } } } o.} o.} o.} $.1  .| @.q 7 * > J . & c N U F ",
"B V z - # , < > } ` [ | r ] ` ..` [ ` ( ` [ ` ..` ` ( ` [ ` ( ` O.: %.o.# & z J x 0 . o X Q U F ",
"G H z - # 2 > } ..[ ] > ( [ X...[ ..[ ..[ ..[ ..X.[ ..[ ..[ ..[ O.1  .|  .| & 0 3 g 4 & X N U Y ",
"B V z - # , < 0 ] &.[ o.' &.` X.&.[ ` [ &.[ ` [ &.` [ &.[ ` [ &.O.*. .o.#  .q 3 0 J . o X X U ! ",
"G H z - # 2 l r w ] ` ( k $.( ..[ ` [ ] ] =.] ] ] ] ] ] =.] ] ] O.1  .| } d J 0 g g . & c N U Y ",
"B V z - # 2 & & : y ] ` ( O.^ ] ` [ ` q y 0 y z z y q y z z y d z ^ %.k y 0 z 3 M 0 . o X Q U F ",
"G H z - # l < 4 . , z  .X.( $.$.] ..[ q 4 , % $ O % 0 } |  .$.>  . .& i P 7 3 +.w #.4 & X N U F ",
"B V z - -.l 4 l f +.f y } &.^ 0 l ( ` q 1 , % $ O & 0 k | S z >  .& z ) i J 0 i i J . & X X U F ",
"B V z - -.l 4 & , S ' 0 y } ^ 0 0 : ( q . , % $ O & 0 k : d i > & z q q z P S 3 i 0 . & X X U F ",
"G H z - # 2 < < < , l S < ;.I i :.i f q < , % $ O % 0 i d > >.w p 7 < S M p ' >.w w 4 & X N U F ",
"B V z - # l : f ,.> > A z z q ) 3 . 7 q < , % + O % 0 9 ;.. 8 q 0 z z 0 0 d s d w J . o X X U F ",
"G H z - -.l f h ,.,.y J 0 0 0 J 0 z J , % , % $ O & . 3 J I 0 0 w w d q d q d w #.g . & c N U Y ",
"B V z - # , +.f ,.>.y 0 0 0 0 0 0 a 0 > f , % + $ . : <.0 0 0 u u q q q q q 1.u 0 J . o X Q U ! ",
"G H z e - 2 r f ,.,.y J 0 0 0 0 J J 0 t f , % $ O % r 0 0 0 0 w d q d q q w z p * e X 4 X N U Y ",
"B V z ;.p o . . l f ' p p p p i i i ) n f , % $ { & : 0 y z i i i p p 8 * . R - X k 7 +.X X U F ",
"G H z < d J :.2.o X $ E 3.Z Z ~ $ Q - & , . % $ E & 2 +.& k Q O ~ Z Z 3.E X = 7 : f f f c N U F ",
"B V z S w i p 7 5 b X { E Z Z Z Z Z 4.5.{ X e O E - X { 5.4.Z Z Z Z Z E { Q b & % , < f X X U F ",
"B V z o & X $ E 3.Z Z 3.Z Z Z Z Z Z Z 5.Z Z $ 6.Z O Z Z 5.U Z 3.E Z Z D Z Z Z ~ E + c @ E X U F ",
"G Y - E D Z Z 3.Z K 7.3.E D Z 3.3.3.E E Z 7.E K 8.Z 9.E Z D Z 7.7.Z E D 7.3.E 3.7.3.Z 5.Z E 8.F ",
"B 0.U q.D D q.w.q.w.q.w.w.e.e.e.U U e.Z e.D 7.D D 3.7.3.D e.U U w.e.w.q.w.q.w.q.w.D w.w.r.U U F ",
"G 0.r.w.q.q.w.r.w.r.w.r.w.q.q.w.q.w.r.w.r.w.r.w.w.r.w.r.w.r.w.q.w.q.q.w.r.w.r.w.r.w.q.q.w.r.0.Y ",
"w.t.w.r.w.w.r.w.Y F H y.u.            i.p.Y 0.Y Y 0.Y             a.u.u.y.V F 0.w.t.w.w.t.w.r.! ",
"                                                                                                ",
"                                                                                                ",
"                                                                                                ",
"                                                                                                ",
"                                                                                                ",
"                                                                                                "};
