/* XPM */
static char * image_name[] = {
"48 48 65 1",
" 	c None",
".	c #303030304141",
"X	c #515151515151",
"o	c #FFFFFBFBFFFF",
"O	c #000000000000",
"+	c #282820204949",
"@	c #9E9E8A8AA6A6",
"#	c #FFFFBABA9E9E",
"$	c #AEAEAAAAAEAE",
"%	c #CFCFCBCBBEBE",
"&	c #616151514141",
"*	c #FFFFEBEBCFCF",
"=	c #CFCF8A8A9E9E",
"-	c #515130302020",
";	c #CFCFBABACFCF",
":	c #CFCF9A9ACFCF",
">	c #EFEFEBEBEFEF",
",	c #616151515151",
"<	c #51519A9A6161",
"1	c #61618A8ADFDF",
"2	c #DFDFBABA6161",
"3	c #717151514141",
"4	c #4141AAAA6161",
"5	c #DFDFCBCBEFEF",
"6	c #969682825959",
"7	c #717151511010",
"8	c #414120201010",
"9	c #202020202020",
"0	c #303041413030",
"q	c #CFCFBABA6161",
"w	c #CFCF9A9A6161",
"e	c #101010101818",
"r	c #AEAE9A9A6161",
"t	c #414130301010",
"y	c #8E8E9A9A9E9E",
"u	c #303030303030",
"i	c #202020203030",
"p	c #414141414141",
"a	c #303041414141",
"s	c #9E9EAAAAAEAE",
"d	c #6161BABA9E9E",
"f	c #202030303030",
"g	c #717141413030",
"h	c #414130303030",
"j	c #303051513030",
"k	c #9E9E41412020",
"l	c #DFDFEBEBCFCF",
"z	c #414130304141",
"x	c #383830305959",
"c	c #515141415151",
"v	c #616161615151",
"b	c #515171715151",
"n	c #9E9EAAAA8E8E",
"m	c #9E9E8A8ABEBE",
"M	c #202030302020",
"N	c #303020202020",
"B	c #797969695151",
"V	c #8E8E71719696",
"C	c #8E8E61617171",
"Z	c #BEBECBCBBEBE",
"A	c #616151517171",
"S	c #616161614141",
"D	c #61619292A6A6",
"F	c #41418A8A9E9E",
"G	c #414171716161",
"                                                ",
"                                                ",
"           .XooooO                              ",
"          +X@oooOO                      #OoooO  ",
"         .X$oooOOO                      %O$ooO& ",
"        +X@oooOOOO       *=-oooXO        ;Ooo$O ",
"       ++oooo:.OOO       >-ooooXO        ;O$ooO,",
"       +<<<11:+OOO      >2-ooo$OO         #ooo3O",
"       +4:5:1:.OOOoOXooOo-oooo$OO         ;;,,&O",
"       6-78787+OOOOX$o@O>*>*>2-OO         39O9OO",
"      oo;:111:.OOOO$oo0O>=qwqw-OO         ,9e99O",
"  >Oooor77-t8t+OOOOooyuO>2w7ww-OO      ;  39O9OO",
" >OXooo67ie+7..OOpasdsfO28&g-8OOOhOooooOoo;;,,&O",
">OX$ooj6-787-t+OOapysyuO>wwg=2-OOhOooooO#ok8888O",
"l>l>l$jo;:511:.OOO.zkxOO>=2wq=-OOzOooooOXo%#&c,O",
">rvbvjOr778787+OOapysyuO=8g8g8OOOhOoooohOo#;3&3O",
"lnbvbjOo4<411m.OOz.zppOOoww=22-OOhooooozOo;;,,&O",
"%bOMOOOo<<::1m+OOapysyuO>w=-=2-OOhhhhhhhOo#;3&3O",
"lnbvbpOo4:5:1m.OOO.zpxOO>w2Nw=-OOzph0zphOo%#%c,O",
"%BOOOOOo<z:p1m+OOapysyuO>ww-=2-OOhVBC6VhOo#;3&3O",
"ZvMMMMOo495:1m.OOpasasfOoww=22-OOhhzphhzOo;;8,&O",
"%bOMOOOo<p:A1m+OOMpykyuO>ww-=2-OOhV@@@VhOo#;3&3O",
"lnbvbpOo4:5x1m.OOfasas0O>w2Nw=-OOz@N99@hOo%#8c,O",
"%BOOOOOo<z:e1m+OOMpykyuO>2=-=2-OOhV@V@VhOo#;3&3O",
"lnbvbjOo4:5:1m.OOfasdsfOo2wN22-OOhhzphhzOo;;%,&O",
">6vSvjOo<p:z1m+OOMpykyuO>2=-=w-OOhNBVBNhOo#;8&3O",
"lnbvbpOo4e591m.OOxasDs0O>=22q=-OOzph0zphOo%#&c,O",
">rvbvjOo<::A1m+OOapysyuO>2=Nw2-OOhh9h9hhOo#;#&3O",
"lnbvbjOo4x591m.OOfasdsfOo2wgq2-OOh9z9hhzOo;;%,&O",
">6vSvjOo<p:z1m+OOapykyuO>2=Nw2-OOhh9hhhhOo#;3&3O",
"lnbvbpOo4:5:1m.OOxasks0O>=22q=-OOz9h9zphOo%#&c,O",
"%BOMOOOo<::51m+OOMpysyuO>2=7w2-OOhh9hhhhOo#;3&3O",
"lnbvbjOo4:5:1m.OOfasasfOo2wgq2-OOhhzphhzOo;;,,&O",
"%bOOOOOo<5::1m+OOMpykyuO>ww2w2-OOhCFVFChOo#;3&3O",
"ZvMMMOO:7-t7t-.OOxasas0O>w22q=-OOzph0zphOok8888O",
"%B9OOOOo:::51:+OOMpykyuO>wghh2-OOhVBC6VhOo#;3&3O",
"lnbvbjO:77t87x.OOpasasfOowh=p2-OOhVDFDVzOo&9OOOO",
"%bOM9OO:x77t87+OOMpGsyuO>wh2g2-OOhCBVBChOo3999OO",
"lnbvbpO:xxp7tx.OOOOzpxOO>=p20=-OOzph0zphOo,9OOOO",
">rvbvjOo<::11:+OOapysyuO>2h7hw-OOhVFCDVhOo#;3&3O",
"XOOOOOX:7778t7.OOfasdsOOo2w=2w-OOhhzphhzO;;;,,&O",
"        <<::15+OXOOOOOOX=2wwww-OOhhhhhhhOXOOOOOX",
"       X41111:.O        XOOOOOOOXOOOOOOOX       ",
"       XOOOOOOOX                                ",
"                                                ",
"                                                ",
"                                                ",
"                                                "};
