/* XPM */
static char * image_name[] = {
"47 47 251 2",
"  	c #B9B9A8A8B4B4",
". 	c #A7A79F9FABAB",
"X 	c #A9A9A9A9B1B1",
"o 	c #99999D9DA5A5",
"O 	c #95959E9E8989",
"+ 	c #BBBBC7C7A4A4",
"@ 	c #B6B6BCBCA7A7",
"# 	c #8C8CA4A49999",
"$ 	c #878799999494",
"% 	c #878790909797",
"& 	c #95958C8C9D9D",
"* 	c #A4A47E7E8C8C",
"= 	c #868688889595",
"- 	c #808080808F8F",
"; 	c #83838E8E7A7A",
": 	c #BFBFD0D0A9A9",
"> 	c #E9E9E4E4A6A6",
", 	c #A5A5B9B97C7C",
"< 	c #9C9CACAC6A6A",
"1 	c #85859B9B7070",
"2 	c #8484A3A37676",
"3 	c #BFBFC7C78686",
"4 	c #CFCFD1D1B7B7",
"5 	c #97979C9C5959",
"6 	c #A7A78C8C9F9F",
"7 	c #909074749494",
"8 	c #9A9AA8A8A9A9",
"9 	c #F6F6F2F2B4B4",
"0 	c #DADAD0D09797",
"q 	c #BABABABA7A7A",
"w 	c #82828D8D6363",
"e 	c #818189894747",
"r 	c #646464640D0D",
"t 	c #69696E6E0C0C",
"y 	c #6C6C72722B2B",
"u 	c #545462621C1C",
"i 	c #66667D7D2525",
"p 	c #A8A89E9E8484",
"a 	c #D2D2C8C8BCBC",
"s 	c #D3D3C3C38B8B",
"d 	c #BCBCACAC7A7A",
"f 	c #9B9B8D8D5858",
"g 	c #848473733131",
"h 	c #848469693333",
"j 	c #4F4F56562424",
"k 	c #85857C7C3333",
"l 	c #BCBCD3D38F8F",
"z 	c #72728A8AA2A2",
"x 	c #7C7C8C8CB9B9",
"c 	c #BBBBACACA0A0",
"v 	c #EFEFDFDFC9C9",
"b 	c #898974745252",
"n 	c #9A9A80804C4C",
"m 	c #8B8B80804C4C",
"M 	c #A8A89A9A5D5D",
"N 	c #A2A2B7B7A4A4",
"B 	c #73737C7C8A8A",
"V 	c #DFDFD1D1C1C1",
"C 	c #A8A88E8E5C5C",
"Z 	c #C1C19C9C8989",
"A 	c #FCFCE6E6B0B0",
"S 	c #808073731313",
"D 	c #5C5C7A7A3636",
"F 	c #7E7EA8A84646",
"G 	c #6F6F95957171",
"H 	c #9E9ED1D19A9A",
"J 	c #57577E7E6C6C",
"K 	c #707088887676",
"L 	c #CFCFAEAE8989",
"P 	c #3C3C4B4B2727",
"I 	c #A0A0C6C68686",
"U 	c #BCBCDEDE9C9C",
"Y 	c #8888B1B18080",
"T 	c #DCDCBABABBBB",
"R 	c #BCBC9B9B6767",
"E 	c #A1A187874747",
"W 	c #57576E6E1C1C",
"Q 	c #6D6D7E7E6464",
"! 	c #707072728585",
"~ 	c #C2C27D7D8080",
"^ 	c #C8C87C7C6F6F",
"/ 	c #D5D59B9B8E8E",
"( 	c #BABA8C8C5757",
") 	c #DBDBBCBC9191",
"_ 	c #F3F3C5C5A1A1",
"` 	c #989877774F4F",
"' 	c #6E6E8C8C2E2E",
"] 	c #7C7C9E9E4040",
"[ 	c #CCCCAAAABCBC",
"{ 	c #F8F8CACACBCB",
"} 	c #D9D97D7D8484",
"| 	c #E6E69B9B8C8C",
" .	c #A4A466665F5F",
"..	c #B4B47F7F5959",
"X.	c #9A9A7E7E3C3C",
"o.	c #6F6F8C8C4141",
"O.	c #73739C9C3636",
"+.	c #61617F7F9494",
"@.	c #D0D09E9EACAC",
"#.	c #D1D18E8E7474",
"$.	c #C0C08B8B6868",
"%.	c #D5D58F8F8A8A",
"&.	c #C1C18C8C8181",
"*.	c #D0D09C9C7373",
"=.	c #949472723434",
"-.	c #6F6FA9A94040",
";.	c #E2E2C5C5C1C1",
":.	c #E0E0AAAA9090",
">.	c #FCFCD6D6BCBC",
",.	c #B1B171716969",
"<.	c #EFEFBABAA5A5",
"1.	c #6464AAAA8C8C",
"2.	c #6E6EB3B34444",
"3.	c #7E7EB5B54F4F",
"4.	c #8686C6C66666",
"5.	c #7B7BC7C76565",
"6.	c #6E6EA8A86E6E",
"7.	c #E5E58D8D8A8A",
"8.	c #6868C0C06060",
"9.	c #8585D1D16A6A",
"0.	c #7A7ACFCF9292",
"q.	c #B4B468686E6E",
"w.	c #C6C667677272",
"e.	c #CDCD68688080",
"r.	c #DFDFAAAAAFAF",
"t.	c #7A7AD2D26565",
"y.	c #BFBF8C8C9B9B",
"u.	c #C0C067678282",
"i.	c #D2D28989AAAA",
"p.	c #7777DBDB7676",
"a.	c #A5A573738E8E",
"s.	c #C4C472728181",
"d.	c #8585E0E07373",
"f.	c #8B8BE5E58C8C",
"g.	c #F8F8BABAC6C6",
"h.	c #878762628686",
"j.	c #B2B259597171",
"k.	c #9696E0E09797",
"l.	c #BCBC9F9FAFAF",
"z.	c #A1A149497171",
"x.	c #BCBC5C5C8080",
"c.	c #69695E5E2F2F",
"v.	c #8888ECEC8C8C",
"b.	c #A7A758588282",
"n.	c #A0A03E3E7575",
"m.	c #A7A765658A8A",
"M.	c #C3C37F7FAFAF",
"N.	c #8D8D4B4B7171",
"B.	c #3C3C46462C2C",
"V.	c #5C5C52524444",
"C.	c #6969D3D37F7F",
"Z.	c #8282C6C69E9E",
"A.	c #9F9F55556E6E",
"S.	c #AEAE4A4A7777",
"D.	c #626262625454",
"F.	c #4E4E5F5F4848",
"G.	c #66666F6F6A6A",
"H.	c #5A5A6F6F6262",
"J.	c #89893D3D6F6F",
"K.	c #303034342C2C",
"L.	c #5757C4C47979",
"P.	c #6464B5B57474",
"I.	c #848452527474",
"U.	c #3C3C58583C3C",
"Y.	c #40408B8B6B6B",
"T.	c #4C4CB5B57676",
"R.	c #878732327272",
"E.	c #5D5D89896666",
"W.	c #2C2C6E6E3434",
"Q.	c #4E4EA8A87272",
"!.	c #6D6D31316363",
"~.	c #7F7F71718A8A",
"^.	c #606060607171",
"/.	c #1A1A53533434",
"(.	c #3A3AA7A76E6E",
").	c #464699997474",
"_.	c #4F4F8D8D7777",
"`.	c #67673E3E6767",
"'.	c #686817176666",
"].	c #585824245757",
"[.	c #E1E19D9DC4C4",
"{.	c #7F7F27276E6E",
"}.	c #7C7C66666C6C",
"|.	c #313199996C6C",
" X	c #525215155252",
".X	c #D6D68D8DC6C6",
"XX	c #48487D7D6464",
"oX	c #32327F7F6565",
"OX	c #30308E8E6363",
"+X	c #22228B8B5E5E",
"@X	c #585825256D6D",
"#X	c #676724246B6B",
"$X	c #595933336262",
"%X	c #4B4B6F6F6969",
"&X	c #1C1C7F7F5454",
"*X	c #585817176262",
"=X	c #484833335A5A",
"-X	c #606051516A6A",
";X	c #090922223131",
":X	c #0F0F55554C4C",
">X	c #1C1C6F6F5656",
",X	c #636333337B7B",
"<X	c #6D6D42428989",
"1X	c #505052526767",
"2X	c #63636E6E8080",
"3X	c #5A5A63638383",
"4X	c #404064648080",
"5X	c #323260606B6B",
"6X	c #1E1E62625B5B",
"7X	c #6F6F4F4F9494",
"8X	c #898958589494",
"9X	c #484826265151",
"0X	c #5E5E50508888",
"qX	c #51515F5F6E6E",
"wX	c #39396E6E8888",
"eX	c #35356F6F6969",
"rX	c #7C7C5A5AB5B5",
"tX	c #6F6F60608A8A",
"yX	c #80807373C7C7",
"uX	c #81818B8BD1D1",
"iX	c #83837F7FD7D7",
"pX	c #74749A9AD4D4",
"aX	c #5F5F8080C2C2",
"sX	c #5F5F8B8BB7B7",
"dX	c #52528787AFAF",
"fX	c #72724545A9A9",
"gX	c #7C7C4B4BACAC",
"hX	c #7E7E6767C3C3",
"jX	c #82828C8CE8E8",
"kX	c #6A6A8888D2D2",
"lX	c #48487E7E9393",
"zX	c #2D2D62628383",
"xX	c #525242425F5F",
"cX	c #71715151AEAE",
"vX	c #73737F7FD7D7",
"bX	c #4E4E8080ADAD",
"nX	c #1F1F56565656",
"mX	c #47474E4E5757",
"MX	c #6F6F6161BCBC",
"NX	c #373743435A5A",
"BX	c #474745454141",
"VX	c #74747171C4C4",
"CX	c #242442425454",
"ZX	c #323250505454",
"AX	c #1A1A25253F3F",
"SX	c #4F4F72729090",
"DX	c #121235354040",
"FX	c #2A2A28283C3C",
"GX	c #080813132C2C",
"HX	c #323234345656",
"JX	c #242430303C3C",
"  . . . . . X . . . . . o o o o O O + @ @ @ X # $ $ $ $ % & % & & & % & % & & & * = = = = & - ",
".   X X . X X   . & . & ; X @ + : > , < 1 , 2 3 4 5 ; 5 & O o & & & - 6 - & 7 = = = = - - - - ",
"X . X . 8 & . =   . .   4 9 0 q w e r t y r u i y w p @ ; w p - o - & - 7 & = 7 & - - - - - - ",
". 8 . 8 8 X X o X o & a s d f g r h y y r j k k 0 + , l 4 + $ % z = o o x - = = = = - - - - - ",
". 8 8 8 . o o o c X v + b b n m h g h M q s 9 3 5 < , 2 , , N 1 1 z $ $ $ - x = - = - - - B - ",
". o . o 8 X   O a V p C Z n b n h h A 9 d g g S y u u D D D F G H G 2 J z $ % - - - - K B - B ",
". X o . o X . V 0 n f h h h n h L A M f g g k y y y P D i l l I U H + Y K K K - - - B - B - B ",
". . . o 6 . T C R E E C k d > R e f e f f y g 3 > d C S g r r t W t y Q 5 @ O ; K - - B B - ! ",
". 8 o o 6 T ~ ^ / ( R E ) _ E m ` E b r g 3 > 3 5 S g S S S t r r y y W ' ] ] 1 1 w K K z K ! ",
"o 8 o . [ { } |  ...d C ) R n ( C M b d > L M X.X.g g S S t t r W y i o.O.F F F 5 ] Q K K +.% ",
"# 8 % c { @.#.^ #.( ( ) ( $.$.Z ..n L 0 R C n M X.g k S S S t r r y i o.] F F F F ] K K J J +.",
"$ 8 $ T T / %.#./ .._ ) ..R &...` *._ E C E E =.n g X.S S S t t r W i o.F F -.F F 1 2 G G J J ",
"# # X ;.@.%.%.:.$.*.>.$.#.$.,.( *.<...*.( R E E C ` X.k S S t r t y y D ] F F F -.] Y Y 1.G K ",
"8 # a ;.%.~ %.&./ >./ %.$.^ ..| <.:.*...( ..( ( =.X.n g k S t t W t i i ] -.-.2.2.3.4.I 5.6.J ",
"$ o 4  .7.} &.Z >.&.| 7./ *.#._ | ....( #.( ..X.=.E E g S t t t t i ' ] F -.-.2.8.5.4.9.9.0.Y ",
"o @ [ q.w.e.&.;.r.@.7.7.&.:.{ *.| $.#.^ #.( R ( E E E X.S t t r W i ' F 3.-.-.2.2.5.t.t.t.9.H ",
"o a y.,.u.w...{ &./ } i.Z <.<.*.| #.^ $.^ ( #.( ( X.E E X.S r t t i ' F F 2.-.t.t.t.t.t.t.p.H ",
"o V a.s.w.w.%.T y.,.} } / { r.#.| #.#.#.#.$.( ( ( ( E S E g r t W i O.F -.2.-.t.t.t.t.d.f.f.9.",
". g.h.u.j.e.<.y.~ q.s.e.T <.%.&.%.| | 7.#.#.$.$.( E ( =.E S r t t i O.-.-.5.5.t.p.t.t.d.d.f.k.",
"l.[ z.j.j.j.g.y. .s.x.u.{ i./ ~ 7.| 7.7.7.#.$.#.( ( R E ( h c.t i i O.O.2.t.9.t.t.t.d.d.v.f.H ",
"[ i.b.n.z.z.{ m.,.s.e.e.<.a.%.~ } 7.7.7.7.7.#.#...( ( =.` h g y e ' F -.2.5.t.5.t.t.d.v.v.v.k.",
"l.M.b.z.z.N.i.m.z.j.j.z.~ ,.m.w.s.w.e.} } 7.} | #...( Z Z f B.V.D Q o.6.4.t.d.f.f.f.d.p.C.0.Z.",
". y.N.b.z.b.i.A.S.j.N.A.,.s.q.s.e.x.e.e.w.e.} } / &.Z d D.B.F.F.G.D.H.2 5.v.v.v.v.f.C.C.C.0.Z.",
". l.N.z.J.N.i.S.n.z.N.,.j.s.z.} j.e.e.e.e.e.e.} } @.l.f K.F.H.J ; ; H.Q 6.v.v.C.C.p.C.L.L.P.Z.",
"& l.I.J.J.J.i.z.S.z.A.M. .z.q.n.w.S.x.x.w.x.x.u.q.,.l.V.F.U.F.G.N 8 F.1 Y.L.C.C.C.C.L.C.L.T.Z.",
"= [ N.J.R.J.M.z.S.S.A.i.z.j.z.z.S.S.S.S.S.S.j.x.b.y.` V.D.H.E.H.F.D.B.G W.P.0.C.C.L.L.L.T.Q.1.",
"= l.I.!.!.!.M.n.n.n.N.i.A.A.z.n.S.S.S.S.S.S.S.S.A.%.~.^.j F.Q 1 w $ 1 # /.Q.T.T.T.(.(.(.(.)._.",
"& & a.`.'.].[.z.R.R.{.M.N.j.R.b.n.n.n.n.n.n.n.R.R.h.* }.D.: F.1 O ; N @ /.Y.Q.|.(.(.(.(.(.)._.",
"6 & 6 `. X]..XJ.{.R.{.m.J.A.n.z.R.n.n.{.{.R.R.{.!.!.7 }.D.! F.2 O O N 8 /.XXoXOX+XOX|.(.(.(.).",
"& & 7 h.].].N.b.@XJ.'.R.N.J.R.R.R.{.{.R.{.{.{.'.#X!.$X}.& B $ $ 8 @ # Q %XW.Y.&X|.&X+X(.|.|.Y.",
"& & * 7 `.$X!.M.#X#X*XR.J.J.R.{.{.R.{.{.'.'.'.'.'. X=X-X7 ! 8 8 N 8 z ;XW.%X:XoX>X|.+X|.&XOX_.",
"7 & & & }.].@Xa.,X X#X X<XJ.!.{.#X{.'.'.'.'.'.'.*X$X].<X-X1X2X3X3X;X;X4X5X:XY.6X&X6X+X&XOXOXXX",
"= & - & ~.$X].7X8X9X,X X8X!.!.{.'.#X'.'.'.'.{.#X*X,X,X7X0X7X3XqX4X+.x 4XwXeX6X>X:XoXY.>X+XY.eX",
"7 & - & - }.9X$X7 `. X#XM.#X*X X*X'.'.'.'.*X#X#X@X,X<XrXtXyXuXx iXpXaXsXdX6XwXwX6X6X>X&X>XeXeX",
"- & - z = 7 -X9X=X~.$X].7X8X#X#X#X X#X*X#X#X@X#XfXfXgXgXrXhXiXjXkXaXaXdXlXwXdXzXzXzX6XoX6XeXeX",
"7 o - z = = -XxX1XtXtX$X].m.9X#X,X X*X*X@X,X@X,X<XfXgXcXrXhXyXjXvXvXaXbXbXwX>XzXwX5XnX6X6X/.%X",
"= B ; - - = - ^.mXmX^.}.$X<X8X X*X X*X,X,X@X$X<X7XcXcXrXMXhXjXjXkXkXkXaXdXbXbXzXbXwXzXeXnXlXnX",
"= - = - = ! ; B qXNXmXqX9X$X* 9X,X@X,X@X@X,X<X<X7XcXrXhXcXyXiXjXvXkXaXaXbXlXwXwXzXzXzX4X:X5X5X",
"= - = - = K B = - qXBX=X=XxX7XtX9X@X,X@X,X,XfXcXcXhX7XhXVXMXjXkXjXkXkXaXbXbXlXzXdXzX4X5XJ 6XCX",
"= - % - = - ! B = B qXU.D.BX^.-X~.=X@X=X<XcXfXfXcXgXyXhXcXiXvXjXjXkXkXsXdXbXbXlXzXzXZX4XnX5X;X",
"= - = - - B = B ! B B ! NXAX1XxXtXxX=X<XgXgXfXfXgXrXfXyXhXMXjXvXkXkXkXkXdXdXdXbXsXzXSX+.4XDX;X",
"= B - B B - B ! B = B 2Xz Q B G.xXFXxXxX7X7XcXcXcXMXcXhXhXMXjXjXjXpXkXkXaXdXdXsXwX4X1XGX;XqX2X",
"= B - - B - B B B B ! B H.B +.! K ~.9X=X0XtX7X7XhXrXMXhXMXVXvXjXkXkXkXsXdXbXbXdXdXSXGXGXqX^.1X",
"! B & ! = B ! ! - - ! ! B 2XB G.! G.qXNX=XHX0XMX0XhXyXhXVXMXjXjXjXjXkXkXkXsXsXlX5XDXHXqX^.qX^.",
"= B ! B ! - x ! 2X! 2X- B 2X! 2XB ! D.! ! mXHXJXVXMXVXyXiXyXiXuXkXkXz kXaXSXSXDX;XAX^.^.^.^.^.",
"- z - x 3X- = ! ! ! = ^.MX! ~.2X! G.! ! 2XqX3XHXAX1XtXtXyXB x x x x x x NX;XGXCXZXqX2X^.qXqX^.",
"! = ! ! = = ! - ! tX! ~.! tX! 2X! tXG.2XG.3XK 3XNXAXGXGXAXHXHXNXNXAXGXGX;XHX4X1X3X2XxX^.^.qXD."};
