/* XPM */
static char * image_name[] = {
"48 48 100 2",
"  	c None",
". 	c #DDDDEEEEDDDD",
"X 	c #FFFFFFFFFFFF",
"o 	c #DDDDBBBBCCCC",
"O 	c #BBBB99998888",
"+ 	c #BBBB22223333",
"@ 	c #333311111111",
"# 	c #CCCCDDDDDDDD",
"$ 	c #BBBBBBBBBBBB",
"% 	c #EEEEEEEEEEEE",
"& 	c #DDDDEEEEEEEE",
"* 	c #EEEEDDDDEEEE",
"= 	c #DDDDDDDDDDDD",
"- 	c #DDDDAAAA7777",
"; 	c #000000000000",
": 	c #999966667777",
"> 	c #BBBBBBBBCCCC",
", 	c #99999999AAAA",
"< 	c #555544446666",
"1 	c #EEEEEEEEFFFF",
"2 	c #BBBB88885555",
"3 	c #555522220000",
"4 	c #777766665555",
"5 	c #888888889999",
"6 	c #888899998888",
"7 	c #666655558888",
"8 	c #333333333333",
"9 	c #DDDDBBBBBBBB",
"0 	c #888800001111",
"q 	c #444433332222",
"w 	c #777777777777",
"e 	c #888877778888",
"r 	c #666666667777",
"t 	c #222222223333",
"y 	c #DDDDCCCCDDDD",
"u 	c #111100001111",
"i 	c #444422222222",
"p 	c #777766667777",
"a 	c #666677776666",
"s 	c #777777778888",
"d 	c #9999AAAA9999",
"f 	c #222222222222",
"g 	c #333322223333",
"h 	c #222200001111",
"j 	c #111111112222",
"k 	c #555555555555",
"l 	c #999999999999",
"z 	c #AAAAAAAABBBB",
"x 	c #666666668888",
"c 	c #222211113333",
"v 	c #555577778888",
"b 	c #777788889999",
"n 	c #777788888888",
"m 	c #FFFFFFFF0000",
"M 	c #AAAABBBBBBBB",
"N 	c #555533333333",
"B 	c #444444444444",
"V 	c #888866668888",
"C 	c #888888888888",
"Z 	c #999988889999",
"A 	c #555511113333",
"S 	c #444433334444",
"D 	c #AAAAAAAAAAAA",
"F 	c #AAAABBBBAAAA",
"G 	c #88888888AAAA",
"H 	c #88889999AAAA",
"J 	c #99999999BBBB",
"K 	c #444433335555",
"L 	c #444455555555",
"P 	c #AAAA9999AAAA",
"I 	c #666666666666",
"U 	c #BBBBAAAABBBB",
"Y 	c #9999AAAAAAAA",
"T 	c #555555556666",
"R 	c #555566666666",
"E 	c #CCCCBBBBAAAA",
"W 	c #555544444444",
"Q 	c #BBBBCCCCBBBB",
"! 	c #DDDDCCCCCCCC",
"~ 	c #777722221111",
"^ 	c #DDDDDDDDCCCC",
"/ 	c #111111111111",
"( 	c #777744444444",
") 	c #CCCCCCCCCCCC",
"_ 	c #CCCC44442222",
"` 	c #DDDD77773333",
"' 	c #888899999999",
"] 	c #555555557777",
"[ 	c #000011111111",
"{ 	c #AAAA99999999",
"} 	c #777766666666",
"| 	c #999988888888",
" .	c #444444446666",
"..	c #CCCCDDDDCCCC",
"X.	c #CCCCBBBBCCCC",
"o.	c #BBBBAAAAAAAA",
"O.	c #111188881111",
"+.	c #777788887777",
"@.	c #333322224444",
"#.	c #333333335555",
"                                                                                                ",
"    . X X X X X X X X X X X X X X X X X X X X X X X X X X X X X X X X X X X X o O + @ # # $     ",
"  . % % % & % % % & % % % & % % % & % % % & % % % & % % % . * . = = = # X X - + + @ ; : > , <   ",
"  X & % & 1 & % & 1 & % & 1 & % & 1 & % & 1 & % & 1 & % & & & & . = . % X 2 + + 3 ; 4 5 6 7 8   ",
"  X % & % % % & % % % & % % % & % % % & % % % & % % % & * . = . = = % X 9 + + 0 ; q w w e r t   ",
"  X & 1 & % & 1 & % & 1 & % & 1 & % & 1 & % & 1 & % & & & & . = . = X y + + 0 u i p a s d p f   ",
"  X % % % & ; ; ; ; ; ; ; ; ; ; ; ; ; ; ; ; ; ; ; ; ; ; ; ; ; ; g % * + + + h h j k w l z x c   ",
"  X & % & 1 ; p w p v p w p s e s e b e b e b e n e n s s p m m M X + + + 3 ; N B l 6 z M p f   ",
"  X % & % % ; w p w p w V s e C e 5 Z 5 Z 5 e 5 e e e s e s m m m m + + 0 ; A 8 S D D F $ r j   ",
"  X & 1 & % ; p v p s e b e 5 G H Z H J H m m m 5 G b e b e m m m m + + ; @ B K L y M > M p j   ",
"  X % % % & ; w p s e 5 Z 5 Z Z J , P , J m m m m 5 Z 5 e 5 m m m + + h h 8 S B I % $ M U r j   ",
"  X & % & 1 ; p s e 5 m m J , P Y P Y P Y J m m m J H Z 5 J m m m + 3 ; 8 S B T r X M $ F x j   ",
"  X % & % % ; s e 5 Z 5 m m m m U z U z P z m m m , Z 5 Z % m m m m m m m m m I p X $ F U r j   ",
"  X & 1 & % ; s b G G J J m m m m * m m m m m m m m m m m m m m 0 ; @ K B B R x v X F z F x j   ",
"  X % % % & ; s e 5 Z , P z m m m % m m m m m m m , Z z X E m m h h W B B T p r p X U D D r j   ",
"  X & % & 1 ; e b G H J Y z Q X ! + + + ~ p , m m J , % . + m 0 ; W B B L r w p w X F z Y 7 j   ",
"  X % & % % ; s e 5 Z , P P * ^ + + + + + @ e m m , m m m m m ; A B B k 7 r p w p X D D D r j   ",
"  X & 1 & % ; e 5 G H J J P = : + + + + + 0 B m m m m m m m m h B B L 7 w p w p v X Y z Y 7 /   ",
"  X % % % & ; s e 5 Z Z J , P ( - + + + + 0 @ w Z ) m m m 0 ; N B B I r p w p w p X D Y P T j   ",
"  X & % & 1 ; s m m m m m J , > ! + + + + + 3 B , X m m + u m m m m m m w p v p w X Y D d 7 /   ",
"  X % & % % ; s e m m m m m Z , o O + + + + 0 i * m m m m m m m m m m m m w p w p X P d P T j   ",
"  X & 1 & % ; p s e m m m m H J z y + m m m m m m _ m m ; N B B R m m m v p w p v X Y , d 7 /   ",
"  X % % % & ; w p s e m m 5 Z 5 Z ) ` + m m + + + + m m ; B K k m m m w p w p w p X P l , T u   ",
"  X & % & 1 ; p w s n e b e 5 5 5 P ! + m m + + + + m m i B L m m m m p w p v p w X d , ' ] /   ",
"  X % & % % ; w p w p s e e e C e 5 y _ + m m m m m m m m m m m m m m w p w p w p X l l l T /   ",
"  X & 1 & % ; p v p v p s e s e b e , 9 + m m m m m m m B k R p v p w p v p w p v X ' l ' ] [   ",
"  X % % % . ; w p w p w p s V s e s e ! + + + + + ; m m K k p r p w p w p w p w p X l ' Z T u   ",
"  X & % & & ; p w p v p w p m s s s s Z { + + + 3 u m m m m m m m m v p w p v p w X ' l 6 T [   ",
"  X % . * . ; w p w p w p m m w p w p w } m m m m m m m m m m w p w p w p w p w p X Z 6 | T u   ",
"  X & & & = ; p v p w p v m m p v p w p w r k B B S m m r p w p v p w p v p w p v X 6 5 6 < ;   ",
"  X * . = = ; w p w p w m m p w p w p w p r 7 k k B m m p w m m m m m m m m m w p X Z C C L u   ",
"  X . = . = ; p w p v m m m v p w p v p w p w m m m m m m m m m m m m m m m m m w X 6 C n < ;   ",
"  X = . = = D X X X X m m X X m m m m m m m m m m m m m X X X X X X X X X X X X X X C C e B ;   ",
"  X # = # = # ) # ) m m m ) Q > Q > M $ M U F z F m m z Y D Y , d , ' l ' l  .<  .C n C n < ;   ",
"  X = # = ..y ..) m m m m Q X.$ $ $ U M U F o.D m m D D P d P l , l l ' Z 6 < O.O.$ e +.e B ;   ",
"  X # = # ) ..) ..m m m m > Q > M $ M M F z F m m m Y D d , m m m m ' l 6 5 6 $ M > n e +. .;   ",
"  X D s p s p s p m m m p r p r p r 7 r 7 r m m m T 7 T 7 T ] T m m m m < k < B < B < B K B ;   ",
"  s ; ; ; ; ; ; ; m m m ; ; ; ; ; ; ; ; ; m m m ; ; ; ; ; ; ; ; ; m m m m m ; ; ; ; ; ; ; ; ;   ",
"                    m X r B k B k 8 > M m m m r T B S 8 t f j f @.8 m m m m                     ",
"                    X D a r a r a T m m n e n r T B #.#.j c t #.k r a m m m                     ",
"                  X = +.e C C +.e m m I I B K #.S #.S #.K k T +.e C C m m m g                   ",
"                X X d , d , d , Y P d , Y D Y D Y D Y D Y D Y z Y D Y z F D r t                 ",
"              X X X X X X X X X X X X X X X X X X X X X X X X X X X X X X X X r g               ",
"              X D D D D D D D D D D D D D D D D D D D D D D D D D D D D D D D D ;               ",
"              X D D D D D D D D D D D D D D D D D D D D D D D D D D D D D D D D ;               ",
"              7 ; ; ; ; ; ; ; ; ; ; ; ; ; ; ; ; ; ; ; ; ; ; ; ; ; ; ; ; ; ; ; ; t               ",
"                                                                                                ",
"                                                                                                "};
