/* XPM */
static char * image_name[] = {
"48 48 65 1",
" 	c None",
".	c #BEBEBABABEBE",
"X	c #E7E7E3E3E7E7",
"o	c #FFFFFBFBFFFF",
"O	c #DFDFCBCBDFDF",
"+	c #BEBEBABAAEAE",
"@	c #DFDFEBEBEFEF",
"#	c #EFEFEBEBEFEF",
"$	c #EFEFEBEBFFFF",
"%	c #DFDFDBDBDFDF",
"&	c #CFCFDBDBDFDF",
"*	c #CFCFCBCBCFCF",
"=	c #BEBECBCBBEBE",
"-	c #AEAE9A9AAEAE",
";	c #414151514949",
":	c #CFCFDBDBCFCF",
">	c #C7C7BABACFCF",
",	c #717171718E8E",
"<	c #303030305151",
"1	c #202018182828",
"2	c #000000000000",
"3	c #AEAEBABABEBE",
"4	c #696961617171",
"5	c #202020203030",
"6	c #303020204141",
"7	c #303020205151",
"8	c #414130305151",
"9	c #595969698E8E",
"0	c #202030304141",
"q	c #414130306161",
"w	c #303041416161",
"e	c #101010102020",
"r	c #414141414141",
"t	c #414141416161",
"y	c #414130307171",
"u	c #B6B6AAAAB6B6",
"i	c #515141416161",
"p	c #414161617171",
"a	c #202020204141",
"s	c #AEAEBABAAEAE",
"d	c #414141418E8E",
"f	c #515151517171",
"g	c #616151518E8E",
"h	c #9E9EAAAAAEAE",
"j	c #080808081010",
"k	c #595965656161",
"l	c #202010101010",
"z	c #303030306161",
"x	c #9E9EAAAA9E9E",
"c	c #9E9E9A9A9E9E",
"v	c #515151516161",
"b	c #9E9E9292A6A6",
"n	c #8E8E9A9A9E9E",
"m	c #8E8E9A9A8E8E",
"M	c #9E9E8A8A9E9E",
"N	c #8E8E8A8A9696",
"B	c #868671718E8E",
"V	c #3838FBFB3030",
"C	c #797979797171",
"Z	c #303020203030",
"A	c #303030303030",
"S	c #414130304141",
"D	c #AEAEAAAAAEAE",
"F	c #9E9E9A9ABEBE",
"G	c #9E9E9A9A8E8E",
"   .XoooooooooooooooooooooooooooooooooooooO+    ",
"   X@#@$@#@$@#@$@#@$@#@$@#@@@@X%X%&&&*=*=**-;   ",
"   o#@###@###@###@###@###@#@%X%%%&O:*:***=>,<   ",
"   o@$@#@$@#@$@#@$@#@$@#@#@@X%X%&&&*:*:*=>=,1   ",
"   o###@###@###@###@###@#@XX%%%&O:*:***=>=.,1   ",
"   o@#@$2222222222222222222222222222222o=>341   ",
"   o#@##256565666<7<8<7<7<6665656565656o>..91   ",
"   o@$@#260607<<<qwqwq<q<<<<07060606060o3.34e   ",
"   o###@256<7<qrqtytytqtq8q<7<7<6565656o..u4e   ",
"   o@#@$260<<qtyyiyipitytywq<8<7<6a606ao3.s9e   ",
"   o#@##2<7<qtyidfdfdiiyytq8q<7<7<65656ousu4e   ",
"   o@$@#27<qwypdfgggfdpitytq<q<<0706060osus9e   ",
"   o###@2<88itifgggfgfiiitytq88<7<65656ouss4e   ",
"   o@#@$2<<qtipdfgfdfdpiyitytq<<<<0606aosssge   ",
"   o#@##2<88qtiidfdfdfiyitytq<8<7<65656osss4e   ",
"   o@$@#27<qwyyipdpipipitytq<q<<<706060ohssgj   ",
"   o###@2<8<qtytiiitititytqrq88<7<65656o-sskl   ",
"   o@#@$27<zwqtytityyitytqwq<q<<<60606aoh-sgj   ",
"   o#@##2<7<8<qqqtqtytqqqrq<8<7<7<65656o-xcvj   ",
"   o@$@#260<<z<q<qwqwqwq<q<8<<<<0606060oxbxfj   ",
"   o###@256<6<<<7<8<q88<8<8<7<6<6565656occcvj   ",
"   o@#@$26a60607<<<<<8<<<<07<60606a606aoccnfj   ",
"   o#@#@256565666<6<7<7<6<6665656565656ocmMvj   ",
"   o@#@@2606060606060706060606060606060onNmvj   ",
"   o#@XX2565656565656565656565656565656oMmN;j   ",
"   o@@X%26a606a606a606a606a606a606a606aomNNij   ",
"   o%X%%2565656565656565656565656565656oNNBrj   ",
"   oX%X%oooooooooooooooooooooooooooooooomNBi2   ",
"   o%%%&O:*:***=>=....usssss-x-xcccmMrirNNBr2   ",
"   oX%&&&*:*:*=>=>3>3.sussssh-xbccnMntVVBNCt2   ",
"   o%&O:*:***=>=>..3ususss-x-xcccmMNNNNCBCBr2   ",
"   oo,,,9B9499994949pgpgpgkfvfvvtiti;itirtrr2   ",
"   ,22222222222222222222222222222222222222222   ",
"            =&:*&>&%3bn,Cr55eej5C,mN            ",
"      %%%%%%#s4k4kicunM,4r61ejZAi;i;er8S8r      ",
"     %XCk4Bs=NBNBNC4kv;rr<r<rrkNC,CN4e;vC8r     ",
"    %%CCCCooooooooooooooooooooooooooo4e;4Cer    ",
"   %ocmMnDDDDDDDDDDDDDDDDDDDDDDDDDDDDDekCcmer   ",
"  %o-x-b-D4rZ5Z5Z5Z5Z5Z5Z5Z5Z5Z5Z5Z5Z584Bb-ber  ",
" %o-hFh-hFh-hFh-hFh-hFh-hFh-hFh-hFh-hFh-hFh-her ",
" ooooooooooooooooooooooooooouoooooooooooooooooe ",
" oX%X%X%X%&%X%&%X%&%&*:*=*=>,o3.3usuhsxbxcnMnNj ",
" o*fgf*b-b-b-bMbMnMNbNBNB,B,,ou52jeeejeeeje5MNj ",
" oogVVoooooooooooooooooooooo3o3=oooo255=ooo=mNj ",
" o%%%%%%%%%%%%%&%:O:***=>...4oussssxbccGMmMNNNj ",
" oX%X%&%X%&%X%&%&*:*=*=>=>3.,osssssbxcnMnNNNBN2 ",
" o%%%%%%%&%%%&O:*:***=>..3usBosssx-ccnMmMNNNBC2 ",
" B222222222222222222222222225822222222222222225 "};
