/* XPM */
static char * image_name[] = {
"48 48 65 1",
" 	c None",
".	c #515141412020",
"X	c #282820201010",
"o	c #383830301818",
"O	c #AEAE79794949",
"+	c #717151513030",
"@	c #D7D7A6A66161",
"#	c #202018181010",
"$	c #383830302020",
"%	c #494938382020",
"&	c #BEBE8A8A5151",
"*	c #61614D4D2828",
"=	c #EFEFBABA7171",
"-	c #8E8E61613838",
";	c #515149492828",
":	c #515141412828",
">	c #30302C2C1818",
",	c #969669693838",
"<	c #C7C792925151",
"1	c #303028281818",
"2	c #000079797979",
"3	c #B6B68A8A5151",
"4	c #9E9E71714141",
"5	c #868651513030",
"6	c #79792C2C1818",
"7	c #9E9E79794949",
"8	c #AEAE9E9E8686",
"9	c #A6A696967979",
"0	c #494941412828",
"q	c #B6B696966161",
"w	c #D7D7AEAE6969",
"e	c #CFCFC7C7BEBE",
"r	c #BEBE96966969",
"t	c #CFCFBABAAEAE",
"y	c #A6A69A9A6161",
"u	c #8E8E7D7D6161",
"i	c #AEAE82824949",
"p	c #C7C7A2A26969",
"a	c #E7E7DBDBD7D7",
"s	c #181810100808",
"d	c #C7C7AEAE9696",
"f	c #CFCFBABAA6A6",
"g	c #C7C7AAAA8686",
"h	c #717169694141",
"j	c #FFFFD3D37979",
"k	c #86866D6D4141",
"l	c #EFEFEBEBE7E7",
"z	c #A6A686865959",
"x	c #969669694141",
"c	c #DFDFC3C3A6A6",
"v	c #616159593838",
"b	c #E7E7DBDB8686",
"n	c #181818180808",
"m	c #DFDFBABA9696",
"M	c #BEBEB2B26969",
"N	c #FFFFEFEF8E8E",
"B	c #E7E7D3D3BEBE",
"V	c #E7E7C7C7A6A6",
"C	c #BEBEA2A29696",
"Z	c #696951513030",
"A	c #DFDFD3D38686",
"S	c #F7F7E3E3A6A6",
"D	c #AEAE4D4D3030",
"F	c #202018180808",
"G	c #CFCFC3C37171",
"                                                ",
"                                                ",
"                   .XX                          ",
"                  .XoXXOO+                      ",
"               .@.#$ooo%&@*                     ",
"               &=-$oooooo+% **                  ",
"               ;:$$oooooo>#,@<*                 ",
"            .<.1$$$oooooooo1+,2**               ",
"            3=3$$$$$oooooooo>X#4<+              ",
"            %56$$$$$1;$$oooo>11*&O -,           ",
"         .7116$$$$$1%890$$ooo>11o#,+-*          ",
"         q=w6$$$$$o6ertyu6$oo>1111#i@-          ",
"         ;p*6$$$$$o,ayt8tu;$$o>11111+s **       ",
"      .*11:6$$$$$1dff88g8tt*6o>111111##<<.      ",
"      hj=66$$$$$Xkqlqz,zzeyde:$o1111111;3>      ",
"      k=k66$$$$Xxlpcy4x,,dulyz86o11111111>#--   ",
"      1:666$$$1urglq4654x,ugzlf-v$o1111111>i@5  ",
"   .bkn66666$o*mldrO5655xx,,88yaeh6o11111111*#  ",
"   MNq666666o;BppViOO46664x,,,t9zfev$o1111111## ",
"   17666666$%pVaViiiOO45x654x,,udgzz9:1111111os ",
".u11666666$otBVg33iiiOOOx566,x,,k,etC;111111o## ",
"MNM666666613wmmp&33iiiOOO44544xk+fttZ11111>oX#  ",
"kA*666666X9a<<<&&&33iiiOOO4444-+prrk11111>oX#>  ",
"..06666665lVVB8*3&&33iiiiOOO4,+Beee>11111>1#@@> ",
"*:06666666uSVwVtv4&&&33iOiOO4+ddq761111111#X+@<X",
"$::06666666:ClVwB8+3&&3D6DiO+8rVl;1111111Xs2X+>X",
"no00066666666xmlS=t*4&&D6Di+uaerZ>111111X1.F2XX%",
"2>v60066666666vrwlmmy+&3ii+uarV8o>11111X>i=iF2% ",
"2vSq6666666666668m=l=e*O&+9gBa7oo>1111XF2%==O#  ",
";SSys1666666666$$*tSmadz+ugare;ooo>11X1.F2%&##  ",
"*AM  #y$6666666$$$07SSSmCcdBc.oooo>1X#i=iF211   ",
"n-. #GSM1666666$$$$$ugBmamBduooooo1X#F%==O#     ",
"    ySSv>X$66666$$$$$6CmBwl7$ooooo1#n22%&##     ",
"    :Ah  oy66666$$$$$$$hBmp6ooooo1#1G02211      ",
"    n-. #bSG1$666$$$$$$$;z6ooooo1#FMjjq%        ",
"        ySb>>Xo66$$$$$$$$$oooooo#Fs%@jp%        ",
"        .G;  ;G0$6$$$$$$$$oooooXFn22%k%         ",
"        n-. >bNMXo$6$$$$$$oooo1F%G022%%         ",
"            MNb#>#1$$$$$$oooo1FnMjjq%           ",
"            %M0  ;A*$$$$$oooo#ns%@jp%           ",
"            n-. >ANG#1o$$oooXnn22%k%            ",
"                qNA#>F1o$$$1n%G022%%            ",
"                >q0  >Ahoo$#nMjjq%              ",
"                n-. >ANA$1#Fs%@jp%              ",
"                    hNb0 #Xn  %k%               ",
"                    #zk        %%               ",
"                    n-.                         ",
"                                                "};
