/* XPM */
static char * image_name[] = {
"48 48 65 1",
" 	c None",
".	c #AEAEAAAAB6B6",
"X	c #86867D7D8E8E",
"o	c #616161618E8E",
"O	c #59595151B6B6",
"+	c #383841417171",
"@	c #8E8EA2A2AEAE",
"#	c #AEAEAAAAAEAE",
"$	c #616169696969",
"%	c #595982826969",
"&	c #51514D4D5151",
"*	c #717169695151",
"=	c #383841415151",
"-	c #616161616161",
";	c #797982827979",
":	c #38384141A6A6",
">	c #10104141A6A6",
",	c #38386969A6A6",
"<	c #71716969FFFF",
"1	c #8E8E8282AEAE",
"2	c #383849493030",
"3	c #71716969A6A6",
"4	c #71719292A6A6",
"5	c #FFFFC3C3FFFF",
"6	c #B6B6FBFBA6A6",
"7	c #FFFFFBFBFFFF",
"8	c #B6B6AAAAAEAE",
"9	c #51515555FFFF",
"0	c #49496161D7D7",
"q	c #71719292FFFF",
"w	c #96967575DFDF",
"e	c #8E8E92928E8E",
"r	c #CFCFCBCBCFCF",
"t	c #DFDFDBDBDFDF",
"y	c #BEBEBABABEBE",
"u	c #B6B69292A6A6",
"i	c #B6B69292FFFF",
"p	c #101041415151",
"a	c #383869695151",
"s	c #B6B6C3C3A6A6",
"d	c #000000000000",
"f	c #B6B6C3C3FFFF",
"g	c #717141415151",
"h	c #616169695151",
"j	c #10102020A6A6",
"k	c #202010100808",
"l	c #080814141010",
"z	c #000008085151",
"x	c #797979797979",
"c	c #38382020A6A6",
"v	c #000020205151",
"b	c #101008085151",
"n	c #202020205151",
"m	c #181834342020",
"M	c #10100808A6A6",
"N	c #202020202020",
"B	c #000008080000",
"V	c #101008080000",
"C	c #717192925151",
"Z	c #101000001818",
"A	c #717104040808",
"S	c #969610101818",
"D	c #B6B620205151",
"F	c #383820201818",
"G	c #CFCFF3F3F7F7",
"      .XooO+OOO+Oo@##              #$%&$*=-;    ",
"    Xo+:::>::,:<,<,1X1#          #23456775*==   ",
"  8oO>::::9:0:<,<,<3q3w.        X*er77tyu4iu==  ",
" .+:p:>:>:>,:3,<:3,<,<31;      #a4s7su4u4u4add  ",
"8o:>::::<:9:<,<,<3q4i4i41.     %$77sfuu4f=dd*   ",
"X:p:::>::,:<,<,<3q,<3i4q4@    #=u7tf4u4addp     ",
"@>::::9:0:<,<,<3q3q4i4i4i3    X*777uu4gd=       ",
"::>:>:>,:3,<:3,<,<3i4q4i43    hu7u7u4uda        ",
"<:::<:9:<,<,<3q4i4i4i4i4f:    $s7u7sfud=        ",
",:>::,:<,<,<3q,<3i4q4i4i3j    2tsu@74ukl#       ",
"<,9:0:<,<,<3q3q4i4i4i4i4:z    g7u=d7543dx       ",
",3,<:3,<:3,<,<3i4q4i4i,cvb   Xa7pd=a7uanm#  @   ",
"<3i4i3<,<3q4i4i4i4i4w:jvjb   $u7*d777suadxf   uk",
",q3q4f4<3q,<3i3<33pjvbvMvM   $s54a7==743km  supd",
"<3i4i4i4q3<:0::jcnjzjzjbjz  -*7uu4d7775u$d5uu4nd",
",33i4i4i,3,,>:>:vnvbvbvMvb  2ssu4u=7p=7uakku4=da",
"<3i4fii4i3<:<::jcnjvjbjvjb ;*7u4fuu4fu7yfud=ndg ",
",q3q4f4q3<,9::p>njvbvbvMvM;=7u4u4up==ap=kNBdda  ",
"<3i4i4i4q3<:0::jcnjzjzjbj&g7u=5uu=ddddddlkn=    ",
",33i4i4i,3,,>:>:--------ma7upusupddam&2dp=V     ",
"<3i4fii4i3<:<::j-s5s7s5C*7u=ffu=ddu4*4uuddZx    ",
",q3q4f4q3<,9::p>-5s5s5*a7upusupdduCu2eeu4uBx    ",
"<3i4i4i4q3<:0::j-s5s5*g7u=ifu=dduCuug4##f#kx    ",
",33i4i4i,3,,>:>:-5s5*a7upusupdduCu4u=usfsslx    ",
"<3i4fii4i3<:<::j-s5C*7u=ffu=ddAASSSADSSADSFx    ",
"eq3q4f4q3<,9::p>-5*a7upusupdd#asufrt47G777Vx    ",
"80i4i4i4q3<:0::j-*g7u=ifu=dd##3syrtGu77777Fx    ",
" 1,i4i4i,3,,>:>:ma7upusupdd&&=2g=*a-=-----Vx    ",
"  @@fii4i3<:<::n*7u=ffu=dd##5surt777#77777Fx    ",
"  #1%i4q3<,9::na7upusupdd##sufetG7G7#77777Vx    ",
"    .e11q3<:0ng7u=ifu=ddA&g&g2*a3---------Fx    ",
"      #8eooOna7upusupddukuuyrt47G777#77777Vx    ",
"           ;*7u=ffu=ddu4Ss5rt7u77777#77777Fx    ",
"          ;a7upusupdd&&=Ag=*a-------------Vx    ",
"         ;g7u=ifu=dduCueArtG77i77777#77777Fx    ",
"        ;a7upusupdduCu4uAts7G7#77777#77777Vx    ",
"       ;*7u=ffu=dd&&*&g=D*3*--------------Fx    ",
"      ;a7upusupdduCueu#yS7G777#77777#77777Vx    ",
"     ;g7u=ifu=dd&Cueu#5sS77777#77777#77777Fx    ",
"    ;&7u4=supdd &=2g=*a-S-----------------Vx    ",
"   ;*7u4fuu=dd  *uu#5srsD77777#77777#77777Fx    ",
"  ;=7ad=4updd   2u#ysrs5S77777#77777#77777Vx    ",
"  X=udddu=dd    g2*a3---S-----------------Fx    ",
"  ;dp77apdd     =ysrsfs5S77777#77777#77777Vx    ",
"  Xdd=g=dd      *srs7s5sD77777#77777#77777Fx    ",
"   =ddddd       aNlNkNNNNNNNNNNNNNNNNNNNNNlx    ",
"    ==g=         xxxxxxxxxxxxxxxxxxxxxxxxxxx    ",
"                                                "};
