/* XPM */
static char * image_name[] = {
"48 48 20 1",
" 	c #535353535353",
".	c #B2B2C0C0DCDC",
"X	c #A7A7A7A7A7A7",
"o	c #DBDBDBDBDBDB",
"O	c None",
"+	c #212121212121",
"@	c #5F5F5A5A5656",
"#	c #7A7A75757272",
"$	c #92928C8C8787",
"%	c #B5B5ACACA3A3",
"&	c #D5D5CCCCC3C3",
"*	c #FDFDFBFBF3F3",
"=	c #FFFFFFFFFFFF",
"-	c #F3F3E9E9DDDD",
";	c #141410101010",
":	c #1E1E1B1B1818",
">	c #080808080808",
",	c #3D3D3A3A3838",
"<	c #2B2B29292525",
"1	c #181818181010",
"                                               .",
"                                              Xo",
"  OOOOOOOOOOOOOOOOOOOOOOOOOOOOOOOOOOOOOOOOOOOOoo",
"  OOOOOOOOOOOOOOOOOOOOOOOOOOOOOOOOOOOOOOOOOOOOoo",
"  OOOOOOOOOOOOOOOOOOOOOOOOOOOOOOOOOOOOOOOOOOOOoo",
"  OOOOOOOOOOOOOOOOOOOOOOOOOOOOOOOOOOOOOOOOOOOOoo",
"  OOOOOOOOOOOOOOOOOOOOOOOOOOOOOOOOOOOOOOOOOOOOoo",
"  OOOOOOOOOOOOOOOOOOOOOOOOOOOOOOOOOOOOOOOOOOOOoo",
"  OOOOOOOOOOOOOOOO+@##$$$$##@+OOOOOOOOOOOOOOOOoo",
"  OOOOOOOOOOOOO@%&**=========*-%$;OOOOOOOOOOOOoo",
"  OOOOOOOOOOO@&==============****-#OOOOOOOOOOOoo",
"  OOOOOOOOOO$**=================***%:OOOOOOOOOoo",
"  OOOOOOOOO$*==================**=*=%OOOOOOOOOoo",
"  OOOOOOOO@-*==========**======*===**@OOOOOOOOoo",
"  OOOOOOOO%-**=========*===========**%>OOOOOOOoo",
"  OOOOOOO:&--**=======-&&-**======**=-,OOOOOOOoo",
"  OOOOOOO@&--***====&@<<<+@%**===**==*#OOOOOOOoo",
"  OOOOOOO#&&---***=&+:;>;;;+#==**=****%OOOOOOOoo",
"  OOOOOOO$&&&--****#;OOOOOO;+&===****-%OOOOOOOoo",
"  OOOOOOO$&&&----**@OOOOOOOO;&*****---&OOOOOOOoo",
"  OOOOOOO$%&&&&----&%%%%%%%%%-=***----&OOOOOOOoo",
"  OOOOOOO$&%&&&&-----**********-----&&&;OOOOOOoo",
"  OOOOOOO$%%&&&&&&-----*-*-*------&-&&&:OOOOOOoo",
"  OOOOOOO$%%%%&&&&&&-&---------&-&&&&&&1OOOOOOoo",
"  OOOOOOO$%%%%%&&&&&&&&&-&-&&&&&&&&&&%%<OOOOOOoo",
"  OOOOOOO#$%%%%%&%&&&&&&&&&&&&&&&&%%%%%:OOOOOOoo",
"  OOOOOOO#$$%%%%%&%@:::::::::+::11::::1;OOOOOOoo",
"  OOOOOOO#$$$%%%%%%#OOOOOOOOOOOOOOOOOOOOOOOOOOoo",
"  OOOOOOO#$$$$$%%%%@;OOOOOOO1<+++<++:;OOOOOOOOoo",
"  OOOOOOO@$$$$$$$%$#:OOOOOOO+$$$$$$#$##OOOOOOOoo",
"  OOOOOOO@$$$$$$$%$$<OOOOOOO,$%$%$$$$$#OOOOOOOoo",
"  OOOOOOO,##$$$$$$$$@<1;;;+,@%$$$$$$$$#OOOOOOOoo",
"  OOOOOOO<###$$$$$$$$@@@,@@@$$$$$$$$$#@OOOOOOOoo",
"  OOOOOOOO######$$$$$$$$$$$$$$$$$#####,OOOOOOOoo",
"  OOOOOOOO,#########$#$#$#$$#$###$####<OOOOOOOoo",
"  OOOOOOOO+@######$###$##$###########@OOOOOOOOoo",
"  OOOOOOOOO<#@#####################@@,OOOOOOOOoo",
"  OOOOOOOOOO<@#################@#@@#,OOOOOOOOOoo",
"  OOOOOOOOOOO:,@@@#@#@#@#@#@#@#@#@@<OOOOOOOOOOoo",
"  OOOOOOOOOOOOO1,,@@@@#@#@@#@@@@,+OOOOOOOOOOOOoo",
"  OOOOOOOOOOOOOOOOOOO::<<<<:+>OOOOOOOOOOOOOOOOoo",
"  OOOOOOOOOOOOOOOOOOOOOOOOOOOOOOOOOOOOOOOOOOOOoo",
"  OOOOOOOOOOOOOOOOOOOOOOOOOOOOOOOOOOOOOOOOOOOOoo",
"  OOOOOOOOOOOOOOOOOOOOOOOOOOOOOOOOOOOOOOOOOOOOoo",
"  OOOOOOOOOOOOOOOOOOOOOOOOOOOOOOOOOOOOOOOOOOOOoo",
"  OOOOOOOOOOOOOOOOOOOOOOOOOOOOOOOOOOOOOOOOOOOOoo",
" Xoooooooooooooooooooooooooooooooooooooooooooo=o",
".oooooooooooooooooooooooooooooooooooooooooooooo="};
