/* XPM */
static char * image_name[] = {
"48 48 20 1",
" 	c #535353535353",
".	c #B2B2C0C0DCDC",
"X	c #A7A7A7A7A7A7",
"o	c #DBDBDBDBDBDB",
"O	c None",
"+	c #0C0C0C0C0C0C",
"@	c #1D1D1B1B1818",
"#	c #181810101010",
"$	c #31312D2D2C2C",
"%	c #52524D4D4646",
"&	c #44443F3F3D3D",
"*	c #83837C7C7777",
"=	c #666661615C5C",
"-	c #292929292121",
";	c #C3C3BABAB1B1",
":	c #A8A89F9F9494",
">	c #292921212121",
",	c #EEEEE5E5DADA",
"<	c #393939393535",
"1	c #FFFFFFFFFFFF",
"                                               .",
"                                              Xo",
"  OOOOOOOOOOOOOOOOOOOOOOOOOOOOOOOOOOOOOOOOOOOOoo",
"  OOOOOOOOOOOOOOOOOOOOOOOOOOOOOOOOOOOOOOOOOOOOoo",
"  OOOOOOOOOOOOOOOOOOOOOOOOOOOOOOOOOOOOOOOOOOOOoo",
"  OOOOOOOOOOOOOOOOOOOOOOOOOOOOOOOOOOOOOOOOOOOOoo",
"  OOOOOOOOOOOOOOOOOOOOOOOOOOOOOOOOOOOOOOOOOOOOoo",
"  OOOOOOOOOOOOOOOOOOOO+@#OOOOOOOOOOOOOOOOOOOOOoo",
"  OOOOOOOOOOOOOOOOOOO@$$%%%%&$$@OOOOOOOOOOOOOOoo",
"  OOOOOOOOOOOOOOOOOO@$$$%*=====%&OOOOOOOOOOOOOoo",
"  OOOOOOOOOOOOOOOOO#$-$$&;;:***==>OOOOOOOOOOOOoo",
"  OOOOOOOOOOOOOOOO+>$$-$$;,;;;:**%OOOOOOOOOOOOoo",
"  OOOOOOOOOOOOOOOO#$-$$$$;,,,;;;:*OOOOOOOOOOOOoo",
"  OOOOOOOOOOOOOOOO>-$$$$$;,,,,;;;:$OOOOOOOOOOOoo",
"  OOOOOOOOOOOOOOOO>$$$-$$:,,,,;;;:%OOOOOOOOOOOoo",
"  OOOOOOOOOOOOOOO+$-$$$$$:,,,;,;;:=OOOOOOOOOOOoo",
"  OOOOOOOOOOOOOOO#-$--$$$*,,;;;;::=OOOOOOOOOOOoo",
"  OOOOOOOOOOOOOOO#$->$$$$=;;;;::::=OOOOOOOOOOOoo",
"  OOOOOOOOOOOOOOO@-<&&$$$=;;;::::*=OOOOOOOOOOOoo",
"  OOOOOOOOOOOOOOO@>=:*<$$%;::::***=OOOOOOOOOOOoo",
"  OOOOOOOOOOOOOOO@$;;*<-$%:::*****=OOOOOOOOOOOoo",
"  OOOOOOOOOOOOOOO@$$$$$$$&*:*****==OOOOOOOOOOOoo",
"  OOOOOOOOOOOOOOO@>$-$-$-&****=*==%OOOOOOOOOOOoo",
"  OOOOOOOOOOOOOOO@$>$>$>$&*=*=====%OOOOOOOOOOOoo",
"  OOOOOOOOOOOOOOO@->$$>$$$=*=====%%OOOOOOOOOOOoo",
"  OOOOOOOOOOOOOOO@>&&<$-$<====%=%=%OOOOOOOOOOOoo",
"  OOOOOOOOOOOOOOO@>:,;;;:*->@@@@@@#OOOOOOOOOOOoo",
"  OOOOOOOOOOOOOOO@>;,,;;;:OOOOOOOOOOOOOOOOOOOOoo",
"  OOOOOOOOOOOOOOO@>;,,,,;;OOOOOOOOOOOOOOOOOOOOoo",
"  OOOOOOOOOOOOOOO@>;,,;:::&&%&&$>#OOOOOOOOOOOOoo",
"  OOOOOOOOOOOOOOO@>:,,&$<%%%%%%%%%$OOOOOOOOOOOoo",
"  OOOOOOOOOOOOOOO#-=::>>-$%%%%%%&%&OOOOOOOOOOOoo",
"  OOOOOOOOOOOOOOO#-$&&>-$$%%%%%%%&$OOOOOOOOOOOoo",
"  OOOOOOOOOOOOOOO+>$>---><%%%&%&%%$OOOOOOOOOOOoo",
"  OOOOOOOOOOOOOOO+>->--->&%%%%%%&%$OOOOOOOOOOOoo",
"  OOOOOOOOOOOOOOOO@-$->$-<%&%&%&&%>OOOOOOOOOOOoo",
"  OOOOOOOOOOOOOOOO@>->$->&&&&&&&&&@OOOOOOOOOOOoo",
"  OOOOOOOOOOOOOOOOO>$>-$-<&&&&&&&$+OOOOOOOOOOOoo",
"  OOOOOOOOOOOOOOOOO#>-->$$$$$$$$$>OOOOOOOOOOOOoo",
"  OOOOOOOOOOOOOOOOOO#>$-->->-->>>+OOOOOOOOOOOOoo",
"  OOOOOOOOOOOOOOOOOOO+>-->>>@@@++OOOOOOOOOOOOOoo",
"  OOOOOOOOOOOOOOOOOOOOO++OOOOOOOOOOOOOOOOOOOOOoo",
"  OOOOOOOOOOOOOOOOOOOOOOOOOOOOOOOOOOOOOOOOOOOOoo",
"  OOOOOOOOOOOOOOOOOOOOOOOOOOOOOOOOOOOOOOOOOOOOoo",
"  OOOOOOOOOOOOOOOOOOOOOOOOOOOOOOOOOOOOOOOOOOOOoo",
"  OOOOOOOOOOOOOOOOOOOOOOOOOOOOOOOOOOOOOOOOOOOOoo",
" Xoooooooooooooooooooooooooooooooooooooooooooo1o",
".oooooooooooooooooooooooooooooooooooooooooooooo1"};
