/* XPM */
static char * image_name[] = {
"48 48 19 1",
" 	c #535353535353",
".	c #B2B2C0C0DCDC",
"X	c #A7A7A7A7A7A7",
"o	c #DBDBDBDBDBDB",
"O	c None",
"+	c #181815151212",
"@	c #2B2B29292626",
"#	c #3D3D3A3A3737",
"$	c #4E4E4A4A4242",
"%	c #52524E4E4A4A",
"&	c #101010100808",
"*	c #5A5A52525252",
"=	c #666661615B5B",
"-	c #5A5A52524A4A",
";	c #21211C1C1818",
":	c #4A4A42424242",
">	c #101010101010",
",	c #080808080808",
"<	c #FFFFFFFFFFFF",
"                                               .",
"                                              Xo",
"  OOOOOOOOOOOOOOOOOOOOOOOOOOOOOOOOOOOOOOOOOOOOoo",
"  OOOOOOOOOOOOOOOOOOOOOOOOOOOOOOOOOOOOOOOOOOOOoo",
"  OOOOOOOOOOOOOOOOOOOOOOOOOOOOOOOOOOOOOOOOOOOOoo",
"  OOOOOOOOOOOOOOOOOOOOOOOOOOOOOOOOOOOOOOOOOOOOoo",
"  OOOOOOOOOOOOOOOOOOOOOOOOOOOOOOOOOOOOOOOOOOOOoo",
"  OOOOOOOOOOOOOOOOOOOOOOOOOOOOOOOOOOOOOOOOOOOOoo",
"  OOOOOOOOOOOOOOOOOOO+@##$%%%$#&OOOOOOOOOOOOOOoo",
"  OOOOOOOOOOOOOOOO+##%%*%**=====@OOOOOOOOOOOOOoo",
"  OOOOOOOOOOOOOO+#%%%*%%*-*=*====$;OOOOOOOOOOOoo",
"  OOOOOOOOOOOOO@$%%$%%%%%*-**=====*#OOOOOOOOOOoo",
"  OOOOOOOOOOOO@$%%%%%%%*%*-*=*=====%#OOOOOOOOOoo",
"  OOOOOOOOOOO;$%%%$%%%%%*%-**======*%;OOOOOOOOoo",
"  OOOOOOOOOOO#%%$$%%%%%%%%*-**=====*%#OOOOOOOOoo",
"  OOOOOOOOOO;$%%$%$%%$$$%%*%***====*$$+OOOOOOOoo",
"  OOOOOOOOOO@$$%$%%:#@@@@$%-**=*====$%@OOOOOOOoo",
"  OOOOOOOOOO#%$$%$$@@@@;;@%*-**=====$$@OOOOOOOoo",
"  OOOOOOOOOO#$%$%%:##@@&OO$%%-***===::#OOOOOOOoo",
"  OOOOOOOOOO:$%%$%$:::#OOO#%%%*-===*$:#OOOOOOOoo",
"  OOOOOOOOOO$$%$%$%%$$:##:$%%*-***=*$:#OOOOOOOoo",
"  OOOOOOOOO&$$%$%$%$%%%$%%%%%%*-**=*::#OOOOOOOoo",
"  OOOOOOOOO>$$$%$%$%%$%$$%%%%%%-****::#,OOOOOOoo",
"  OOOOOOOOO+$$$$$$%$%$%%%$%%%%%%-*-*:#:OOOOOOOoo",
"  OOOOOOOOO>$$$$$%$%$%$%$%$%%%%%%**-#:#OOOOOOOoo",
"  OOOOOOOOO+$$$$$$%$%$%$$$$%%%%%%*-*###,OOOOOOoo",
"  OOOOOOOOO>$$$:$$%%%%#&>>+>>+++++;;>&&OOOOOOOoo",
"  OOOOOOOOO&$$$$$$%%%*:OOOOOOOOOOOOOOOOOOOOOOOoo",
"  OOOOOOOOOO$$::%:%%%%#OOOOOOOOOOOOOOOOOOOOOOOoo",
"  OOOOOOOOOO:$$$$$%%%%%,O>##:$%%%$$$##@OOOOOOOoo",
"  OOOOOOOOOO:$$$%$%***%@O>$$%%%%%%*%##@OOOOOOOoo",
"  OOOOOOOOOO#$%%$%$****$@@%$%$%%%%%$##@OOOOOOOoo",
"  OOOOOOOOOO#$%$%$%%***%%%$%%%%%*$*$#@@OOOOOOOoo",
"  OOOOOOOOOO;%%%%%%$%$%%$%%%%%%*%%*:##+OOOOOOOoo",
"  OOOOOOOOOOO:$%%%%%%%%%*$%%%%*%%**##@+OOOOOOOoo",
"  OOOOOOOOOOO@$%%%%%%%%%%%%%%%%**%%#@@OOOOOOOOoo",
"  OOOOOOOOOOOO#%%*%%*%%*%%*%***%-*$@@+OOOOOOOOoo",
"  OOOOOOOOOOOOO@%*%*%*%*%**%*%*-*-:@+OOOOOOOOOoo",
"  OOOOOOOOOOOOOO+#$**%***%***-*-*$;&OOOOOOOOOOoo",
"  OOOOOOOOOOOOOOOO>@#$%*%-*--***:+OOOOOOOOOOOOoo",
"  OOOOOOOOOOOOOOOOOOOO;@#::$::#;OOOOOOOOOOOOOOoo",
"  OOOOOOOOOOOOOOOOOOOOOOOOOOOOOOOOOOOOOOOOOOOOoo",
"  OOOOOOOOOOOOOOOOOOOOOOOOOOOOOOOOOOOOOOOOOOOOoo",
"  OOOOOOOOOOOOOOOOOOOOOOOOOOOOOOOOOOOOOOOOOOOOoo",
"  OOOOOOOOOOOOOOOOOOOOOOOOOOOOOOOOOOOOOOOOOOOOoo",
"  OOOOOOOOOOOOOOOOOOOOOOOOOOOOOOOOOOOOOOOOOOOOoo",
" Xoooooooooooooooooooooooooooooooooooooooooooo<o",
".oooooooooooooooooooooooooooooooooooooooooooooo<"};
