/* XPM */
static char * image_name[] = {
"48 48 21 1",
" 	c #535353535353",
".	c #B2B2C0C0DCDC",
"X	c #A7A7A7A7A7A7",
"o	c #DBDBDBDBDBDB",
"O	c None",
"+	c #252521212121",
"@	c #5E5E58585454",
"#	c #7A7A74746F6F",
"$	c #98988C8C8585",
"%	c #696965655E5E",
"&	c #54544F4F4A4A",
"*	c #3E3E3B3B3838",
"=	c #C4C4B9B9AEAE",
"-	c #52524A4A4242",
";	c #31312D2D2929",
":	c #101008080808",
">	c #101010100808",
",	c #1A1A18181616",
"<	c #292929292525",
"1	c #080808080808",
"2	c #FFFFFFFFFFFF",
"                                               .",
"                                              Xo",
"  OOOOOOOOOOOOOOOOOOOOOOOOOOOOOOOOOOOOOOOOOOOOoo",
"  OOOOOOOOOOOOOOOOOOOOOOOOOOOOOOOOOOOOOOOOOOOOoo",
"  OOOOOOOOOOOOOOOOOOOOOOOOOOOOOOOOOOOOOOOOOOOOoo",
"  OOOOOOOOOOOOOOOOOOOOOOOOOOOOOOOOOOOOOOOOOOOOoo",
"  OOOOOOOOOOOOOOOOOOOOOOOOOOOOOOOOOOOOOOOOOOOOoo",
"  OOOOOOOOOOOOOOOOOOOOOOOOOOOOOOOOOOOOOOOOOOOOoo",
"  OOOOOOOOOOOOOO+@#$$##%&*+OOOOOOOOOOOOOOOOOOOoo",
"  OOOOOOOOOOOOO%====$$$$###@-;:OOOOOOOOOOOOOOOoo",
"  OOOOOOOOOOO>$=====$$$$##%%%%@*:OOOOOOOOOOOOOoo",
"  OOOOOOOOOO,#=====$=$$###%%%%@@&+OOOOOOOOOOOOoo",
"  OOOOOOOOO+-======$$$$####%%%@@@&+OOOOOOOOOOOoo",
"  OOOOOOOO>*#======$$$$###%%%%@@@@&:OOOOOOOOOOoo",
"  OOOOOOOO<*======$=$$####%%%%@@%@@;OOOOOOOOOOoo",
"  OOOOOOOO**======$$$$###%%%%%%@@@@&OOOOOOOOOOoo",
"  OOOOOOO,*-=====$$$$$%*++<*&%%@%@@@+OOOOOOOOOoo",
"  OOOOOOO,*@====$=$$$#;,,<<+<-@%@%@%;OOOOOOOOOoo",
"  OOOOOOO+;%===$=$$$$%OOO,;;;;%@%@%@*OOOOOOOOOoo",
"  OOOOOOO+*#===$$$$$#%OOOO****@@@%@@-OOOOOOOOOoo",
"  OOOOOOO<;#=$=$$$$#$#@@&--&--@%@@@@-OOOOOOOOOoo",
"  OOOOOOO<;#=$$$$$$####%%%%%%@@@@@@@&OOOOOOOOOoo",
"  OOOOOOO<;#$=$$$######%%%%@@%@@@@@@-OOOOOOOOOoo",
"  OOOOOOO<;%$$$$$#$###%%%%@@@@@@@@@@-OOOOOOOOOoo",
"  OOOOOOO+;#$$$##$##%%%%%%@%@@@@@@&&-OOOOOOOOOoo",
"  OOOOOOO+;%$$$####%#%%%@@@@&&&&-----OOOOOOOOOoo",
"  OOOOOOO+;%$##$###%%@>,1>O:OOOOOOOOOOOOOOOOOOoo",
"  OOOOOOO+;@#$##%#%%%@OOOOOOOOOOOOOOOOOOOOOOOOoo",
"  OOOOOOO++&####%%%%%@OOO:+;;*****;;,OOOOOOOOOoo",
"  OOOOOOO+<&##%%%%%%@@:OO:-----&&&---OOOOOOOOOoo",
"  OOOOOOO,+*#%%#%%%@@@+OO+--*-------*OOOOOOOOOoo",
"  OOOOOOO,+*%%%%%@@@@@*,;-&&&-------;OOOOOOOOOoo",
"  OOOOOOO:+;%%%%@@@@@&&&&&&&&&------;OOOOOOOOOoo",
"  OOOOOOOO++&%%@@@@@&&&&&--&--------+OOOOOOOOOoo",
"  OOOOOOOO,+-%@@@@&&&&&---&--------*1OOOOOOOOOoo",
"  OOOOOOOOO+;@@@@&&&&&--&-&--------;OOOOOOOOOOoo",
"  OOOOOOOOO:+*@@&&&&&&--&-------*-*>OOOOOOOOOOoo",
"  OOOOOOOOOO:+&&@&&&---&--&------*1OOOOOOOOOOOoo",
"  OOOOOOOOOOOO,-&&&--&--------**+OOOOOOOOOOOOOoo",
"  OOOOOOOOOOOOO:;---&--&--**;<,OOOOOOOOOOOOOOOoo",
"  OOOOOOOOOOOOOOOO,;;;<<+>OOOOOOOOOOOOOOOOOOOOoo",
"  OOOOOOOOOOOOOOOOOOOOOOOOOOOOOOOOOOOOOOOOOOOOoo",
"  OOOOOOOOOOOOOOOOOOOOOOOOOOOOOOOOOOOOOOOOOOOOoo",
"  OOOOOOOOOOOOOOOOOOOOOOOOOOOOOOOOOOOOOOOOOOOOoo",
"  OOOOOOOOOOOOOOOOOOOOOOOOOOOOOOOOOOOOOOOOOOOOoo",
"  OOOOOOOOOOOOOOOOOOOOOOOOOOOOOOOOOOOOOOOOOOOOoo",
" Xoooooooooooooooooooooooooooooooooooooooooooo2o",
".oooooooooooooooooooooooooooooooooooooooooooooo2"};
