/* XPM */
static char * image_name[] = {
"48 48 20 1",
" 	c #535353535353",
".	c #B2B2C0C0DCDC",
"X	c #A7A7A7A7A7A7",
"o	c #DBDBDBDBDBDB",
"O	c None",
"+	c #4C4C48484444",
"@	c #575754544F4F",
"#	c #21211C1C1C1C",
"$	c #A4A49A9A9191",
"%	c #70706A6A6565",
"&	c #424242423939",
"*	c #FCFCFCFCF4F4",
"=	c #F3F3EBEBE2E2",
"-	c #D4D4CACAC1C1",
";	c #FFFFFFFFFFFF",
":	c #080808080808",
">	c #141414141010",
",	c #363632323131",
"<	c #292925252121",
"1	c #181818181818",
"                                               .",
"                                              Xo",
"  OOOOOOOOOOOOOOOOOOOOOOOOOOOOOOOOOOOOOOOOOOOOoo",
"  OOOOOOOOOOOOOOOOOOOOOOOOOOOOOOOOOOOOOOOOOOOOoo",
"  OOOOOOOOOOOOOOOOOOOOOOOOOOOOOOOOOOOOOOOOOOOOoo",
"  OOOOOOOOOOOOOOOOOOOOOOOOOOOOOOOOOOOOOOOOOOOOoo",
"  OOOOOOOOOOOOOOOOOOOOOOOOOOOOOOOOOOOOOOOOOOOOoo",
"  OOOOOOOOOOOOOOOOOOOOOOOOOOOOOOOOOOOOOOOOOOOOoo",
"  OOOOOOOOOOOOOOOOOO+@@@@+@++#OOOOOOOOOOOOOOOOoo",
"  OOOOOOOOOOOOOOOOO#$%$%%%%%%&OOOOOOOOOOOOOOOOoo",
"  OOOOOOOOOOOOOOOOO&**======-$OOOOOOOOOOOOOOOOoo",
"  OOOOOOOOOOOOOOOOO+;;;;;;*;;-OOOOOOOOOOOOOOOOoo",
"  OOOOOOOOOOOOOOOOO@;;;;;;;;;-OOOOOOOOOOOOOOOOoo",
"  OOOOOOOOOOOOOOOOO@;;;;;;*;*-:OOOOOOOOOOOOOOOoo",
"  OOOOOOOOOOOOOOOOO@;;;;;;;;;=OOOOOOOOOOOOOOOOoo",
"  OOOOOOOOOOOOOOOOO@;;;;=;;=;=OOOOOOOOOOOOOOOOoo",
"  OOOOOOOOOOOOOOOOO%;;;;;;;;;=OOOOOOOOOOOOOOOOoo",
"  OOOOOOOOOOOOOOOOO@;;;;;;;;;=OOOOOOOOOOOOOOOOoo",
"  OOOOOOOOOOOOOOOOO%;;;;;;;=;=OOOOOOOOOOOOOOOOoo",
"  OOOOOOOOOOOOOOOOO@;*;;;;;;;=OOOOOOOOOOOOOOOOoo",
"  OOOOOOOOOOOOOOOOO%=*=****=;=OOOOOOOOOOOOOOOOoo",
"  OOOOOOOOOOOOOOOOO@==========OOOOOOOOOOOOOOOOoo",
"  OOOOOOOOOOOOOOOOO@----=-=--->OOOOOOOOOOOOOOOoo",
"  OOOOOOOOOOOOOOOOO+---------->OOOOOOOOOOOOOOOoo",
"  OOOOOOOOOOOOOOOOO+$-$-$-$-$$>OOOOOOOOOOOOOOOoo",
"  OOOOOOOOOOOOOOOOO+$$$$$$$$-$:OOOOOOOOOOOOOOOoo",
"  OOOOOOOOOOOOOOOOO&$$$$$$$$$$OOOOOOOOOOOOOOOOoo",
"  OOOOOOOOOOOOOOOOO,%$%$%$$%$%OOOOOOOOOOOOOOOOoo",
"  OOOOOOOOOOOOOOOOO,%%%%%%%%%%>OOOOOOOOOOOOOOOoo",
"  OOOOOOOOOOOOOOOOO<%%%%%%%%%%:OOOOOOOOOOOOOOOoo",
"  OOOOOOOOOOOOOOOOO<@@@%@@%@%@OOOOOOOOOOOOOOOOoo",
"  OOOOOOOOOOOOOOOOO<@@@@@@@@@+OOOOOOOOOOOOOOOOoo",
"  OOOOOOOOOOOOOOOOO#@+@+@@@+@+OOOOOOOOOOOOOOOOoo",
"  OOOOOOOOOOOOOOOOO#+@++++@+@&OOOOOOOOOOOOOOOOoo",
"  OOOOOOOOOOOOOOOOO#++++++++++OOOOOOOOOOOOOOOOoo",
"  OOOOOOOOOOOOOOOOO1&&&&+&+&+&OOOOOOOOOOOOOOOOoo",
"  OOOOOOOOOOOOOOOOO1&&&&&&&&&,OOOOOOOOOOOOOOOOoo",
"  OOOOOOOOOOOOOOOOO>,,,<,,,,,<OOOOOOOOOOOOOOOOoo",
"  OOOOOOOOOOOOOOOOO:<<<<<<<<<#OOOOOOOOOOOOOOOOoo",
"  OOOOOOOOOOOOOOOOO:<<<<<<<<<>OOOOOOOOOOOOOOOOoo",
"  OOOOOOOOOOOOOOOOOO#11#1111>OOOOOOOOOOOOOOOOOoo",
"  OOOOOOOOOOOOOOOOOOOOOOOOOOOOOOOOOOOOOOOOOOOOoo",
"  OOOOOOOOOOOOOOOOOOOOOOOOOOOOOOOOOOOOOOOOOOOOoo",
"  OOOOOOOOOOOOOOOOOOOOOOOOOOOOOOOOOOOOOOOOOOOOoo",
"  OOOOOOOOOOOOOOOOOOOOOOOOOOOOOOOOOOOOOOOOOOOOoo",
"  OOOOOOOOOOOOOOOOOOOOOOOOOOOOOOOOOOOOOOOOOOOOoo",
" Xoooooooooooooooooooooooooooooooooooooooooooo;o",
".oooooooooooooooooooooooooooooooooooooooooooooo;"};
