/* XPM */
static char * image_name[] = {
"48 48 18 1",
" 	c #535353535353",
".	c #B2B2C0C0DCDC",
"X	c #A7A7A7A7A7A7",
"o	c #DBDBDBDBDBDB",
"O	c None",
"+	c #141410101010",
"@	c #1C1C18181818",
"#	c #080808080808",
"$	c #333331312E2E",
"%	c #393939393535",
"&	c #424242423939",
"*	c #424239393939",
"=	c #2B2B27272525",
"-	c #474744444242",
";	c #54544E4E4848",
":	c #212121211C1C",
">	c #7E7E78787070",
",	c #FFFFFFFFFFFF",
"                                               .",
"                                              Xo",
"  OOOOOOOOOOOOOOOOOOOOOOOOOOOOOOOOOOOOOOOOOOOOoo",
"  OOOOOOOOOOOOOOOOOOOOOOOOOOOOOOOOOOOOOOOOOOOOoo",
"  OOOOOOOOOOOOOOOOOOOOOOOOOOOOOOOOOOOOOOOOOOOOoo",
"  OOOOOOOOOOOOOOOOOOOOOOOOOOOOOOOOOOOOOOOOOOOOoo",
"  OOOOOOOOOOOOOOOOOOOOOOOOOOOOOOOOOOOOOOOOOOOOoo",
"  OOOOOOOOOOOOOOOOOOOOOO+@#OOOOOOOOOOOOOOOOOOOoo",
"  OOOOOOOOOOOOOOOOOOO+$%&&**%=#OOOOOOOOOOOOOOOoo",
"  OOOOOOOOOOOOOOOOO+=&&-*-&-;;;;%:OOOOOOOOOOOOoo",
"  OOOOOOOOOOOOOOOO@$&*-*&*&-;>;;;;*OOOOOOOOOOOoo",
"  OOOOOOOOOOOOOOO@%&-&&&-&-&-;>;>;;%OOOOOOOOOOoo",
"  OOOOOOOOOOOOOO#$&-*-*&*-&--;>;;>;;+OOOOOOOOOoo",
"  OOOOOOOOOOOOOO:*-&*&&---*--;;>;;;;$OOOOOOOOOoo",
"  OOOOOOOOOOOOOO$&*&-&-*&--&-;>;;>;;-OOOOOOOOOoo",
"  OOOOOOOOOOOOO+%&*-&*&-*&-&*-;;;;;;;OOOOOOOOOoo",
"  OOOOOOOOOOOOO@*&&*$=$&------;>;;>;;OOOOOOOOOoo",
"  OOOOOOOOOOOOO:&-*$=:=%------;;;;;;;#OOOOOOOOoo",
"  OOOOOOOOOOOOO=&*&%*%%*&-----;;;;;;;@OOOOOOOOoo",
"  OOOOOOOOOOOOO=&*;;;;;-------;>;;;;;:OOOOOOOOoo",
"  OOOOOOOOOOOOO$%*;>>;;-&-----;;;>;;>@OOOOOOOOoo",
"  OOOOOOOOOOOOO$*&--&-*&-&----;;;;;;;:OOOOOOOOoo",
"  OOOOOOOOOOOOO$*&%-*&-*-&----;;;;;;;=OOOOOOOOoo",
"  OOOOOOOOOOOOO$%%*&*&*&&-*-&-;;;;;;;=OOOOOOOOoo",
"  OOOOOOOOOOOOO$%*&%&-&*-&-*--;;;;;;;=OOOOOOOOoo",
"  OOOOOOOOOOOOO=%%%*%*&*&&&-&*-;;;;;;:OOOOOOOOoo",
"  OOOOOOOOOOOOOOOOOOO##$*-&-*-;-;;-;-:OOOOOOOOoo",
"  OOOOOOOOOOOOOOOOOOOOO=&&*&-*-;--;--@OOOOOOOOoo",
"  OOOOOOOOOOOOO:$=%**%*%*&-*&&-------@OOOOOOOOoo",
"  OOOOOOOOOOOOO$%%;>>>>-&*&&*&-------@OOOOOOOOoo",
"  OOOOOOOOOOOOO=%*>>>>>>%&-*&-&------+OOOOOOOOoo",
"  OOOOOOOOOOOOO=%$->>>>**&*&-*------*OOOOOOOOOoo",
"  OOOOOOOOOOOOO:*%*;;;;%&*-&&--*--&-%OOOOOOOOOoo",
"  OOOOOOOOOOOOO:%%%*&*&*&&-*-*&-&*&*$OOOOOOOOOoo",
"  OOOOOOOOOOOOO+%*%%*%%&*-*&&-**&*%*:OOOOOOOOOoo",
"  OOOOOOOOOOOOOO$%%*%*&%*&&-*&%%%%*%+OOOOOOOOOoo",
"  OOOOOOOOOOOOOO@%*%%&**-&-*&%%$$%$:OOOOOOOOOOoo",
"  OOOOOOOOOOOOOOO:%%*%*&*&*&*$==$==#OOOOOOOOOOoo",
"  OOOOOOOOOOOOOOOO@%%*&*&-&-$=:==:+OOOOOOOOOOOoo",
"  OOOOOOOOOOOOOOOOO#=%*%&-&%=:@@+OOOOOOOOOOOOOoo",
"  OOOOOOOOOOOOOOOOOOO#:$$$=+#OOOOOOOOOOOOOOOOOoo",
"  OOOOOOOOOOOOOOOOOOOOOOOOOOOOOOOOOOOOOOOOOOOOoo",
"  OOOOOOOOOOOOOOOOOOOOOOOOOOOOOOOOOOOOOOOOOOOOoo",
"  OOOOOOOOOOOOOOOOOOOOOOOOOOOOOOOOOOOOOOOOOOOOoo",
"  OOOOOOOOOOOOOOOOOOOOOOOOOOOOOOOOOOOOOOOOOOOOoo",
"  OOOOOOOOOOOOOOOOOOOOOOOOOOOOOOOOOOOOOOOOOOOOoo",
" Xoooooooooooooooooooooooooooooooooooooooooooo,o",
".oooooooooooooooooooooooooooooooooooooooooooooo,"};
