/* XPM */
static char * image_name[] = {
"48 48 20 1",
" 	c #535353535353",
".	c #B2B2C0C0DCDC",
"X	c #A7A7A7A7A7A7",
"o	c #DBDBDBDBDBDB",
"O	c None",
"+	c #181818181414",
"@	c #363632322F2F",
"#	c #575752524C4C",
"$	c #5E5E5A5A5252",
"%	c #696964645E5E",
"&	c #7B7B74747070",
"*	c #212121212121",
"=	c #101010100808",
"-	c #292926262323",
";	c #4A4A46463F3F",
":	c #A9A99E9E9494",
">	c #52524A4A4A4A",
",	c #101008080808",
"<	c #080808080808",
"1	c #FFFFFFFFFFFF",
"                                               .",
"                                              Xo",
"  OOOOOOOOOOOOOOOOOOOOOOOOOOOOOOOOOOOOOOOOOOOOoo",
"  OOOOOOOOOOOOOOOOOOOOOOOOOOOOOOOOOOOOOOOOOOOOoo",
"  OOOOOOOOOOOOOOOOOOOOOOOOOOOOOOOOOOOOOOOOOOOOoo",
"  OOOOOOOOOOOOOOOOOOOOOOOOOOOOOOOOOOOOOOOOOOOOoo",
"  OOOOOOOOOOOOOOOOOOOOOOOOOOOOOOOOOOOOOOOOOOOOoo",
"  OOOOOOOOOOOOOOOOOOOOOOOOOOOOOOOOOOOOOOOOOOOOoo",
"  OOOOOOOOOOOOOOOOOOO+@@#$%%&%$*OOOOOOOOOOOOOOoo",
"  OOOOOOOOOOOOOOO=-;#%%&%&&&::::&-OOOOOOOOOOOOoo",
"  OOOOOOOOOOOOO+@#$$$%%%&&&&:&::::;OOOOOOOOOOOoo",
"  OOOOOOOOOOOO*>#$$$$%%%%&&&&::::::@OOOOOOOOOOoo",
"  OOOOOOOOOOO->##$#$$%%%&%&&:&::::::*OOOOOOOOOoo",
"  OOOOOOOOOO+;#>#$$#%$%%%&&&&&::::::$+OOOOOOOOoo",
"  OOOOOOOOOO@>##>#$#$$%%%%&&&&:&::::&@OOOOOOOOoo",
"  OOOOOOOOOO;#>####$#$>$$%&&&&&::::::;+OOOOOOOoo",
"  OOOOOOOOO*>##>#>#>@----;%&&&:&:::::;*OOOOOOOoo",
"  OOOOOOOOO@>>>>##>----++,>%&&&&:&:::@@OOOOOOOoo",
"  OOOOOOOOO@#>>##>;@--+OOO@%&&&&&::::@@OOOOOOOoo",
"  OOOOOOOOO;>>>>>>;;@@,OOO*%%&&&&:&::>@OOOOOOOoo",
"  OOOOOOOOO;>>>>>#>>>>@;;;$%%%&&&&:&:>@OOOOOOOoo",
"  OOOOOOOOO;>>>>>>#>###$$$%%%&%&&&&:&#@OOOOOOOoo",
"  OOOOOOOOO;>>>>>>>#>###$$$%%%%&&&&&:>@,OOOOOOoo",
"  OOOOOOOOO>>>>>>>>>##>#$$$%$%%%&&&&&#@OOOOOOOoo",
"  OOOOOOOOO>>>>>>>>#>>####$$%$%%&%&&&#@,OOOOOOoo",
"  OOOOOOOOO;;;;>;>>>>>>#>#$$$%%%%&&&&>@,OOOOOOoo",
"  OOOOOOOOOOOOOOOOO<<<=,==-$$$%%%%%&&>@,OOOOOOoo",
"  OOOOOOOOOOOOOOOOOOOOOOOO-$$$%$%%%%&;@OOOOOOOoo",
"  OOOOOOOOO+*-@@-----*<OOO-$$$$%%%%&%;@OOOOOOOoo",
"  OOOOOOOOO;>>>>#>>>>>,OOO@#$#$%$%%%%;@OOOOOOOoo",
"  OOOOOOOOO;;>>>>>>>>>-OOO;>$$$$%%%%%@-OOOOOOOoo",
"  OOOOOOOOO@>>>>>>##$##@++>#$#$$%$%%$@*OOOOOOOoo",
"  OOOOOOOOO@#>>>>>#####>#>#$#$$$$%%%$@+OOOOOOOoo",
"  OOOOOOOOO->#>>#>##>#####$>$$$$$$%$;@,OOOOOOOoo",
"  OOOOOOOOO+>>>#>######$$$>$$$$$$$%$@*OOOOOOOOoo",
"  OOOOOOOOOO@##>##########$$#$$$$$$#-,OOOOOOOOoo",
"  OOOOOOOOOO+;>#####$$$$$$#$$#$#%$$@=OOOOOOOOOoo",
"  OOOOOOOOOOO+;###$$#$###$#$#$$$$$;<OOOOOOOOOOoo",
"  OOOOOOOOOOOOO-;$>$$#$$$$$#$#$$$@<OOOOOOOOOOOoo",
"  OOOOOOOOOOOOOOO+@@>>#$#$#$#$#;*OOOOOOOOOOOOOoo",
"  OOOOOOOOOOOOOOOOOOOO+*-@@@-*,OOOOOOOOOOOOOOOoo",
"  OOOOOOOOOOOOOOOOOOOOOOOOOOOOOOOOOOOOOOOOOOOOoo",
"  OOOOOOOOOOOOOOOOOOOOOOOOOOOOOOOOOOOOOOOOOOOOoo",
"  OOOOOOOOOOOOOOOOOOOOOOOOOOOOOOOOOOOOOOOOOOOOoo",
"  OOOOOOOOOOOOOOOOOOOOOOOOOOOOOOOOOOOOOOOOOOOOoo",
"  OOOOOOOOOOOOOOOOOOOOOOOOOOOOOOOOOOOOOOOOOOOOoo",
" Xoooooooooooooooooooooooooooooooooooooooooooo1o",
".oooooooooooooooooooooooooooooooooooooooooooooo1"};
