/* XPM */
static char * image_name[] = {
"48 48 20 1",
" 	c #535353535353",
".	c #B2B2C0C0DCDC",
"X	c #A7A7A7A7A7A7",
"o	c #DBDBDBDBDBDB",
"O	c None",
"+	c #292925252121",
"@	c #5F5F5A5A5555",
"#	c #797975757171",
"$	c #90908A8A8686",
"%	c #B5B5ACACA3A3",
"&	c #D7D7CDCDC5C5",
"*	c #FFFFFFFFFFFF",
"=	c #FDFDFBFBF3F3",
"-	c #1E1E1C1C1A1A",
";	c #F3F3E9E9DDDD",
":	c #141410101010",
">	c #080808080808",
",	c #3A3A35353333",
"<	c #101008080808",
"1	c #181818181010",
"                                               .",
"                                              Xo",
"  OOOOOOOOOOOOOOOOOOOOOOOOOOOOOOOOOOOOOOOOOOOOoo",
"  OOOOOOOOOOOOOOOOOOOOOOOOOOOOOOOOOOOOOOOOOOOOoo",
"  OOOOOOOOOOOOOOOOOOOOOOOOOOOOOOOOOOOOOOOOOOOOoo",
"  OOOOOOOOOOOOOOOOOOOOOOOOOOOOOOOOOOOOOOOOOOOOoo",
"  OOOOOOOOOOOOOOOOOOOOOOOOOOOOOOOOOOOOOOOOOOOOoo",
"  OOOOOOOOOOOOOOOOOOOOOOOOOOOOOOOOOOOOOOOOOOOOoo",
"  OOOOOOOOOOOOOOOO+@#$$$$$$#@+OOOOOOOOOOOOOOOOoo",
"  OOOOOOOOOOOOO#%&***********=&%#-OOOOOOOOOOOOoo",
"  OOOOOOOOOOO#&******************&#OOOOOOOOOOOoo",
"  OOOOOOOOOO$=******************=**%-OOOOOOOOOoo",
"  OOOOOOOOO#=****=******************%OOOOOOOOOoo",
"  OOOOOOOO+&=************************$OOOOOOOOoo",
"  OOOOOOOO#===**=******************=*&OOOOOOOOoo",
"  OOOOOOOO%;;==*****==;&&;***********=@OOOOOOOoo",
"  OOOOOOO+&;;;==***=%@++++@%=*******==$OOOOOOOoo",
"  OOOOOOO@&;;;;===*%+-::>:--$*******==%OOOOOOOoo",
"  OOOOOOO#&&&;;====@>OOOOOO:,;****===;&OOOOOOOoo",
"  OOOOOOO$&&&;;;;=;-OOOOOOOO-;**====;;&OOOOOOOoo",
"  OOOOOOO$%&&&&;;;;%%%%%%%%%%====;=;;&&OOOOOOOoo",
"  OOOOOOO$%%&&&&&;;;==========;=;;;;&;&<OOOOOOoo",
"  OOOOOOO$%%%&&&&;&;;;;;;;=;=;;;;;&;&&%+OOOOOOoo",
"  OOOOOOO$%%%%&&&&&;&;;;;;;;;;;&;&&&&&&-OOOOOOoo",
"  OOOOOOO$%%%%%&&&&&&&&;&;&;&;&&&&&&&%%+OOOOOOoo",
"  OOOOOOO#$%%%%%%%%&&&&&&&&&&&&&&&%&%%%+OOOOOOoo",
"  OOOOOOOO1::111----1111----,%&&%%&%%%%+OOOOOOoo",
"  OOOOOOOOOOOOOOOOOOOOOOOOOO+%%%%%%%%%$1OOOOOOoo",
"  OOOOOOOO<--:-1---:OOOOOOOO,%%%%%%%%$$OOOOOOOoo",
"  OOOOOOO@#####$#$$@OOOOOOOO@%%%%%$%$%#>OOOOOOoo",
"  OOOOOOO@$$$$$$$%$@:OOOOOO1#$%$%$%$$$#OOOOOOOoo",
"  OOOOOOO@##$$$$$$$#,+::<:+,$$%$$$$$$$@OOOOOOOoo",
"  OOOOOOO,###$$$$$$$#@@@@@@#$$$$$$$$##@OOOOOOOoo",
"  OOOOOOO+######$$$$$$$$#$$$$$$$$###$#+OOOOOOOoo",
"  OOOOOOOO@######$##$#$#$$#$$$###$###@OOOOOOOOoo",
"  OOOOOOOO@###########$###$##########+OOOOOOOOoo",
"  OOOOOOOO-@######################@#,OOOOOOOOOoo",
"  OOOOOOOOO+@#@################@#@#,OOOOOOOOOOoo",
"  OOOOOOOOOO+@@@#@#@#@#@#@#@#@@#@@-OOOOOOOOOOOoo",
"  OOOOOOOOOOOO+,@@@@#@#@#@#@@@@,1OOOOOOOOOOOOOoo",
"  OOOOOOOOOOOOOOOO<-+++++--<OOOOOOOOOOOOOOOOOOoo",
"  OOOOOOOOOOOOOOOOOOOOOOOOOOOOOOOOOOOOOOOOOOOOoo",
"  OOOOOOOOOOOOOOOOOOOOOOOOOOOOOOOOOOOOOOOOOOOOoo",
"  OOOOOOOOOOOOOOOOOOOOOOOOOOOOOOOOOOOOOOOOOOOOoo",
"  OOOOOOOOOOOOOOOOOOOOOOOOOOOOOOOOOOOOOOOOOOOOoo",
"  OOOOOOOOOOOOOOOOOOOOOOOOOOOOOOOOOOOOOOOOOOOOoo",
" Xoooooooooooooooooooooooooooooooooooooooooooo*o",
".oooooooooooooooooooooooooooooooooooooooooooooo*"};
