/* XPM */
static char * image_name[] = {
"48 48 19 1",
" 	c #535353535353",
".	c #B2B2C0C0DCDC",
"X	c #A7A7A7A7A7A7",
"o	c #DBDBDBDBDBDB",
"O	c None",
"+	c #323230302D2D",
"@	c #52524A4A4242",
"#	c #5E5E5A5A5252",
"$	c #5A5A52524E4E",
"%	c #52524E4E4A4A",
"&	c #44443F3F3D3D",
"*	c #151512121010",
"=	c #1C1C18181818",
"-	c #73736D6D6767",
";	c #292921212121",
":	c #4A4A4A4A4242",
">	c #101008080808",
",	c #212121212121",
"<	c #FFFFFFFFFFFF",
"                                               .",
"                                              Xo",
"  OOOOOOOOOOOOOOOOOOOOOOOOOOOOOOOOOOOOOOOOOOOOoo",
"  OOOOOOOOOOOOOOOOOOOOOOOOOOOOOOOOOOOOOOOOOOOOoo",
"  OOOOOOOOOOOOOOOOOOOOOOOOOOOOOOOOOOOOOOOOOOOOoo",
"  OOOOOOOOOOOOOOOOOOOOOOOOOOOOOOOOOOOOOOOOOOOOoo",
"  OOOOOOOOOOOOOOOOOOOOOOOOOOOOOOOOOOOOOOOOOOOOoo",
"  OOOOOOOOOOOOOOOOOOOOOOOOOOOOOOOOOOOOOOOOOOOOoo",
"  OOOOOOOOOOOOOOO+@###$%&+*OOOOOOOOOOOOOOOOOOOoo",
"  OOOOOOOOOOOOO=$----#####$@+=OOOOOOOOOOOOOOOOoo",
"  OOOOOOOOOOO=+#-----#-###$#$$&*OOOOOOOOOOOOOOoo",
"  OOOOOOOOOO;@%-----#-$####$##$%+OOOOOOOOOOOOOoo",
"  OOOOOOOOO;:@-------#-$##$##$$#$;OOOOOOOOOOOOoo",
"  OOOOOOOO>&:&------#-$#####$###$$*OOOOOOOOOOOoo",
"  OOOOOOOO;::%------#-###########$:OOOOOOOOOOOoo",
"  OOOOOOOO+&&#-------#-##$#####$##$*OOOOOOOOOOoo",
"  OOOOOOO>&&&-------#-$:+;++%######;OOOOOOOOOOoo",
"  OOOOOOO=&+:-------#-%=;;+;+%#####&OOOOOOOOOOoo",
"  OOOOOOO;&:&------#-#&O*++++&#####:OOOOOOOOOOoo",
"  OOOOOOO;&&+-------##&OO+&&+:$####:OOOOOOOOOOoo",
"  OOOOOOO+&&&-----#-#-$@:@%$%%#####:OOOOOOOOOOoo",
"  OOOOOOO++&&-----######$#$#$######:OOOOOOOOOOoo",
"  OOOOOOO+&&&---#-#######$$#$#$##$$%OOOOOOOOOOoo",
"  OOOOOOO++&+--#-##-$#$#$#$$$$#$$$$%OOOOOOOOOOoo",
"  OOOOOOO+&+&-#-######$$$$$$#$$$$$$@OOOOOOOOOOoo",
"  OOOOOOO++&+#-#####$%$%%$$$%$$%$$$:OOOOOOOOOOoo",
"  OOOOOOO>***;====*****>>&::::%%$$$:OOOOOOOOOOoo",
"  OOOOOOOOOOOOOOOOOOOOOOO&@%::%%%%@:OOOOOOOOOOoo",
"  OOOOOOOOOOOOOOOOOOOOOOO&:::%@%:%%&OOOOOOOOOOoo",
"  OOOOOOO,++++&&+:&&++;O>:::%@%@%::&OOOOOOOOOOoo",
"  OOOOOOO;++&$$$$$@%%$+O;%$%%%:::::+OOOOOOOOOOoo",
"  OOOOOOO,+++%%%$@%%@%:;%$$$$@@::@:+OOOOOOOOOOoo",
"  OOOOOOO=+++@%%@%@%@::%%%$$@@::::@;OOOOOOOOOOoo",
"  OOOOOOO>+++:@%%%@%::::::::::::&:&*OOOOOOOOOOoo",
"  OOOOOOOO;;+&@%@%@::::@:::&::&:::+OOOOOOOOOOOoo",
"  OOOOOOOO=;++:%@%::::@:::::&:::&:=OOOOOOOOOOOoo",
"  OOOOOOOO>;;;::::::@:::&:&::&:&:;OOOOOOOOOOOOoo",
"  OOOOOOOOO>;;&:::@:::&::::&::&&;OOOOOOOOOOOOOoo",
"  OOOOOOOOOO>=;:::::&:::&::&&&+*OOOOOOOOOOOOOOoo",
"  OOOOOOOOOOOO>;&@::::&:::&+;>OOOOOOOOOOOOOOOOoo",
"  OOOOOOOOOOOOOO>;+&&&++;=OOOOOOOOOOOOOOOOOOOOoo",
"  OOOOOOOOOOOOOOOOOOOOOOOOOOOOOOOOOOOOOOOOOOOOoo",
"  OOOOOOOOOOOOOOOOOOOOOOOOOOOOOOOOOOOOOOOOOOOOoo",
"  OOOOOOOOOOOOOOOOOOOOOOOOOOOOOOOOOOOOOOOOOOOOoo",
"  OOOOOOOOOOOOOOOOOOOOOOOOOOOOOOOOOOOOOOOOOOOOoo",
"  OOOOOOOOOOOOOOOOOOOOOOOOOOOOOOOOOOOOOOOOOOOOoo",
" Xoooooooooooooooooooooooooooooooooooooooooooo<o",
".oooooooooooooooooooooooooooooooooooooooooooooo<"};
