/* XPM */
static char * image_name[] = {
"48 48 125 2",
"  	c #000000000000",
". 	c #9B9B9B9B9B9B",
"X 	c #494936363030",
"o 	c #4D4D41414040",
"O 	c #1E1E1B1B1F1F",
"+ 	c #050504040B0B",
"@ 	c #404035353131",
"# 	c #4F4F45454444",
"$ 	c #474732322C2C",
"% 	c #52523E3E3939",
"& 	c #85855F5F5454",
"* 	c #62624A4A4444",
"= 	c #656554545353",
"- 	c #8D8D67675C5C",
"; 	c #6A6A59595959",
": 	c #94946F6F6767",
"> 	c #949478787676",
", 	c #96967B7B7979",
"< 	c #818159594E4E",
"1 	c #AAAA7C7C7070",
"2 	c #C8C8A4A49F9F",
"3 	c #C5C597978D8D",
"4 	c #B9B98E8E8686",
"5 	c #ABAB77776D6D",
"6 	c #B1B183837474",
"7 	c #B2B27C7C6A6A",
"8 	c #ACAC6F6F5C5C",
"9 	c #BCBC88887676",
"0 	c #E7E7BDBDB7B7",
"q 	c #EBEBC1C1BCBC",
"w 	c #E3E3B7B7B1B1",
"e 	c #E1E1B4B4ADAD",
"r 	c #E0E0ABAB9E9E",
"t 	c #DADA9F9F9090",
"y 	c #D9D9A2A29494",
"u 	c #CECE93938282",
"i 	c #B3B374745D5D",
"p 	c #CDCD8D8D7878",
"a 	c #C8C88A8A7A7A",
"s 	c #C9C98E8E7D7D",
"d 	c #C1C17D7D6868",
"f 	c #C8C885857272",
"g 	c #C9C984846A6A",
"h 	c #C7C789897272",
"j 	c #CECE91917E7E",
"k 	c #D1D197978989",
"l 	c #D3D39C9C8C8C",
"z 	c #DBDBA4A49898",
"x 	c #EDEDBDBDB4B4",
"c 	c #E9E9B7B7ADAD",
"v 	c #E6E6B0B0A3A3",
"b 	c #E1E1A3A38F8F",
"n 	c #E0E0A4A49494",
"m 	c #E0E0A1A18E8E",
"M 	c #DCDC9E9E8787",
"N 	c #CDCD85856A6A",
"B 	c #B9B96F6F5252",
"V 	c #D4D491917878",
"C 	c #A4A458583E3E",
"Z 	c #C8C881816666",
"A 	c #C3C37C7C5F5F",
"S 	c #BDBD74745858",
"D 	c #CECE8A8A7272",
"F 	c #D2D28E8E7575",
"G 	c #D5D599998787",
"H 	c #D5D596968383",
"J 	c #DFDFA8A89A9A",
"K 	c #EBEBBABAB1B1",
"L 	c #E3E3A8A89595",
"P 	c #D8D897978080",
"I 	c #A8A862624949",
"U 	c #C7C77D7D6262",
"Y 	c #D3D392927E7E",
"T 	c #8D8D4C4C3A3A",
"R 	c #C2C279795D5D",
"E 	c #9B9B57574040",
"W 	c #ACAC69695252",
"Q 	c #E9E9B3B3A7A7",
"! 	c #DADA9B9B8585",
"~ 	c #D4D494948181",
"^ 	c #8C8C4A4A3535",
"/ 	c #B7B76B6B4E4E",
"( 	c #E6E6ABAB9B9B",
") 	c #B0B064644949",
"_ 	c #9C9C53533C3C",
"` 	c #A7A75D5D4343",
"' 	c #74743A3A2D2D",
"] 	c #E9E9AFAFA1A1",
"[ 	c #99994C4C3131",
"{ 	c #94945F5F5252",
"} 	c #8B8B55554747",
"| 	c #989850503939",
" .	c #505035353131",
"..	c #969654543E3E",
"X.	c #7D7D45453939",
"o.	c #8F8F44442D2D",
"O.	c #686856565454",
"+.	c #969665655A5A",
"@.	c #CBCBA2A28F8F",
"#.	c #555555555555",
"$.	c #363625255858",
"%.	c #81814F4F5252",
"&.	c #070706066666",
"*.	c #51513D3DA5A5",
"=.	c #36362B2BAAAA",
"-.	c #21211A1A7F7F",
";.	c #7B7B6969A5A5",
":.	c #43433939C7C7",
">.	c #58584747D1D1",
",.	c #77776969F8F8",
"<.	c #57574A4ADCDC",
"1.	c #67675757E4E4",
"2.	c #E2E2AFAFA3A3",
"3.	c #414139398888",
"4.	c #88885A5A5555",
"5.	c #A5A59797FDFD",
"6.	c #C6C6B5B5DBDB",
"7.	c #5C5C49498B8B",
"8.	c #9C9C8888B0B0",
"9.	c #8F8F7C7CBCBC",
"0.	c #E9E9B1B1A1A1",
"q.	c #FFFFFFFFFFFF",
"w.	c #ECECB6B6ABAB",
"e.	c #9C9C2F2F2121",
"r.	c #5959C5C59999",
"                                                                                              . ",
"  X X X X o o o o o O   + + + + + O O O O O O O O O @ @ @ @ @ o o o # # # $ $ $ $ $ $ $ $ % & . ",
"  X % o * = = = = = * o o % % % X X X X X X X X $ X X $ $ $ X $ $ $ $ $ $ % % % % % % % % * - . ",
"  X # ; : > > > , , > > : : - : - & & - & & & < < & & & < & < < & & < & & & < < & & & & & - 1 . ",
"  o = > . 2 2 2 2 2 2 3 4 4 4 4 4 5 5 6 7 7 7 8 5 5 5 5 8 5 7 5 7 7 7 7 7 7 5 7 7 6 6 6 9 9 3 . ",
"  # ; , 2 0 0 q w w e r t y y y t u i p p a s i d f f g i a s h s h s p j j s s u u k u k l z . ",
"  # ; , 2 q q q 0 x c v b t n m M N B V p f p C Z g f A S D p f j D p F j k G k G H l t y J r . ",
"  # ; , 2 q q q K K K L P V M M F N I N g Z U C U N D B d j p f p g D p Y k H H k H l y t z J . ",
"  # ; , 2 q q x K v n M V Z V F N N T U A R S E U g A W f Y g h f d p p u k k k k l G y z r y . ",
"  # ; , 2 0 x 0 Q b ! ~ Y R N N N A ^ B R B / ^ B S B E U U R N i f D p j u k u u k l t z J 1 . ",
"  o ; , 2 0 q c ( m U Y V U R D N U ^ E / ) ) ^ _ ` ) ' / / I R I d p p a u u j p u k l y J 3 . ",
"  # ; > 2 w c ] t ! g S F N S N U B ' ' _ _ [ { } | [  .| _ ../ T S g D d j s a s u k k l z r . ",
"  # ; , 3 e v J M ! N / B Z B / / ` ' ' X.8 a : { d I ' ` _ ^ ' o.` B A S p a a j k u k l z : . ",
"  # O.> 3 y r n M P D B ) ) ) C C S } < 8 +.8 5 < } E ' ..T ^ ' o.o.C ) I g f g p k u k l y , . ",
"  o O., 3 7 z m M P F R C ` | E 6 q 1 : } } T 5 { ^ T ^ X.^ X.' X.^ | o.^ S A i a k l l l l z . ",
"  o O., 2 l W D F D N R ` T 8 @.4 6 9 E ^ .._ 7 W _ C ` E E ^ ..X.^ [ o.o.[ C W p u k l k l 1 . ",
"  # O., 2 r Y / S R / ` I W 1 , 2 5 E _ _ | T +.} X.X.^ T E i s ` _ _ ^ [ [ o.` f u k k k l 1 . ",
"  o O., 3 r t d I ) ) ) s w 4 8 { 4 I o.' ' $ #.$.O O O O %.1 T _ ` I I _ _ [ o.W a u u l y z . ",
"  o O., 3 y M F W ) C 9 4 6 { ..| ..1 * $.$.&.*.=.-.-.-.*.;.$. .' ^ ` W / C [ [ o.i s k y r 4 . ",
"  o O.> 3 y M R S | 8 4 9 8 | o.' ' # ;.=.=.=.=.:.:.:.>.,.:.=.$.* X.' | W i ` C _ [ f l z z - . ",
"  o = : 4 t P R ` s 9 6 W T o.'  .$.-.:.>.:.:.>.<.>.>.1.1.>.:.=.$.X.} X.^ I / ` ` [ ` u z 2.z . ",
"  o * : 4 G F S u 6 6 +.^ ' ' ' $.-.=.=.<.,.,.,.:.>.1.1.1.<.:.:.3.* %.4.4.^ ` S B ) C f z w 6 . ",
"  % * - 9 F Z y q 0 h E ^ o.' $.-.:.:.1.5.5.,.:.&.&.=.<.1.1.<.=.-.* 4.4.4.} ^ W / B / / z w 4 . ",
"  X * - 9 V z w w y B i 8 { : *.1.1.,.5.5.5.,.=.&.+ &.:.1.,.1.<.>.;.: , 1 { } T / S N B t e 3 . ",
"  % * - 9 l r r ! W [ ` ..T 3.>.<.1.5.5.6.5.,.-.+   O :.<.,.1.<.:.7.< - : +.{ } E B g p G e e . ",
"  X * - 9 k Y d ) C o.[ o.X.3.>.:.1.5.6.6.5.,.-.+ + -.<.<.:.<.:.=.#.X.X.4.{ { } ..C S H J Q , . ",
"  X * & 8 S A R ) [ o.o.X.4.3.>.:.,.5.6.6.5.,.-.+ &.:.1.1.<.:.=.3.= X.} 4.4.} } ..T ` Z J r 3 . ",
"  X * & i A S C [ o.o.' - , 7.:.:.,.5.6.6.5.5.*.=.>.1.,.1.<.:.=.3.%.} 4.- 4.} } E | | ` ! J y . ",
"  X * - i A ) [ [ o.o.' > 4 ; -.=.1.5.5.5.5.,.1.>.>.<.1.,.>.=.*.; 4.+.{ - +.} } ...._ I P L 1 . ",
"  % * - 7 R A B / / / ` ` W X.@ -.1.5.,.,.,.,.,.<.:.:.:.>.,.:.7.< +.+.+.+.{ } ..I i p m M m a . ",
"  % * - 9 Y P Y ~ ~ u P g A B W 8.5.9.1.1.>.>.1.*.3.3.*.*.*.8.+.W W i B i i A p l ! P D F M M . ",
"  X * : 4 t L r n y r r J L M ! e u s 4 9 7 7 4 6 i W 8 i i d . . . . . . . . . . . . . . . . . ",
"  X * > 3 r ] ( L ( v Q 0.c c K Q n t l G j p G h B S S / / R . q.q.q.q.q.q.q.q.q.q.q.q.q.q.  . ",
"  o = > 3 2.c 0.] ( 0.0.] c c Q c v Q J z z G y p A Z h p j p . q.q.q.q.q.q.q.q.q.q.q.q.q.q.  . ",
"  % O., 2 e c c Q v ( L b b L b ( n m m ! ! G 2.z G G H j p U . q.q.q.q.q.q.q.q.q.q.q.q.q.q.  . ",
"  o ; , 2 2.c c c c Q w.( L L L L ( n ( J ( r e z P V D Z U S . q.q.q.q.q.@     > q.q.q.q.q.  . ",
"  o O., 2 w 0 x q q K K x c Q Q Q r v 0.J J n J ! Y F N U A S . q.q.q.6.O . q.q.#.O q.q.q.q.  . ",
"  o O., 2 w 0 0 q q x K x x K Q Q v v r n t ! V P D N Z N U R . q.q.q.> O q.q.q.q.. q.q.q.q.  . ",
"  o O., 2 0 q q q 0 K Q x x K w.v ( L L n m P P ! Y D N N A Z . q.q.q.#.#.q.q.q.q.q.q.q.q.q.  . ",
"  # ; , 2 0 q q x K c K c w.c ] v ( ( L b m M H P Y F D D g N . q.q.q.#.#.q.q.#.#.O . q.q.q.  . ",
"  o O., 2 w K x x K K Q K w.v 0.0.Q ( L n n M H V V D p Y p F . q.q.q.#.@ q.q.q.q.#.. q.q.q.  . ",
"  o O., 2 w q K x x K Q x Q ] 0.] ] L L b M M V P P V ~ V V Y . q.q.q.6.O . q.q.#.  . q.q.q.  . ",
"  o O., 2 w q x q K K w.] ] ( ( ( ( n b m m M M P Y H H Y H P . q.q.q.q.. O @ @ #.#.. q.q.q.  . ",
"  o O., 2 w x K x w.w.Q 0.0.L ( b b L m m m M M P P ! ~ H ! V . q.q.q.q.q.q.q.q.q.q.q.q.q.q.  . ",
"  o O., 2 0 q c w.w.Q Q ] ( ] ( L L m m m P P ! M H P H ! P P . q.q.q.q.q.q.q.q.q.q.q.q.q.q.  . ",
"  * ; , 2 w x w.w.0.l 9 9 9 4 6 6 6 6 7 7 6 6 7 7 5 5 5 7 7 7 . q.q.q.q.q.q.q.q.q.q.q.q.q.q.  . ",
"  > , 3 e w K K w.w.W e.e.e.e.B N N N * r.r.r.@ r.r.r.r.=.:.:..                               . ",
". . . . . . . . . . . . . . . . . . . . . . . . . . . . . . . . . . . . . . . . . . . . . . . . "};
