/* XPM */
static char * image_name[] = {
"40 47 57 1",
" 	c None",
".	c #BEBEAAAAAEAE",
"X	c #EFEFDFDF9E9E",
"o	c #FFFFCFCFAEAE",
"O	c #BEBE9A9A8E8E",
"+	c #AEAE9A9A9E9E",
"@	c #BEBEBABAAEAE",
"#	c #DFDFDFDFCFCF",
"$	c #BEBEAAAA8E8E",
"%	c #AEAE8A8A7171",
"&	c #717165655151",
"*	c #AEAE8A8A6161",
"=	c #8E8E65656161",
"-	c #717145454141",
";	c #515130303030",
":	c #303020202020",
">	c #EFEFEFEFCFCF",
",	c #515145453030",
"<	c #9E9E75755151",
"1	c #9E9E8A8A8E8E",
"2	c #303030303030",
"3	c #515155555151",
"4	c #CFCFCFCFBEBE",
"5	c #8E8E65655151",
"6	c #616145453030",
"7	c #AEAE9A9A6161",
"8	c #717165657171",
"9	c #CFCFBABAAEAE",
"0	c #515145454141",
"q	c #616165656161",
"w	c #9E9E8A8A9E9E",
"e	c #9E9E65655151",
"r	c #AEAEBABAAEAE",
"t	c #515155554141",
"y	c #EFEFDFDFDFDF",
"u	c #AEAEAAAA9E9E",
"i	c #000000000000",
"p	c #414130302020",
"a	c #717175757171",
"s	c #414120202020",
"d	c #202020202020",
"f	c #101010100000",
"g	c #101010101010",
"h	c #101010102020",
"j	c #202010101010",
"k	c #8E8E45454141",
"l	c #414145453030",
"z	c #9E9E65657171",
"x	c #303020201010",
"c	c #303010101010",
"v	c #717145453030",
"b	c #414145454141",
"n	c #9E9E9A9A8E8E",
"m	c #8E8E8A8A8E8E",
"M	c #DFDFBABABEBE",
"N	c #303030301010",
"B	c #101000001010",
"                               .XoO+    ",
"                             @#X.$%&O   ",
"                           .Xo$O*%O=-   ",
"                         @oX.$%*%%$%;   ",
"                       .Xo$.*%*%%%$$:   ",
"                     @#X.$%*=*%%O$.$:   ",
"                >#$&,=$O*%<=*%%OOO$$:   ",
"               >=1o>.23*=&=*O%O$O$OO:   ",
"               4Xo$.>5655**%O%OOO%7O:   ",
"             @#X.$%*=$:&<<%%%%%%%*%O:   ",
"           .Xo$O*%555.:<*%*%*%***%*%;8  ",
"         @oX.$%*=&=5<9:*%*%*******%70q  ",
"       .Xo$.*%55555=*9:*<*<*<******O50  ",
"     @#X9$%*=&5&5&<=<4:<<<<<<****7O$12w ",
"   .Xo9O*%55---5555=<9:e<=<*<****%OO$-& ",
" roX9$%*=&&t&t5&5&5<54:<e<<<****%O$$$%0=",
"@4>#$*<5&----5&5&5555o:e<e<*<**%7O$$$%50",
"yui:y=&t&t&t&&&&&&5&5#:<=<****%*%O$O<-0t",
"#0iit9t-t-t--&---5&55#:e<<<******%<0pqa ",
">,iis>0t-t-t-t&-&&5&5>:%<<<***%*<t2dq   ",
">6f0d#606-6-t----555,#i#<*<***5-ps6:    ",
"y,g&h>0,000t-t&-&&55:i<X<<**=-;20&5d    ",
">0f5j#,0606-t--5&55e,#:=<<5-:s6-55*s    ",
">,j&j>0,0,0t-t&&5&5<<#:<5,s20t5&***:    ",
">6j=j#;;,6606--5&55e5o:0::,-&k<****s    ",
"y,h=j>;l;,0,0t--5&5&&4::;t-&<<*<*<*:    ",
">0dzj#;;;;,6606----0:9d6--<e<=<e<**s    ",
">,h1j9-,;l;,0,0t&2:d24:te<=<<<<<***:    ",
">6x1dO<;,;;;,6,;xcp669:e5eee<e<***vsbq  ",
"y,:n:*%,;l;,;2:d2,0659:5e<e<<<*<50idbqq ",
">0:O:5%;;;p;xhp;60&55.:e5e<e<*50iidbbqmm",
">,:us2O,;2:dsl0t5&5&5$:5e<=<5,iidbbbqqm ",
">6s+xs50j:p;,6-k-k-55O:e5e-0iidbbbqqqmm ",
"y,:@sdhds2;,----&&5&5$:<52iidbbbqqqmm   ",
">0x.;;p;;;6------5&55%:6iidbbbqqqmm     ",
">,:40,;l0t0t-t--&&5&&7iidbbbqqqmm       ",
">6dM60606-6-6-----6sNkibbbqqqmm         ",
"y,h40,0,000t---t0:ii2i2bqqqmm           ",
">0j466,06-6---6siidbbbqqqmm             ",
">,g#;,060t-60:iidbbbqqqmm               ",
">6f#,66-606siidbbbqqqmm                 ",
"y,B>000,0:iidbbbqqqmm                   ",
"+0i#6-,siidbbbqqqmm                     ",
";diu;:iidbbbqqqmm                       ",
" ;;iiidbbbqqqmm                         ",
" qbbbqbqqqqmm                           ",
"   qqqmqmmm                             "};
