/* XPM */
static char * image_name[] = {
"48 48 22 1",
" 	c None",
".	c #040402020404",
"X	c #5C5C5E5E5C5C",
"o	c #9C9C9A9A9C9C",
"O	c #94949A9A9C9C",
"+	c #FCFCFEFEFCFC",
"@	c #F4F4F2F2F4F4",
"#	c #5C5C62626464",
"$	c #FCFCFAFAFCFC",
"%	c #CCCCCACACCCC",
"&	c #545452525454",
"*	c #9C9C9E9E9C9C",
"=	c #CCCCCECECCCC",
"-	c #3C3C3A3A3C3C",
";	c #F4F4F6F6F4F4",
":	c #3C3C3E3E3C3C",
">	c #D4D4D2D2D4D4",
",	c #949496969C9C",
"<	c #646462626464",
"1	c #545456565454",
"2	c #9C9C9A9AA4A4",
"3	c #040406060C0C",
"                                                ",
"                                                ",
"                  ............                  ",
"               ..................               ",
"             ......................             ",
"           ..........................           ",
"          ............................          ",
"         ..............................         ",
"        ........................XooOooOo....... ",
"       .........................o+++++++o...... ",
"      ..........................o+++++++@#..... ",
"     ...........................o++++++$++X.... ",
"     ...........................o+++++++++%.... ",
"    ............................o++++++++++&... ",
"    ............................*++++++++++=... ",
"   .............................o+++++++++$+-.. ",
"   .............................o+++++++++$+X.. ",
"   .............................o+++++++++$+X.. ",
"   .............................o++++++++++@%.. ",
"   .............................o++++++++++@%.. ",
"  ..............................o++++++++++;+o. ",
"  ..............................*++++++++++++o. ",
"  ..............................o++++++++++++*. ",
"  ..............................*++++++++++++o. ",
"  ...............XOoOoOooOoOooOo=++++++++++++*. ",
"  ...............o+++++++++++++++++++++++++++o. ",
"  ...............o+++++++++++++++++++++++++++o. ",
"  ...............*+++++++++++++++++++++++++++o. ",
"   ..............o++++++++++++++++++++++++++$.. ",
"   ..............o+++++++++++++++++++++++++++.. ",
"   ..............o++++++++++++++++++++++++++*.. ",
"   ..............*++++++++++++++++++++++++++X.. ",
"    .............o+++++++++++++++++++++++++%... ",
"    .............o+++++++++++++++++++++++++%... ",
"    .............o+++++++++++++++++++++++++:... ",
"     ............O+++++++++++++++++++++++$>.... ",
"     ............*++++++++++++++++++++++++X.... ",
"      ...........,+++++++++++++++++++++++X..... ",
"       ..........*++++++++++++++++++++++*...... ",
"  .......OoooOooO=+++++++++++++++++++++%....... ",
"  .......<++++++++++++++++++++++++++++=........ ",
"  .........>++++++++++++++++++++++++$<......... ",
"  ..........*++++++++++++++++++++++>1.......... ",
"  ............o+++++++++++++++++++*............ ",
"  ..............o>+++++++++++++>o.............. ",
"  .................o*2+++++*o*................. ",
"  ..........................................3.. ",
"                                                "};
