/* XPM */
static char * image_name[] = {
"48 46 188 2",
"  	c None",
". 	c #000000000000",
"X 	c #101000000000",
"o 	c #303020201010",
"O 	c #515130302020",
"+ 	c #101010100000",
"@ 	c #101020201010",
"# 	c #303020202020",
"$ 	c #515141412020",
"% 	c #868651514141",
"& 	c #868671714141",
"* 	c #969661614141",
"= 	c #101010101010",
"- 	c #303010101010",
"; 	c #414130302020",
": 	c #616141413030",
"> 	c #868661613030",
", 	c #CFCFA2A28686",
"< 	c #CFCFAEAE8686",
"1 	c #101000001010",
"2 	c #202020201010",
"3 	c #616151513030",
"4 	c #868661614141",
"5 	c #717151514141",
"6 	c #515141414141",
"7 	c #DFDFBEBE9696",
"8 	c #DFDFAEAE9696",
"9 	c #CFCFBEBE8686",
"0 	c #BEBE92928686",
"q 	c #515141413030",
"w 	c #414120202020",
"e 	c #616141412020",
"r 	c #969651514141",
"t 	c #9E9E92925151",
"y 	c #DFDFAEAE8686",
"u 	c #AEAE92926161",
"i 	c #515130303030",
"p 	c #303030301010",
"a 	c #717161613030",
"s 	c #9E9E92924141",
"d 	c #EFEFBEBE6161",
"f 	c #DFDFCFCF5151",
"g 	c #000000001010",
"h 	c #868682825151",
"j 	c #CFCFAEAE9696",
"k 	c #BEBEAEAE8686",
"l 	c #BEBEA2A27171",
"z 	c #AEAE82827171",
"x 	c #414141413030",
"c 	c #868651513030",
"v 	c #717151513030",
"b 	c #EFEFBEBE5151",
"n 	c #DFDF30301010",
"m 	c #EFEF20202020",
"M 	c #616151512020",
"N 	c #303030302020",
"B 	c #CFCFA2A27171",
"V 	c #CFCF92927171",
"C 	c #BEBE92927171",
"Z 	c #9E9E82825151",
"A 	c #717161614141",
"S 	c #CFCF30301010",
"D 	c #DFDF20202020",
"F 	c #CFCF20201010",
"G 	c #DFDF30302020",
"H 	c #DFDFBEBE4141",
"J 	c #CFCFBEBE7171",
"K 	c #BEBEA2A28686",
"L 	c #AEAEA2A27171",
"P 	c #9E9E71716161",
"I 	c #717141413030",
"U 	c #9E9E82823030",
"Y 	c #EFEFBEBE4141",
"T 	c #CFCF10101010",
"R 	c #CFCF20202020",
"E 	c #DFDFBEBE3030",
"W 	c #DFDFBEBE7171",
"Q 	c #AEAE82826161",
"! 	c #969671715151",
"~ 	c #969692923030",
"^ 	c #BEBE30301010",
"/ 	c #BEBE20202020",
"( 	c #BEBE20201010",
") 	c #CFCF30302020",
"_ 	c #AEAE92927171",
"` 	c #9E9E92926161",
"' 	c #9E9E82826161",
"] 	c #969661615151",
"[ 	c #414141412020",
"{ 	c #202020202020",
"} 	c #9E9E82822020",
"| 	c #EFEFBEBE2020",
" .	c #BEBE10101010",
"..	c #AEAE20201010",
"X.	c #DFDFBEBE2020",
"o.	c #DFDFAEAE6161",
"O.	c #AEAEA2A26161",
"+.	c #9E9E71715151",
"@.	c #000010100000",
"#.	c #969682822020",
"$.	c #AEAE30301010",
"%.	c #AEAE10102020",
"&.	c #AEAE20202020",
"*.	c #CFCFAEAE6161",
"=.	c #969682825151",
"-.	c #DFDFAEAE1010",
";.	c #9E9E30301010",
":.	c #AEAE10101010",
">.	c #9E9E20201010",
",.	c #DFDFBEBE1010",
"<.	c #CFCFAEAE5151",
"1.	c #202010102020",
"2.	c #868682822020",
"3.	c #969630301010",
"4.	c #9E9E10101010",
"5.	c #969620201010",
"6.	c #202010101010",
"7.	c #414130301010",
"8.	c #616130303030",
"9.	c #868671711010",
"0.	c #CFCFA2A21010",
"q.	c #969620200000",
"w.	c #969610101010",
"e.	c #DFDFAEAE0000",
"r.	c #CFCFA2A24141",
"t.	c #969671714141",
"y.	c #717171711010",
"u.	c #BEBEA2A21010",
"i.	c #868620201010",
"p.	c #868610101010",
"a.	c #CFCFAEAE0000",
"s.	c #BEBEA2A24141",
"d.	c #9E9E61615151",
"f.	c #9E9E71714141",
"g.	c #9E9E61614141",
"h.	c #BEBEA2A20000",
"j.	c #AEAEAEAE0000",
"k.	c #BEBEAEAE0000",
"l.	c #CFCFBEBE0000",
"z.	c #515151511010",
"x.	c #AEAEA2A21010",
"c.	c #717120201010",
"v.	c #717110101010",
"b.	c #515151512020",
"n.	c #9E9E82824141",
"m.	c #AEAE71715151",
"M.	c #515141411010",
"N.	c #9E9EA2A20000",
"B.	c #717110100000",
"V.	c #AEAEA2A20000",
"C.	c #414141411010",
"Z.	c #9E9E82821010",
"A.	c #616110101010",
"S.	c #616120201010",
"D.	c #202010100000",
"F.	c #868682820000",
"G.	c #515110101010",
"H.	c #515110100000",
"J.	c #616110100000",
"K.	c #9E9E82820000",
"L.	c #303030300000",
"P.	c #414110101010",
"I.	c #AEAE82825151",
"U.	c #616130302020",
"Y.	c #303020200000",
"T.	c #717161610000",
"R.	c #414110100000",
"E.	c #515120201010",
"W.	c #616151510000",
"Q.	c #BEBE82825151",
"!.	c #AEAE82824141",
"~.	c #202030301010",
"^.	c #414120201010",
"/.	c #BEBE82826161",
"(.	c #AEAE92925151",
").	c #202000001010",
"_.	c #303010100000",
"`.	c #303000001010",
"'.	c #414100001010",
"].	c #414110102020",
"[.	c #BEBE92925151",
"{.	c #414130303030",
"}.	c #BEBE92926161",
"|.	c #969682824141",
" X	c #202030302020",
".X	c #CFCF82826161",
"XX	c #CFCF92926161",
"oX	c #515151513030",
"                                                                                                ",
"                                            . .                                                 ",
"                                    . . X o O +                                                 ",
"                          . . . @ # $ % & * & #             = = .                               ",
"                  . . . - ; : > * * * > * > * $ .         . , < : . .                           ",
"          . . 1 2 O 3 * & * 4 * 4 * 4 4 4 4 4 5 .       . 6 7 8 9 0 q . .                       ",
"  . . + w e % * * > * 4 * > r > % > % > % > % t 3       1 < 8 < y < , u i . .                   ",
"    p * 4 * & * 4 4 4 4 > 4 4 4 a % a % a % s d f 3   g h 8 9 j < , k , l z x . .               ",
"    = > * > 4 > r > % > % > % a c v % a c s b n m b M N 8 y y < , B , l V l C Z i . .           ",
"    . : 4 4 a % A % a % a % a 5 a 5 v 5 s b S D F G H J 9 8 < , < , l K l C L C u P ; . .       ",
"      o % a % v % a c v % v c v v v I U Y S T F R F R E W < , B , l V l C u C u z u Q ! ; . .   ",
"      . a 5 a 5 a 5 a v 3 5 3 v 3 v ~ E ^ / ( / ( / ( ) E W k , l K l C L _ u _ ` Q ` ' Z ] [ { ",
"      . O v v v v v v v I v I M I } | ^  .( ( .. .( ( ( F X.o.l V l C O.C u Q u Q Z Q Z +.Z ] @.",
"        = v 3 5 3 v 3 I 3 v 3 : #.X.$.%.......%...&...&.../ X.*.l C L C u _ ` Q ` Q Z P =.+.2 . ",
".       . M I 3 I M I 3 : M : #.-.;.:.>.:.>.:.>.:.>.:.>.:.>...,.<.u C u z u Q Z Q Z +.+.+.[ .   ",
"@.1..   . # 3 : 3 : 3 O 2 # 2.-.3.4.5.>.5.4.5.>.5.4.>.>.>.4.>...,.<.u _ ` Q ` ' Z P =.+.a .     ",
". 6.v 2 . + : e ; o o 7.8.9.0.q.w.5.w.5.4.5.4.5.4.5.4.5.4.5.4.5.>.e.r.u Q Z Q Z +.Z +.t.6.      ",
"  . @ +.a # + 6.; i [ i y.u.i.p.i.w.i.w.i.w.i.w.i.w.i.w.5.w.5.w.5.>.a.s.` Q Z P =.+.! # .       ",
"    . 6.d.f.g.; - ; O ; h.j.h.k.k.k.p.p.p.p.p.p.p.i.w.p.w.i.a.l.l.l.l.l.! Z +.+.+.t.8..         ",
"      . @ +.Z +.a { N ; N ; N ; z.x.c.v.c.v.c.p.c.p.c.p.c.p.k.+.t.+.t.+.b.q & +.! % .           ",
"        . 6.+.n.m.> o o w o w p M.N.v.B.v.v.v.B.v.v.v.B.p.v.V.> * 4 * > * 4 8.[ 4 +             ",
"          . @ +.Z +.t.# 2 # 2 # C.Z.A.A.S.A.A.A.S.v.A.v.S.v.N.% a % a % a % 3 6 2 ; .           ",
"            1 o d.f.m.f.w D.- 2 7.F.A.G.A.H.A.A.A.H.A.A.A.J.K.3 I 3 I : ; o : t.m.n.w .         ",
"            = i 2 +.Z +.n.: = 6.L.9.P.G.P.G.G.G.G.G.G.G.G.G.F.: $ ; p q t.I.I.I.Z m.Z ; .       ",
"            6.$ U.o +.n.m.f.% + Y.T.G.R.G.R.G.R.G.H.G.R.G.E.W.L.O * Q.I.Q.I.m.!.m.n.m.f.w .     ",
"            + q q : 2 i 4 +.Z 4 ~.W.- P.- P.- P.P.P.^.w # q 4 /.(./.I.Q I.I.Z m.Z +.n.+.f.; .   ",
"            ).$ : e I e w 2 : t.d.p P._.`._.'.- ].2 O v Q.[.Q.I.Q.I.Q.I.m.n.m.n.m.f.+.f.+.t.w . ",
"            = q $ : 3 v v % $ # N 5 [ # 2 # 2 {.a /.[.}.(./.(.Q.I.I.I.I.Z m.Z +.n.+.|.+.t.! 4 1 ",
"            6.$ : e I v c v % > r $ #  X# v I.[..X[./.[.Q.I.Q.I.Q.I.m.!.m.n.m.f.+.f.+.t.v p .   ",
"            + q q : 3 5 a % a 4 & * t.% ; XX[.}.}./.(./.(./.I.Q I.I.Z m.Z +.n.+.f.+.3 6..       ",
"            ).$ : e I v v a % > * t.g.f.] v .X[./.[.Q.I.Q.I.Q.I.m.n.m.n.m.f.+.t.O + .           ",
"            @.; $ : 3 v v % 4 4 & ] t.+.L 6.t.}.(./.(.Q.I.I.I.I.Z m.Z +.n.% N 1 @.1             ",
"              . O e I v c v % > * t.g.f.C o 6.I.Q.I.Q.I.Q.I.m.!.m.n.+.M 6.+ 6.+ ).+             ",
"                @.i 3 5 a % a 4 & * t.+.L # 2 w (./.I.Q I.I.Z m.t.O = 6.@ 6.= 6.= =             ",
"                  . U.v v a % > * t.g.f.C o w 2 : I.Q.I.m.n.% 7.6.2 - 2 6.2 6.6.6.+             ",
"                    @.: v % 4 4 & ] t.+.L w p w 2 4 I.I.3 { 2 # 2 # 2 o 2 6.2 6.@ =             ",
"                      @.: v % > * t.g.f.C 7.w 7.w 2 O 2 o o # o o o o o - o o + X .             ",
"                        @.: a 4 & * t.+.L ; ; ; ; ; N w N w p # p # o # o 6.@..                 ",
"                          @.I > * t.g.f.C ; O ; ; 7.w ; w 7.w 7.w p w 2 X .                     ",
"                            @.v & ] t.+.L i [ O [ ; [ ; ; ; ; ; N 2 @..                         ",
"                              @.v t.g.f.C $ O $ O O O ; O ; O 2 X .                             ",
"                                @.% t.+.L : $ i $ i [ i [ # @..                                 ",
"                                  @.% f.C $ 8.$ 8.$ U.o 1 .                                     ",
"                                    @.4 L : oX: $ # @..                                         ",
"                                      + P M : 7.X .                                             ",
"                                        = ; @..                                                 "};
