/* XPM */
static char * image_name[] = {
"48 48 183 2",
"  	c None",
". 	c #FFFFEFEFDFDF",
"X 	c #FFFFFFFFDFDF",
"o 	c #FFFFFFFFCFCF",
"O 	c #FFFFEFEFCFCF",
"+ 	c #FFFFEFEFB0B0",
"@ 	c #FFFFEFEFA0A0",
"# 	c #FFFFEFEF9090",
"$ 	c #FFFFEFEF7070",
"% 	c #FFFFD8D87070",
"& 	c #FFFFEFEF5050",
"* 	c #FFFFD8D85050",
"= 	c #FFFFD8D84040",
"- 	c #FFFFD8D82F2F",
"; 	c #FFFFC8C84040",
": 	c #EFEFD8D82F2F",
"> 	c #FFFFC8C82F2F",
", 	c #EFEFC8C81F1F",
"< 	c #FFFFC8C81F1F",
"1 	c #0F0F0F0F0000",
"2 	c #EFEFFFFFB0B0",
"3 	c #FFFFFFFFA0A0",
"4 	c #EFEFEFEF9090",
"5 	c #EFEFEFEF7070",
"6 	c #EFEFEFEF6060",
"7 	c #FFFFD8D86060",
"8 	c #EFEFEFEF5050",
"9 	c #EFEFD8D85050",
"0 	c #EFEFD8D84040",
"q 	c #EFEFC8C82F2F",
"w 	c #B0B050501F1F",
"e 	c #B0B067670F0F",
"r 	c #CFCF67671F1F",
"t 	c #B0B077770F0F",
"y 	c #CFCF77771F1F",
"u 	c #CFCF87870F0F",
"i 	c #DFDF77771F1F",
"p 	c #DFDF87870F0F",
"a 	c #DFDF87871F1F",
"s 	c #DFDF97970F0F",
"d 	c #DFDF97971F1F",
"f 	c #EFEF97971F1F",
"g 	c #CFCF97970F0F",
"h 	c #CFCF77770F0F",
"j 	c #CFCF67670F0F",
"k 	c #B0B067671F1F",
"l 	c #A0A067670F0F",
"z 	c #B0B050500F0F",
"x 	c #A0A050501F1F",
"c 	c #606030300000",
"v 	c #1F1F0F0F0000",
"b 	c #EFEFFFFFCFCF",
"n 	c #CFCF87871F1F",
"m 	c #CFCF97971F1F",
"M 	c #DFDFA8A81F1F",
"N 	c #A0A040404040",
"B 	c #909040404040",
"V 	c #606030301F1F",
"C 	c #606030300F0F",
"Z 	c #0F0F20200000",
"A 	c #B0B067676060",
"S 	c #FFFF97979090",
"D 	c #FFFF77778080",
"F 	c #A0A040402F2F",
"G 	c #808020201F1F",
"H 	c #606020201F1F",
"J 	c #808050500F0F",
"K 	c #707030300F0F",
"L 	c #505030300000",
"P 	c #505020200F0F",
"I 	c #606040400000",
"U 	c #808040400F0F",
"Y 	c #A0A067676060",
"T 	c #FFFFB8B8CFCF",
"R 	c #FFFF87877070",
"E 	c #707020202F2F",
"W 	c #0F0F0F0F0F0F",
"Q 	c #FFFFFFFFB0B0",
"! 	c #707030300000",
"~ 	c #909030300000",
"^ 	c #909040400000",
"/ 	c #A0A040400000",
"( 	c #404020200000",
") 	c #DFDFA8A80F0F",
"_ 	c #FFFFB8B8B0B0",
"` 	c #404020200F0F",
"' 	c #EFEF67677070",
"] 	c #606020200F0F",
"[ 	c #60600F0F1F1F",
"{ 	c #707040400000",
"} 	c #B0B067670000",
"| 	c #DFDF67670F0F",
" .	c #CFCF67670000",
"..	c #CFCF50500000",
"X.	c #909050500000",
"o.	c #505040400F0F",
"O.	c #B0B097976060",
"+.	c #2F2F20200F0F",
"@.	c #EFEFC8C85050",
"#.	c #DFDF77770000",
"$.	c #DFDFA8A87070",
"%.	c #505040400000",
"&.	c #808020202F2F",
"*.	c #FFFFFFFFFFFF",
"=.	c #909040400F0F",
"-.	c #404030300000",
";.	c #EFEFA8A81F1F",
":.	c #DFDF67670000",
">.	c #B0B040400000",
",.	c #808030300000",
"<.	c #2F2F20200000",
"1.	c #404030300F0F",
"2.	c #1F1F0F0F0F0F",
"3.	c #505030300F0F",
"4.	c #A0A040400F0F",
"5.	c #1F1F20200000",
"6.	c #A0A050500000",
"7.	c #CFCF77770000",
"8.	c #808040400000",
"9.	c #505020200000",
"0.	c #EFEFB8B87070",
"q.	c #707050500F0F",
"w.	c #EFEFA8A82F2F",
"e.	c #EFEFEFEFA0A0",
"r.	c #B0B087870F0F",
"t.	c #2F2F30300000",
"y.	c #DFDFB8B81F1F",
"u.	c #EFEFB8B81F1F",
"i.	c #FFFF87878080",
"p.	c #505030301F1F",
"a.	c #606050505050",
"s.	c #606067674040",
"d.	c #A0A030304040",
"f.	c #EFEFB8B82F2F",
"g.	c #606067675050",
"h.	c #707030301F1F",
"j.	c #909030302F2F",
"k.	c #FFFFEFEF8080",
"l.	c #FFFFB8B82F2F",
"z.	c #B0B030304040",
"x.	c #FFFFD8D8DFDF",
"c.	c #DFDF77776060",
"v.	c #505020201F1F",
"b.	c #2F2F0F0F0F0F",
"n.	c #808040404040",
"m.	c #2F2F0F0F0000",
"M.	c #EFEFEFEF8080",
"N.	c #2F2F40406060",
"B.	c #DFDFD8D8B0B0",
"V.	c #606040400F0F",
"C.	c #1F1F40407070",
"Z.	c #DFDFD8D8CFCF",
"A.	c #FFFFEFEF6060",
"S.	c #DFDFC8C8CFCF",
"D.	c #40400F0F0000",
"F.	c #A0A0B8B8CFCF",
"G.	c #CFCFD8D8CFCF",
"H.	c #9090B8B8FFFF",
"J.	c #2F2F20201F1F",
"K.	c #EFEF97972F2F",
"L.	c #1F1F50507070",
"P.	c #2F2F20202F2F",
"I.	c #2F2F30301F1F",
"U.	c #606040401F1F",
"Y.	c #707040400F0F",
"T.	c #707040401F1F",
"R.	c #909050500F0F",
"E.	c #EFEFEFEFDFDF",
"W.	c #A0A067671F1F",
"Q.	c #1F1F20200F0F",
"!.	c #EFEF87871F1F",
"~.	c #DFDF97972F2F",
"^.	c #DFDFC8C8FFFF",
"/.	c #505067674040",
"(.	c #A0A050500F0F",
").	c #1F1F50506060",
"_.	c #505067675050",
"`.	c #909067670F0F",
"'.	c #8080B8B8EFEF",
"].	c #505050506060",
"[.	c #9090B8B8EFEF",
"{.	c #707020200F0F",
"}.	c #606020200000",
". X . o O O + @ @ # # $ % & * = * = = = = = = - ; - = : ; - ; : > - > : > > > , > < > , > , > 1 ",
"X . X . o O 2 + 3 @ 4 # 5 $ 5 % 5 % 6 % 6 7 8 7 8 * 9 * 9 * 0 * 0 = 0 ; : ; : ; : > q > , > 1 1 ",
". o w e r t y u i u i p a s a d d s f d d s f s a s a d a g a u a u i h y t j e k l z l x c v 1 ",
"b . t y t y u n u a m a m a d d d d M d M d M d d d d d m a m a u n u y t N B N V k l k l C Z 1 ",
"O o r t y h y u i u a s a s d s f d f s f s f s f s d s a s a g a u y u A S D F G H e e z c v 1 ",
"o O t y u y u y J K L P I U n d M d M d M d M d M d d d d d m a m a u Y S T R N N E V k l C 1 W ",
"O Q y h y u e ! ~ ^ / ^ ! L ( h d s f d f ) f d f s f s d s a p a u A S _ R ` F ' ] [ 1 z c v 1 ",
"b O u y u y { / } |  ...X.` o.O.m d M f M d M f M d M d d d d a m Y S T R +.N ' N H H 1 l C Z v ",
"O + y u i X.^  .f @.f #.! J $.%.U d f ) f M f ) f d f s f s d s A S _ R ` F ' F v ] &.1 e c v 1 ",
"Q O u y n K X.| @.*.@.=.e . J ` -.f M f M ;.M f M f M d M d d Y S T R +.N ' N W H &.1 W e C Z W ",
"+ + i u i c / :.f @.>.h *.e ,.L <.M f M f M f M f M f d f s A S _ R ` F ' F v H &.1 v e k 1.2.1 ",
"2 + u n u 3.X. .#.=.h *.h 4.I ( 5.f M ;.M ;.M ;.M ;.M f M Y S T R +.N ' N 1 H &.1 1 t k 1.1.Z 2.",
"+ @ a u a c ,.6.! e . 7.>.8.c -.9.M f M f ;.;.M ;.;.f ) A S _ R ` F ' F v ] &.1 v t e -.P 1.2.Z ",
"Q + n a m U L ` J 0.e 4.8.! -.+.q.;.M w.M ;.M w.M ;.M Y S T R +.N ' N W H &.1 W t k 1.` 1.1.Z 2.",
"+ @ a p a u ( 3.$.J ,.! c -.( <.a M ;.M ;.M ;.;.;.M A S _ R ` F ' F v H &.1 v h r 1.P 1.` 1.2.1 ",
"e.@ m a m a r.O.o.P -.9.-.<.t.n M w.y.;.y.w.y.;.y.Y S T R +.N ' N 1 H &.1 1 u y 1.3.1.1.1.1.Z 2.",
"@ # a s a s d u U L <.5.9.J a M ;.;.;.u.;.;.;.u.A S _ R ` F ' F v ] &.1 v u y 3.3.3.3.1.P 1.2.Z ",
"@ @ d d d d d d M ;.M w.y.;.y.w.y.w.y.w.u.w.y.Y i.T R +.N ' N W H &.1 W m n 3.p.3.3.1.1.1.1.Z 2.",
"@ # a d d s f M f M ;.;.;.u.;.u.w.u.;.u.w.u.a.s.d.F d.F ' F v H &.1 v p a 3.C 3.3.1.P 1.` 1.2.v ",
"4 # M d M d M ;.M w.y.w.y.f.u.f.u.f., f.u.g.N N h.1 H j.N H H &.1 1 d a o.p.o.3.1.3.1.1.1.1.Z 2.",
"# k.d s f d f M ;.;.;.u.;.u.f.u.l.u.f.u.l.s.*.R z.V 1 ] [ ] &.1 v s a o.C 3.3.3.3.3.3.1.P 1.2.5.",
"# # M d M f M w.y.w.y.f.u.f.q f.q f.q f.q g.R x.c.N v.W H H 1 W M d o.V o.p.3.p.3.3.1.` 1.1.Z b.",
"# k.f d f M f ;.;.u.w.u.f.u.l.q l., l.f.l.u.v n.d.F [ H 1 1 v d d o.C 3.3.3.C 3.3.1.P 1.` 1.m.<.",
"M.k.M f M d M ;.y.w.u.f., f.q q q f.q f.q 1 Z 1 v.H H H 1 1 M d o.V o.V o.p.o.3.1.3.1.1.1.C <.+.",
"k.$ f ) f M ;.;.;.u.f.u.l., l., l.q l., N.B.1 1 v ] H 1 v M f V.K V.C o.C 3.3.3.3.1.3.-.e L ( <.",
"M.$ M d M ;.M w.u.f.u.f.q f.q f.q > q C.Z.C.1 W u.1 1 W M f M V o.V o.p.o.3.3.p.1.3.1.k l 3.<.+.",
"k.A.f M f M ;.;.w.u.f.u.f., l.q l., S.B.  1 v u.w.u.;.;.f M f V.C o.C 3.3.3.3.3.3.1.e e e L D.<.",
"5 $ M ;.M ;.y.w.y.f.u.f., f.q > q F.G.C.1 1 f.f.y.w.y.;.M d M d o.V o.C o.p.o.3.1.k l k l 3.<.+.",
"% A.f M f ;.;.u.;.u.f.u.l., l., F.*.H.  J.u.f.u.;.;.;.M f M f V.C V.C o.C 3.3.3.j e e e z L <.<.",
"6 A.M K.M ;.M w.u.f.u.f.q f.q F.*.H.L.P.q f.u.w.u.w.M w.M f V.V o.V o.p.o.3.3.r t k l k l 3.5.b.",
"7 8 f M f M ;.;.w.u.f.u.f., F.*.H.  J.u.f.u.w.u.w.;.f M f V.K V.C 3.a 3.3.3.j t r e z e e L m.5.",
"6 7 M ;.M ;.y.;.y.f., f., F.*.H.L.I.q f.u.f.u.w.y.w.M ;.V.U.o.U.o.y J Y.L P %.U t k l k l 3.5.+.",
"7 & f M f ;.;.u.;.u.f.u.F.*.H.  J.u.f.u.l.u.w.u.;.;.f V.K V.C V.j { ~ ^ / ^ ! L ( h e l z L m.5.",
"8 A.M K.M ;.M w.u.f.u.F.*.H.L.P.q f.u.f.u.f.u.w.M ;.V.U.V.T.V.y { /  .|  ...^ ` o.O.t k l 3.5.2.",
"* A.f M f M ;.;.;.u.F.*.H.  J.u.f.u.f.u.w.u.;.;.f V.K V.h.V.a R.^  .f @.f :.! J $.3.U l w L m.5.",
"8 $ M ;.M ;.M ;.y.Z.*.H.L.I., f., f.u.f.y.w.y.;.V.U.V.T.V.d d Y.X.| @.*.@.=.l E.J ` -.W.l 3.5.Q.",
"7 A.f M f M ;.M S.s.H.  J.u.f.u.f.u.w.u.;.;.;.V.K V.h.V.!.s a c / :.f @.>.h *.} ,.L <.l z L v 5.",
"6 $ M ~.M ;.M Z.*.^.L.P.u.w.u.w.u.f.y.w.y.w.V.T.V.T.V.d d a m 3.X. .#.=.h *.h 4.I 9.5.x l 3.5.2.",
"$ A.f M f M *.*.H./.v ;.;.;.;.;.w.u.;.;.;.V.T.V.h.V.f d a s a c ,.6.! e . h >.8.c ( 9.l (.-.v v ",
"6 $ M M M Z.*.H.).1 _.;.M w.y.;.y.w.y.;.V.T.V.T.V.d d d m a m U L ` J 0.e 4.8.! -.<.Y.(.`.3.5.v ",
"$ $ f M S.*.'.).v 1 f M ;.;.;.M ;.M ;.V.K V.h.V.f s d s a p a u ( o.$.X.,.! ! L ( <.r l (.L v Z ",
"$ k.M ].*.[.L.W _.;.M w.M ;.M w.M ;.V.T.V.T.V.d d d d a d a n y t O.o.P L 9.-.+.t.y `.x `.3.Z 2.",
"k.$ f d ].  v M f M f M f M f M f V.K V.V V.f d d s a p a u i h y h U -.<.5.9.Y.r l (.(.(.-.v 1 ",
"M.# M d M 1 M ;.M ;.M ;.M ;.M ;.V.U.V.T.V.d M d d d d a m a n y t y t k t k l k l x `.(.R.P Z v ",
"k.k.d s f M w.M ;.;.;.;.f ;.f V.K V.C V.C d f s f s a s a u i h r t r t r e k l z (.(.R.4.-.v 1 ",
"k.# R.(.R.(.R.=.R.R.J =.J =.V.V V.V V.V Y.U Y.Y.Y.Y.V.K V.K V.C V.C 3.C 3.C L 3.3.3.-.P -.P Z W ",
"# ! {.! {.c {.c ] c ] }.] 5.b.5.b.5.b.9.P ( 9.( ` ( D.( ( <.D.<.m.<.m.5.m.5.m.v v v v 1 v 1 v 1 ",
"! K K K c K c C c ] L ] L ] Q.+.5.P -.P ( ` ( ` <.` <.` <.+.<.<.5.b.5.<.5.2.5.v Z v Z v Z 1 Z 1 "};
