/* XPM */
static char * image_name[] = {
"48 57 16 1",
" 	c None",
".	c #5A5A52524141",
"X	c #0E0E0B0B0B0B",
"o	c #47473B3B2626",
"O	c #71716E6E6767",
"+	c #B7B7B5B5B0B0",
"@	c #D4D4D2D2CECE",
"#	c #F9F9F7F7F7F7",
"$	c #99998D8D7777",
"%	c #A3A377771B1B",
"&	c #EEEEBABA1212",
"*	c #BEBEA2A21414",
"=	c #8B8B5E5E0707",
"-	c #B3B38B8B2727",
";	c #EEEEC7C71C1C",
":	c #D2D298980F0F",
"                     .XXXXo                     ",
"                   .XXXXXXXXo                   ",
"                  oXXXXXXXXXXXO                 ",
"                 oXXXXXXXXX..XXO                ",
"                OXXXXXXXXXXO.XXX                ",
"                oXXXXXXXXXXXXXXX.               ",
"                oXXXXXXXXXXXXXXXX               ",
"                XXXXXXXXXXXXXXXXXO              ",
"                XXXXXXXXXo.ooXXXX.              ",
"                XXO+.XXXo++@OXXXX.              ",
"                Xo@+#oXX@#$@@XXXXo              ",
"                o.oo+ XX#.X.#oXXXo              ",
"                o.oXO XX@oXX@.XXXo              ",
"                oX+X%&&**=Xo#oXXXo              ",
"                oX$-&;;;;;&  XXXXX              ",
"                .X%:&;;;;;;;;XXXXX              ",
"                .o-&&;;;;;&::XXXXXO             ",
"                .X=&&;;;&-:::XXoXX.             ",
"                .X$=:**%%::* oX. XX             ",
"                OX+$%:::--+@@+XXOXXo            ",
"                XX@@$%%%- @###oXXXXXO           ",
"               .Xo#@+++++@####+XXXXXo           ",
"               XX@##+++@#######oXXXXXO          ",
"              XXO####@#########+XXXXXX          ",
"             oXX################XXXXXXo         ",
"            .XX.################oXXXXXXo        ",
"           OXXX @##########@@@@@$XXXXXXXO       ",
"           oXXX+@###########@@@+#oXXXXXXX       ",
"           XXXo@###############@@$XXXXXXXO      ",
"          .XXX+##################@XXXXXXXX      ",
"          XXX.#################### XoXXXXXO     ",
"         OXXX@####################@XXXoXXXo     ",
"         oXX.######################XXXXXXXX     ",
"         XXX+######################oXXXXXXXO    ",
"        OXXX#######################oXXXXXXX.    ",
"        XXXX#######################OXXXXXXXo    ",
"       oXXXo#######################OXXXXXXXX    ",
"       XXXoo####################### XXXXXXXX    ",
"       XXXo.#######################OXXXXXXXo    ",
"       X=%XO#######################.XXXXXoXo    ",
"       :&&&X+####################;;.XXXXXoX.    ",
"      -:&&&:X$##################@&;-XXXXXX%*    ",
"     $::&&&&%Xo#################@&&=XXXXX=;;    ",
"   $%-:&;;&&;oXo################ &&%oXXX=&&&    ",
"$-:::&&&&&&&&*XXo##############@ &::%%=%:&&&$   ",
"-:&&&&&&&&&&;;%XXX+############@ :&:::::&&;&&$  ",
"$&&;&&&&&;&&&&&XXX.#############+-&&&&:&&&&&&&  ",
"$:&;&&&&&;&&&&;%XX.#############=-&&&&&&&&&&&&&$",
"$:&&&&&&&&&;&&&;%+############@Xo:&&&&&&&;&&&&&&",
"$:&&&&&&&&;&&&&&&@###########+XX.:&&;&&&&&&&;&;&",
"$:&&&&&&&&&&&&;&&%##########OXXX=:&&&;&&&;&&&&&-",
"::&&&&&&&;&&&&&&&%o @@@+$OoXXXXX=:&&&&&&&&&&&:$ ",
"::::&&&&&&&&;&&&:%oXXXXXXXXXXXXX=:&&;&&&&&&-$   ",
"$%%-::::::&&&&&&:%.XXXXXXXXXXXXX=-:&&&&&:-O     ",
"   OO%%%%%-::::-%=oXXXooooooooXX.%-::::-=O      ",
"       OO==%%%%==ooO            o=%%%%%=$       ",
"          O.====o.              .o====.         "};
