/* XPM */
static char * image_name[] = {
"48 48 104 2",
"  	c None",
". 	c #DDDDEEEEDDDD",
"X 	c #FFFFFFFFFFFF",
"o 	c #DDDDBBBBCCCC",
"O 	c #BBBB99998888",
"+ 	c #BBBB22223333",
"@ 	c #333311111111",
"# 	c #CCCCDDDDDDDD",
"$ 	c #BBBBBBBBBBBB",
"% 	c #EEEEEEEEEEEE",
"& 	c #DDDDEEEEEEEE",
"* 	c #EEEEDDDDEEEE",
"= 	c #DDDDDDDDDDDD",
"- 	c #DDDDAAAA7777",
"; 	c #000000000000",
": 	c #999966667777",
"> 	c #BBBBBBBBCCCC",
", 	c #99999999AAAA",
"< 	c #555544446666",
"1 	c #EEEEEEEEFFFF",
"2 	c #BBBB88885555",
"3 	c #555522220000",
"4 	c #777766665555",
"5 	c #888888889999",
"6 	c #888899998888",
"7 	c #666655558888",
"8 	c #333333333333",
"9 	c #DDDDBBBBBBBB",
"0 	c #888800001111",
"q 	c #444433332222",
"w 	c #777777777777",
"e 	c #888877778888",
"r 	c #666666667777",
"t 	c #222222223333",
"y 	c #DDDDCCCCDDDD",
"u 	c #111100001111",
"i 	c #444422222222",
"p 	c #777766667777",
"a 	c #666677776666",
"s 	c #777777778888",
"d 	c #9999AAAA9999",
"f 	c #222222222222",
"g 	c #333322223333",
"h 	c #222200001111",
"j 	c #111111112222",
"k 	c #555555555555",
"l 	c #999999999999",
"z 	c #AAAAAAAABBBB",
"x 	c #666666668888",
"c 	c #222211113333",
"v 	c #555577778888",
"b 	c #777788889999",
"n 	c #777788888888",
"m 	c #AAAABBBBBBBB",
"M 	c #555533333333",
"N 	c #444444444444",
"B 	c #888866668888",
"V 	c #888888888888",
"C 	c #999988889999",
"Z 	c #555511113333",
"A 	c #444433334444",
"S 	c #AAAAAAAAAAAA",
"D 	c #AAAABBBBAAAA",
"F 	c #88888888AAAA",
"G 	c #88889999AAAA",
"H 	c #99999999BBBB",
"J 	c #444433335555",
"K 	c #444455555555",
"L 	c #AAAA9999AAAA",
"P 	c #CCCCBBBBCCCC",
"I 	c #CCCC44442222",
"U 	c #666666666666",
"Y 	c #BBBBAAAABBBB",
"T 	c #9999AAAAAAAA",
"R 	c #BBBBAAAAAAAA",
"E 	c #555555556666",
"W 	c #AAAA8888BBBB",
"Q 	c #BBBBCCCCBBBB",
"! 	c #BBBB66663333",
"~ 	c #555566666666",
"^ 	c #CCCCCCCCCCCC",
"/ 	c #CCCCBBBBAAAA",
"( 	c #555544444444",
") 	c #DDDDCCCCCCCC",
"_ 	c #777722221111",
"` 	c #DDDDDDDDCCCC",
"' 	c #CCCCBBBBDDDD",
"] 	c #88887777AAAA",
"[ 	c #111111111111",
"{ 	c #777744444444",
"} 	c #EEEEDDDDDDDD",
"| 	c #DDDD77773333",
" .	c #888899999999",
"..	c #555555557777",
"X.	c #000011111111",
"o.	c #AAAA99999999",
"O.	c #777766666666",
"+.	c #999988888888",
"@.	c #444444446666",
"#.	c #CCCCDDDDCCCC",
"$.	c #111188881111",
"%.	c #777788887777",
"&.	c #333322224444",
"*.	c #333333335555",
"                                                                                                ",
"    . X X X X X X X X X X X X X X X X X X X X X X X X X X X X X X X X X X X X o O + @ # # $     ",
"  . % % % & % % % & % % % & % % % & % % % & % % % & % % % . * . = = = # X X - + + @ ; : > , <   ",
"  X & % & 1 & % & 1 & % & 1 & % & 1 & % & 1 & % & 1 & % & & & & . = . % X 2 + + 3 ; 4 5 6 7 8   ",
"  X % & % % % & % % % & % % % & % % % & % % % & % % % & * . = . = = % X 9 + + 0 ; q w w e r t   ",
"  X & 1 & % & 1 & % & 1 & % & 1 & % & 1 & % & 1 & % & & & & . = . = X y + + 0 u i p a s d p f   ",
"  X % % % & ; ; ; ; ; ; ; ; ; ; ; ; ; ; ; ; ; ; ; ; ; ; ; ; ; ; g % * + + + h h j k w l z x c   ",
"  X & % & 1 ; p w p v p w p s e s e b e b e b e n e n s s p v p m X + + + 3 ; M N l 6 z m p f   ",
"  X % & % % ; w p w p w B s e V e 5 C 5 C 5 e 5 e e e s e s p 5 X O + + 0 ; Z 8 A S S D $ r j   ",
"  X & 1 & % ; p v p s e b e 5 F G C G H G C F F 5 F b e b e s * . + + + ; @ N J K y m > m p j   ",
"  X % % % & ; w p s e 5 C 5 C C H , L , H , C C C 5 C 5 e 5 P X I + + h h 8 A N U % $ m Y r j   ",
"  X & % & 1 ; p s e 5 F G H , L T L T L T H H H , H G C 5 H X R + + 3 ; 8 A N E r X m $ D x j   ",
"  X % & % % ; s e 5 C 5 C , L z Y z Y z L z L , W , C 5 C % * + + 0 ; i A N k U p X $ D Y r j   ",
"  X & 1 & % ; s b F F H H L z z > * X = , L T L H H G C Q X ! + 0 ; @ J N N ~ x v X D z D x j   ",
"  X % % % & ; s e 5 C , L z Y ^ X % O + M , L L L , C z X / + + h h ( N N E p r p X Y S S r j   ",
"  X & % & 1 ; e b F G H T z Q X ) + + + _ p , L H H , % . + + 0 ; ( N N K r w p w X D z T 7 j   ",
"  X % & % % ; s e 5 C , L L * ` + + + + + @ e , W , ' X I + + ; Z N N k 7 r p w p X S S S r j   ",
"  X & 1 & % ; e 5 F G H H L = : + + + + + 0 N ] , H X 9 + + h h N N K 7 w p w p v X T z T 7 [   ",
"  X % % % & ; s e 5 C C H , L { - + + + + 0 @ w C ^ * + + 0 ; M N N U r p w p w p X S T L E j   ",
"  X & % & 1 ; s n F G C G H , > ) + + + + + 3 N , X ! + + u @ N N E w p w p v p w X T S d 7 [   ",
"  X % & % % ; s e 5 e 5 C , C , o O + + + + 0 i * } + + 3 ; J N k U p w p w p w p X L d L E j   ",
"  X & 1 & % ; p s e b F F C G H z y + + + + + + X I + 0 ; M N N ~ p s p v p w p v X T , d 7 [   ",
"  X % % % & ; w p s e 5 ] 5 C 5 C ^ | + + + + + + + + @ ; N J k 7 w p w p w p w p X L l , E u   ",
"  X & % & 1 ; p w s n e b e 5 5 5 L ) + + + + + + + 0 ; i N K U w p v p w p v p w X d ,  ...[   ",
"  X % & % % ; w p w p s e e e V e 5 y I + + + + + + ; @ J N < r p w p w p w p w p X l l l E [   ",
"  X & 1 & % ; p v p v p s e s e b e , 9 + + + + + 0 ; A N k ~ p v p w p v p w p v X  .l  ...X.  ",
"  X % % % . ; w p w p w p s B s e s e ) + + + + + ; @ N J k p r p w p w p w p w p X l  .C E u   ",
"  X & % & & ; p w p v p w p v s s s s C o.+ + + 3 u N N K 7 w p w p v p w p v p w X  .l 6 E X.  ",
"  X % . * . ; w p w p w p w p w p w p w O.; ; ; h i A N < r p w p w p w p w p w p X C 6 +.E u   ",
"  X & & & = ; p v p w p v p w p v p w p w r k N N A N < r p w p v p w p v p w p v X 6 5 6 < ;   ",
"  X * . = = ; w p w p w p w p w p w p w p r 7 k k N k U p w p w p w p w p w p w p X C V V K u   ",
"  X . = . = ; p w p v p w p v p w p v p w p w r ~ 7 r p w p v p w p v p w p v p w X 6 V n < ;   ",
"  X = . = = S X X X X X X X X X X X X X X X X X X X X X X X X X X X X X X X X X X X V V e N ;   ",
"  X # = # = # ^ # ^ Q ^ Q ^ Q > Q > m $ m Y D z D z S z T S T , d ,  .l  .l @.< @.V n V n < ;   ",
"  X = # = #.y #.^ ^ ^ Q P Q P $ $ $ Y m Y D R S S S S S L d L l , l l  .C 6 < $.$.$ e %.e N ;   ",
"  X # = # ^ #.^ #.^ Q ^ Q > Q > m $ m m D z D S T S T S d , d ,  .l  .l 6 5 6 $ m > n e %.@.;   ",
"  X S s p s p s p p p r p r p r p r 7 r 7 r 7 E 7 E 7 E 7 E ..E < E < k < k < N < N < N J N ;   ",
"  s ; ; ; ; ; ; ; ; ; ; ; ; ; ; ; ; ; ; ; ; ; ; ; ; ; ; ; ; ; ; ; ; ; ; ; ; ; ; ; ; ; ; ; ; ;   ",
"                      X r N k N k 8 > m L  .e r E N A 8 t f j f &.8 A *.A                       ",
"                    X S a r a r a E *.r n e n r E N *.*.j c t *.k r a w r t                     ",
"                  X = %.e V V %.e V e U U N J *.A *.A *.J k E %.e V V 6 +.r g                   ",
"                X X d , d , d , T L d , T S T S T S T S T S T z T S T z D S r t                 ",
"              X X X X X X X X X X X X X X X X X X X X X X X X X X X X X X X X r g               ",
"              X S S S S S S S S S S S S S S S S S S S S S S S S S S S S S S S S ;               ",
"              X S S S S S S S S S S S S S S S S S S S S S S S S S S S S S S S S ;               ",
"              7 ; ; ; ; ; ; ; ; ; ; ; ; ; ; ; ; ; ; ; ; ; ; ; ; ; ; ; ; ; ; ; ; t               ",
"                                                                                                ",
"                                                                                                "};
