/* XPM */
static char * image_name[] = {
"48 48 48 1",
" 	c None",
".	c #000000000000",
"X	c #000007070707",
"o	c #00000F0F0F0F",
"O	c #00000F0F1717",
"+	c #000017171717",
"@	c #000017171F1F",
"#	c #00001F1F1F1F",
"$	c #00001F1F2727",
"%	c #D7D7E3E3E7E7",
"&	c #F7F7F7F7F7F7",
"*	c #EFEFF7F7F7F7",
"=	c #000027272727",
"-	c #000027272F2F",
";	c #4F4F87878F8F",
":	c #17174F4F5757",
">	c #17172B2B2F2F",
",	c #87879F9FA7A7",
"<	c #00002F2F3737",
"1	c #67679797A7A7",
"2	c #AFAFCBCBCFCF",
"3	c #8F8FB3B3BFBF",
"4	c #000037373F3F",
"5	c #27276B6B7777",
"6	c #000037374747",
"7	c #00003F3F4747",
"8	c #00003F3F4F4F",
"9	c #BFBFCFCFD7D7",
"0	c #000047474F4F",
"q	c #000047475757",
"w	c #00004F4F5F5F",
"e	c #00004F4F5757",
"r	c #070757576F6F",
"t	c #000057576767",
"y	c #000057575F5F",
"u	c #272783839797",
"i	c #00005F5F6F6F",
"p	c #00005F5F6767",
"a	c #00006F6F7F7F",
"s	c #000067677777",
"d	c #373757575F5F",
"f	c #0F0F1B1B1717",
"g	c #07070B0B0707",
"h	c #7F7F83837F7F",
"j	c #C7C7C7C7C7C7",
"k	c #373743434747",
"l	c #37373B3B3737",
"z	c #67677F7F7F7F",
"..XXXXXXXXXXXXXXXXXXXXXXXXXXXXXXXXXXXXXXXXXXX...",
"oooOOOOO++++++++++++++++++++++++++++++++OOOOoooX",
"OOO+++++++++++++@@@@@@@@@@@@@@@+++++++++++++OOOX",
"++++++++@@@@@@@@@@@@@@@@@@@@@@@@@@@@@@@++++++++X",
"++++@@@@@@@##########################@@@@@@@+++X",
"+@@@@#############$$$$$$$$$$$#############@@@@@X",
"@@########$$$$$$$$$$$$$$$$$$$$$$$$$$$$########@o",
"####$$$$@####$@$$$$$$$$$$$$$$$$$$$$##@$$$$$####O",
"#$$$$$$#%&****&@==----------;&&*****&&O$$$$$$$$O",
"$$$$$$$=$-:*&&&%$------------$>,&&&,-$==$$$$$$$+",
"$$$=-------#&&&&,---<<<<<<<-----1&*$-------==$$@",
"=---------<< &&&&1<<<<<<<<<<<<<<-&2-<----------@",
"-----<<<<<<<:&&&&& <<<<<<<<<<<<<-&3<<<<<<<-----$",
"-<<<<<<<<<<<4& &&&&5444444444444<&3<<<<<<<<<<<-$",
"<<<<<<<444446&:;&&&&:44444444444<&344444<<<<<<<-",
"<<<<444444446&:41&&&&:4444444444<&34444444444<<-",
"4444444444447&:643&&&&:7777777764&3444444444444-",
"4444444477778&:7749&&&&6777777774&3777744444444<",
"4444777777770&:7786%&&&&688888777&3777777777444<",
"777777777888q&:00007*&&&*70000007&3888777777777<",
"777788800000q&:000008&&&&%7000008&30000088877774",
"788000000000w&:eeeeeee&&&&%0eeee0&3q000000000886",
"000000qqeeeew&:eewwwwwr&&&&2eweeq&2eeeeqq0000007",
"00qeeeeeewwwt&5wyyyyyyy5&&&&3wywe&2wwweeeeeeqq08",
"eeeewwwwyyyyt&5tttttttttu&&&&,yty&2yyyywwwweeee0",
"ewwwyyyttttti&5ttpppppppp1&&&&1ty&2tttttyyywwwwq",
"wyyttttttpppr&5iiiiiiiiiii3&&&&ut&2pppttttttyyye",
"ttttppiiiiiia&5i:::sssssssi2&&&&5&2iiiiiippttttw",
"ppiiiiii::ssa&5ssaaaaaaaaaaa%&&&&&2sss:iiiiiippy",
"iiii:ssssaau3&,;1d>>ffgggf>f>hj%%&%uaasssss:iiit",
":sssaau;1k>.l&d.....................g> ;;uasss:i",
"aau1:f......3&%...........................>z;uai",
"df.........k&&&,..............................k1",
".........&&&&&&&&&3.............................",
"................................................",
"................................................",
"................................................",
"................................................",
"................................................",
"................................................",
"................................................",
"................................................",
"................................................",
"................................................",
"................................................",
"................................................",
"................................................",
"................................................"};
