/* XPM */
static char * image_name[] = {
"48 48 245 2",
"  	c None",
". 	c #EFEFEFEFEFEF",
"X 	c #515151515151",
"o 	c #101010100000",
"O 	c #515141413030",
"+ 	c #303041411010",
"@ 	c #515151512020",
"# 	c #000000000000",
"$ 	c #9E9EA2A29E9E",
"% 	c #000000001010",
"& 	c #101000000000",
"* 	c #202041412020",
"= 	c #515171712020",
"- 	c #515182823030",
"; 	c #515161613030",
": 	c #7171A2A29696",
"> 	c #414171716161",
", 	c #414161612020",
"< 	c #303030301010",
"1 	c #000020200000",
"2 	c #515171713030",
"3 	c #303082825151",
"4 	c #515182827171",
"5 	c #515161612020",
"6 	c #9696AEAEBEBE",
"7 	c #9696BEBEBEBE",
"8 	c #9696AEAEDFDF",
"9 	c #AEAEAEAECFCF",
"0 	c #9E9EAEAEAEAE",
"q 	c #969682829696",
"w 	c #515161616161",
"e 	c #414141410000",
"r 	c #202010100000",
"t 	c #000010100000",
"y 	c #9696BEBEEFEF",
"u 	c #9696BEBECFCF",
"i 	c #9E9EBEBEDFDF",
"p 	c #9696BEBEDFDF",
"a 	c #AEAEBEBECFCF",
"s 	c #6161BEBE7171",
"d 	c #868682823030",
"f 	c #9696AEAECFCF",
"g 	c #7171A2A2AEAE",
"h 	c #9696A2A29E9E",
"j 	c #8686A2A29E9E",
"k 	c #414151511010",
"l 	c #414141411010",
"z 	c #515182825151",
"x 	c #515182826161",
"c 	c #9E9EBEBECFCF",
"v 	c #515171717171",
"b 	c #414182824141",
"n 	c #717161613030",
"m 	c #8686A2A22020",
"M 	c #AEAE71713030",
"N 	c #9696A2A2CFCF",
"B 	c #71719292AEAE",
"V 	c #969692929E9E",
"C 	c #414171712020",
"Z 	c #4141A2A27171",
"A 	c #414151512020",
"S 	c #414182823030",
"D 	c #414182829696",
"F 	c #515182822020",
"G 	c #616182822020",
"H 	c #414182826161",
"J 	c #8686A2A2CFCF",
"K 	c #8686BEBECFCF",
"L 	c #9696A2A2AEAE",
"P 	c #515161617171",
"I 	c #414161610000",
"U 	c #5151A2A22020",
"Y 	c #8686A2A28686",
"T 	c #515171714141",
"R 	c #414141416161",
"E 	c #414141414141",
"W 	c #6161A2A29E9E",
"Q 	c #414161615151",
"! 	c #303061611010",
"~ 	c #101010101010",
"^ 	c #202082829696",
"/ 	c #414192922020",
"( 	c #4141AEAE2020",
") 	c #5151A2A27171",
"_ 	c #9696CFCFCFCF",
"` 	c #9E9EAEAECFCF",
"' 	c #8686AEAECFCF",
"] 	c #616192925151",
"[ 	c #414151514141",
"{ 	c #303051514141",
"} 	c #303061615151",
"| 	c #515192929E9E",
" .	c #202041410000",
"..	c #202010103030",
"X.	c #414141413030",
"o.	c #6161A2A21010",
"O.	c #616171716161",
"+.	c #414151513030",
"@.	c #414182827171",
"#.	c #BEBEEFEFDFDF",
"$.	c #515151516161",
"%.	c #202030300000",
"&.	c #101000001010",
"*.	c #202030303030",
"=.	c #8686AEAEBEBE",
"-.	c #9696CFCFDFDF",
";.	c #414161613030",
":.	c #414171714141",
">.	c #515151513030",
",.	c #7171A2A2BEBE",
"<.	c #8686A2A2BEBE",
"1.	c #61619292AEAE",
"2.	c #9E9E82821010",
"3.	c #9E9EBEBEEFEF",
"4.	c #515161614141",
"5.	c #515192926161",
"6.	c #414141412020",
"7.	c #9E9EA2A2AEAE",
"8.	c #515182829696",
"9.	c #CFCFEFEFEFEF",
"0.	c #414161614141",
"q.	c #414171713030",
"w.	c #303071714141",
"e.	c #414171719696",
"r.	c #515130302020",
"t.	c #717192929E9E",
"y.	c #616182829696",
"u.	c #414171718686",
"i.	c #515171719696",
"p.	c #414161618686",
"a.	c #414161619696",
"s.	c #616151515151",
"d.	c #515161619696",
"f.	c #515141414141",
"g.	c #7171AEAEBEBE",
"h.	c #9E9E92929696",
"j.	c #969692928686",
"k.	c #101020202020",
"l.	c #616192929E9E",
"z.	c #86869292BEBE",
"x.	c #414130301010",
"c.	c #717151515151",
"v.	c #9E9E82829696",
"b.	c #202020200000",
"n.	c #303030303030",
"m.	c #000010101010",
"M.	c #7171A2A2CFCF",
"N.	c #414151518686",
"B.	c #303051516161",
"V.	c #303041416161",
"C.	c #202030301010",
"Z.	c #868661616161",
"A.	c #717182829E9E",
"S.	c #4141AEAE1010",
"D.	c #414161611010",
"F.	c #414151516161",
"G.	c #303041414141",
"H.	c #303030304141",
"J.	c #202020201010",
"K.	c #616182829E9E",
"L.	c #5151AEAE1010",
"P.	c #414171711010",
"I.	c #414192921010",
"U.	c #515161611010",
"Y.	c #414161617171",
"T.	c #303061618686",
"R.	c #303061617171",
"E.	c #303051517171",
"W.	c #303051515151",
"Q.	c #303030305151",
"!.	c #202041414141",
"~.	c #101030302020",
"^.	c #101030300000",
"/.	c #202020203030",
"(.	c #86869292AEAE",
").	c #71718282AEAE",
"_.	c #515161618686",
"`.	c #414151517171",
"'.	c #101041411010",
"].	c #202051514141",
"[.	c #303082821010",
"{.	c #414182822020",
"}.	c #303071711010",
"|.	c #515171719E9E",
" X	c #202030304141",
".X	c #303041415151",
"XX	c #303082820000",
"oX	c #414161616161",
"OX	c #303020204141",
"+X	c #202020202020",
"@X	c #202020204141",
"#X	c #616192929696",
"$X	c #61618282AEAE",
"%X	c #717182829696",
"&X	c #616171719696",
"*X	c #414182821010",
"=X	c #202010102020",
"-X	c #202041413030",
";X	c #414141415151",
":X	c #616171719E9E",
">X	c #515151511010",
",X	c #414130305151",
"<X	c #303020203030",
"1X	c #515171718686",
"2X	c #515182828686",
"3X	c #616161615151",
"4X	c #CFCFBEBEBEBE",
"5X	c #202041415151",
"6X	c #202030302020",
"7X	c #101020203030",
"8X	c #000010104141",
"9X	c #616182828686",
"0X	c #303051510000",
"qX	c #303020201010",
"wX	c #303061616161",
"eX	c #9E9E92928686",
"rX	c #202051510000",
"tX	c #303051511010",
"yX	c #303061610000",
"uX	c #000010103030",
"iX	c #101010102020",
"pX	c #717161614141",
"aX	c #414141417171",
"sX	c #303041410000",
"dX	c #303010102020",
"fX	c #202051511010",
"gX	c #202010101010",
"hX	c #000000003030",
"jX	c #202051516161",
"kX	c #101020201010",
"lX	c #101030301010",
"zX	c #414151515151",
"xX	c #202030305151",
"cX	c #101030303030",
"vX	c #101020200000",
"bX	c #202000000000",
"nX	c #202000001010",
"mX	c #000020206161",
"MX	c #616161616161",
"NX	c #101041412020",
"BX	c #303020200000",
"VX	c #303030302020",
"CX	c #303041413030",
"ZX	c #515130303030",
"AX	c #414130302020",
"            . . . . . . X         o O + @ X # # X $ . . . % &                                   ",
"        . . $ $ $ $ $ $ $ . X * = = - ; = ; : > , # # X $ . . < 1 &                             ",
"      . X $ $ $ $ $ $ $ $ $ $ X 2 3 4 5 6 7 8 6 9 0 q # # w $ . . e r t                         ",
"        # X X X $ $ $ $ $ $ $ $ X y u i p i u a s d 2 f g # w h j . k l X                       ",
"            X # X X $ $ $ $ $ $ X X i z x c v b n m M m N B # w V j . X $ . .                   ",
"                X # $ $ $ $ $ X X # C 2 Z f A 2 S D F G H J K # w L j . $ . . P                 ",
"              I U X X $ $ $ $ X X # z p i u f Y T > R E T W Q ! # w V j . $ $ w ~               ",
"            ^ / ( X X $ $ $ X X $ X # ) _ ` , ; ' J ] [ { , { } | w w h j . . w  ...            ",
"          X.f ' 8 X X $ $ $ X $ X $ # C z f 5 C 2 o.8 g O., +.@.X #.w w $.w $ . X %.&.          ",
"        *.y =.J -.X $ $ $ # $ X $ X # ;.:.>.,.J K <.C = 1.2.; X #.. j P # # w $ . X k &.        ",
"  . . ~ 8 =.3.=.y X $ $ $ # X . X $ # A 4.A <.f 5.:.6.7.B 8.X . 9.j $.# X X # X $ . $.w $.w     ",
"  X $ . . 8 X p X $ $ $ # $ $ . $ $ # +.6.0.=.H C A A q.w.X . 9.j w # $ e.e.X # w w j . . $ w   ",
"  X $ $ $ . . u X $ $ $ # X . $ X $ $ # r.k J t.y.k A l X $ 9.j $.# $ u.i.u.p.# $.w h . . . $ X ",
"  X X $ $ $ $ X $ $ $ # $ $ . $ $ $ $ # A 6.A [ B 6.X X $ $ $ $ # $ u.a.u.i.e.# w w j L $ . . # ",
"  ~ # $ $ $ $ X $ $ $ # X . $ X $ $ $ $ # k 6.l 6.X s.. $ s.X # $ u.d.u.d.u.d.X # w $.j h $ #   ",
"  f.g.# X $ X $ $ $ X X $ . $ $ $ $ $ $ X 6.+ A X s.$ h.j.X # X u.a.u.e.u.p.u.p.# # w w j # k.  ",
"  l.z.<.X # # $ $ $ X $ X $ X $ $ $ $ $ $ X x.X c.$ v.X c.# X u.d.p.d.u.d.u.p.P R # # w # b.n.  ",
"m.B B M.g ,.X # # # # # $ X $ $ $ X $ $ $ $ X s.$ h.X s.# # u.p.u.i.e.e.u.p.u.N.B.V.# # C.< %.% ",
"Z.t.z.B A.y.z.X X # S.D.# # # $ $ $ X $ $ $ $ X v.X s.# # u.d.p.d.u.d.u.p.u.p.F.V.G.H. .C.%.J.k.",
"l.M.1.B l.B g.X # K.L.P.I.5 U.# # . $ X $ $ $ $ X s.# # e.a.u.a.u.a.u.Y.T.p.R.E.W.Q.!.*.~.J.^./.",
"(.B A.t.).=.z.t.(.t.P.P.D.U.U.D.D.# . $ X $ $ $ $ X # u.i.e.i.u._.u.p.Y.N.Y.`.W.Q.H.H.'.].%.C.k.",
"g B l.).1.B l.).1.B l., [.D.! {.}.l # . $ X $ $ $ $ X e.e.|.e.a.u.p.T.N.R.p.B.Q.!.Q. X X* C.^..X",
").t.).t.).l.A.t.A.t.A.t.P.XXD.! D.X s.# . $ X $ $ $ $ X d.u.d.p.d.Y.`.F.F.oXQ..XH.G.OX+X@X^.J.G.",
"l.B l.t.l.A.8.K.#X$X8.y.l.+ }.! X s.$ h.# . $ X $ $ $ $ X a.p.p.R.V.B.F.B.V.W.V.G.H.*./.~.+X*.H.",
"A.y.A.K.%Xy.A.y.&Xy.A.y.K.y.*XX c.$ v.s.X # . $ X $ $ $ $ X Y.Y.R !.V.W.Q.G.H.!.H.*./.+X=Xk.H.-X",
"y.K.8.K.#XK.l.K.y.A.l.K.D . X s.$ h.s.X # # # . $ $ $ $ $ $ X F.F.;X.X.X!.Q. X X!./././.k./.*.H.",
"A.y.|.y.:Xy.&Xy.&Xi.&X8.X s.. $ v.s.X # # Y.>X# . $ $ $ $ $ $ X ;X.X,X.XH. XH.*./.+X<Xk./.k.<X X",
"1Xy.8.8.8.|.8.y.2Xi.e.$ s.X 3X4X$ X # # %.p.Y.p.# . $ $ $ $ $ $ X V.5X X X X*./.6X/.k.+Xk.7X*. X",
"8X9X&X1Xd.1X_.1X_.p.. X v.s.X s.# # # 0XqXY.`.wXF.# . $ $ $ $ $ $ X Q. XOX*./.+X/.k.+Xk.=Xk././.",
"!.i.1Xe.1X&Xu.d.1XX s.. eXh.s.# # # rX+ 0XtXyXE.R..X# . $ $ $ $ $ $ X  X*.+Xk./.k./.k.=Xk./.*.uX",
"iX_._.pX_.Y._.P $ s.X s.4XeXX # # *.+ B.aXsX+ W.!.%.qX# . $ $ $ $ $ $ X /.+XdX+X/.k.=XiX/.+X<Xt ",
"  `.Y.p.T.p.Y.. X v.3XX s.# # +XR.E.oX`.B.E.fXC.%.J.C.J.# . $ $ $ $ $ $ X J.~./.k./.k./.k./.*.  ",
"  !.P Y.R Y.X s.. eXv.s.# # # Y.`.B.B.B.R B.B.%.qXb.J.b.gX# . $ $ $ $ $ $ X J.^.+Xk./.k./.*.hX  ",
"  iXT.p.B.$ s.X s.4Xj.X # # 5XE.R.`.jXB.B.V.B.J.C.J.kXgXkXgX# . $ $ $ $ $ $ X J.lXJ.7X/.*.H.m.  ",
"    `.`.. X v.s.X s.# # =XzXR B.aXW..X.X.X!..Xb.gXb.gXJ.gXr gX# . $ $ $ $ $ $ X J.^./.+X/.*.    ",
"    m.X s.. j.h.s.# # # wXE.B.V.5X5X5XQ.!.xX!.*.kXJ.kXJ.kXgX~ gX# . $ $ $ $ $ $ X cXcX*.*.%     ",
"    $ s.X s.4XeXX # # *.H.G..XG.Q..XQ. XH.*. X+XgXb.J.vXgXo gXo bX# . $ $ $ $ $ $ X <X*.8X      ",
"  $ s.v.s.s.s.# # +X!. X!.H.5XxX!. X*.@X*. X*.gXkXgXvX~ ~ ~ o ~ o ~ # . $ X $ $ $ $ X H.t       ",
"  s.s.eXv.s.# # # *./././.*.OX X@XcX/././.k./.~.gXo nXo &.o &.o &.o &.# . $ X $ $ $ $ X         ",
"# s.j.h.s.X # # kX/.*./.cX/.*.*.cX/.*./.k.7Xk./.~ &.o ~ o &.o ~ o &.~ gX# . $ X $ $ $ $ X       ",
"# s.v.X c.# X 6X/.*./.k.+Xk./.k./.k.=Xk.=Xk.+X+X=Xo &.o & o &.o & r gXvXgX# . $ X $ $ $ $ X     ",
"# # X s.# #   mXk./.k./.k./.k.7Xk./.k...k.+Xk./.k./.o &.~ ~ o &.~ gXkX~ -XH.# . $ X X # X X     ",
"  MX# # X       +Xk.=XiX=Xk.=XiX=Xk.=Xk...k.=Xk./.k.nXr gXr r b.gXvXgX*.OX*.H.# . $ # # . $ X   ",
"                  iX*.iXk.iXk./.k.iXk./.k./.k./.k./.cXgXo gXJ.~ vXC.NXH.!.H.t   # . X . . $ X   ",
"                    & k.=Xk.+Xk.=Xk./.k.+X+X/.6X<X*./.r r b.gXb.BXVXE G./.t     # # . $ $ X X   ",
"                        t iXk.iXk./.k./.k./.cX/.*. X*.gXb.gXr +XCX;X~.%           # # # X # X   ",
"                            & ~ /.~ =Xk./.k././.<X*.r r r ~ ZXAX<Xt                 X # # X     ",
"                                  % k.k.k./.~./.k./.*.*.VX=Xt                                   "};
