/* XPM */
static char * image_name[] = {
"48 48 41 1",
" 	c None",
".	c #E7E7EBEBE7E7",
"X	c #DFDFE3E3DFDF",
"o	c #CFCFCBCBCFCF",
"O	c #BEBEBABABEBE",
"+	c #717171717171",
"@	c #EFEFEBEBEFEF",
"#	c #DFDFDBDBDFDF",
"$	c #C7C7CBCBC7C7",
"%	c #AEAEB2B2AEAE",
"&	c #616161616161",
"*	c #000000000000",
"=	c #595959595959",
"-	c #202020203030",
";	c #303020204141",
":	c #303030305151",
">	c #303020205151",
",	c #414130305151",
"<	c #202030304141",
"1	c #414130306161",
"2	c #303041416161",
"3	c #414141414141",
"4	c #414141416161",
"5	c #414138387979",
"6	c #515141416161",
"7	c #515161616161",
"8	c #515151517171",
"9	c #616151518E8E",
"0	c #303030306161",
"q	c #D7D7D3D3D7D7",
"w	c #9E9E9A9AA6A6",
"e	c #969692929696",
"r	c #868682828686",
"t	c #3838A2A24141",
"y	c #AEAEB2B2B6B6",
"u	c #202028282828",
"i	c #E7E7CFCF5959",
"p	c #D7D76D6D2828",
"a	c #9E9E75753030",
"s	c #969669691010",
"d	c #383828280000",
" ..........XooooooOOOOOO++                      ",
" @#######$$$$$$OOOOO%%%%&&+                     ",
" @#$$$OOOOOOOOOO%%%%%%%%&&&++                   ",
" @#O******************%%&&&==                   ",
" @#O-;-;-;;;:>:,:>:>:;%%&&&==                   ",
" @#O;<;<>:::12121:1:::%%&&&==                   ",
" @#O-;:>:13145454141,1%%&&&==                   ",
" @#O;<::14556567645452%%&&&==                   ",
" @#O:>:145658585665541%%&&&==                   ",
" @#O>:1257589998576454%%&&&==                   ",
" @#O:,,646899989866645%%&&&==                   ",
" @#O::1467589858576564%%&&&==                   ",
" @#O:,,146658585865888%%&&&==                   ",
" @#O>:1255675767688888%%&&&==                   ",
" @#O:,:14546664688..........XooooooOOOOOOO++    ",
" @#O>:021454645888@q######$$$$$$OOOOO%%%ww&&+   ",
" @#O:>:,:111414888@q$$$OOOOOOOOOO%%%wwwwww&&&++ ",
" @#O;<::0:1:128888@qO*******************ww&&&== ",
" @#qqqqqoo$$OOOOO%@q%-;-;-;;;:>:,:>:>:;*ww&&&== ",
" @#qqqqqo$$$OOOOO%@q%;<;<>:::12121:1:::*ww&&&== ",
" OOOOOOOOOOOOOO%%%@q%-;:>:13145454141,1*ww&&&== ",
"         oO%%+=   @q%;<::14556567645452*ww&&&== ",
"     wwwwoww+=====@q%:>:145658585665541*ww&&&== ",
"   ww%%oo%%+++++++@q%>:1257589998576454*ww&&&== ",
" ww%%%%%OOO%%werrr@q%:,,646899989866645*ww&&&== ",
"%XXXXXXqqqqqqqOOOO@q%::1467589858576564*ww&&&== ",
"qOOOOOOO%%%%%%%%%%@q%:,,146658585865645*ww&&&== ",
"qOOttt%%%%%%%%%eee@q%>:1255675767676454*ww&&&== ",
"qOOttt%%%%%%%%++==@q%:,:145466646464541*ww&&&=  ",
"qOOO%%%%%%%%%%%%qq@q%>:0214546455645412*ww&&&   ",
"qOO%%%%%%%%%%%%%%%@q%:>:,:1114145411131*ww&&&   ",
"qO%%%%%%%%%%%%%%%%@q%;<::0:1:1212121:1:*ww&&&   ",
"wwwwwwwwwwwwwwwwww@q%%%%yywwwwwwwwwwwwwwww&&    ",
" &&&&&&&&&&&&&&&&&@q$$$OOOOOO%%%wwwwwwwwww&&    ",
"         %+=u     %%%%%%%%%OOOOOwweeeeeeee&     ",
"         %+=u              ooO%%+=              ",
"         qr+u          wwwwo%ww+=====+++++++++++",
"         qr+u        ww%%oo%ww++++++++++++rrrr+=",
"         qr+u      ww%%%%%OOOO%%w++rrrrrrrrr+===",
"         qr+u     %XXXXXXXXXOOOOwwwwrrr++++=====",
"        iiiiiip   qOOOOOOO%%%%%%%%%%%%%%%ww=====",
" qqqqqqiiiiip%qqqqqOOttt%%%%%%%%%eeeeeewwww=====",
"wrrrrrrppppprrrrrrqOOttt%%%%%%%%++=====++ww=====",
" uuuuuuaaaaaauuuuuqOO%%%%%%%%%%%%%qqqqq%%we=====",
"        ssssssd   qO%%%%%%%%%%%%%%%%%%%%%we=====",
"                  q%%%%%%%%%%%%%%%%%%%%%%we=====",
"                  wwwwwwwwwwwwwwwwwwwwwwwwe===  ",
"                   =========================    "};
