/* XPM */
static char *newmail[] = {
/* width height num_colors chars_per_pixel */
"    64    64       25            1",
/* colors */
". c #ffffff",
"# c #000000",
"a c #7f7f7f",
"b c #5b5b5b",
"c c #ff0000",
"d c #c3c3c3",
"e c #a7a7a7",
"f c #9f9f9f",
"g c #979797",
"h c #8f8f8f",
"i c #878787",
"j c #777777",
"k c #6f6f6f",
"l c #636363",
"m c #535353",
"n c #cccccc",
"o c #8c8c8c",
"p c #737373",
"q c #dedede",
"r c #00ff00",
"s c #424242",
"t c #adadad",
"u c #949494",
"v c #bdbdbd",
"w c #212121",
/* pixels */
"ddddddddddddddddddddddddddddddddddddddddddddddddddddddddddddddda",
"ddddddddddddddddddddddddddddddddddddddddddddddddddddddddddddddal",
"ddeeeeeeeefeffffffffffffgfgggggggggggghghhhhhhhhhhhhhhiiiiiiiill",
"ddefefefefefefeffffgfgfgfgfgfgggghghghghghghghhihihihihihihiiill",
"ddeefeeeffffffffffffgfffgggggggggggghghghhhhhhhhhhhhiiiiiiiiiill",
"ddefefefefefffeffgfgfgfgfgfgggggghghghghghghhihihihihihihihiiall",
"ddeeeefeffffffffffffgfgggggggggggghghhhhhhhhhhhhhhihiiiiiiiiiill",
"ddefefefefeffffgfgfgfgfgfgggghghghghghghghhihihihihihihiiiiiiall",
"ddeeffffffffffffgfffgggggggggggghghghh.ohhhhhhhhiiihiiiiiiiiiill",
"ddefefefffeffgfgfgfgfgfgggggghghghghg.qqoihihihihihiiiiiiaiiiall",
"ddfeffffffffffffgfgggggggggggghghhhh.qrqqohhhhiiiiiiiiiiiiiiiill",
"ddefefeffffgfgfgfgfgfgggghghghghghg.qtutqqoihihihihiiiiiiaiaiall",
"ddffffffffffgfffgggggggggggghghghh.qrururqqoiiiiiiiiiiiiiiiiaall",
"ddefffeffgfgfgfgfgfgggggghghghghg.qcqtutqqqqoihihihiiaiiiaiaiall",
"ddffffffffffgfgggggggggggghghhhh.qcqqurqqqqqqoiiiiiiiiiiiiaiaabl",
"ddeffffgfgfgfgfgfgggghghghghghg.qcqqcqqqqqqqqqoiiiiiiaiaiaiaiabb",
"ddffffffgfffgggggggggggghghghh.qqqqcqqqqqqqqqqqoiiiiiiiiaaaiaabb",
"ddeffgfgfgfgfgfgggggghghghghg.qqqqcqqqqqqqqqqqqqoaiiiaiaiaiaaabb",
"ddffffffgfgggggggggggghghhhh.qqqqqqqqqqqqqqqqqqqqoiiiiaiaaaaaabb",
"ddfgfgfgfgfgfggqqqqqqqqqqqq.qqqqqqqqqqqqqqqqqqqqqqoaiaiaiaaaaabb",
"ddffgfffgggggggquuuuuuuuuu.qqqqqqqqqqqqqqqqqqqqqqqqoaaaiaaaaaabb",
"ddfgfgfgfgfgggqqqqqqqqqqq.qqqqqqqqqqqqqqqqqqqqqqqqqqoaiaaaiaajbb",
"ddffgfggggggggqttttttttt.qqqqqqqqqqqqqqqqqqqqqqqqqqvooaaaaaaaabb",
"ddfgfgfgfgggg.qqqqqqqqq.qqqqqqqqqqqqqqqqqqqqqqqqqqvtoaaaaaajajbb",
"ddffggggggggg.vvvvvvvv.qqqqqqqqqqqqqqqqqqqqqqqqqqvtoaaaaaaaajabb",
"ddfgfgfgggggg.vuvuuuv.qqqqqqqqqqqqqqqqtqqqqqqqqqvtloaaiaajajajbb",
"ddggggggggggg.vvvvvv.qqqqqqqqqqqqqqqqtpqqqqqqqqvtlpoaaaaaajajabb",
"ddfgfgggghghg.vuuvv.qqqqqqqqqqqqqqqqtpqqtqqqqqvtlpuoaaajajajajbb",
"ddggggggggggh.vvvv.qqqqqqqqqqqqqqqqtpqqtpqqqqvtlpvuoaaaajaaajjbb",
"ddfgggggghghg.vvv.qqqqqqqqqqqqqqqqqpqqtpqqqqvtlpvtuoajajajajajbb",
"ddgggggggghgh.vv.qqpqpqqqqqqqqqqqtqqqtpqqqqvtlpvtvuoaajajajjjjbb",
"ddggghghghghg.q.qqpqqqqqqqqqqqqqtpqqqpqqqqvtlpvtvtuoajajajajajbb",
"ddgggggghghgoquqqpqpqqqqqqqqqqqtpqqqqqqqqvtlpvtvtvuojaaajjjjjjbm",
"ddggghghghgouqtuqqpqqqqqqqqqqqqpqqtqqqqqvtlpvtvtvtlpojajajajjkmb",
"ddgggghghho.pqvtuqqqqqqqqqqqqqqqqtpqqqqvtlpvtvtvtvluvojjjjjjjjbm",
"ddghghghgo.plqvvtuqqqqqqqqqqqqqqqpqqqqvtlpvtvtvtvtl#uvojajjjjjmm",
"ddgghghgo.vuttuuuuuuvvqqqqqqqqqqqqqqqvtlpvtvtpppppppppvnjjjjjjmm",
"ddghghgho.vqqqqqqqqqqtvqqqqqqqqqqqqqvtlpvtvtqqqqqqqqqqsnjjjjjkmm",
"ddhghhhho.vvtuuuuuuuulvvqqqqqqqqqqqvtlpvtvtvquuuuuupllsnjjjjjjmm",
"ddghghgho.vtttuuuuuuulvvvqqqqqqqqqvtlpvtvtvtquuuuuppplsnjjjkjkmm",
"ddhghhhho.vvtuuuuuuuuluvvqqqqqqqqvtlpvtvtvttquuuuuupllsnjjjjkjmm",
"ddghghgho.vtttuuuuuuulwuvvvvvvvvvtlpvtvtvtvtquuuuuppplsnjkjkjkmm",
"ddhhhhhho.vvtuuuuuuuuulwuttttttvtlllllpppppquuuuuuupllsnjjkjkjmm",
"ddghghhio.vtttuuuuuuuuulllllllllllllllllllquuuuuuuppplsnjkjkjkmm",
"ddhhhhhho.vvtuuuuuuuuuuqqqqqqqqqqqqqqqqqqquuuuuuuuupllsnkjkjkkmm",
"ddghhihio.vtttuuuuuuuuuuuuuuuuuuuuuuuuuuuuuuuuuuuuppplsnjkjkkkmm",
"ddhhhhhho.vvtuuuuuuuuuuuuuuuuuuuuuuuuuuuuuuuuuuuuuupllsnkjkkkkmm",
"ddhihihio.vtttuuuuuuuuuuuuuuuuuuuuuuuuuuuuuuuuuuuuppplsnjkjkkkmm",
"ddhhhhhhovvvupppppppppppppppppppppppppppppppppppppppllsnkkkkkkmm",
"ddhihihiollllllllllllllllllllllllllllllllllllllllllllllnkkjkklmm",
"ddhhhhiiinnnnnnnnnnnnnnnnnnnnnnnnnnnnnnnnnnnnnnnnnnnnnnkkkkkkkmm",
"ddhihihihihiiiiiiaiaiaiaiaaaaaajajajajajajjjjjjkjkjkjkjkkkklklmm",
"ddhhiiiiiiiiiiiiiiiiaaaiaaaaaaaajaaajjjjjjjjjjjjkjkjkkkkkkkklkmm",
"ddhihihihihiiaiiiaiaiaiaaaiaajajajajajajjjjjjkjkjkjkkkjkklklklmm",
"ddihiiiiiiiiiiiiiiaiaaaaaaaaaajajajjjjjjjjjjjjkjkjkkkkkkkkkklkmm",
"ddhihihiiiiiiaiaiaiaiaaaaaajajajajajajjjjjjkjkjkjkjkkkklklklklmm",
"ddihiiiiiiiiiiiiaaaiaaaaaaaajaaajjjjjjjjjjjjkjkjkkkkkkkklkkkllmm",
"ddhiiiiiiaiiiaiaiaiaaaiaajajajajajajjkjjjkjkjkjkkkjkklklklklklmm",
"ddiiiiiiiiiiiiaiaaaaaaaaaajajajjjjjjjjjjjjkjkjkkkkkkkkkklkllllmm",
"ddhiiiiiiaiaiaiaiaaaaaajajajajajajjjjjjkjkjkjkjkkkklklklklklklmm",
"ddiiiiiiiiiiaaaiaaaaaaaajaaajjjjjjjjjjjjkjkjkkkkkkkklkkkllllllmm",
"ddhiiaiiiaiaiaiaaaiaajajajajajajjjjjjkjkjkjkkkjkklklklklklklllmm",
"dallllllllllllllllllbbbbbbbbbbbbbbbbbbmbbmmmmmmmmmmmmmmmmmmmmmmm",
"allllllllllllllllllbbbbbbbbbbbbbbbbbbbbbmbmmmmmmmmmmmmmmmmmmmmmm"
};
