/* XPM */
static char *nomail[] = {
/* width height num_colors chars_per_pixel */
"    64    64       21            1",
/* colors */
". c #ffffff",
"# c #7f7f7f",
"a c #5b5b5b",
"b c #c3c3c3",
"c c #a7a7a7",
"d c #9f9f9f",
"e c #979797",
"f c #8f8f8f",
"g c #878787",
"h c #777777",
"i c #6f6f6f",
"j c #636363",
"k c #535353",
"l c #cccccc",
"m c #8c8c8c",
"n c #737373",
"o c #dedede",
"p c #424242",
"q c #adadad",
"r c #949494",
"s c #bdbdbd",
/* pixels */
"bbbbbbbbbbbbbbbbbbbbbbbbbbbbbbbbbbbbbbbbbbbbbbbbbbbbbbbbbbbbbbb#",
"bbbbbbbbbbbbbbbbbbbbbbbbbbbbbbbbbbbbbbbbbbbbbbbbbbbbbbbbbbbbbb#j",
"bbccccccccdcddddddddddddedeeeeeeeeeeeefeffffffffffffffggggggggjj",
"bbcdcdcdcdcdcdcddddedededededeeeefefefefefefeffgfgfgfgfgfgfgggjj",
"bbccdcccddddddddddddedddeeeeeeeeeeeefefeffffffffffffggggggggggjj",
"bbcdcdcdcdcdddcddedededededeeeeeefefefefefeffgfgfgfgfgfgfgfgg#jj",
"bbccccdcddddddddddddedeeeeeeeeeeeefeffffffffffffffgfggggggggggjj",
"bbcdcdcdcdcddddedededededeeeefefefefefefeffgfgfgfgfgfgfgggggg#jj",
"bbccddddddddddddedddeeeeeeeeeeeefefeffffffffffffgggfggggggggggjj",
"bbcdcdcdddcddedededededeeeeeefefefefefeffgfgfgfgfgfgggggg#ggg#jj",
"bbdcddddddddddddedeeeeeeeeeeeefeffffffffffffffggggggggggggggggjj",
"bbcdcdcddddedededededeeeefefefefefefeffgfgfgfgfgfgfgggggg#g#g#jj",
"bbddddddddddedddeeeeeeeeeeeefefeffffffffffffgggggggggggggggg##jj",
"bbcdddcddedededededeeeeeefefefefefeffgfgfgfgfgfgfgfgg#ggg#g#g#jj",
"bbddddddddddedeeeeeeeeeeeefeffffffffffffffgfgggggggggggggg#g##aj",
"bbcddddedededededeeeefefefefefefeffgfgfgfgfgfgfgggggg#g#g#g#g#aa",
"bbddddddedddeeeeeeeeeeeefefeffffffffffffgggfgggggggggggg###g##aa",
"bbcddedededededeeeeeefefefefefeffgfgfgfgfgfgggggg#ggg#g#g#g###aa",
"bbddddddedeeeeeeeeeeeefeffffffffffffffgggggggggggggggg#g######aa",
"bbdedededededeeeefefefefefefeffgfgfgfgfgfgfgggggg#g#g#g#g#####aa",
"bbddedddeeeeeeeeeeeefefeffffffffffffgggggggggggggggg###g######aa",
"bbdededededeeeeeefefefefefeffgfgfgfgfgfgfgfgg#ggg#g#g#g###g##haa",
"bbddedeeeeeeeeeeeefeffffffffffffffgfgggggggggggggg#g##########aa",
"bbdedededeeeefefefefefefeffgfgfgfgfgfgfgggggg#g#g#g#g######h#haa",
"bbddeeeeeeeeeeeefefeffffffffffffgggfgggggggggggg###g########h#aa",
"bbdededeeeeeefefefefefeffgfgfgfgfgfgggggg#ggg#g#g#g###g##h#h#haa",
"bbeeeeeeeeeeeefeffffffffffffffgggggggggggggggg#g##########h#h#aa",
"bbdedeeeefefefefefefeffgfgfgfgfgfgfgggggg#g#g#g#g######h#h#h#haa",
"bbeeeeeeeeeefefemmmmmmmmmmmmmmmmmmmmmmmmmmmmmmmm########h###hhaa",
"bbdeeeeeefefefem..........o.o.o.o.o.oooooooooooom#g##h#h#h#h#haa",
"bbeeeeeeeefeffm.rqqqqqqqqqqqqqqqqqqqqqqqqqqqqqqqqm####h#h#hhhhaa",
"bbeeefefefefem.srrrqqqqqqqqqqqqqqqqqqqqqqqqqqqqqsqmh#h#h#h#h#haa",
"bbeeeeeefefem.snrrrrqqqqqqqqqqqqqqqqqqqqqqqqqqqqrsqmh###hhhhhhak",
"bbeeefefefem.snnrrrrrrqqqqqqqqqqqqqqqqqqqqqqqqqqrrsqmh#h#h#hhika",
"bbeeeefeffm.snnnrrrrrrrrqqqqqqqqqqqqqqqqqqqqqqqqrrrsqmhhhhhhhhak",
"bbefefefem.qnnnnrrrrrrrrrqqqqqqqqqqqqqqqqqqqqqqqrrrrsqmh#hhhhhkk",
"bbeefefem.oqqqqqqqqrrrrrrrrqqqqqqqqqqqqqqqqqqnnnnnnnnnrlhhhhhhkk",
"bbefefefm.oqsssssssnrrrrrrrrqqqqqqqqqqqqqqqqnsssssssssplhhhhhikk",
"bbfeffffm.ooqrrrrrrrnsssssssooooooooooooooonsrrrrrrnjjplhhhhhhkk",
"bbefefefm.oqqqrrrrrrnsssssssooooooooooooooonsrrrrrnnnjplhhhihikk",
"bbfeffffm.ooqrrrrrrrnssssssoooooooooooooooonsrrrrrrnjjplhhhhihkk",
"bbefefefm.oqqqrrrrrrnssssssoooooooooooooooonsrrrrrnnnjplhihihikk",
"bbffffffm.ooqrrrrrrrrnssssoooooooooooooooonsrrrrrrrnjjplhhihihkk",
"bbefeffgm.oqqqrrrrrrrrnnnnnnnnnnnnnnnnnnnnsrrrrrrrnnnjplhihihikk",
"bbffffffm.ooqrrrrrrrrrrsssssssssssssssssssrrrrrrrrrnjjplihihiikk",
"bbeffgfgm.oqqqrrrrrrrrrrrrrrrrrrrrrrrrrrrrrrrrrrrrnnnjplhihiiikk",
"bbffffffm.ooqrrrrrrrrrrrrrrrrrrrrrrrrrrrrrrrrrrrrrrnjjplihiiiikk",
"bbfgfgfgm.oqqqrrrrrrrrrrrrrrrrrrrrrrrrrrrrrrrrrrrrnnnjplhihiiikk",
"bbffffffmsqqnnnnnnnnnnnnnnnnnnnnnnnnnnnnnnnnnnnnnnnnjjpliiiiiikk",
"bbfgfgfgmqjjjjjjjjjjjjjjjjjjjjjjjjjjjjjjjjjjjjjjjjjjjjjliihiijkk",
"bbffffggglllllllllllllllllllllllllllllllllllllllllllllliiiiiiikk",
"bbfgfgfgfgfgggggg#g#g#g#g######h#h#h#h#h#hhhhhhihihihihiiiijijkk",
"bbffgggggggggggggggg###g########h###hhhhhhhhhhhhihihiiiiiiiijikk",
"bbfgfgfgfgfgg#ggg#g#g#g###g##h#h#h#h#h#hhhhhhihihihiiihiijijijkk",
"bbgfgggggggggggggg#g##########h#h#hhhhhhhhhhhhihihiiiiiiiiiijikk",
"bbfgfgfgggggg#g#g#g#g######h#h#h#h#h#hhhhhhihihihihiiiijijijijkk",
"bbgfgggggggggggg###g########h###hhhhhhhhhhhhihihiiiiiiiijiiijjkk",
"bbfgggggg#ggg#g#g#g###g##h#h#h#h#h#hhihhhihihihiiihiijijijijijkk",
"bbgggggggggggg#g##########h#h#hhhhhhhhhhhhihihiiiiiiiiiijijjjjkk",
"bbfgggggg#g#g#g#g######h#h#h#h#h#hhhhhhihihihihiiiijijijijijijkk",
"bbgggggggggg###g########h###hhhhhhhhhhhhihihiiiiiiiijiiijjjjjjkk",
"bbfgg#ggg#g#g#g###g##h#h#h#h#h#hhhhhhihihihiiihiijijijijijijjjkk",
"b#jjjjjjjjjjjjjjjjjjaaaaaaaaaaaaaaaaaakaakkkkkkkkkkkkkkkkkkkkkkk",
"#jjjjjjjjjjjjjjjjjjaaaaaaaaaaaaaaaaaaaaakakkkkkkkkkkkkkkkkkkkkkk"
};
