/* XPM */
static char *oldmail[] = {
/* width height num_colors chars_per_pixel */
"    64    64       24            1",
/* colors */
". c #ffffff",
"# c #000000",
"a c #7f7f7f",
"b c #5b5b5b",
"c c #ff0000",
"d c #c3c3c3",
"e c #a7a7a7",
"f c #9f9f9f",
"g c #979797",
"h c #8f8f8f",
"i c #878787",
"j c #777777",
"k c #6f6f6f",
"l c #636363",
"m c #535353",
"n c #cccccc",
"o c #8c8c8c",
"p c #737373",
"q c #dedede",
"r c #00ff00",
"s c #424242",
"t c #adadad",
"u c #949494",
"v c #bdbdbd",
/* pixels */
"ddddddddddddddddddddddddddddddddddddddddddddddddddddddddddddddda",
"ddddddddddddddddddddddddddddddddddddddddddddddddddddddddddddddal",
"ddeeeeeeeefeffffffffffffgfgggggggggggghghhhhhhhhhhhhhhiiiiiiiill",
"ddefefefefefefeffffgfgfgfgfgfgggghghghghghghghhihihihihihihiiill",
"ddeefeeeffffffffffffgfffgggggggggggghghghhhhhhhhhhhhiiiiiiiiiill",
"ddefefefefefffeffgfgfgfgfgfgggggghghghghghghhihihihihihihihiiall",
"ddeeeefeffffffffffffgfgggggggggggghghhhhhhhhhhhhhhihiiiiiiiiiill",
"ddefefefefeffffgfgfgfgfgfgggghghghghghghghhihihihihihihiiiiiiall",
"ddeeffffffffffffgfffgggggggggggghghghhhhhhhhhhhhiiihiiiiiiiiiill",
"ddefefefffeffgfgfgfgfgfgggggghghghghghghhihihihihihiiiiiiaiiiall",
"ddfeffffffffffffgfgggggggggggghghhhhhhhhhhhhhhiiiiiiiiiiiiiiiill",
"ddefefeffffgfgfgfgfgfgggghghghghghghghhihihihihihihiiiiiiaiaiall",
"ddffffffffffgfffgggggggggggghghghhhhhhhhhhhhiiiiiiiiiiiiiiiiaall",
"ddefffeffgfgfgfgfgfgggggghghghghghghhihihihihihihihiiaiiiaiaiall",
"ddffffffffffgfgggggggggggghghhhhhhhhhhhhhhihiiiiiiiiiiiiiiaiaabl",
"ddeffffgfgfgfgfgfgggghghghghghghghhihihihihihihiiiiiiaiaiaiaiabb",
"ddffffffgfffgggggggggggghghghhhhhhhhhhhhiiihiiiiiiiiiiiiaaaiaabb",
"ddeffgfgfgfgfgfgggggghghghghghghhihihihihihiiiiiiaiiiaiaiaiaaabb",
"ddffffffgfgggggggggggghghhhhhhhhhhhhhhiiiiiiiiiiiiiiiiaiaaaaaabb",
"ddfgfgfgfgfgfgggghghghghghghghhihihihihihihiiiiiiaiaiaiaiaaaaabb",
"ddffgfffgggggggqqqqqqqqqqqqqqqqqqqqqvqvqvvvvvvvvviiiaaaiaaaaaabb",
"ddfgfgfgfgfggggqttttuuuuuuuuuuuuuuppppppppplplplpaiaiaiaaaiaajbb",
"ddffgfggggggggqqqqqqqqqqqqqqqqqqqqvqvqvvvvvvvvvvvvaiaaaaaaaaaabb",
"ddfgfgfgfgggghqtuuuuuuuuuuuuuuppppppppppppplplplpliaiaaaaaajajbb",
"ddffggggggggg.....................................oiaaaaaaaajabb",
"ddfgfgfgggggg.qqqqqqqqqqqqqqqqqqqqqqqqqqqqqqqvqvqqoaaaiaajajajbb",
"ddggggggggggg.qppqpqqqqqqqqqqqqqqqqqqqqcpqqcprtrvqoaaaaaaajajabb",
"ddfgfgggghghg.qqqqqqqqqqqqqqqqqqqqqqqqqqqcpqvprpqqoaaaajajajajbb",
"ddggggggggggh.qpppqqqqqqqqqqqqqqqqqqqqqcpqqcpprpvqoaaaaajaaajjbb",
"ddfgggggghghg.qqqqqqqqqqqqqqqqqqqqqqqqqqqcpqvrtrqqoaajajajajajbb",
"ddgggggggghgh.qqqqqqqqqqqqqqqqqqqqqqqqqqqqqqqqqqqqoaaajajajjjjbb",
"ddggghghghghg.qqqqqqqqqqqqqqqqqqqqqqqqqqqqqqqqqqqqojajajajajajbb",
"ddgggggghghgo.qqqqqqqqqqqqqqqqqqqqqqqqqqqqqqqqqqvqpojaaajjjjjjbm",
"ddggghghghgou.qqqqqqqqqqqqqqqqqqqqqqqqqqqqqqqqqqqvlvojajajajjkmb",
"ddgggghghho.p.qqqqqqqqqqqqqqqqqqqqqqqqqqqqqqqqvqvqluvojjjjjjjjbm",
"ddghghghgo.pl.qqqqqqqqqqqqqqqqqqqqqqqqqqqqqqqqqvvvl#uvojajjjjjmm",
"ddgghghgo.qtttuuuuuuvvvqqqqqqqqqqqqqqqqqqqqqvpppppppppvnjjjjjjmm",
"ddghghgho.qtqqqqqqqquttvqqqppqppppqppqqqqqqqpqqqqqqqqqsnjjjjjkmm",
"ddhghhhho.qqtuuuuuuupltvvqqqqqqqqqqqqqqqqqvpquuuuuupllsnjjjjjjmm",
"ddghghgho.qtttuuuuuuplttvqqpppppqppppqqqqqqpquuuuuppplsnjjjkjkmm",
"ddhghhhho.qqtuuuuuuupltvtqqqqqqqqqqqqqqqvqvpquuuuuupllsnjjjjkjmm",
"ddghghgho.qtttuuuuuuplttvtvvvvvvvvvvvvvvvvvpquuuuuppplsnjkjkjkmm",
"ddhhhhhho.qqtuuuuuuuupltttttttttttttttttttpquuuuuuupllsnjjkjkjmm",
"ddghghhio.qtttuuuuuuuuulllllllllllllllllllquuuuuuuppplsnjkjkjkmm",
"ddhhhhhho.qqtuuuuuuuuuuqqqqqqqqqqqqqqqqqqquuuuuuuuupllsnkjkjkkmm",
"ddghhihio.qtttuuuuuuuuuuuuuuuuuuuuuuuuuuuuuuuuuuuuppplsnjkjkkkmm",
"ddhhhhhho.qqtuuuuuuuuuuuuuuuuuuuuuuuuuuuuuuuuuuuuuupllsnkjkkkkmm",
"ddhihihio.qtttuuuuuuuuuuuuuuuuuuuuuuuuuuuuuuuuuuuuppplsnjkjkkkmm",
"ddhhhhhhovttppppppppppppppppppppppppppppppppppppppppllsnkkkkkkmm",
"ddhihihiotlllllllllllllllllllllllllllllllllllllllllllllnkkjkklmm",
"ddhhhhiiinnnnnnnnnnnnnnnnnnnnnnnnnnnnnnnnnnnnnnnnnnnnnnkkkkkkkmm",
"ddhihihihihiiiiiiaiaiaiaiaaaaaajajajajajajjjjjjkjkjkjkjkkkklklmm",
"ddhhiiiiiiiiiiiiiiiiaaaiaaaaaaaajaaajjjjjjjjjjjjkjkjkkkkkkkklkmm",
"ddhihihihihiiaiiiaiaiaiaaaiaajajajajajajjjjjjkjkjkjkkkjkklklklmm",
"ddihiiiiiiiiiiiiiiaiaaaaaaaaaajajajjjjjjjjjjjjkjkjkkkkkkkkkklkmm",
"ddhihihiiiiiiaiaiaiaiaaaaaajajajajajajjjjjjkjkjkjkjkkkklklklklmm",
"ddihiiiiiiiiiiiiaaaiaaaaaaaajaaajjjjjjjjjjjjkjkjkkkkkkkklkkkllmm",
"ddhiiiiiiaiiiaiaiaiaaaiaajajajajajajjkjjjkjkjkjkkkjkklklklklklmm",
"ddiiiiiiiiiiiiaiaaaaaaaaaajajajjjjjjjjjjjjkjkjkkkkkkkkkklkllllmm",
"ddhiiiiiiaiaiaiaiaaaaaajajajajajajjjjjjkjkjkjkjkkkklklklklklklmm",
"ddiiiiiiiiiiaaaiaaaaaaaajaaajjjjjjjjjjjjkjkjkkkkkkkklkkkllllllmm",
"ddhiiaiiiaiaiaiaaaiaajajajajajajjjjjjkjkjkjkkkjkklklklklklklllmm",
"dallllllllllllllllllbbbbbbbbbbbbbbbbbbmbbmmmmmmmmmmmmmmmmmmmmmmm",
"allllllllllllllllllbbbbbbbbbbbbbbbbbbbbbmbmmmmmmmmmmmmmmmmmmmmmm"
};
