/* XPM */
static char *oldmail_s[] = {
/* width height num_colors chars_per_pixel */
"    48    48       16            1",
/* colors */
". c None",
"# c #949494",
"a c #636363",
"b c #868686",
"c c #7d7d7d",
"d c #dedede",
"e c #bdbdbd",
"f c #adadad",
"g c #737373",
"h c #636363",
"i c #ffffff",
"j c #f81440",
"k c #3cf834",
"l c #000000",
"m c #bdbdbd",
"n c #424242",
/* pixels */
"................................................",
"................................................",
"................................................",
"................................................",
"................................................",
"................................................",
"................................................",
"................................................",
"................................................",
"................................................",
".....###a#a#a#a#a#a#aabababababababbbbbbc.......",
".....#dddddddddddddddddddddededeeeeeeeeeb.......",
"....##dffff##############ggggggggghghghgcb......",
"....#ddddddddddddddddddddededeeeeeeeeeeeec......",
"...#adf##############ggggggggggggghghghghb......",
"...#iiiiiiiiiiiiiiiiiiiiiiiiiiiiiiiiiiiiia......",
"...#idddddddddddddddddddddddddddddddededda......",
"...#idggdgddddddddddddddddddddjgddjgkfkeda......",
"...#idddddddddddddddddddddddddddjgdegkgdda......",
"...aidgggdddddddddddddddddddddjgddjggkgeda......",
"...#idddddddddddddddddddddddddddjgdekfkdda......",
"...aidddddddddddddddddddddddddddddddddddda......",
"...#idddddddddddddddddddddddddddddddddddda......",
"...aiddddddddddddddddddddddddddddddddddedga.....",
"..a#idddddddddddddddddddddddddddddddddddehea....",
".aigiddddddddddddddddddddddddddddddddededh#ea...",
"aighidddddddddddddddddddddddddddddddddeeehl#ea..",
"idfff######eeedddddddddddddddddddddegggggggggem.",
"idfdddddddd#ffedddggdggggdggdddddddgdddddddddnm.",
"iddf#######ghfeedddddddddddddddddegd######ghhnm.",
"idfff######ghffeddgggggdggggddddddgd#####ggghnm.",
"iddf#######ghfefdddddddddddddddedegd######ghhnm.",
"idfff######ghffefeeeeeeeeeeeeeeeeegd#####ggghnm.",
"iddf########ghfffffffffffffffffffgd#######ghhnm.",
"idfff#########hhhhhhhhhhhhhhhhhhhd#######ggghnm.",
"iddf##########ddddddddddddddddddd#########ghhnm.",
"idfff####################################ggghnm.",
"iddf######################################ghhnm.",
"idfff####################################ggghnm.",
"effgggggggggggggggggggggggggggggggggggggggghhnm.",
"fhhhhhhhhhhhhhhhhhhhhhhhhhhhhhhhhhhhhhhhhhhhhhm.",
"mmmmmmmmmmmmmmmmmmmmmmmmmmmmmmmmmmmmmmmmmmmmmm..",
"................................................",
"................................................",
"................................................",
"................................................",
"................................................",
"................................................"
};
