/* XPM */
static char * image_name[] = {
"64 64 256 2",
"  	c #E0E0FDFDFBFB",
". 	c #F7F7F9F9F7F7",
"X 	c #F9F9EAEAF0F0",
"o 	c #F8F8DBDBEAEA",
"O 	c #F5F5F7F7DEDE",
"+ 	c #E1E1F6F6CECE",
"@ 	c #C4C4F8F8F2F2",
"# 	c #FCFCCECED4D4",
"$ 	c #F7F7E5E5CDCD",
"% 	c #DCDCE7E7D9D9",
"& 	c #C5C5E9E9E3E3",
"* 	c #ACACECECE0E0",
"= 	c #9C9CFAFADCDC",
"- 	c #393929292727",
"; 	c #DCDCC8C8C0C0",
": 	c #C5C588889B9B",
"> 	c #C2C29999A5A5",
", 	c #C3C3A6A6A4A4",
"< 	c #B2B29999A0A0",
"1 	c #A2A299999898",
"2 	c #9F9FA6A68B8B",
"3 	c #9F9F9A9A7777",
"4 	c #B0B0A8A88787",
"5 	c #C3C3A9A98B8B",
"6 	c #AEAE98987474",
"7 	c #AEAEA7A76363",
"8 	c #B1B1B9B96A6A",
"9 	c #9F9FA5A56868",
"0 	c #8C8C99997676",
"q 	c #8B8B8B8B9595",
"w 	c #76768C8C7878",
"e 	c #767698988484",
"r 	c #74749E9E9A9A",
"t 	c #60609A9A8888",
"y 	c #5C5CA8A87D7D",
"u 	c #50509A9A7575",
"i 	c #4343A7A78888",
"p 	c #3B3BADADA4A4",
"a 	c #4242B6B6A9A9",
"s 	c #5C5CB8B8A5A5",
"d 	c #5C5CA9A9A4A4",
"f 	c #4A4AAAAAA7A7",
"g 	c #4A4AC2C2ACAC",
"h 	c #4545D4D4B9B9",
"j 	c #08084B4B4242",
"k 	c #070705050B0B",
"l 	c #D9D9DBDBCECE",
"z 	c #CBCB7A7A8989",
"x 	c #C2C2B8B89999",
"c 	c #C6C6AAAA6363",
"v 	c #C7C7B7B78383",
"b 	c #C6C6B9B96767",
"n 	c #A3A3BCBC6C6C",
"m 	c #B0B0B9B98B8B",
"M 	c #9F9F9A9A5555",
"N 	c #8B8B86867474",
"B 	c #3B3BC1C1ACAC",
"V 	c #4444EEEEC4C4",
"C 	c #4C4CDDDDBEBE",
"Z 	c #050529290E0E",
"A 	c #B6B67C7C8181",
"S 	c #CCCC67677F7F",
"D 	c #D7D788889595",
"F 	c #C5C5C9C97A7A",
"G 	c #B0B0C6C67F7F",
"H 	c #7070F0F0D8D8",
"J 	c #040417170707",
"K 	c #E0E07A7A8181",
"L 	c #D9D997979797",
"P 	c #B1B187877C7C",
"I 	c #D7D7AAAA9A9A",
"U 	c #C3C3C6C65E5E",
"Y 	c #C7C7BABA4C4C",
"T 	c #B0B0C6C66363",
"R 	c #8B8BA7A76F6F",
"E 	c #4D4D98989D9D",
"W 	c #5959D1D1BCBC",
"Q 	c #08083A3A2C2C",
"! 	c #D8D8B5B5A0A0",
"~ 	c #C5C5D0D06262",
"^ 	c #9F9FC7C76565",
"/ 	c #8D8DB6B67A7A",
"( 	c #C6C65B5B7F7F",
") 	c #CFCF74747575",
"_ 	c #C4C499998282",
"` 	c #D6D6B9B97575",
"' 	c #8B8BC2C27575",
"] 	c #8989CDCD7575",
"[ 	c #7777A7A77676",
"{ 	c #8A8A9A9A8F8F",
"} 	c #61618A8A7979",
"| 	c #5C5CC6C6B2B2",
" .	c #5E5EDFDFC8C8",
"..	c #DBDB87877A7A",
"X.	c #F4F498987070",
"o.	c #DCDC96967777",
"O.	c #D9D9C5C56F6F",
"+.	c #D8D8D1D16C6C",
"@.	c #DDDDCFCF4E4E",
"#.	c #B1B1D3D36E6E",
"$.	c #7979C5C57C7C",
"%.	c #7777B7B77C7C",
"&.	c #D8D87E7E3838",
"*.	c #DBDBA7A77070",
"=.	c #EDED98985151",
"-.	c #DFDFABAB5B5B",
";.	c #7777D0D08383",
":.	c #7575AAAA9898",
">.	c #7272C4C4A3A3",
",.	c #FAFADADAC3C3",
"<.	c #CBCB7C7C7878",
"1.	c #F0F0A7A77272",
"2.	c #DADAB7B75C5C",
"3.	c #EDEDC7C75959",
"4.	c #7575B7B79D9D",
"5.	c #4444B5B59494",
"6.	c #7272D1D1A0A0",
"7.	c #1A1A29292525",
"8.	c #F4F489892727",
"9.	c #F2F2B5B55757",
"0.	c #DCDCC7C74E4E",
"q.	c #EDEDD1D15555",
"w.	c #5F5FB5B58888",
"e.	c #5B5BC5C59595",
"r.	c #EEEEB6B64747",
"t.	c #DBDBB7B74242",
"y.	c #5F5FD0D08989",
"u.	c #8F8FD1D1A1A1",
"i.	c #F4F4A9A95959",
"p.	c #F4F4B6B66E6E",
"a.	c #8C8CC2C29595",
"s.	c #272727272424",
"d.	c #F4F4A7A73434",
"f.	c #8C8CB6B69494",
"g.	c #8C8CA9A99090",
"h.	c #7C7CDADA8A8A",
"j.	c #F5F598983131",
"k.	c #DCDCA9A93535",
"l.	c #CACAA8A84545",
"z.	c #A2A2C7C78080",
"x.	c #A0A0B9B98989",
"c.	c #DFDF9A9A3A3A",
"v.	c #A1A1BABAA2A2",
"b.	c #AAAAD5D58282",
"n.	c #262618181919",
"m.	c #B0B0BBBBA6A6",
"M.	c #A1A189897D7D",
"N.	c #94947D7D8A8A",
"B.	c #8B8B7A7A6565",
"V.	c #EEEE7B7B1F1F",
"C.	c #AAAAC5C5A1A1",
"Z.	c #6A6A69696C6C",
"A.	c #888863637373",
"S.	c #1C1C1B1B1C1C",
"D.	c #DBDB87874545",
"F.	c #BFBFC6C6A4A4",
"G.	c #87876E6E7070",
"H.	c #686874747C7C",
"J.	c #262604041B1B",
"K.	c #A9A96E6E6D6D",
"L.	c #979761617575",
"P.	c #979756567E7E",
"I.	c #343418183C3C",
"U.	c #B8B86E6E7474",
"Y.	c #B1B164647777",
"T.	c #868655556B6B",
"R.	c #181802021B1B",
"E.	c #C0C0D2D2B0B0",
"W.	c #C1C184848080",
"Q.	c #B0B047477B7B",
"!.	c #8D8D3D3D7A7A",
"~.	c #373704042323",
"^.	c #DDDD98982424",
"/.	c #A6A6CFCFA8A8",
"(.	c #A8A838386C6C",
").	c #B9B952527979",
"_.	c #89892F2F7575",
"`.	c #DADA8B8B2929",
"'.	c #8F8F48487474",
"].	c #C6C688883232",
"[.	c #C7C796963838",
"{.	c #A8A854547979",
"}.	c #B1B18A8A3F3F",
"|.	c #B5B57A7A6969",
" X	c #868655554949",
".X	c #9C9C86863C3C",
"XX	c #A8A879793C3C",
"oX	c #C2C297975656",
"OX	c #96966C6C4B4B",
"+X	c #B8B87B7B3C3C",
"@X	c #C8C87B7B3030",
"#X	c #919199995353",
"$X	c #ABAB88885959",
"%X	c #8E8E6C6C2B2B",
"&X	c #B0B070704545",
"*X	c #C0C08B8B5454",
"=X	c #989854544C4C",
"-X	c #B1B197975858",
";X	c #979761614949",
":X	c #888861615151",
">X	c #787869692B2B",
",X	c #909079792C2C",
"<X	c #808099995C5C",
"1X	c #676765653636",
"2X	c #757578782B2B",
"3X	c #C4C462624141",
"4X	c #7E7E89893A3A",
"5X	c #929289894949",
"6X	c #8E8E7B7B4545",
"7X	c #7B7B78786565",
"8X	c #818188885B5B",
"9X	c #747476764444",
"0X	c #97976F6F6868",
"qX	c #777757576565",
"wX	c #787868686666",
"eX	c #B3B362624B4B",
"rX	c #6F6F59592A2A",
"tX	c #B6B654545151",
"yX	c #A8A855555252",
"uX	c #6A6A52527070",
"iX	c #595959593737",
"pX	c #AFAF48484E4E",
"aX	c #949447474F4F",
"sX	c #8F8F3B3B5252",
"dX	c #777749496D6D",
"fX	c #696947477070",
"gX	c #7C7C3B3B5151",
"hX	c #A9A93B3B4A4A",
"jX	c #A6A62F2F4E4E",
"kX	c #6F6F3A3A7373",
"lX	c #525248482D2D",
"zX	c #8B8B2B2B5151",
"xX	c #7C7C2E2E5858",
"cX	c #585836366B6B",
"vX	c #76762B2B7171",
"bX	c #68682C2C7474",
"nX	c #595929296F6F",
"mX	c #3A3A38382E2E",
"MX	c #6B6B4B4B2B2B",
"NX	c #9C9C1F1F4747",
"BX	c #6C6C20206666",
"VX	c #6F6F1C1C4B4B",
"CX	c #4F4F39392A2A",
"ZX	c #8D8D1F1F5555",
"AX	c #696927274F4F",
"SX	c #575720206C6C",
"DX	c #54541D1D4141",
"FX	c #767616165050",
"GX	c #676712124848",
"HX	c #4B4B2D2D3636",
"JX	c #565667677373",
"KX	c #525212123E3E",
"LX	c #4C4C79797777",
"PX	c #4C4C89897979",
"IX	c #51515D5D7171",
"UX	c #494929295F5F",
"  . X . o . . . . X . . . . X X . X . . . . O . X O O O O O O O O + O   O   .   . . .   . .   .     .   . .             @ @ . o ",
". . o o # o X o X o o o o o o o X o o o $ $ o $ $ $ $ $ $ O + + + + + + + + % % % % & % & & & * & @ @ @ @ & @ @ @ @ @ = =   % - ",
"  ; : > : : > , < < < < < 1 < , < 2 1 3 2 1 4 5 5 5 5 6 7 4 8 9 2 9 0 3 3 q 0 0 w e r t t t y u i p a s d f a a a a g h h g j k ",
". l : z z : > > > > > > , < > , , 4 4 4 4 x c v b v c 7 b n 8 m 9 7 M N 3 3 0 q e e t t i i i p p p B B p p a B B h B h V C j Z ",
". # A z S z : > D : : > > < > , 5 4 4 4 v 8 v F b 8 8 7 8 8 G n 7 7 9 3 3 3 0 w e e t f i i p p B p a p f f a a g a h C h H j J ",
". o : z K z D L L D : : P < , I x 5 v m b 8 b U b Y Y 8 8 T T n n n 9 9 3 R 2 q w t y E i p p B p a p p f a a g a g W C h h Q J ",
"X o z S K K z D D D D > > < 5 ! x v v F b U U U U ~ ~ U T T ^ ^ ^ ^ / R R R 0 e e w t d E p p B p p p p f f s g g W g g C W Q k ",
". o K ( K K ) D z D D L _ 5 5 5 5 v ` F F U U ~ U ~ ~ ~ T T ^ ' ^ ] ' / [ R { e w } E t E E i p p p a a f f g | | a W H  .W j k ",
". # z K K S ....X.D o._ 5 v v v v ` v O.F +.+.~ ~ @.~ #.#.T ^ ' ] ] $.%./ [ [ e r r r t E E E f p B B a g s W g W g W h C W j k ",
". o z ) K K ..o....._ o.5 v v v ` ` +.O.+.~ ~ ~ ~ ~ #.~ ~ #.^ ] ] ] ] ' %.R r e r r t r E E f f B g g | a s g | W g | h C W Q k ",
". o ..K K &.X.*.=.*.o.-.b ` b ` b ` O.+.+.+.~ U ~ T ~ #.#.#.^ ] ] ;.' $.$.%.:.:.r :.d d d f f a a g g s s >.| | | >.| W | | Q k ",
"O ,.<...K ..*.1.*.-.-.2.` U O.O.` 3.O.+.+.~ ~ T ~ ~ ~ #.#.^ ' ' $.$.$.' 4.%.:.4.d 4.4.s s f s s 5.5.5.| >.>.>.6.>.| >.| | | 7.k ",
"O ,.....8.=.=.-.9.-.-.2.2.2.0.O.3.3.+.q.+.F U U ~ #.G T ^ ' ' ' $.%.$.>.%.>.w.w.w.s s s g 5.e.g e.g e.e.| 6.6.| >.| >.W e.| Z k ",
"O $ o.X.X.=.-.r.-.r.-.t.O.3.+.q.q.O.3.+.+.~ +.~ G F G ^ n ' ' ] $.;.$.e.$.e.w.e.w.e.e.y.e.e.e.e.e.g s | u.>.>.W >.>.| | | >.7.k ",
"O ,.o.X.X.i.p.r.r.r.3.3.0.q.q.q.3.3.O.+.+.F ~ F G G n n / / ^ ] ;.y.y.y.y.e.y.e.5.y.e.y.y.e.y.e.5.e.s e.4.4.| u.| 4.s | | >.7.k ",
"O $ 1.1.i.9.9.r.r.t.r.3.3.q.q.q.3.3.0.@.U b T 8 8 n n / / / ' $.;.y.y.y.y.y.e.y.e.y.y.6.6.y.;.y.i w.s 4.d d s >.4.4.s 4.>.>.7.k ",
". $ 1.=.i.9.i.r.t.9.0.3.@.q.q.0.@.0.b Y F ~ U T T G n / / / ' a.s 6.e.y.y.y.y.y.e.>.>.>.>.$.>.;.s d r r :.w.4.s >.4.d 4.s :.s.k ",
". ,.i.d.i.9.9.9.r.3.3.@.3.q.0.0.0.U U Y U U U T T T ^ / / f.g.4.4.4.e.e.y.y.y.;.$.4.4.f.4.$.>.%.4.:.e [ :.[ >.>.4.4.:.4.:.:.7.k ",
". $ =.i.d.i.i.r.d.t.t.0.0.0.@.@.0.U Y U b T T T n ^ G ^ / / g.:.4.4.$.;.;.;.h.;.>.f.4.:.f.4.4.%.4.:.{ g.[ %.4.;.4.4.:.:.:.g.s.k ",
". ,.=.j.i.d.j.k.k.k.l.Y k.0.0.@.0.U U U T 8 T T ^ z.^ z.x.f.f.g.4.a.>.;.h.h.h.h.] 4.g.:.f.f.f.:.g.g.g.0 g.f.%.f.:.:.r :.r r s.k ",
". ,.=.j.j.=.c.k.k.t.t.Y Y t.0.0.@.U U 8 U T T ^ ^ ^ z.z.a.x.v.f.g.f.f.>.] h.;.a.a.4.g.g.g.g.g.g.g.g.1 3 g.R f.[ [ { e r e { s.k ",
"O ,.=.j.j.d.j.k.r.r.t.Y t.Y 0.@.@.~ U U T #.^ ^ ^ ^ b.z.x.v.v.v.g.f.f.a.$.$.$.$.' f.g.g.g.1 2 1 2 1 2 3 0 2 R g.{ 2 r { q e n.k ",
". ,.=.8.j.=.c.d.k.t.t.t.t.0.0.~ ~ U U T T T ^ ^ ] b.z.z.z.v.v.m.v.v.f.a.' ] ' $./ / f.2 1 1 1 < 1 1 3 M.0 0 0 0 { g.{ { q q s.k ",
"O ,.8.8.8.j.c.c.d.r.t.U t.0.0.@.0.U U T T ^ ^ ^ z.b.b.z.x.v.m.v.v.v.v.a.a.' ' $.' f.g.2 4 < < < M.M.M.N.B.N 3 q q 1 q q q q n.k ",
". ,.&.V.8.=.d.k.d.r.t.Y t.0.t.Y Y Y Y T T T T ^ #.b.z.C.C.m.m.m.C.C.C.a.z.' ' / / / 2 2 1 < < A P M.N.B.M.P M.N.N.M.N.N.Z.A.S.k ",
"X ,.D.V.8.j.j.c.d.r.t.l.t.t.Y t.Y Y Y Y 8 8 F #.#.z.z.C.F.F.m.F.m.C.C.x.a.z.z.z./ R 0 1 1 P A : A P A M.M.M.M.N.N.N.A.G.A.H.J.k ",
"O ,.V.8.8.j.j.k.d.r.k.k.t.t.k.t.Y Y Y Y Y U U F F m G F F.C.m.C.m.v.v.x.x.C.G C.x.2 2 M.M.N.A : A : P A A A K.A N.L.A.P.A.L.I.k ",
"O ,.8.8.8.j.j.d.d.d.t.t.t.t.t.k.t.t.0.t.b b F F F F F F.m.m.m.m.C.C.v.m m m.G x m m 4 3 P A z z z A A P A A U.U.Y.P.P.P.P.T.R.R.",
"O ,.V.V.8.j.d.d.d.d.t.k.r.k.k.k.l.t.t.2.2.2.2.` v v v F.m m.m.E.F.C.F.m x x m x x 5 5 _ W.A z z z ) A W.z A S Y.Y.P.P.Q.P.!.~.R.",
"X ,.&.V.V.j.d.d.d.d.k.r.k.k.k.k.k.k.r.9.-.p.2.*.` ` F m x F.m.F.E.F.F.F.x x , 5 5 5 5 _ W...z K K K <.W.D z S S Y.Q.Q.!.Q.!.J.R.",
"X ,.V.V.8.8.d.d.d.^.k.r.k.d.t.k.k.r.k.9.9.p.-.*.` ` ` v F.x F./.E.F.F.x ! ! , I 5 I I I o.....K K K D ....K S S ( Q.Q.(.Q.(.~.J.",
"$ ,.&.V.8.j.j.j.j.^.^.k.^.k.d.k.r.r.9.i.p.p.p.*.*.*.v ! F.F.E.E.E.E.x ; x ! I I ! ! ! I L D X.K K K ....) ( ( ( Q.).).(.(._.~.R.",
"X ,.`.`.8.8.8.8.8.^.^.k.k.k.k.t.k.r.r.9.-.1.1.-.o.*.5 v x F.F.F.E.C.m.x x x ! ! ; ! *.L L L K z K K K <.K ) S S ( ( ( Q.Q.'.~.R.",
"$ $ ].`.8.8.8.8.8.j.k.k.k.l.l.k.k.k.-.-.i.-.-.*.*.*.v 5 v F.E.F.E.C.m.F.x 4 5 v ! I , L _ D : <.<.<.K K ) ) ) U.S S ( ).).'.~.R.",
"O ,.[.].^.8.8.V.`.^.k.k.l.l.k.l.t.2.k.-.-.-.*.*.c 5 5 4 m C.F./.F.C.m.m 4 4 4 4 5 _ 5 _ : : <.z W.<...<.<.<.<.A U.S ( ).{.P.n.R.",
"O $ }.[.j.^.8.`.`.^.k.k.l.t.Y k.Y -.2.2.-.-.l.c c c 7 m m C././.C.v.v.2 2 2 6 4 6 6 P 6 W.W.W.<.<.<.<.<.) <.A A Y.Y.S Y.{.L.~.k ",
". $ [.[.^.^.8.^.`.^.k.l.l.t.t.l.Y -.b 2.b -.c c 7 7 x.x.C.C.u./.C.v.v.x.4 4 4 5 6 3 P P P A A A A W.<.|.<.A A A Y.U.S Y.Y.T.J.k ",
"X $ }.}.].^.`.`.^.^.l.k.l.l.l.l.c l.b 2.2.b Y 7 7 8 m z.C.a.u./.a.f.x.2 2 4 4 m 6 6 M.M.P A z |.W.W.W.<.A A W.P U.A z S L. XJ.k ",
"X ,..X}.`.].`.].[.[.[.[.[.l.[.k.l.c c b 2.b b 8 U m z.z.C.u.a.u.a.v.g./ 2 9 2 6 3 3 6 P P P A A A W.|.|.A A P P A A z U.Y.L.n.k ",
"O ,.}.XX].].`.`.`.].].].[.].[.oXl.c c ` b O.b b F G G C.a.a.a.u./.v./ 2 9 m 4 9 M 3 6 6 P P W.W.|.U.|.U.|.|.P |.A U.U.Y.K.L.n.k ",
"X ,.OX+X].@X@X+X@X`.].].].`.D.[.oXoXl.c b b b U G F G /.a.a.f.a.a.a.x./ 2 9 9 #X3 M 6 6 $XP W.W.P |.U.K.U.|.P P P |.U.Y.Y.K.n.R.",
"o # %XXXXX+X&X@X@X@X`.@X&.].D.`.oXoXoXc b c b b 8 n x.z.z.f.f.a.g.[ R R R 9 0 M M 6 M M.6 *XP |.|.|.|.&X|.$XP P W.W.) Y.K.=Xn.k ",
"o # %X%XXXXX@X+X@X@X@X@X&.&.D.&.oXoXoXl.oXc 7 7 8 m m z.C.a.f.a./ / / R R 9 #X9 #XM M -X-XP *X|.|.|.) |.|.|.oX_ *XW.|.U.;XL.n.k ",
"X #  X%X%XXXXXXX].].@X@X&.&.D.D.*X[.oXl.oX-X-X9 7 7 x.x.z.x.x.f.' / / / 9 #X#X#X#XM M -X-X-X*X$X+X|.+XW.*X*XP 6 _ P <.K.K.:Xn.k ",
"X ,.>X%X,X,X,XXXXXXX@X+X+X@X@X].].*X}.oX-X-X-XM 9 9 9 9 / / R / R [ R R <X#X#X#XM M M -X-X-X*X*X|.+X*XD.oXP -X_ -XP |.K.K.G.n.k ",
"X # 1X>X2X,X,X,X%X,XXX&XXX3X&X*X].}.[.}.-X-X-XM M #X0 0 R 0 R R [ / [ R R #X#XM M M 7 7 -X}.}.*X+X*X*X_ oX-X-X6 6 $X$X|.A N 7.k ",
"X l 1X2X2X4X2X,X,X,XXXXX+XXX+X].[.oX[.}.}.M .X5X0 #X#X0 <X<X<XR [ [ <X<X4X4X#X#XM M M l.-X}.}.}.*X*X*XoXoXoXM 7 -XM.P M.M.B.s.k ",
". l 1X2X2X4X4X4X,X,X,XXXXX+X+X+X].[.-X$X.X$XM M.N #XN <X<X4X<X<X<X<X<X<X<X4X#X#XM M M M -X-X*X*XoX}.*Xo.c 7 6 7 M 3 6 $Xq N 7.J ",
"% l 1X2X2X2X6X.X,X,XXX}.+X+X+X+X+XXX+X$X$XB.B.B.7XB.8X8X8X8X8X<X4X<X8X2X4X4X4X#X#X.X-X[.}.}.*XoX$X-XoXoX6 -X3 7 3 6 3 0 0 w S.k ",
"+ % 1X9X>X2X,X4X6X,X.XXX+X+X3X@X&X&X&XK.0X0X:XqXZ.wX7X7X7X7X6X7XN 8Xw 7X8X8X6X4X.X.X.X-X*X*X*X*X-X-XP *XP -X2 7 3 M 0 <Xe 8X7.k ",
"O l 1X1X1X>X>X>X,X,XXXXX+X&X3X3XeXeXeX;X;X;XqXqXqXqXZ.:XG.B.B.B.B.7X7X7X7X7X6X9X,X6X.X}.*X|.+X|.$X$X$X$X$X6 M 2 9 3 0 0 R e s.k ",
"+ l 1X1X1X>XrX>X%X%XOX&X@X&X3X3X3XtXyXyXL.T. XuXqXqXqXwX:XG.0XB.wXwXwXwXwXwXB.>XG.6XXX$XXXXXK.XX$XXX|.$XP 5X0 9 2 9 R R g.0 - k ",
"O l iX1X1X>X>X>X%X%X&X&XeX3XtX3XtXpXaXaXsXT.dXuXfXuXuXdXqX XA.L.G.qXqXqXqXwXA.qX:XOXG.&X0X&X&X|.XXXX|.*X$XM.#X9 0 0 R 0 e w S.k ",
"+ l iXiXrX>X>X%XOX%X;XeXtXpXpXpXtXQ.aXsXgXdXgXfXuXuXuXfXfXdXT.L.T.qXdXqXdXuXqXqXqX:X:XOXOXOXK.|.XXK.|.P $X0 0 R 0 R e <Xe } n.k ",
"O l iXiXrXrX>X%X%X;X;XyXpXhXhXjXhXsXsXgXkXdXfXfXfXuXfXfXdXdXdX'.T.dXdXfXkXfXkXfXqXdXT. X:X;X0XK.0XXX|.$XM.N R [ R [ [ e e w S.k ",
"+ E.iXlXlXrXrX XrX XaX=XhXjXjXjXzXzXxXxXgXkXfXcXuXcXfXkXdXkXdXgXkXkXvXbXkXbXnXkXdXdXdXdX XT. X;X0XB.0X0XN <Xe [ [ [ [ u [ t 7.k ",
". l mXlXiXMXMXrX XaXMXsXjXjXNXNXNX_.BXVXbXkXcXcXcXcXfXkXkXkX!.'.!.kXkXvXbXbXkXkXkXdXdXT.T. XT.:XwXOX0XN N w y [ y [ y u t } Z k ",
". l lXCXCXlXMXMXMXMXgXxXzXzXNXNXzXZXZXBXAXxXAXSXbXkXkX!.kX!.!.!._.!.vXBXbXbXnXnXbXcXfXdXqXdXqXT.wXwXB.B.w w u y u u u y y y Z k ",
"O m.mXmX- lXMXMXCXAXAXDXFXFXZXNXZXZXFXFXFXFXGXGXVXBXvXvX_._._.!.vXvXbXBXSXSXSXSXcXnXkXfXdXdXdXqXZ.Z.7X7Xw } u y w.w.y u y u Q J ",
". l s.lXCXlXCXCXCXHXDXDXVXFXZXFXZXZXZXFXFXFXGXGXGXFXBX_._._._._._.vXBXbXSXSXSXnXkXcXkXfXfXdXuXqXiXJXH.H.H.u y y y w.w.w.y u Z k ",
"  l S.mXmX- - HXHXDXDX~.KXGXGXFXFXFXGXFXGXFXFXGXGXGXFXFXZXvX_._.BXBXBXBXSXSXSXSXcXcXcXcXcXfXfXuXJXJXZ.H.LXPXu y y y y y w.y Q J ",
"% % s.S.- n.HXHXHX- I.KXKXKXGXGXGXDXVXVXVXAXBXGXGXGXFXBXBXvXvXvXvXvXbXSXBXSXSXnXcXcXcXcXcXkXfXfXIXJXIXJXJXLXPXu w.y u i w.w.Q J ",
". m.mXs.n.n.n.n.I.I.I.KXKXKXKXKXKXDXDXDXDXDXVXDXKXKXDXDXSXDXSXSXAXBXBXSXSXSXUXUXUXUXUXUXUXUXcXcXIXIXIXJXJXLXPXPXu u y y w.y Q J ",
"l s.k k k k k k R.k R.R.R.J.~.~.R.R.R.R.R.J.J.J.J.J.J.J.J.R.R.R.J.J.J.J.R.R.R.R.k R.R.R.k R.R.R.k k k k J k J Z J Z Z J Z Z J J "};
