/* XPM */
static char * image_name[] = {
"48 48 253 2",
"  	c #767676767676",
". 	c #000000000000",
"X 	c #FEFEFEFEFEFE",
"o 	c #767687877676",
"O 	c #767698987676",
"+ 	c #878798988787",
"@ 	c #7676DCDCFEFE",
"# 	c #101010102121",
"$ 	c #8787A9A98787",
"% 	c #9898A9A99898",
"& 	c #989898989898",
"* 	c #878798989898",
"= 	c #878787878787",
"- 	c #545454545454",
"; 	c #323243433232",
": 	c #212121212121",
"> 	c #101010101010",
", 	c #101021211010",
"< 	c #000032320000",
"1 	c #101021210000",
"2 	c #101032321010",
"3 	c #000043430000",
"4 	c #101043431010",
"5 	c #000054540000",
"6 	c #7676A9A97676",
"7 	c #767698988787",
"8 	c #7676A9A98787",
"9 	c #000021212121",
"0 	c #9898BABA9898",
"q 	c #9898A9A9A9A9",
"w 	c #8787A9A99898",
"e 	c #000032321010",
"r 	c #000043431010",
"t 	c #000054541010",
"y 	c #101054541010",
"u 	c #A9A9A9A9A9A9",
"i 	c #A9A9BABA9898",
"p 	c #A9A9BABAA9A9",
"a 	c #A9A9A9A99898",
"s 	c #989898988787",
"d 	c #878798987676",
"f 	c #323221212121",
"g 	c #101043430000",
"h 	c #101054540000",
"j 	c #6565DCDCEDED",
"k 	c #7676CBCBFEFE",
"l 	c #6565CBCBEDED",
"z 	c #6565BABAEDED",
"x 	c #6565BABADCDC",
"c 	c #6565A9A9CBCB",
"v 	c #5454A9A9BABA",
"b 	c #323265658787",
"n 	c #212143435454",
"m 	c #212132323232",
"M 	c #04041B1B0A0A",
"N 	c #000065651010",
"B 	c #101021212121",
"V 	c #000010101010",
"C 	c #000010100000",
"Z 	c #101000001010",
"A 	c #CBCBCBCBBABA",
"S 	c #43437E7E4B4B",
"D 	c #BABADCDCBABA",
"F 	c #CBCBCBCBCBCB",
"G 	c #101065650000",
"H 	c #8787BABA9898",
"J 	c #A9A9CBCBA9A9",
"K 	c #A9A9BABABABA",
"L 	c #BABABABABABA",
"P 	c #A9A9CBCBBABA",
"I 	c #BABACBCBBABA",
"U 	c #545465656565",
"Y 	c #212121213232",
"T 	c #434387874343",
"R 	c #CBCBBABABABA",
"E 	c #BABACBCBA9A9",
"W 	c #A9A998989898",
"Q 	c #656565656565",
"! 	c #8787A9A97676",
"~ 	c #8787BABA7676",
"^ 	c #101065651010",
"/ 	c #9898BABAA9A9",
"( 	c #BABACBCBCBCB",
") 	c #323243434343",
"_ 	c #323221213232",
"` 	c #7676BABA8787",
"' 	c #BABABABAA9A9",
"] 	c #101021213232",
"[ 	c #CBCBDCDCBABA",
"{ 	c #BABADCDCCBCB",
"} 	c #CBCBDCDCCBCB",
"| 	c #323232323232",
" .	c #8787BABA8787",
"..	c #000076761010",
"X.	c #101076761010",
"o.	c #040400000A0A",
"O.	c #A9A93232DCDC",
"+.	c #A9A92121CBCB",
"@.	c #BABA2121DCDC",
"#.	c #98983232DCDC",
"$.	c #98983232CBCB",
"%.	c #DCDCCBCBCBCB",
"&.	c #98982121BABA",
"*.	c #98982121CBCB",
"=.	c #98981010A9A9",
"-.	c #767621219898",
";.	c #545410106565",
":.	c #323210104343",
">.	c #323200003232",
",.	c #59597B7B5959",
"<.	c #101076760000",
"1.	c #CBCBDCDCDCDC",
"2.	c #DCDCDCDCDCDC",
"3.	c #CBCBEDEDDCDC",
"4.	c #A9A93232CBCB",
"5.	c #DCDCDCDCCBCB",
"6.	c #87873232BABA",
"7.	c #87873232A9A9",
"8.	c #7E7E1818A9A9",
"9.	c #323210103232",
"0.	c #212100003232",
"q.	c #DCDCEDEDDCDC",
"w.	c #DCDCDCDCEDED",
"e.	c #BABABABACBCB",
"r.	c #767643434343",
"t.	c #767643433232",
"y.	c #87872121A9A9",
"u.	c #434310106565",
"i.	c #434343433232",
"p.	c #212100002121",
"a.	c #EDEDEDEDEDED",
"s.	c #656543434343",
"d.	c #00004343A9A9",
"f.	c #00005454A9A9",
"g.	c #707054544848",
"h.	c #434343434343",
"j.	c #101076762121",
"k.	c #EDEDEDEDDCDC",
"l.	c #00007676FEFE",
"z.	c #00006565FEFE",
"x.	c #656510108787",
"c.	c #656521218787",
"v.	c #434310105454",
"b.	c #212110103232",
"n.	c #DCDCEDEDEDED",
"m.	c #EDEDFEFEEDED",
"M.	c #656554544343",
"N.	c #3232A9A9FEFE",
"B.	c #2121A9A9FEFE",
"V.	c #212110102121",
"C.	c #656576766565",
"Z.	c #EDEDDCDCDCDC",
"A.	c #4343BABAFEFE",
"S.	c #5454BABAFEFE",
"D.	c #878721219898",
"F.	c #767621218787",
"G.	c #656521217676",
"H.	c #212132322121",
"J.	c #FEFEEDEDFEFE",
"K.	c #9898EDEDFEFE",
"L.	c #8787FEFEFEFE",
"P.	c #767687878787",
"I.	c #FEFEFEFEEDED",
"U.	c #CBCBEDEDFEFE",
"Y.	c #878776768787",
"T.	c #545465655454",
"R.	c #656554546565",
"E.	c #EDEDFEFEFEFE",
"W.	c #0000A9A96565",
"Q.	c #0000A9A95454",
"!.	c #000098986565",
"~.	c #EDEDEDEDFEFE",
"^.	c #878787879898",
"/.	c #CBCBC5C5D6D6",
"(.	c #212110101010",
").	c #98984343CBCB",
"_.	c #98983232BABA",
"`.	c #98984343BABA",
"'.	c #A9A92121DCDC",
"].	c #BABA54547676",
"[.	c #DCDCA9A99898",
"{.	c #EDEDA9A9A9A9",
"}.	c #FEFEDCDCBABA",
"|.	c #FEFEDCDCA9A9",
" X	c #DCDCA3A3A9A9",
".X	c #EDEDCBCBA9A9",
"XX	c #EDEDCBCB9898",
"oX	c #DCDCCBCB9898",
"OX	c #EDEDBABA9898",
"+X	c #FEFEEDEDEDED",
"@X	c #EDEDCBCBBABA",
"#X	c #E7E798988181",
"$X	c #EDEDA9A99898",
"%X	c #EDEDBABAA9A9",
"&X	c #FEFEDCDC9898",
"*X	c #545432324343",
"=X	c #FEFEBABABABA",
"-X	c #FEFECBCBBABA",
";X	c #FEFECBCBCBCB",
":X	c #FEFEBABAA9A9",
">X	c #FEFEA9A97676",
",X	c #FEFEA9A94343",
"<X	c #FEFE98985454",
"1X	c #FEFE98984343",
"2X	c #DCDCCBCBDCDC",
"3X	c #DCDCA9A9DCDC",
"4X	c #EDEDCBCBCBCB",
"5X	c #EDEDA9A98787",
"6X	c #F2F276763232",
"7X	c #FEFE65650000",
"8X	c #989887878F8F",
"9X	c #989876769898",
"0X	c #7E7E76766D6D",
"qX	c #767654547676",
"wX	c #A0A05C5C4B4B",
"eX	c #DCDC87876565",
"rX	c #DCDC76767676",
"tX	c #D3D376766565",
"yX	c #DCDC76765454",
"uX	c #FEFE54540000",
"iX	c #545443435454",
"pX	c #767632321B1B",
"aX	c #A9A954544343",
"sX	c #BABA65654343",
"dX	c #DCDC54542121",
"fX	c #545498989898",
"gX	c #4B4B32322121",
"hX	c #545410101010",
"jX	c #656521210000",
"kX	c #767621211010",
"lX	c #A9A943431010",
"zX	c #DCDC54540000",
"xX	c #A9A99898A9A9",
"cX	c #434332324343",
"vX	c #323221211010",
"bX	c #323210101010",
"nX	c #434321210000",
"mX	c #656532320000",
"MX	c #878787877676",
"NX	c #212100001010",
"BX	c #767621210000",
"VX	c #212121211010",
"CX	c #212121210000",
"ZX	c #6565CBCBDCDC",
"AX	c #545454544343",
"SX	c #323200004343",
"DX	c #767665657676",
"FX	c #878710109898",
"GX	c #434310104343",
"HX	c #656565657676",
"JX	c #545476766565",
"KX	c #BABAA9A9BABA",
"LX	c #A9A9A9A9BABA",
"                                                                                                ",
"  . . . . . . . . . . . . . . . . . . . . . . . . . . . . . . . . . . . . . . . . . . . . . . X ",
"  . o O + O + @ # $ % % % % & $ * + = o - ; : > , < 1 < 2 < 2 < 2 3 2 3 4 3 4 3 4 3 4 5 4 5 4 X ",
"  . 6 7 8 + $ @ 9 % 0 q 0 q 0 q w & $ + O - ; : > e 3 e 3 e 3 4 3 r 3 4 3 4 t 4 5 4 t y 5 y t X ",
"  . + 6 + $ % @ # % u 0 u i p i a % % $ s d - ; f > 2 3 2 3 2 3 4 3 4 3 4 g 4 5 4 h 4 h y h y X ",
"  . @ @ @ @ @ @ @ @ @ @ @ @ @ @ j k l z x c v b n m M e r 4 3 4 t 4 5 4 t 4 t y t y t y N y N X ",
"  . # B B 9 # @ B B # B B B # B B B # B # M # V > C Z . 4 3 4 3 4 3 A X + S A X $ 5 S D F G y X ",
"  . $ % H q 0 @ 9 p J K J L P I P L P L p u % & + U ; Y , 4 t 4 5 4 t X 8 y T X t y N $ N y N X ",
"  . % 0 a 0 u @ # p L J L I I I R I L E L p u % W s Q ; f > 4 5 4 h 4 ! A h y X $ G y ~ y ^ ^ X ",
"  . H q / p p @ B L P L I I I ( D F I ( I I J K / u w Q ) _ , y t y t y X S T ( X ^ ` ^ ^ ^ N X ",
"  . a i p p ' @ ] E L I A I F A F [ F A F I R L L i W & Q ; f > y 5 y y F ! $ ^ X T $ ^ ^ ^ ^ X ",
"  . 0 p p K J @ 9 I I ( D F { F { F } F } F { F I L p u % Q ) | , y N y ` X  .^ ` {  .^ ..^ X.X ",
"  o.p p ' E L @ # I F I F } O.+.@.#.@.$.%.+.#.+.$.&.*.p =.-.;.:.>.Z y G y X ,.G ^ X ^ <.^ X.^ X ",
"  . p K J L I @ B F { F } } } 1.} 2.} 2.3.2.} 1.} F I L p u % Q ) _ , ^ ^ $ N ^ X.} X.^ X.X.C X ",
"  . ' p L I A @ ] [ F } F } 4.*.+.$.+.$.+.5.4.*.$.&.&.6.&.7.8.-.;.9.0.Z ^ ^ ^ ^ ^ X.^ X.^ C Z X ",
"  . J L P ( D @ 9 F } 1.} 2.q.2.q.2.q.2.q.w.q.2.3.2.} } { e.P u % Q ) | , ^ X.^ ..X.X.X.C > , X ",
"  . L E R I F @ B } 5.} 2.2.+.$.O.q.r.t.r.r.r.t.r.r.r.t.r.F &.y.-.-.u.i.p.Z ^ X.^ X.X.C > , : X ",
"  . P I I F { @ B 2.} 2.q.2.q.w.q.a.s.d.f.f.f.d.f.f.f.d.g.2.{ ( K u % Q h._ , X.X.j.C > , : ; X ",
"  . L I F [ F @ ] 5.2.2.2.q.+.$.4.k.r.l.l.l.z.l.l.l.z.l.r.5.y.y.F -.x.c.v.b.p.> X.> > , : ; - X ",
"  . I ( D F } @ 9 2.q.n.q.a.m.a.a.a.M.N.B.N.B.N.B.N.B.N.M.w.q.2.} ( P u % Q ) | V V., : ; - C.X ",
"  . A I F } 5.@ B q.Z.q.a.a.y.7.y.m.r.A.S.A.S.A.S.A.S.A.r.k.y.8.D.F.F G.x.G.v.i.f H.f ; - C.  X ",
"  . I F } 1.} @ B a.q.a.m.a.m.J.m.X s.K.L.K.L.K.L.K.L.K.g.a.n.w.q.2.} ( K u % Q ) h.; -   P.+ X ",
"  . F F F } 2.@ ] q.a.a.a.m.+.D.y.I.r.U.U.U.U.U.U.U.U.U.r.a.D.-.-.-.-.F.c.G.x.% Y.T.R.  = + & X ",
"  . { } } 2.q.@ 9 a.m.a.m.X E.X E.X M.W.Q.!.W.W.Q.!.W.W.M.~.m.a.q.w.q.2.{ e.p u % ^.o = w & % X ",
"  . F } %.5.2.@ ] a.a.m.J.X O.O.@.X r.t.r.r.r.t.r.r.r.t.r.m.O.#.@.k.O.+.$.*.*.p u a & % W % u X ",
"  . { /.} 2.q.@ B a.m.J.X X X X X X X X X X X X X X X X E.J.m.~.a.a.q.w.1./.( e.P L p u p p p X ",
"  (.F } 2.5.Z.@ ] m.J.X X X 4.$.+.).+.$.+.).+.X +.).+.$.4.$.4.$.a.$.4.*.$.&.&.I R ' L p L p L X ",
"  p.} } } 2.q.@ B ~.E.X X X X X X X X X X X X X X X X X E.X m.a.m.a.n.n.q.2.} } D ( I I P L P X ",
"  (.F } 2.2.Z.@ ] m.X X X X $.$.+._.X `.+._.+.`.+.X O.O.O.O.@.O.O.'.O.O.@.#.+.} F A F I A I L X ",
"  p.} 2.3.2.q.@ ] J.E.X X X X X X X X X X X m.~.m.a.a.~.a.a.n.a.q.2.2.2.} 1.} F { F I e.I L J X ",
"  . %.} 2.q.a.@ ] m.J.X X X 6.`.].[.{.}.{.[.{.|. X[.{.[..X[.{.[.{..X{.[. X[. XXX.XoX.XoX.XoXOXX ",
"  . } 2.3.w.q.@ B X X +X@X{.#X$X%X|.&X|.&X|.&X|.&X|.&X|.&X|.&X|.&X|.&X|.&X|.&X|.&X|.&X|.&X|.&XX ",
"  . F } 2.q.a.@ *X@X{.OX=X-X;X-X=X:X>X,X<X1X<X,X<X1X<X,X<X1X<X,X<X1X<X,X<X1X<X,X<X1X<X,X<X1X<XX ",
"  . } 1.} 2X2X3X4X;X@X=XOX$X5X#X#X6X7X7X7X7X7X7X7X7X7X7X7X7X7X7X7X7X7X7X7X7X7X7X7X7X7X7X7X7X7XX ",
"  . /.8X9X0XqXg.wXeXrXeXrXtXtXyXyX6XuX7X7X7XuX7X7X7XuX7X7X7XuX7X7X7XuX7X7X7XuX7X7X7XuX7X7X7XuXX ",
"  . { L 7 iXB > pXaXaXaXaXaXsXdX7X7X7X7X7X7X7X7X7X7X7X7X7X7X7X7X7X7X7X7X7X7X7X7X7X7X7X7X7X7X7XX ",
"  o.F } 5.2.2.fX(.gXhXjXkXpXpXlXzXzXzXzXzXzXzXzXzXzXzXzXzXzXzXzXzXzXzXzXzXzXzXzXzXzXzXzXzXzXzXX ",
"  . D F } 2.1.l 9 xXC.cXvXbXnXhXmXjXmXjXmXjXmXjXmXjXmXjXmXjXmXjXmXjXmXjXmXjXmXjXmXjXmXjXmXjXmXX ",
"  . F F F } %.x # MXR.h.| : NXo.NXnXBXjXjXmXBXjXjXmXBXjXjXmXBXjXjXmXBXjXjXmXBXjXjXmXBXjXjXmXBXX ",
"  . D F } 1.} x 9 = C.- ; | H.: , V.VXvXVX(.VX(.VX(.VX(.VX(.VX(.CX(.VX(.CX(.VX(.CX(.VX(.CX(.CXX ",
"  . A I F } F ZX# % = 0XR.AXSXb.0.V.p.> p.> p.Z Z Z Z , Z Z Z > Z Z (.> Z Z Z , (.> > > (.> > X ",
"  . I ( { F } k B L p u % = o DXU - h.h.; | m _ H._ H.Y H.Y : Y H.: : : : : : : : : B : : : B X ",
"  . L I F [ F @ ] } %.F F I FXF.c.;.;.;.R.GXGX:.h.9.SX9.>.h.>.b.>.i.>.b.>.b.>.; cX; | | | | | X ",
"  . P I I ( { @ 9 2.q.2.3.2.} F I L p u * = o   C.  C.  C.HXC.HXC.HXC.Q JXQ U Q T.U T.U T.- T.X ",
"  . ' J L I F @ B } 2.5.2.q.Z.q.2.5.2XF R L KXu u a u % W % W % W & & s & + & + 8X+ = d = o MXX ",
"  . p L P I I @ B F } 1.3.2.q.w.q.2.q.2.} F I e.I L I L I L K L p K p LXp u / u % q % & w & + X ",
"  . u p L E R @ ] [ F } 2.} 2.5.2.5.2.2.2.q.Z.2.2.q.2.2.2.} 2.} F } F A F I A I L E L p ' p u X ",
"X X X X X X X X X X X X X X X X X X X X X X X X X X X X X X X X X X X X X X X X X X X X X X X X "};
