/* XPM */
static char * image_name[] = {
"48 48 249 2",
"  	c None",
". 	c #8C8C8D8D8D8D",
"X 	c #5F5F5F5F5F5F",
"o 	c #262626262626",
"O 	c #8B8B8C8C8B8B",
"+ 	c #A2A2A2A2A3A3",
"@ 	c #676766666767",
"# 	c #3E3E3E3E3E3E",
"$ 	c #393939393A3A",
"% 	c #393937373838",
"& 	c #565656565656",
"* 	c #848486868585",
"= 	c #717171717272",
"- 	c #4B4B4B4B4D4D",
"; 	c #141414141414",
": 	c #141414141313",
"> 	c #131314141414",
", 	c #70706F6F7070",
"< 	c #161616161717",
"1 	c #141413131212",
"2 	c #1E1E1E1E1E1E",
"3 	c #49494B4B4A4A",
"4 	c #949495959595",
"5 	c #79797A7A7979",
"6 	c #242424242525",
"7 	c #1A1A1B1B1A1A",
"8 	c #1E1E1F1F1F1F",
"9 	c #181817171616",
"0 	c #5C5C5E5E5D5D",
"q 	c #BFBFBFBFBEBE",
"w 	c #818181818181",
"e 	c #232323232323",
"r 	c #161616161616",
"t 	c #1C1C1B1B1C1C",
"y 	c #151515151616",
"u 	c #5C5C5B5B5C5C",
"i 	c #CACACACACACA",
"p 	c #F5F5F5F5F5F5",
"a 	c #FBFBFCFCFCFC",
"s 	c #858584848484",
"d 	c #8A8A8A8A8A8A",
"f 	c #FFFFFFFFFFFF",
"g 	c #D3D3D2D2D4D4",
"h 	c #6D6D6B6B6B6B",
"j 	c #151514141515",
"k 	c #151515151515",
"l 	c #1D1D1D1D1D1D",
"z 	c #E9E9E9E9E9E9",
"x 	c #F7F7F8F8F8F8",
"c 	c #CDCDCDCDCECE",
"v 	c #323232323333",
"b 	c #E2E2E2E2E2E2",
"n 	c #ECECECECEDED",
"m 	c #F9F9FAFAFAFA",
"M 	c #F2F2F2F2F2F2",
"N 	c #999998989898",
"B 	c #50504F4F4F4F",
"V 	c #1B1B1A1A1B1B",
"C 	c #DEDEDFDFDFDF",
"Z 	c #E5E5E6E6E6E6",
"A 	c #727271717171",
"S 	c #414140404040",
"D 	c #E1E1E1E1E1E1",
"F 	c #D0D0D1D1CFCF",
"G 	c #CFCFCDCDCDCD",
"H 	c #D8D8D8D8D8D8",
"J 	c #71716F6F7070",
"K 	c #131314141212",
"L 	c #777777777777",
"P 	c #D2D2D3D3D4D4",
"I 	c #BFBFBFBFC0C0",
"U 	c #888887878787",
"Y 	c #141415151515",
"T 	c #7A7A7B7B7B7B",
"R 	c #D1D1D1D1D1D1",
"E 	c #CACACBCBCBCB",
"W 	c #C8C8C7C7C7C7",
"Q 	c #C6C6C5C5C5C5",
"! 	c #656565656565",
"~ 	c #757576767474",
"^ 	c #313130303131",
"/ 	c #DEDEDDDDDDDD",
"( 	c #DADADBDBDADA",
") 	c #858585858484",
"_ 	c #838383838383",
"` 	c #BFBFC0C0C0C0",
"' 	c #C2C2C2C2C2C2",
"] 	c #C0C0C1C1C1C1",
"[ 	c #C0C0BFBFBEBE",
"{ 	c #343434343333",
"} 	c #2C2C2C2C2C2C",
"| 	c #444443434444",
" .	c #101011111111",
"..	c #444444444343",
"X.	c #9E9E9F9F9F9F",
"o.	c #797979797979",
"O.	c #2F2F31313030",
"+.	c #8E8E8E8E8D8D",
"@.	c #D5D5D5D5D5D5",
"#.	c #CFCFCFCFCFCF",
"$.	c #CDCDCCCCCDCD",
"%.	c #C5C5C5C5C5C5",
"&.	c #C1C1C2C2C2C2",
"*.	c #BFBFBDBDBEBE",
"=.	c #AAAAA9A9A9A9",
"-.	c #191919191919",
";.	c #8D8D8D8D8D8D",
":.	c #363636363636",
">.	c #111110101111",
",.	c #121213131212",
"<.	c #A5A5A5A5A5A5",
"1.	c #BDBDBCBCBCBC",
"2.	c #BBBBBABABABA",
"3.	c #9B9B9B9B9B9B",
"4.	c #18181A1A1818",
"5.	c #B5B5B5B5B5B5",
"6.	c #6B6B6C6C6B6B",
"7.	c #C9C9C9C9C9C9",
"8.	c #B9B9BABAB9B9",
"9.	c #B6B6B6B6B6B6",
"0.	c #B4B4B4B4B4B4",
"q.	c #7B7B7A7A7A7A",
"w.	c #B8B8B9B9B8B8",
"e.	c #B1B1B2B2B3B3",
"r.	c #AFAFB0B0B0B0",
"t.	c #ADADADADADAD",
"y.	c #939392929292",
"u.	c #424243434242",
"i.	c #949493939393",
"p.	c #6D6D6C6C6D6D",
"a.	c #C6C6C6C6C5C5",
"s.	c #BDBDBDBDBDBD",
"d.	c #B5B5B4B4B5B5",
"f.	c #AEAEAEAEADAD",
"g.	c #ACACACACACAC",
"h.	c #ABABAAAAAAAA",
"j.	c #A7A7A7A7A7A7",
"k.	c #A6A6A6A6A6A6",
"l.	c #9D9D9C9C9D9D",
"z.	c #464646464646",
"x.	c #60605F5F5F5F",
"c.	c #BBBBBBBBBBBB",
"v.	c #B7B7B7B7B6B6",
"b.	c #AFAFAFAFAFAF",
"n.	c #ACACACACABAB",
"m.	c #A0A0A0A0A2A2",
"M.	c #9F9F9F9F9E9E",
"N.	c #9D9D9D9D9D9D",
"B.	c #979798989898",
"V.	c #595959595959",
"C.	c #A8A8A9A9A7A7",
"Z.	c #9F9FA0A0A2A2",
"A.	c #9A9A9A9A9999",
"S.	c #969697979696",
"D.	c #929290909292",
"F.	c #2B2B2C2C2C2C",
"G.	c #C5C5C3C3C4C4",
"H.	c #AFAFB1B1B1B1",
"J.	c #A1A1A0A0A2A2",
"K.	c #979797979797",
"L.	c #525254545252",
"P.	c #A4A4A4A4A4A4",
"I.	c #A8A8A9A9A9A9",
"U.	c #9B9B9A9A9A9A",
"Y.	c #8F8F8F8F9191",
"T.	c #8E8E8F8F9191",
"R.	c #8A8A88888989",
"E.	c #888888888787",
"W.	c #858586868686",
"Q.	c #4E4E4B4B4D4D",
"!.	c #3F3F40403F3F",
"~.	c #7A7A7A7A7B7B",
"^.	c #6A6A6B6B6B6B",
"/.	c #535354545454",
"(.	c #515153535252",
").	c #828281818181",
"_.	c #959596969494",
"`.	c #575757575757",
"'.	c #707071717171",
"].	c #454545454545",
"[.	c #8C8C8A8A8A8A",
"{.	c #7E7E7E7E7E7E",
"}.	c #0F0F0F0F0F0F",
"|.	c #919191919191",
" X	c #8D8D8E8E8F8F",
".X	c #828282828282",
"XX	c #80807E7E7F7F",
"oX	c #878786868787",
"OX	c #414142424141",
"+X	c #7C7C7E7E7D7D",
"@X	c #787878787878",
"#X	c #111111111212",
"$X	c #808080808181",
"%X	c #747475757474",
"&X	c #292928282828",
"*X	c #2F2F2F2F2F2F",
"=X	c #0B0B0A0A0B0B",
"-X	c #777776767575",
";X	c #727272727373",
":X	c #6E6E6F6F6F6F",
">X	c #4E4E4E4E4E4E",
",X	c #3B3B3C3C3B3B",
"<X	c #40403F3F4040",
"1X	c #323233333333",
"2X	c #2E2E2E2E2E2E",
"3X	c #737374747373",
"4X	c #6B6B6D6D6D6D",
"5X	c #5C5C5C5C5F5F",
"6X	c #242424242424",
"7X	c #555555555555",
"8X	c #626263636161",
"9X	c #696968686868",
"0X	c #656566666666",
"qX	c #636364646363",
"wX	c #616160606060",
"eX	c #5F5F5D5D5F5F",
"rX	c #212121212222",
"tX	c #434342424242",
"yX	c #535353535252",
"uX	c #484848484949",
"iX	c #A8A8A8A8A7A7",
"pX	c #9D9D9F9F9D9D",
"aX	c #5E5E5E5E5F5F",
"sX	c #6A6A6A6A6969",
"dX	c #686867676767",
"fX	c #5E5E5C5C5F5F",
"gX	c #5A5A5B5B5959",
"hX	c #4A4A4B4B4C4C",
"jX	c #9A9A99999A9A",
"kX	c #5A5A5A5A5959",
"lX	c #545455555454",
"zX	c #515152525151",
"xX	c #4D4D4E4E4D4D",
"cX	c #474747474848",
"vX	c #626262626161",
"bX	c #5A5A5C5C5D5D",
"nX	c #595957575858",
"mX	c #353534343535",
"MX	c #626264646363",
"NX	c #575755555656",
"BX	c #494949494A4A",
"VX	c #B3B3B1B1B3B3",
"CX	c #484849494949",
"ZX	c #848482828282",
"AX	c #646464646464",
"SX	c #3D3D3D3D3D3D",
"DX	c #3F3F3F3F3F3F",
"FX	c #696967676767",
"GX	c #515151515050",
"                                                                                                ",
"                                    . X o O   + @ # $ % % & *                                   ",
"                                = - ; : > % , o < 1 > ; > > ; 2 3 4                             ",
"                            5 6 ; ; ; ; 7 8 > ; ; ; ; ; ; ; ; 9 8 0                             ",
"                      q w o > > ; ; e & 7 ; ; ; ; ; ; ; ; r 8 t y u                             ",
"                  i p a s < ; ; ; ; d f g h j ; ; ; ; k l 2 r ; ; ,                             ",
"              q z a x z c v ; ; ; ; b n z m M N B ; V 8 < ; ; ; 1 s                             ",
"            C f m n z Z b A ; ; ; S f D F G H n a J 7 ; ; ; ; ; K 7 L                           ",
"            P I z Z b D C U ; ; Y T f R G E W Q c ! ; ; ; ; ; ; ; > t L   ~ ^ 6 N               ",
"            + 0 Z b C / ( ( ) _ U ` Z E W Q ' ] [ { ; ; ; ; ; ; ; ; > } | 7 >  ...X.            ",
"            o.O.+.C / ( H @.P F #.$.E W %.&.] *.=.l ; ; ; ; ; ; ; k t 2 k ; ; ; -.,             ",
"        ;.:.>.,.<.b H @.P R #.G E W %.' ] q 1.2.3.l ; ; ; ; ; ; 4.2 < ; ; ; ; ; : o N           ",
"    5.I _ ^ ; 6.p H P R F c c 7.W %.&.[ *.2.8.9.0.s o j ; e q.& V ; ; ; ; ; ; ; ; ; $           ",
"    z m x D h m ( P F #.G E W Q &.] q 1.2.w.0.e.r.t.y.u.v Q m i.V ; ; ; ; ; ; ; ; ; r p.        ",
"    f C ( p f b R F c E 7.a.' ] q s.2.w.d.0.r.f.g.h.j.k.r.m r.l.z.< ; ; ; ; ; ; ; ; 4.x.        ",
"  q a @.H @.b F G $.i W %.&.` q c.8.v.0.e.b.t.n.=.k.+ m.M.N.3.B.+.} k ; ; ; ; ; j o V.          ",
"  #.n P P R #.G E 7.Q ' ] q 1.2.8.5.0.r.b.g.g.C.<.+ Z.X.3.A.S.i.D.5 t ; ; ; ; 4.F.)             ",
"  z D R F #.E 7.a.G.&.[ q 2.8.9.0.H.b.t.h.C.<.J.m.X.N.3.K.4 y.D.+.O L.-.; k 2 l 1 o.            ",
"  s.P.#.$.E W Q &.` *.c.2.v.0.e.r.t.n.I.j.+ J.X.N.U.N S.i.Y.T.. R.E.W.Q.2 8 r ; K !.            ",
"  ~.; V.0.Q G.&.` *.c.8.9.0.r.b.N.^./.(.w m.X.l.A.B.i.y.Y.T.O R.U W.).V.-.; ; ; k t X.          ",
"    q.^ ; &.I q c.8.v.0.e.b.t._.# :.} 6 v `.S.N _.i.Y.T.;.d E.W._ p.{ j ; ; ; ; ; K '.          ",
"        ].q 1.2.w.5.0.r.t.n.n.Q.{ V ; ; r { 6.i.D.T.. [.E.W.s w {.^ ; ; ; ; ; ; ; :  .}.1 5     ",
"        ].c.8.v.0.r.r.t.h.C.|.:.6 ; ; ; ; ; A N. XO R.E.W..XXX{.T } ; ; ; ; ; ; ; ; ; ; K 0     ",
"        D.i d.e.r.t.g.=.j.<.oX:.l ; ; ; ; ; OX9.O E.W._ w {.+X5 @X..> ; ; ; ; ; ; ; ; ; k 0     ",
"    5.Z p ] r.b.g.g.C.<.J.m.L :.l ; w.N #X1 ; A.9.) w $X+Xq.@X~ %X`.#X; ; ; ; ; ; ; ; 7 &X0     ",
"  5.p n 2.r.g.h.C.j.P.m.X.N._ :.l B d *X8 =X; OXM _ +XT o.-X~ ;X, :Xy ; ; ; ; ; ; < e :.>X0     ",
"  q m r.f.g.=.j.<.J.Z.N.l.N y.,X<X; r.1X2X}.; ; f +.q.@X-X3X'., 4X^.5X*X6X8 k j 9 o ,X- L.0     ",
"  5.f 1.h.C.k.+ m.X.l.U.B._.D.& 7X; 8XP.8 =X; ; %.0.-X~ A , 4X6.9X0XqXwXeXV.2XrXF.tXB yXuX0     ",
"    p c iXP.J.X.pX3.N S.i.D.T.T aXv ; &X}.=X; ; d j.;XJ :X6.sXdX! 8XwXfXu gXv % uXL.>XhX6 ;.    ",
"    ( / J.m.N.3.A.K.i.y.T.+.O E.jX@X; ; ; ; ; ; c.t., p.^.dX0X8XwXfX5XkX`.lX:.u.zXxXcX6X'.      ",
"    q M <.N.A.B.S.y.|.T.. d U W.y.P ^ ; ; ; ; zXp w 6.9X@ qXvXx.5XbXnX& /.zXmXuX3 | 6X'.        ",
"      f X.N S.i.y.T. XO E.U s w XXj.b fX; ; fX/ ( sXdX! MXwXfXu V.NX7XL.zX>X2XBX<Xe ;.          ",
"      v.^ ; ; ; 3 O R.E.) ).w +Xq.o.VXx f f f s.A 0XqXwXX 5XkXnX7X/.zX- BXCXF.% : <X            ",
"      m.s s s q.6 5 oXZXw {.+X5 @X~ 3X, y.|.T 0XAXvXx.fX5XnX& lXL.B cXSX<XDX6 : >  .uX          ",
"                dXxX).XX+XT o.-X%X= , p.6.9X! MXvXeX5XgXnX7XyXzXB uX# { o 6X-.> ; : }.          ",
"                  OX3X+Xo.L %XA , :X^.9X@ AX8XX 5XgXnX& /.zXB >X3 S v 7 ; ; ; y #X1 '.          ",
"                %.H %X@X~ %XJ , 4XsXFX! qXwXaXbXV.`.lXL.GX>XhXCX..:.V ; ; ; ; >.>.'.            ",
"                n c.-X%X'., 4X^.9X! qXwXeXfXkXnX7XyXzXB Q.CXz.| u.} -.; ; ; >. .'.              ",
"                p 3X;X, :X6.sXdX! vXx.fXgXnX7XlXyXB >XhXCXz.| OXDX:.o -.#X>.#X;X                ",
"                w.| fX4X^.dX0XqXwXeX5XgXnX7X/.GXB - 3 z.| u.<X# ,X% 1Xe 9 #X;X                  ",
"                  _ } !.AXqXV.# 7XkXV.7X/.zXB Q.3 cX]...S <XSX$ % mXv 2X8 K.                    ",
"                    . - 6XB 6 o | 8 !.L.GX>XhXuXz.| !.mX2XSX$ mX{ O.} rX+.                      ",
"                      P.-X} 2 q.  K.$ ..Q.3 cX].u.:.8 7 ; l $ v O.6 8 +.                        ",
"                                    x.# cXz.| OX<X<X; ; ; ; 9 } *X| J.                          ",
"                                    x.*X| u.<XSXSX<X; ; ; ; ; o )                               ",
"                                    sXo $ ,X,X$ ,X<X2 2 ; | )                                   ",
"                                      | % % % &Xl 2XdX                                          ",
"                                                                                                "};
