/* XPM */
static char * image_name[] = {
"47 47 21 1",
" 	c None",
".	c #343404040C0C",
"X	c #56561D1D1414",
"o	c #252525252020",
"O	c #6E6E06060606",
"+	c #000000000000",
"@	c #B4B450503A3A",
"#	c #E0E071717676",
"$	c #9D9D19191717",
"%	c #64645C5C6060",
"&	c #ABAB6D6D8E8E",
"*	c #1C1C18181C1C",
"=	c #2A2A4A4A2020",
"-	c #4B4B51513A3A",
";	c #BFBF95955353",
":	c #A9A9A4A4ABAB",
">	c #C5C5D7D7B0B0",
",	c #757575758E8E",
"<	c #757599999393",
"1	c #62629F9F5959",
"2	c #ECECEEEEEEEE",
"          ........X.X...oO.oX......+..++.      ",
"          .......O.O.OOXOOOO..O.X.......       ",
"         ..+...OOOOOOOOOOOOOOOOOO..X....+.     ",
"         ......@@#@#$@@%@@@$#@$@OO.O.+...      ",
"        .....O.@###@$OO$O.$@@@@@O.OO.X...+.    ",
"        ......$#&#@OO$$$$O.O###@OOOO.O.+..     ",
"      .o..+...O#@@.$$$$$$$...#@@$OO.O..Oo..    ",
"     o*XXXXXOOO#@$$$$$$$O$..+X@$OO.OO$XXXX*.   ",
"     o%=%.X@XXO#$O$$$$$$$$$...$$$.$$$X-XXXX    ",
"       X%@-O@XO#O$$$$$$$$O..+.$@OO$$-@X&X..    ",
"       XX%@&@@.#XOO$$$$$$OO...$@OOX&$@@X...    ",
"       ..-@&&@O#O.$$$$$$.$..++$$$$@@#@$...     ",
"        ..X;#@O@$.O$$$$$O...+.$@OO#@@XX....    ",
"       +..XX%&O#$O..OO.O..+...$@OO$&$X....     ",
"       +...X$@O&@#..........+#@@$.@$O...+..    ",
"       ......X.###@...+.++..@###OOOO.O....     ",
"         ....OX;#@##O...+.O@@##@OOOO.X....     ",
"        ..+..X.#####@#@@@#@@####OO.....+.      ",
"          ....X###@@@$$$$$@#@#@#$OOO......     ",
"          .....:###$$@@@@$OO###@O+...+..       ",
"            ...#:#$@;;;@@@$$O@##O.X.....**     ",
"    ooooo*X*.OO>O$X;;@@;@@$$.$@&...OoXXo=oo    ",
"     o-----XXX.#OX@;;;;@@$@$$.$#..OXX$oX--o    ",
"       o,--%%X.>X$;;@;;;@;XX..O:..X%%%-:o      ",
"       *=,%@,;.#oX;@;;;@@$@@$.o&X.@%@@--*      ",
"        *-;<%:+>XX@;@;;;-@XX..$&..&;<,-*       ",
"          %:;:+#=.X;;$@X;$-...*>..1:;-         ",
"           =&:+>&1XXX;X;XX.X.-@>++:,-*         ",
"           o-,+>;, X-$=XXoX.+&&>++;-*          ",
"              +22>-++X+-*+.+->2:++             ",
"              +>222>;*++++;>222>++             ",
"              +222>2>-1--,122222++             ",
"              +2>22>1=====;:>2>>++             ",
"              +2:>*==1111=**o::>++             ",
"              +>>:=1>>>111== >:>++             ",
"      ***     +2o==>>>1>11== =-:++      o      ",
"     ooo*oooo*+:o=1>>>>11=1==+*:*+**oooo-oo    ",
"     *%=-=-=o=+>o=1>1>1>11==++o:++==-=%---o    ",
"       o,=%%%%+>*=11>1>11=1==+o>++%=-%%,*      ",
"       *-,,,,,+>o=111111=1==++*2++,:,%-=*      ",
"        *=,,;:+>*+-11-1=1==+++*>++:1:<-*       ",
"          -:<:+2<< ==1=1==*=o=,2++<<:-         ",
"           -1:+>22+======+=++2>2++:&-          ",
"           o=<+>22;++=+=++++1222++,=o          ",
"              +:>>221+=+++<22>2>++             ",
"              ++++++++++++++++++++             ",
"                                               "};
