/* XPM */
static char * image_name[] = {
"48 48 251 2",
"  	c #545454545454",
". 	c #000000000000",
"X 	c #FEFEFEFEFEFE",
"o 	c #323210104343",
"O 	c #323232324343",
"+ 	c #656554548787",
"@ 	c #A9A9A9A9CBCB",
"# 	c #CBCBBABAFEFE",
"$ 	c #CBCBCBCBFEFE",
"% 	c #CBCBCBCBEDED",
"& 	c #BABACBCBEDED",
"* 	c #BABABABAFEFE",
"= 	c #A9A9A9A9EDED",
"- 	c #A9A99898FEFE",
"; 	c #87878787EDED",
": 	c #87877676EDED",
"> 	c #87878787DCDC",
", 	c #76767676DCDC",
"< 	c #87876565DCDC",
"1 	c #212121214343",
"2 	c #323221215454",
"3 	c #434354546565",
"4 	c #9C9C8282B1B1",
"5 	c #DCDCDCDCFEFE",
"6 	c #CBCBDCDCFEFE",
"7 	c #BABACBCBFEFE",
"8 	c #A9A9A9A9FEFE",
"9 	c #9898A9A9FEFE",
"0 	c #98989898FEFE",
"q 	c #87879898FEFE",
"w 	c #87878787FEFE",
"e 	c #76768787EDED",
"r 	c #323221214343",
"t 	c #434332325454",
"y 	c #767676768787",
"u 	c #BABAA9A9BABA",
"i 	c #EDEDEDEDEDED",
"p 	c #DCDCCBCBFEFE",
"a 	c #717165657676",
"s 	c #BABABABAEDED",
"d 	c #BABAA9A9FEFE",
"f 	c #98989898EDED",
"g 	c #87879898EDED",
"h 	c #DCDCCBCBD0D0",
"j 	c #989898988787",
"k 	c #CBCBBABABABA",
"l 	c #212132325454",
"z 	c #323232325454",
"x 	c #A9A9A9A9DCDC",
"c 	c #212132323232",
"v 	c #A9A9BABAFEFE",
"b 	c #98988787FEFE",
"n 	c #CBCBDCDCCBCB",
"m 	c #434321212121",
"M 	c #878787877676",
"N 	c #CBCBDCDCEDED",
"B 	c #BABACBCBDCDC",
"V 	c #9898A9A9EDED",
"C 	c #65655454BABA",
"Z 	c #323200000000",
"A 	c #323210101010",
"S 	c #FEFEEDEDEDED",
"D 	c #87876D6D6D6D",
"F 	c #323232326565",
"G 	c #76766565CBCB",
"H 	c #323243435C5C",
"J 	c #212121213232",
"K 	c #585865656D6D",
"L 	c #EDEDFEFEEDED",
"P 	c #212100000000",
"I 	c #CBCBBABAD3D3",
"U 	c #212110100000",
"Y 	c #989876768787",
"T 	c #323221213232",
"R 	c #101010102121",
"E 	c #CBCBCBCBDCDC",
"W 	c #65656565B1B1",
"Q 	c #212110103232",
"! 	c #A9A99898BABA",
"~ 	c #A9A9BABAC6C6",
"^ 	c #A9A99898CBCB",
"/ 	c #BABA9898AEAE",
"( 	c #4B4B21213636",
") 	c #656532324343",
"_ 	c #585854546969",
"` 	c #656554547676",
"' 	c #76766565A9A9",
"] 	c #878787879898",
"[ 	c #BABAA9A9CBCB",
"{ 	c #7E7E6D6DEDED",
"} 	c #BABABABADCDC",
"| 	c #878787878787",
" .	c #434332324343",
"..	c #BABAB4B4BFBF",
"X.	c #101021213232",
"o.	c #767665658787",
"O.	c #A9A9BABADCDC",
"+.	c #656565658B8B",
"@.	c #545454546565",
"#.	c #767676767676",
"$.	c #BABABABAA9A9",
"%.	c #4B4B43434343",
"&.	c #000000001010",
"*.	c #212121212121",
"=.	c #BABABABABABA",
"-.	c #87877676DCDC",
";.	c #323210100000",
":.	c #767643435454",
">.	c #4B4B32322929",
",.	c #545443437676",
"<.	c #CBCBDCDCDCDC",
"1.	c #E0E0E4E4E8E8",
"2.	c #656554545F5F",
"3.	c #54542C2C3232",
"4.	c #434310101010",
"5.	c #98989898CBCB",
"6.	c #545443438787",
"7.	c #434321211010",
"8.	c #212132324343",
"9.	c #98987070AEAE",
"0.	c #767654545C5C",
"q.	c #878776767676",
"w.	c #545443436565",
"e.	c #9C9C8B8BCFCF",
"r.	c #434343436565",
"t.	c #8F8F9898B1B1",
"y.	c #76766565DCDC",
"u.	c #434343435454",
"i.	c #87878787C2C2",
"p.	c #101021212121",
"a.	c #76766565EDED",
"s.	c #65656565CBCB",
"d.	c #545432328787",
"f.	c #212121215454",
"g.	c #434343437676",
"h.	c #717176769898",
"j.	c #434332327676",
"k.	c #212110104343",
"l.	c #101010103232",
"z.	c #000010100000",
"x.	c #101010101010",
"c.	c #101000001010",
"v.	c #76767676CBCB",
"b.	c #9898A9A9CBCB",
"n.	c #434332326565",
"m.	c #767665659898",
"M.	c #69695454BABA",
"N.	c #65654343BABA",
"B.	c #545443439898",
"V.	c #434321217676",
"C.	c #323210105454",
"Z.	c #212110102121",
"A.	c #A9A99898DCDC",
"S.	c #76765454CBCB",
"D.	c #65654343CBCB",
"F.	c #65654343A9A9",
"G.	c #434332328787",
"H.	c #000010101010",
"J.	c #101000002121",
"K.	c #545454549898",
"L.	c #76764343BABA",
"P.	c #545432329898",
"I.	c #54543D3D5454",
"U.	c #101010100000",
"Y.	c #76765454DCDC",
"T.	c #212100003232",
"R.	c #434321216565",
"E.	c #76768787DCDC",
"W.	c #FEFEA3A38C8C",
"Q.	c #FEFE98988787",
"!.	c #E4E47E7E8F8F",
"~.	c #BABA6A6A8181",
"^.	c #71713A3A5454",
"/.	c #434321213232",
"(.	c #98989898BABA",
").	c #C5C554547676",
"_.	c #FEFE98987676",
"`.	c #FEFE87877676",
"'.	c #FEFE76767676",
"].	c #FEFE76766565",
"[.	c #FEFE65656565",
"{.	c #FEFE65655454",
"}.	c #FEFE54545454",
"|.	c #FEFE54544343",
" X	c #FEFE43434343",
".X	c #FEFE43433232",
"XX	c #FEFE32324343",
"oX	c #CFCF29293E3E",
"OX	c #9C9C25254343",
"+X	c #434310105C5C",
"@X	c #101021211010",
"#X	c #434310102121",
"$X	c #6D6D25253232",
"%X	c #87873A3A3A3A",
"&X	c #B5B525252525",
"*X	c #CBCB43434343",
"=X	c #E1E159595959",
"-X	c #FEFE32323232",
";X	c #FEFE21212121",
":X	c #FEFE10102121",
">X	c #FEFE21211010",
",X	c #FEFE10101010",
"<X	c #FEFE10100000",
"1X	c #FEFE00001010",
"2X	c #FEFE00000000",
"3X	c #92928C8CBABA",
"4X	c #101000000000",
"5X	c #545410100000",
"6X	c #656500001010",
"7X	c #818110100A0A",
"8X	c #A9A900000404",
"9X	c #CBCB00000000",
"0X	c #D3D307070707",
"qX	c #323207073A3A",
"wX	c #323243433232",
"eX	c #54544343A9A9",
"rX	c #323232323232",
"tX	c #212100002121",
"yX	c #989854547070",
"uX	c #FEFE87878787",
"iX	c #989843435454",
"pX	c #65653232A9A9",
"aX	c #87875C5C7E7E",
"sX	c #D3D34B4B6D6D",
"dX	c #A9A943435F5F",
"fX	c #65651B1B6565",
"gX	c #434343434343",
"hX	c #C6C676767A7A",
"jX	c #FEFE32322121",
"kX	c #E4E429292121",
"lX	c #A0A010102929",
"zX	c #59590A0A1B1B",
"xX	c #545410102121",
"cX	c #FEFE87876565",
"vX	c #FEFE21213232",
"bX	c #EDED10100707",
"nX	c #323200001010",
"mX	c #CBCB32323232",
"MX	c #8B8B03030303",
"NX	c #BABA10101010",
"BX	c #EDED00000000",
"VX	c #65653232BABA",
"CX	c #4F4F00000000",
"ZX	c #BABA00000000",
"AX	c #323221216565",
"SX	c #545432327676",
"DX	c #656532329898",
"FX	c #DCDC43433232",
"GX	c #7E7E32324343",
"HX	c #FEFE76765454",
"JX	c #FEFE43435454",
"                                                                                                ",
"  . . . . . . . . . . . . . . . . . . . . . . . . . . . . . . . . . . . . . . . . . . . . . . X ",
"  . o O + @ # $ $ % # $ $ % # $ # & # * * = - ; : > : , < . X X X X X X X X X X X X X X X X X X ",
"  . 1 2 1 2 3 4 % 5 5 5 5 5 6 5 7 $ * 8 9 0 q w ; : e : , . X X X X X X X X X X X X X X X X X X ",
"  . r 1 2 r 2 O t y u i i 5 p % a s d = - f 0 g ; ; : , < . X X X X X X X X h j k i X X X X X X ",
"  . 1 2 1 2 l 2 z z z x 5 p $ # c % v 8 9 - 0 b q w ; : , . X X X X X X n m m 4 M m j X X X X X ",
"  . o 1 2 1 2 2 2 z 2 @ 5 N p $ r B d = - V 0 f b ; : : C . X X X X X k Z A S X X D Z h X X X X ",
"  . 1 2 1 2 l 2 l F z x 6 p 6 $ c % v 8 9 - 9 0 g G H J K . X X X X L m P I X X X I U Y X X X X ",
"  . T R 2 r 2 O 2 z z @ p $ $ % T E d = - V W z Q y ! ~ ^ . X X X X / Z ( X X X X j Z ) X X X X ",
"  . _ ` c Q 1 2 z F z x 6 $ $ # c # v ' H O ] [ ~ x g : { . X X X X D Z M X X X X D P Y X X X X ",
"  . o r t a T R 2 z 2 @ p % # } J |  .] ....x f b ; : : : . X X X X ) Z u X X X X A Z k X X X X ",
"  . 1 2 X.` K o.c Q l x O.+.O @.#.E B s V 0 0 0 g w ; : , . X X X X j Z $.X X X M Z %.X X X X X ",
"  &.r 1 Q @.2 z ` #. .*.a =.h E a } 8 = - f b g b ; : -.< . X X X X i ;.:.X X k Z >.i X X X X X ",
"  . 1 2 X.,.l 2 z F _ } <.% * * c s 8 - 9 0 q w ; ; e : , . X X X X X 1.2.3.%.4.M i X X X X X X ",
"  . o 1 Q 3 2 z 2 z 2 5.# s d * r } - f 0 f b ; : ; : 6.1 . X X X X X X u 7./ X X X X 1.X X X X ",
"  . 1 2 X.,.l 2 l F z f 7 * v d c s 9 0 g b q w W z 8.9.~ . X X X X 1.0.P 3.%.q.M Y m u X X X X ",
"  . o 1 Q w.2 O 2 z z 5.* s d = T } - f b > 6.J + @ [ 5.< . X X X X / D k   Z Z Z m u X X X X X ",
"  . 1 2 X.w.l 2 z z z e.v d 8 8 c x 0 W 8.r.t.} x ; , y., . X X X X X X X X i I n X X X X X X X ",
"  . o 1 Q u.2 r 2 z 2 i.d = - V J y 1 ] } } - : : , < y.y.. X X X X X X X X X X X X X X X X X X ",
"  . 1 2 X.r.l 2 l z z > 8 8 9 0 p.[ B = g : e : , a., y.s.. X X X X X X X X X X X X X X X X X X ",
"  . o 1 Q u.2 O 2 z z i.- f - f J x b ; : ; : , < y.< G d.. . . . . . . . . . . . . . . . . . X ",
"  . 1 f.X.r.1 2 l 2 l -.9 0 q b J x ; : ; : , { , G g.Q +.! h.j.F 2 1 k.l.Q R &.z.R x.c.z.&.. X ",
"  . o 1 Q u.2 r 2 O 2 v.0 f b ; J b.: : : , < G n.J m.@ e.M.N.B.V.2 C.Q Q x.c.. Z.x.c.. c.. c.X ",
"  . 1 1 X.n.1 2 8.2 l v.g b q w X.A.e : , G l 2 ] @ i.S.C D.C F.G.V.f.R H.T c c.H.J.H.c.x.&.z.X ",
"  . o 1 Q u.2 1 2 O 2 v.b ; ; ; Q 5.: K.r u.^ @ e.S.S.C L.N.N.F.P.Q J.O I.T Q . J.x.c.. c.U.*.X ",
"  . 1 k.l.t 1 2 l 2 l y.; w ; : J h.X.+ ~ x v.Y.s.S.C D.C N.F.V.l.+ y ,.f.k.l.c.R J.. &.p.Z.H.X ",
"  . o 1 Q  .o 1 2 1 2 G : ; : -.R ] [ ^ < G S.S.S.C L.N.N.F T.` 4 +.d.R.C.1 Q &.Z.. T x.Z.. c.X ",
"  . 1 k.R t 1 2 1 2 l G e : E.: X.^ / W.W.Q.!.!.~.~.Y ^./.+ t.' G.P.j.V.2 C.l.&.c  .*.&.p.c.H.X ",
"  . k.J Q  .o 1 r r 2 W : -.< , Q (.)._.`.`.'.].[.{.}.|. X.XXXoXoXOXOX) +Xx.Q @X( R J.. Z.c.c.X ",
"  . Q k.l.t 1 2 1 2 1 C , < , y.X.' . #X$X%X&X*X=X X XXX-X-X;X:X>X,X<X1X2XOXK c.J J.x.&.*.&.c X ",
"  . Q Q Q O o 1 2 1 2 C < G < G Q 3XF.n.2 R c.. 4X4XP 5X6X7X8X9X0X2X2X2X9X*.qX&.T x.J.. T wXZ.X ",
"  . X.k.R z 1 1 1 f.1 C G y.G G X.e.C B.X.,.(.9.eXG.F 2 1 R R 4X. 4X4X4X. Q Q c.J c.x.x.rXJ.H.X ",
"  . Q Q tXO o 1 yXQ.W.Q.uX!.!.!.iXY ) w.! 3XL.F.pXP.P.d.d.V.Q T aXI.o Q o Q T.. Z.T 2.x.Z.c.c.X ",
"  . l.Q R O 1 yXW.Q.Q.uX`.`.`.'.].[.].[.{.=XsXsXdXdXfXfX1 Q +.m.n.C.k.k.Q T.H.&.gXI.R c.R c.. X ",
"  . T.Q J.rXk.hXuX`.'.`.'.].[.{.[.{.}.|.}.|. X.XXX.X-XjX;XkXoX&XlX7XzXxXT.. ( *.qXc.J.. x.. . X ",
"  . R Q R r R A %X=XcX].].[.{.{.{.}.|. X X X.X-XjXvXjX;X>X:X>X,X<X1X<X2X2XbX&XnXR J.x.. . . . X ",
"  . tXR J.T Q x.4X4X4XU zX7.OX%XmXmX X.X-XjXvXjX;X>X:X,X,X<X2X2X2X2X2X2X2X2X2X8XtXc.. . . . . X ",
"  . R l.R T l.k.J Q R 2 f.Q R c.. 4X4Xc.4.zX7XMXNX0XbX1X<X2X2X2X2X2X2X2X2X2XBXnXH.. . . . . . X ",
"  . tXR J.*.T.Q Q Q k.P.VXF.pXP.J._ R.Q c.x.Z.. 4X4X4X4XCXCXMXMXZXZX2X2X2XZXCX. . . . . . . . X ",
"  . >.R H.J R Q l.k.J P.eXpXB.P.R m.l.2 ] m.AXR.2 k.Q R R &.H.4X. 4X4X4X. 4X. . . . . . . . . X ",
"  . uX`.`.hX).%XiX) ( SXDXP.P.d.c.K m.] SXR.+X2 C.o o R c.  2.Z.tXc.J.c.4X. . . . . . . . . . X ",
"  . `.uX`.'.cX'.].].].[.].=XsXdX%XyXaXR.AXAX2 C.1 k.H.r #. .R tXR J.&.&.. . . . . . . . . . . X ",
"  . '.].'.].[.].[.{.[.{.}.{.}.|.}.|. X|. XFXoX&XGX$XyX0.Q R tXJ.J.. . . . . . . . . . . . . . X ",
"  . cX'.].[.].[.{.[.{.}.{.}.|.}.|. X|. X.X X.X-X-X-XjX-XjXkX&XlX7X6X;.P . . . . . . . . . . . X ",
"  . [.HX[.{.{.{.}.|.}.|. X|. X.X X.XXX.X-X-X-XjX;XjX;X>X;X>X:X>X,X,X,X<X1XBX9X8XMXCXP . . . . X ",
"  . {.[.{.{.{.}.}.}.|.JX|. X.X X.X-X.X-X-X-XjXvXjX;X;X:X>X:X,X,X,X,X<X1X<X2X2X2X2X2X2XZXZ . . X ",
"  . *X{.}.|.JX|. X|. X.X X.X-X-X-XjXvXjX;X;X;X>X:X>X,X,X,X<X1X<X2X2X2X2X2X2X2X2X2X2X2X2XBX. . X ",
"X X X X X X X X X X X X X X X X X X X X X X X X X X X X X X X X X X X X X X X X X X X X X X X X "};
