/* XPM */
static char * image_name[] = {
"48 48 244 2",
"  	c #545454545454",
". 	c #000000000000",
"X 	c #FEFEFEFEFEFE",
"o 	c #2A2A06062B2B",
"O 	c #2D2D07072F2F",
"+ 	c #2F2F08083232",
"@ 	c #323208083535",
"# 	c #343409093939",
"$ 	c #363609093C3C",
"% 	c #39390A0A4040",
"& 	c #3B3B0A0A4343",
"* 	c #3E3E0B0B4646",
"= 	c #40400B0B4A4A",
"- 	c #43430C0C4D4D",
"; 	c #45450D0D5151",
": 	c #48480D0D5454",
"> 	c #4A4A0E0E5757",
", 	c #CECECECECECE",
"< 	c #BEBEBEBEBEBE",
"1 	c #D4D4D4D4D4D4",
"2 	c #9E9E9E9E9E9E",
"3 	c #3F3F3F3F3F3F",
"4 	c #20201D1D1717",
"5 	c #090910100707",
"6 	c #2D2D2D2D2D2D",
"7 	c #7F7F7F7F7F7F",
"8 	c #7E7E7E7E7E7E",
"9 	c #B1B1B1B1B1B1",
"0 	c #6F6F6F6F6F6F",
"q 	c #AAAAAAAAAAAA",
"w 	c #5F5F5F5F5F5F",
"e 	c #14142B2B0F0F",
"r 	c #010107070000",
"t 	c #010109090000",
"y 	c #020210100000",
"u 	c #343464642222",
"i 	c #000003030A0A",
"p 	c #ADADF6F67F7F",
"a 	c #AAAAF3F37C7C",
"s 	c #A7A7EFEF7A7A",
"d 	c #01010A0A0000",
"f 	c #A4A4EAEA7777",
"g 	c #02020C0C0000",
"h 	c #A0A0E6E67575",
"j 	c #4D4D0E0E5B5B",
"k 	c #9D9DE2E27272",
"l 	c #9A9ADFDF7070",
"z 	c #DEDEDEDEDEDE",
"x 	c #50500F0F6060",
"c 	c #02020E0E0000",
"v 	c #9999DDDD6F6F",
"b 	c #9797DBDB6E6E",
"n 	c #02020F0F0000",
"m 	c #9494D7D76B6B",
"M 	c #9191D4D46969",
"N 	c #55550F0F6565",
"B 	c #8D8DD0D06666",
"V 	c #5A5A10106A6A",
"C 	c #030312120000",
"Z 	c #8989CBCB6363",
"A 	c #60600E0E6E6E",
"S 	c #8787C7C76161",
"D 	c #8484C4C45F5F",
"F 	c #595959595959",
"G 	c #3E3E3E3E3E3E",
"H 	c #373732322929",
"J 	c #1A1A1A1A1A1A",
"K 	c #616111117373",
"L 	c #030313130000",
"P 	c #030314140000",
"I 	c #8282C2C25E5E",
"U 	c #8181C0C05D5D",
"Y 	c #949494949494",
"T 	c #686868686868",
"R 	c #676712127B7B",
"E 	c #030316160000",
"W 	c #7C7CBBBB5959",
"Q 	c #4A4A4A4A4A4A",
"! 	c #6C6C13138080",
"~ 	c #040418180000",
"^ 	c #040415150000",
"/ 	c #7979B7B75656",
"( 	c #54543B3B0707",
") 	c #12120C0C0000",
"_ 	c #14140D0D0000",
"` 	c #2C2C1E1E0000",
"' 	c #73734E4E0101",
"] 	c #737314148888",
"[ 	c #7575B3B35454",
"{ 	c #191910100000",
"} 	c #F9F9DFDF4D4D",
"| 	c #F6F6DBDB4B4B",
" .	c #F5F5D9D94A4A",
"..	c #6A6A6A6A6A6A",
"X.	c #7171AEAE5151",
"o.	c #1C1C12120000",
"O.	c #F2F2D5D54747",
"+.	c #F0F0D2D24646",
"@.	c #7B7B15159191",
"#.	c #040419190000",
"$.	c #6A6AA5A54B4B",
"%.	c #1D1D13130000",
"&.	c #EDEDCECE4343",
"*.	c #838315159999",
"=.	c #05051A1A0000",
"-.	c #202015150000",
";.	c #232317170000",
":.	c #EBEBCBCB4242",
">.	c #E8E8C7C73F3F",
",.	c #89891717A1A1",
"<.	c #6666A0A04848",
"1.	c #63639C9C4545",
"2.	c #262619190000",
"3.	c #E6E6C4C43E3E",
"4.	c #8E8E1717A7A7",
"5.	c #05051C1C0000",
"6.	c #05051E1E0000",
"7.	c #5B5B93934040",
"8.	c #29291C1C0000",
"9.	c #E3E3C0C03B3B",
"0.	c #95951818AFAF",
"q.	c #DFDFBBBB3838",
"w.	c #05051F1F0000",
"e.	c #56568D8D3C3C",
"r.	c #2E2E1E1E0000",
"t.	c #303021210000",
"y.	c #DDDDB7B73636",
"u.	c #DADAB3B33434",
"i.	c #9F9F1919B9B9",
"p.	c #515187873838",
"a.	c #333322220000",
"s.	c #D6D6AEAE3131",
"d.	c #54540D0D6161",
"f.	c #060622220000",
"g.	c #353524240000",
"h.	c #393927270000",
"j.	c #D4D4AAAA2F2F",
"k.	c #D1D1A7A72D2D",
"l.	c #353508083E3E",
"z.	c #373708083F3F",
"x.	c #6E6E12127F7F",
"c.	c #6F6F16167F7F",
"v.	c #707019197F7F",
"b.	c #717121217F7F",
"n.	c #A7A71A1AC2C2",
"m.	c #47477B7B3030",
"M.	c #CFCFA3A32B2B",
"N.	c #B8B81E1ED4D4",
"B.	c #BABA2626D4D4",
"V.	c #BBBB3030D4D4",
"C.	c #ABAB1B1BC7C7",
"Z.	c #B0B01C1CCDCD",
"A.	c #060625250000",
"S.	c #3F3F2A2A0000",
"D.	c #CCCCA0A02929",
"F.	c #DDDD2626FEFE",
"G.	c #DEDE2C2CFEFE",
"H.	c #DFDF3131FEFE",
"J.	c #E0E03737FEFE",
"K.	c #E1E13C3CFEFE",
"L.	c #E2E24242FEFE",
"P.	c #E3E34747FEFE",
"I.	c #B5B51C1CD2D2",
"U.	c #070725250101",
"Y.	c #3F3F72722B2B",
"T.	c #46462F2F0000",
"R.	c #C9C99B9B2626",
"E.	c #00001A1A2424",
"W.	c #000008080B0B",
"Q.	c #141464648181",
"!.	c #E4E44C4CFEFE",
"~.	c #BABA1D1DD8D8",
"^.	c #BFBF1D1DDDDD",
"/.	c #3B3B6C6C2727",
"(.	c #C5C596962424",
").	c #00000D0D0C0C",
"_.	c #000011111717",
"`.	c #B7B7DCDCF1F1",
"'.	c #ACACD4D4E9E9",
"].	c #A5A5CFCFE4E4",
"[.	c #E5E55252FEFE",
"{.	c #C4C41E1EE3E3",
"}.	c #070728280101",
"|.	c #363667672323",
" X	c #4C4C33330000",
".X	c #C3C393932121",
"XX	c #000014141B1B",
"oX	c #9A9AC7C7DCDC",
"OX	c #E6E65757FEFE",
"+X	c #C9C91F1FE8E8",
"@X	c #313160601F1F",
"#X	c #BEBE8C8C1E1E",
"$X	c #000014141C1C",
"%X	c #000017171F1F",
"&X	c #9090BFBFD6D6",
"*X	c #8888BABAD1D1",
"=X	c #E7E75D5DFEFE",
"-X	c #CDCD1F1FEEEE",
";X	c #08082A2A0101",
":X	c #2D2D5B5B1D1D",
">X	c #515136360101",
",X	c #BABA87871A1A",
"<X	c #00001E1E2828",
"1X	c #7878AEAEC6C6",
"2X	c #73732C2C7F7F",
"3X	c #E8E86262FEFE",
"4X	c #D2D22020F3F3",
"5X	c #272755551818",
"6X	c #545439390101",
"7X	c #B6B681811717",
"8X	c #000020202C2C",
"9X	c #6B6BA4A4BDBD",
"0X	c #747432327F7F",
"qX	c #E9E96868FEFE",
"wX	c #D7D72020F9F9",
"eX	c #08082C2C0101",
"rX	c #B3B37C7C1414",
"tX	c #000024243131",
"yX	c #55559494AEAE",
"uX	c #EBEB6D6DFEFE",
"iX	c #DCDC2121FEFE",
"pX	c #08082D2D0101",
"aX	c #22224F4F1414",
"sX	c #5E5E3F3F0101",
"dX	c #AFAF77771111",
"fX	c #00002D2D3D3D",
"gX	c #46468989A3A3",
"hX	c #ECEC7272FEFE",
"jX	c #09092E2E0101",
"kX	c #1D1D48481010",
"lX	c #ABAB72720E0E",
"zX	c #000036364949",
"xX	c #39397F7F9A9A",
"cX	c #767638387F7F",
"vX	c #EDED7878FEFE",
"bX	c #181843430D0D",
"nX	c #646444440101",
"mX	c #A7A76C6C0B0B",
"MX	c #292973738F8F",
"NX	c #EEEE7D7DFEFE",
"BX	c #A4A467670909",
"VX	c #1A1A69698585",
"CX	c #77773C3C7F7F",
"ZX	c #EFEF8383FEFE",
"                                                                                                ",
"  . . . . . . . . . . . . . . . . . . . . . . . . . . . . . . . . . . . . . . . . . . . . . . X ",
"  . o o O O O + + @ @ @ # # $ $ $ % % & & & * * = = = - - ; ; ; . X X X X X X X X X X X X X X X ",
"  . O O + + + @ @ # # # $ $ % % % & & * * * = = - - - ; ; : : : . X X X X X X X X X X X X X X X ",
"  . + + @ @ @ # # $ $ $ % % & & & * * = = = - - ; ; ; : : > > > . X X X , < < < < < X X X X X X ",
"  . @ @ # 1 1 1 1 1 1 1 1 1 1 1 1 1 1 1 1 1 1 1 1 1 1 1 1 1 1 1 . X X X 2 3 . 4 3 3 5 6 2 X X X ",
"  . # # $ 1 X X X X X X X X X 7 X X X X X X X X X 7 X X X X X X . X X X X < . 8 X X X 4 . , X X ",
"  . $ $ % 1 X X X X X X X X X 7 X X X X X X X X X 7 X X X X X X . X X X X < . 8 X X X 8 . 9 X X ",
"  . % % & 1 7 7 7 7 7 7 7 7 7 7 7 7 7 7 7 7 7 7 7 7 7 7 7 7 7 7 . X X X X < . 8 X X X 8 . , X X ",
"  . & & * 1 X X X X X X X X X 7 X X X X X X X X X 7 X X X X X X . X X X X < . 8 X X , 5 0 X X X ",
"  . * * = 1 X X X X X X X X X q X X X X X X X X X 7 X X X X X X . X X X X < . 8 w 3 3 2 X X X X ",
"  . = - - 1 X X X e r t t y u u u u u u u X X X X 7 X X X X X X . X X X X < . 8 X X X X X X X X ",
"  i - ; ; 1 7 7 q t t t t y p p p a a s u 7 7 7 7 7 7 7 7 7 7 7 . X X X X < . 8 X X X X X X X X ",
"  . ; : : 1 X X X t t d d y a a s s f f u X X X X 7 X X X X X X . X X X X < . 8 X X X X X X X X ",
"  . : > > 1 X X X d d d g y s f f f h h u X X X X 7 X X X X X X . X X X X < . w X X X X X X X X ",
"  . > j j 1 X X X g g g g y h h h k k l u 7 7 7 X 7 X X X X X X . X X X 2 3 . 5 0 z X X X X X X ",
"  . j x x 1 7 7 7 g g g c y k k l v v b u 3 3 3 7 7 7 7 7 7 7 7 . X X X , < < < < X X X X X X X ",
"  . x x x 1 X X X c c n n y v b b m m M u 7 7 7 X 7 X X X X X X . X X X X X X X X X X X X X X X ",
"  . x N N 1 X X X n n y y y m m M M B B u 7 7 7 X 7 X X X X X X . X X X X X X X X X X X X X X X ",
"  . N V V 1 X X X y y C C y M B B B Z Z u 7 7 7 X 7 X X X X X X . . . . . . . . . . . . . . . X ",
"  . V A A 1 7 7 7 C C C C y Z Z Z S S D u 3 3 3 7 7 7 7 7 7 7 7 7 F G H 6 6 6 6 4 J J J J J J X ",
"  . K K K 1 X X X C L L P y S S D I I U u 7 7 7 X 7 X X X X X X X 1 Y H T T T T H T T T T H T X ",
"  . R R R 1 X X X P P P E y I U U U W W u 7 7 7 X q X X X X X X X 1 9 F Y Y Y Y Q Y Y Y Y Q Y X ",
"  . ! ! ! 1 X X X ~ E ^ E y W W W / ( ) ) _ ` ' ' ' ' ' ' ' X X X X 1 F 9 9 9 9 F 9 9 9 9 F 9 X ",
"  . ] ] ] 1 7 7 7 ~ E ~ ~ y / / [ [ _ _ _ { ` } } } | |  .' 7 7 7 7 7 ........................X ",
"  . ] ] ] 1 X X X ~ ~ ~ ~ y [ X.X.X.{ { { o.` | |  .O.O.+.' X X X X X 7 X X X X 7 X X X X 7 X X ",
"  . @.@.@.1 X X X ~ ~ #.#.y X.X.X.$.o.%.%.%.` O.O.+.+.&.&.' X X X X X 7 X X X X 7 X X X X 7 X X ",
"  . *.*.*.1 X X X ~ =.=.=.y $.$.$.$.-.-.-.;.` +.&.&.:.:.>.' 7 7 7 X X 7 X X X X 7 X X X X 7 X X ",
"  . *.*.,.1 7 7 7 ~ =.=.=.y <.<.<.1.;.;.2.2.` :.:.>.>.3.3.' 3 3 3 7 7 7 7 7 7 7 7 7 7 7 7 7 7 X ",
"  . ,.,.4.1 X X X ~ 5.5.6.y 1.1.1.7.2.2.8.8.` >.3.3.9.9.9.' 7 7 7 X X 7 X X X X 7 X X X X 7 X X ",
"  . 4.4.0.1 X X X ~ 6.6.6.y 7.7.7.7.8.` ` ` ` 9.9.q.q.q.q.' 7 7 7 X X 7 X X X X 7 X X X X 7 X X ",
"  . 0.0.0.1 X X X ~ 6.6.w.y 7.7.e.e.` r.t.t.` q.q.q.y.u.u.' 7 7 7 X X 7 X X X X 7 X X X X 7 X X ",
"  . 0.0.i.. . . . ~ w.w.w.y e.e.p.p.t.a.a.a.` y.u.u.u.s.s.' . . . . . . . . . . . . . . . . . X ",
"  . i.i.i.,.d.d.d.~ f.f.f.y p.p.p.p.a.g.g.h.` s.s.s.s.j.k.' l.z.z.x.x.x.x.x.x.c.c.v.v.v.v.v.b.X ",
"  . i.i.n.n.4.4.4.~ f.f.f.y p.m.m.m.a.h.h.h.` j.j.k.k.k.M.' V V V N.N.N.B.B.B.B.B.V.V.V.V.V.V.X ",
"  . n.n.C.C.Z.Z.Z.~ f.f.A.y m.m.m.m.a.S.S.S.` k.M.M.D.D.D.' V V V F.G.G.H.H.H.J.J.K.K.K.L.L.P.X ",
"  . C.C.Z.Z.I.I.I.~ U.U.U.y m.Y.Y.Y.a.S.S.T.` D.D.R.R.E.i W.W.W.Q.Q.Q.Q.Q.Q.Q.K.K.L.L.L.P.P.!.X ",
"  . Z.I.I.I.~.~.^.~ U.U.U.y Y.Y././.a.T.T.T.` R.R.R.(.W.W.).)._.`.`.`.'.'.].Q.L.L.P.P.P.!.!.[.X ",
"  . I.~.~.~.^.^.{.~ U.}.}.y /././.|.a.T.T. X` (..X.X.X)._._.XXXX'.].].oXoXoXQ.P.P.!.!.!.[.[.OXX ",
"  . ~.^.^.^.{.{.+X~ }.}.}.y |.|.u @Xa. X X X` .X#X#X#XXX$X%X%X$XoXoX&X&X*X*XQ.!.!.[.[.OXOXOX=XX ",
"  . ^.{.{.{.+X+X-X~ ;X;X;Xy @X@X@X:Xa. X>X>X` #X,X,X,X%XE.E.<X$X&X*X*X1X1X1XQ.2X2X2XOX=X=X=X3XX ",
"  . {.+X+X+X-X-X4X~ ;X;X;Xy :X:X:X5Xa.>X6X6X` ,X7X7X7X8X8X8X8X$X1X1X1X9X9X9XQ.2X2X0X=X3X3X3XqXX ",
"  . +X-X-X4X4X4XwX~ ;X;XeXy 5X5X5X5Xa.6X6X6X` 7X7XrXrX8XtXtXtX$X9X9X9X9XyXyXQ.0X0X0X3XqXqXqXuXX ",
"  . -X4X4XwXwXwXiX~ eXpXpXy aXaXaXaXa.sXsXsX` rXrXdXdX8XfXfXfX$XyXyXyXyXgXgXQ.0X0X0XqXuXuXuXhXX ",
"  . 4XwXwXiXiXiXF.~ pXpXjXy aXkXkXkXa.sXsXsX` dXlXlXlX8XfXfXzX$XyXgXgXgXxXxXQ.0XcXcXuXhXhXvXvXX ",
"  . wXiXiXF.F.F.G.~ jXjXjXy kXbXbXbXa.sXnXnX` lXmXmXmX8XzXzXzX$XgXxXxXxXMXMXQ.cXcXcXhXvXvXNXNXX ",
"  . iXF.F.G.G.G.H.~ jXjXjXy bXbXbXbXa.nXnXnX` mXBXBXBX8XzXzXzX$XxXMXMXMXVXVXQ.cXCXCXvXNXNXZXZXX ",
"X X X X X X X X X X X X X X X X X X X X X X X X X X X X X X X X X X X X X X X X X X X X X X X X "};
