/* XPM */
static char * image_name[] = {
"48 48 157 2",
"  	c None",
". 	c #B0B0B4B4B0B0",
"X 	c #D0D0C8C8C0C0",
"o 	c #787874747070",
"O 	c #88887C7C7878",
"+ 	c #C8C8CCCCC8C8",
"@ 	c #B8B8A4A49090",
"# 	c #707040402828",
"$ 	c #40401C1C0808",
"% 	c #686868686868",
"& 	c #90905C5C3838",
"* 	c #909030302020",
"= 	c #28280C0C0000",
"- 	c #A0A09C9C9898",
"; 	c #E0E0E0E0E0E0",
": 	c #989898989898",
"> 	c #98989C9C9898",
", 	c #D8D8D8D8D8D8",
"< 	c #C0C0BCBCB0B0",
"1 	c #58582C2C1010",
"2 	c #505020200808",
"3 	c #484820200808",
"4 	c #707074747070",
"5 	c #28281C1C0808",
"6 	c #C8C8C8C8C0C0",
"7 	c #D8D8E0E0E0E0",
"8 	c #A8A8B0B0B0B0",
"9 	c #D0D0D0D0D0D0",
"0 	c #505058585858",
"q 	c #888888888888",
"w 	c #70705C5C3030",
"e 	c #585828281010",
"r 	c #383820201010",
"t 	c #606064646868",
"y 	c #40403C3C2828",
"u 	c #50504C4C5050",
"i 	c #9898A0A0A0A0",
"p 	c #28282C2C3030",
"a 	c #C0C0C4C4C8C8",
"s 	c #808084848080",
"d 	c #484848485050",
"f 	c #787878787878",
"g 	c #585848483838",
"h 	c #282810100000",
"j 	c #303014140000",
"k 	c #303014140808",
"l 	c #585824240808",
"z 	c #888870704848",
"x 	c #D0D0D4D4D8D8",
"c 	c #989894949090",
"v 	c #404024241818",
"b 	c #202020202828",
"n 	c #808080808080",
"m 	c #B8B8BCBCB8B8",
"M 	c #A8A8A8A8A8A8",
"N 	c #585858586868",
"B 	c #404044444848",
"V 	c #303030303838",
"C 	c #D8D8DCDCE0E0",
"Z 	c #404034342020",
"A 	c #404040404040",
"S 	c #202024243030",
"D 	c #58585C5C6060",
"F 	c #D0D0D0D0D8D8",
"G 	c #787868684848",
"H 	c #D8D8CCCC5858",
"J 	c #C0C0C4C4C0C0",
"K 	c #101010101010",
"L 	c #686864646060",
"P 	c #B8B8BCBCC0C0",
"I 	c #C8C8CCCCD0D0",
"U 	c #68684C4C3030",
"Y 	c #404018180808",
"T 	c #E0E0D4D46868",
"R 	c #C8C8ACAC5858",
"E 	c #C8C8C8C8C8C8",
"W 	c #E0E0D0D0B8B8",
"Q 	c #909090909090",
"! 	c #383838384040",
"~ 	c #181814141010",
"^ 	c #C0C0C8C8C8C8",
"/ 	c #909098989898",
"( 	c #B8B8B8B8B8B8",
") 	c #B8B8C0C0C0C0",
"_ 	c #606038381818",
"` 	c #F0F0E4E46060",
"' 	c #909064643838",
"] 	c #A0A07C7C5050",
"[ 	c #787840401818",
"{ 	c #18181C1C1818",
"} 	c #A8A8ACACB0B0",
"| 	c #E0E0E8E8E8E8",
" .	c #E0E0E4E4E8E8",
"..	c #98989C9CA0A0",
"X.	c #505028281010",
"o.	c #303010100000",
"O.	c #D8D8B8B88888",
"+.	c #686870707070",
"@.	c #A0A074745050",
"#.	c #707038381818",
"$.	c #282828283030",
"%.	c #202020202020",
"&.	c #909094949090",
"*.	c #E8E8ECECF0F0",
"=.	c #E8E8E8E8E8E8",
"-.	c #D0D0D8D8D8D8",
";.	c #A8A8A4A4A8A8",
":.	c #383814140000",
">.	c #B0B090905050",
",.	c #808044442020",
"<.	c #808088888888",
"1.	c #F0F0F0F0F0F0",
"2.	c #E8E8F0F0F0F0",
"3.	c #88884C4C2828",
"4.	c #E8E8ECECE8E8",
"5.	c #E0E0B0B08888",
"6.	c #D0D0C0C0B8B8",
"7.	c #40402C2C1818",
"8.	c #F8F8E8E8D8D8",
"9.	c #F8F8FCFCF8F8",
"0.	c #F0F0F4F4F8F8",
"q.	c #A8A8ACACA8A8",
"w.	c #B0B0B4B4B8B8",
"e.	c #A0A0A4A4A0A0",
"r.	c #10100C0C0808",
"t.	c #A0A088887878",
"y.	c #F8F8F8F8F8F8",
"u.	c #B0B0B8B8B8B8",
"i.	c #20200C0C0000",
"p.	c #303028282020",
"a.	c #C8C890906060",
"s.	c #606030301010",
"d.	c #D8D8DCDCD8D8",
"f.	c #E8E8D8D8B0B0",
"g.	c #B0B0B0B0B0B0",
"h.	c #484828281818",
"j.	c #D0D0C8C8A8A8",
"k.	c #A0A0A4A4A8A8",
"l.	c #A0A0A0A0A0A0",
"z.	c #F8F8F4F4F0F0",
"x.	c #A0A0A8A8A8A8",
"c.	c #E8E8DCDC7070",
"v.	c #F8F8ECECE0E0",
"b.	c #282824242020",
"n.	c #78787C7C7878",
"m.	c #F0F0F0F0E8E8",
"M.	c #60602C2C1010",
"N.	c #909094949898",
"B.	c #707034341010",
"V.	c #88888C8C9090",
"C.	c #F0F0F0F0F8F8",
"Z.	c #08080C0C0808",
"A.	c #C0C0A0A05858",
"S.	c #101004040000",
"D.	c #000000000000",
"F.	c #202024242828",
"G.	c #F0F0E4E4B8B8",
"                                            . X o                         O O                   ",
"                                        . + @ # $ %                       & * = -               ",
"                    + ; : >           , < # 1 2 2 3 4                     * * 5                 ",
"                  6 7 8 9 0 q     + X w 1 e 2 1 O 3 r q                 4 t y u                 ",
"                  , i p a s d u f g h j k l z x , c l v q               u t b n                 ",
"                  m M 0 % t t N B d B V b V 9 C , x O 3 Z >           > u N b                   ",
"                    a f N N N d A V S b S b D C , x F G 3 y >         @ H g 0                   ",
"                  J X q N d A V S b S S K L 9 x P x F I U Y y         T R 5 -                   ",
"              E W @ Q d ! V S b S S ~ B ^ ; m / ( x F I ) _ $ u       ` ' V                     ",
"          J X ] [ c ! V S b S S { A } |  ...M I , x F I I   X.o.L   O.H 1 +.                    ",
"      J < @.[ #.& t S b S $.b %.&.*.=.|  .; 7 C , , -.x I a ;.3 :.% T >.5 -                     ",
"  J X ] ,.[ #.[ @.D S $.S { <.1.2.*.=.|  .; 7 C , , , , -.E   O $ v ` 3.A                       ",
"4.5.,.[ ,.[ [ @.6.8 $.K %  .1.1.2.*.=.|  .; J ) C C , , x I a P O ' H 7.o                       ",
"C 8.' ,.[ ' 6.9.9.9.d | 0.0.1.1.2.*.=.|  .q.w.e.e., x I I I ^ P m T >.r.&.                      ",
"q.1.O.,.,.t.9.9.9.9.y.y.=.E 1.1.2.*.=.E Q u.u.I + x 9 I I + a P < ` w i.p.>                     ",
"  m y.a.[ s.m 9.9.9.y.q.d.: ( 1.2.C d.} x a w.C , &.M I I E E E f.R r r Y y                     ",
"    9 8.' #._ d.9.9.<.q s E 1.1.; <.+ m q.; 7 ) g.} ..I I ^ E E ` >.~ - h.o.y                   ",
"      4.j.3.[ U 9.9.y.: 0.0.; k.9 C c q.x ; 9 . / l.q.: I E a J H [ D 8 c $ o.d                 ",
"      ( z.a.[ #.L 9.y.y.u.: x J ; . g.I ^ > : q k.m a x.k.E a c.R 5 l.8 } o r h D               ",
"        I v.' [ s.q.y.y.| / x.; e.e.d.} ..a a ) P &.s x.q a   ` ' b.u.w.} M L o.h 4             ",
"          ; f.,.#.7.E y.0.,   : J I P Q Q a u.k.+.<.&.I I } j.H #.% u.. } M k.U :.i.n.          ",
"          q.y.5.[ #.p.y.0.0.x.;.9 9 l.} ^ n w.g.q ^ a I : l.c.R 5 e.w.8 } q.k.l.g :.h &.        ",
"            J m.] #.M.n.0.0.1.q q 9 l., M M q e.e.x a > ) } ` ' A ( ( ( g.} } k.N.7.o.5 &.      ",
"              , W ,.B.r M 0.1.; q / 7 } n ..4 x ; &.u.% V.j.H 1 f ( ( ( w.} } k...&.v :.b.      ",
"              q.4.5.B.B.v , 1.1.J w.e.l.( x  .a g.l.4   : c.>.5 . ( ( ( ( w.q.l...: n k h p.>   ",
"                ( z.a.#.B.B C.1.2.N.f C m | w.: <.E i > + ` 3.d ) ( ( ( ( w.q.i ..: / Z h = u   ",
"                  9 8.3.B.2 q 1.2.*.I *.=.> u.. g.l...I f.H 7.q a a P ( w.k.M i ..Q p = = ~ q   ",
"                    | O.#.B.k ( 2.*.*.: ;.> n.) q i M I c.>.~ a a a a } k.k.l.i &.%.= = Z.&.    ",
"                    . z.a.s.M.p.; *.4.l.: e.J N.P i F X ` w 0 a a a a } M M k.q %.= = Z.q       ",
"                      J 8.& M.X.A *.4.| % u.( k.g.x F 5.A.r e.a a a a M M M <.Z.h = Z.q         ",
"                        ; W #.s.3 : 4.| ( f / C , x F 5.& 7.a   a a a w.} +.Z.S.i.Z.q           ",
"                        q.4.a.M.1 5 J |  .E  .C , x F 5.k ;.  ) ) ( &.+.p D.D.D.Z.q             ",
"                          m v.' M.2 p.d. .; 7 C , x 9 ] L a w.q L V p.~ D.= i.D.q               ",
"                            9 W # M.2 D  .; 7 C , x X g 4 d F.p d 4 p D.:.= Z.q                 ",
"                              4.5.s.M.j &.; 7 C , o q V B 4 > ( m B S.:.h Z.4                   ",
"                              ( v.@.M.e 5 P 7 C , x a I I a   w.! S.:.h Z.q                     ",
"                                I 8.# l 2 p x C , x F I I a u.%.S.Y h Z.n.                      ",
"                                  ; j._ l $ % C , x F I I l.~ i.Y h Z.q                         ",
"                                  q.m.a.e l j g., x F I k.Z.i.$ h Z.n.                          ",
"                                    J 8.& l 2 ~ ( x F n K h $ h Z.q                             ",
"                                      , W _ l $ p C s D.k 2 h Z.%                               ",
"                                      q.=.5.1 2 h p.D.$ 3 j D.n.                                ",
"                                        ( v.@.2 2 = 3 3 k Z.4                                   ",
"                                          9 G.# X.3 3 h Z.4                                     ",
"                                            ; O.X.2 :.D.4                                       ",
"                                            . v.t.j D.n.                                        ",
"                                              J 8.p %                                           ",
"                                                I &.                                            "};
