/* XPM */
static char * image_name[] = {
"64 64 32 1",
" 	c #06060E0E6D6D",
".	c #060613137575",
"X	c #060618187D7D",
"o	c #06061A1A7D7D",
"O	c #050522228D8D",
"+	c #020223239292",
"@	c #020224249696",
"#	c #070716167575",
"$	c #06061F1F8888",
"%	c #050509094F4F",
"&	c #020203032525",
"*	c #010101011515",
"=	c #010101010A0A",
"-	c #000000000707",
";	c #000001010A0A",
":	c #020202021D1D",
">	c #030305053939",
",	c #050507074F4F",
"<	c #000001010202",
"1	c #040405053939",
"2	c #030304042F2F",
"3	c #000000000505",
"4	c #010101010F0F",
"5	c #000000000303",
"6	c #040406064343",
"7	c #05050C0C5959",
"8	c #06060F0F6363",
"9	c #06060A0A6363",
"0	c #000000000000",
"q	c #06061B1B8383",
"w	c #010102021111",
"e	c #06060A0A5959",
" .XoO+@@Oo#o$$O+X%&*=-;:>,,>=<=&>12&*334:*-<<<5<<34&2>>>6,78.#..",
"..oO++@+$#.o$++O.1:4--=&6992-34&>2&*-5-::*-<0<005=*2>>>6,98.#XX.",
".o$+++OOo..oO++q82w=--w2, 9&334&2&*4354:**=<<005-w&2>>6,,e .X#..",
".oO+@+$qX.X$+@O.%&4=-;*17 %*<3*&2&4-<3*&:*=35<5-4:2216%,ee .#X..",
"X$O++$XX..#O++o81*=;=4&,8864<34::*=<5=*::*=-<3-=*&>>>66,ee ..   ",
"X$O+Oo....oO@+#9>*--=*>9.7>=53=**43<54:::*4=--=4:&2>166,,   ee  ",
"oO+Oo.e ..q+@O 6&4--w:68.,&-<3;w4-5<34::::*44=4*:&2>16,,9ee9,e8.",
"$OO$.e,8.X$@+o7>:=-=*2%88%&-<3-==3<5;*&:&:***w*:&222>6%,,,,,,,7.",
"$O$# ,, .oO@O.%>:==*&>9.86&-<53-3<0<;w:::&*:**:&222>>%,%66%%,9 X",
"$$o.9,,8X$++o862*44:268.7>:;<<<<<<<3=w:*::::::&&&22>>666>166,9#o",
"$q.7,,9.qO@OX9>&*44&>9..9>:-<0<<<0<3;4*:::::::&&&&2>>1>222>6,9.o",
"$#e,6%9.$++$8%2&:4*&67. 62:-<000005--4**::::::&&&222222&&&26%7Xo",
"o ,6667#O++o762&:*:2%8.762:=5<000053-;4**::::*:&&&22&&&::&2>%8#o",
".7%6667oO+O.,1&&::&19 .e62:4355<0<<53-=;w**:*:::&::&::**w:&>% #X",
"8,666%7o++$.6>2&&:269  962:4;-35<<<0<<--;*******:::**w444*21, ..",
",61>6,8$OOo862&22&26e 9,62&*=--5<0<00<<3-4ww4*****w4=====*&19 ..",
"%>2>6% $O$#9>22222>,e9,,6>2:4-3<000000<<3=44444w4==-333--4&6,  e",
"6>2>69.$$o.,122>616,99,,,12&*-5<0<<<<000<-==444==335<5<3-4&6,9e,",
">22>67#o$X861>2>666,9e,,%62&w;<0<5553<<0<3-;;;=-355<<0<5-*26,,,%",
">22>68XooX761>>6666%,,,,%6>&4-5<53--;-<<0<--;=-33<0000053w26%,,6",
">221% XoX.7,1666%66,,,,,%1>&43<<-;=44=3<053----<<00000<<-*26%%61",
"22269.XX. e%666%%66%%%%%6>2&=3<3=4**w4-<<53333<<00<<<00<-*>666>2",
"22>67..X  9%66%%%66666666>2:=<<-*::*:4;3<5555<<00<55<<05-*266622",
"22169...  9,6,6,%611122>122:;<54*:&&:*=3<<<55<<0<5333<<<-*211122",
"2>>,e ..  8%%,%%62222&&222&w35-*:&&&:*=3<<<0<<0053---<0<-*2>1>22",
">>1,,e     9,,%662:::*:222:4<34:2222:*=3<000000<3---350<-:&22>22",
">>6%,ee    e,666>&**44*:2&:-<-*22>22&*=3<00000<53-=-3505=:&22>>2",
">66,,,eee  9,,612*4=;-4*&:*334:>11>2:*;<000000<53----50<-*&&2>2>",
"616,,,,,9999,,1>&4-333=*&:4<-*&>6622:4-<000000<5----3<<<-w:&22>>",
"6666%,,,e,e,,6>2*-5<<5=*&*;5=:26662&:430000000<53--3350034:&&2>1",
">66666,,,,,,,62:45<005;*:*33*&>>6>2&w;<<000000053--33<0<34*:&2>1",
"66661>%,,,,,6>&*-<000<=*:43-:2>6612*4-50000000053----<00<;*:&22>",
">>>22>>,,,,,62*=3<<0054:*;<-:2>662&*=3<<0000000<3;--=3<0<-w:&&22",
"12222&26,%,6>&=-<55<034**3<4&2>6>2:4;3<0000000005---;-5<03=:&&22",
"2&:&:&&66%,62*-<<<<<<-*:453w&22>2&*=-<<000000000<-;;=;35<5;*&222",
"2&:**:&>%%66&43<<33<<=::-5-*&222&:4-3<<<00000000<3;;;;-3<<-w:&&2",
"&:w44*:>6%6>*-<05-<<3*&*35-*&&&:*4;<5<<55<<00000<-=4w4=-<<34:&&2",
":w4;;4:>6,,24<<<53<<-:&4<5=*:::*4=35<<533<5<0000<-;w*44;3<34*&&2",
":4--;;*>6,6&=5<53-<54::=53;***44;-555553--3<0000<-4w***4-<54:&2&",
"*=33;4:6%,6:3<5553<-*&*-<3=44=--3355333-=;-3<<<<5;w***:*=<54:&&:",
"=3<5-4&6%%2=<<<<<<5*&&*-<<3--35<<<<53-=444=-5<0<34*:&&:w;534:&&:",
"-5<<-426,,2;<05<0<-:22:-<<5<<<<<<0<53;4*:**=3<003w:&22:*;53*&&:*",
"3<<<-*>6,>:30<<0<342>&*-<00<<<<000<3;4*&&&*=3<0<-*&2>2&*=<-*&&*4",
"<0<<=&6,%2*3<<0<3=:>>&*-<0<<53<00<534*&22&:43<05=:&21>&*;<-:&:4=",
"<003426,1&4<00034:212&*=3<--;-<<0<<-*&2>>2&43<03w&2>1>&4-5=:&*;-",
"<0<-*>,,>:=500<=:2662&*;=;444;3<00<=:2>66>&450<3*2>>6>&433*&&435",
"0054&6,,2*;<0<-*266>2&**4*:*4-<<0054&>6%%1&=500-:2166>&4<-:2:=5<",
"<<-*>,96&*=5534&6%12&::::&:4-<<00<-*26%,,>:=<0<=&>666>:-5=&2*-5<",
"<342%9e1&*4;;*&6,,>2&&&22&&*=35<<5=&16,,6>*30054&>6662*33*2&435<",
"3=:>9 9>:*44w&>9e%6>>22>>2&:4-33<34&6,,,624<<<3*2>66>&4<-&2&43<<",
";w2%8 92:***:>% 9,6>>>>6>2&*4=-35-*>,,,,6&=5<<-:2666>:-54&2:=5<5",
"4:>9. %2::&&2%789,6>16661&**=;-35;&1,9,,1:35<<;&>66>2*33*22*-353",
":2%..762:&21% . ,,6666,12:*444=3542699e624<3<34&>66>:=<=&2&*-33-",
"&68..762&26%8## 9,,,,,6>&*=4w**33*>%e ,6&=53<3*&>612*-3*>2&4=--=",
">9.X.96226%9#o.e9,,,,,>&:w4**:*3;&1,9e,1*3<35-*2>6>:43-&>>&w=-4*",
"%8..e,61>,8.o#e,,,97e62:*44::&43426,e9,24<--5-*22>2*-542>2:*4=*&",
"8.X 9,66%.o$o.8e99 .9>:*w;w:&&=3*>6,9,1:-3--5;*&22:=<-:>12:w4*&>",
".XX.9,,, oOO$X.   ..,2*4;;*22&=-:>,,,,2*3-;35=*&2&*-5=2>>2:**&>%",
"Xo# 9ee8#OOO$X.  .#81&4;;4&>>:3;26%,,6&=3=4354*:&*=53*>112::&267",
"oXX e8..$OOOq#...o.,2*=;4*2>>*3426%,%>*3344<34***43<=&>>>22&267.",
"oX.  .o$O+O$q#.XoX86&4=-4&>6>=3*>6%,624<-w4<3;**4-<3*21>>>2269.X",
"XX. .X$+++$qoXoq$#,>*=-;*2662-3:>6,6>:-54*=55;44=<<-:>166>>1%8Xo",
"XX..X$+++Oqoooq$$.6&4--=:>66:3-&>66>2w3-**;55-=-3<34&>11666%9.Xo",
"....oO+@+$oooq$O$ >:4--4&1,6:3-&666>&=5;**-<5--35<3*2>>666%,8XXX"};
