/* XPM */
static char * image_name[] = {
"48 48 64 1",
" 	c None",
".	c #DFDFDBDBDFDF",
"X	c #FFFFFBFBFFFF",
"o	c #080804040000",
"O	c #000000000000",
"+	c #08081C1C0808",
"@	c #282830302828",
"#	c #383841413838",
"$	c #616179798686",
"%	c #9E9EA2A29E9E",
"&	c #BEBEA6A6A6A6",
"*	c #BEBECBCBCFCF",
"=	c #EFEFEFEFEFEF",
"-	c #181828282828",
";	c #515159596161",
":	c #8686AAAAA6A6",
">	c #616169696969",
",	c #8686AAAAB6B6",
"<	c #969692929E9E",
"1	c #616161616161",
"2	c #9E9EAAAAAEAE",
"3	c #79798A8A9696",
"4	c #616175756969",
"5	c #515159595151",
"6	c #868671718686",
"7	c #C7C7C7C7B6B6",
"8	c #96967D7D4949",
"9	c #CFCFD3D3D7D7",
"0	c #202018180808",
"q	c #868608080808",
"w	c #AEAE18182020",
"e	c #DFDF34342020",
"r	c #969608080808",
"t	c #F7F738384141",
"y	c #717149491010",
"u	c #C7C7A2A24141",
"i	c #EFEFD3D35959",
"p	c #EFEFAAAA4141",
"a	c #DFDF9E9E4141",
"s	c #DFDFAAAA2828",
"d	c #A6A64D4D1818",
"f	c #61613C3C0808",
"g	c #CFCF82820808",
"h	c #C7C782822020",
"j	c #E7E792922828",
"k	c #B6B669691010",
"l	c #797945450000",
"z	c #9E9E45450000",
"x	c #515138380808",
"c	c #797934340000",
"v	c #969661610808",
"b	c #CFCF69690000",
"n	c #414130300000",
"m	c #A6A66D6D1010",
"M	c #595918180000",
"N	c #41410C0C0000",
"B	c #E7E7B2B22828",
"V	c #F7F7E3E38E8E",
"C	c #B6B682820808",
"Z	c #868620200808",
"A	c #DFDFAAAA1818",
"S	c #EFEFB2B24141",
"D	c #F7F7C3C34141",
"F	c #717120200808",
"                     .XXXXXXXXXXX               ",
"                     ooO+@#$%&*=XXX             ",
"                         #+oo-;:&**XX           ",
"                            #-O+>,:&=XX         ",
"                              #+O>%:<*XX        ",
">>111111>>>1111111111111111     O;:2:2:XX       ",
"1XXXXXXXXXXXXXXXXXXXX===..@1    #$<:%:<:*X      ",
"1XXXXXXXXXXXXXXXXXXXXXXX==@1    ;3:%:,:%4@      ",
"1XXXXXXXXXXXXXXXXXXXXXXXXX@1   ;$:%:<:%:5O      ",
"1XXX>46%578687;6%<8%XXXXXX@1  ;-:2:2:2:2;O4     ",
"1XXXXXXXXXXXXXXXXXXXXXXXXX@1 5;-;$<:3;;$X%;4    ",
"1XXX4>9732>=2<%228322222=X@>5,X*O;;-OO-;$X2;;;  ",
"1XXXXXXXXXXXXXXXXXXXXXXXXX@5<X*$@OOO0 O+;$XXX2; ",
"1XXXXX<>97422>292>X9XXXXXX52X*$#+O-    O-;:*XX2O",
"1XXXXXXXXXXXXXXXXXXXXXXXX5<X*$#+O       O+<:*;OO",
"1XXX6%67;88<%6%XXXXXXXXX5,X*$#+O        O-;%;OO ",
"1XXXXXXXXXXXXXXXXXXXXXX5<X*$#+O         0O;;OO  ",
"1XXX>&>22.7>><%>9492.752X*$#+O           @OOO   ",
"1XXXXXXXXXXXXXXXXXXXXq<X*$#+O             0-    ",
"1XXX6#688556.656686&qwe%$#+O                    ",
"1XXXXXXXXXXXXXXXXX&rretr@+O1                    ",
"1XXXXX11><377>399&qwetqwOO+y8uiiiiiiiiiiiO      ",
">XXXXXXXXXXXXXXX&qretqrOO4OyuupapsasauauyO      ",
"1XXXX.1>5>76.<<dqwetqwOO8&+fghujuhhhgkkklO      ",
"1XXXXXXXXXXXXXerretrrOO8&&0yuhjsuzfxykkkcO      ",
"1XXX666..65>7wqwttqwOO#&&*0ysssjvbgbnymklo      ",
"1XXXXXXXXXXXrqwetqrMN4&&*.nvjsjzbBBNilfkyO      ",
"1XXX11=9&&>rqweXewMO0#@*9=nvssscgp0VCz+klo      ",
"1XXXXXXXXXrrwetr&eNM&&7.==nvBBBczNVgzcNkcO      ",
"1XXXXXXXXrqwttqOZrO&&79==Xn8BpByniCdlxnklo      ",
"1XXXXXXXrqweXerOOO&27*.=XXnvBsBBylMxNNbkyo      ",
"1@@@@@@rqwerq&eOOO+0+0nxnxnvBpBpscnxnhgblo      ",
" 11111rrwetrOrrOyfyydv8m8m8vpBBAjhuhggbkco      ",
"     rqwtXewOOO8u88uSSDiDiDiBpsasjuhhbkklo      ",
"    rqwetq&eOO 8umjspBDDDDDSSBjsjhughkbkyo      ",
"   rqwetqOZrO  uuuspSSDDDiiDSpsjujhhgkkklo      ",
"  rrweXerOOO   upsjsSSDDDDDDDBpsjhjhggbkco      ",
" rqwttq&tOO    VSashvfxluiDiSpSauzfflkkklo      ",
"rqwetqOrrO     iisuvbgbxyhDSSBpuzbbbMfkmco      ",
"OwetqwOOO      VSavbBp0ilfDSSpBdbpBNizfkfO      ",
"OOrrrOOO       VpscgBNVCz0SBpspcbBNibz0vco      ",
" OOwOOO        VSjcd0VgzcNSpBssymNVgzc0mfo      ",
"  OOOO         VpsyxiCzlMnpBBsjyMibzlxMvMo      ",
"   MN          VSjgyfxnNNmBpsjsgfyxx0Nvmno      ",
"               VphjscxMnmspsjjjhbcMxMvdvMo      ",
"               7Sjuasjsaspsasjghgkmmmmzdno      ",
"               VkkkkkvdvdvdzzyclylclylclMO      ",
"               zyccccFfMnMnMN0+0oOoooooOOO      "};
