/* XPM */
static char * image_name[] = {
"48 48 83 1",
" 	c None",
".	c #E0E0FFFFF0F0",
"X	c #F0F0FFFFF0F0",
"o	c #8F8F57572020",
"O	c #DFDFE0E0E0E0",
"+	c #E0E0F7F7E0E0",
"@	c #E0E0F0F0CFCF",
"#	c #D0D0DFDFD0D0",
"$	c #D0D0EFEFDFDF",
"%	c #CFCFD0D0D0D0",
"&	c #DFDFD8D8BFBF",
"*	c #BFBFE0E0C0C0",
"=	c #C0C0C8C8C0C0",
"-	c #C0C0CFCFEFEF",
";	c #4F4F57574F4F",
":	c #E0E090903F3F",
">	c #EFEFEFEFF0F0",
",	c #6F6F30306060",
"<	c #C0C0BFBFCFCF",
"1	c #707040404F4F",
"2	c #000000000000",
"3	c #E0E0DFDFD0D0",
"4	c #303030302F2F",
"5	c #A0A040404F4F",
"6	c #B0B048483030",
"7	c #2F2F38380000",
"8	c #E0E0A8A81010",
"9	c #808060603030",
"0	c #909067672F2F",
"q	c #DFDFB8B86060",
"w	c #101038381F1F",
"e	c #BFBF77776F6F",
"r	c #4F4F38380F0F",
"t	c #B0B078785050",
"y	c #1F1F1F1F2020",
"u	c #606047474F4F",
"i	c #CFCF80806F6F",
"p	c #9F9FBFBF9F9F",
"a	c #A0A0A7A7C0C0",
"s	c #9F9FAFAFA0A0",
"d	c #8F8FA8A8B0B0",
"f	c #303020201010",
"g	c #6F6F77775F5F",
"h	c #707067676F6F",
"j	c #3F3F30303F3F",
"k	c #505080804F4F",
"l	c #202047474040",
"z	c #20201F1F0F0F",
"x	c #202020200000",
"c	c #A0A098989090",
"v	c #3F3F40400000",
"b	c #10101F1F1010",
"n	c #505077777070",
"m	c #2F2F2F2F3030",
"M	c #8F8F90909F9F",
"N	c #101010100000",
"B	c #A0A05F5F5F5F",
"V	c #101018180000",
"C	c #5F5F60605050",
"Z	c #303038383F3F",
"A	c #909038382F2F",
"S	c #A0A06F6F5F5F",
"D	c #B0B067676F6F",
"F	c #707077778080",
"G	c #EFEFB8B89F9F",
"H	c #6F6F87878F8F",
"J	c #606078788080",
"K	c #202068682F2F",
"L	c #4F4F47475050",
"P	c #CFCFA7A77F7F",
"I	c #DFDF97976F6F",
"U	c #9F9FA7A79090",
"Y	c #5F5F3F3F2020",
"T	c #5F5F2F2F1F1F",
"R	c #9F9F7F7F6F6F",
"E	c #5F5F3F3F4F4F",
"W	c #20202F2F2020",
"Q	c #3F3F37371F1F",
"!	c #4F4F47472F2F",
"~	c #4F4F30303F3F",
"^	c #505037373F3F",
"/	c #80803F3F3030",
"(	c #10101F1F1F1F",
"                                                ",
".X.X.X.X.XXXXXX..............X.X.X.X.X.X.X    o ",
"XO+O+OOOOOO@O@O#$$$$$$$#########%&%*%=%=-.;  o: ",
"X>,,<,<,1OOOOO$O$O$#$###$#####%#%#%*%=%-*.2 o:: ",
"XO+OOOOOO@O@O$O$O$3#3#3######&%&%**45657-.2o8:8 ",
"X>,,,O,O,,OO$O$O$#$###$#####%#%#*%%:&;90=.oo::o ",
"XOOOOOO@O@O$O$O$3#3#3######&%&%*%**qw1er-o::8oo ",
"XO,,1O,O1,,,$O$#$#$#$#####%#%#*%*%%tywuio:::ooo ",
"XO+OO@O@O@O@O$3#3#3######&%&%&%&%**ywywo:::oooo ",
"X>OOOOOOOOOO$O$O$#$#########%%%%*=*%*=o::8ooooo ",
"X$OOOOO@O@O$O#O#3#######%#%&%&%*%=%=-o:::oooooo ",
"X$OOOOOOOOpa$Os#s#d#$#%###%#%#*%*=*=o::8ooo9oof ",
"X$OOO@O@O$2gh*-gjk2=hlh##&%&%*%*%*-o:::oooooozx ",
"X$OOOOOO$#$#$#$#$#$#$###%#%#*%*%*=o::8oooooofxf ",
"X$O@O@O$O$hk3#jsc4##v#c&%&j*%*%*-o:::oooooobxfx ",
"X$$OOO$O$On=njd2*mlh2#kc2#lM*%*=o::8ooo9oofxfxN ",
"X$O@O$O$O#3#3#3#3#3#3#;;;;;2XcXo:::oooooozxfxzN ",
"X$OO$O$O$#n%2s*j*s*hd#XXXXXXX#o8:8ooo9oBfxfxfV  ",
"X$O$O$O$3#hk-kskh4h*2C;;;;;cXo:::ooooooxbfxbVZ  ",
"X$$O$O$#$#$#$#####%#%#X###XXo::8oooooofxxxfVbZ  ",
"X@O@O$3#3#3######&%&%&####Xo:::oooooobxxfzNAbZ  ",
"XOOO$O$O$#$#########%%###Xo8:8ooo9oofxffxVAVbZ  ",
"X@O$O#O#3#######%#%*%&##Xo:::oooooozxfxxb.2VbZ  ",
"XO$O$O$#$###$#%###%###X#o::8oooooofxfxfNV.2bbZ  ",
"X$O$O$3##.............XS:::oooooobxfxbNNA.2VbZ  ",
"s222222222222222222222D:::ooo9oofxfxfVAAV22bbZ  ",
" FuVNVNVNVNVNVNVNVNVNVGGooo9ooBfxfxfNAVVNVNlbZ  ",
"  HJK;K;K;K;K;K;K;KLK;GGPIIoozxfxzNNZZlZlZlZbZ  ",
"  ;XXXXXXXXXXXXXXXXXXDGPIIDBfxfxfVVAXXXXXXX2bZ  ",
"  ;XXXXXXXXX;;X;;2;UXSPPISYTxfxbNAAXXXXXXXX2bZ  ",
"  ;XXXXXXXXXXXXXXXXXRGIPDEW7fQfVAXXXXXXXXXX2bZ  ",
"  ;XXX;;2;;;;2;;X;cXSGISYf7fQTNAXXX;;;XXXXX2bZ  ",
"  ;XXXXXXXXXXXXXXXXDPiD!W7Wr~CBXXXXXXXXXXXX2bZ  ",
"  ;XXX22;;X;;;;;;XsBiS!f7^r/oiXX;;XXXXXXXXX2bZ  ",
"  ;XXXXXXXXXXXXXXX2DCT77TCoiXXXXXXXXXXXXXXX2bZ  ",
"  ;XXX;;;X;2;;;sX;22f7r/CiXXXXXXXXXXXXXXXXX2bZ  ",
"  ;XXXXXXXXXXXXXX22N2~oiXXXXXXXXXXXXXXXXXXX2bZ  ",
"  ;XXXXXXXXX;;;X;222;sXXXXXXXXXXXX;;;;XXXXX2bZ  ",
"  ;XXXXXXXXXXXXX22;XXXXXXXXXXXXXXXXXXXXXXXX2bZ  ",
"  ;XXX2X;;2;;;X;2;;;2;;;;X;;X;;;X;;;2;;;XXX2bZ  ",
"  ;XXXXXXXXXXXXXdsssdXXXXXXXXXXXXXXXXXXXXXX2bZ  ",
"  ;XXXXXXXXXXXXXXssUcssUXXXXXXXXXXXXXXXXXXX2bZ  ",
"  ;XXXXXXXXXXXXXXXdsssdsssdXXXXXXXXXXXXXXXX2bZ  ",
"  ;XXXXXXXXXXXXXXXXssUcssUcssUXXXXXXXXXXXXX2bZ  ",
"  ;22222222222222222222222222222222222222222(Z  ",
"   bbbbbbbbbbbbbbbbbbbbbbbbbbbbbbbbbbbbbbbbbNZ  ",
"                                                ",
"                                                "};
