/* XPM */
static char * image_name[] = {
"48 48 64 1",
" 	c None",
".	c #9696A2A2AEAE",
"X	c #79798A8A6161",
"o	c #515179792828",
"O	c #4949AAAA4949",
"+	c #303051510808",
"@	c #282845450808",
"#	c #595945453030",
"$	c #8E8E82828686",
"%	c #7979BEBE9E9E",
"&	c #9696CBCBD7D7",
"*	c #303065655151",
"=	c #BEBEE7E7F7F7",
"-	c #EFEFEFEFDFDF",
";	c #A6A679795151",
":	c #9696CFCFE7E7",
">	c #282879790000",
",	c #515182829696",
"<	c #303065652828",
"1	c #303092921818",
"2	c #303061618686",
"3	c #7979B2B2C7C7",
"4	c #202038380000",
"5	c #20203C3C3030",
"6	c #282861610808",
"7	c #51519292BEBE",
"8	c #38387D7DB6B6",
"9	c #61619E9EBEBE",
"0	c #202030300000",
"q	c #49498A8AB6B6",
"w	c #303069699696",
"e	c #38387575AEAE",
"r	c #38387171A6A6",
"t	c #282849496161",
"y	c #8E8EC3C3E7E7",
"u	c #181824243030",
"i	c #18180C0C0000",
"p	c #181838385151",
"a	c #101018181818",
"s	c #868661615151",
"d	c #101018180808",
"f	c #20201C1C0000",
"g	c #08080C0C1010",
"h	c #717145453030",
"j	c #969641411010",
"k	c #717134341010",
"l	c #515110100000",
"z	c #414114140808",
"x	c #61611C1C0808",
"c	c #BEBE61611818",
"v	c #595928281818",
"b	c #B6B659591818",
"n	c #000000000000",
"m	c #303004040000",
"M	c #A6A651511818",
"N	c #414108080000",
"B	c #C7C779793838",
"V	c #BEBE65652828",
"C	c #8E8E49491818",
"Z	c #D7D78A8A4949",
"A	c #DFDFAEAE7979",
"S	c #EFEFD7D7B6B6",
"D	c #EFEFCBCB9696",
"F	c #D7D79A9A5959",
"                                                ",
"                 .XoooXO+@###$.                 ",
"               .ooOOX%&&  $o@@+o$               ",
"             .O*%======-%;X:o+@@@#$             ",
"            OO>>*%:%O%,Ooo;%&:*<+@@o            ",
"          .O1+>>>o%<%&OoO2oO3&,,*@44#.          ",
"         .O1X>>>>@<O&=%X%,#<O*<2,2+445.         ",
"         %%%31>+++**%&O1%%%,6<27892<405.        ",
"        ::=OO116>6>@1O,3&%oX;oq7qqqw*05,        ",
"       &=:=&&%116+>@663:%*o399777q8er55,X       ",
"       ======&O16@16@+3%1@+*,977q888r25e*.      ",
"      &:=====&11>66+@0,9,@@@6t,qqeeerw225#      ",
"      yy:::=:X11>>6@@@@<,@66,788eee8er2tui.     ",
"     3yyy:::O611>>64@@@@@@+<q7eeerrerw2pais     ",
"     ::y:=:y66o>>1>+4@0@44<8,8eereeew2tpuid     ",
"     y:::=:&1>oo11>+400dd5e,8rwre8erw2ppudi.    ",
"    3:y3y:=&1>>>>>6@dd444<q88erreerwwtpuaii#    ",
"    y..y:::&1>o>>>@440d@@<q88rerrw222ppuadi5    ",
"    393::::y1>>>>>4dffd@0578888rrw222puuadd5    ",
"    3.333yyy3O>6>>ffffff5w,888rr22*2puuuadii    ",
"    ......33.9<>6@0<f05af*88erwwt*ttppuuaggd    ",
"    9.9399999991>0<7228wt4*rw22tppppuuuaggga    ",
"    77999.99.77<0@@reeer2dw2w2tppuuuuuagggga    ",
"    9797797qqqq,+0444*<<+<*tt55upuuuuagggggu    ",
"   .#,qqqqqeeeO2<+00d52255@@p5ddpuuaagggggg5$   ",
"   hjklwe22wrr222*0d055ttpuuuuaauuagggggggzkx$  ",
"  sjccx22xxl5w22w25054@55adiiiiaaadddvkagdjcbv  ",
" $kccjz5vccjzwzl5pp5pp0dfinnnimlxkdgijcMgizbcjh ",
".vccMzzlMcblz5McMkkkNt5xkxnnixjjccknmzbckmNxcck$",
"hBVclzzjccxNdvccvhccmpukcCnnijckjccfmNkcclNNjcbv",
"#--;zzkccjNNlbcMd#cczuukcCnnmjcvlccMNNNjcjNNlZZv",
"sASAzzASAzNNjccmahccluakcCnnmjcvNkcckNNhADkNlFZv",
"$;SDzzDDDNNhSAknahcclamkcbnnNjcCmNFSSNNXDDhNkZVh",
" h-SzlDDDlNMFAina$SS#dmASDiiNSS;iN.-SNNFDDMNMZC$",
" #-DhhDDAkN;ZBnna#-SXdNDSDdivFZkiNX-ShNADA;NVZx ",
" sSDsMDAACNBZCnngg-S;ivDDDvmhZZdnNv-SCNDAABNBBv ",
" $$S;sAsFMNZZvngggSSAihDDACmMZBnnmN-DskD;FZxBMh ",
"  hSFZA#F;xZBinggg$SDmsDAAsmVZCnnmNSDACA#FZkBj$ ",
"  #-AFFnZBhBVnnggg#-DvFAhF;mZBvndzN$SA;Az;ZVBx  ",
"  sSAFZn;ZMBCn5$#ga-DCFA#FZvBBl#$$NhSAFFnMBBVv  ",
"  $$DF;nMBBVvn#  .#SDsAFmZZCBMh  .Nz-AF;ikBVjh  ",
"   XDZkiCBVVia    $;SAF;lVBMVk$   hN-FFMavVVk$  ",
"   hSZv$xVVMn$     hSFFM#MBBVx    $NAAZh$zVMl   ",
"   sXMh vVMj#      vSFZv$CBVM#     v;DZv sMjv   ",
"    $sX vjMh       hSFZv$hVVjs     $hFC# $vh$   ",
"        $hvs       XFAVh vVMx.      sh$.        ",
"                   $lxxX vxll                   ",
"                                                "};
