/* XPM */
static char * image_name[] = {
"48 48 232 2",
"  	c None",
". 	c #A4A48D8D6060",
"X 	c #CCCC99991111",
"o 	c #DDDD99991111",
"O 	c #B2B2B2B2A1A1",
"+ 	c #FFFFCCCC1111",
"@ 	c #FFFFCCCC0000",
"# 	c #AAAA77771111",
"$ 	c #BABAB2B2A1A1",
"% 	c #AAAA88881111",
"& 	c #FFFFFFFFCCCC",
"* 	c #FFFFEEEEAAAA",
"= 	c #FFFFEEEE9999",
"- 	c #FFFFEEEEDDDD",
"; 	c #FFFFDDDD5555",
": 	c #BBBB99991111",
"> 	c #AAAA88880000",
", 	c #FFFFDDDD0000",
"< 	c #FFFFCCCC4444",
"1 	c #FFFFDDDD7777",
"2 	c #EEEEDDDD9999",
"3 	c #FFFFDDDD8888",
"4 	c #FFFFFFFFDDDD",
"5 	c #FFFFDDDD4444",
"6 	c #FFFFDDDD6666",
"7 	c #FFFFEEEE8888",
"8 	c #EEEECCCC9999",
"9 	c #AAAA99996666",
"0 	c #777755554444",
"q 	c #333333332222",
"w 	c #000000000000",
"e 	c #CCCCCCCC8888",
"r 	c #FFFFDDDD3333",
"t 	c #EEEEEEEE9999",
"y 	c #BBBB99997777",
"u 	c #555566664444",
"i 	c #333322222222",
"p 	c #666666664444",
"a 	c #FFFFEEEE7777",
"s 	c #EEEECCCC6666",
"d 	c #555544440000",
"f 	c #111100000000",
"g 	c #000011110000",
"h 	c #FFFFDDDD2222",
"j 	c #FFFFDDDD9999",
"k 	c #666644441111",
"l 	c #111111110000",
"z 	c #FFFFCCCC2222",
"x 	c #CCCC88881111",
"c 	c #777755551111",
"v 	c #222211111111",
"b 	c #DDDDDDDD9999",
"n 	c #FFFFCCCC3333",
"m 	c #DDDDCCCC8888",
"M 	c #999988886666",
"N 	c #666655554444",
"B 	c #CCCCAAAA3333",
"V 	c #888866661111",
"C 	c #333333330000",
"Z 	c #666666665555",
"A 	c #FFFFEEEE6666",
"S 	c #FFFFDDDD1111",
"D 	c #BBBBAAAA8888",
"F 	c #777777775555",
"G 	c #444444443333",
"H 	c #444455553333",
"J 	c #DDDDBBBB5555",
"K 	c #888877770000",
"L 	c #333322220000",
"P 	c #DDDDDDDD8888",
"I 	c #CCCCAAAA7777",
"U 	c #888877775555",
"Y 	c #222222221111",
"T 	c #111100001111",
"R 	c #DDDDCCCC6666",
"E 	c #555544441111",
"W 	c #222233332222",
"Q 	c #999999999999",
"! 	c #BBBBCCCCBBBB",
"~ 	c #CCCCCCCCDDDD",
"^ 	c #9999AAAA9999",
"/ 	c #111111111111",
"( 	c #AAAA99997777",
") 	c #BBBBAAAA7777",
"_ 	c #FFFFFFFFFFFF",
"` 	c #BBBBBBBBBBBB",
"' 	c #777788887777",
"] 	c #777777777777",
"[ 	c #555555553333",
"{ 	c #111122221111",
"} 	c #222222223333",
"| 	c #222222222222",
" .	c #000011111111",
"..	c #666666667777",
"X.	c #DDDDEEEEDDDD",
"o.	c #DDDDDDDDDDDD",
"O.	c #666677776666",
"+.	c #666655552222",
"@.	c #EEEEEEEE8888",
"#.	c #DDDDCCCC9999",
"$.	c #999999996666",
"%.	c #888899998888",
"&.	c #FFFFEEEEEEEE",
"*.	c #CCCCDDDDCCCC",
"=.	c #DDDDCCCCDDDD",
"-.	c #EEEEEEEEEEEE",
";.	c #666666666666",
":.	c #444422221111",
">.	c #888855551111",
",.	c #999988881111",
"<.	c #CCCC99993333",
"1.	c #FFFFDDDDAAAA",
"2.	c #D4D4D4D49B9B",
"3.	c #444433334444",
"4.	c #333333333333",
"5.	c #333322223333",
"6.	c #333344444444",
"7.	c #888877778888",
"8.	c #111122220000",
"9.	c #444433331111",
"0.	c #666655551111",
"q.	c #AAAA99992222",
"w.	c #DDDDAAAA5555",
"e.	c #EEEEDDDD7777",
"r.	c #A1A1A1A19898",
"t.	c #AFAFAFAFAAAA",
"y.	c #999988889999",
"u.	c #AAAAAAAAAAAA",
"i.	c #CCCCBBBBBBBB",
"p.	c #444433330000",
"a.	c #AAAA77772222",
"s.	c #BBBBAAAA3333",
"d.	c #EEEEBBBB6666",
"f.	c #CCCCDDDDDDDD",
"g.	c #444455555555",
"h.	c #666655556666",
"j.	c #444444445555",
"k.	c #888888885555",
"l.	c #EEEEDDDD8888",
"z.	c #555555554444",
"x.	c #111122222222",
"c.	c #AAAAAAAA7777",
"v.	c #000011114444",
"b.	c #111111115555",
"n.	c #111111114444",
"m.	c #555544443333",
"M.	c #2A2A38383838",
"N.	c #000000001111",
"B.	c #000022224444",
"V.	c #000011115555",
"C.	c #111122227777",
"Z.	c #000022227777",
"A.	c #444444440000",
"S.	c #222211110000",
"D.	c #111111117777",
"F.	c #11112222AAAA",
"G.	c #111133339999",
"H.	c #33334444AAAA",
"J.	c #11113333BBBB",
"K.	c #AAAAAFAFAFAF",
"L.	c #111122228888",
"P.	c #11113333AAAA",
"I.	c #33334444BBBB",
"U.	c #33335555DDDD",
"Y.	c #33335555EEEE",
"T.	c #33336666FFFF",
"R.	c #AAAAAAAAAFAF",
"E.	c #111122229999",
"W.	c #33334444EEEE",
"Q.	c #22223333CCCC",
"!.	c #11112222BBBB",
"~.	c #22223333BBBB",
"^.	c #22224444CCCC",
"/.	c #22225555DDDD",
"(.	c #11114444CCCC",
").	c #11113333CCCC",
"_.	c #11114444BBBB",
"`.	c #33334444DDDD",
"'.	c #22224444DDDD",
"].	c #444444442222",
"[.	c #33335555AAAA",
"{.	c #44445555EEEE",
"}.	c #444400001111",
"|.	c #222200000000",
" X	c #444400000000",
".X	c #333300000000",
"XX	c #555500001111",
"oX	c #555500000000",
"OX	c #666600001111",
"+X	c #666600000000",
"@X	c #777700001111",
"#X	c #AAAA00001111",
"$X	c #999900000000",
"%X	c #CCCC00000000",
"&X	c #CCCC00001111",
"*X	c #777700000000",
"=X	c #33336666EEEE",
"-X	c #999900001111",
";X	c #CCCC11111111",
":X	c #EEEE11112222",
">X	c #FFFF00001111",
",X	c #BBBB00001111",
"<X	c #DDDD00001111",
"1X	c #EEEE11111111",
"2X	c #FFFF11112222",
"3X	c #FFFF33333333",
"4X	c #FFFF22223333",
"5X	c #FFFF44445555",
"6X	c #DDDD00002222",
"7X	c #EEEE00002222",
"8X	c #FFFF22224444",
"9X	c #EEEE22223333",
"0X	c #FFFF33334444",
"qX	c #EEEE33333333",
"wX	c #555511112222",
"eX	c #FFFF11111111",
"rX	c #FFFF00002222",
"tX	c #FFFF44444444",
"yX	c #333311111111",
"uX	c #EEEE00001111",
"iX	c #AAAA22223333",
"pX	c #555511111111",
"aX	c #CCCC22223333",
"sX	c #38384646B8B8",
"dX	c #AFAF6B6B6B6B",
"fX	c #8D8D6B6B7676",
"gX	c #54545454B8B8",
"hX	c #A9A987878787",
"jX	c #46467171C6C6",
"kX	c #AAAAAFAFAAAA",
"lX	c #C6C66B6B7676",
"zX	c #A4A476767676",
"        . X o X o X o X o X o X o X o X o X o X o X o X o X o X o X o X o X o X o X o X o X o X ",
"    O + @ + @ + @ + @ + @ + @ + @ + @ + @ + @ + @ + @ + @ + @ + @ + @ + @ + @ + @ + @ + @ + @ # ",
"$ @ @ @ + @ @ @ + @ @ @ + @ @ @ + @ @ @ + @ @ @ + @ @ @ + @ @ @ + @ @ @ + @ @ @ + @ @ @ + @ X % ",
"& * = - & - & * = - = - & - & * & - & - & - = * & - & - & * & - & - = * = * & - & - & - ; + : % ",
"@ @ + @ @ @ + @ @ @ + @ @ @ + @ @ @ + @ @ @ + @ @ @ + @ @ @ + @ @ @ + @ @ @ + @ @ @ + @ - @ X > ",
"@ + @ + , + @ + @ + @ + @ + @ + , + + < ; 1 2 3 @ + @ + @ + @ + , + @ + , + @ + @ + @ + 4 + : # ",
"+ @ @ @ + @ @ @ + @ @ @ + @ + 5 6 7 8 9 0 q w e < @ @ @ + @ @ @ + @ @ @ + @ @ @ + @ @ @ - @ X % ",
"@ + , + @ + , + @ + , + r = t y u i w w w w w p a + , + @ + , + @ + , + @ + , + @ + , + & + : % ",
"@ @ + @ @ @ + @ @ @ + @ < s # d f w w w w w w g 8 h + @ @ @ + @ @ @ + @ @ @ + @ @ @ + @ - @ X > ",
"@ + @ + , + @ + , + @ + h j % k l w w w w w w w u 3 @ + , + @ + , + @ + , z 5 6 a + @ + 4 + : # ",
"+ @ @ @ + @ @ @ + @ @ @ + = x c v w w w w w w w f b n @ + @ @ @ + h ; 1 * m M N y r @ @ - @ X % ",
"@ + , + @ + , + @ + , + @ 3 B V C w w w w w w w w Z A + S 5 A = 2 D F G g w w w H 1 , + & + : % ",
"@ @ + @ @ @ @ @ @ @ + @ @ ; J K L w w w w w w w w w 8 P I U N Y w w w w w w w w T 2 + @ - @ X > ",
"@ + @ + @ + @ + , + @ + , 5 R E w w w w w w w w w w w w w w w w W Q ! ~ ^ / w w w ( r + 4 + : # ",
"+ @ @ @ + @ @ @ + @ @ h ; a ) w w w w w w w w w w w w w w w T Q _ _ ` ' ] g w w w [ 6 @ - @ X % ",
"@ + , + @ + S 5 ; 3 b ( F G { w w w w w w } W | w w w w  ...X.o.O./ w w w w g v C +.@.+ & + : % ",
"@ @ z 5 6 = #.$.N Y w w w w w w w w T %.&._ _ _ _ *.=.*._ -.;.w w w f l :.d >.,.<.R 1.@ - @ X > ",
"@ * 2.M p v w w w w w w w w w w w 3.*._ ^ 4.W 5.6...' 7.O./ w w 8.9.0.V q.w.e.* a ; h + 4 + : # ",
"r.t.  w w w w Y y.-._ _ =.u.7.' i._ i.W w w w w w w w w w w w p.a.s.d.j j 6 n @ + @ @ @ - @ X % ",
"      w w w O._ f.7.g.h.' ` f.o.^ j.w w w w w w w w w w w / k.l.@.1 5 z @ + , + @ + , + & + : % ",
"      w w z._ ' f w w w w w w w w w w w w w w w w w w w w l j + @ @ + @ @ @ + @ @ @ + @ - @ X > ",
"      w w / x.w w w w w w w w w w w w w w w w w w w w w w w c.n , + @ + , + @ + @ + @ + 4 + : # ",
"      w w w w w w w w v.b.v.n.w w w w w w w w w w w w w w w m.1 + @ @ @ + @ @ @ + @ + @ - @ X p.",
"      w M.N.w b.B.V.B.C.Z.C.Z.w w w w w w w w w w w w w w w w #.S + , + @ + , + @ + , + & + A.S.",
"      w n.v.b.C.D.C.F.G.H.J.C.v.w w w w w w w w w w w w w w w F ; @ + @ @ @ + @ @ @ + @ - p.w w ",
"    K.L.Z.C.P.F.P.I.U.Y.T.J.P.L.w w w w w w w w w w w w w w w v t + @ + @ + @ + S n ; 3 p w w w ",
"  R.E.E.F.P.W.U.W.U.Q.J.Y.H.!.C.w w w w w w w w w w w w w w w w M 5 @ @ + r 6 7 8 9 N Y w w w w ",
"K.~.^.^./.W.(.Q.(.)._.)._.Y.J.C.B.w w w w w w w w w w w w w w w W j ; 3 2 D p i w w w w w w w w ",
"`.'.Q._.Q.J.J.J.!.J.J.J.~.Y.J.G.D.w w w w w w w w w w w w w w w w k.U ].w w w w w w w w w w w w ",
"(.Q.J.).J.).J.).J.).J.).(.Y.[.).Z.b.w w w w w w w w w w w w w w w w w w w w w w w w w w w w w w ",
"J.J.!.J.J.J.!.J.J.J.!.J.J.J.{.J.F.v.w w w w w w w w w w w w w w w w w w w w w w w w w w w w w w ",
"J.).J.J.J.).J.J.J.).J.J.J.).U.P.J.C.g w w w w w w w w w w w w w w w w w w w w w w w w w w w w }.",
"J.J.J.J.J.J.J.J.!.J.J.J.!.J.Q.U.J.C.b.w w w w w w w w w w w w w w w w w w w w w w w w |. X.X X.X",
"J.).J.).J.).J.).J.).J.).J.).J.Y.J.P.v.w w w w w w w w w w w w w w w w w w w |.}. XXXoXOXoXOX+X@X",
"J.J.!.J.J.J.!.J.J.J.!.J.J.J.Q.U.F.J.D.w w w w w w w w w w w w w w |. X.XOXoX+X+XOX+X#X$X#X%X&X*X",
"J.).J.J.J.).J.J.J.).J.).J.).J.Q.=X).Z.b.w w w w w w w w w w w }.oXOXoX@X$X-X-X&X&X&X;X:X:X>X,X@X",
"J.J.J.J.J.J.J.J.J.J.J.J.J.J.J.J.{.J.F.v.w w w w w w w w w w #X$X#X$X&X%X<X1X2X>X>X1X2X3X4X5X&X*X",
"J.).J.).J.J.J.).J.J.J.).J.).J.).U.I.J.L.g w w w w w w w w &X&X6X:X2X>X7X:X8X9X0X0X4XqX2X2X5X,X@X",
"J.J.!.J.J.J.!.J.J.J.!.J.J.J.!.J.Q.=X!.C.b.w w w w w w w wX>X7X:X4X4X8X4X4XeXrX>XrXeXrX>X>XtX&X+X",
"J.).J.J.J.).J.J.J.).J.J.J.).J.J.J.Y.J.P.B.w w w w w w w yX>XqX8X:X2XeX2X1XrXuX>XuX>X>X>XuX5X,X@X",
"J.J.J.J.J.J.J.J.!.J.J.J.!.J.J.J.Q.U.I.J.D.v.w w w w w w w >X2XeX>X>X>X>X>X>X>X>X>X>X>X>X>X5X&X+X",
"J.).J.).J.J.J.).J.J.J.).J.).J.).J.).=X).Z.b.w w w w w w w iXuX>XuX>XuX>X>X>XuX>X>X>X>X>X>X5X,X@X",
"J.J.!.J.J.J.!.J.J.J.!.J.J.J.!.J.J.J.`.P.F.v.n.w w w w w w pX>X>X>X>X>X>X>X>X>X>X>X>X>X>X>XtX&X+X",
"J.).J.J.J.).J.J.J.).J.J.J.).J.J.J.).(.U.J.C.B.w w w w w w T >X>X>X>X>X>X>X>X>X>X>X>X>X>X>X5X,X@X",
"J.J.J.J.J.J.J.J.!.J.J.J.!.J.J.J.J.J.Q.U.!.C.w w w w w w w w aX>X>X>X>X>X>X>X>X>X>X>X>X>X>X5X&X+X",
"J.).J.).J.J.J.).J.J.J.).J.).J.).J.)._.Y.J.sX                dX>X>X>X>X>X>X>X>X>X>X>X>X>X>X5X,XfX",
"J.J.!.J.J.J.!.J.J.J.!.J.J.J.!.J.J.J.Q.U.gX                  hX>X>X>X>X>X>X>X>X>X>X>X>X>X>XtX&X  ",
"J.).J.J.J.).J.J.J.).J.J.J.).J.J.J.).J.).jX                  kXlX>X>X>X>X>X>X>X>X>X>X>X>X>X5XzX  "};
