/* XPM */
static char * image_name[] = {
"15 15 4 1",
" 	c None",
".	c #FFFFFFFFFFFF",
"X	c #5E5E5E5E5E5E",
"o	c #0000FFFF0000",
"             ..",
"           ..XX",
"         ..ooXX",
"       ..ooooXX",
"     ..ooooooXX",
"   ..ooooooooXX",
" ..ooooooooooXX",
".XXooooooooooXX",
" XXXXooooooooXX",
"   XXXXooooooXX",
"     XXXXooooXX",
"       XXXXooXX",
"         XXXXXX",
"           XXXX",
"             XX"};
