/* XPM */
static char * image_name[] = {
"15 15 4 1",
" 	c None",
".	c #FFFFFFFFFFFF",
"X	c #5E5E5E5E5E5E",
"o	c #0000FFFF0000",
"               ",
"               ",
"         .     ",
"       ..X     ",
"     ..oXX     ",
"   ..oooXX     ",
" ..oooooXX     ",
".XooooooXX     ",
" XXXooooXX     ",
"   XXXooXX     ",
"     XXXXX     ",
"       XXX     ",
"         X     ",
"               ",
"               "};
