/* XPM */
static char * image_name[] = {
"15 15 3 1",
" 	c None",
".	c #000000000000",
"X	c #0000FFFF0000",
"               ",
"               ",
"         .     ",
"       ...     ",
"     ..XX.     ",
"   ..XXXX.     ",
" ..XXXXXX.     ",
".XXXXXXXX.     ",
" ..XXXXXX.     ",
"   ..XXXX.     ",
"     ..XX.     ",
"       ...     ",
"         .     ",
"               ",
"               "};
