/* XPM */
static char * image_name[] = {
"15 15 6 1",
" 	c None",
".	c #FFFFFFFFFFFF",
"X	c #BABABABABABA",
"o	c #5E5E5E5E5E5E",
"O	c #FFFF00000000",
"+	c #000000000000",
"...        X.oo",
".OOX      X.OOo",
".OOOX    X.OOOo",
" XOOOX  X.OOO+o",
"  XOOOXX.OOO+o ",
"   XOOOXOOO+o  ",
"    XOOOOO+o   ",
"    X.OOOXo    ",
"   X.OOOOOX    ",
"  X.OOO+OOOX   ",
" X.OOO+oXOOOX  ",
"X.OOO+o  XOOOX ",
".OOO+o    XOOOo",
".OO+o      XOOo",
"oooo        ooo"};
