/* XPM */
static char * image_name[] = {
"15 15 3 1",
" 	c None",
".	c #FFFF00000000",
"X	c #000000000000",
"..X         X..",
"...X       X...",
"X...X     X...X",
" X...X   X...X ",
"  X...X X...X  ",
"   X...X...X   ",
"    X.....X    ",
"     X...X     ",
"    X.....X    ",
"   X...X...X   ",
"  X...X X...X  ",
" X...X   X...X ",
"X...X     X...X",
"...X       X...",
"..X         X.."};
