/* XPM */
static char * image_name[] = {
"15 15 3 1",
" 	c #FFFFFFFFFFFF",
".	c #5E5E5E5E5E5E",
"X	c #FFFF00000000",
"              .",
" XXXXXXXXXXXX..",
" XXXXXXXXXXXX..",
" XXXXXXXXXXXX..",
" XXXXXXXXXXXX..",
" XXXXXXXXXXXX..",
" XXXXXXXXXXXX..",
" XXXXXXXXXXXX..",
" XXXXXXXXXXXX..",
" XXXXXXXXXXXX..",
" XXXXXXXXXXXX..",
" XXXXXXXXXXXX..",
" XXXXXXXXXXXX..",
" ..............",
"..............."};
