/* XPM */
static char * image_name[] = {
"15 15 2 1",
" 	c #000000000000",
".	c #FFFF00000000",
"               ",
" ............. ",
" ............. ",
" ............. ",
" ............. ",
" ............. ",
" ............. ",
" ............. ",
" ............. ",
" ............. ",
" ............. ",
" ............. ",
" ............. ",
" ............. ",
"               "};
