/* XPM */
static char * image_name[] = {
"15 15 4 1",
" 	c None",
".	c #FFFFFFFFFFFF",
"X	c #5E5E5E5E5E5E",
"o	c #FFFF00000000",
"   .X          ",
"   .X          ",
"   .X          ",
"   ........XX  ",
"   .oooooooXX  ",
"   .oooooooXX  ",
"   .oooooooXX  ",
"   .oooooooXX  ",
"   .oooooooXX  ",
"   .oooooooXX  ",
"   .oooooooXX  ",
"   .XXXXXXXXX  ",
"  .XXXXXXXXXX  ",
"               ",
"               "};
