/* XPM */
static char * image_name[] = {
"15 15 3 1",
" 	c None",
".	c #000000000000",
"X	c #FFFF00000000",
"...............",
".XXXXXXXXXXXXX.",
" .XXXXXXXXXXX. ",
" .XXXXXXXXXXX. ",
"  .XXXXXXXXX.  ",
"  .XXXXXXXXX.  ",
"   .XXXXXXX.   ",
"   .XXXXXXX.   ",
"    .XXXXX.    ",
"    .XXXXX.    ",
"     .XXX.     ",
"     .XXX.     ",
"      .X.      ",
"      .X.      ",
"       .       "};
