/* XPM */
static char * as_minimize_xpm[] = {
"15 15 6 1",
" 	c #FFFFFFFFFFFF",
".	c #5F5F5F5F5F5F",
"X	c #BFBFBFBFBFBF",
"o	c #BABABABABABA",
"O	c #5E5E5E5E5E5E",
"+	c #000000000000",
"              .",
" XXXXXXXXXXXX..",
" XooooooooooX..",
" XooooooooooX..",
" XooooooooooX..",
" XooooooooooX..",
" XooooooooooX..",
" XooooooooooX..",
" XooooooooooX..",
" XooooooooooX..",
" XoOOOOOOOOoX..",
" XO++++++++OX..",
" XXOOOOOOOOXX..",
" ..............",
"..............."};
