/* XPM */
static char * image_name[] = {
"15 15 6 1",
" 	c #5F5F5F5F5F5F",
".	c #FFFFFFFFFFFF",
"X	c #BFBFBFBFBFBF",
"o	c #BABABABABABA",
"O	c #5E5E5E5E5E5E",
"+	c #000000000000",
"              .",
" XXXXXXXXXXXX..",
" XooooooooooX..",
" XooooooooooX..",
" XooooooooooX..",
" XoOOOOOOOOoX..",
" XO++++++++OX..",
" XoOOOOOOOOoX..",
" XooooooooooX..",
" XooooooooooX..",
" XooooooooooX..",
" XooooooooooX..",
" XXXXXXXXXXXX..",
" ..............",
"..............."};
