/* XPM */
static char * image_name[] = {
"15 15 6 1",
" 	c #5F5F5F5F5F5F",
".	c #FFFFFFFFFFFF",
"X	c #BFBFBFBFBFBF",
"o	c #BABABABABABA",
"O	c #5E5E5E5E5E5E",
"+	c #000000000000",
"              .",
" XXXXXXXXXXXX..",
" XooooooOOooX..",
" XoooooO+OooX..",
" XooooO+OoooX..",
" XoooO+OooooX..",
" XooO+OoooooX..",
" XooO+OoooooX..",
" XoooO+OooooX..",
" XooooO+OoooX..",
" XoooooO+OooX..",
" XooooooOOooX..",
" XXXXXXXXXXXX..",
" ..............",
"..............."};
