/* XPM */
static char * image_name[] = {
"64 64 10 1",
" 	c None",
".	c #9A9A0303A9A9",
"X	c #636302029A9A",
"o	c #525211115959",
"O	c #151519196E6E",
"+	c #020215158B8B",
"@	c #9A9A0B0B3030",
"#	c #F7F701010505",
"$	c #01010000FBFB",
"%	c #9E9E00006363",
"                                                                ",
"                              ....                              ",
"                        .XoOOOOOOOOOOo..                        ",
"                     .oOOOOOOOOOOOOOOOOOOX.                     ",
"                   XOOOOOOOOOOOOOOOOOOOOOOOO.                   ",
"                 XOOOOOOOOOOOOOOOOOOOOOOOOOOOO.                 ",
"               .OOOOOOOOOOOOOOOOOOOOOOOOOOOOOOOO                ",
"              oOOOOOOOOOOOOOOOOOOOOOOOOOOOOOOOOOO.              ",
"            .OOOOOOOOOOOOOOOOOOOOOOOOOOOOOOOOOOOOOo             ",
"           .OOOOOOO+++++OOOOOOOOOOOOOO+++++OOOOOOOOO            ",
"          .OOOOOO+o@###@OOOOOOOOOOOOOO@###@OOOOOOOOOO           ",
"         .OOOOOOO@#######oOOOOOOOOOOo#######oOOOOOOOOO          ",
"        .OOOOOOO@##@ooo###oOOOOOOOOo###ooo###oOOOOOOOOO         ",
"        OOOOOO+@##o+OO+O@##OOOOOOOO##@O+O+O@##OOOOOOOOOX        ",
"       OOOOOOOo##o+OOOOO+@##OOOOO+@##OOOOOOO##@+OOOOOOOO.       ",
"      XOOOOOOO##@+OOOOOOOO##oOOOOO##oOOOOOOOo##OOOOOOOOOO       ",
"     .OOOOOOOO##OOOOOOOOO+@#@+OOOo##OOOOOOOOO##oOOOOOOOOOo      ",
"     oOOOOOO+@#@+OOOOOOOOOO##OOO+@#@+OOOOOOO+@#@+OOOOOOOOO.     ",
"    .OOOOOOOO##oOOOOOOOOOOO##oOOO##oOOOOOOOOOo##OOOOOOOOOOo     ",
"    oOOOOOOOO##OOOOOOOOOOO+@#@+OO##OOOOOOOOOOO##OOOOOOOOOOO.    ",
"    OOOOOOOOo##OOOOOOOOOOOOo##OOO##OOOOOOOOOOO##OOOOOOOOOOOo    ",
"   XOOOOOOOOo##+OOOOOOOOOOOo##+OO##OOOOOOOOOOO##OOOOOOOOOOOO    ",
"   OOOOOOOOOo##+OOOOOOOOOOOo##OOO##OOOOOOOOOOO##OOOOOOOOOOOO.   ",
"  .OOOOOOOOOo##+OOOOOOOOOOOo##OOO##OOOOOOOOOOO##OOOOOOOOOOOOo   ",
"  XOOOOOOOOOo##+OOOOOOOOOOOo##OOO##OOOOOOOOOOO##OOOOOOOOOOOOO   ",
"  oOOOOOOOOOo##OOOOOOOOOOOOo##OO+@#oOOOOOOOO+o#@OOOOOOOOOO+$$.  ",
"  OOOOOOOOOOO##OOOOOOOOOOO+@##OO+@#@OOOOOOOOO@#@OOO++$$$$$$$$.  ",
"  OOOOOOOOOOO##oOOOOOOOOOOO###OOOO##O+++++$$$##$$$$$$$$$$$$$$X  ",
" .O++++++++++o#@$$$$$$$$$$$###$$$$@#X$$$$$$$X#@$$$$$$$$$$$$$$+  ",
" .$$$$$$$$$$$$##$$$$$$$$$$%###$$$$$##X$$$$$X##$$$$$$$$$$$$$$$+  ",
" .$$$$$$$$$$$$%#%$$$$$$$$$####$$$$$%##X$$$X##%$$$$$$$$$$$$$$$O  ",
" .$$$$$$$$$$$$$##X$$$$$$$##%##$$$$$$%###@###%$$$$$$$$$$$$$$$+O  ",
" .$$$$$$$$$$$$$X##X$$$$$###$##$$$$$$$X#####X$$$$$$$$$$$$$$$+OO  ",
" .$$$$$$$$$$$$$$X###%X%###$$##$$$$$$$$#####X$$$$$$$$$$$$$$+OOO  ",
" .$$$$$$$$$$$$$$$X######%$$$##$$$$$$X###@@###$$$$$$$$$$$$OOOOO  ",
" .$$$$$$$$$$$$$$$$$X%XX$$$$$##$$$$$$##%$$$$##%$$$$$$$$$+OOOOOo  ",
"  $$$$$$$$$$$$$$$$$$$$$$$$$$##$$$$$##%$$$$$$##X$$$$$$+OOOOOOOo  ",
"  $$$$$$$$$$$$$$$$$$$$$$$$$$##$$$$X##$$$$$$$X##$$$+OOOOOOOOOO.  ",
"  +$$$$$$$$$$$$$$$$$$$$$$$$$##$$$$@#X$$$$$$$$##++OOOOOOOOOOOO.  ",
"  X$$$$$$$$$$$$$$$$$$$$$$$$$##$$$$##$$$$$$$$+@#@OOOOOOOOOOOOO   ",
"  .$$$$$$$$$$$$$$$$$$$$$$$$$##$$$$##$$$$+OOOOo##+OOOOOOOOOOOO   ",
"   +$$$$$$$$$$$$$$$$$$$$$$$$##$$$X#@+OOOOOOOOO##OOOOOOOOOOOO.   ",
"   X$$$$$$$$$$$$$$$$$$$$$$$$##OOO@#@OOOOOOOOOO##OOOOOOOOOOOO    ",
"    $$$$$$$$$$$$+++++OOOOOOO##OO+@#@+OOOOOOOOO##OOOOOOOOOOOo    ",
"    oOOOOOOOOOOOOOOOOOOOOOOO##OO+@#@+OOOOOOOOO##OOOOOOOOOOO.    ",
"    .OOOOOOOOOOOOOOOOOOOOOOO##OO+@#@+OOOOOOOOO##OOOOOOOOOOo     ",
"     oOOOOOOOOOOOOOOOOOOOOOo#@+OO@#@+OOOOOOOOO##OOOOOOOOOO.     ",
"     .OOOOOOOo#@OOOOOOOOOO+@#@+OOo##+OOOOOOOOo##+OOOOOOOOo      ",
"      XOOOOOOo##OOOOOOOOOOO##OOOOO##OOOOOOOO+@#@+OOOOOOOO       ",
"       OOOOOO+##@+OOOOOOO+@##+OOOO##oOOOOOOOO##oOOOOOOOO.       ",
"        OOOOOOo##OOOOOOOOO##oOOOO+o##+OOOOO+o##OOOOOOOOX        ",
"        .OOOOOO@##OOOOOOO##@OOOOOOO##@+OOOOO##@OOOOOOOO         ",
"         .OOOOOO###o+++o###OOOOOOO+o##o+++O###OOOOOOOO          ",
"          .OOOOOO#########OOOOOOOOOO@##@@@###oOOOOOOO           ",
"           .OOOOOO@#####@OOOOOOOOOOOO@######oOOOOOOO            ",
"            .OOOOOOOoooOOOOOOOOOOOOOO+O@@@oOOOOOOOo             ",
"              oOOOOOOOOOOOOOOOOOOOOOOOOO++OOOOOOO.              ",
"               .OOOOOOOOOOOOOOOOOOOOOOOOOOOOOOOO                ",
"                 XOOOOOOOOOOOOOOOOOOOOOOOOOOOO.                 ",
"                   XOOOOOOOOOOOOOOOOOOOOOOOO.                   ",
"                     .oOOOOOOOOOOOOOOOOOOX.                     ",
"                        .XoOOOOOOOOOOo..                        ",
"                              ....                              ",
"                                                                "};
