/* XPM */
static char * image_name[] = {
"50 46 3 1",
" 	c None",
".	c #000000000000",
"X	c #00007F7F7F7F",
"                                                  ",
"                     ........                     ",
"    ...........................................   ",
"    .XXXXXXXXXX....................X.         .   ",
"    .XXXXXXXX.........XXXXXX.........         .   ",
"    .XXXXXX.......XXXXXXXXXXXXXX.......       .   ",
"    .XXXXX......XXXXXXXXXXXXXXXXXX......      .   ",
"    .XXXX.....XXXXXXXXXXXXXXXXXXXXXX.....     .   ",
"    .XXX.....XXXXXXXXXXXXXXXXXXXXXXX. ....    .   ",
"    .XX....XXXXXXXXXXXXXXXXXXXXXXXXX.  ....   .   ",
"    .X....XXXXXXX...........XXXXXXXX.   ....  .   ",
"    .....XXXXXXXX............XXXXXXX.    .... .   ",
"    .....XXXXXXXXX...........XXXXXXX.     ... .   ",
"    ....XXXXXXXXXXXXXX...X....XXXXXX.     .....   ",
"    ...XXXXXXXXXXXXXXX...X...........      ....   ",
"   ....XXXXXXXXXXXXXX....XX....            ....   ",
"   ...XXXXXXXXXXXXXXX...XXX....             ...   ",
"   ...XXXXXXXXXXXXXXX...XXX....             ....  ",
"  ....XXXXXXXXXXXXXX...XXXX.....             ...  ",
"  ...XXXXXXXXXXXXXXX...XXXX. ...             ...  ",
"  ...XXXXXXXXXXXXXX...XXXXX. ....            ...  ",
"  ...XXXXXXXXXXXXXX...XXXXX.  ...            ...  ",
"  ...XXXXXXXXXXXXX...XXXXXX.  ....           ...  ",
"  ...XXXXXXXXXX...................           ...  ",
"  ...XXXXXXXXXX.  .................          ...  ",
"  ...XXXXXXXXXX. ..................          ...  ",
"  ...XXXXXXXXXX. ...            ...          ...  ",
"  ....XXXXXXXXX.....            ....         ...  ",
"   ...XXXXXXXXX....              ...        ....  ",
"   ...XXXXXXXXX....              ....       ...   ",
"   ....XXXXXXX........        .........     ...   ",
"    ...................      ...........   ....   ",
"    ....    ...........      ...........   ....   ",
"    ....                                  .....   ",
"    .....                                .... .   ",
"    . ....                              ....  .   ",
"    .  ....                            .....  .   ",
"    .  .....                          .....   .   ",
"    .   .....                        .....    .   ",
"    .    ......                    ......     .   ",
"    .      ......                .......      .   ",
"    .       ........          ........        .   ",
"    ...........................................   ",
"                ..................                ",
"                   ............                   ",
"                                                  "};
