/* XPM */
static char * image_name[] = {
"48 48 8 1",
" 	c None",
".	c #000000000000",
"X	c #86867D7D7979",
"o	c #B6B6AAAAAEAE",
"O	c #FFFFFFFFFFFF",
"+	c #CFCF20202828",
"@	c #9E9E18182020",
"#	c #FFFF14144141",
"                                                ",
"                                                ",
"                                                ",
"                                                ",
"                                                ",
"                                                ",
"                                                ",
"                                                ",
"                                                ",
"                                                ",
"                                                ",
"                                                ",
"                                                ",
"                                                ",
"                        .                       ",
"                       .X.                      ",
"                      .Xo..                     ",
"                     .Xo....                    ",
"                    .Xo......                   ",
"                   .Xo........                  ",
"                  .Xo..........                 ",
"     XO   XOO    .Xo........XOO.O               ",
"    XOO  XO O   .Xo........XO..OO               ",
"    XOO  XO  O .Xo.........XO...O. O            ",
"   XO O XOOOOOOXXOO.XO.OO...XO...XOOO XOO XXOOO ",
"  XO  O  O  XO XO OX XO O    XO   XO XO OX XO XO",
" XOOOOO OO  X XO.OO..XO.......XO..X XO OO XOO XO",
"XOO  XO XO XO XOO+@@XO@@@@X@@@XO@XO XOO   XO  XO",
"XO  XOO XO XO XO.#O@XO@@@@XO@XXO.XO XXO O XO XO ",
"XOO XOOOXO  XO XOO#+XO@@@@XXOOO.  XO XXO  XOOO  ",
"        X         .#+@@@@@@@@@.          XO     ",
"      XOO          .#+@@@@@@@.           XO     ",
"      XO            .#+@@@@@.           XXOO    ",
"                     .#+@@@.                    ",
"                      .#+@.                     ",
"                       .#.                      ",
"                        .                       ",
"                                                ",
"                                                ",
"                                                ",
"                                                ",
"                                                ",
"                                                ",
"                                                ",
"                                                ",
"                                                ",
"                                                ",
"                                                "};
