/* XPM */
static char * image_name[] = {
"8 8 2 1",
" 	c #FFFF00000000",
".	c #000000000000",
"  .     ",
"  ..    ",
"  ...   ",
"....... ",
"......  ",
"  ...   ",
"  ..    ",
"  .     "};
