/* XPM */
static char * image_name[] = {
"35 37 2 1",
" 	c None",
".	c #FFFFFFFF0000",
"                                   ",
"                                   ",
"                        ..         ",
"                        ....       ",
"               ...      ....       ",
"               ....     ...        ",
"     ..         ...     ...        ",
"      ....      ...     .........  ",
"       .... ..............         ",
"        ... .......     ..         ",
"                 ..     .          ",
"                 .. .....          ",
"                 ........          ",
"                    ...            ",
"  .....             ..  ......     ",
"   .....           ............    ",
"    ....     ...... ..     ...     ",
"     ..       ..    ..    ...      ",
"              ..    ..   ....      ",
"               ..............      ",
"               .......             ",
"                    ..             ",
"        .           ........       ",
"       ..      ..........          ",
"       ..           ..             ",
"      ..            ..  .........  ",
"     ...         ................. ",
"     ..  .............             ",
"    ...            ..              ",
"   ....           ..               ",
"   ....          ...    ....       ",
"   ...          ...       ....     ",
"   ...         ...         .....   ",
"    .         ...           ....   ",
"            ..               ...   ",
"           ..                ...   ",
"                                   "};
