/* XPM */
static char * image_name[] = {
"60 40 3 1",
" 	c None",
".	c #FFFF00000000",
"X	c #FFFFFFFFFFFF",
".....................XXXX...................................",
".....................XXXX...................................",
".....................XXXX...................................",
".....................XXXX...................................",
".....................XXXX...................................",
".....................XXXX...................................",
".....................XXXX...................................",
".....................XXXX...................................",
".....................XXXX...................................",
".....................XXXX...................................",
".....................XXXX...................................",
".....................XXXX...................................",
".....................XXXX...................................",
".....................XXXX...................................",
".....................XXXX...................................",
".....................XXXX...................................",
".....................XXXX...................................",
"XXXXXXXXXXXXXXXXXXXXXXXXXXXXXXXXXXXXXXXXXXXXXXXXXXXXXXXXXXXX",
"XXXXXXXXXXXXXXXXXXXXXXXXXXXXXXXXXXXXXXXXXXXXXXXXXXXXXXXXXXXX",
"XXXXXXXXXXXXXXXXXXXXXXXXXXXXXXXXXXXXXXXXXXXXXXXXXXXXXXXXXXXX",
"XXXXXXXXXXXXXXXXXXXXXXXXXXXXXXXXXXXXXXXXXXXXXXXXXXXXXXXXXXXX",
".....................XXXX...................................",
".....................XXXX...................................",
".....................XXXX...................................",
".....................XXXX...................................",
".....................XXXX...................................",
".....................XXXX...................................",
".....................XXXX...................................",
".....................XXXX...................................",
".....................XXXX...................................",
".....................XXXX...................................",
".....................XXXX...................................",
".....................XXXX...................................",
".....................XXXX...................................",
".....................XXXX...................................",
".....................XXXX...................................",
".....................XXXX...................................",
".....................XXXX...................................",
".....................XXXX...................................",
".....................XXXX.................................. "};
