/* XPM */
static char * image_name[] = {
"47 46 10 1",
" 	c None",
".	c #040400006565",
"X	c #0C0C29291414",
"o	c #040467670606",
"O	c #04040000A6A6",
"+	c #040492920404",
"@	c #0404B6B60404",
"#	c #0404D7D70404",
"$	c #04040000E7E7",
"%	c #0404F4F40404",
"                    ........                   ",
"                X..Xo...........X              ",
"             X..ooooo..OOOOO....XXX            ",
"            ..Xooo.OOO+.OO.OO+O+oooX.          ",
"          X..OO..OO.OOOOOOOOO++++++oX.         ",
"          .....O.OOOOOOOOOO++@@++++ooo.        ",
"        ....OOOOOOO@@@@OOO@@@++@+++X++oX       ",
"       ....OO.OO.+@O@@@@@@@@#@@@@@@+++ooX.     ",
"       ..O.OOOOO@O#@@@#@##@@@@@+@@@+O++oo..    ",
"      ....OOO@OOO@$#@###@#@#@+##@@@@+@++oo.    ",
"     ...OOOOOO@###@############@@@@@@@+Xoo..   ",
"    ...O.OOO@#@#@################@+@@@@+++o.   ",
"    ..O.OO@@###@#####%%%#%###@#####@@@+++++o.  ",
"   ...OOO@@#O$$%###%##%%##%%##%$###@+@@++++... ",
"   ....OO@@$$$#$###$$%##$%#$#%#######@+@+++o.. ",
"   ...OO+O$O$$$$##$$$$%%$$%#%%##%%###@@@@+++.. ",
"  ...+O@@@#@#$$$%$##%%%%%$%%%#%%%######@+@++o..",
"  ..OO+@@@@#O$$$$$$#%%%%%$#%%%%##%####@@@@++o. ",
"  ...+@@@@###$$$$$$$%%%%%#%#%%%%%######@@++++..",
"  .O++@@@@#####%#$$$%%%%%%%%#%#%%%##%#@@@@++O..",
" ...++@@####%#%#%#%%%%%%$%%%%%%%%%%####@#@@O...",
"  ..+@@@@###%#%#%#%$%%%%$$%%%%%####%####+@@@.O.",
" ..o+++@+@@#%#%%%%%$%%%%%%$$$$$#%%####$$#@@+O..",
" ..O+@++@@#####%#%%%$%%%%%%%#$$$######OOOO+++O.",
" ...++@@#@###%%#%%%%$%%%%%%%$$$$$$%##$$$OO@@O.o",
" ...++@@@@@###%##%#%#$%%%%%$$$$$$$##$$$O$$OO.Oo",
"  .O+@+@@@@#%%##%%%%%$%%%%$$$$$$$$$%$$OO$OOOOOo",
" ...OOOO#@#####%##%%%%%$$$$$$$$$$$$#$$$OOOO+Ooo",
"  ...OOO@@#####%%%%#%%#$%$$$$$$$$$$$$$$$OO++Oo.",
"  ....OOOO#@###%%%%#%%%%%$$$$$$$$$$$$OOO$OO+o..",
"  ...OOOO#@#@#####%%%%%%$$$$$$$$$$$$$$OOOOOOOX.",
"   ....OO@@#@###%%#$%%%%$$$$$$$$$$$$$$$O$OO.O. ",
"   ..OOOOO@@+######%#%$$$$$$$$$$$$$OOOOOOO.O.. ",
"   ....OOOO@########%$$$$$$$$$$$$$$OOOOO.O.... ",
"    ....OOO@@##@###%$$$$$$$$$$$$$OO$$$OOOOO..X ",
"     ...OOO@@@@######$$$$$$$$$$$$$O$OOOOO...X  ",
"     ...OOO@@@@@###%#$$$$$$$$$OOO$OOOOOO...    ",
"      ....O+@++@@@@@#O$$#$O$$O$$OO$OOOOO...X   ",
"      ....OO+@@+@@@#@$$#@$OOO$$OOOOOOO....     ",
"       ....O++++@@@OO$O@#$OO$OO$OOOOO.O...     ",
"        .....++o++@OOO@@OO$OOOOOOOO..O...      ",
"          ...Oo+++@OOOOOOOOOO$OOOO.O...        ",
"           ....oo+OOOOOOOO$OO.OO.O...          ",
"             ...O.O.OOO.OOO.OO.......          ",
"              ......O.OOO...O......            ",
"                ................               "};
