/* XPM */
static char * image_name[] = {
"60 40 4 1",
" 	c None",
".	c #00000000FFFF",
"X	c #FFFFFFFFFFFF",
"o	c #FFFF00000000",
"....................XXXXXXXXXXXXXXXXXXXXoooooooooooooooooooo",
"....................XXXXXXXXXXXXXXXXXXXXoooooooooooooooooooo",
"....................XXXXXXXXXXXXXXXXXXXXoooooooooooooooooooo",
"....................XXXXXXXXXXXXXXXXXXXXoooooooooooooooooooo",
"....................XXXXXXXXXXXXXXXXXXXXoooooooooooooooooooo",
"....................XXXXXXXXXXXXXXXXXXXXoooooooooooooooooooo",
"....................XXXXXXXXXXXXXXXXXXXXoooooooooooooooooooo",
"....................XXXXXXXXXXXXXXXXXXXXoooooooooooooooooooo",
"....................XXXXXXXXXXXXXXXXXXXXoooooooooooooooooooo",
"....................XXXXXXXXXXXXXXXXXXXXoooooooooooooooooooo",
"....................XXXXXXXXXXXXXXXXXXXXoooooooooooooooooooo",
"....................XXXXXXXXXXXXXXXXXXXXoooooooooooooooooooo",
"....................XXXXXXXXXXXXXXXXXXXXoooooooooooooooooooo",
"....................XXXXXXXXXXXXXXXXXXXXoooooooooooooooooooo",
"....................XXXXXXXXXXXXXXXXXXXXoooooooooooooooooooo",
"....................XXXXXXXXXXXXXXXXXXXXoooooooooooooooooooo",
"....................XXXXXXXXXXXXXXXXXXXXoooooooooooooooooooo",
"....................XXXXXXXXXXXXXXXXXXXXoooooooooooooooooooo",
"....................XXXXXXXXXXXXXXXXXXXXoooooooooooooooooooo",
"....................XXXXXXXXXXXXXXXXXXXXoooooooooooooooooooo",
"....................XXXXXXXXXXXXXXXXXXXXoooooooooooooooooooo",
"....................XXXXXXXXXXXXXXXXXXXXoooooooooooooooooooo",
"....................XXXXXXXXXXXXXXXXXXXXoooooooooooooooooooo",
"....................XXXXXXXXXXXXXXXXXXXXoooooooooooooooooooo",
"....................XXXXXXXXXXXXXXXXXXXXoooooooooooooooooooo",
"....................XXXXXXXXXXXXXXXXXXXXoooooooooooooooooooo",
"....................XXXXXXXXXXXXXXXXXXXXoooooooooooooooooooo",
"....................XXXXXXXXXXXXXXXXXXXXoooooooooooooooooooo",
"....................XXXXXXXXXXXXXXXXXXXXoooooooooooooooooooo",
"....................XXXXXXXXXXXXXXXXXXXXoooooooooooooooooooo",
"....................XXXXXXXXXXXXXXXXXXXXoooooooooooooooooooo",
"....................XXXXXXXXXXXXXXXXXXXXoooooooooooooooooooo",
"....................XXXXXXXXXXXXXXXXXXXXoooooooooooooooooooo",
"....................XXXXXXXXXXXXXXXXXXXXoooooooooooooooooooo",
"....................XXXXXXXXXXXXXXXXXXXXoooooooooooooooooooo",
"....................XXXXXXXXXXXXXXXXXXXXoooooooooooooooooooo",
"....................XXXXXXXXXXXXXXXXXXXXoooooooooooooooooooo",
"....................XXXXXXXXXXXXXXXXXXXXoooooooooooooooooooo",
"....................XXXXXXXXXXXXXXXXXXXXoooooooooooooooooooo",
"....................XXXXXXXXXXXXXXXXXXXXooooooooooooooooooo "};
