/* XPM */
static char * image_name[] = {
"48 48 46 1",
" 	c None",
".	c #FFFFFFFFFFFF",
"X	c #FFFFEFEFEFEF",
"o	c #595955555151",
"O	c #FFFFFBFBFFFF",
"+	c #616161616161",
"@	c #717141415959",
"#	c #C7C79A9AAEAE",
"$	c #CFCF5D5D5959",
"%	c #000000000000",
"&	c #AEAEAAAAAEAE",
"*	c #DFDFDBDBDFDF",
"=	c #E7E7CFCFC7C7",
"-	c #BEBEBEBEAEAE",
";	c #71718A8A9696",
":	c #797971716161",
">	c #9E9E59596161",
",	c #EFEFFBFBFFFF",
"<	c #EFEFEBEBEFEF",
"1	c #EFEFDBDBEFEF",
"2	c #E7E7E3E3E7E7",
"3	c #DFDFEBEBDFDF",
"4	c #EFEFDBDBDFDF",
"5	c #DFDFCBCBDFDF",
"6	c #CFCFD7D7CFCF",
"7	c #CFCFCBCBCFCF",
"8	c #EFEFEBEBFFFF",
"9	c #DFDFBABACFCF",
"0	c #DFDFEBEBEFEF",
"q	c #494945454949",
"w	c #383834343030",
"e	c #202028282828",
"r	c #414138384949",
"t	c #FFFF9A9A7171",
"y	c #202020202020",
"u	c #101030302020",
"i	c #9E9EA2A2B6B6",
"p	c #717161617171",
"a	c #303034344141",
"s	c #616171716161",
"d	c #AEAE9A9AAEAE",
"f	c #616169697979",
"g	c #9E9E9A9AAEAE",
"h	c #616161617171",
"j	c #202010102020",
"k	c #595959596161",
"                                                ",
"                                                ",
"                                                ",
"                                                ",
"                                                ",
"                                                ",
"                                  .Xo           ",
"                                 O  o           ",
"                               XOOOO o          ",
"                             OOOOOOOO+          ",
"                           XOOOOOOOOOO@         ",
"                         OOOOOOOOOOOOOo         ",
"                       XOOOOOOOOo#OOOOOo        ",
"                     OOOOOOOOO$oOOOOOOO@        ",
"                   XOOOOOOOO%&OOOOOOoOOO@       ",
"                 OOOOOOOOO&$OOOOOOo$OOOOo       ",
"               X*=*=*=*=$%*=*=*=$o*=*=*=*o      ",
"             O*#-#-#-#%$-#-#-#oo-#-#-#o#-+;     ",
"            ##::>:::%@@@@@@@%o@@@@@@%%@@@@@     ",
"   .,O,O,O,O,O,O,O,O,O,O,O,O,O,O,O,O,O,O,O,O    ",
"   <X<X<<<1<1212131*1*4***4***5*5=5=565757=,o   ",
"   8@@9@-@@<0<0<3131323**23*****6*6*56575=6,%q  ",
"   <X<<<<<<2121313134*4*4******=5=566w$$$e=,%rq ",
"   8@@@<@<@@0<31313232*23*****6*6*655t=o>$7,%yr ",
"   <<<<<<2121313134*4*4******=5=56566te@$w=,%yq ",
"   <@@@<@<@@@@313232323*****6*6*65655$eeq$6,%yr ",
"   <X<<2121212134*4*4******=5=5=5=566eeeeu7,%yq ",
"   8<<<<<<01013131323**2******6565666566677,%yr ",
"   <<<1<1212131*1*4*******5*5=5=565757=7775,%yr ",
"   <0<<<0<0<-#31&2&*i23*6***6*6*6566666777*,%yr ",
"   <<<<21213%:p6=:as%7pwp**=5=565656=7=7=7*,%yr ",
"   <<<0<0<32323232323232**6*6*656566667677*,%yr ",
"   <<2121313ps4*a&dw**w*d=5=a65656=777=7775,%yr ",
"   <0<0<3131f6fai%6awp%*sd%*wg6566676667-7*,%yr ",
"   21213131*4*4*4*4*4*4*4*4*4656=7=7=77776*,%yr ",
"   <0<313132f5%&6a6&6pi*6p3h6pw6s5w6677775*,%yr ",
"   21313134*ps=s&spwp6%+5sw+5ww+++w777-7765,%yr ",
"   <313132323232****6*626565666666677777-6*,%yr ",
"   212134*4*4******=5=5=5=56=7=7=777777--6*,%yr ",
"   1013131323**2******6565656566677777-7-5*,%ya ",
"   2131*1*4*******5*565=565757=777775657565,%ya ",
"   <3131323***3*6***6***6***6***6***6***6**,%ya ",
"   ,,,,,,,,,,,,,,,,,,,,,,,,,,,,,,,,,,,,,,,,,%yr ",
"   %%%%%%%%%%%%%%%%%%%%%%%%%%%%%%%%%%%%%%%%%%ya ",
"    qyyyyyyyyyyyyyyyyyyyyyyyyyyyyyyyyyyyyyjyjra ",
"      qqqqqqqqqqrqqqrqrqrqrqrqrrrrrrrrrrararark ",
"                                                ",
"                                                "};
