/* XPM */
static char * image_name[] = {
"48 48 45 1",
" 	c None",
".	c #FFFFFFFFFFFF",
"X	c #EFEFFBFBFFFF",
"o	c #FFFFFBFBFFFF",
"O	c #EFEFEBEBEFEF",
"+	c #FFFFEFEFEFEF",
"@	c #EFEFDBDBEFEF",
"#	c #E7E7E3E3E7E7",
"$	c #DFDFEBEBDFDF",
"%	c #DFDFDBDBDFDF",
"&	c #EFEFDBDBDFDF",
"*	c #DFDFCBCBDFDF",
"=	c #E7E7CFCFC7C7",
"-	c #CFCFD7D7CFCF",
";	c #CFCFCBCBCFCF",
":	c #595955555151",
">	c #EFEFEBEBFFFF",
",	c #717141415959",
"<	c #DFDFBABACFCF",
"1	c #BEBEBEBEAEAE",
"2	c #DFDFEBEBEFEF",
"3	c #000000000000",
"4	c #494945454949",
"5	c #383834343030",
"6	c #CFCF5D5D5959",
"7	c #202028282828",
"8	c #414138384949",
"9	c #FFFF9A9A7171",
"0	c #9E9E59596161",
"q	c #202020202020",
"w	c #101030302020",
"e	c #C7C79A9AAEAE",
"r	c #AEAEAAAAAEAE",
"t	c #9E9EA2A2B6B6",
"y	c #797971716161",
"u	c #717161617171",
"i	c #303034344141",
"p	c #616171716161",
"a	c #AEAE9A9AAEAE",
"s	c #616169697979",
"d	c #9E9E9A9AAEAE",
"f	c #616161617171",
"g	c #616161616161",
"h	c #202010102020",
"j	c #595959596161",
"                                                ",
"                                                ",
"                                                ",
"                                                ",
"                                                ",
"                                                ",
"                                                ",
"                                                ",
"                                                ",
"                                                ",
"                                                ",
"                                                ",
"                                                ",
"                                                ",
"                                                ",
"                                                ",
"                                                ",
"                                                ",
"                                                ",
"   .XoXoXoXoXoXoXoXoXoXoXoXoXoXoXoXoXoXoXoXo    ",
"   O+O+OOO@O@#@#@$@%@%&%%%&%%%*%*=*=*-*;*;=X:   ",
"   >,,<,1,,O2O2O$@$@$#$%%#$%%%%%-%-%*-*;*=-X34  ",
"   O+OOOOOO#@#@$@$@$&%&%&%%%%%%=*=*--56667=X384 ",
"   >,,,O,O,,2O$@$@$#$#%#$%%%%%-%-%-**9=:06;X3q8 ",
"   OOOOOO#@#@$@$@$&%&%&%%%%%%=*=*-*--97,65=X3q4 ",
"   O,,,O,O,,,,$@$#$#$#$%%%%%-%-%-*-**67746-X3q8 ",
"   O+OO#@#@#@#@$&%&%&%%%%%%=*=*=*=*--7777w;X3q4 ",
"   >OOOOOO2@2@$@$@$#$%%#%%%%%%-*-*---*---;;X3q8 ",
"   OOO@O@#@#@$@%@%&%%%%%%%*%*=*=*-*;*;=;;;*X3q8 ",
"   O2OOO2O2O1e$@r#r%t#$%-%%%-%-%-*-----;;;%X3q8 ",
"   OOOO#@#@$3yu-=yip3;u5u%%=*=*-*-*-=;=;=;%X3q8 ",
"   OOO2O2O$#$#$#$#$#$#$#%%-%-%-*-*----;-;;%X3q8 ",
"   OO#@#@$@$up&%ira5%%5%a=*=i-*-*-=;;;=;;;*X3q8 ",
"   O2O2O$@$@s-sit3-i5u3%pa3%5d-*---;---;1;%X3q8 ",
"   #@#@$@$@%&%&%&%&%&%&%&%&%&-*-=;=;=;;;;-%X3q8 ",
"   O2O$@$@$#s*3r-i-r-ut%-u$f-u5-p*5--;;;;*%X3q8 ",
"   #@$@$@$&%up=prpu5u-3g*p5g*55ggg5;;;1;;-*X3q8 ",
"   O$@$@$#$#$#$#%%%%-%-#-*-*-------;;;;;1-%X3q8 ",
"   #@#@$&%&%&%%%%%%=*=*=*=*-=;=;=;;;;;;11-%X3q8 ",
"   @2@$@$@$#$%%#%%%%%%-*-*-*-*---;;;;;1;1*%X3qi ",
"   #@$@%@%&%%%%%%%*%*-*=*-*;*;=;;;;;*-*;*-*X3qi ",
"   O$@$@$#$%%%$%-%%%-%%%-%%%-%%%-%%%-%%%-%%X3qi ",
"   XXXXXXXXXXXXXXXXXXXXXXXXXXXXXXXXXXXXXXXXX3q8 ",
"   333333333333333333333333333333333333333333qi ",
"    4qqqqqqqqqqqqqqqqqqqqqqqqqqqqqqqqqqqqqhqh8i ",
"      4444444444844484848484848888888888i8i8i8j ",
"                                                ",
"                                                "};
