/* XPM */
static char * image_name[] = {
"48 48 42 1",
" 	c None",
".	c #FBFBFBFBFBFB",
"X	c #BFBFBFBFBFBF",
"o	c #8F8F8F8F8F8F",
"O	c #E7E7E7E7E7E7",
"+	c #DFDFDFDFDFDF",
"@	c #D7D7D7D7D7D7",
"#	c #A7A7A7A7A7A7",
"$	c #636363636363",
"%	c #CFCFCFCFCFCF",
"&	c #434343434343",
"*	c #C7C7C7C7C7C7",
"=	c #9F9F9F9F9F9F",
"-	c #B7B7B7B7B7B7",
";	c #000000000000",
":	c #1E1E1C1C1A1A",
">	c #84847D7D7B7B",
",	c #B9B9AFAFA6A6",
"<	c #DADAD3D3CACA",
"1	c #F5F5EBEBDFDF",
"2	c #979797979797",
"3	c #63635F5F5B5B",
"4	c #FFFFFFFFFFFF",
"5	c #FDFDFBFBF3F3",
"6	c #9D9D94948D8D",
"7	c #363634343131",
"8	c #3B3B3B3B3B3B",
"9	c #080808080404",
"0	c #878787878787",
"q	c #4A4A46464242",
"w	c #AFAFAFAFAFAF",
"e	c #7F7F7F7F7F7F",
"r	c #080800000000",
"t	c #101008080808",
"y	c #777777777777",
"u	c #101010101010",
"i	c #6F6F6F6F6F6F",
"p	c #2F2F2F2F2F2F",
"a	c #5B5B5B5B5B5B",
"s	c #535353535353",
"d	c #8383FFFF8383",
"f	c #4B4B4B4B4B4B",
"                                                ",
"                                                ",
"  ..........................................Xo  ",
" .OOOOOOOOO+O+O++++++++++++++++@+++@@@+@@@@@@#$ ",
" .OO+OOO+O+O+O+O+O+++O++++++@+@+@+@+@+@+@+%@%#& ",
" .OOOOOOO+O+O++++++++++++++++++++@+@+@@@@@%%%#& ",
" .+O+************************************@%%%=& ",
" .OOO*&&&&&&&&&&&&&&&&&&&&&&&&&&&&&&&&&&&-%*%=& ",
" .+O+*&;;;;;;;;;;;;;;;;;;;;;;;;;;;;;;;;;;.*%*=& ",
" .OOO*&;;;;;;;;;;:>,<111111<,>:;;;;;;;;;;.***2& ",
" .+O+*&;;;;;;;;;314444444444441>;;;;;;;;;.X*X2& ",
" .O+O*&;;;;;;;;344444444444444456;;;;;;;;.XXX2& ",
" .+O+*&;;;;;;;:<544444444444444453;;;;;;;.XX-o& ",
" .O+O*&;;;;;;;>155444441144444444,;;;;;;;.X-Xo& ",
" .+O+*&;;;;;;;6115544,37:3,444444<;;;;;;;.-X-o8 ",
" .O++*&;;;;;;;,<1115<:9;;;:<444551:;;;;;;.---08 ",
" .+O+*&;;;;;;;,<<111,9;;;;9,555111q;;;;;;.w-w08 ",
" .+++*&;;;;;;:,<<<1111<1111151111<3;;;;;;.www08 ",
" .+O+*&;;;;;;:,,<<<<<1111111111<<<3;;;;;;.#w#e8 ",
" .+++*&;;;;;;:,,,,<<<<<1<1<1<<<<<<q;;;;;;.w##e8 ",
" .+++*&;;;;;;:666,,,,,,<,<,<<<<,<,3;;;;;;.###e8 ",
" .+++*&;;;;;;;;;;;;;;r;;;;t6,<,,,,q;;;;;;.###y8 ",
" .+++*&;;;;;;;u::::::;;;;;t6,,,,,6q;;;;;;.=#=y8 ",
" .+++*&;;;;;;u>>>666>u;;;;u6,,,6667;;;;;;.===ip ",
" .@+@*&;;;;;;;>>66666q:;9:q666666>u;;;;;;.2=2ip ",
" .+++*&;;;;;;;3>>>666>>3>3666666>3;;;;;;;.222ip ",
" .@+@*&;;;;;;;q>>>>>6>6>666>6>>>>q;;;;;;;.o2o$p ",
" .+@+*&;;;;;;;:>>>>>>>>>>>>>>>>>3u;;;;;;;.2oo$p ",
" .@+@*&;;;;;;;;q3>>>>>>>>>>>>3>3:;;;;;;;;.ooo$p ",
" .+@+*&;;;;;;;;;73333>3>3>33>3qt;;;;;;;;;.oooap ",
" .@+@*&;;;;;;;;;;;:7qqqqqqq7u;;;;;;;;;;;;.0o0ap ",
" .+@@*&;;;;;;;;;;;;;;;;;;;;;;;;;;;;;;;;;;.000ap ",
" .@+@*&;;;;;;;;;;;;;;;;;;;;;;;;;;;;;;;;;;.e0es; ",
" .@@@+-..................................%eees; ",
" .@@%@*%**X*XX-X--w-ww##=#==2=22oo0o0$$$yeyeys; ",
" .@%%%%****XXXX----www###====222ooo00$dd-eeyyf; ",
" X@@%@%%*%X*XX-X--ww#w##=#==2=22o2oo00---eyeyf; ",
" o####====222oooo000eeeeyyyiiii$$$aaaasssfffff; ",
"  $&&&&&&&&&&&&88888888888ppppppppppp;;;;;;;;;  ",
"           @&&&&&&0*#20$s&&8ppppp8sss           ",
"          @*$$$$$s$0#20$s&8pp88&syyyy;          ",
"         @*2000000y$$&&&&888&s$000000y;         ",
"        @*-########22200000222#######-y;        ",
"       @@@@@@@@%%%%%%%%%%%%************y;       ",
"       @################################;       ",
"       @################################;       ",
"        ;;;;;;;;;;;;;;;;;;;;;;;;;;;;;;;;        ",
"                                                "};
