/* XPM */
static char * image_name[] = {
"48 48 40 1",
" 	c None",
".	c #FBFBFBFBFBFB",
"X	c #BFBFBFBFBFBF",
"o	c #8F8F8F8F8F8F",
"O	c #E7E7E7E7E7E7",
"+	c #DFDFDFDFDFDF",
"@	c #D7D7D7D7D7D7",
"#	c #A7A7A7A7A7A7",
"$	c #636363636363",
"%	c #CFCFCFCFCFCF",
"&	c #434343434343",
"*	c #C7C7C7C7C7C7",
"=	c #9F9F9F9F9F9F",
"-	c #B7B7B7B7B7B7",
";	c #000000000000",
":	c #181818181818",
">	c #32322F2F2D2D",
",	c #21211E1E1B1B",
"<	c #181814141010",
"1	c #585854544E4E",
"2	c #656560605A5A",
"3	c #52524A4A4A4A",
"4	c #464642423D3D",
"5	c #080808080808",
"6	c #979797979797",
"7	c #73736D6D6868",
"8	c #63635A5A5252",
"9	c #4E4E4A4A4242",
"0	c #3B3B3B3B3B3B",
"q	c #101010101010",
"w	c #878787878787",
"e	c #AFAFAFAFAFAF",
"r	c #7F7F7F7F7F7F",
"t	c #777777777777",
"y	c #6F6F6F6F6F6F",
"u	c #2F2F2F2F2F2F",
"i	c #5B5B5B5B5B5B",
"p	c #535353535353",
"a	c #8383FFFF8383",
"s	c #4B4B4B4B4B4B",
"                                                ",
"                                                ",
"  ..........................................Xo  ",
" .OOOOOOOOO+O+O++++++++++++++++@+++@@@+@@@@@@#$ ",
" .OO+OOO+O+O+O+O+O+++O++++++@+@+@+@+@+@+@+%@%#& ",
" .OOOOOOO+O+O++++++++++++++++++++@+@+@@@@@%%%#& ",
" .+O+************************************@%%%=& ",
" .OOO*&&&&&&&&&&&&&&&&&&&&&&&&&&&&&&&&&&&-%*%=& ",
" .+O+*&;;;;;;;;;;;;;:>>,<;;;;;;;;;;;;;;;;.*%*=& ",
" .OOO*&;;;;;;;;;;;,12222134,5;;;;;;;;;;;;.***6& ",
" .+O+*&;;;;;;;;;,427722221883,;;;;;;;;;;;.X*X6& ",
" .O+O*&;;;;;;;;,91777728821888>;;;;;;;;;;.XXX6& ",
" .+O+*&;;;;;;;;4427772222121281,;;;;;;;;;.XX-o& ",
" .O+O*&;;;;;;;,44777722281288884;;;;;;;;;.X-Xo& ",
" .+O+*&;;;;;;;>497777229>,>18811;;;;;;;;;.-X-o0 ",
" .O++*&;;;;;;;>49777222:,>>>2121q;;;;;;;;.---w0 ",
" .+O+*&;;;;;;;>43777728<<4441888,;;;;;;;;.e-ew0 ",
" .+++*&;;;;;;;>43772228811111818,;;;;;;;;.eeew0 ",
" .+O+*&;;;;;;;449722281811112118,;;;;;;;;.#e#r0 ",
" .+++*&;;;;;;;>49228218111311111>;;;;;;;;.e##r0 ",
" .+++*&;;;;;;;>>4111339393311113,;;;;;;;;.###r0 ",
" .+++*&;;;;;;;;;;;;;;;;;,9391313,;;;;;;;;.###t0 ",
" .+++*&;;;;;;;;;;;;55;;;:3993931,;;;;;;;;.=#=t0 ",
" .+++*&;;;;;;;>>49933445>9393393:;;;;;;;;.===yu ",
" .@+@*&;;;;;;;,>4313333>413194945;;;;;;;;.6=6yu ",
" .+++*&;;;;;;;,>>191993933994994;;;;;;;;;.666yu ",
" .@+@*&;;;;;;;,>>93399999494994>;;;;;;;;;.o6o$u ",
" .+@+*&;;;;;;;5>,493999994949445;;;;;;;;;.6oo$u ",
" .@+@*&;;;;;;;;<>>999494949494:;;;;;;;;;;.ooo$u ",
" .+@+*&;;;;;;;;;5,4494949444>5;;;;;;;;;;;.oooiu ",
" .@+@*&;;;;;;;;;;;5,4>4>>><;;;;;;;;;;;;;;.wowiu ",
" .+@@*&;;;;;;;;;;;;;;;;;;;;;;;;;;;;;;;;;;.wwwiu ",
" .@+@*&;;;;;;;;;;;;;;;;;;;;;;;;;;;;;;;;;;.rwrp; ",
" .@@@+-..................................%rrrp; ",
" .@@%@*%**X*XX-X--e-ee##=#==6=66oowow$$$trtrtp; ",
" .@%%%%****XXXX----eee###====666oooww$aa-rrtts; ",
" X@@%@%%*%X*XX-X--ee#e##=#==6=66o6ooww---rtrts; ",
" o####====666oooowwwrrrrtttyyyy$$$iiiipppsssss; ",
"  $&&&&&&&&&&&&00000000000uuuuuuuuuuu;;;;;;;;;  ",
"           @&&&&&&w*#6w$p&&0uuuuu0ppp           ",
"          @*$$$$$p$w#6w$p&0uu00&ptttt;          ",
"         @*6wwwwwwt$$&&&&000&p$wwwwwwt;         ",
"        @*-########666wwwww666#######-t;        ",
"       @@@@@@@@%%%%%%%%%%%%************t;       ",
"       @################################;       ",
"       @################################;       ",
"        ;;;;;;;;;;;;;;;;;;;;;;;;;;;;;;;;        ",
"                                                "};
