/* XPM */
static char * image_name[] = {
"48 48 41 1",
" 	c None",
".	c #FBFBFBFBFBFB",
"X	c #BFBFBFBFBFBF",
"o	c #8F8F8F8F8F8F",
"O	c #E7E7E7E7E7E7",
"+	c #DFDFDFDFDFDF",
"@	c #D7D7D7D7D7D7",
"#	c #A7A7A7A7A7A7",
"$	c #636363636363",
"%	c #CFCFCFCFCFCF",
"&	c #434343434343",
"*	c #C7C7C7C7C7C7",
"=	c #9F9F9F9F9F9F",
"-	c #B7B7B7B7B7B7",
";	c #000000000000",
":	c #1A1A16161414",
">	c #353533332F2F",
",	c #292929292929",
"<	c #676761615D5D",
"1	c #50504C4C4848",
"2	c #979797979797",
"3	c #313129292929",
"4	c #7D7D76767272",
"5	c #CFCFC4C4B8B8",
"6	c #A2A298989191",
"7	c #262623232121",
"8	c #F4F4EBEBE1E1",
"9	c #080808080808",
"0	c #3B3B3B3B3B3B",
"q	c #44443F3F3C3C",
"w	c #878787878787",
"e	c #AFAFAFAFAFAF",
"r	c #7F7F7F7F7F7F",
"t	c #777777777777",
"y	c #6F6F6F6F6F6F",
"u	c #2F2F2F2F2F2F",
"i	c #101008080808",
"p	c #5B5B5B5B5B5B",
"a	c #535353535353",
"s	c #8383FFFF8383",
"d	c #4B4B4B4B4B4B",
"                                                ",
"                                                ",
"  ..........................................Xo  ",
" .OOOOOOOOO+O+O++++++++++++++++@+++@@@+@@@@@@#$ ",
" .OO+OOO+O+O+O+O+O+++O++++++@+@+@+@+@+@+@+%@%#& ",
" .OOOOOOO+O+O++++++++++++++++++++@+@+@@@@@%%%#& ",
" .+O+************************************@%%%=& ",
" .OOO*&&&&&&&&&&&&&&&&&&&&&&&&&&&&&&&&&&&-%*%=& ",
" .+O+*&;;;;;;;;;;;;;;;::>::;;;;;;;;;;;;;;.*%*=& ",
" .OOO*&;;;;;;;;;;;;;;:,><<<11>;;;;;;;;;;;.***2& ",
" .+O+*&;;;;;;;;;;;;;:,3>45644<,;;;;;;;;;;.X*X2& ",
" .O+O*&;;;;;;;;;;;;;7,33488556<;;;;;;;;;;.XXX2& ",
" .+O+*&;;;;;;;;;;;;9,3331888554;;;;;;;;;;.XX-o& ",
" .O+O*&;;;;;;;;;;;;:,,>33888556;;;;;;;;;;.X-Xo& ",
" .+O+*&;;;;;;;;;;;;:,,,>3585556:;;;;;;;;;.-X-o0 ",
" .O++*&;;;;;;;;;;;;:3q>33556666:;;;;;;;;;.---w0 ",
" .+O+*&;;;;;;;;;;;;:164,3666664,;;;;;;;;;.e-ew0 ",
" .+++*&;;;;;;;;;;;;:<41,>466444,;;;;;;;;;.eeew0 ",
" .+O+*&;;;;;;;;;;;;:,3,,,4444<<,;;;;;;;;;.#e#r0 ",
" .+++*&;;;;;;;;;;;;:,,,,3<4<<<<7;;;;;;;;;.e##r0 ",
" .+++*&;;;;;;;;;;;;:>1111<1<1117;;;;;;;;;.###r0 ",
" .+++*&;;;;;;;;;;;;:<85551;;;;;;;;;;;;;;;.###t0 ",
" .+++*&;;;;;;;;;;;;:<8855<;;;;;;;;;;;;;;;.=#=t0 ",
" .+++*&;;;;;;;;;;;;7<8844<11qq>;;;;;;;;;;.===yu ",
" .@+@*&;;;;;;;;;;;;:q567,q111q1:;;;;;;;;;.2=2yu ",
" .+++*&;;;;;;;;;;;;:,>>,,q1q11qi;;;;;;;;;.222yu ",
" .@+@*&;;;;;;;;;;;;:7,7,,q11q1q;;;;;;;;;;.o2o$u ",
" .+@+*&;;;;;;;;;;;;;,,,7,qqq1qq;;;;;;;;;;.2oo$u ",
" .@+@*&;;;;;;;;;;;;;:,,73qqqq>,;;;;;;;;;;.ooo$u ",
" .+@+*&;;;;;;;;;;;;;97,7,,,,7,i;;;;;;;;;;.ooopu ",
" .@+@*&;;;;;;;;;;;;;;9:777:::i;;;;;;;;;;;.wowpu ",
" .+@@*&;;;;;;;;;;;;;;;;;;;;;;;;;;;;;;;;;;.wwwpu ",
" .@+@*&;;;;;;;;;;;;;;;;;;;;;;;;;;;;;;;;;;.rwra; ",
" .@@@+-..................................%rrra; ",
" .@@%@*%**X*XX-X--e-ee##=#==2=22oowow$$$trtrta; ",
" .@%%%%****XXXX----eee###====222oooww$ss-rrttd; ",
" X@@%@%%*%X*XX-X--ee#e##=#==2=22o2ooww---rtrtd; ",
" o####====222oooowwwrrrrtttyyyy$$$ppppaaaddddd; ",
"  $&&&&&&&&&&&&00000000000uuuuuuuuuuu;;;;;;;;;  ",
"           @&&&&&&w*#2w$a&&0uuuuu0aaa           ",
"          @*$$$$$a$w#2w$a&0uu00&atttt;          ",
"         @*2wwwwwwt$$&&&&000&a$wwwwwwt;         ",
"        @*-########222wwwww222#######-t;        ",
"       @@@@@@@@%%%%%%%%%%%%************t;       ",
"       @################################;       ",
"       @################################;       ",
"        ;;;;;;;;;;;;;;;;;;;;;;;;;;;;;;;;        ",
"                                                "};
