/* XPM */
static char * image_name[] = {
"48 48 41 1",
" 	c None",
".	c #FBFBFBFBFBFB",
"X	c #BFBFBFBFBFBF",
"o	c #8F8F8F8F8F8F",
"O	c #E7E7E7E7E7E7",
"+	c #DFDFDFDFDFDF",
"@	c #D7D7D7D7D7D7",
"#	c #A7A7A7A7A7A7",
"$	c #636363636363",
"%	c #CFCFCFCFCFCF",
"&	c #434343434343",
"*	c #C7C7C7C7C7C7",
"=	c #9F9F9F9F9F9F",
"-	c #B7B7B7B7B7B7",
";	c #000000000000",
":	c #080808080808",
">	c #1B1B1B1B1515",
",	c #292921212121",
"<	c #212121212121",
"1	c #101010101010",
"2	c #292929292121",
"3	c #393939393535",
"4	c #464642424242",
"5	c #424242423939",
"6	c #4F4F4C4C4747",
"7	c #393931313131",
"8	c #979797979797",
"9	c #6E6E68686262",
"0	c #2F2F2D2D2B2B",
"q	c #3B3B3B3B3B3B",
"w	c #878787878787",
"e	c #AFAFAFAFAFAF",
"r	c #424239393939",
"t	c #7F7F7F7F7F7F",
"y	c #777777777777",
"u	c #6F6F6F6F6F6F",
"i	c #2F2F2F2F2F2F",
"p	c #5B5B5B5B5B5B",
"a	c #535353535353",
"s	c #8383FFFF8383",
"d	c #4B4B4B4B4B4B",
"                                                ",
"                                                ",
"  ..........................................Xo  ",
" .OOOOOOOOO+O+O++++++++++++++++@+++@@@+@@@@@@#$ ",
" .OO+OOO+O+O+O+O+O+++O++++++@+@+@+@+@+@+@+%@%#& ",
" .OOOOOOO+O+O++++++++++++++++++++@+@+@@@@@%%%#& ",
" .+O+************************************@%%%=& ",
" .OOO*&&&&&&&&&&&&&&&&&&&&&&&&&&&&&&&&&&&-%*%=& ",
" .+O+*&;;;;;;;;;;;;;;;:>,<1;;;;;;;;;;;;;;.*%*=& ",
" .OOO*&;;;;;;;;;;;;;:234456647>;;;;;;;;;;.***8& ",
" .+O+*&;;;;;;;;;;;;1755444496962;;;;;;;;;.X*X8& ",
" .O+O*&;;;;;;;;;;;;7545445469696:;;;;;;;;.XXX8& ",
" .+O+*&;;;;;;;;;;;>5454554469969,;;;;;;;;.XX-o& ",
" .O+O*&;;;;;;;;;;;054444444696963;;;;;;;;.X-Xo& ",
" .+O+*&;;;;;;;;;;;345004444469665;;;;;;;;.-X-oq ",
" .O++*&;;;;;;;;;;;343333444496694;;;;;;;;.---wq ",
" .+O+*&;;;;;;;;;;:456964454566664;;;;;;;;.e-ewq ",
" .+++*&;;;;;;;;;;1349664445469666;;;;;;;;.eeewq ",
" .+O+*&;;;;;;;;;;143r445454466666;;;;;;;;.#e#tq ",
" .+++*&;;;;;;;;;;1553434545466664;;;;;;;;.e##tq ",
" .+++*&;;;;;;;;;;1773735454466664;;;;;;;;.###tq ",
" .+++*&;;;;;;;;;;;;;;;;,545546665;;;;;;;;.###yq ",
" .+++*&;;;;;;;;;;:,,7377543466445;;;;;;;;.=#=yq ",
" .+++*&;;;;;;;;;;1339999434444443;;;;;;;;.===ui ",
" .@+@*&;;;;;;;;;;:739999345454457;;;;;;;;.8=8ui ",
" .+++*&;;;;;;;;;;;734664455445442;;;;;;;;.888ui ",
" .@+@*&;;;;;;;;;;;03444554435r55<;;;;;;;;.o8o$i ",
" .+@+*&;;;;;;;;;;;,3335r45433303:;;;;;;;;.8oo$i ",
" .@+@*&;;;;;;;;;;;:035343430022>;;;;;;;;;.ooo$i ",
" .+@+*&;;;;;;;;;;;;:,334547222>;;;;;;;;;;.ooopi ",
" .@+@*&;;;;;;;;;;;;;;12002>1:;;;;;;;;;;;;.wowpi ",
" .+@@*&;;;;;;;;;;;;;;;;;;;;;;;;;;;;;;;;;;.wwwpi ",
" .@+@*&;;;;;;;;;;;;;;;;;;;;;;;;;;;;;;;;;;.twta; ",
" .@@@+-..................................%ttta; ",
" .@@%@*%**X*XX-X--e-ee##=#==8=88oowow$$$ytytya; ",
" .@%%%%****XXXX----eee###====888oooww$ss-ttyyd; ",
" X@@%@%%*%X*XX-X--ee#e##=#==8=88o8ooww---tytyd; ",
" o####====888oooowwwttttyyyuuuu$$$ppppaaaddddd; ",
"  $&&&&&&&&&&&&qqqqqqqqqqqiiiiiiiiiii;;;;;;;;;  ",
"           @&&&&&&w*#8w$a&&qiiiiiqaaa           ",
"          @*$$$$$a$w#8w$a&qiiqq&ayyyy;          ",
"         @*8wwwwwwy$$&&&&qqq&a$wwwwwwy;         ",
"        @*-########888wwwww888#######-y;        ",
"       @@@@@@@@%%%%%%%%%%%%************y;       ",
"       @################################;       ",
"       @################################;       ",
"        ;;;;;;;;;;;;;;;;;;;;;;;;;;;;;;;;        ",
"                                                "};
