/* XPM */
static char * image_name[] = {
"48 48 41 1",
" 	c None",
".	c #FBFBFBFBFBFB",
"X	c #BFBFBFBFBFBF",
"o	c #8F8F8F8F8F8F",
"O	c #E7E7E7E7E7E7",
"+	c #DFDFDFDFDFDF",
"@	c #D7D7D7D7D7D7",
"#	c #A7A7A7A7A7A7",
"$	c #636363636363",
"%	c #CFCFCFCFCFCF",
"&	c #434343434343",
"*	c #C7C7C7C7C7C7",
"=	c #9F9F9F9F9F9F",
"-	c #B7B7B7B7B7B7",
";	c #000000000000",
":	c #101010101010",
">	c #212121211C1C",
",	c #2B2B27272525",
"<	c #181810101010",
"1	c #101008080808",
"2	c #373735353232",
"3	c #464642423D3D",
"4	c #52524E4E4A4A",
"5	c #5A5A52524A4A",
"6	c #61615B5B5656",
"7	c #979797979797",
"8	c #4A4A4A4A4242",
"9	c #52524A4A4242",
"0	c #3B3B3B3B3B3B",
"q	c #878787878787",
"w	c #AFAFAFAFAFAF",
"e	c #181818181414",
"r	c #7F7F7F7F7F7F",
"t	c #777777777777",
"y	c #080808080808",
"u	c #6F6F6F6F6F6F",
"i	c #2F2F2F2F2F2F",
"p	c #5B5B5B5B5B5B",
"a	c #535353535353",
"s	c #8383FFFF8383",
"d	c #4B4B4B4B4B4B",
"                                                ",
"                                                ",
"  ..........................................Xo  ",
" .OOOOOOOOO+O+O++++++++++++++++@+++@@@+@@@@@@#$ ",
" .OO+OOO+O+O+O+O+O+++O++++++@+@+@+@+@+@+@+%@%#& ",
" .OOOOOOO+O+O++++++++++++++++++++@+@+@@@@@%%%#& ",
" .+O+************************************@%%%=& ",
" .OOO*&&&&&&&&&&&&&&&&&&&&&&&&&&&&&&&&&&&-%*%=& ",
" .+O+*&;;;;;;;;;;;;;;;;:>,,<;;;;;;;;;;;;;.*%*=& ",
" .OOO*&;;;;;;;;;;;;1,23455654,;;;;;;;;;;;.***7& ",
" .+O+*&;;;;;;;;;;;,344445566664>;;;;;;;;;.X*X7& ",
" .O+O*&;;;;;;;;;;,44444455566664,;;;;;;;;.XXX7& ",
" .+O+*&;;;;;;;;;>4434444555656668<;;;;;;;.XX-o& ",
" .O+O*&;;;;;;;;;38449494455566668,;;;;;;;.X-Xo& ",
" .+O+*&;;;;;;;;:348932,,2455566643;;;;;;;.-X-o0 ",
" .O++*&;;;;;;;;>34943,,>;345666633;;;;;;;.---q0 ",
" .+O+*&;;;;;;;;>4348383<:2445565331;;;;;;.w-wq0 ",
" .+++*&;;;;;;;;,849444434444556533e;;;;;;.wwwq0 ",
" .+O+*&;;;;;;;;,484344444344555533e;;;;;;.#w#r0 ",
" .+++*&;;;;;;;;,494484394494445533<;;;;;;.w##r0 ",
" .+++*&;;;;;;;;,843434933333434822e;;;;;;.###r0 ",
" .+++*&;;;;;;;;,8989444e;;;;;;;;;;;;;;;;;.###t0 ",
" .+++*&;;;;;;;;,8898444>;;;111;;;;;;;;;;;.=#=t0 ",
" .+++*&;;;;;;;;,3434444,;234444822y;;;;;;.===ui ",
" .@+@*&;;;;;;;;e43494554<3844444221;;;;;;.7=7ui ",
" .+++*&;;;;;;;;134349554448344432,;;;;;;;.777ui ",
" .@+@*&;;;;;;;;;29434444444544532,;;;;;;;.o7o$i ",
" .+@+*&;;;;;;;;;e844444494444443,e;;;;;;;.7oo$i ",
" .@+@*&;;;;;;;;;;>3444444444544,>;;;;;;;;.ooo$i ",
" .+@+*&;;;;;;;;;;;<23454444454,<;;;;;;;;;.ooopi ",
" .@+@*&;;;;;;;;;;;;;;>,333333>;;;;;;;;;;;.qoqpi ",
" .+@@*&;;;;;;;;;;;;;;;;;;;;;;;;;;;;;;;;;;.qqqpi ",
" .@+@*&;;;;;;;;;;;;;;;;;;;;;;;;;;;;;;;;;;.rqra; ",
" .@@@+-..................................%rrra; ",
" .@@%@*%**X*XX-X--w-ww##=#==7=77ooqoq$$$trtrta; ",
" .@%%%%****XXXX----www###====777oooqq$ss-rrttd; ",
" X@@%@%%*%X*XX-X--ww#w##=#==7=77o7ooqq---rtrtd; ",
" o####====777ooooqqqrrrrtttuuuu$$$ppppaaaddddd; ",
"  $&&&&&&&&&&&&00000000000iiiiiiiiiii;;;;;;;;;  ",
"           @&&&&&&q*#7q$a&&0iiiii0aaa           ",
"          @*$$$$$a$q#7q$a&0ii00&atttt;          ",
"         @*7qqqqqqt$$&&&&000&a$qqqqqqt;         ",
"        @*-########777qqqqq777#######-t;        ",
"       @@@@@@@@%%%%%%%%%%%%************t;       ",
"       @################################;       ",
"       @################################;       ",
"        ;;;;;;;;;;;;;;;;;;;;;;;;;;;;;;;;        ",
"                                                "};
