/* XPM */
static char * image_name[] = {
"48 48 40 1",
" 	c None",
".	c #FBFBFBFBFBFB",
"X	c #BFBFBFBFBFBF",
"o	c #8F8F8F8F8F8F",
"O	c #E7E7E7E7E7E7",
"+	c #DFDFDFDFDFDF",
"@	c #D7D7D7D7D7D7",
"#	c #A7A7A7A7A7A7",
"$	c #636363636363",
"%	c #CFCFCFCFCFCF",
"&	c #434343434343",
"*	c #C7C7C7C7C7C7",
"=	c #9F9F9F9F9F9F",
"-	c #B7B7B7B7B7B7",
";	c #000000000000",
":	c #101010100C0C",
">	c #212121212121",
",	c #32322F2F2D2D",
"<	c #212121211818",
"1	c #1A1A16161414",
"2	c #4A4A46463F3F",
"3	c #5F5F5A5A5555",
"4	c #72726C6C6666",
"5	c #95958C8C8585",
"6	c #979797979797",
"7	c #525252524A4A",
"8	c #5A5A52524A4A",
"9	c #52524A4A4A4A",
"0	c #3B3B3B3B3B3B",
"q	c #878787878787",
"w	c #AFAFAFAFAFAF",
"e	c #7F7F7F7F7F7F",
"r	c #777777777777",
"t	c #6F6F6F6F6F6F",
"y	c #2F2F2F2F2F2F",
"u	c #080808080808",
"i	c #5B5B5B5B5B5B",
"p	c #535353535353",
"a	c #8383FFFF8383",
"s	c #4B4B4B4B4B4B",
"                                                ",
"                                                ",
"  ..........................................Xo  ",
" .OOOOOOOOO+O+O++++++++++++++++@+++@@@+@@@@@@#$ ",
" .OO+OOO+O+O+O+O+O+++O++++++@+@+@+@+@+@+@+%@%#& ",
" .OOOOOOO+O+O++++++++++++++++++++@+@+@@@@@%%%#& ",
" .+O+************************************@%%%=& ",
" .OOO*&&&&&&&&&&&&&&&&&&&&&&&&&&&&&&&&&&&-%*%=& ",
" .+O+*&;;;;;;;;;;;;;;;;:>,,<;;;;;;;;;;;;;.*%*=& ",
" .OOO*&;;;;;;;;;;;;1,233445543:;;;;;;;;;;.***6& ",
" .+O+*&;;;;;;;;;;12733344455555>;;;;;;;;;.X*X6& ",
" .O+O*&;;;;;;;;;1273333344455555>;;;;;;;;.XXX6& ",
" .+O+*&;;;;;;;;;278373334445555531;;;;;;;.XX-o& ",
" .O+O*&;;;;;;;;<77783333344455554,;;;;;;;.X-Xo& ",
" .+O+*&;;;;;;;;,77779,,>,34455555,;;;;;;;.-X-o0 ",
" .O++*&;;;;;;;;22777,,>:;,34455552;;;;;;;.---q0 ",
" .+O+*&;;;;;;;;2797722>;:>444545421;;;;;;.w-wq0 ",
" .+++*&;;;;;;;;297979787333444554,<;;;;;;.wwwq0 ",
" .+O+*&;;;;;;;;277997788333344445,<;;;;;;.#w#e0 ",
" .+++*&;;;;;;;;279999773733343453,<;;;;;;.w##e0 ",
" .+++*&;;;;;;;;222222222773334444,<;;;;;;.###e0 ",
" .+++*&;;;;;;;;;;;;;;;;;;<333344321;;;;;;.###r0 ",
" .+++*&;;;;;;;;>>>>>>>1;;>3333343,1;;;;;;.=#=r0 ",
" .+++*&;;;;;;;;2279992,;;>3333333,1;;;;;;.===ty ",
" .@+@*&;;;;;;;;29279988,:27333347,u;;;;;;.6=6ty ",
" .+++*&;;;;;;;;,77927377778333332,;;;;;;;.666ty ",
" .@+@*&;;;;;;;;,7777778378333333,1;;;;;;;.o6o$y ",
" .+@+*&;;;;;;;;12778788373783339<;;;;;;;;.6oo$y ",
" .@+@*&;;;;;;;;;<27888373737337>u;;;;;;;;.ooo$y ",
" .+@+*&;;;;;;;;;;1,98883783832>;;;;;;;;;;.oooiy ",
" .@+@*&;;;;;;;;;;;;;1>,,2,2,>;;;;;;;;;;;;.qoqiy ",
" .+@@*&;;;;;;;;;;;;;;;;;;;;;;;;;;;;;;;;;;.qqqiy ",
" .@+@*&;;;;;;;;;;;;;;;;;;;;;;;;;;;;;;;;;;.eqep; ",
" .@@@+-..................................%eeep; ",
" .@@%@*%**X*XX-X--w-ww##=#==6=66ooqoq$$$rererp; ",
" .@%%%%****XXXX----www###====666oooqq$aa-eerrs; ",
" X@@%@%%*%X*XX-X--ww#w##=#==6=66o6ooqq---erers; ",
" o####====666ooooqqqeeeerrrtttt$$$iiiipppsssss; ",
"  $&&&&&&&&&&&&00000000000yyyyyyyyyyy;;;;;;;;;  ",
"           @&&&&&&q*#6q$p&&0yyyyy0ppp           ",
"          @*$$$$$p$q#6q$p&0yy00&prrrr;          ",
"         @*6qqqqqqr$$&&&&000&p$qqqqqqr;         ",
"        @*-########666qqqqq666#######-r;        ",
"       @@@@@@@@%%%%%%%%%%%%************r;       ",
"       @################################;       ",
"       @################################;       ",
"        ;;;;;;;;;;;;;;;;;;;;;;;;;;;;;;;;        ",
"                                                "};
