/* XPM */
static char * image_name[] = {
"48 48 40 1",
" 	c None",
".	c #FBFBFBFBFBFB",
"X	c #BFBFBFBFBFBF",
"o	c #8F8F8F8F8F8F",
"O	c #E7E7E7E7E7E7",
"+	c #DFDFDFDFDFDF",
"@	c #D7D7D7D7D7D7",
"#	c #A7A7A7A7A7A7",
"$	c #636363636363",
"%	c #CFCFCFCFCFCF",
"&	c #434343434343",
"*	c #C7C7C7C7C7C7",
"=	c #9F9F9F9F9F9F",
"-	c #B7B7B7B7B7B7",
";	c #000000000000",
":	c #262623232323",
">	c #7D7D7A7A7777",
",	c #B6B6ACACA3A3",
"<	c #D9D9D2D2CACA",
"1	c #F6F6ECECDEDE",
"2	c #FAFAF8F8F2F2",
"3	c #97978F8F8787",
"4	c #979797979797",
"5	c #FFFFFFFFFFFF",
"6	c #393936363333",
"7	c #61615D5D5858",
"8	c #3B3B3B3B3B3B",
"9	c #181818181414",
"0	c #0C0C0C0C0C0C",
"q	c #878787878787",
"w	c #AFAFAFAFAFAF",
"e	c #21211C1C1818",
"r	c #7F7F7F7F7F7F",
"t	c #777777777777",
"y	c #6F6F6F6F6F6F",
"u	c #2F2F2F2F2F2F",
"i	c #5B5B5B5B5B5B",
"p	c #535353535353",
"a	c #8383FFFF8383",
"s	c #4B4B4B4B4B4B",
"                                                ",
"                                                ",
"  ..........................................Xo  ",
" .OOOOOOOOO+O+O++++++++++++++++@+++@@@+@@@@@@#$ ",
" .OO+OOO+O+O+O+O+O+++O++++++@+@+@+@+@+@+@+%@%#& ",
" .OOOOOOO+O+O++++++++++++++++++++@+@+@@@@@%%%#& ",
" .+O+************************************@%%%=& ",
" .OOO*&&&&&&&&&&&&&&&&&&&&&&&&&&&&&&&&&&&-%*%=& ",
" .+O+*&;;;;;;;;;;;;;;;;;;;;;;;;;;;;;;;;;;.*%*=& ",
" .OOO*&;;;;;;;;;;:>,<112111<,3:;;;;;;;;;;.***4& ",
" .+O+*&;;;;;;;;;><5555555555551>;;;;;;;;;.X*X4& ",
" .O+O*&;;;;;;;;>2555555555555555>;;;;;;;;.XXX4& ",
" .+O+*&;;;;;;;61255555555555555516;;;;;;;.XX-o& ",
" .O+O*&;;;;;;;>1225555511555555553;;;;;;;.X-Xo& ",
" .+O+*&;;;;;;;,112255<7::7,155552<;;;;;;;.-X-o8 ",
" .O++*&;;;;;;;,<11221:;;;;9,5522210;;;;;;.---q8 ",
" .+O+*&;;;;;;;,<<111<0;;;;;35221116;;;;;;.w-wq8 ",
" .+++*&;;;;;;e,<<<111<111<1122111<7;;;;;;.wwwq8 ",
" .+O+*&;;;;;;:,,<<<<11111211111<<<7;;;;;;.#w#r8 ",
" .+++*&;;;;;;:,,,<<<<<<1<1<1<<<<<<7;;;;;;.w##r8 ",
" .+++*&;;;;;;:,,,,,<,,,<,<,<,<,,,37;;;;;;.###r8 ",
" .+++*&;;;;;;e33,,,,,e;;;;;;;;;;;;;;;;;;;.###t8 ",
" .+++*&;;;;;;933,,,,3e;;;;;e::::e9;;;;;;;.=#=t8 ",
" .+++*&;;;;;;;>333,,,:;;;;0>3,33336;;;;;;.===yu ",
" .@+@*&;;;;;;;>>333337:;096333,33>e;;;;;;.4=4yu ",
" .+++*&;;;;;;;7>333333>7>7333333>>;;;;;;;.444yu ",
" .@+@*&;;;;;;;6>>>>3333333333>3>>7;;;;;;;.o4o$u ",
" .+@+*&;;;;;;;;7>>>>>>>3>>3>>>>>>6;;;;;;;.4oo$u ",
" .@+@*&;;;;;;;;97>>>>>>>>>>>>>>77;;;;;;;;.ooo$u ",
" .+@+*&;;;;;;;;;0677>>7>>7>7>776;;;;;;;;;.oooiu ",
" .@+@*&;;;;;;;;;;;;9:66676666e;;;;;;;;;;;.qoqiu ",
" .+@@*&;;;;;;;;;;;;;;;;;;;;;;;;;;;;;;;;;;.qqqiu ",
" .@+@*&;;;;;;;;;;;;;;;;;;;;;;;;;;;;;;;;;;.rqrp; ",
" .@@@+-..................................%rrrp; ",
" .@@%@*%**X*XX-X--w-ww##=#==4=44ooqoq$$$trtrtp; ",
" .@%%%%****XXXX----www###====444oooqq$aa-rrtts; ",
" X@@%@%%*%X*XX-X--ww#w##=#==4=44o4ooqq---rtrts; ",
" o####====444ooooqqqrrrrtttyyyy$$$iiiipppsssss; ",
"  $&&&&&&&&&&&&88888888888uuuuuuuuuuu;;;;;;;;;  ",
"           @&&&&&&q*#4q$p&&8uuuuu8ppp           ",
"          @*$$$$$p$q#4q$p&8uu88&ptttt;          ",
"         @*4qqqqqqt$$&&&&888&p$qqqqqqt;         ",
"        @*-########444qqqqq444#######-t;        ",
"       @@@@@@@@%%%%%%%%%%%%************t;       ",
"       @################################;       ",
"       @################################;       ",
"        ;;;;;;;;;;;;;;;;;;;;;;;;;;;;;;;;        ",
"                                                "};
