/* XPM */
static char * image_name[] = {
"48 48 42 1",
" 	c None",
".	c #FBFBFBFBFBFB",
"X	c #BFBFBFBFBFBF",
"o	c #8F8F8F8F8F8F",
"O	c #E7E7E7E7E7E7",
"+	c #DFDFDFDFDFDF",
"@	c #D7D7D7D7D7D7",
"#	c #A7A7A7A7A7A7",
"$	c #636363636363",
"%	c #CFCFCFCFCFCF",
"&	c #434343434343",
"*	c #C7C7C7C7C7C7",
"=	c #9F9F9F9F9F9F",
"-	c #B7B7B7B7B7B7",
";	c #000000000000",
":	c #101010101010",
">	c #21211E1E1B1B",
",	c #2B2B27272525",
"<	c #313131312929",
"1	c #52524C4C4747",
"2	c #656560605A5A",
"3	c #42423F3F3C3C",
"4	c #979797979797",
"5	c #7D7D78787373",
"6	c #ABABA0A09797",
"7	c #363633333131",
"8	c #393939393939",
"9	c #E7E7DCDCD1D1",
"0	c #080808080808",
"q	c #3B3B3B3B3B3B",
"w	c #878787878787",
"e	c #AFAFAFAFAFAF",
"r	c #181818181414",
"t	c #7F7F7F7F7F7F",
"y	c #777777777777",
"u	c #6F6F6F6F6F6F",
"i	c #2F2F2F2F2F2F",
"p	c #101010100808",
"a	c #5B5B5B5B5B5B",
"s	c #535353535353",
"d	c #8383FFFF8383",
"f	c #4B4B4B4B4B4B",
"                                                ",
"                                                ",
"  ..........................................Xo  ",
" .OOOOOOOOO+O+O++++++++++++++++@+++@@@+@@@@@@#$ ",
" .OO+OOO+O+O+O+O+O+++O++++++@+@+@+@+@+@+@+%@%#& ",
" .OOOOOOO+O+O++++++++++++++++++++@+@+@@@@@%%%#& ",
" .+O+************************************@%%%=& ",
" .OOO*&&&&&&&&&&&&&&&&&&&&&&&&&&&&&&&&&&&-%*%=& ",
" .+O+*&;;;;;;;;;;;;;;:>,<>;;;;;;;;;;;;;;;.*%*=& ",
" .OOO*&;;;;;;;;;;;:1222213>;;;;;;;;;;;;;;.***4& ",
" .+O+*&;;;;;;;;;;;155666578:;;;;;;;;;;;;;.X*X4& ",
" .O+O*&;;;;;;;;;;;569699588>;;;;;;;;;;;;;.XXX4& ",
" .+O+*&;;;;;;;;;;;669999587<;;;;;;;;;;;;;.XX-o& ",
" .O+O*&;;;;;;;;;;>669999577<;;;;;;;;;;;;;.X-Xo& ",
" .+O+*&;;;;;;;;;;<6669992<<80;;;;;;;;;;;;.-X-oq ",
" .O++*&;;;;;;;;;;<56666938<80;;;;;;;;;;;;.---wq ",
" .+O+*&;;;;;;;;;;85566663153:;;;;;;;;;;;;.e-ewq ",
" .+++*&;;;;;;;;;;<5555668852r;;;;;;;;;;;;.eeewq ",
" .+O+*&;;;;;;;;;;<2255553333:;;;;;;;;;;;;.#e#tq ",
" .+++*&;;;;;;;;;;,2222553873:;;;;;;;;;;;;.e##tq ",
" .+++*&;;;;;;;;;;>1121251123:;;;;;;;;;;;;.###tq ",
" .+++*&;;;;;;;;;;;;;;;269692:;;;;;;;;;;;;.###yq ",
" .+++*&;;;;;;;;;;;;;;;599992r;;;;;;;;;;;;.=#=yq ",
" .+++*&;;;;;;;;;;:8333255695:;;;;;;;;;;;;.===ui ",
" .@+@*&;;;;;;;;;;>1111113291:;;;;;;;;;;;;.4=4ui ",
" .+++*&;;;;;;;;;;>3113113338:;;;;;;;;;;;;.444ui ",
" .@+@*&;;;;;;;;;;:3331333887;;;;;;;;;;;;;.o4o$i ",
" .+@+*&;;;;;;;;;;:333331838<;;;;;;;;;;;;;.4oo$i ",
" .@+@*&;;;;;;;;;;;<83333387,;;;;;;;;;;;;;.ooo$i ",
" .+@+*&;;;;;;;;;;;>><<<,887p;;;;;;;;;;;;;.oooai ",
" .@+@*&;;;;;;;;;;;:r>>>><<r;;;;;;;;;;;;;;.wowai ",
" .+@@*&;;;;;;;;;;;;;;;;;;;;;;;;;;;;;;;;;;.wwwai ",
" .@+@*&;;;;;;;;;;;;;;;;;;;;;;;;;;;;;;;;;;.twts; ",
" .@@@+-..................................%ttts; ",
" .@@%@*%**X*XX-X--e-ee##=#==4=44oowow$$$ytytys; ",
" .@%%%%****XXXX----eee###====444oooww$dd-ttyyf; ",
" X@@%@%%*%X*XX-X--ee#e##=#==4=44o4ooww---tytyf; ",
" o####====444oooowwwttttyyyuuuu$$$aaaasssfffff; ",
"  $&&&&&&&&&&&&qqqqqqqqqqqiiiiiiiiiii;;;;;;;;;  ",
"           @&&&&&&w*#4w$s&&qiiiiiqsss           ",
"          @*$$$$$s$w#4w$s&qiiqq&syyyy;          ",
"         @*4wwwwwwy$$&&&&qqq&s$wwwwwwy;         ",
"        @*-########444wwwww444#######-y;        ",
"       @@@@@@@@%%%%%%%%%%%%************y;       ",
"       @################################;       ",
"       @################################;       ",
"        ;;;;;;;;;;;;;;;;;;;;;;;;;;;;;;;;        ",
"                                                "};
