/* XPM */
static char * image_name[] = {
"48 48 41 1",
" 	c None",
".	c #FBFBFBFBFBFB",
"X	c #BFBFBFBFBFBF",
"o	c #8F8F8F8F8F8F",
"O	c #E7E7E7E7E7E7",
"+	c #DFDFDFDFDFDF",
"@	c #D7D7D7D7D7D7",
"#	c #A7A7A7A7A7A7",
"$	c #636363636363",
"%	c #CFCFCFCFCFCF",
"&	c #434343434343",
"*	c #C7C7C7C7C7C7",
"=	c #9F9F9F9F9F9F",
"-	c #B7B7B7B7B7B7",
";	c #000000000000",
":	c #101010101010",
">	c #23231E1E1B1B",
",	c #5C5C57575252",
"<	c #7C7C75756E6E",
"1	c #474744443F3F",
"2	c #979797979797",
"3	c #CDCDC7C7C0C0",
"4	c #E3E3DDDDD8D8",
"5	c #B3B3A9A9A0A0",
"6	c #FFFFFFFFFFFF",
"7	c #3B3B3B3B3B3B",
"8	c #878787878787",
"9	c #AFAFAFAFAFAF",
"0	c #F7F7F3F3E7E7",
"q	c #7F7F7F7F7F7F",
"w	c #777777777777",
"e	c #6F6F6F6F6F6F",
"r	c #2F2F2F2F2F2F",
"t	c #424239393939",
"y	c #353535353131",
"u	c #2D2D2D2D2525",
"i	c #5B5B5B5B5B5B",
"p	c #181818181818",
"a	c #535353535353",
"s	c #8383FFFF8383",
"d	c #4B4B4B4B4B4B",
"                                                ",
"                                                ",
"  ..........................................Xo  ",
" .OOOOOOOOO+O+O++++++++++++++++@+++@@@+@@@@@@#$ ",
" .OO+OOO+O+O+O+O+O+++O++++++@+@+@+@+@+@+@+%@%#& ",
" .OOOOOOO+O+O++++++++++++++++++++@+@+@@@@@%%%#& ",
" .+O+************************************@%%%=& ",
" .OOO*&&&&&&&&&&&&&&&&&&&&&&&&&&&&&&&&&&&-%*%=& ",
" .+O+*&;;;;;;;;;;;;;;:>>>>>:;;;;;;;;;;;;;.*%*=& ",
" .OOO*&;;;;;;;;;;;;;;,<<,<,1;;;;;;;;;;;;;.***2& ",
" .+O+*&;;;;;;;;;;;;;;3444445;;;;;;;;;;;;;.X*X2& ",
" .O+O*&;;;;;;;;;;;;;;3666663;;;;;;;;;;;;;.XXX2& ",
" .+O+*&;;;;;;;;;;;;;;3666664;;;;;;;;;;;;;.XX-o& ",
" .O+O*&;;;;;;;;;;;;;;4666664;;;;;;;;;;;;;.X-Xo& ",
" .+O+*&;;;;;;;;;;;;;;3666664;;;;;;;;;;;;;.-X-o7 ",
" .O++*&;;;;;;;;;;;;;;4666664;;;;;;;;;;;;;.---87 ",
" .+O+*&;;;;;;;;;;;;;;3666664;;;;;;;;;;;;;.9-987 ",
" .+++*&;;;;;;;;;;;;;;3000004;;;;;;;;;;;;;.99987 ",
" .+O+*&;;;;;;;;;;;;;;5434443;;;;;;;;;;;;;.#9#q7 ",
" .+++*&;;;;;;;;;;;;;;5533335;;;;;;;;;;;;;.9##q7 ",
" .+++*&;;;;;;;;;;;;;;<555555;;;;;;;;;;;;;.###q7 ",
" .+++*&;;;;;;;;;;;;;;<<5<5<<;;;;;;;;;;;;;.###w7 ",
" .+++*&;;;;;;;;;;;;;;,<<<<<<;;;;;;;;;;;;;.=#=w7 ",
" .+++*&;;;;;;;;;;;;;;,<,<,<,;;;;;;;;;;;;;.===er ",
" .@+@*&;;;;;;;;;;;;;;1,,,,,,;;;;;;;;;;;;;.2=2er ",
" .+++*&;;;;;;;;;;;;;;t,1,1,1;;;;;;;;;;;;;.222er ",
" .@+@*&;;;;;;;;;;;;;;t111111;;;;;;;;;;;;;.o2o$r ",
" .+@+*&;;;;;;;;;;;;;;yt1t1tt;;;;;;;;;;;;;.2oo$r ",
" .@+@*&;;;;;;;;;;;;;;uyyyyy>;;;;;;;;;;;;;.ooo$r ",
" .+@+*&;;;;;;;;;;;;;;>u>>>>>;;;;;;;;;;;;;.oooir ",
" .@+@*&;;;;;;;;;;;;;;:>>>p>:;;;;;;;;;;;;;.8o8ir ",
" .+@@*&;;;;;;;;;;;;;;;;;;;;;;;;;;;;;;;;;;.888ir ",
" .@+@*&;;;;;;;;;;;;;;;;;;;;;;;;;;;;;;;;;;.q8qa; ",
" .@@@+-..................................%qqqa; ",
" .@@%@*%**X*XX-X--9-99##=#==2=22oo8o8$$$wqwqwa; ",
" .@%%%%****XXXX----999###====222ooo88$ss-qqwwd; ",
" X@@%@%%*%X*XX-X--99#9##=#==2=22o2oo88---qwqwd; ",
" o####====222oooo888qqqqwwweeee$$$iiiiaaaddddd; ",
"  $&&&&&&&&&&&&77777777777rrrrrrrrrrr;;;;;;;;;  ",
"           @&&&&&&8*#28$a&&7rrrrr7aaa           ",
"          @*$$$$$a$8#28$a&7rr77&awwww;          ",
"         @*2888888w$$&&&&777&a$888888w;         ",
"        @*-########22288888222#######-w;        ",
"       @@@@@@@@%%%%%%%%%%%%************w;       ",
"       @################################;       ",
"       @################################;       ",
"        ;;;;;;;;;;;;;;;;;;;;;;;;;;;;;;;;        ",
"                                                "};
