/* XPM */
static char * image_name[] = {
"48 48 40 1",
" 	c None",
".	c #FBFBFBFBFBFB",
"X	c #BFBFBFBFBFBF",
"o	c #8F8F8F8F8F8F",
"O	c #E7E7E7E7E7E7",
"+	c #DFDFDFDFDFDF",
"@	c #D7D7D7D7D7D7",
"#	c #A7A7A7A7A7A7",
"$	c #636363636363",
"%	c #CFCFCFCFCFCF",
"&	c #434343434343",
"*	c #C7C7C7C7C7C7",
"=	c #9F9F9F9F9F9F",
"-	c #B7B7B7B7B7B7",
";	c #000000000000",
":	c #292925252121",
">	c #474744443F3F",
",	c #353532323030",
"<	c #121210100D0D",
"1	c #5A5A55554E4E",
"2	c #94948A8A8282",
"3	c #B8B8ACACA2A2",
"4	c #74746F6F6969",
"5	c #676760605C5C",
"6	c #52524A4A4646",
"7	c #979797979797",
"8	c #212121211C1C",
"9	c #3B3B3B3B3B3B",
"0	c #878787878787",
"q	c #AFAFAFAFAFAF",
"w	c #080808080808",
"e	c #7F7F7F7F7F7F",
"r	c #777777777777",
"t	c #1C1C18181818",
"y	c #6F6F6F6F6F6F",
"u	c #2F2F2F2F2F2F",
"i	c #5B5B5B5B5B5B",
"p	c #535353535353",
"a	c #8383FFFF8383",
"s	c #4B4B4B4B4B4B",
"                                                ",
"                                                ",
"  ..........................................Xo  ",
" .OOOOOOOOO+O+O++++++++++++++++@+++@@@+@@@@@@#$ ",
" .OO+OOO+O+O+O+O+O+++O++++++@+@+@+@+@+@+@+%@%#& ",
" .OOOOOOO+O+O++++++++++++++++++++@+@+@@@@@%%%#& ",
" .+O+************************************@%%%=& ",
" .OOO*&&&&&&&&&&&&&&&&&&&&&&&&&&&&&&&&&&&-%*%=& ",
" .+O+*&;;;;;;;;;;;;;:>,:<;;;;;;;;;;;;;;;;.*%*=& ",
" .OOO*&;;;;;;;;;;;123222456,<;;;;;;;;;;;;.***7& ",
" .+O+*&;;;;;;;;;<433322244455><;;;;;;;;;;.X*X7& ",
" .O+O*&;;;;;;;;8533332224445516<;;;;;;;;;.XXX7& ",
" .+O+*&;;;;;;;<,233322244455551>;;;;;;;;;.XX-o& ",
" .O+O*&;;;;;;;8>33332224445555518;;;;;;;;.X-Xo& ",
" .+O+*&;;;;;;;:>3332224>,:>15555,;;;;;;;;.-X-o9 ",
" .O++*&;;;;;;;,13332225;<::,5155>;;;;;;;;.---09 ",
" .+O+*&;;;;;;;,53322221<;:>,15516;;;;;;;;.q-q09 ",
" .+++*&;;;;;;w,522222444551155116;;;;;;;;.qqq09 ",
" .+O+*&;;;;;;<,522224444555151111;;;;;;;;.#q#e9 ",
" .+++*&;;;;;;<:522244445555111116;;;;;;;;.q##e9 ",
" .+++*&;;;;;;<:1224444511161666>>;;;;;;;;.###e9 ",
" .+++*&;;;;;;<:1244444>;;;;;;;;;;;;;;;;;;.###r9 ",
" .+++*&;;;;;;;:>444455>;;t8:,,,88;;;;;;;;.=#=r9 ",
" .+++*&;;;;;;;8>444555>;;,>>6666>;;;;;;;;.===yu ",
" .@+@*&;;;;;;;8,4555511<:6166666>;;;;;;;;.7=7yu ",
" .+++*&;;;;;;;t8551111111616666>,;;;;;;;;.777yu ",
" .@+@*&;;;;;;;<86515161666666666:;;;;;;;;.o7o$u ",
" .+@+*&;;;;;;;;t,111166666666>6><;;;;;;;;.7oo$u ",
" .@+@*&;;;;;;;;;t>116616666>66>t;;;;;;;;;.ooo$u ",
" .+@+*&;;;;;;;;;;<>>16666>66>8<;;;;;;;;;;.oooiu ",
" .@+@*&;;;;;;;;;;;;t:>,,,:8<;;;;;;;;;;;;;.0o0iu ",
" .+@@*&;;;;;;;;;;;;;;;;;;;;;;;;;;;;;;;;;;.000iu ",
" .@+@*&;;;;;;;;;;;;;;;;;;;;;;;;;;;;;;;;;;.e0ep; ",
" .@@@+-..................................%eeep; ",
" .@@%@*%**X*XX-X--q-qq##=#==7=77oo0o0$$$rererp; ",
" .@%%%%****XXXX----qqq###====777ooo00$aa-eerrs; ",
" X@@%@%%*%X*XX-X--qq#q##=#==7=77o7oo00---erers; ",
" o####====777oooo000eeeerrryyyy$$$iiiipppsssss; ",
"  $&&&&&&&&&&&&99999999999uuuuuuuuuuu;;;;;;;;;  ",
"           @&&&&&&0*#70$p&&9uuuuu9ppp           ",
"          @*$$$$$p$0#70$p&9uu99&prrrr;          ",
"         @*7000000r$$&&&&999&p$000000r;         ",
"        @*-########77700000777#######-r;        ",
"       @@@@@@@@%%%%%%%%%%%%************r;       ",
"       @################################;       ",
"       @################################;       ",
"        ;;;;;;;;;;;;;;;;;;;;;;;;;;;;;;;;        ",
"                                                "};
