/* XPM */
static char * image_name[] = {
"48 48 40 1",
" 	c None",
".	c #FBFBFBFBFBFB",
"X	c #BFBFBFBFBFBF",
"o	c #8F8F8F8F8F8F",
"O	c #E7E7E7E7E7E7",
"+	c #DFDFDFDFDFDF",
"@	c #D7D7D7D7D7D7",
"#	c #A7A7A7A7A7A7",
"$	c #636363636363",
"%	c #CFCFCFCFCFCF",
"&	c #434343434343",
"*	c #C7C7C7C7C7C7",
"=	c #9F9F9F9F9F9F",
"-	c #B7B7B7B7B7B7",
";	c #000000000000",
":	c #101008080808",
">	c #212121211C1C",
",	c #2E2E2B2B2929",
"<	c #101010101010",
"1	c #393939393535",
"2	c #424242423939",
"3	c #54544F4F4A4A",
"4	c #424242424242",
"5	c #979797979797",
"6	c #4C4C47474242",
"7	c #080808080808",
"8	c #707069696464",
"9	c #1C1C18181818",
"0	c #424239393939",
"q	c #3B3B3B3B3B3B",
"w	c #878787878787",
"e	c #AFAFAFAFAFAF",
"r	c #7F7F7F7F7F7F",
"t	c #777777777777",
"y	c #6F6F6F6F6F6F",
"u	c #2F2F2F2F2F2F",
"i	c #5B5B5B5B5B5B",
"p	c #535353535353",
"a	c #8383FFFF8383",
"s	c #4B4B4B4B4B4B",
"                                                ",
"                                                ",
"  ..........................................Xo  ",
" .OOOOOOOOO+O+O++++++++++++++++@+++@@@+@@@@@@#$ ",
" .OO+OOO+O+O+O+O+O+++O++++++@+@+@+@+@+@+@+%@%#& ",
" .OOOOOOO+O+O++++++++++++++++++++@+@+@@@@@%%%#& ",
" .+O+************************************@%%%=& ",
" .OOO*&&&&&&&&&&&&&&&&&&&&&&&&&&&&&&&&&&&-%*%=& ",
" .+O+*&;;;;;;;;;;;;;;:>>,:;;;;;;;;;;;;;;;.*%*=& ",
" .OOO*&;;;;;;;;;;<12333342,;;;;;;;;;;;;;;.***5& ",
" .+O+*&;;;;;;;;;:433333464217;;;;;;;;;;;;.X*X5& ",
" .O+O*&;;;;;;;;;,38383364622,;;;;;;;;;;;;.XXX5& ",
" .+O+*&;;;;;;;;;6338336662421:;;;;;;;;;;;.XX-o& ",
" .O+O*&;;;;;;;;;63338632662229;;;;;;;;;;;.X-Xo& ",
" .+O+*&;;;;;;;;:333333664,100>;;;;;;;;;;;.-X-oq ",
" .O++*&;;;;;;;;<3333336421,10,;;;;;;;;;;;.---wq ",
" .+O+*&;;;;;;;;>3333332666331,;;;;;;;;;;;.e-ewq ",
" .+++*&;;;;;;;;>3333366466332,;;;;;;;;;;;.eeewq ",
" .+O+*&;;;;;;;;>6363342622420,;;;;;;;;;;;.#e#rq ",
" .+++*&;;;;;;;;>6666366424222,;;;;;;;;;;;.e##rq ",
" .+++*&;;;;;;;;>6363646240111,;;;;;;;;;;;.###rq ",
" .+++*&;;;;;;;;>663632461;;;;;;;;;;;;;;;;.###tq ",
" .+++*&;;;;;;;;>363366222001,>;;;;;;;;;;;.=#=tq ",
" .+++*&;;;;;;;;96363322428882,;;;;;;;;;;;.===yu ",
" .@+@*&;;;;;;;;:6466642028882,;;;;;;;;;;;.5=5yu ",
" .+++*&;;;;;;;;;2464222026321,;;;;;;;;;;;.555yu ",
" .@+@*&;;;;;;;;;,222200000001,;;;;;;;;;;;.o5o$u ",
" .+@+*&;;;;;;;;;>,11101200011<;;;;;;;;;;;.5oo$u ",
" .@+@*&;;;;;;;;;:,,,,,200011,;;;;;;;;;;;;.ooo$u ",
" .+@+*&;;;;;;;;;;:>,,,,2011,;;;;;;;;;;;;;.oooiu ",
" .@+@*&;;;;;;;;;;;;::<>,,,:;;;;;;;;;;;;;;.wowiu ",
" .+@@*&;;;;;;;;;;;;;;;;;;;;;;;;;;;;;;;;;;.wwwiu ",
" .@+@*&;;;;;;;;;;;;;;;;;;;;;;;;;;;;;;;;;;.rwrp; ",
" .@@@+-..................................%rrrp; ",
" .@@%@*%**X*XX-X--e-ee##=#==5=55oowow$$$trtrtp; ",
" .@%%%%****XXXX----eee###====555oooww$aa-rrtts; ",
" X@@%@%%*%X*XX-X--ee#e##=#==5=55o5ooww---rtrts; ",
" o####====555oooowwwrrrrtttyyyy$$$iiiipppsssss; ",
"  $&&&&&&&&&&&&qqqqqqqqqqquuuuuuuuuuu;;;;;;;;;  ",
"           @&&&&&&w*#5w$p&&quuuuuqppp           ",
"          @*$$$$$p$w#5w$p&quuqq&ptttt;          ",
"         @*5wwwwwwt$$&&&&qqq&p$wwwwwwt;         ",
"        @*-########555wwwww555#######-t;        ",
"       @@@@@@@@%%%%%%%%%%%%************t;       ",
"       @################################;       ",
"       @################################;       ",
"        ;;;;;;;;;;;;;;;;;;;;;;;;;;;;;;;;        ",
"                                                "};
