/* XPM */
static char * image_name[] = {
"48 50 49 1",
" 	c None",
".	c #000000000000",
"X	c #101018186969",
"o	c #303034347979",
"O	c #515151517171",
"+	c #494951518686",
"@	c #101041413838",
"#	c #000004045151",
"$	c #282828285959",
"%	c #181824246969",
"&	c #202030307171",
"*	c #303049498E8E",
"=	c #414151518E8E",
"-	c #96969696BEBE",
";	c #86867D7DA6A6",
":	c #000018185151",
">	c #10100C0C5151",
",	c #494941417171",
"<	c #59595D5D8E8E",
"1	c #181834348E8E",
"2	c #51515D5D9E9E",
"3	c #69696D6D9E9E",
"4	c #9E9E9696BEBE",
"5	c #71718A8AA6A6",
"6	c #000000002020",
"7	c #717179799E9E",
"8	c #696975758E8E",
"9	c #595969699E9E",
"0	c #8E8E9292AEAE",
"q	c #414151519E9E",
"w	c #080824247171",
"e	c #000020208686",
"r	c #282841419696",
"t	c #B6B6B2B2CFCF",
"y	c #000010107171",
"u	c #383841417171",
"i	c #10102C2C5151",
"p	c #696965658686",
"a	c #8E8E8282A6A6",
"s	c #AEAEAAAAB6B6",
"d	c #AEAEA2A2C7C7",
"f	c #BEBEBEBECFCF",
"g	c #9E9E9A9AA6A6",
"h	c #18184D4D9696",
"j	c #DFDFDBDBEFEF",
"k	c #C7C7C3C3DFDF",
"l	c #CFCFCBCBDFDF",
"z	c #797979798E8E",
"x	c #10100C0C4141",
"                                                ",
"                                                ",
"                  ..XoO+O+@                     ",
"               ..#$%&ooo*==*-;:                 ",
"             ...>&,<1111o*23;4--5               ",
"            .6#$X+o7<89193+373;;;77             ",
"          ...:$o$3%7+;<025344;q--33;            ",
"         ...::%,we%<+;;7&X+11r2q0t;-3-          ",
"        ..6$$&ww&1%yu0=*eX113e1e1r17-4-         ",
"       ...i&,&=w,=+upow;34-o<+p3aeerq5;-        ",
"       ...,$<3o300;3sdt-<+ou-0+r1qqrq2q3;       ",
"      ...$&&u++90;p0;df+g*w&0-do*111q92q;       ",
"     ..6X$u+++%+p8+-s+,&&w&&-8005<*+=q2q;;      ",
"     ...#$,,o,%<=&+%d,3&w%8&30d0;*83==qqd3h     ",
"    ...6:%&%Xu+*<%X3;a0+4-u=gtfjs<20<+=q7;;     ",
"    ..6yw:&%7p7&+3%oo%tkfflk-4ljj;=q3t3q933;    ",
"   ....:Xop++503;oadt<Ok0djlt--jj4-q1+9-23qd    ",
"   ..6.$:o,7puou+03t0-1z8kl4tkjj-s-<*r120qq-    ",
"   ..6>:oO<<po+7,73+04-+Ogjfalfjsdsp;=rr=-l;4   ",
"   ..6:%%:%+,8X++3+3<3;dpasjj3tjlk-l++*or*3;;   ",
"  ....:XooowoXo%yowyoo1fpps-jftftk00*%11112;3   ",
"  ....6xX&%p&oXX+oeyy*1spps-ktttdl-;1ere<qq5;   ",
"  ..6xXX%Xy%pp%1oX&yy&wg8az=0kstljs13e1eqq9qde  ",
"  ..6$w::wwp4+4;y2%+=%:zsg837ddtlksr25e11<23-3  ",
"  ..6$O%,:y<;&+05op3<dessdl7-tsff7o1e%-eeh;33;  ",
"  ..6$u$O%+uoz71;7z8ud&g0ap3tss9f-2q2*113q293-  ",
"  ..6.&3pX=*ag-ssadd338za<uO5ft;jf259qq111q---  ",
"  ..6:uXz+wy;z00a000;0,pOOuo<fjjja3-23tee11--h  ",
"  ....>O+;Xy%;;;ttdd;s+O&w%==-jjj-d<9et-1112k   ",
"  ....:<+;7%y:-4;t;t4dpO14805kljlk3-oaeot11qt   ",
"   ...&%pp00;;%%--dtdtzf%05t0j3t05-27;3e3e<;t   ",
"   ...$&<7;ag4-a+-sfft0-8o0t09dakf0Xqq;q5e9;d   ",
"   ...$&&3az;0--sdtkl3+d=t40k0l3==353-1353*-h   ",
"   ..6$$u,p07;7-dstkflf;3qt0+-3jl<d<52q;-1qd    ",
"    ...$o$o%00a;gss4att04t0t<kffjdt2;32qdq3-    ",
"    ...><<7<<407z8<-4ddf-ft4tfj-ljjt-3dqqrd     ",
"     .6$uO877;-+1sssfd9tkdftdtjlkltf4;3k92-     ",
"     ...i+p7;;4-sdttdllllftksdlt4kkka3kr7;      ",
"      .6x$pp0---;---ljlklfflkdf-fkqrod3q-6      ",
"       ..>,3;;apdtfkklllllklfktdfkkkt;2;-       ",
"       ..xu<8504dtfkkkllllllkt*dktt4-d;;        ",
"        ..&<870-stttkfkklkkkkt1ttd0tddd         ",
"         .6upp70-4dtffkklkkktd-tkskd4-          ",
"          ..$+<;0-sdttkkfkftta--td-9@           ",
"            .$O8;a4sdtdtttk0t-5a-a3             ",
"             ..O37;044sddttt4-3--               ",
"               ..+37;a-0ss4;a;;                 ",
"                  ..<<33<2<9                    ",
"                                                ",
"                                                "};
