/* XPM */
static char * image_name[] = {
"48 57 11 1",
" 	c None",
".	c #65655F5F5353",
"X	c #040403030303",
"o	c #47473B3B2626",
"O	c #B7B7B5B5B0B0",
"+	c #F9F9F7F7F7F7",
"@	c #99998D8D7777",
"#	c #99996D6D1313",
"$	c #EEEEBABA1212",
"%	c #B6B691912222",
"&	c #EEEEC7C71C1C",
"                     .XXXXo                     ",
"                   .XXXXXXXXo                   ",
"                  oXXXXXXXXXXX.                 ",
"                 oXXXXXXXXX..XX.                ",
"                .XXXXXXXXXX..XXX                ",
"                oXXXXXXXXXXXXXXX.               ",
"                oXXXXXXXXXXXXXXXXX              ",
"                XXXXXXXXXXXXXXXXX.              ",
"                XXXXXXXXXo.ooXXXX.              ",
"                  .O.XXXoOOO.XXXX.              ",
"                 oOO+oXXO+@OOXXXXo              ",
"                o.ooOXXX+.X.+oXXXo              ",
"                o.oX.XXXOoXXO.XXXo              ",
"                oXOX#$$%%#Xo+oXXXo              ",
"                oX@%$&&&&&$XXXXXXX              ",
"                . #%$&&&&&&&&XXXXXX             ",
"                .o%$$&&&&&$%%XXXXX.             ",
"                .X#$$&&&$%%%%XXoXX.             ",
"                .X@#%%%##%%%XoX.XXX             ",
"                .XO@#%%%%%OOOOXX.XXo            ",
"                XXOO@###%XO+++oXXXXX.           ",
"               .Xo+OOOOOOO++++OXXXXXo           ",
"               XXO++OOOO+++++++oXXXXX.          ",
"              XX.++++O+++++++++OXXXXXX          ",
"             oXX++++++++++++++++XXXXXXo         ",
"            .XX.++++++++++++++++oXXXXXXo        ",
"           .XXXXO++++++++++OOOOO@XXXXXXX.       ",
"           oXXXOO+++++++++++OOOO+oXXXXXXXX      ",
"           XXXoO+++++++++++++++OO@XXXXXXX.      ",
"          .XXXO++++++++++++++++++OXXXXXXXXX     ",
"          XXX.++++++++++++++++++++XXoXXXXX.     ",
"         .XXXO++++++++++++++++++++OXXXoXXXo     ",
"         oXX.++++++++++++++++++++++XXXXXXXXX    ",
"         XXXO++++++++++++++++++++++oXXXXXXX.    ",
"        .XXX+++++++++++++++++++++++oXXXXXXX.    ",
"        XXXX+++++++++++++++++++++++.XXXXXXXo    ",
"       oXXXo+++++++++++++++++++++++.XXXXXXXX    ",
"       XXXoo+++++++++++++++++++++++XXXXXXXXX    ",
"       XXXo.+++++++++++++++++++++++.XXXXXXXo    ",
"       X##X.+++++++++++++++++++++++.XXXXXoXo    ",
"       %$$$XO++++++++++++++++++++&&.XXXXXoX.    ",
"      %%$$$%X@++++++++++++++++++O$&%XXXXXX#%    ",
"     @%%$$$$#Xo+++++++++++++++++O$$#XXXXX#&&    ",
"   @#%%$&&$$&oXo++++++++++++++++X$$#oXXX#$$$    ",
"@%%%%$$$$$$$$%XXo++++++++++++++OX$%%####%$$$@   ",
"%%$$$$$$$$$$&&#XXXO++++++++++++OX%$%%%%%$$&$$@  ",
"@$$&$$$$$&$$$$$XXX.+++++++++++++O%$$$$%$$$$$$$  ",
"@%$&$$$$$&$$$$&#XX.+++++++++++++#%$$$$$$$$$$$$$@",
"@%$$$$$$$$$&$$$&#O++++++++++++OXo%$$$$$$$&$$$$$$",
"@%$$$$$$$$&$$$$$$O+++++++++++OXX.%$$&$$$$$$$&$&$",
"@%$$$$$$$$$$$$&$$#++++++++++.XXX#%$$$&$$$&$$$$$%",
"%%$$$$$$$&$$$$$$$#oXOOOO@.oXXXXX#%$$$$$$$$$$$%@ ",
"%%%%$$$$$$$$&$$$%#oXXXXXXXXXXXXX#%$$&$$$$$$%@   ",
"@##%%%%%%%$$$$$$%#.XXXXXXXXXXXXX#%%$$$$$%%.     ",
"   ..#####%%%%%%##oXXXooooooooXX.#%%%%%%#.      ",
"       ..########oo.            o#######@       ",
"          ..####o.              .o####.         "};
